<svg xmlns="http://www.w3.org/2000/svg" fill="none" viewBox="0 0 20 24"><path fill="#fff" fill-opacity=".4" d="M16.14 4.88H6v3.06h10.15V4.87Z"/><path fill="#fff" fill-rule="evenodd" d="M16.14 4.88H6v3.06h10.15V4.87Zm2.64 2.49h.54c.33 0 .5.17.5.5v4.74c0 .33-.17.5-.5.5h-.54v9.48c0 .66-.33 1-1 1H4.45c-.66 0-1-.34-1-1V3.84c0-.66.34-1 1-1h4.67v-.67c0-.07.04-.11.11-.11h.46c.07 0 .11.04.11.1v.68h7.98c.67 0 1 .34 1 1v3.53Zm-10.66 3.5v9.47h8.02v-9.48H8.12Z" clip-rule="evenodd"/><path fill="#fff" fill-rule="evenodd" d="M10.62 17.99c.1 0 .14.05.14.14v.9c0 .06-.04.1-.14.1h-.96c-.12 0-.18-.04-.18-.1v-.9c0-.1.06-.14.18-.14h.96Zm2.1 0c.12 0 .18.05.18.14v.9c0 .06-.06.1-.18.1h-.96c-.1 0-.14-.04-.14-.1v-.9c0-.1.04-.14.14-.14h.96Zm2.14 1.14h-.96c-.12 0-.18-.04-.18-.1v-.9c0-.1.06-.14.18-.14h.96c.12 0 .18.05.18.14v.9c0 .06-.06.1-.18.1Zm.18-3.03v.9c0 .06-.06.1-.18.1h-.96c-.12 0-.18-.04-.18-.1v-.9c0-.12.06-.18.18-.18h.96c.12 0 .18.06.18.18Zm-1.32-2.07c0-.1.06-.14.18-.14h.96c.12 0 .18.05.18.14v.9c0 .07-.06.1-.18.1h-.96c-.12 0-.18-.03-.18-.1v-.9ZM11.62 17v-.89c0-.12.04-.18.14-.18h.96c.12 0 .18.06.18.18v.9c0 .06-.06.1-.18.1h-.96c-.1 0-.14-.04-.14-.1Zm-2.14 0v-.89c0-.12.06-.18.18-.18h.96c.1 0 .14.06.14.18v.9c0 .06-.04.1-.14.1h-.96c-.12 0-.18-.04-.18-.1Zm1.28-2.07c0 .07-.04.11-.14.11h-.96c-.12 0-.18-.04-.18-.1v-.9c0-.1.06-.14.18-.14h.96c.1 0 .14.05.14.14v.9Zm.86-.89c0-.1.04-.14.14-.14h.96c.12 0 .18.05.18.14v.9c0 .07-.06.1-.18.1h-.96c-.1 0-.14-.03-.14-.1v-.9ZM9.66 13c-.12 0-.18-.05-.18-.14V12c0-.1.06-.14.18-.14h.96c.1 0 .14.05.14.14v.86c0 .1-.04.14-.14.14h-.96Zm4.24 0c-.12 0-.18-.05-.18-.14V12c0-.1.06-.14.18-.14h.96c.12 0 .18.05.18.14v.86c0 .1-.06.14-.18.14h-.96Zm-1-.14c0 .1-.06.14-.18.14h-.96c-.1 0-.14-.05-.14-.14V12c0-.1.04-.14.14-.14h.96c.12 0 .18.05.18.14v.86Zm-9.32 3.63c-.43 0-1.05-.07-1.4-.11-.43-.1-.81-.35-1.15-.75-.33-.4-.59-1.1-.78-2.1C.08 12.57 0 11.2 0 9.43V6.26c0-.48.06-1.05.18-1.71A8.22 8.22 0 0 1 1 2.23c.12-.21.3-.4.53-.57.26-.2.48-.36.64-.5A4.44 4.44 0 0 1 5.13.52c.62 0 1.2.04 1.75.1.6.08 1.07.18 1.42.33.64.21.9.35 1.06.5.16.17.22.34.22.34l.1.4-.4.3v-.17c0-.16-.1-.33-.17-.49-.05-.13-.37-.3-.97-.5a5.37 5.37 0 0 0-1.34-.31C6.29.95 5.74.92 5.16.92a4.14 4.14 0 0 0-2.78.6c-.15.14-.35.3-.6.48-.22.16-.39.34-.5.54-.07.11-.12.23-.17.34a7.73 7.73 0 0 0-.6 1.86 9.61 9.61 0 0 0-.17 1.63v3.01c0 1.7.08 2.99.24 3.9.18.94.42 1.6.73 1.99.31.38.67.62 1.07.7.34.05.78.1 1.18.1l.02.42Z" clip-rule="evenodd"/></svg>
