<svg xmlns="http://www.w3.org/2000/svg" fill="none" viewBox="0 0 23 15"><path fill="#fff" fill-rule="evenodd" d="M22.24 13.83c.26-.4.2-1.13.2-1.79V2.8c0-.82.1-1.75-.37-2.12-.48-.38-1.04-.3-1.88-.3H1.12l-.33.1c-.3.15-.54.4-.67.7-.14.35-.06 1.3-.06 1.79v10.36c.07.32.28.6.51.78.43.3.9.25 1.62.25h18.08c1 0 1.56.09 1.97-.53ZM2.91 11.3c.15.36.74.8 1.38.67.1-.02.24-.02.34-.05.06-.03.11-.07.2-.09 0 .19.01.38.05.54.02.12-.03.27.03.36 0 .23-.19.18-.37.22-.22.05-.78.15-1.06.08-.2-.04-.4-.04-.57-.1-.59-.18-1-.53-1.24-1.06-.08-.2-.11-.43-.16-.65-.1-.42.02-.95.13-1.24.28-.7.74-1.1 1.49-1.32.2-.06.38-.01.61-.06.42-.06.84-.01 1.24.13l-.24.97c-.3-.07-.78-.19-1.15-.07-.52.17-.98.95-.68 1.67Zm6.92.32h-.75v1.31H7.85v-1.31H6.13c-.24 0-.6.05-.8-.02v-.87c.03-.09.13-.19.18-.27l.35-.56c.36-.57.68-1.15 1.04-1.72.18-.3.43-.6.58-.94h1.6v3.37h.77c0 .28.05.78-.02 1v.01Zm3.32 1.28c-.08.2-.8.13-1.1.13-.12 0-.28.02-.37-.01a.6.6 0 0 1-.27-.25v-1.25c.07-.07.11-.15.19-.2.04-.03.1-.04.13-.07.34 0 1.26-.07 1.4.1.14.16.09.6.09.88 0 .22.04.56-.07.67Zm.07-2.97c0 .12.02.31-.04.38-.1.3-.68.2-1.06.2h-.4c-.4-.12-.3-.52-.3-1.01v-.49c.05-.16.2-.19.33-.28h.92c.16 0 .33-.01.41.07.2.08.14.82.14 1.13Zm2.15.58h-.44c-.43 0-.93.08-1.08-.21-.05-.1-.02-.31-.02-.44V9c.03-.07.1-.14.15-.21l.15-.05h.92c.17 0 .33-.02.42.06.17.07.15.34.15.57 0 .45.1 1.04-.25 1.15v-.01Zm.18 2.37c-.09.25-.77.15-1.1.15h-.35c-.35-.1-.27-.6-.27-1.05v-.46c.04-.12.15-.17.22-.25.03-.01.03 0 .05-.02.39 0 1.3-.08 1.45.13.12.16.07.57.07.84 0 .21.04.55-.07.66Zm2.45-.53v.4c-.02.1-.08.16-.13.23-.3.08-1.43.13-1.58-.08-.13-.17-.07-.78-.07-1.07 0-.11-.02-.28.02-.37.05-.1.17-.14.26-.21h.94c.12 0 .3-.02.36.03.3.1.2.69.2 1.07Zm-.23-1.84h-.43c-.44 0-.96.08-1.1-.21-.05-.1-.02-.3-.02-.42V9c.02-.06.1-.13.13-.2l.19-.06h.91c.14 0 .31-.02.39.05.18.06.16.32.16.57 0 .43.1 1.05-.23 1.16v-.01Zm2.57 2.36c-.1.26-.74.16-1.08.16h-.36c-.38-.1-.3-.56-.3-1.03 0-.15-.03-.4.02-.52.05-.1.18-.15.27-.23h.93c.12 0 .3-.02.37.03.3.1.2.73.2 1.12 0 .16.02.38-.05.47Zm.05-2.99v.37c-.03.1-.11.15-.17.23-.25.06-.64.04-.95.04h-.38a.76.76 0 0 1-.19-.12c-.18-.15-.1-.75-.1-1.05v-.34c.03-.1.12-.16.17-.23l.15-.05h.9c.15 0 .32-.01.4.05.26.1.17.75.17 1.1Zm.1-2.05c-.1.25-.53.18-.87.18h-6.6c-.44 0-1.32.09-1.57-.1-.22-.16-.13-1.09-.13-1.48V3.36c0-.28-.06-1.11.03-1.28.06-.13.22-.16.33-.24h7.9c.42 0 .63-.04.9.14.1.4.06 1.05.06 1.56V7.4c0 .15.02.34-.05.43Zm-6.92-2.8v-.02l.3-.17c.02-.05-.05-.14-.07-.21-.12.05-.27.11-.37.2h-.03c.03-.1.02-.24.07-.32v-.03h-.27v.35a.95.95 0 0 1-.33-.2c-.05.05-.07.13-.12.18.03.09.2.16.28.2a.84.84 0 0 1-.28.18c.02.09.06.16.1.24.11-.02.26-.1.33-.17h.02v.37h.27c-.01-.1-.02-.27-.07-.34v-.01c.12.01.3.1.38.16h.02l.08-.25c-.1-.04-.22-.1-.3-.16h-.01Zm1.65-.02a.9.9 0 0 0 .33-.17l.02-.03a.5.5 0 0 1-.1-.18.95.95 0 0 0-.37.2h-.03l.08-.35h-.3v.35c-.1-.06-.18-.14-.28-.19v-.01h-.02c-.04.06-.1.1-.12.18h-.01c.03.08.23.17.31.2v.02c-.12.03-.2.11-.31.16.02.09.08.18.13.24.01.02.23-.12.27-.15h.03v.35h.3a.83.83 0 0 0-.08-.32v-.05l.38.19c.06-.07.08-.18.14-.24-.1-.08-.25-.1-.34-.18-.03-.01-.02 0-.03-.02Zm1.93-.37c-.01-.01-.3.15-.33.19h-.03c0-.12.02-.24.03-.35h-.27v.35c-.13-.04-.22-.14-.33-.2-.03.06-.06.15-.1.2.06.07.18.13.26.18a.62.62 0 0 1-.26.18l.08.24a.7.7 0 0 0 .33-.17h.02v.37h.27c0-.09 0-.24-.03-.3v-.07l.36.18c.03-.06.05-.14.09-.2-.03-.12-.24-.14-.32-.21-.03-.01-.02 0-.03-.02l.35-.17a.41.41 0 0 0-.09-.2Zm-9.71 4.5-.41.67c-.14.23-.24.59-.42.77v.04h1.23V9c.05-.23.06-.48.06-.75h-.05c-.14.28-.24.63-.4.9l-.01-.01Z" clip-rule="evenodd"/></svg>
