<svg xmlns="http://www.w3.org/2000/svg" width="29" height="32" fill="#fff"><path d="M14.17 0C1.96 0 0 1.08 0 1.08v16.3c0 3.67 1.92 7.2 4.6 9.78 3.07 2.94 8.08 4.71 9.57 4.71 1.66 0 6.3-1.8 9.34-4.7 2.75-2.64 4.82-6.2 4.82-9.72V1.08S25.01 0 14.17 0Zm.15 6.44c3.83 0 4.96 1.27 6.26 2.65 1.3 1.38 1.9 4.14 2.05 4.77.22.96.59 1.33.96 2.2.28.71.32 1.24.35 2.15.03.67-.07 1.23-.2 1.54-.16.44-.37.5-.68.5l-.91-.04c-.3 0-.34-.33-.36-.55-.04-.42-.04-.6-.04-1.16 0 0 0-.5-.67-.89s-1.24-.92-6.75-.92c-5.52 0-6.47.64-6.93 1-.46.35-.86.67-.86.98v1.1c0 .4-.16.47-.26.47l-.1-.01s-.26.03-.57.03c-.11 0-.23 0-.34-.02-.4-.05-.88-.72-.88-2.06s.17-1.63.5-2.44c.3-.82.77-1.42.95-2.2.17-.77 1.02-3.25 2.05-4.49.96-1.15 2.76-2.6 6.43-2.6v-.01Z"/></svg>
