<svg xmlns="http://www.w3.org/2000/svg" fill="none" viewBox="0 0 30 30"><path fill="#fff" d="M17.72 16.69h-5.38v5.53h5.38c.23 0 .42-.08.59-.23a.76.76 0 0 0 .25-.58V17.5a.76.76 0 0 0-.25-.58.84.84 0 0 0-.6-.23Zm.68-4.16V9.1a.76.76 0 0 0-.25-.58.84.84 0 0 0-.59-.23h-5.22v5.03h5.31c.5-.04.75-.3.75-.8Z"/><path fill="#fff" d="M15 .52A14.74 14.74 0 1 0 15 30 14.74 14.74 0 0 0 15 .52Zm7.29 21.83c0 .9-.33 1.68-.97 2.31a3.2 3.2 0 0 1-2.33.95H8.61V4.9h10.23c.9 0 1.68.31 2.33.95.64.63.96 1.4.96 2.31v4.45c0 .47-.16.93-.47 1.38-.3.45-.7.74-1.18.88.48.09.9.34 1.26.75.36.42.54.91.54 1.5v5.22Z"/></svg>
