<svg xmlns="http://www.w3.org/2000/svg" fill="none" viewBox="0 0 25 32"><path fill="#fff" fill-rule="evenodd" d="M24.44 16.72c.02-1.73-.59-1.77-.63-2.83-.02-.53.05-2.03 0-3.46a17.5 17.5 0 0 0-.31-3.15c-.24-.67-.5-1.78-2.52-3.47-2.2-1.85-6.46-3.43-8.82-3.46C9.8.3 7.04 1.49 4.9 2.87 2.8 4.24 2.27 4.83 1.45 6 .62 7.2.3 8.02.5 10.11c.2 2.09.25 1.54.32 3.46.06 1.6-.67 2.1-.63 3.16.05 1.58.65 1.91.63 2.52-.02.4-.71.89-.63 2.2.08 1.34.35 1.7 2.83 3.15 1.61.95 3.5 1.3 3.47 1.89-.06.87-.28 2.28-.32 3.15-.04.87.36.95 1.26 1.26.91.32 3.04.98 5.36.95 2.32-.05 3.3-.52 4.4-.95 1.11-.43 1.27-.83 1.27-1.57 0-.75-.63-2.29-.63-2.84 0-.55 1.89-1.14 4.1-2.2 2.2-1.07 2.17-2.13 2.2-2.84.05-1.34-.63-1.65-.63-2.2 0-1.08.93-1.27.94-2.53ZM5.86 19.87c-1.1.04-3.47.04-3.47-3.15 0-4.41 2.36-4.92 4.1-5.04 1.73-.11 1.97-.31 2.83.32 1.56 1.13 1.46 3.14.95 4.72a3.78 3.78 0 0 1-1.58 2.2 4.8 4.8 0 0 1-2.83.95Zm7.24 5.04-.43-1.6H12l-.47 1.6c-1.81-.49-2.54-1.21-2.52-2.2.02-.98.57-2 1.57-2.84 1-.82 1.17-.95 1.9-.94.68.01.74.14 1.25.63 1.1 1.05 1.81 1.75 1.9 3.15.08 1.38-1.52 2.14-2.53 2.2Zm5.67-5.04a4.9 4.9 0 0 1-2.83-.94 3.53 3.53 0 0 1-1.58-2.2c-.4-1.49-.6-3.6.95-4.73.87-.63 1.1-.43 2.83-.32 1.73.12 4.1.63 4.1 5.04 0 3.2-2.36 3.2-3.47 3.15Z" clip-rule="evenodd"/></svg>
