<svg xmlns="http://www.w3.org/2000/svg" fill="none" viewBox="0 0 31 28"><path fill="#fff" fill-rule="evenodd" d="m17.3 5.5-.1-3.3v-.3c0-.29.03-.85-.08-1.03-.1-.19-.45-.48-.83-.39a.74.74 0 0 0-.55.57l-.02.98c-.06.27-.03.62-.03.9v.32c-.04.17.02.42-.02.62-.04.17.02.42-.02.61-.06.28-.03.7-.03 1h1.68v.02Zm-7.2-.72c.11.22.3.46.36.72h1.9c-.03-.12-.12-.2-.18-.3l-.37-.6c-.35-.57-.68-1.15-1.03-1.7-.21-.34-.34-.7-.88-.7-.06.03-.13.03-.19.06-.14.09-.33.22-.4.38-.16.38.08.74.22.97.23.37.37.79.57 1.17ZM22.77 2.2c-.14.1-.32.16-.43.31-.18.26-.3.52-.47.79l-.8 1.23-.45.72c-.05.07-.06.16-.13.21v.04c.65 0 1.4-.06 1.83.15.18-.37.38-.73.59-1.07.12-.2.18-.4.3-.6.14-.24.35-.52.43-.8.17-.56-.37-1-.87-.98Zm2.86 7.6c.59-.37 1.2-.7 1.78-1.07.25-.15.53-.25.75-.43.27-.21.3-.81.09-1.1-.14-.19-.41-.2-.74-.2-.04.03-.1.02-.15.05-.14.06-.3.15-.45.23-.48.26-1 .49-1.48.75-.28.16-.59.3-.89.45-.1.06-.22.15-.35.19v1.98c.19-.05.34-.19.49-.28.31-.2.64-.38.95-.57Zm-3.39 11.03c.26-.4.2-1.13.2-1.79V9.8c0-.82.1-1.75-.37-2.12-.48-.38-1.04-.3-1.88-.3H1.12l-.33.1c-.3.15-.54.4-.67.7-.14.35-.06 1.3-.06 1.79v10.36c.07.32.28.6.51.78.43.3.9.25 1.62.25h18.08c1 0 1.56.09 1.97-.53ZM2.91 18.3c.15.36.74.8 1.38.67.1-.02.24-.02.34-.05.06-.03.11-.07.2-.09 0 .19.01.38.05.54.02.12-.03.27.03.36 0 .23-.19.18-.37.22-.22.05-.78.15-1.06.08-.2-.04-.4-.04-.57-.1-.59-.18-1-.53-1.24-1.06-.08-.2-.11-.43-.16-.65-.1-.42.02-.95.13-1.24.28-.7.74-1.1 1.49-1.32.2-.06.38-.01.61-.06.42-.06.84-.01 1.24.13l-.24.97c-.3-.07-.78-.19-1.15-.07-.52.17-.98.95-.68 1.67Zm6.92.32h-.75v1.31H7.85v-1.31H6.13c-.24 0-.6.05-.8-.02v-.87c.03-.09.13-.19.18-.27l.35-.56c.36-.57.68-1.15 1.04-1.72.18-.3.43-.6.58-.94h1.6v3.37h.77c0 .28.05.78-.02 1v.01Zm3.32 1.28c-.08.2-.8.13-1.1.13-.12 0-.28.02-.37-.01a.6.6 0 0 1-.27-.25v-1.25c.07-.07.11-.15.19-.2.04-.03.1-.04.13-.07.34 0 1.26-.07 1.4.1.14.16.09.6.09.88 0 .22.04.56-.07.67Zm.07-2.97c0 .12.02.31-.04.38-.1.3-.68.2-1.06.2h-.4c-.4-.12-.3-.52-.3-1.01v-.49c.05-.16.2-.19.33-.28h.92c.16 0 .33-.01.41.07.2.08.14.82.14 1.13Zm2.15.58h-.44c-.43 0-.93.08-1.08-.21-.05-.1-.02-.31-.02-.44V16c.03-.07.1-.14.15-.21l.15-.05h.92c.17 0 .33-.02.42.06.17.07.15.34.15.57 0 .45.1 1.04-.25 1.15v-.01Zm.18 2.37c-.09.25-.77.15-1.1.15h-.35c-.35-.1-.27-.6-.27-1.05v-.46c.04-.12.15-.17.22-.25.03-.01.03 0 .05-.02.39 0 1.3-.08 1.45.13.12.16.07.57.07.84 0 .21.04.55-.07.66Zm2.45-.53v.4c-.02.1-.08.16-.13.23-.3.08-1.43.13-1.58-.08-.13-.17-.07-.78-.07-1.07 0-.11-.02-.28.02-.37.05-.1.17-.14.26-.21h.94c.12 0 .3-.02.36.03.3.1.2.69.2 1.07Zm-.23-1.84h-.43c-.44 0-.96.08-1.1-.21-.05-.1-.02-.3-.02-.42V16c.02-.06.1-.13.13-.2l.19-.06h.91c.14 0 .31-.02.39.05.18.06.16.32.16.57 0 .43.1 1.05-.23 1.16v-.01Zm2.57 2.36c-.1.26-.74.16-1.08.16h-.36c-.38-.1-.3-.56-.3-1.03 0-.15-.03-.4.02-.52.05-.1.18-.15.27-.23h.93c.12 0 .3-.02.37.03.3.1.2.73.2 1.12 0 .16.02.38-.05.47Zm.05-2.99v.37c-.03.1-.11.15-.17.23-.25.06-.64.04-.95.04h-.38a.76.76 0 0 1-.19-.12c-.18-.15-.1-.75-.1-1.05v-.34c.03-.1.12-.16.17-.23l.15-.05h.9c.15 0 .32-.01.4.05.26.1.17.75.17 1.1Zm.1-2.05c-.1.25-.53.18-.87.18h-6.6c-.44 0-1.32.09-1.57-.1-.22-.16-.13-1.09-.13-1.48v-3.07c0-.28-.06-1.11.03-1.28.06-.13.22-.16.33-.24h7.9c.42 0 .63-.04.9.14.1.4.06 1.05.06 1.56v3.86c0 .15.02.34-.05.43Zm-6.92-2.8v-.02l.3-.17c.02-.05-.05-.14-.07-.21-.12.05-.27.11-.37.2h-.03c.03-.1.02-.24.07-.32v-.03h-.27v.35a.95.95 0 0 1-.33-.2c-.05.05-.07.13-.12.18.03.09.2.16.28.2a.84.84 0 0 1-.28.18c.02.09.06.16.1.24.11-.02.26-.1.33-.17h.02v.37h.27c-.01-.1-.02-.27-.07-.34v-.01c.12.01.3.1.38.16h.02l.08-.25c-.1-.04-.22-.1-.3-.16h-.01Zm1.65-.02a.9.9 0 0 0 .33-.17l.02-.03a.5.5 0 0 1-.1-.18.95.95 0 0 0-.37.2h-.03l.08-.35h-.3v.35c-.1-.06-.18-.14-.28-.19v-.01h-.02c-.04.06-.1.1-.12.18h-.01c.03.08.23.17.31.2v.02c-.12.03-.2.11-.31.16.02.09.08.18.13.24.01.02.23-.12.27-.15h.03v.35h.3a.83.83 0 0 0-.08-.32v-.05l.38.19c.06-.07.08-.18.14-.24-.1-.08-.25-.1-.34-.18-.03-.01-.02 0-.03-.02Zm1.93-.37c-.01-.01-.3.15-.33.19h-.03c0-.12.02-.24.03-.35h-.27v.35c-.13-.04-.22-.14-.33-.2-.03.06-.06.15-.1.2.06.07.18.13.26.18a.62.62 0 0 1-.26.18l.08.24a.7.7 0 0 0 .33-.17h.02v.37h.27c0-.09 0-.24-.03-.3v-.07l.36.18c.03-.06.05-.14.09-.2-.03-.12-.24-.14-.32-.21-.03-.01-.02 0-.03-.02l.35-.17a.41.41 0 0 0-.09-.2Zm12.43 1.8-.85-.01-1.3-.05h-.45c-.25-.06-.6-.04-.87-.04h-.3c-.16-.03-.4.03-.58-.01-.27-.06-.73-.04-1.04-.04V15c.32 0 .78.03 1.07-.03.22-.05.5.02.7-.02h.35c.32 0 .76.03 1.05-.04h.35c.32 0 .76.03 1.05-.03h.7c.42-.09.63-.18.72-.58.1-.4-.35-.77-.6-.83v-.03Zm-22.14 2.7-.41.67c-.14.23-.24.59-.42.77v.04h1.23V16c.05-.23.06-.48.06-.75h-.05c-.14.28-.24.63-.4.9l-.01-.01Zm20.04 3.53c-.63-.4-1.27-.77-1.9-1.17-.31-.2-.64-.38-.95-.59-.13-.08-.27-.22-.44-.26v1.92c.03.05.15.06.2.1.22.13.45.23.67.36.44.27.92.48 1.37.75.28.18.6.38.9.52.28.13.77.07.92-.13.23-.33.15-.92-.14-1.14-.2-.14-.42-.23-.63-.36ZM22.54 23h-.18c-.12.08-.35.01-.47.09h-1.22c.09.25.37.6.52.83.39.62.73 1.24 1.12 1.85.1.17.46.5.8.37.3-.12.69-.48.53-.98L22.54 23Zm-12.51.6-.5 1.1c-.07.17-.2.32-.25.5-.16.5.25.87.57.96.44.12.73-.39.86-.6l.99-1.59c.16-.26.32-.65.52-.87v-.01h-1.94c-.05.18-.18.35-.25.51Zm7.27-.51h-1.68c0 .29-.02.68.03.95.04.18-.02.42.02.58.04.19-.02.42.02.59v.3c0 .27-.03.6.03.86l.02.92c.07.33.29.52.61.6.34.08.7-.27.79-.45.1-.22.06-.64.06-.93v-.29l.1-3.13Z" clip-rule="evenodd"/></svg>
