<svg xmlns="http://www.w3.org/2000/svg" fill="none" viewBox="0 0 25 31"><path fill="#fff" d="M12.62 11a6.91 6.91 0 1 0 0 13.82 6.91 6.91 0 0 0 0-13.82Zm4.48 2.83-3.83 5.2s-.84.6-1.58-.32c-.89-1.12-.1-1.76-.1-1.76l4.88-3.57s.32-.36.63 0c.15.18 0 .45 0 .45Z"/><path fill="#fff" d="m22.2 10.45 1.5-1.57c.08-.07.05-.21-.05-.3l-2.62-2.41c-.1-.1-.25-.12-.32-.04l-1.45 1.6a12.07 12.07 0 0 0-4.85-1.84V3.4h1.8c.3 0 .55-.19.55-.42V.75c0-.23-.25-.42-.54-.42h-7.4c-.3 0-.55.19-.55.42V3c0 .23.24.41.54.41h1.75v2.52c-1.69.3-3.26.93-4.64 1.84L4.44 6.13c-.07-.08-.21-.06-.32.04l-2.61 2.4c-.1.1-.14.24-.07.31L3 10.5a12.15 12.15 0 1 0 19.22-.05Zm-9.58 17.41a9.95 9.95 0 1 1 0-19.9 9.95 9.95 0 0 1 0 19.9Z"/></svg>
