<svg xmlns="http://www.w3.org/2000/svg" xml:space="preserve" viewBox="0 0 88.5 32"><path fill="#FFF" fill-rule="evenodd" d="M86.47 4.43v4.03l1.42.15c.1.2.18.4.26.6.1.15.16.3.18.44 0 .13-.06.25-.18.38a.86.86 0 0 1-.64.22.94.94 0 0 1-.4-.11h-.46l-.63 1.12-1.2-.49H74.8l-.52.64-.6-.45h-7.16l-.11.64H55.13l-1.34.7c-.32.2-.65.38-.97.53a3 3 0 0 1-.7.14c-.26 0-.5-.03-.72-.1-.15-.03-.25-.1-.3-.2l-.52-.33h-5.1c0 1.27.28 2.57.85 3.92.5 1.17 1.28 2.46 2.35 3.88a21.21 21.21 0 0 0 4.7 4.32c-.05 0-.27.29-.67.86-.32.6-.74 1.25-1.23 1.94-.45.8-1 1.7-1.68 2.72a26.3 26.3 0 0 1-4.25-3.65 34.91 34.91 0 0 1-3.62-4.59 24.92 24.92 0 0 1-3.1-6.42c-.1-.1-.23-.08-.4.04a.97.97 0 0 0-.3.26L37 15.44c-.57.32-1.17.54-1.79.67a4.4 4.4 0 0 1-1.75.1 3.86 3.86 0 0 1-2.02-.89c-.05 0-.28.2-.7.56a15.04 15.04 0 0 0-2.83 3.54 6.8 6.8 0 0 0-.98 2.2c0 .06-.22.16-.67.3-.42.18-.92.3-1.5.34a2.9 2.9 0 0 1-1.56-.37c-.47-.3-.77-.9-.9-1.8.03-.1.22-.49.57-1.19.3-.64.66-1.33 1.08-2.05l1.12-2.05c.37-.6.6-.9.67-.9-.07 0-.29-.14-.63-.44-.3-.3-.63-.41-.98-.34l-.74.26c-.45.13-1 .31-1.68.56l-2.24.82-2.54.9c-1.98.72-4.21 1.54-6.67 2.46l-8.84 2.91-.75-10.55c.4-.3.85-.53 1.38-.68a8.73 8.73 0 0 1 1.64-.4c.57-.13 1.2-.12 1.9.03 0 .05.55.04 1.64-.04 1.1-.12 2.31-.22 3.66-.3l5.4-.33c.36.1.7.21 1.05.33.62.23 1.15.34 1.57.34a4 4 0 0 0 .93-.22c.52-.1 1.06-.24 1.6-.41.63-.15 1.32-.36 2.1-.64l3.39-2.9.3.3h20.74c0-.06.07-.12.22-.2a.87.87 0 0 1 .41-.18c.2-.05.5-.08.9-.08l15.96.15c.3.08.6.18.9.3.23.08.47.15.75.22.24.13.47.2.67.23h6.67c.35.45.69.86 1.01 1.23.27.3.57.6.9.93.27.28.5.43.7.45h5.86l.45-.15c.3-.52.51-1 .63-1.42.18-.35.34-.7.49-1.08.12-.37.23-.6.33-.7l.12-.57v-.26h1.53zm-51 8.36-2.01.04c-.4-.03-.75.08-1.05.33-.24.28-.37.61-.37 1 0 .33.13.62.37.87.3.25.65.37 1.05.37h2.01c.38 0 .67-.13.9-.37.22-.25.33-.54.33-.86 0-.4-.1-.73-.33-1a1.14 1.14 0 0 0-.9-.38z" clip-rule="evenodd"/></svg>
