<svg xmlns="http://www.w3.org/2000/svg" xml:space="preserve" viewBox="0 0 39.83 32"><g fill="#FFF"><path d="M4.74 6.85h2.75v1.42H4.74zm.08 19.42 2.76.02v-2.96H7.2v-1.46h.38V21h-.41v-1.46h.41v-6.5l-2.76-.3zm-.45-14.95 3.33.38V9.43H4.37zm32.51-2.87H8.44v2.11l28.44 3.26zM8.86 5.56h3.07v1.59H8.86zm9.45-.33h7.92v1.75h2.41V3.69H16.23v3.29h2.08z"/><path d="m39.24 6.94-1.17-1.58-3.27.01v1.6h3.18v8.23h-1.11v5.49h2.37V6.97h.02z"/><path d="M8.95 12.15v15.13l27.33.16-.04-12.33-27.3-2.96zm2.63 7.6h9.37v1.63h-9.37v-1.63zm9.4 4.23h-9.37v-1.62h9.37v1.62zM1.09 8.55h2.58v1.22H1.09zm.08 16.66 2.59.01v-2.54H3.4v-1.24h.36v-.75h-.39v-1.25h.39v-5.58l-2.59-.25zM.74 12.39l3.12.33v-1.95H.74z"/></g></svg>
