<svg xmlns="http://www.w3.org/2000/svg" xml:space="preserve" viewBox="0 0 48.75 32"><path fill="#FFF" d="M48.75 7.64c-.06-2.79-.78-4.52-1.5-5.63C46.51.89 46.12.95 46.12.95S44.9.67 44.06.5c-.83-.16-2.4-.33-2.4-.33s-.55.11-.83.39c-.28.28-.45.5-.45.5s-.55-.05-1 .28-1.06.9-1.06.9-1.02.03-1.84-.06c-1-.12-3.73-1.68-3.73-1.68s-.84.06-1.84.34l-2.01.56s-.72.44-1.17.78l-.73.55s-.28-.05-.72.4c-.45.44-3.57 4.45-3.51 7.35.05 2.9 1.33 6.36 1.45 6.92l.27 1.45s-.72.27-.72.5c0 .22 0 2.78.28 3s.33.12.56 0l.22-.1v1.95s-.67.39-.73.72.17 3.12.17 3.3c0 .16.45-.29.45-.29l.33-.22v1.73c0 .22-.39.28-.33.61.05.34-.17 1.45 8.03 1.67 8.2.23 8.8.06 9.47-.05.67-.11.95-.62.95-1.06 0-.45.11-1.12.11-1.12s.28-.16.73-.16h.44s-.05.67 0 1.06c.06.39.4.83.9.55.5-.28.78-.67.72-.89l-.06-.22-.16-.78s.28.05.28-.5-.12-1.62-.06-2.18.22-1.45.22-1.45l-.33-.1s0-.62.11-1.01l.11-.4.34-.16s.33-1.28.44-2.17c.11-.9.34-1.34.34-1.34l-.62-.28s-.05-.61.28-.84c.34-.22.56-.39.73-.6.16-.23 0-.62-.06-.85s-.11-1.17.28-3.07c.39-1.89.9-3.67.84-6.46zm-18.01-.45c-1.56.23-1.62-.5-1.62-1.06 0-.55.17-1.78.5-2.12s1.06-.89 1.06-.89.67.67 1.12 1.45c.44.78.67 1.95.67 1.95s-.17.45-1.73.67zm4.24-1.95c-.78.61-1.84 1.12-1.84 1.12s-.45-1.29-.84-2.07c-.39-.78-1.06-1.5-1.06-1.5s.22-.28.56-.61.78-.95.78-.95.56.33 2.06 1.11 3.12.62 3.12.62-2 1.67-2.78 2.28zm9.98 19.68c-.17.61-.06.33-.45.45a7.1 7.1 0 0 1-1.06.16l.05-2.4s.56-.05 1-.05c.45 0 1.12.06 1.12.06s-.5 1.17-.66 1.78zm2.28-11.7c-.39 1.39-.33 2.17-.45 2.9-.1.72.17 1.27.17 1.27s-.39.56-.72.78-.28 1.23-.28 1.23H44.9c-.44 0-1.45-.05-1.45-.05s.16-.79-.06-1.51-1.56-1.95-2.23-2.84c-.67-.9-.5-2.73-.39-5.08.11-2.34 1.4-5.18 1.84-6.13.45-.95 1.67-1.73 2.62-2.12 0 0 .84.06 1.34.73s1.45 3.62 1.4 5.3-.34 4.12-.73 5.51zm-27.81 3.76s-.13-1.72-.27-2.52c-.13-.8-.8-1.31-.8-1.31s.27-7.56-7.5-7.56c-2.97 0-5.5 1.16-6.83 2.59-2.15 2.3-2.05 5.3-2.05 5.3s-.93.12-1.66.36c-.73.24 0 .7 0 .7s.74.21 1.8.21 1.32.05 1.32.05v.52c0 .11-.3.05-.3.18 0 .36.04 1.16.04 1.68 0 .27.27.1.28.27 0 .11-.16.14-.15.26l.1.7c.03.12.15.2.17.32.33 1.71.85 3.7.85 3.7s-.29.03-.3.45c-.04.9.33 1.79.66 2.4.12.22.27.26.75.65.53.45 1.9.66 2.7.3 1.52-.66 1.83-1.15 1.83-1.15s2.72-.26 3.85-.72c1.12-.47 2.7-2.6 3.16-3.07.15-.14.4.07.6-.17.4-.52.78-.97.84-1.5.1-.86.1-1.63.1-1.63l.54-.07c.53-.07.27-.94.27-.94zM5.1 25.16c.66.01 1.8-.02 1.8-.02-.96.53-2.16.01-1.8.02zm4.84-2.29c-.02.5-.24.72-.24.72s-.82.04-1.29.04H7.5s1.24-1.27 1.59-1.6c.34-.34 1.15-.23 1.15-.23-.32.59-.27.54-.29 1.07zm.62-3.89.22 1.55s-1.83.44-2.43.9c-.6.47-.8 1.07-1.53 1.5s-1.26-.04-1.85-.63c-.38-.38-.28-2.25-.15-3.57 0-.13.12-.15.13-.27.03-.28.07-.47.04-.66-.03-.2-.13-.4-.13-.4h2.96c1 0 3.84-.34 3.84-.34l.05.68-1.28.38.13.86zm3.56 3.72c-1.63.61-2.35.85-2.35.85s-.08-1.04.56-1.65c.08-.08.06-.37.18-.32.31.15.81-1.18.62-1.23-.19-.04.12-.27.12-.27s.84 0 1.56.06c.87.05 1.96.45 1.96.45 0 .4-1.18 1.55-2.65 2.1zm-.02-5.09.02-.55h1.92l.53.6-2.47-.05z"/></svg>
