<svg xmlns="http://www.w3.org/2000/svg" xml:space="preserve" viewBox="0 0 26 32"><path fill="#FFF" d="M25.99 7.64c-.06-2.79-.78-4.52-1.5-5.63C23.75.89 23.36.95 23.36.95S22.14.67 21.3.5c-.83-.16-2.4-.33-2.4-.33s-.55.11-.83.39c-.28.28-.44.5-.44.5s-.56-.05-1 .28-1.07.9-1.07.9-1.02.03-1.84-.06C12.72 2.06 10 .5 10 .5s-.84.06-1.84.34l-2 .56s-.73.44-1.18.77l-.72.56s-.28-.05-.73.4c-.44.44-3.57 4.45-3.51 7.35.06 2.9 1.34 6.36 1.45 6.91l.28 1.45s-.73.28-.73.5c0 .23 0 2.8.28 3.02s.34.1.56 0l.22-.11v1.95s-.67.39-.72.72.16 3.12.16 3.29c0 .17.45-.28.45-.28l.33-.22v1.73c0 .22-.39.28-.33.61.06.33-.17 1.45 8.03 1.67 8.2.23 8.8.06 9.48-.05.66-.11.94-.62.94-1.06 0-.45.11-1.12.11-1.12s.28-.16.73-.16h.45s-.06.66 0 1.06c.05.39.39.83.89.55.5-.28.78-.67.72-.89l-.05-.22-.17-.78s.28.05.28-.5-.11-1.62-.06-2.18c.06-.56.23-1.45.23-1.45l-.34-.11s0-.61.11-1l.11-.4.34-.16s.33-1.28.44-2.18c.12-.89.34-1.33.34-1.33l-.62-.28s-.05-.62.28-.84c.34-.22.56-.39.73-.61.17-.23 0-.62-.06-.84s-.1-1.17.28-3.07c.4-1.89.9-3.67.84-6.46zm-18-.45c-1.57.23-1.63-.5-1.63-1.06 0-.55.17-1.78.5-2.11s1.06-.9 1.06-.9.67.67 1.12 1.45c.45.78.67 1.95.67 1.95s-.17.45-1.73.67zm4.23-1.95c-.78.61-1.84 1.12-1.84 1.12s-.45-1.29-.84-2.07c-.39-.78-1.06-1.5-1.06-1.5s.23-.28.56-.62.78-.94.78-.94.56.33 2.06 1.11 3.12.61 3.12.61-2 1.68-2.78 2.3zm9.98 19.68c-.17.61-.06.33-.45.45a7.1 7.1 0 0 1-1.06.16l.06-2.4s.55-.05 1-.05c.45 0 1.11.06 1.11.06s-.5 1.17-.66 1.78zm2.28-11.7c-.39 1.39-.33 2.17-.44 2.9-.12.72.16 1.27.16 1.27s-.39.56-.72.78-.28 1.23-.28 1.23h-1.06c-.45 0-1.45-.05-1.45-.05s.17-.79-.06-1.51c-.22-.72-1.56-1.95-2.22-2.84-.67-.9-.5-2.73-.4-5.08.12-2.34 1.4-5.18 1.84-6.13.45-.95 1.68-1.73 2.62-2.12 0 0 .84.06 1.34.73s1.45 3.62 1.4 5.3-.34 4.12-.73 5.51z"/></svg>
