<svg xmlns="http://www.w3.org/2000/svg" xml:space="preserve" viewBox="0 0 75.83 32"><path fill="#FFF" fill-rule="evenodd" d="M37.07 14.25a1.5 1.5 0 0 0-.22.2c-.18.2-.27.44-.27.74 0 .13.03.38.08.75.02.12-.03.2-.15.23-.15.05-.4.06-.75.03l-.49-.03c-.02.3-.09.44-.19.44h-.9c-.12 0-.2.03-.26.08-.07.1-.15.18-.22.23-.18.17-.79 1.3-1.84 3.37-.25.47-.27.89-.07 1.24.15.27.35.45.6.52.5.08 1.35.08 2.54 0a4.3 4.3 0 0 0 2.14-.71c.35-.3 1.58-2.17 3.68-5.62.12-.23-.04-.72-.5-1.47h-3.18zm35.2-6c.08.03.23.04.45.04.15 0 .33-.07.53-.22h1.83l.19.33a2.49 2.49 0 0 1 0 1.73c-.1.23-.19.34-.26.34h-1.65a2.57 2.57 0 0 0-.34-.12 1.36 1.36 0 0 0-.79.04l-.22.08h-1.05l-.15-.11h-1.65l-.15-.15h-.79c-.05.17-.16.26-.33.26h-1.54a.5.5 0 0 1-.3-.11l-.11-.08-10.84.26-.6.64h-.26l-.19-.22h-.26l-.15.22h-2.25l-.3 2.29c-.02.25-.19.42-.49.52l.26.27.6.07c.4.08.6.24.57.49a5.55 5.55 0 0 0-.12 1.83c.06.25.07.83.04 1.73v1.95c.05.77.34 1.6.86 2.47.1.18-.07.35-.52.53-.45.17-.93.26-1.42.26-.43 0-.98-.1-1.65-.3l-.94-.26c-.03-1.1.04-2.11.19-3.04.05-.35.22-.96.52-1.83.2-.6.26-1.04.19-1.32a4.96 4.96 0 0 0-.56-1.6c-.08-.2.1-.43.56-.69.22-.12.45-.23.67-.33l-2.8-.15c-1.93-.05-3.02 0-3.27.15-.73.47-1.67 1.54-2.85 3.18a78.7 78.7 0 0 0-2.4 3.6 4.64 4.64 0 0 1-1.57 1.58c-.38.17-1.09.3-2.14.37-.85.05-2.08.12-3.7.19l-2.63.04c-.25 0-.42-.08-.5-.23a6.58 6.58 0 0 1 .34-3.11c.1-.22.34-.66.72-1.31.37-.68.64-1.08.79-1.2.07-.1.32-.32.75-.67.37-.46.56-1 .56-1.65 0-.73-.31-1.15-.94-1.28-.27-.05-.97-.02-2.1.08-1.07.05-1.83.1-2.28.15-.75.05-1.18.17-1.28.37a2 2 0 0 1-1.05.71l-.07 1.35c.12 1.38.51 3.19 1.16 5.44 1 3.55 1.91 5.86 2.74 6.93.35.45.3.79-.12 1.02-.25.1-1.16.42-2.73.97-1.6.57-2.53.9-2.78.97-.3.08-.42-.37-.37-1.35-.22-.42-.51-1.03-.86-1.83a46.67 46.67 0 0 1-2.63-10.91l-.14-2.06c-.55-.2-.93-.22-1.13-.04l-1.69 1.35c-.07.07-.2 0-.37-.22-.18-.2-.29-.3-.34-.27-.6.23-1.5.74-2.7 1.54-1.37.98-2.13 1.72-2.29 2.25l-.26.9.41.45c.28.32.42.53.42.63 0 .33-.1.58-.3.75-.18.18-.43.27-.75.27H4.3a1.3 1.3 0 0 1-.82-.34 2.9 2.9 0 0 1-.75-1.2c-.2-.65-.6-2.26-1.17-4.84C1 14.1.7 12.46.67 11.85c-.02-.62.02-1.07.12-1.34.07-.2.23-.44.48-.72a7 7 0 0 1 1.2-.97c.6-.4 1.07-.6 1.39-.6l23.58-.49v-.26l.6-.45c.42-.3.72-.5.9-.6.27-.13.62-.19 1.05-.19l1.42.04V4.36h-.56c.02.27-.16.4-.56.4-.23 0-.38-.05-.45-.18l-.08-.22h-1.3l-.2.18h-.45c-.22-.32-.33-.87-.33-1.64 0-.76.1-1.17.3-1.24h.33l.23.15 1.27-.04.08-.26c.07-.15.25-.23.52-.23.33 0 .49.15.49.45l.37-.04v-.63l.71-.11c.23 0 .5.02.8.07v.45l2.95-.41C37.58.78 38.77.65 39.1.65h1.17l.52.4h.53V.84h.4v.15h.76v3.68l-.75.03v.16h-.38v-.23h-1.87l.3.45h.49c.35.05.53.14.56.26l.15.71h1.24V5.9h.56v.15h1.27V5.9h.57v.15h1.27V5.9h.53v.15h1.3V5.9h.53v.15h1.31V5.9h.53v.15h1.01l2.66 1.32v.86l.68.37h11.62l.19-.11c.12-.13.22-.19.3-.19h1.38l.34.3h.67l.34-.19c.28-.02.77 0 1.46.08l.04-.15c.08-.1.18-.15.3-.15h.94c.1 0 .19.03.26.08z" clip-rule="evenodd"/></svg>
