<svg xmlns="http://www.w3.org/2000/svg" xml:space="preserve" viewBox="0 0 109.5 32"><path fill="#FFF" fill-rule="evenodd" d="m109.29 11.32.15.38c.08.18.12.35.12.5 0 .26-.15.62-.46 1.09l-.12.19H68v.7h3v2.62l.43.42c.23.18.35.49.35.93 0 .15-.03.25-.08.3-.05 0-.08.05-.08.12v.12c0 .3-.06.46-.19.46H55.61c-.13.08-.2.2-.2.39.06 0 .12.04.2.11l.27.27-.2.58h-1.54l-.19-.2a12.1 12.1 0 0 1-.5-1.15c-.26-.59-.28-1.08-.08-1.46 0-.31.16-.47.47-.47h.11c.65 0 1.04.1 1.2.27.36 0 .78-.1 1.27-.3l-7.49-.08c-.05 0-.37.09-.96.27-.51.12-1.1.3-1.77.5l-1.86.5c-.54.13-.83.23-.88.3v2.71l-8.84.93v-2.78c-.46 0-.75.06-.85.19a2 2 0 0 1-.62.5c-.3.31-.7.52-1.15.62-.52.18-1.11.23-1.78.15a5.31 5.31 0 0 1-2.28-.85c-.05 0-.1.03-.15.08h-.31a10.8 10.8 0 0 1-.3 2.74c-.09.52-.24 1-.47 1.47-.15.4-.33.67-.54.77-.36.2-.97.27-1.82.2a21.9 21.9 0 0 1-2.7-.35 47.7 47.7 0 0 1-2.62-.43c-.8-.23-1.29-.4-1.47-.5a8.52 8.52 0 0 1-1.08-1.16c-.38-.3-.77-.66-1.16-1.04a3.06 3.06 0 0 0-.73-.54H9.53a78 78 0 0 1-.38 2.47c-.03.2-.1.3-.24.3-.07.19-.23.28-.46.28-.2 0-.64-.1-1.31-.27H5.6a5.84 5.84 0 0 0-1.78.11c-.33.1-.73.17-1.2.2-.36.12-.77.21-1.23.27-.51.07-.82.14-.93.19H.2c-.07 0-.11-.04-.11-.12a1.7 1.7 0 0 1-.08-.65v-4.44c.13-1.19.2-2.33.2-3.44v-2.54c0-.2.25-.43.77-.66.46-.2 1.6-.28 3.43-.23h1l.08-.08.12-.07a4.94 4.94 0 0 0 .5-.35h9.18c.2.02.41.14.62.35.46.3.81.65 1.04 1.04h10.42c.08-.2.18-.53.31-.97.13-.38.2-.7.2-.96v-.23h.07c.28-.1.79-.2 1.5-.27.7-.03 1.11-.1 1.24-.23.13 0 .26-.03.39-.08.02-.08.1-.14.23-.2h3.24v-.96h-1.2a47.39 47.39 0 0 1-4.98.58c-.72 0-1.35-.04-1.89-.12l-.07-.19V10c-.08-.72-.12-1.27-.12-1.66V7.3c0-.2.04-.34.12-.42l.07-.08h.2l.8-.08c.57-.02 1.19-.06 1.86-.11.72-.08 1.44-.12 2.16-.12.67 0 1.18.04 1.54.12h3.36a32.98 32.98 0 0 0 2.74-.12v-.65c-.05-.03-.08-.1-.08-.2v-.61l3.2-.2h.05l.38 1.08c0 .06-.04.1-.11.12-.06.1-.15.15-.28.15v.2h5.6c.44-.1 1.05-.2 1.85-.27a127.7 127.7 0 0 1 4.86-.46c.67-.03 1.1.02 1.28.15l.15.11.08 4.4h-.23c-4.68 0-7.2-.15-7.53-.46V10c-.18-.1-.54-.16-1.08-.19a9 9 0 0 0-1.85.04v.89h63.67v.15l.2.43zm-77.41 6.36h-2.16c-.6 0-.9.27-.9.82 0 .64.3.96.9.96h2.16c.59 0 .88-.32.88-.96 0-.55-.3-.82-.88-.82zm-12.62 3.75c.36.75.92 1.16 1.7 1.23.64.18 1.4.08 2.27-.3.44-.24.92-.65 1.43-1.24.18-.33.3-.72.39-1.16.07-.51.02-.91-.16-1.2-.13-.48-.6-.8-1.43-.96a4.3 4.3 0 0 0-2.54.12 5.4 5.4 0 0 0-.93.57c-.2.16-.4.42-.58.78a2.29 2.29 0 0 0-.15 2.16z" clip-rule="evenodd"/></svg>
