<svg xmlns="http://www.w3.org/2000/svg" xml:space="preserve" viewBox="0 0 35.11 39.94"><path fill="#FFF" fill-rule="evenodd" d="M29.54 1.8c1.77 6.16 1.54 12.04-.7 17.64a47.53 47.53 0 0 0-6.15-1.5l-3.65-.75-.15-.3c-.03-.1-.15-.17-.35-.2-5.06-.23-8.88-.15-11.45.25-.13 0-.25.07-.35.2a.42.42 0 0 0-.05.35c-1.5.2-2.96.5-4.4.9-.8-4.77-.96-9.53-.5-14.3 9.7.37 18.95-.42 27.75-2.35v.05zm.9-.26h.15l1.55-.4c2.14 7 1.85 13.4-.85 19.2-.46-.17-.95-.33-1.45-.5v-.05c2.27-5.8 2.47-11.88.6-18.25zM7.2 17.5c3.77-.56 7.52-.66 11.25-.3-.66 4.87-.71 11.85-.15 20.95H9.9a58.29 58.29 0 0 0-3.35-18.7l.55-1.95h.1z" clip-rule="evenodd"/></svg>
