<svg xmlns="http://www.w3.org/2000/svg" xml:space="preserve" viewBox="0 0 92 32"><path fill="#FFF" fill-rule="evenodd" d="m78.55 15.48-.1-.06-1.9.03c-.09.07-.18.17-.27.3a.82.82 0 0 0-.23.63c0 .23.1.45.3.67.09.09.18.17.27.23h2.1c.07-.06.13-.14.2-.23.11-.24.17-.5.17-.77a.82.82 0 0 0-.34-.66l-.2-.14zm11.9 1.8a18.8 18.8 0 0 1-5.13 2.74 30.5 30.5 0 0 1-7.67 1.43c-1 .1-2 .16-3 .2l-38.59.07-.03 4.1h-1.34v-4.97h-4.3a1.8 1.8 0 0 0-.2-.16.91.91 0 0 0-.53-.17c-.2.02-.38.09-.54.2a.33.33 0 0 0-.13.17h-3.1a.62.62 0 0 0-.17-.17.84.84 0 0 0-.57-.2c-.2 0-.36.07-.5.2-.06.05-.1.1-.13.17h-3.07a.3.3 0 0 0-.13-.17.53.53 0 0 0-.43-.2c-.2 0-.37.07-.5.2a.32.32 0 0 0-.14.17h-3.07c-.04-.07-.1-.14-.16-.2-.12-.14-.26-.2-.44-.2s-.32.06-.43.2c-.07.06-.12.13-.17.2h-3.23a.3.3 0 0 0-.14-.17.53.53 0 0 0-.43-.2c-.16 0-.3.04-.43.13l-.1.1h-1.7l-1.3.54H1.1a3.18 3.18 0 0 1-.37-.64 5.54 5.54 0 0 1-.47-1c-.04-.2-.04-1.12 0-2.76l.07-2.4.03-.27c.02-.23.09-.4.2-.54.14-.1.31-.23.54-.36l.3-.14 6.97.04 1.46.53 1.64-.04.2.2c.11.12.24.17.4.17.13 0 .3-.08.5-.23l.27-.2h3l.2.2c.15.13.34.2.56.2.2.02.37-.04.5-.17.05-.04.08-.1.1-.17l.07-.06 2.87.03.17.2c.15.15.33.23.53.2.15 0 .32-.07.5-.2l.17-.2h3.06l.17.2c.11.13.26.2.44.2.18.03.35-.05.53-.2l.2-.2h3.07l.17.23c.17.16.34.24.5.24a.7.7 0 0 0 .56-.24c.04-.04.08-.1.1-.16l.03-.07h4.3v-7.5h1.4v7.07h3.58c.15-.02.29-.06.4-.1.15-.11.33-.23.53-.34l32.92.14 18.58 2.87c-.34.42-.87.9-1.6 1.46z" clip-rule="evenodd"/></svg>
