<svg xmlns="http://www.w3.org/2000/svg" xml:space="preserve" viewBox="0 0 90 32"><path fill="#FFF" fill-rule="evenodd" d="M81.77 2.07c.3-.02.63-.04.96-.04a.09.09 0 0 0 .04-.08h.75c.03 0 .07.01.13.04l.04.04c0 .03.02.04.04.04h.13c.03.03.07.05.12.05l.09.08c.03.03.04.05.04.08s.01.06.04.09v.29c0 .02.01.05.04.08s.04.06.04.08c.03.03.05.06.05.09v.87c0 .03 0 .05.04.05 0 .02.01.05.04.08v.08c-.03.03-.04.06-.04.09v.08c-.03.03-.06.04-.09.04v.08c0 .02-.02.03-.04.04v1.01l.04.04c0 .03.02.04.05.04l.08.09v.33c-.03.03-.04.06-.04.08 0 .03-.02.06-.04.09v2.54h4.71l.17.09.04.04h.09v-.04l.16.08c0 .03.02.05.05.05l.08.08v2.92c-.03.03-.04.05-.04.08l-.05.04v.17c0 .03-.01.06-.04.08v.09c-.03.03-.05.04-.08.04 0 .03-.01.04-.04.04H85.1c-.05 0-.1.02-.12.04h-.16l-.09.05.09.04v-.04l.16.08c.03.03.06.04.09.04 0 .03.01.06.04.08v.09c.03.02.04.05.04.08s.02.06.04.08v.55c0 .03-.01.05-.04.08 0 .03-.01.06-.04.08l-.04.05v.04c0 .03.01.06.04.08l-.04.09c.03 0 .07.01.13.04l.08.08c0 .03.01.05.04.05v.25c.03 0 .05 0 .08.04a3.25 3.25 0 0 1 .13.12v.42c-.03.02-.05.05-.05.08s0 .06-.04.08c0 .03-.01.05-.04.05v4.62c0 .03-.01.06-.04.09l-.04.08-.09.08h-.16v.05c-.03.02-.06.04-.09.04 0 .02 0 .04-.04.04h-2.33a.73.73 0 0 1-.22-.04c-.02-.03-.04-.06-.04-.09l-.08-.08v-.13a2.2 2.2 0 0 1-.09-.08v-.42H55.12l-.08.09v.25c.03.03.04.05.04.08.03.03.04.06.04.08v.13l-.08.08c-.02.04-.04.07-.04.1v.04c-.03 0-.05.01-.08.04l-.04.05h-1.09a.72.72 0 0 1-.21-.05c-.03-.03-.04-.05-.04-.08l-.09-.08v-.13c0 .03-.01.04-.04.04h-.12a.39.39 0 0 1-.17-.04l-.08-.08-.09-.09c-.03 0-.05-.01-.08-.04a.09.09 0 0 0-.04-.08v-1.46a.12.12 0 0 0-.04-.08c0-.03-.02-.06-.05-.09 0-.02-.01-.05-.04-.08-.02 0-.05-.01-.08-.04v-.08c-.03-.03-.04-.06-.04-.09s-.02-.05-.04-.08c0-.03-.02-.06-.05-.08-.02-.03-.04-.06-.04-.09a.09.09 0 0 1-.04-.08c-.03-.03-.04-.06-.04-.08l-.04-.04v-.13a.5.5 0 0 1-.13-.08l-.13-.09c-.03-.03-.06-.04-.12-.04-.03.03-.04.06-.04.09-.03 0-.04 0-.04.04h-.05c0 .02-.01.05-.04.08v1.67a.09.09 0 0 0-.04.08l-.04.04c-.03.03-.04.06-.04.08l-.05.05v.54a.09.09 0 0 0-.04.08c-.03.03-.04.06-.04.08l-.04.05-.09.08v.29c0 .03-.01.06-.04.09 0 .02-.01.05-.04.08l-.04.04v.08c-.03.03-.04.06-.04.09v.08a6.7 6.7 0 0 1-.09.08.48.48 0 0 0-.12.09c0 .03-.02.05-.04.08-.06 0-.1.02-.13.04h-.42a.34.34 0 0 0-.12-.04h-.08a.68.68 0 0 1-.21-.04c-.03-.03-.04-.06-.04-.08l-.09-.09c-.03-.03-.05-.04-.08-.04a.12.12 0 0 1-.04-.08l-.09-.08v-.72c.03 0 .06-.01.09-.04 0-.03.01-.05.04-.08v-.23l-.09-.02h-.16a.39.39 0 0 0-.17-.04h-.16l-.17.08-.09.08a.09.09 0 0 1-.08.04l-.17.09-.08.08a.52.52 0 0 0-.13.09c-.08.02-.15.05-.2.08-.03.03-.06.04-.09.04 0 .03-.01.04-.04.04h-.12a.78.78 0 0 1-.25.04l-.05.04h-.12l-.34.09c-.02 0-.05.01-.08.04h-.21a.37.37 0 0 1-.16-.04.12.12 0 0 1-.09-.04c-.2 0-.39-.02-.58-.05h-.13l-.04-.04c-1.47 0-2.95-.01-4.43-.04a.4.4 0 0 1-.16-.04l-.09-.08-.08-.09v-.12a.14.14 0 0 0-.04-.09l-.08-.08c0-.03-.02-.06-.05-.08-.02-.03-.04-.06-.04-.09-.03-.03-.04-.05-.04-.08a6.53 6.53 0 0 0-.08-.08l-.05-.04v-.05h-.08l-.04.05h-.13l-.33.08v.04c-.03.03-.04.06-.04.08a3.25 3.25 0 0 1-.17.17v.17c0 .03-.01.05-.04.08 0 .03-.02.06-.04.08 0 .03-.02.04-.05.04v.09l-.08.08v.25c0 .03-.01.06-.04.09l-.04.08c0 .03-.02.04-.05.04v.08l-.08.09v.08c0 .03-.01.06-.04.09v.08l-.08.08c-.03.03-.04.06-.04.09 0 .02-.02.04-.05.04v.25c0 .02-.01.05-.04.08v.08l-.08.09c-.03.03-.04.05-.04.08s-.02.04-.05.04v.17c0 .03-.01.06-.04.08v.09l-.08.08v.08c-.03.03-.04.06-.04.09 0 .02-.02.04-.05.04v.25c0 .03-.01.05-.04.08v.08l-.08.09c-.03.02-.04.05-.04.08s-.02.04-.04.04v.25c0 .03-.02.06-.05.09v.08l-.08.08c-.03.03-.04.06-.04.09s-.02.04-.04.04v.16c0 .03-.02.06-.05.09v.08a.94.94 0 0 1-.08.08v.09c-.03.02-.04.05-.04.08s-.02.04-.04.04v.17c0 .03-.02.05-.04.08v.08l-.09.09v.21l-.08.08v.08c0 .03-.02.06-.04.09v.08l-.09.08v.21a.94.94 0 0 1-.08.09v.16c0 .02-.01.06-.04.09v.08l-.08.08v.21l-.09.08v.09c0 .02-.01.05-.04.08v.08l-.08.09c-.03.03-.04.06-.04.08 0 .03-.02.04-.05.04v.17c0 .03-.01.06-.04.08v.09l-.08.08c-.03.03-.04.06-.04.08l-.05.05c.03.02.06.04.09.04.02.03.05.04.08.04 0 .03.01.05.04.08v.09c.03.02.04.05.04.08.03.03.07.06.13.08v.09c.03.02.04.05.04.08v.08c.03.03.06.04.08.04v.71l-.08.08c0 .03-.01.06-.04.09v.08a.5.5 0 0 0-.13.08c-.02.03-.04.06-.04.09s-.01.05-.04.08c0 .03-.01.04-.04.04l-.09.09h-.16l-.09.08c-.02 0-.05.01-.08.04h-.13c-.22.03-.44.04-.66.04l-.04.05h-1.38l-.04-.05a4.08 4.08 0 0 1-.8-.08L34 29.2a.78.78 0 0 1-.25-.04h-.12l-.05-.05a.37.37 0 0 1-.16-.04.68.68 0 0 1-.21-.04l-.08-.08a1.67 1.67 0 0 1-.38-.13.52.52 0 0 1-.12-.08l-.17-.08a.12.12 0 0 1-.09-.05l-.08-.08c-.03-.03-.04-.05-.04-.08a.55.55 0 0 1-.13-.09l-.16-.08c0-.03-.02-.05-.05-.08l-.08-.08-.08-.09c-.03 0-.06-.01-.09-.04 0-.03-.01-.05-.04-.08 0-.03-.01-.06-.04-.09l-.08-.08c0-.03-.02-.06-.04-.08 0-.03-.02-.06-.05-.09v-.08l-.04-.04-.04-.04c-.03 0-.06-.02-.08-.04 0-.03-.02-.06-.05-.09v-.33a3.33 3.33 0 0 0-.08-.08v-.75c.03-.03.04-.06.04-.09s.02-.05.04-.08v-.54c.03-.03.05-.06.05-.09.02-.02.04-.05.04-.08.03-.03.04-.05.04-.08.03-.03.04-.06.04-.09a.09.09 0 0 0 .04-.08v-.12c.03-.03.05-.06.05-.09.02-.02.04-.05.04-.08l.04-.08c.03-.03.04-.06.04-.09a.12.12 0 0 0 .04-.08v-.17c.03 0 .06-.01.09-.04 0-.03.01-.06.04-.08 0-.03.01-.06.04-.09 0-.02.01-.05.04-.08v-.08c.03-.03.04-.06.04-.08l.09-.09v-.08c.02 0 .04-.01.04-.04s.01-.06.04-.09c0-.02.01-.05.04-.08s.04-.05.04-.08c.03-.03.05-.06.05-.09.02-.02.04-.05.04-.08.03-.03.04-.05.04-.08l.08-.08.05-.05c0-.02 0-.05.04-.08 0-.03.01-.06.04-.08v-.09a.09.09 0 0 0 .04-.08l.08-.08v-.09l.09-.08v-.12c.02-.03.04-.06.04-.09a.09.09 0 0 0 .04-.08c.03-.03.04-.06.04-.08.03-.03.04-.06.04-.09.03-.03.05-.05.05-.08v-.08c.02 0 .05-.02.08-.05 0-.02.01-.05.04-.08v-.25c.03-.03.04-.05.04-.08.03-.03.04-.06.04-.09v-.12c.03-.03.05-.06.05-.08.02-.03.04-.06.04-.09.03-.03.04-.05.04-.08v-.08c.03-.03.04-.06.04-.09.03-.03.04-.05.04-.08v-.13a.12.12 0 0 0 .05-.08c.02-.03.04-.05.04-.08.03-.03.04-.06.04-.08v-.26l.08-.08v-.04c.03-.03.05-.06.05-.08.02-.03.04-.06.04-.09.03-.03.04-.05.04-.08v-.08c.03-.03.04-.06.04-.09.03-.03.04-.05.04-.08v-.21c.03-.03.04-.06.04-.08.03-.03.05-.06.05-.09.02-.02.04-.05.04-.08v-.29c.03-.03.04-.06.04-.08 0-.03.02-.06.04-.09v-.33l.09-.09.04-.04v-.08c.03-.03.04-.06.04-.09l.04-.08v-.33l-.04-.04v-.3c-.03 0-.04-.01-.04-.04V17l-.04-.04v-.04h-.04v-.13h-.05v-.08c-.02 0-.04-.01-.04-.04l-.04-.04v-.05c-.03 0-.04-.01-.04-.04l-.05-.04c0-.03 0-.04-.04-.04v-.04h-.04v-.04l-.04-.05v-.04h-.04l-.04-.04c0-.03-.02-.04-.05-.04l-.04-.04h-.04c0-.03-.01-.05-.04-.05-.03-.02-.06-.04-.09-.04h-.04l-.04-.04c-.03 0-.04-.01-.04-.04h-.09c0-.03-.01-.04-.04-.04a.11.11 0 0 0-.08-.04h-.04c-.03-.03-.06-.05-.09-.05l-.04-.04h-.04l-.04-.04c-.03-.03-.06-.04-.08-.04h-.05l-.04-.04h-.16l-.05-.04h-.12l-.04-.05h-.21l-.04-.04h-.18l-.04-.04h-.17c-.03-.03-.05-.04-.08-.04h-.04l-.04-.04h-.09l-.04-.05h-1.17c-.03 0-.06.02-.08.05h-.39a.09.09 0 0 0-.08.04h-.04c-.03 0-.05.01-.05.04h-.08c0 .03-.01.04-.04.04h-.09l-.08.04h-.16c-.02 0-.05.02-.08.05h-.12c-.03 0-.06 0-.09.04h-.12c-.03 0-.06.01-.09.04h-.04c-.03 0-.04.01-.04.04h-.04c-.03.03-.06.04-.09.04l-.08.04h-.08c-.03 0-.06.02-.09.05h-.08c-.03 0-.06 0-.08.04h-.04a.12.12 0 0 0-.09.04h-.04c-.03 0-.05.01-.08.04h-.09c-.03.03-.06.04-.08.04-.03 0-.06.02-.09.04l-.04.05h-.08a.09.09 0 0 0-.08.04h-.05c-.02 0-.05.01-.08.04h-.08c0 .03-.02.04-.04.04s-.06.02-.09.04h-.08c0 .03-.02.05-.04.05-.03 0-.06 0-.09.04h-.04c-.03 0-.05.01-.08.04h-.04c-.03 0-.06.01-.09.04h-.04c-.03 0-.05.02-.08.04h-.08c0 .03-.02.04-.05.04-.02 0-.05.02-.08.05h-.08c0 .02-.02.04-.04.04-.03 0-.06.01-.09.04h-.04a.09.09 0 0 0-.08.04h-.05c-.02 0-.04.02-.04.04h-.12c-.03 0-.06.02-.08.05h-.05a.12.12 0 0 0-.08.04h-.04a.12.12 0 0 0-.09.04h-.04a.09.09 0 0 0-.08.04h-.09c0 .03-.01.04-.04.04s-.06.02-.08.04l-.04.05h-.09c-.03 0-.05.01-.08.04h-.04c-.03 0-.06.01-.09.04h-.08c-.03.03-.06.04-.08.04-.03 0-.06.02-.09.04h-.04c-.03 0-.04.02-.04.04h-.04c-.03.03-.06.05-.09.05-.02 0-.04 0-.04.04h-.08c-.03.03-.06.04-.09.04-.02 0-.05.01-.08.04h-.04a.09.09 0 0 0-.08.04h-.05l-.08.04h-.04a.11.11 0 0 0-.08.05h-.04c-.03 0-.06.01-.09.04h-.04c-.03 0-.04.01-.04.04h-.04l-.05.04c-.02 0-.04.01-.04.04h-.04c-.03 0-.06.02-.08.04h-.05c-.02 0-.05.02-.08.05h-.04a.12.12 0 0 0-.08.04h-.05a.11.11 0 0 0-.08.04h-.08c-.03 0-.06.01-.09.04h-.04c-.03 0-.05.01-.08.04h-.04c-.03 0-.06.02-.09.04h-.04c-.03 0-.06.02-.08.05h-.09c-.02 0-.05.01-.08.04h-.08c-.03 0-.06.01-.09.04h-.04c-.03 0-.04.02-.04.04h-.04c-.03.03-.06.04-.09.04h-.08c-.03 0-.06.02-.08.05h-.09c-.02 0-.05 0-.08.04h-.04c-.06 0-.1 0-.13.04h-.04a.12.12 0 0 0-.08.04h-.09c-.02 0-.05.01-.08.04h-.04c-.03 0-.04.02-.04.04h-.13a.12.12 0 0 0-.08.04h-.08c-.03 0-.06.02-.09.05h-.08a.09.09 0 0 0-.08.04h-.05a.11.11 0 0 0-.08.04h-.13c-.02 0-.05.01-.08.04h-.12c-.03 0-.06.01-.09.04h-.12c-.03 0-.06.02-.08.04h-.13c-.03 0-.05.02-.08.05H19c-.02 0-.04 0-.04.04h-.04c-.03.03-.05.04-.08.04h-.13c-.03 0-.05.01-.08.04h-.13a.09.09 0 0 0-.08.04h-.13c-.03 0-.05.02-.08.04h-.04c-.03 0-.05.02-.05.04h-.04l-.04.05c-.03 0-.06 0-.08.04h-.05c-.02 0-.04.01-.04.04h-.12c-.03 0-.06.01-.09.04h-.04c-.03 0-.05.02-.08.04l-.04.04h-.04l-.05.05c-.02 0-.05.01-.08.04h-.04c-.03 0-.06.01-.09.04h-.08c-.03 0-.05.01-.08.04h-.08c0 .03-.02.04-.05.04-.02 0-.05.02-.08.05h-.04c-.03 0-.06 0-.08.04h-.13a.09.09 0 0 0-.08.04h-.09c-.02 0-.05.01-.08.04h-.04c-.03 0-.06.01-.09.04h-.04c-.02 0-.05.02-.08.05h-.13a.12.12 0 0 0-.08.04h-.08c0 .03-.02.04-.04.04-.03 0-.06.01-.09.04h-.04c-.03 0-.06.01-.09.04l-.05.07-.07.01h-.04c-.03 0-.06.02-.08.05h-.09c0 .02-.01.04-.04.04s-.06.01-.08.04h-.09l-.08.04h-.04c-.03 0-.06.02-.09.05h-.08c-.03 0-.05 0-.08.04h-.04c-.03 0-.06 0-.09.04h-.12a.12.12 0 0 0-.09.04h-.04c-.03 0-.05.01-.08.04l-.04.04h-.13c-.03 0-.05.02-.08.04h-.13c-.02 0-.05.02-.08.05h-.04c-.06 0-.1.01-.13.04h-.04a.09.09 0 0 0-.08.04h-.04a.1.1 0 0 0-.09.04l-.04.04h-.13c-.02 0-.05.01-.08.04h-.12c-.03 0-.06.02-.09.04h-.04c-.03 0-.06.02-.08.04h-.17a.12.12 0 0 0-.08.05h-.05c-.02 0-.05 0-.08.04h-.04a.12.12 0 0 0-.08.04h-.09c0 .03-.01.04-.04.04a.12.12 0 0 0-.09.04h-.2c-.03 0-.06.02-.09.05h-.08a.09.09 0 0 0-.08.04h-.13a.09.09 0 0 0-.08.04h-.17a.09.09 0 0 0-.08.04h-.13c-.03 0-.05.01-.08.04h-.12c-.04 0-.06.02-.09.05h-.12c-.03 0-.06 0-.09.04h-.04a.09.09 0 0 0-.08.04l-.04.04h-.05c-.02.03-.05.04-.08.04s-.04.02-.04.04h-.09c0 .03-.01.05-.04.05s-.05 0-.08.04h-.04a.11.11 0 0 0-.09.04h-.04c-.03 0-.04.01-.04.04h-.04c-.03.03-.06.04-.08.04-.06 0-.1.02-.13.05H9.4c-.03 0-.06.01-.09.04h-.04c-.03 0-.05.01-.08.04l-.04.04c-.03.03-.06.04-.09.04-.02 0-.05.02-.08.05l-.04.04h-.17c-.03 0-.05.01-.08.04h-.04c-.03 0-.05.01-.05.04h-.08c0 .03-.01.04-.04.04s-.06.02-.08.05l-.05.04h-.04c-.03.02-.05.04-.08.04h-.09c-.02 0-.05.01-.08.04h-.12c-.03 0-.06.01-.09.04h-.08c0 .03-.02.04-.04.04s-.06.02-.09.04h-.08c-.03 0-.06.02-.08.05h-.09c-.02 0-.05.01-.08.04h-.08c-.03 0-.06.01-.09.04h-.13l-.08.04h-.12c-.03 0-.06.02-.08.04h-.05c-.03 0-.04.02-.04.05h-.08c0 .02-.02.04-.04.04-.03 0-.06.01-.09.04h-.16a.12.12 0 0 0-.09.04h-.04c-.03 0-.06.02-.08.04h-.09c-.02.03-.05.04-.08.04s-.06.02-.08.05h-.04c-.03 0-.05.01-.05.04h-.04c-.03.03-.06.04-.08.04s-.06.01-.09.04h-.04c-.03 0-.05.02-.08.04h-.04c-.03 0-.05.02-.05.05h-.12c-.03 0-.06 0-.08.04H5c0 .03-.01.04-.04.04s-.06.01-.08.04H4.8l-.08.04h-.04c-.03 0-.06.02-.09.05h-.04a.12.12 0 0 0-.08.04h-.09c0 .03 0 .04-.04.04-.02 0-.05.01-.08.04h-.04c-.03 0-.06.02-.09.04h-.12c-.03 0-.06.02-.08.04h-.17c-.03 0-.06.02-.08.05H3.5a.09.09 0 0 0-.08.04h-.09c-.03 0-.05.01-.08.04h-.08c-.03 0-.06.01-.09.04h-.16l-.08.04h-.17l-.08.04h-.04c-.03 0-.04.02-.04.05h-.04l-.05.04c-.02 0-.05.01-.08.04H2.3a.09.09 0 0 0-.08.04h-.13c-.03 0-.06.02-.08.04h-.05c-.02 0-.05.02-.08.05a.09.09 0 0 0-.08.04h-.1c0 .03-.01.04-.04.04s-.05.01-.08.04h-.05c-.02 0-.04.01-.04.04h-.08c0 .03-.01.04-.04.04s-.06.02-.08.05H1.2c0 .02-.01.04-.04.04s-.06.01-.08.04H1c-.03 0-.05.01-.08.04H.88c-.03 0-.06.02-.09.04H.75c-.03 0-.05.02-.08.05l-.08-.05a1.64 1.64 0 0 1-.09-.08l-.08-.08v-.13a.68.68 0 0 1-.2-.04c0-.03-.02-.05-.05-.08L.13 24v-4.12l.04-.02c0-.03.01-.04.04-.04s.07-.01.13-.04H.5v-4.26a.35.35 0 0 0-.04-.12.33.33 0 0 0-.04-.13v-.71H.34a.37.37 0 0 1-.17-.04l-.08-.08-.09-.09V11.4c.03-.03.04-.06.04-.09a.09.09 0 0 0 .04-.08l.09-.08c.02 0 .04-.02.04-.05v-.08c.03-.03.04-.06.04-.08.03-.03.04-.06.04-.09a.5.5 0 0 0 .13-.08.44.44 0 0 1 .12-.08c.03 0 .06-.02.09-.05.02-.02.05-.04.08-.04l.08-.08a.42.42 0 0 1 .13-.08c.03-.03.05-.04.08-.04 0-.03.02-.05.04-.05h.13v-.04c.06.03.1.04.13.04.02 0 .04.02.04.05h.12l.17.08c.03 0 .04.01.04.04h1.59l.04.04.04-.04h6.89c.03.03.07.04.13.04.02 0 .04.01.04.04 1.11-.03 2.21-.04 3.3-.04v-.04c.03 0 .05-.01.08-.04v-.05a.4.4 0 0 0 .17-.04c.05 0 .11-.01.17-.04a.18.18 0 0 1 .12-.04.6.6 0 0 0 .13-.08l.08-.09.08-.08.17-.08c.03-.03.04-.06.04-.09.03 0 .06-.01.08-.04V9.8c.06 0 .12-.02.17-.04h.17v-.04h.12l.13.04c.03.02.04.05.04.08.03.03.04.06.04.08s-.01.06-.04.09c0 .02-.01.05-.04.08l-.2.08v.05l.12.04a.1.1 0 0 1 .06.02l.02-.02v-.04l.04-.05.08-.04c.03 0 .08-.01.13-.04h.06c.05 0 .1-.01.15-.04h.25v-.04h.46l.12-.04h.42l.08.04h.42l.12-.04h2.84l.09.04h.3l.11-.04h3.05l.09.04h1.04l.13-.04h1.96c.03-.03.06-.04.08-.04.03 0 .07-.02.13-.05.39 0 .78-.01 1.17-.04.03 0 .05-.01.08-.04h.13v-.04h.62c.03-.03.04-.06.04-.09a.43.43 0 0 1 .13-.08.43.43 0 0 1 .13-.08.46.46 0 0 1 .12-.08l.08-.09.09-.08c.03 0 .05-.02.08-.04l.17-.09c.03-.03.04-.05.04-.08a.5.5 0 0 1 .13-.08.44.44 0 0 1 .12-.09l.08-.08v-.09a6.53 6.53 0 0 0 .13-.12l.17-.08a.48.48 0 0 1 .12-.09c.03-.02.06-.04.09-.04 0-.03 0-.04.04-.04.02 0 .07-.01.12-.04.23 0 .46-.02.71-.04a.45.45 0 0 1 .13-.09l.08-.08.08-.08c.03 0 .06-.02.09-.05.02-.02.04-.05.04-.08l.08-.08.09-.09.08-.08.08-.08c.03 0 .06-.02.08-.04.03-.03.06-.05.09-.05a.09.09 0 0 0 .04-.08c.03-.03.04-.06.04-.08a.43.43 0 0 1 .13-.08.43.43 0 0 1 .12-.09l.08-.08.09-.08.04-.05c0-.02.01-.05.04-.08s.05-.05.05-.08a.09.09 0 0 1 .08-.04c0-.03.01-.05.04-.05.03-.02.07-.04.13-.04.02-.03.04-.05.04-.08l.08-.08.08-.09.09-.08.08-.08.08-.09c.03 0 .05-.01.05-.04l.09-.09.08-.08.09-.09.08-.08.08-.08.09-.09.08-.08c.03 0 .04-.01.04-.04l.17-.09c.05-.02.1-.04.16-.04V5.3h.05l.04-.04c.03-.03.05-.05.08-.05h.13v-.04h16.28v-.04c.03-.03.05-.05.05-.08l.04-.08.08-.09.04-.04c0-.03.02-.06.05-.08.02-.03.04-.06.04-.09l.08-.08.04-.04c.03-.03.06-.04.08-.04h.09v-.05l.04-.04c.03-.03.06-.04.08-.04.03 0 .07-.01.13-.04h.42V4.2l.08-.08a.47.47 0 0 1 .12-.08c.03 0 .06-.02.09-.05l.08-.08.04-.04v-.04h.09c0-.03.01-.06.04-.09.03 0 .06 0 .08-.04l.08-.08h.09c0-.03.01-.04.04-.04l.08-.09.09-.08.04-.04v-.08a1.62 1.62 0 0 1 .17-.17l.08-.08c0-.03.01-.06.04-.09v-.21c.06-.03.1-.04.13-.04v-.04l.04.04v-.08h.09c.02 0 .05-.02.08-.05l.08.09h.29c.03-.03.04-.06.04-.09h.43l.12.05.08.08.08.08.09.09c0 .02.01.05.04.08s.06.04.08.04l.09.08a6.7 6.7 0 0 0 .16.17l.09.09a3.25 3.25 0 0 1 .16.16l.05.04c.02.03.07.05.12.05l.13.08c.02.03.04.05.04.08 0 .02.02.03.04.04l.04.05.12.08v.08c.06.03.1.04.13.04l.08.09c0 .02.02.05.05.08l.04.08.04.04h1.46v-.2c.03 0 .06-.01.08-.04v-.04c.06 0 .11-.02.17-.05.06 0 .11 0 .17-.04a.39.39 0 0 1 .17-.04l.04-.08c.05 0 .1-.02.16-.04 0-.03.02-.06.04-.09.03 0 .06-.01.09-.04v-.04a.4.4 0 0 0 .17-.04l.16-.09.09-.08c.02 0 .05-.01.08-.04h.04l.17-.08.04-.05V3.2c.06 0 .11-.01.17-.04.03-.03.04-.06.04-.08.03 0 .05-.02.08-.05V3h.13l.12.04c.03.03.04.06.04.09s.02.05.04.08v.38c0 .03.02.05.05.08.03.03.04.06.04.08.03.03.04.06.04.09 0 .02.01.05.04.08V4l.04.04.09.09c0 .02.01.05.04.08s.04.06.04.08l.04.05h1.84c0-.03.02-.05.04-.05h.13v-.04h.21l.17.09.08.08c0 .03.01.04.04.04v.13c.03 0 .06.01.08.04.03.03.06.04.09.04 0 .03.01.06.04.08v.09l.04.04.08.08.09.08c0 .03 0 .06.04.09 0 .03.01.05.04.08h.13v-.04H80.6l.08-.08c.03 0 .05-.01.08-.04l.09-.09c.02-.02.04-.05.04-.08.03-.03.04-.06.04-.08.03-.03.04-.06.04-.09 0-.02.01-.05.04-.08v-.08l.09-.09c.02 0 .04-.01.04-.04.03-.03.04-.05.04-.08s.01-.06.04-.09v-.33c-.03-.03-.04-.05-.04-.08-.03 0-.04-.01-.04-.04V2.28l.08-.08a.19.19 0 0 1 .13-.04c.08 0 .17-.02.25-.05.06 0 .12 0 .17-.04zm1.06.48.03-.02a.27.27 0 0 1 .06-.04h-.15l.05.04.02.02zm-2.56 8.42-.17.08h.25l.02-.04a.37.37 0 0 0-.06-.04l-.02-.02-.02.02zM55.6 3.06c.03 0 .07.02.1.04v-.02l-.08-.05-.03.03zM41.88 16.02c-.03.03-.04.06-.04.08l-.09.09c.03.03.04.05.04.08v.79c-.02.03-.04.06-.04.09a.12.12 0 0 0-.04.08c-.03.03-.04.06-.04.08l-.04.05c0 .03-.02.05-.04.08v1.06c0 .02 0 .05.04.08v.16c0 .03.01.06.04.09 0 .03.01.05.04.08s.07.06.13.08v.09c.02.02.04.05.04.08v.04h4.17c.03.03.07.04.13.04.03 0 .04.02.04.05h1.3c.02-.03.05-.05.08-.05l.12-.04c.03 0 .07-.01.13-.04.03 0 .05-.01.08-.04l.13-.04c.05 0 .1-.02.16-.04a.49.49 0 0 1 .13-.09l.08-.08.17-.08h.08v-3.1h-4.53l-.02.04c-.03.03-.04.06-.04.08v.46c0 .03.01.06.04.09l.04.08v.25l.09.08v.09l.04.04c0 .03.01.05.04.08l.08.08c.03.03.05.06.05.09l.04.08c.03.03.04.06.04.09a.5.5 0 0 0 .12.08v.08l.05.04c0 .03.01.06.04.09l.08.08.08.08c.03.03.05.06.05.09.02.02.05.04.08.04l.08.04c.02 0 .07.01.13.04.03.03.04.06.04.08.03.03.04.06.04.09v.16l-.04.05a.09.09 0 0 0-.04.08h-.04v.08l-.05.04c-.02.03-.04.06-.04.09h-.04c-.03.02-.05.04-.08.04h-.3a.32.32 0 0 0-.12-.04.122.122 0 0 1-.04-.09h-.04a.38.38 0 0 0-.17-.04l-.17-.08-.04-.08h-.04a.3.3 0 0 0-.13-.05.46.46 0 0 1-.12-.08l-.09-.08a.31.31 0 0 0-.12-.04l-.08-.09-.09-.08-.08-.08-.09-.09a2.22 2.22 0 0 0-.08-.08l-.08-.09a.09.09 0 0 1-.04-.08c-.03 0-.05-.01-.05-.04L43 17.4l-.08-.09v-.16a.122.122 0 0 1-.04-.09v-.08c-.03-.03-.05-.06-.05-.08v-.13c0-.03 0-.05-.04-.08 0-.03-.01-.06-.04-.09a.09.09 0 0 1-.04-.08v-.29c-.03-.03-.04-.06-.04-.08 0-.03-.02-.06-.05-.09v-.37h-.16c-.03.02-.06.04-.09.04l-.16.08a.37.37 0 0 1-.17.04l-.08.09-.08.08zm2.65 2.03-.02.02.04.04v-.04l-.02-.02zm-21.49-3.16h.02a.9.9 0 0 0 .23-.04.4.4 0 0 0 .17-.04c.03 0 .06-.01.08-.04a9.15 9.15 0 0 0 .54-.13.9.9 0 0 0 .3-.12l.16-.08a4.86 4.86 0 0 0 .52-.17.34.34 0 0 0 .07-.08.66.66 0 0 0 .17-.13l.16-.08H2.97c0 .02-.02.05-.05.08v.02c-.01 0-.03 0-.04.02h-.04c-.03 0-.06.02-.08.04l-.09.09v.04c-.02 0-.04.01-.04.04v.04c-.03 0-.04.02-.04.05v.66c0 .03.01.04.04.04v3.05c-.03 0-.04.02-.04.04v.59c-.03 0-.04.01-.04.04v1.38c0 .03.01.04.04.04v.08h.04v.13c0 .03.02.04.04.04v.08h.04v.05l.05.04v.04h.04c.03.03.06.04.08.04s.04.02.04.04h.18v.04c0 .06-.01.1-.04.13 0 .03 0 .06-.02.08h.06c.03.03.04.06.04.09l.05.04v.04c0 .03-.02.06-.05.08 0 .03-.01.06-.04.09a.3.3 0 0 0-.12.04h-.13l-.04.04v.06c.04 0 .08 0 .12-.02.03 0 .06-.01.09-.04a.4.4 0 0 0 .17-.04c.08 0 .16-.02.25-.04.05 0 .1-.02.16-.05.03 0 .06 0 .09-.04a.4.4 0 0 0 .16-.04l.25-.08c.09-.03.17-.07.25-.13l.17-.08c.06 0 .11-.02.17-.04.08 0 .17-.02.25-.05.05 0 .1-.01.17-.04.02 0 .05 0 .08-.04.05 0 .11-.01.17-.04l.25-.08a10.63 10.63 0 0 1 .75-.25l.25-.09.25-.08.25-.08.25-.09.25-.08.25-.08.25-.09a10.47 10.47 0 0 1 .5-.16l.25-.09c.08 0 .17-.01.25-.04.11 0 .22-.01.33-.04.03 0 .06-.02.09-.04.05 0 .1-.02.17-.04.08 0 .16-.02.25-.05l.25-.08a1 1 0 0 0 .25-.12l.25-.09.25-.08a1 1 0 0 0 .25-.13l.16-.08a2 2 0 0 0 .21-.08.52.52 0 0 0 .21-.13l.17-.08c.03 0 .05-.02.08-.04.06 0 .11-.02.17-.05.08 0 .17 0 .25-.04l.58-.08c.09-.03.17-.07.26-.13l.24-.08.26-.08.25-.09c.08 0 .16 0 .25-.04.05 0 .1-.01.16-.04.03 0 .06-.01.09-.04.05 0 .1-.02.16-.04l.25-.09.25-.08a9.22 9.22 0 0 1 .76-.2l.25-.09a.97.97 0 0 0 .25-.13l.25-.08a8.55 8.55 0 0 0 .63-.13.9.9 0 0 0 .29-.12l.24-.08.25-.08.25-.09.26-.08.25-.09.25-.08a.65.65 0 0 0 .16-.13.65.65 0 0 0 .17-.12l.08-.04.09-.04c.02 0 .05-.02.08-.05.06 0 .11-.01.17-.04h.06c.06 0 .13-.02.19-.04.11 0 .22-.01.33-.04.03 0 .06-.02.09-.04.05 0 .1-.02.16-.04l.25-.09c.11-.03.23-.07.34-.12a6.57 6.57 0 0 0 .5-.2l.06-.03.02-.02h.07l.85-.3.26-.09zm8.5-.02-.35.07a.55.55 0 0 1-.21.12l-.25.09h.93l.04.04h.12l-.16-.17a.8.8 0 0 0-.07-.1l-.04-.05z" clip-rule="evenodd"/></svg>
