<svg xmlns="http://www.w3.org/2000/svg" xml:space="preserve" viewBox="0 0 43.454 29.438"><path fill="#FFF" d="M41.088 22.257c-.368.313-.765.468-1.189.468l-26.556.042c-.481-.026-.878-.185-1.19-.467-.312-.396-.467-.764-.467-1.104V9.893l-10.197.042V8.108l10.154-.042.042-1.316c0-.396.155-.766.467-1.104.313-.283.708-.425 1.19-.425h26.516c.452 0 .862.142 1.23.425.369.339.54.708.511 1.104l.043 14.361c-.028.396-.213.778-.554 1.146zM25.963 7.089H14.745c-.368 0-.553.184-.553.552v6.714c0 .339.198.496.596.468h11.175c.141 0 .27-.058.382-.171.17-.085.241-.197.213-.339l-.043-6.714c0-.17-.07-.297-.213-.383a.46.46 0 0 0-.339-.127zm-5.014 8.752a.407.407 0 0 0-.127.298v1.317c0 .142.042.255.127.34a.56.56 0 0 0 .34.127h1.444a.465.465 0 0 0 .341-.127c.112-.059.169-.17.169-.34v-1.317c0-.113-.057-.227-.169-.34-.085-.085-.213-.128-.384-.128l-1.486.043c-.087 0-.17.042-.255.127zm3.016.298.043 1.317a.6.6 0 0 0 .085.34c.171.085.313.127.425.127h1.402c.084 0 .184-.043.297-.127.143-.086.213-.198.213-.34v-1.317a.564.564 0 0 0-.127-.34c-.17-.085-.311-.113-.426-.085h-1.443a.518.518 0 0 0-.297.085l-.172.34zm-7.648-.425h-1.401c-.17 0-.269.028-.297.085a6.526 6.526 0 0 0-.212.297l.085 1.36c0 .142.027.255.085.34a.562.562 0 0 0 .339.127h1.444c.084 0 .185-.043.298-.127.113-.059.17-.17.17-.34l-.042-1.317c.057-.113.027-.213-.084-.298a.777.777 0 0 0-.385-.127zm1.445.127c-.085.143-.128.241-.128.298v1.317c0 .17.042.281.128.34.113.085.228.113.339.085l1.445.043a.63.63 0 0 0 .383-.127c.084-.058.127-.171.127-.34l-.085-1.317c.057-.056.042-.155-.042-.298a1.346 1.346 0 0 0-.511-.128l-1.401-.042a.65.65 0 0 0-.255.169zm2.166 3.145c-.198-.113-.354-.17-.467-.17h-1.445c-.085 0-.17.057-.255.17-.085.057-.127.156-.127.299V20.6c0 .144.042.271.127.383.085.085.198.113.339.085l1.36.044c.142 0 .297-.044.467-.128a.623.623 0 0 0 .127-.383l-.084-1.316a.9.9 0 0 0-.042-.299zm-3.568-.17h-1.444a.46.46 0 0 0-.34.126c-.113.115-.17.214-.17.3l.084 1.358c0 .114.042.229.128.341.057.113.155.17.297.17l1.444-.044a.944.944 0 0 0 .341-.085.462.462 0 0 0 .084-.383v-1.314c.027-.113-.015-.214-.128-.299-.112-.115-.211-.17-.296-.17zm7.732.17c-.085.057-.127.156-.127.299V20.6a.65.65 0 0 0 .171.341c.142.084.239.126.297.126l1.487.044c.084 0 .213-.057.382-.17a.457.457 0 0 0 .127-.341l-.041-1.315a.404.404 0 0 0-.171-.342.56.56 0 0 0-.34-.126h-1.359a.57.57 0 0 0-.426.169zm-1.019 0c-.085-.113-.213-.17-.384-.17h-1.486c-.086 0-.185.057-.297.17-.057.057-.084.156-.084.299V20.6c0 .144.056.271.17.383a.408.408 0 0 0 .297.128h1.444a.53.53 0 0 0 .383-.17c.086-.087.1-.197.043-.341l.084-1.315a.883.883 0 0 0-.17-.299z"/><path fill="none" stroke="#FFF" stroke-linecap="round" stroke-linejoin="round" stroke-miterlimit="3" d="M10.793 19.579c-2.976.905-4.49 2.169-4.547 3.781-.028 1.049.85 2.124 2.635 3.229 2.153 1.303 4.461 1.432 6.925.383 2.438-1.048 4.292-1.601 5.567-1.657.764-.026 1.727.101 2.889.384 1.021.112 1.884-.057 2.591-.511.624-.425.937-.937.937-1.528"/></svg>
