<svg xmlns="http://www.w3.org/2000/svg" xml:space="preserve" viewBox="0 0 30.09 28.94"><path fill="#FFF" fill-rule="evenodd" d="m11.98 9.92 1.11 3.8-3.43.3 2.84 2.32-1.42 2.69 2.69-1.34.3 2.98L16 18.13l2.38 1.94-.67-2.6 3.07-.98-2.62-1.42 2.1-3.06-3.22.9-.3-3.59-1.86 3.29-2.91-2.7zm6.28-8.56.67 8.1 7.25-2.03-4.72 6.91 5.9 3.21-6.91 2.19 1.51 5.9-5.39-4.38-4.38 5.73-.68-6.75-6.06 3.04 3.2-6.07-6.41-5.23 7.75-.67-2.52-8.6 6.57 6.07 4.22-7.42zm-3.78 14.38-.97-.8 1.17-.1-.38-1.3 1 .92.63-1.12.1 1.22 1.1-.3-.71 1.04.89.48-1.05.34.23.9-.81-.67-.67.87-.1-1.02-.92.46.49-.92z" clip-rule="evenodd"/></svg>
