<svg xmlns="http://www.w3.org/2000/svg" xml:space="preserve" viewBox="0 0 29.624 29.438"><g fill-rule="evenodd" clip-rule="evenodd"><path fill="#FFF" d="M17.687 4.826c0 .123-.006.244-.016.361 1.9.492 3.595 1.483 5.082 2.971 2.227 2.225 3.339 4.911 3.339 8.059 0 .82-.076 1.612-.228 2.371.437.159.834.415 1.188.771.642.64.961 1.414.961 2.32 0 .908-.319 1.681-.961 2.321a3.157 3.157 0 0 1-2.321.961c-.759 0-1.423-.224-1.996-.672-2.219 2.213-4.898 3.319-8.036 3.319-2.937 0-5.473-.972-7.606-2.908-.6.516-1.306.772-2.121.772-.907 0-1.681-.321-2.321-.961s-.961-1.413-.961-2.32.32-1.68.96-2.321a3.256 3.256 0 0 1 1.017-.701 11.889 11.889 0 0 1-.361-2.952c0-3.148 1.113-5.833 3.335-8.059 1.34-1.339 2.847-2.274 4.52-2.807a3.47 3.47 0 0 1-.038-.525c0-.907.321-1.681.961-2.321a3.159 3.159 0 0 1 2.321-.96c.907 0 1.681.32 2.321.96.642.64.961 1.414.961 2.321zM6.063 20.143l-1.916.944 1.416 2.446 1.846-1.277c.193.23.403.458.622.678 1.862 1.863 4.113 2.795 6.751 2.795 2.636 0 4.884-.932 6.747-2.795.349-.347.664-.708.947-1.083l1.95 1.308 1.415-2.45-2.148-1.021c.422-1.081.634-2.247.634-3.505 0-2.635-.934-4.886-2.798-6.75-1.581-1.582-3.443-2.492-5.583-2.73l.144-2.127h-2.829l.173 2.15c-2.065.269-3.866 1.171-5.403 2.708-1.864 1.864-2.795 4.114-2.795 6.75 0 1.434.275 2.754.827 3.959z"/><path fill="#999" d="m13.46 7.05-.026-.324-.173-2.15h2.829l-.144 2.127-.022.327-.145 2.173-.102 1.491-.122 1.833H13.9l-.141-1.777-.122-1.503-.177-2.197zM9.818 18.29l1.473-.729.832 1.432-1.264.875-1.217.842-1.974 1.365-.259.181-1.846 1.277-1.416-2.446 1.916-.944.283-.141 2.139-1.055 1.333-.657zm12.395 3.385-1.884-1.264-1.19-.798-1.332-.893.828-1.434 1.445.686 1.3.618 2.024.959.289.138 2.148 1.021-1.415 2.45-1.95-1.308-.263-.175z"/><path fill="#CCC" d="M15.924 7.03c2.062.233 3.854 1.112 5.379 2.636 1.8 1.802 2.702 3.976 2.702 6.522 0 1.205-.201 2.325-.602 3.362l-2.024-.959c.289-.77.435-1.6.435-2.487 0-1.921-.678-3.56-2.037-4.917-1.135-1.136-2.469-1.797-3.998-1.984l.145-2.173zm-2.464.02.178 2.196c-1.406.232-2.638.878-3.699 1.94-1.36 1.357-2.038 2.996-2.038 4.917 0 1.03.193 1.977.584 2.844l-2.139 1.055c-.528-1.16-.793-2.432-.793-3.814 0-2.546.901-4.72 2.704-6.522 1.481-1.482 3.216-2.353 5.203-2.616zm2.218 3.643c1.182.157 2.213.675 3.092 1.556 1.073 1.072 1.609 2.368 1.609 3.884 0 .655-.1 1.268-.299 1.84l-1.445-.686-.828 1.434 1.332.893a5.307 5.307 0 0 1-.369.401c-1.07 1.074-2.367 1.611-3.882 1.611-1.517 0-2.813-.537-3.886-1.611-.05-.048-.098-.099-.143-.146l1.264-.875-.832-1.432-1.473.728a5.453 5.453 0 0 1-.422-2.157c0-1.517.536-2.812 1.606-3.884.796-.794 1.715-1.294 2.758-1.5l.141 1.777h1.655l.122-1.833zm4.651 9.718 1.884 1.264a10.32 10.32 0 0 1-.909 1.039c-1.801 1.8-3.976 2.701-6.523 2.701-2.55 0-4.725-.901-6.523-2.701a9.003 9.003 0 0 1-.588-.639l1.974-1.365c.096.106.194.209.297.313 1.358 1.359 2.997 2.038 4.917 2.038 1.924 0 3.563-.679 4.921-2.038.195-.197.381-.402.55-.612z"/></g></svg>
