<svg xmlns="http://www.w3.org/2000/svg" xml:space="preserve" viewBox="0 0 32 32"><path fill="#FFF" d="m.36 2.594 3.44-.523.687 1.463 1.085 7.412 2.053-.09.431 1.963.087 4.306 1.245 1.549 2.093.709.185-2.979h2.427l.177-.716h3.545l.081.708h2.392l.203 2.993 1.977-.58 1.168-1.467.109-4.425.484-1.958 2.18.051 1.098-7.136.914-1.792 3.219.643-2.776 19.94-.681.389-.94-.271-.135 1.524-.699 1.506-3.015-.219.085-2.427-2.962-.846-.026 1.79-2.228.196-.123.957-1.284.069v.611l5.403.261 1.422-.255-.223 3.969-.99-2.473-3.03-.043-.277.361-6.215.052-.365-.472-2.969-.022-.852 2.606-.317-2.663.1-1.321h6.524v-.68l-1.073-.107-.057-.85-2.402-.198-.134-1.784-2.955.834-.05 2.371-2.875.302-.647-1.33-.087-1.689-.746.077-.821-.345"/></svg>
