<svg xmlns="http://www.w3.org/2000/svg" fill="none" viewBox="0 0 28 25"><path fill="#fff" fill-rule="evenodd" d="M27.34 10.25v.83a.2.2 0 0 1-.05.15.9.9 0 0 1-.3.32 1 1 0 0 1-.41.2c-.18.07-.35.09-.5.07a1.52 1.52 0 0 1-.6-.27 18.96 18.96 0 0 0-3.51-1.89 12.4 12.4 0 0 0-2.98-.74 17.03 17.03 0 0 0-4.1.36c-.39.08-.77.12-1.16.12-.37.02-.75.03-1.12.03h-.18a9.14 9.14 0 0 0-1.18-.45 6.6 6.6 0 0 1-.44-.14l-.27.44a.89.89 0 0 1-.35.3c.08.13.24.4.5.79l.74 1c-.02.04-.02.07 0 .1 0 .05.04.08.12.08l.88.74c.22 0 .22.1 0 .33-.06.05-.1.08-.12.08a.66.66 0 0 1-.17-.08l-.45-.33c.18.53.31 1.07.39 1.62a11.31 11.31 0 0 0 1.83 5.79 10.3 10.3 0 0 0 3.13 3.04c.2.16.32.3.38.42l.03.35v.18c0 .14-.03.28-.09.41a.6.6 0 0 1-.23.3c0 .1-.03.2-.1.32-.07.1-.24.15-.5.15-.15.18-.45.12-.88-.18l-.15-.09c-1.6-1-2.86-2.16-3.8-3.48a13.3 13.3 0 0 1-1.98-4.4l-.18-1.68a8.9 8.9 0 0 1-.12-1.4c-.1-.3-.16-.62-.18-.94a3.54 3.54 0 0 0-.09-.7l-.32-.36-.6-.97a8.41 8.41 0 0 1-.8-1c-.1-.13-.17-.2-.17-.24a6.95 6.95 0 0 0-.5-.2 7.72 7.72 0 0 0-.73-.34l-1.04-.38L.15 4.55 0 4.35c0-.08.05-.12.15-.12v-.15c0-.1.1-.15.3-.15L5.6 5.92c.08.06.12.13.12.2l.03.25c0 .3.05.44.15.44.2.06.34.05.44-.03a.7.7 0 0 0 .18-.12V6.5l.56-.74c.08-.13.09-.24.03-.32a.7.7 0 0 0-.27-.06l-.18.06h-.3c-.11-.02-.17-.07-.17-.15L2.9.92V.57h.44l4.4 3.07h.17a74.13 74.13 0 0 1 1.42 1.98l.38.41.6.18c.27.1.57.18.88.26a10.42 10.42 0 0 0 1.42.33c.2 0 .79-.05 1.77-.15a38.54 38.54 0 0 1 6.17-.06c.62.08 1.22.24 1.8.48.6.25 1.25.6 1.98 1.06.73.47 1.67 1.1 2.8 1.92.1.05.17.13.21.2Zm-14.9.21 1.2.47c.1 0 .15.1.15.3-.08 0-.13.02-.15.06-.02.04-.07.02-.15-.06l-1.18-.3c-.1 0-.15-.03-.17-.09v-.17c0-.12.04-.18.11-.18a.58.58 0 0 1 .18-.03Zm.17-.41c0-.08.02-.13.06-.15.02-.04.05-.06.09-.06l1.2.2c.08 0 .16.03.24.1.06.05.1.11.1.17 0 .08-.04.13-.1.15h-.23l-1.21-.15c-.1 0-.15-.09-.15-.26Zm.62 1.95c-.1 0-.18 0-.27.03-.04.03-.06.02-.06-.03l-1.06-.63c-.1 0-.15-.1-.15-.29.08 0 .13-.02.15-.06.02-.04.08-.02.18.06l1 .56c.12 0 .19.04.2.12V12Z" clip-rule="evenodd"/></svg>
