<svg xmlns="http://www.w3.org/2000/svg" fill="none" viewBox="0 0 24 29"><path fill="#fff" fill-rule="evenodd" d="M17.92 10.19 16.4 9.3v1.8l-.91.84v1.79h-.39v1.83h.39v1.91h-.39v1.84h.39v1.9h-.39v1.84h.39v1.76l.91 1.57v1.3c0 .35-.18.53-.53.53h-6.8c-.36 0-.54-.18-.54-.54v-1.3l.88-1.56v-1.76h.42v-1.83H9.4v-1.91h.42v-1.84H9.4v-1.9h.42v-1.84H9.4v-1.8l-.88-.84V8.66c0-.36.18-.54.54-.54h.53l1.15-.99V5.6c-.62-.07-.92-.37-.92-.88 0-.33.11-.54.34-.65.13-.07.39-.11.77-.11h4.2l3.55 5.7v12.03l-1.8.88c-.25.12-.44.09-.56-.12-.13-.23-.08-.44.15-.65.2-.18.5-.38.92-.6l.53-.27V10.19Z" clip-rule="evenodd"/><path fill="#fff" fill-opacity=".85" fill-rule="evenodd" d="M5.85.06v2.37l2.02-1.18.84 1.45-2.1 1.22 2.1 1.22-.84 1.46-2.02-1.15v2.37H4.13V5.37L1.99 6.6l-.84-1.45 2.14-1.22L1.15 2.7l.84-1.45L4.13 2.5V.06h1.72Zm17.88 5.2-1.53.92 1.57.87-.65 1.11-1.53-.88v1.76h-1.26v-1.8l-1.6.92-.62-1.1 1.53-.88-1.53-.92.65-1.11 1.57.92V3.23h1.26v1.8l1.53-.88.6 1.1ZM5 16.72l-1.53-.88v1.76H2.22v-1.8l-1.6.92-.62-1.1 1.57-.89L0 13.82l.65-1.11 1.57.92v-1.84h1.26v1.8L5 12.7l.6 1.1-1.52.92 1.57.88L5 16.72Z" clip-rule="evenodd"/></svg>
