<svg xmlns="http://www.w3.org/2000/svg" xml:space="preserve" viewBox="0 0 39.405 32"><path fill="#FFF" fill-rule="evenodd" d="M24.795 3.842h.519l-.062 1.323.122.637h3.369v.682h-3.234l.09.229h.535l.012 1.11h-.347v.347l-1.975 1.429h-3.961l-1.457.895.029 1.212.213.457h.668l.229.151h2.29v3.278h-.183l.064.836.955 2.458.531.018 1.943 4.705-.136.408.392.912-.179.35.167.363.225 1.336 1.021 2.367.257.018.062.727.666.184.743.301-.028.201h-1.593l-.168-.107-.334.348h-2.748v-.379l-1.139.184v-.289l.821-.213.044-.197.911-.121h.881v-.732l.38.029-.882-2.184-.759-1.064-3.507-8.211-.653.017-.029.47h-2.232l.032.229.226.029.196.379v3.279l-.151 3.686-.516 1.004h-.41v1.486l.105.715h.682l.486.271 1.244.336v.287l-1.196-.287-.35.15h-.185v.258h-2.107v-.303h-.473l-.011-.139-1.262.381v-.273l1.747-.666h.666l.123-.73v-1.52h-.409l-.44-.955-.184-3.824v-3.217l.229-.365h.196v-.606h-2.761L9.45 26.156l-.743 1.063-.789 2.143h.409v.742h1.776v.168l.865.316v.23H9.875v.273H7.021l-.364-.244H4.882v-.275l.865-.285v-.184h.621v-.76h.29l.942-2.351.409-1.746-.196-.287.425-1.002-.168-.287 1.927-4.814h.516l1.019-2.396v-.791h-.244V12.39h3.099l.335-.393v-1.55h.425v-.393h-.972l-.642-.334h-.393v1.245h-2.674V8.87h-.485v.866c-1.219 6.183-2.483 6.268-3.793.257l-.518-.305V8.414l-2.368-.303.366 1.699h-.546L1.513 4.833l.454-.261.261.274 1.245-.364h1.471v-.518L5.2 3.6l.64-.257 1.547.592v.576h2.976l.421-.138.352-.605h12.173l1.29.984.196-.212v-.698zm5.271.879.909-1.107-.228 1.654 2.384.351-1.11.183 5.314.376-5.601.258 1.416.212-2.519.245.363 1.76-1.036-1.261-.208 2.382c-.434-1.061-.662-2.304-.688-3.732.046-1.441.269-2.625.669-3.552l.335 2.231zM9.659 10.002H6.487c1.083 5.499 2.141 5.499 3.172 0z" clip-rule="evenodd"/></svg>
