<svg xmlns="http://www.w3.org/2000/svg" fill="none" viewBox="0 0 19 28"><path fill="#fff" fill-opacity=".6" fill-rule="evenodd" d="m15.83 3.6.4.55c.18.22.31.28.4.18.1-.1 0-.38-.29-.85-.32-.49-.27-1.03.15-1.62.05.24.35.61.89 1.1a3.3 3.3 0 0 1 1 1.52c.05.25.06.5.04.74a2.1 2.1 0 0 1-.3.89c-.25.32-.38.53-.4.63-.08.17-.02.38.18.63.17.24.12.58-.15 1-.17.24-.57.71-1.18 1.4-.36.4-.88.62-1.58.67l.54-.89c.1 0 .16-.01.19-.04L16.82 8c.06-.1 0-.26-.18-.48a4.08 4.08 0 0 0-1.66-1.18c-.3-.13-.47-.14-.52-.04l-1.11 1.5h.04c-.03.05-.03.13 0 .22L12.26 9.4a.54.54 0 0 1-.1-.1c-.2-.27-.38-.64-.55-1.1a2.85 2.85 0 0 1-.1-1.63l.44-.82c.17-.34.17-.81 0-1.4l.4.15c.32.17.56.44.7.8.08.13.11.46.11 1 0 .42.02.56.04.41.3-.4.48-.8.56-1.22.02-.24-.14-.63-.48-1.14-.45-.55-.72-.9-.82-1.04-.15-.22-.2-.74-.18-1.55.02-.84.15-1.37.37-1.6.05.53.27.98.66 1.38.2.2.73.41 1.6.66.34.1.55.31.62.63.12.44.22.7.3.78Z" clip-rule="evenodd"/><path fill="#fff" fill-rule="evenodd" d="M14.97 6.33a4.17 4.17 0 0 1 1.67 1.18c.17.23.23.39.18.49l-1.1 1.51c-.03.03-.1.04-.2.04a103.68 103.68 0 0 1-2.4 3.92 8 8 0 0 0-.33 2.03 6.13 6.13 0 0 1-.77 2.63l-6.44 9.03c-.2.17-.64.18-1.33.03a6.59 6.59 0 0 1-2.15-1.03 6.4 6.4 0 0 1-1.66-1.7c-.37-.6-.5-1.01-.4-1.26l6.43-9.06a5.45 5.45 0 0 1 2.22-1.6l1.1-.51c.35-.18.57-.32.67-.45.15-.22 1.13-1.4 2.93-3.55-.03-.1-.03-.17 0-.22h-.04l1.1-1.52c.06-.1.23-.08.53.04Z" clip-rule="evenodd"/></svg>
