<svg xmlns="http://www.w3.org/2000/svg" xml:space="preserve" viewBox="0 0 31.97 37.588"><path fill="#FFF" d="M26.966 35.596H11.815c-.029-.469.089-.932.055-1.4-.024-.352.038-.7.069-1.047.029-.336.014-.692.187-1.014a.643.643 0 0 0 .061-.389c-.096-.548-.187-1.1-.327-1.637-.158-.603-.332-1.209-.65-1.752-.24-.407-.605-.723-.936-1.051-1.668-1.666-3.286-3.381-5.043-4.955-.483-.433-.938-.896-1.406-1.346a2.696 2.696 0 0 0-.245-.206c-.215-.164-.393-.346-.352-.671.052-.404.112-.809.198-1.206.161-.749.307-1.492.308-2.268.001-1.607-.075-3.215.043-4.821a8.58 8.58 0 0 1 .175-1.184c.112-.517.389-.869.903-1.108 1.103-.513 2.239-.955 3.345-1.467a3.126 3.126 0 0 1 1.556-.29c.421.028.846.005 1.331.005-.449-.168-.878-.179-1.307-.362.846-.367 1.653-.679 2.425-1.063.479-.239.903-.332 1.35.017l.045.034c.007.2.095.397.06.606-.089.537-.051 1.087-.164 1.621-.066.318-.125.638-.24.946-.194.518-.684.737-1.054 1.073-.434.394-.905.747-1.36 1.117-.373.303-.756.593-1.113.912-.395.351-.833.646-1.2 1.021.014.193.096.361.137.54l.443 1.906c-.084.079-.058.182-.064.278-.008.076.007.148-.045.228-.31.479-.62.957-.9 1.452-.092.162-.276.302-.222.604l2.946-2.41c.295.148.555.297.829.414a8.31 8.31 0 0 1 2.764 1.921.973.973 0 0 0 .757.323c.658-.008 1.313.071 1.97.066.393-.002.789-.035 1.176.074.014.136.085.25.152.36.354.595.715 1.185 1.037 1.798a.704.704 0 0 1 .062.495c-.081.355-.1.718-.147 1.076-.054.412-.109.825-.155 1.237-.025.23-.079.47-.065.695.161.06.183-.061.208-.131.275-.755.547-1.511.812-2.27.14-.404.333-.807.375-1.223.078-.793.064-1.595.12-2.391.029-.41-.034-.825.082-1.236.379-.157.775-.143 1.176-.089.339.046.667.074.95-.193a9.3 9.3 0 0 0 1.411-1.73l1.523.384c.042-.129-.006-.183-.063-.231-.317-.271-.632-.547-.957-.81-.091-.073-.16-.208-.315-.169.08-.205.111-.422.165-.634.067-.272.061-.559.161-.825a.93.93 0 0 0 .362-.058c.723-.278 1.446-.551 2.168-.832.069-.027.187-.057.101-.199-.107 0-.226-.013-.339.002-.705.091-1.416.094-2.124.154-.037-.182.034-.354.046-.531.033-.525.128-1.042.177-1.566.056-.599.188-1.19.002-1.779.047-.04.073-.011.104.004.03.015.068.017.104.021.684.068 1.23.378 1.648.921a682.66 682.66 0 0 0 1.659 2.148c.19.245.398.494.427.808.064.737.145 1.469.079 2.219-.063.721-.078 1.45-.118 2.175-.03.545-.088 1.087-.124 1.632-.046.702-.146 1.399-.208 2.1-.047.525-.056 1.056-.121 1.578-.027.215-.015.431-.051.641-.086.492-.091.992-.153 1.486-.054.426-.065.854-.117 1.279a67.01 67.01 0 0 1-.269 1.896c-.05.33-.109.666-.345.926-.161.18-.285.385-.411.587-.231.372-.393.761-.389 1.222.014 1.851.006 3.696.006 5.542z"/><path fill="#D8D9D8" d="M26.966 35.596c0-1.846.009-3.69-.006-5.537-.003-.459.157-.85.389-1.222.126-.202.25-.407.411-.587.235-.261.295-.595.345-.926.096-.631.189-1.262.268-1.896.053-.425.064-.854.118-1.279.063-.494.066-.993.153-1.486.037-.21.023-.426.051-.641.064-.522.073-1.053.121-1.578.063-.7.162-1.397.208-2.1.036-.544.093-1.087.124-1.632.041-.725.055-1.454.118-2.175.065-.75-.015-1.482-.079-2.219-.028-.314-.236-.563-.427-.808a874.885 874.885 0 0 1-1.658-2.148 2.283 2.283 0 0 0-1.648-.921c-.035-.003-.073-.006-.104-.021-.032-.016-.058-.044-.105-.004.187.589.054 1.181-.001 1.78-.049.523-.144 1.041-.177 1.565-.011.177-.084.349-.046.531-.148.294-.144.616-.168.932-.102.266-.094.552-.161.825-.053.211-.085.429-.165.633-.034.209-.154.352-.329.467-.197.13-.405.234-.626.309-.483.163-.955.365-1.48.373-.254.004-.474-.1-.702-.17-.535-.162-1.048-.376-1.453-.782-.049-.049-.086-.115-.188-.086.022.196-.024.364-.192.496-.416.325-.883.555-1.371.742a.32.32 0 0 1-.135.012 4.187 4.187 0 0 1-2.12-.7.538.538 0 0 1-.26-.532c.014-.118.002-.239.002-.404-.373.318-.773.269-1.133.207a43.465 43.465 0 0 1-3.12-.679c-.186-.046-.246-.129-.26-.311-.022-.297-.033-.601-.144-.897-.052.015-.092.015-.116.035-.405.327-.812.652-1.209.987-.086.072-.189.141-.208.273-.033.23-.064.46-.11.688-.097.48-.135.97-.262 1.445l-.443-1.906c-.042-.178-.123-.347-.137-.54.367-.374.806-.67 1.2-1.021.357-.319.742-.609 1.114-.912.455-.371.927-.723 1.36-1.117.37-.336.859-.555 1.053-1.073.116-.309.175-.628.241-.946.113-.534.075-1.084.164-1.621.035-.209-.053-.406-.06-.606a.452.452 0 0 1-.049-.033c-.446-.348-.87-.255-1.35-.017-.771.384-1.578.697-2.424 1.063.429.184.858.194 1.307.362-.485 0-.91.023-1.331-.005a3.135 3.135 0 0 0-1.556.291c-1.106.512-2.242.954-3.347 1.469-.515.24-.791.592-.903 1.108-.084.39-.146.784-.175 1.184-.118 1.606-.042 3.214-.043 4.821-.001.776-.146 1.52-.308 2.268-.085.398-.146.801-.198 1.206-.042.325.136.507.352.671.086.065.168.133.245.206.469.449.923.914 1.406 1.347 1.758 1.572 3.375 3.289 5.043 4.953.33.33.695.645.936 1.053.319.541.492 1.148.65 1.752.141.537.231 1.088.327 1.636a.645.645 0 0 1-.061.389c-.173.321-.157.677-.187 1.015-.031.346-.094.694-.069 1.045.034.47-.084.933-.055 1.402h-1.685c.002-.693-.007-1.387.051-2.08.041-.496.084-.992.232-1.468a.834.834 0 0 0 .033-.422c-.146-.688-.288-1.38-.538-2.042-.074-.195-.092-.416-.254-.575-.458-.446-.882-.928-1.334-1.378-1.29-1.287-2.541-2.611-3.91-3.818-.594-.524-1.144-1.1-1.714-1.651-.039-.038-.074-.079-.116-.114-.459-.386-.939-.755-1.086-1.386v-.543c.041-.013.053-.043.053-.082-.002-.448.12-.876.207-1.311.092-.46.21-.925.22-1.389.027-1.492.011-2.986.01-4.479 0-.072.012-.155-.02-.213-.188-.363-.089-.689.111-1.005.028-.044.07-.077.072-.139.018-.49.141-.962.271-1.43.18-.637.493-1.187 1.13-1.456.255-.107.259-.271.211-.47-.111-.482-.241-.958-.358-1.438-.079-.331-.177-.667-.097-1.005.188-.788.491-1.531.98-2.182.256-.34.498-.701.86-.949.427-.292.93-.362 1.415-.487.498-.129 1.008-.195 1.516-.261.344-.045.721-.054 1.007.163.197.151.388.33.568.511.19.193.22.188.376-.051.235-.361.527-.654.97-.736.375-.069.757-.096 1.129-.175.224-.047.458.005.668-.102h.869c.009.014.02.041.028.041.479-.001.82.28 1.118.599a8.412 8.412 0 0 1 1.307 1.835c.055.105.1.217.255.184.38-.081.759-.163 1.14-.238.366-.071.735-.17 1.1.001.267.126.494.308.724.492.456.365.89.749 1.253 1.208.203.257.402.469.815.344a5.251 5.251 0 0 1 1.848-.235c.22.013.396.083.549.231.053.05.101.106.159.146.538.368 1.025.79 1.416 1.316.071.096.183.127.297.163.284.088.579.137.851.276.457.235.739.65 1.055 1.021.545.642 1.042 1.325 1.567 1.985.348.437.604.9.666 1.475.019.181-.038.392.091.56v2.987c-.071.024-.052.085-.055.136-.013.35-.02.698-.043 1.048-.044.66-.114 1.316-.169 1.975-.064.782-.138 1.563-.216 2.343-.057.576-.106 1.153-.164 1.729-.063.664-.146 1.326-.218 1.99a41.034 41.034 0 0 1-.331 2.399c-.127.756-.3 1.487-.878 2.056-.159.156-.216.366-.214.609.011 1.828.006 3.654.006 5.482-.216.002-.433.002-.651.002zM16.04 5.588c.053.188-.047.334-.046.498.011 2.917-.029 5.836.056 8.753v.027c-.007.099.03.154.122.211.318.198.659.335 1.014.449.438.142.877.239 1.313-.003.285-.159.567-.323.853-.486.041-.594.098-1.191.115-1.79.014-.422.057-.842.076-1.263.014-.294.005-.593.043-.884.095-.71.103-1.426.147-2.138.03-.456.102-.912.064-1.372-.004-.056.037-.106.038-.154.001-.278.074-.548-.136-.817-.396-.51-.917-.878-1.384-1.305-.131-.12-.29-.159-.492-.103-.33.093-.679.118-1.015.194-.247.055-.505.07-.768.183zm5.345 1.871c-.309.834-.389 1.698-.498 2.554-.047.361-.081.726-.127 1.087-.054.432-.104.865-.14 1.297-.04.498-.084.998-.133 1.494-.031.312.071.477.294.636.36.258.78.367 1.195.481.118.033.229.128.371.062.384-.18.789-.3 1.197-.408.109-.029.189-.078.215-.198.033-.146.089-.288.107-.436.08-.633.2-1.26.288-1.891.095-.677.172-1.355.27-2.03.035-.246.029-.494.082-.741.055-.253.04-.517-.14-.764-.386-.529-.886-.923-1.409-1.297-.098-.07-.209-.067-.332-.039-.395.094-.783.235-1.24.193zm-9.818 6.13c1.118.235 2.223.572 3.379.675.01-.072.016-.099.017-.125.021-1.571-.031-3.142.05-4.713.046-.891-.077-1.783-.052-2.676.019-.624 0-1.249.005-1.874a.66.66 0 0 0-.09-.356 9.365 9.365 0 0 0-1.077-1.45.653.653 0 0 0-.543-.228c-.563.015-1.111.151-1.674.181a.59.59 0 0 0-.445.257c-.243.338-.487.675-.738 1.007-.043.058-.061.114-.047.174.121.556.146 1.125.236 1.684a.163.163 0 0 0 .13-.005c.477-.211.948-.433 1.431-.629.209-.085.398-.22.646-.226.517-.012.913.251 1.306.528.192.136.3.311.333.567.055.432.021.853-.001 1.282a10.124 10.124 0 0 1-.286 1.893c-.09.362-.224.733-.503.977-.705.611-1.444 1.183-2.171 1.768-.063.05-.106.097-.084.179.096.359.063.739.178 1.11zM9.765 6.536c-.006-.343-.073-.637-.127-.932-.08-.441-.13-.893-.326-1.305-.175-.367-.512-.596-.764-.898-.153-.183-.337-.204-.532-.167-.641.124-1.279.259-1.912.417a.534.534 0 0 0-.306.193c-.399.51-.771 1.04-.982 1.659-.092.266-.158.535-.068.831.142.463.24.939.364 1.408.062.234.08.483.205.709C6.789 7.746 8.3 7.177 9.765 6.536z"/><path fill="#8C8C8C" d="M9.107 16.155c.126-.475.165-.965.262-1.445.046-.228.078-.458.11-.688.019-.132.123-.201.208-.273.398-.334.805-.66 1.209-.987.024-.02.064-.02.116-.035.11.296.12.6.144.897.014.182.074.264.26.311 1.033.258 2.071.497 3.12.679.359.063.761.111 1.133-.207 0 .165.012.286-.002.404a.54.54 0 0 0 .259.532 4.2 4.2 0 0 0 2.121.7.36.36 0 0 0 .135-.012c.488-.188.955-.417 1.37-.742.169-.132.216-.299.193-.496.102-.029.137.037.188.086.405.406.917.62 1.452.782.23.07.449.174.703.17.525-.007.997-.209 1.48-.373.222-.075.43-.179.626-.309.174-.116.294-.258.329-.467.155-.039.226.096.315.169.325.263.64.538.957.81.057.048.105.102.063.231l-1.523-.385a9.3 9.3 0 0 1-1.411 1.73c-.283.268-.611.239-.95.193-.4-.054-.798-.068-1.176.089-.116.411-.053.827-.082 1.236-.056.796-.042 1.599-.12 2.39-.042.416-.235.819-.375 1.225-.264.759-.535 1.515-.812 2.27-.025.07-.048.189-.208.131-.013-.226.04-.463.065-.695.046-.413.102-.825.155-1.237.048-.358.066-.721.146-1.077a.696.696 0 0 0-.062-.494c-.321-.613-.683-1.205-1.037-1.799-.066-.111-.139-.225-.152-.361-.387-.107-.783-.075-1.176-.072-.657.004-1.312-.074-1.97-.066a.98.98 0 0 1-.757-.323 8.306 8.306 0 0 0-2.763-1.921c-.274-.117-.534-.266-.829-.414l-2.946 2.411c-.056-.302.129-.442.222-.604.282-.499.593-.977.903-1.455.052-.081.038-.153.043-.23.008-.097-.02-.2.064-.279zM24.849 13.225c.025-.316.02-.638.168-.932.707-.06 1.418-.063 2.124-.154.113-.015.231-.002.339-.002.087.142-.03.172-.101.199-.721.28-1.444.554-2.167.831a.957.957 0 0 1-.363.058z"/><path fill="#FFF" d="M16.04 5.588c.264-.114.521-.128.77-.184.336-.076.685-.101 1.015-.194.202-.056.361-.017.492.103.467.427.987.795 1.384 1.305.21.27.137.54.135.817 0 .047-.042.098-.037.154.037.46-.034.917-.064 1.372-.046.712-.054 1.428-.148 2.138-.039.292-.029.59-.043.884-.019.421-.062.841-.075 1.263-.019.599-.075 1.196-.115 1.79-.285.163-.567.328-.854.486-.436.242-.874.145-1.313.003a4.516 4.516 0 0 1-1.013-.449c-.092-.058-.129-.112-.122-.211v-.027c-.086-2.917-.045-5.835-.056-8.753-.003-.162.097-.309.044-.497zM21.385 7.459c.457.042.846-.099 1.241-.192.122-.029.233-.032.332.039.522.374 1.023.768 1.409 1.297.18.247.194.51.14.764-.052.247-.046.495-.082.741-.097.675-.174 1.354-.269 2.03-.088.631-.208 1.258-.288 1.891-.019.147-.074.29-.106.436-.026.12-.106.169-.217.198a7.038 7.038 0 0 0-1.197.408c-.144.067-.253-.029-.371-.062-.416-.114-.835-.223-1.195-.481-.223-.16-.325-.325-.294-.636.049-.496.093-.996.133-1.494.035-.432.086-.865.14-1.297.046-.361.08-.726.127-1.087.108-.857.188-1.721.497-2.555zM11.567 13.589c-.115-.371-.082-.751-.181-1.11-.022-.082.021-.129.084-.179.728-.585 1.466-1.157 2.171-1.768.279-.243.413-.615.503-.977.154-.621.251-1.25.287-1.893.022-.429.055-.85 0-1.282a.765.765 0 0 0-.333-.567c-.394-.276-.79-.54-1.307-.528-.247.006-.436.141-.646.226-.482.196-.954.417-1.431.629a.163.163 0 0 1-.13.005c-.091-.559-.115-1.128-.236-1.684-.014-.061.003-.116.047-.174.251-.332.495-.669.737-1.007a.587.587 0 0 1 .446-.257c.563-.03 1.11-.166 1.674-.181a.653.653 0 0 1 .543.228c.399.453.771.927 1.077 1.45a.66.66 0 0 1 .09.356c-.004.625.014 1.25-.005 1.874-.025.894.098 1.785.051 2.676-.08 1.571-.027 3.142-.049 4.713 0 .026-.007.052-.017.125-1.152-.103-2.257-.44-3.375-.675zM9.765 6.536c-1.465.641-2.976 1.21-4.448 1.916-.125-.227-.144-.476-.205-.71-.124-.469-.223-.945-.364-1.408-.09-.296-.023-.565.067-.831.212-.619.583-1.149.982-1.659a.54.54 0 0 1 .307-.193 36.595 36.595 0 0 1 1.913-.417c.194-.038.378-.017.531.167.252.302.589.531.764.898.196.413.246.864.326 1.305.054.295.121.589.127.932z"/></svg>
