<svg xmlns="http://www.w3.org/2000/svg" fill="none" viewBox="0 0 12 26"><path fill="#fff" fill-rule="evenodd" d="M10.28 7.18 8.74 6.3v1.8l-.93.86v1.8h-.38v1.85h.38v1.93h-.38v1.84h.38v1.93h-.38v1.85h.38v1.77l.93 1.57v1.31c0 .36-.18.54-.54.54H1.35c-.36 0-.54-.18-.54-.54v-1.3l.88-1.58v-1.77h.43V18.3h-.43v-1.93h.43v-1.84h-.43V12.6h.43v-1.85h-.43v-1.8L.81 8.1V5.64c0-.36.18-.53.54-.53h.54l1.15-1V2.55c-.61-.07-.92-.37-.92-.88 0-.33.11-.55.34-.65.13-.08.39-.12.77-.12h4.24l3.58 5.74v12.12l-1.81.88c-.26.13-.45.1-.58-.11-.13-.23-.08-.45.15-.65.2-.19.52-.4.93-.62l.54-.27V7.18Z" clip-rule="evenodd"/></svg>
