<svg xmlns="http://www.w3.org/2000/svg" fill="none" viewBox="0 0 19 25"><path fill="#fff" fill-rule="evenodd" d="M15.52 6.83c1.06 2.44 2.06 4.45 3.05 6.6-.08 3.59.1 7.22 0 10.6-.1.43-.96.64-1.09.14-.06-.41.6-.31.4-.8-.23-4.54.36-8.2-1.36-11.93-1.15-1.75-.82-1.16-1.15-1.75-.77-1.3-1.35-1.93-2.87-1.86-.45.1-1.46-.26-1.28.5v1.72c3.94.42 4.93 1.93 6.13 5.09.16.54.14.84.16 1.09.02.82.03.9-.1 1.48-.84 5.11-5.29 7.25-10.2 7.2-4.31-.97-6.67-3.49-7.2-7.6.03-.66-.07-1.36.07-2-.04-.26.12-.46.07-.72.54-3.24 3.15-4.34 6.08-4.72.3.01.49-.1.4-.47.03-.52-.03-1.02-.03-1.54-.34.04-.43-.21-.43-.49V2.96c-.58-.04-1.52.32-1.75-.43-.14-.42.45-.42.39-.75.05-.38.48-.63.86-.54.43.07.46-.46.94-.29h4.82V.1c.25-.09.9-.16 1.04.03l.04.8c.06.25.45.01.57.81.74 1.7 1.6 3.69 2.44 5.1Z" clip-rule="evenodd"/></svg>
