<svg xmlns="http://www.w3.org/2000/svg" xml:space="preserve" viewBox="0 0 32.042 32.125"><path fill="#FFF" d="M19.388 19.039v-.261s-2.659-5.824-2.754-5.852c-.097-.028-.192-.041-.192-.041l-2.083-4.55s.069-.083-.096-.439c-.165-.355-.342-.301-.342-.301l-.151-.027.028-.109s.123-.151.123-.261-.151-.343-.151-.343v-.206h-.836l-.11.069v.795H7.999l-.302.274s-.328-.055-.603 0c-.274.055-.411.329-.384.631 0 0-.356-.166-.356.438 0 .603.274.521.274.521h1.316v4.276l.165.274h.274v1.882c-2.449 0-6.122 1.005-6.122 6.286 0 5.866 4.897 7.511 8.022 7.511s8.132-1.846 8.132-7.529c0-5.375-4.016-6.176-5.777-6.176v-1.932l.11-.096 2.501.007c1.364 1.309 3.345 5.435 3.365 5.537.02.103.178 9.08.178 9.128 0 .048-.109.069-.186.062-.075-.006-.191.082-.206.157-.014.076.007.192.014.281s.15.165.356.165.411-.027.521-.192c.109-.165.192-.233.178-.452l-.151-9.196a1.09 1.09 0 0 0 .07-.331z"/><g fill="#FFF" fill-rule="evenodd" clip-rule="evenodd"><path fill-opacity=".6" d="M24.022 4.553c.083.032.3.105.652.218.269.083.416.055.439-.083.024-.138-.221-.312-.732-.524-.547-.217-.818-.689-.818-1.415.182.174.638.305 1.366.395.742.109 1.305.331 1.69.663.182.173.334.368.457.583.174.331.263.63.271.896-.017.405-.007.654.03.75.039.185.21.319.514.407.282.101.434.401.455.901 0 .301-.051.911-.156 1.83-.062.529-.362 1.012-.901 1.451a79.227 79.227 0 0 0-.073-1.034c.081-.057.123-.104.129-.138l.032-1.879c-.017-.109-.161-.204-.429-.285a5.812 5.812 0 0 0-1.04-.127 4.112 4.112 0 0 0-1.003.12c-.312.071-.461.159-.443.269l-.032 1.876.031-.021c.009.055.051.114.127.18-.054.66-.103 1.244-.142 1.754a.527.527 0 0 1-.128-.021c-.318-.107-.682-.303-1.094-.586-.545-.431-.888-.852-1.029-1.265a36.354 36.354 0 0 1-.107-.922c-.058-.382-.327-.764-.811-1.148l.418-.114a1.54 1.54 0 0 1 1.043.259c.132.058.354.309.667.752.241.341.329.447.265.311a2.838 2.838 0 0 0-.251-1.316c-.121-.216-.473-.436-1.054-.66-.674-.188-1.096-.313-1.262-.376-.25-.096-.598-.483-1.047-1.162-.463-.7-.669-1.204-.615-1.513.34.394.784.639 1.333.733.275.046.836-.077 1.683-.373.339-.119.631-.068.877.15.354.292.584.445.688.464z"/><path d="M24.905 7.279a4.112 4.112 0 0 1 1.003-.12c.405.018.751.06 1.04.127.269.082.413.176.429.285l-.032 1.879c-.006.034-.049.082-.129.138.201 2.636.299 4.165.297 4.589-.01.157.292.777.901 1.854.576 1.072.87 1.937.88 2.593l-.05 11.086c-.062.254-.417.521-1.067.799a6.596 6.596 0 0 1-2.35.39 6.367 6.367 0 0 1-2.341-.428c-.644-.271-.995-.534-1.059-.793l.031-11.115c-.012-.658.288-1.516.896-2.58.15-.257.353-.612.607-1.063.183-.341.279-.589.289-.747-.008-.268.105-1.796.338-4.588-.076-.066-.118-.125-.127-.18l-.031.022.032-1.879c-.018-.11.131-.198.443-.269z"/></g></svg>
