<svg xmlns="http://www.w3.org/2000/svg" xml:space="preserve" viewBox="0 0 37.625 32.125"><g fill="#FFF" fill-rule="evenodd" clip-rule="evenodd"><path fill-opacity=".302" d="m23.537 7.145 4.911.743-5 3.378 4.728 3.723-4.415.578 1.027 5.599-2.27-1.292.009-8.686-2.856-4.706h-3.514c-.32 0-.532.031-.64.096-.191.082-.287.262-.287.536 0 .42.255.662.767.725v1.262l-.959.82h-.447c-.298 0-.448.146-.448.441l.316 1.905.532.774-.113 1.517h.352v1.514h-.352v.6l.038.437.056.368-4.977 2.139 2.04-5.563-4.431-2.183 4.782-1.918-3.415-5.098 6.029.82 1.121-4.611 3.063 4.242 5.006-2.434-.653 4.274zm-1.534 4.48v7.98l-2.492-1.52.111-.812.223-.607-.055-.499-.252-.138v-1.521l.392-.277-.224-1.245.964-.618-.068-1.65 1.401.907z"/><path d="m21.947 11.551-1.279-.726v1.483l-.767.694v1.482h-.319v1.515h.319v1.577h-.319v1.514h.319v1.577h-.319v1.515h.319v1.452l.767 1.293v1.072c0 .295-.149.442-.448.442h-5.687c-.297 0-.448-.147-.448-.442v-1.072l.735-1.293v-1.452h.352v-1.515h-.352V19.09h.352v-1.514h-.352v-1.577h.352v-1.515h-.352v-1.482l-.735-.694v-2.02c0-.295.15-.441.448-.441h.447l.959-.82V7.765c-.511-.063-.767-.304-.767-.725 0-.273.096-.453.288-.537.106-.063.32-.095.639-.095h3.514l2.972 4.701v9.937l-1.502.726c-.213.105-.373.074-.479-.096-.107-.188-.064-.367.127-.535.171-.147.427-.316.766-.505l.449-.221v-8.864z"/></g><path fill="#FFF" d="M12.82 16.908v-.277l-.438-.605v-.449l-.193-.208-1.732-4.356-.193-.017v-.363h-.403v.104l-.438.605c-.017-.138-.123-.155-.263-.155 0 0-2.888-.018-3.431 0-.543.017-.438.345-.455.795H5.17v.501h.788v1.296s-.175.121-.192.346a3.324 3.324 0 0 0-.008.259c-1.595.169-2.181.588-2.181.588v15.037s.899 1.072 3.871 1.072c2.477 0 3.761-1.002 3.761-1.002v-14.69l1.121 1.674.035 11.044c-.157.294-.28.587-.175.587h.438l.298-.225V16.943l-.106-.035zm-1.961 10.008s-1.471.44-3.466.466c-1.996.026-3.493-.466-3.493-.466v-1.089s1.462.44 3.493.432c1.971-.008 3.466-.432 3.466-.432v1.089z"/><g fill="#FFF" fill-rule="evenodd" clip-rule="evenodd"><path d="m32.772 16.456-1.269-.72v1.472l-.762.689v1.471h-.317v1.504h.317v1.565h-.317v1.503h.317v1.565h-.317v1.503h.317v1.441l.762 1.284v1.065c0 .292-.148.439-.445.439h-5.646c-.295 0-.443-.147-.443-.439v-1.065l.729-1.284v-1.441h.349v-1.503h-.349V23.94h.349v-1.503h-.349v-1.565h.349v-1.504h-.349v-1.471l-.729-.689v-2.004c0-.292.148-.438.443-.438h.444l.952-.814v-1.253c-.508-.062-.761-.302-.761-.72 0-.271.095-.449.286-.532.106-.063.317-.095.634-.095h3.489l2.95 4.667v9.865l-1.49.72c-.212.104-.371.073-.476-.095-.106-.187-.064-.365.126-.532.169-.146.423-.313.761-.501l.445-.218v-8.802z"/><path fill-opacity=".851" d="m37.593 12.415-1.268.752 1.3.72-.539.91-1.269-.721v1.44H34.77v-1.473l-1.332.753-.507-.91 1.27-.72-1.27-.752.539-.907 1.3.751v-1.502h1.047v1.471l1.269-.72.507.908z"/></g></svg>
