<svg xmlns="http://www.w3.org/2000/svg" xml:space="preserve" viewBox="0 0 41.271 31.067"><path fill="#FFF" d="m2.522 29.437-.696-.865-.551-.968-.18-1.147 4.263-2.969 2.557 3.662-4.498 2.775-.895-.488zm6.311-2.912-2.486-3.708.773-.525.103-.811 8.82-5.995c.255.862.634 1.66 1.138 2.401.646.951 1.412 1.712 2.294 2.287l-8.954 6.085-.858-.227-.83.493zm12.598-9.339-1.804-2.654 2.485-1.69-1.836-2.703 2.606-1.772 1.836 2.704 2.583-1.755 1.804 2.655-2.583 1.754 1.591 2.342-2.606 1.773-1.591-2.342-2.485 1.688zm11.141-5.772a7.905 7.905 0 0 0-1.274-3.122c-.558-.82-1.176-1.469-1.855-1.949l2.703-1.838 3.314 4.98-2.888 1.929zm7.581-5.718-.339.229-.361-.53-3.039 2.065.623.918-.773.524-3.281-4.931.724-.493.5.789L37.2 2.234l-.32-.523.289-.196 1.657.673 1.148 1.688.179 1.82z"/><path fill="none" stroke="#FFF" stroke-linecap="round" stroke-linejoin="round" stroke-miterlimit="3" stroke-width="2.95" d="M23.069 19.495c-1.81-.346-3.217-1.259-4.224-2.739-.995-1.463-1.319-3.102-.976-4.912.314-1.788 1.218-3.191 2.715-4.208 1.48-1.007 3.125-1.336 4.936-.991 1.756.335 3.143 1.25 4.161 2.747 1.026 1.511 1.375 3.146 1.038 4.902-.338 1.783-1.258 3.185-2.754 4.201-1.511 1.029-3.143 1.362-4.896 1z"/></svg>
