<svg xmlns="http://www.w3.org/2000/svg" xml:space="preserve" baseProfile="tiny" viewBox="0 0 48.75 32"><path fill="#FFF" d="M39.845 19.241c-.206-.051-.824-1.133-.618-1.442.206-.309.309-.154.566-.669.257-.515 1.597-8.959.979-10.556-.618-1.596-.669-.875-1.081-1.03-.413-.154-.67-.669-.67-.669l-.772-.103S38.662.227 34.747.035c-1.571-.078-2.575 0-2.575 0s-4.222.72-5.613 3.141a32.574 32.574 0 0 0-.725 1.303l-1.489 1.117-.979 1.287s-1.236 7.313-1.339 8.445.051 2.421.051 2.575-.772 1.029-.772 1.029l.257 1.391.567.566.412 2.369-.361.206v1.854l.566.772s1.957 4.48 2.317 4.583c.361.103 2.112 1.545 4.377 1.596 2.266.052 5.716-.154 7.055-1.699s1.545-3.708 1.648-4.12c.103-.412 1.184-1.39 1.287-1.956.103-.567-.464-.722-.412-1.133.052-.412 1.236-2.472 1.236-2.833.002-.36-.204-1.235-.41-1.287zM35.751 4.257c-1.184 1.802-3.77 1.55-3.99 1.854-.206.283-.361.592-.747.747-.302.121-.463-.901-.618-.901-.154 0-.927.103-1.957-.979-1.029-1.082-.309-1.854.824-2.987C30.396.859 32.507.884 33.949.884c0 0 1.808.275 2.575.747.669.411.102 1.699-.773 2.626zm2.858 12.924c-.669.207-.772-.412-1.082-3.347s2.266-7.183 2.266-7.183.309.231.464.437c.154.206-.052 4.943-.155 6.025-.102 1.081-.823 3.862-1.493 4.068z"/><path fill="#FFF" d="M45.767 5.75s-4.84.67-6.127 3.656c-1.287 2.987-1.185 5.304-.309 6.282.875.979 1.905 3.914 2.008 4.428.103.516.103.979.103.979l-1.39 1.442.052.566.515.31-.309 2.008-.978.567.103 1.184.515.669s-.721 1.957-.618 2.214c.103.257 3.45.412 4.171 1.082.721.669.566.103.566.103l1.596-2.987.309-.103 1.647-5.355.052-1.236s.206-.927-.052-1.493-1.184-.721-1.184-.721l-.103-.927s-.154-3.759-.36-4.274c-.207-.515 1.185-1.494 1.185-1.494s-.104-4.376-.31-4.531c-.206-.155-.154-1.494-.154-1.494h-.515l-.413-.875zM21.874 11.569l.669-2.214s-1.185-3.605-2.729-3.708-1.442.876-1.442.876l-.669.206s-1.288 5.149-.824 6.025c.463.875 1.287 1.957 1.287 1.957s.103 2.935.103 3.398c0 .464-.515.824-.515.824l-.309 3.089 1.163 4.999 2.417.375.917-1.042s-1-1.208-.5-3.167c.15-.588.304-1.5-.392-2.311-.625-.729-.403-1.09-.348-1.815.077-1.004.734-1.159.425-2.124-.142-.444.747-5.368.747-5.368zM15.859 21.267a3.618 3.618 0 0 1-.077-.389c-.268-1.874-.229-7.479-1.166-8.613-.853-1.032-1.975-1.928-5.563-3.14-.095-.033-.179-.539-.179-.539l-.269-.628H6.991l-.449 1.256s-5.203 3.14-5.203 4.845c0 1.705-.072 7.323.269 8.612.808 3.051 2.243 3.902 2.243 3.902s4.037 2.289 6.011 2.109c1.302-.118 3.925-2.082 5.196-3.091.953-1.771.869-3.659.801-4.324zM3.313 16.661c-.36-1.167 2.871-2.602 4.037-1.255-.001 0-.45 1.973-4.037 1.255zm6.818-.987c-.898-1.974 2.959-1.346 3.408-.089-2.69 1.614-3.408.089-3.408.089z"/></svg>
