<svg xmlns="http://www.w3.org/2000/svg" xml:space="preserve" viewBox="0 0 32.167 32"><path fill="#FFF" fill-rule="evenodd" d="M31.837 11.611a.605.605 0 0 1-.501.347c-.386.025-3.011.063-7.874.116-.153 0-.32.039-.501.116-.309.103-.515.283-.617.541-.078.205-.09.617-.039 1.234.025.308.077.771.155 1.389.025.31.077.63.153.966 0 .179-.141.282-.424.307-.591.129-1.131.219-1.621.271a23.54 23.54 0 0 1-2.816.231 63.51 63.51 0 0 1-5.249-.154c-1.672 4.451-2.508 6.817-2.508 7.101 0 .309.064 1.299.193 2.972.386.282.694.476.926.578.18.078.257.18.232.31 0 .076-.026.128-.078.154l-.27.154c-.283.078-.592.09-.926.039-.489-.077-3.77-.733-9.841-1.969-.309-.051-.309-.9 0-2.547.129-.695.424-1.698.888-3.009.489-1.339.939-2.393 1.351-3.165.437-.798.785-1.66 1.041-2.586.309-.927.438-1.583.385-1.968-.051-.283-.411-.618-1.08-1.003a8.228 8.228 0 0 0-1.466-.579.814.814 0 0 1-.618-.385 3.544 3.544 0 0 1-.347-.425c-.078-.103-.115-.373-.115-.81v-.964c0-.669.05-1.082.154-1.236.489-.849.861-1.479 1.118-1.89.231-.335.451-.593.657-.773.231-.231.437-.334.617-.309.18.026.386.026.617 0l.387-.039c.129-.232.244-.399.348-.502.103-.103.488-.064 1.157.116l.154.424h10.613v.347h4.592v-.347l10.574-.038.348.193c.206.127.309.283.309.462.051 1.004.103 1.943.155 2.818.051 1.724.038 2.675-.039 2.855-.13.412-.194.631-.194.657zm-11.076.964a.9.9 0 0 0-.308-.078v.078l-3.436-.038c-.129.488-.077.899.154 1.234.309.488.567.835.772 1.042a1.5 1.5 0 0 0 .734.346c.256.026.372.091.346.193-.025.129-.128.193-.309.193h-.5c-.284-.051-.593-.231-.927-.54-.54-.463-.887-.85-1.043-1.157-.102-.335-.153-.773-.153-1.312l-.695-.04c-.412 0-.771.167-1.08.502a1.638 1.638 0 0 0-.386 1.08v1.042c.051.31.309.554.772.734.668.258 1.313.36 1.929.309a22.577 22.577 0 0 1 1.698-.194c.206-.025.579-.012 1.12.039.54.052.913.077 1.119.077.335 0 .553-.025.655-.077l.31-.308c.102-.155.127-.567.077-1.235-.026-.644-.128-1.12-.309-1.428a.819.819 0 0 0-.54-.462z" clip-rule="evenodd"/></svg>
