<svg xmlns="http://www.w3.org/2000/svg" fill="none" viewBox="0 0 12 26"><path fill="#fff" fill-rule="evenodd" d="m8.28 1.22.03.04v.07c0 .02.02.03.04.03v.08h.04v.04c.02 0 .03 0 .03.03v.11h.04v.07h.03v.08c.03 0 .04 0 .04.03v.11l.04.04v.07l.03.04v.03h.04v.08l.03.03v.04c.03 0 .04.01.04.03v.04l.04.04v.1c0 .03 0 .04.03.04v.04h.04v.1h.04v.04l.03.04v.03l.04.04v.07l.03.04V3l.04.04v.03l.04.04v.04l.07.07v.03c.02 0 .03.02.03.04l.04.04v.18l.03.04v.07l.04.03v.04l.04.04v.03l.03.04v.07h.04v.07c0 .03 0 .04.03.04v.11c.02 0 .04.01.04.04v.07c.02 0 .03.01.03.04v.07h.04v.03l.04.04v.04l.03.03v.04l.04.04v.14l.03.04v.07h.04v.1h.04v.08l.03.04v.03l.04.04v.07c.02 0 .03.01.03.04v.07c0 .02.02.04.04.04v.07l.04.03v.04h.03v.04l.04.03v.04l.03.04v.07h.04v.1l.04.04v.04c0 .02 0 .04.03.04v.03l.04.04v.1l.07.08v.07l.04.04v.03h.03v.08h.04c0 .02 0 .03.03.03v.04l.15.14v.48l.03.03v.08c.03 0 .04 0 .04.03l.04.04v.03l.03.04v.04h.04v.07c.02 0 .03.01.03.04l.04.03v.04h.04v.03l.07.08c0 .02.01.03.03.03v.04h.04v.04l.1.14v.25c.03.03.06.04.08.04v14.08h-.1v.03c-.03 0-.04.02-.04.04l-.04.07h-.07v.04l-.04.03v.04h-.03v.07h-.5v-.58l.06-.07c.03 0 .04-.01.04-.04h.04v-.04h.03v-.04h.04V8.33h-.07l-.04-.04v-.02l-.04-.04V8.2h-.03v-.04l-.04-.04V8.1l-.03-.04v-.07l-.04-.04v-.03h-.04v-.08h-.03V7.8l-.04-.04h-.03c0-.02-.02-.03-.04-.03v-.08c0-.02-.01-.03-.04-.03v-.04h-.03v-.07c-.03 0-.04-.01-.04-.04 0-.02-.01-.03-.04-.03V7.4h-.03v-.04l-.04-.07c0-.03-.01-.04-.03-.04v-.04l-.11-.07v-.03h-.04v-.08c-.02 0-.03 0-.03-.03l-.04-.04v-.03h-.04v-.04c-.02-.02-.04-.04-.07-.04v-.03h-.03v-.04c-.03 0-.04-.01-.04-.04v-.07c-.02 0-.04-.01-.04-.03l-.03-.04v-.04h-.04l-.1-.14v-.04c-.03 0-.04-.01-.04-.04H9.1v17.73l-.14.04a.57.57 0 0 0-.14.1h-.04c-.57.32-1.11.54-1.62.66a7.8 7.8 0 0 1-1.72.37c-.49.1-.98.12-1.47.07-.41-.04-.82-.1-1.22-.18a6.7 6.7 0 0 1-2.34-.88c-.17-.07-.25-.12-.25-.14l-.1-.04V6.31c-.1-.2-.07-.4.1-.62a.1.1 0 0 1 .03-.07.68.68 0 0 1 .22-.04v-.04c.12-.04.28-.08.47-.1a16 16 0 0 1 .82-.08 4.6 4.6 0 0 1 .97-.14 1.85 1.85 0 0 1 0-.5 2 2 0 0 0 .11-.2l.1-.14v-1.6h-.03c-.12 0-.25 0-.4-.03h-.5v-.51H2V2.2h.07c-.05-.07-.05-.18 0-.33a.9.9 0 0 1 .15-.36.44.44 0 0 1 .35-.29H6.8l.18.07v.15c.15-.29.33-.55.54-.76V.57h.11c0-.03.01-.04.04-.04v.04h.36v.4l.03.03v.04h.18v.03l.04.04v.11Zm-4.7 7.34a5.48 5.48 0 0 0-1.37 1.89 7.52 7.52 0 0 0-.72 3.16c0 .8.1 1.54.29 2.22a2.8 2.8 0 0 0 2.51 2.14c-.7-.44-1.07-1.15-1.11-2.14-.05-.76.21-1.45.79-2.07.14-.13.24-.2.29-.22-.27.75.02 1.52.86 2.32.4.41.7.89.9 1.42.09.27.07.45-.08.54.31.13.64-.01.97-.4a.24.24 0 0 0 .04-.05c.49-.3.8-.86.93-1.65a4.47 4.47 0 0 0-.46-2.76 5.9 5.9 0 0 0-1.12-1.64 4.9 4.9 0 0 1-1.08-2.14c-.23-.9-.1-1.66.4-2.3-.7.54-1.38 1.1-2.05 1.68Zm5.16 10.68v-.22c-1.94.3-3.29.44-4.05.44-.8 0-2.2-.14-4.24-.44v1.35c2.06.36 3.5.54 4.3.54.87 0 2.2-.17 4-.5v-1.17Zm-2.4-1.27h-.18V18l.18-.04Zm-.9.07v-.03c-.02 0-.04 0-.04.03h.04Zm-1.58.11c-.07 0-.13-.02-.2-.04l-.02.04h.22Z" clip-rule="evenodd"/></svg>
