<svg xmlns="http://www.w3.org/2000/svg" xml:space="preserve" viewBox="0 0 30.093 28.944"><path fill="#FFF" fill-rule="evenodd" d="M11.443 8.821c.219 1.083.241 2.045.064 2.887-.177.843-.336 1.433-.479 1.771.133-.249.324-.531.572-.848.708-.906 1.706-1.641 2.993-2.201.661-.29 1.171-.501 1.527-.635 1.144-.434 1.763-.995 1.859-1.687a4.264 4.264 0 0 0-.118-1.74c-.155-.586-.193-1.108-.117-1.567.099-.591.483-1.083 1.153-1.478.258-.152.51-.269.757-.35-.037.022-.114.263-.229.722-.115.458-.038 1.018.234 1.676.271.658.472 1.133.604 1.42.132.29.241.853.324 1.689.084.838-.127 1.822-.629 2.952-.502 1.132-1.12 1.89-1.854 2.275-.732.386-1.145.786-1.237 1.203-.092.419.087.755.535 1.013s.927.282 1.436.074c.577-.238.921-.741 1.031-1.508a3.783 3.783 0 0 1 .945-2.009c.393-.438.943-.873 1.654-1.3.24-.143.532-.285.879-.43l.835-.338c.622-.276 1.075-.65 1.358-1.123.298-.491.465-1.19.505-2.096.011-.284.009-.571-.004-.862.446.265.796.788 1.048 1.568.251.782.32 1.457.206 2.025a3.79 3.79 0 0 1-.611 1.472c-.295.412-.695.901-1.201 1.469-.519.578-.864.985-1.04 1.222-.318.425-.503.795-.557 1.109-.044.269-.05.763-.016 1.481a51.64 51.64 0 0 1 .075 2.037c0 1.836-.334 3.184-1.004 4.045-.874 1.123-1.731 1.902-2.568 2.336-.955.49-2.228.736-3.813.736-1.717 0-3.154-.246-4.313-.736-1.237-.525-2.083-1.303-2.541-2.336-.394-.885-.668-1.938-.827-3.158-.05-.385-.083-.76-.103-1.127-.49-.092-.916.209-1.278.904-.36.693-.522 1.348-.484 1.957.039.611.246 1.471.625 2.578.131.449.185.801.161 1.051-.031.311-.184.521-.456.631a2.42 2.42 0 0 1-1.1.146 3.16 3.16 0 0 1-1.319-.41c-1.062-.604-1.706-1.781-1.937-3.531-.229-1.75-.301-3.033-.214-3.85a6.38 6.38 0 0 1 .77-2.398c.428-.783.832-1.344 1.213-1.681.382-.338.893-.712 1.532-1.122.64-.408 1.108-.745 1.405-1.008.438-.383.715-.807.83-1.271.3-1.178-.004-2.518-.911-4.014a11.426 11.426 0 0 0-.976-1.369c.837.111 1.791.49 2.865 1.138 1.074.647 1.721 1.512 1.941 2.596z" clip-rule="evenodd"/></svg>
