<svg xmlns="http://www.w3.org/2000/svg" xml:space="preserve" viewBox="0 0 100.5 32"><path fill="#FFF" fill-rule="evenodd" d="M99.288 15.852a58.707 58.707 0 0 1-2.205 1.628c-.081.06-.17.121-.272.181-2.734 1.792-5.181 2.958-7.334 3.501a35.864 35.864 0 0 1-7.969 1.148 33.297 33.297 0 0 1-8.058-.665 107.822 107.822 0 0 1-3.231-.755c-1.285-.322-2.063-.501-2.322-.543-1.49-.343-3.25-.563-5.284-.664-2.072-.119-5.061-.129-8.963-.029l-5.223.149-.33.728-3.141-.063a1.45 1.45 0 0 0-.239-.363 3.41 3.41 0 0 0-.937-.694 5.916 5.916 0 0 0-1.238-.423l-.543-.089-.18 2.595-.727.694c-.543.545-.937 1.038-1.175 1.478-.243.424-.483 1.049-.727 1.872-.141.402-.249.755-.331 1.058h-1.69c0-.245.022-.523.062-.846.079-.667.211-1.229.39-1.692.204-.461.424-.915.664-1.357l.335-.543a8.965 8.965 0 0 0-.546-.874c-.422-.625-.804-1.077-1.147-1.359a5.2 5.2 0 0 1-1.053-1.055l-.396-.575a7.293 7.293 0 0 0-1.266-.543c-1.007-.283-1.892-.272-2.657.031-.16.06-.975.44-2.443 1.145-.967.464-1.923.798-2.869.998-1.064.241-2.583.274-4.559.089a45.636 45.636 0 0 1-5.039-.784c-1.792-.441-3.047-.735-3.774-.876-1.185-.26-2.153-.41-2.895-.453-.725-.019-1.53.022-2.416.123a9.974 9.974 0 0 0-1.115.151l-1.121.907-.239 1.085c-.182.745-.361 1.166-.543 1.267-.26.181-.622.403-1.085.665l-.783-.062a3.193 3.193 0 0 1-.604-.455c-.421-.38-.727-.804-.905-1.266-.203-.464-.271-1.197-.213-2.203l.153-1.39-.878-.572v-1.388l.667-.332c0-.344.017-.725.058-1.148.081-.844.213-1.438.391-1.781.223-.403.465-.672.727-.815.201-.121.531-.22.996-.302.321-.06.575.011.754.213a.648.648 0 0 1 .149.302c1.893-.122 3.995-.245 6.311-.365 4.668-.26 8.119-.373 10.351-.331 1.993.02 4.929.169 8.813.451 3.562.285 5.554.413 5.975.396a7.751 7.751 0 0 0 1.783-.304c.302-.079.704-.222 1.208-.422.342-.101.594-.091.754.032a.354.354 0 0 1 .182.241c.201-.183.442-.403.723-.667.522-.503.905-.956 1.147-1.356a6.08 6.08 0 0 0 .634-1.449l.151-.726h1.449v.756a6.404 6.404 0 0 1-.334 1.537c-.162.445-.4.887-.723 1.331a3.881 3.881 0 0 1-.454.575l8.511.119-.542-.845 1.994.845 1.417.062-.666-.966 2.235.966h1.389l-.666-.966 2.235 1.025h1.299l-.665-.844 2.172.907 1.359.089-.574-.996 2.084.996 1.447.061-.605-.999 2.084.999 1.508.06-.723-.968 1.9.968 1.571-.121-.514-.785 2.083.906 1.115.03c1.008 0 2.113-.052 3.321-.151a168.23 168.23 0 0 0 5.583-.604l.604.453c.503.34 1.035.672 1.601.996 1.791 1.046 3.489 1.761 5.099 2.144 1.609.383 3.873.685 6.792.904l.693.061c1.167.08 2.223.132 3.169.153l-.961.753z" clip-rule="evenodd"/></svg>
