<svg xmlns="http://www.w3.org/2000/svg" xml:space="preserve" viewBox="0 0 79.167 32"><path fill="#FFF" fill-rule="evenodd" d="m32.168 14.728-.087-.291.029-.289h-2.433v.607l2.491-.027zm43.772-3.62c-2.26 1.756-3.803 2.886-4.634 3.388a51.502 51.502 0 0 1-3.964 2.172c-1.854.888-3.589 1.571-5.211 2.056-1.602.462-3.609.905-6.023 1.331-.771.114-1.523.231-2.256.349l-.899.144a1.089 1.089 0 0 0-.316-.261c-.253-.173-.493-.251-.726-.231-.231.037-.49.164-.78.376l-.405.317a1.472 1.472 0 0 0-.348-.201c-.29-.137-.541-.185-.754-.144-.229.038-.49.144-.778.315l-.379.261a9.318 9.318 0 0 1-.317-.201c-.271-.115-.503-.166-.694-.146-.193 0-.425.086-.695.259l-.349.263a2.09 2.09 0 0 0-.376-.232c-.308-.136-.57-.192-.781-.174-.134.018-.339.106-.607.262l-.291.231a9.118 9.118 0 0 0-.348-.202c-.271-.155-.511-.232-.724-.232-.229 0-.482.085-.752.262a1.511 1.511 0 0 0-.232.144l-.085.059a4.775 4.775 0 0 0-.464-.231c-.349-.174-.626-.261-.84-.261-.173 0-.397.097-.666.29l-.347.288h-2.896l-.289-1.158-1.592 1.593c-.021.02-.078.028-.175.028-.153.02-.337.02-.549 0a1.757 1.757 0 0 1-.522-.114l-.114-.06a6.896 6.896 0 0 0-.811-1.273c-.677-.849-1.381-1.342-2.115-1.478-.887-.114-1.775.029-2.663.436-.27.136-.512.28-.723.435l-.29.232-.404.029a4.915 4.915 0 0 0-1.1-.523c-.928-.327-1.805-.435-2.635-.317-.831.114-1.649.405-2.46.869-.405.231-.725.452-.955.664l-.407.06a15.742 15.742 0 0 0-2.085-.665c-1.698-.427-3.29-.59-4.774-.493-.696.057-1.197.115-1.506.174a7.202 7.202 0 0 0-1.737.55c-.617.269-1.391.763-2.315 1.476-.464.35-.87.667-1.216.958l-1.68.577c-.096 0-.212-.01-.349-.029a8.584 8.584 0 0 1-.724-.087 3.626 3.626 0 0 1-.666-.261l-.288-.144-.202-.9-.984-.491a2.06 2.06 0 0 1-.203-.177c-.154-.155-.232-.317-.232-.492 0-.136.011-.271.028-.406l.03-.146c.211-.346.491-.761.84-1.243.675-.966 1.359-1.766 2.053-2.404.773-.695 1.439-1.206 2-1.533.424-.29.936-.529 1.533-.723 1.893-.715 3.562-1.247 5.009-1.595a34.465 34.465 0 0 1 3.647-.579c1.2-.131 2.907-.239 5.123-.317h.088l4.255-.115h.752c1.587-.017 2.929-.025 4.024-.028 1.638-.011 2.728-.011 3.271 0h.145c.774.02 1.447.152 2.028.404.307.115.539.241.693.376l.232-.29.231.232.202-.232.29.203.144-.144.232.087.088-.232.26.146.144-.203.262.173.117-.259.346.115.057-.262.32.146v-.348l.347.115v-.26l.376.027.552-.406.52.147c.444.095.956.212 1.536.348a57.46 57.46 0 0 0 5.699.809 73.31 73.31 0 0 0 5.474.232c.578 0 1.253-.019 2.026-.057.426 0 1.101-.032 2.026-.089a101.57 101.57 0 0 0 5.238-.376c2.048-.212 3.86-.444 5.444-.696 1.68-.248 4.041-.79 7.091-1.619 1.525-.405 2.877-.781 4.053-1.13-.962.773-2.007 1.595-3.124 2.462z" clip-rule="evenodd"/></svg>
