<svg xmlns="http://www.w3.org/2000/svg" xml:space="preserve" viewBox="0 0 95.833 32"><path fill="#FFF" fill-rule="evenodd" d="M88.067 18.142a77.853 77.853 0 0 1-3.669 1.127c-2.823.799-5.164 1.352-7.022 1.656-1.833.284-4.18.494-7.05.634a98.58 98.58 0 0 1-2.714.108h-1.06a2.59 2.59 0 0 0-.176-.496c-.213-.398-.544-.763-.988-1.093-.399-.329-.905-.564-1.516-.704a1.921 1.921 0 0 0-.531-.068l-19.816-.11a1.357 1.357 0 0 0-.317.143c-.048.024-.095.083-.142.174l-.037.105-.458 2.19c-.332 1.549-.576 2.608-.742 3.173a4.698 4.698 0 0 1-.106.279 1.287 1.287 0 0 1-.176.249c-.117.095-.339.166-.671.209l-.493.074a12.681 12.681 0 0 0-.989-.035c-.705-.028-1.173-.06-1.409-.107a.539.539 0 0 1-.248-.141.428.428 0 0 1-.175-.249c0-.184.127-.454.388-.809.023-.023.199-.222.528-.598.238-.306.458-.602.667-.885.379-.542.589-.951.635-1.233.024-.187.024-.507 0-.955l-.033-.631c-.095.021-.165.021-.212 0-.143-.19-.305-.39-.491-.603-.328-.422-.624-.739-.882-.948a5.365 5.365 0 0 0-1.098-.708 4.602 4.602 0 0 0-2.077-.387 3.568 3.568 0 0 0-1.972.738c-.636.444-1.106 1.061-1.415 1.833a40.15 40.15 0 0 1-.6 1.52l-.177.313c-.023.049-.065.085-.139.107-.117.095-.226.13-.313.108-.119 0-.27-.099-.464-.283a4.967 4.967 0 0 1-.667-.987 11.138 11.138 0 0 1-.354-.638c-.143-.258-.27-.484-.387-.671a4.19 4.19 0 0 0-1.377-1.164c-.634-.327-1.222-.527-1.762-.596a2.62 2.62 0 0 0-1.833.456c-.378.235-.85.564-1.411.99-.4.304-.659.481-.775.526-.165.047-.34.057-.53.035-.115-.024-.316-.104-.599-.248a8.659 8.659 0 0 0-1.128-.353c-.608-.139-1.199-.185-1.765-.139a5.588 5.588 0 0 0-1.444.354 4.898 4.898 0 0 0-1.129.704c-.233.21-.504.448-.813.707-.21.165-.41.278-.599.35a5.339 5.339 0 0 1-1.057.318 3.732 3.732 0 0 0-.81.143 4.93 4.93 0 0 0-1.304.423c-.399.211-.821.552-1.271 1.02-.163.165-.479.565-.951 1.203a49.767 49.767 0 0 0-1.237 1.62l-1.091.428-.634-.139c-1.95-3.175-3.069-4.962-3.352-5.359-.047-.073-.361-.47-.951-1.203-.422-.539-.646-.878-.668-1.018-.023-.19.012-.426.104-.708.095-.235.213-.471.356-.708.095-.117.317-.374.671-.772.398-.401.689-.733.879-.989.117-.162.329-.495.634-.988.209-.401.4-.686.561-.847a2.3 2.3 0 0 1 .569-.388c.068-.022.21-.044.42-.071.095-.021.353-.046.777-.068a10.306 10.306 0 0 0 1.621-.286 22.817 22.817 0 0 0 1.621-.422c.38-.139 1.06-.423 2.045-.847a95.633 95.633 0 0 1 2.752-1.195c.916-.358 1.776-.66 2.579-.919 1.029-.331 1.738-.543 2.113-.634.612-.12 1.362-.215 2.256-.283a18.05 18.05 0 0 1 2.54-.035c.542.047 1.247.14 2.114.283.708.093 1.401.165 2.082.21.566.025 1.352.034 2.362.034.73 0 1.445-.034 2.153-.101.355-.027.638-.05.847-.075l.034-.211.213-.037.105.215.354-.036v-.214l.283-.067.071.249.35-.039v-.246l.279-.032.038.244.353-.035v-.282h.247l.035.177.317-.035v-.285l.283-.036.034.251.283-.039v-.351l.248-.037.069.285.282-.073v-.349h.248l.067.244h.217l.033-.316.281-.037.038.283.21-.069v-.245l.249-.036.07.176.353-.108c.26-.092.438-.174.529-.247.094-.042.2-.118.321-.211.091-.116.174-.189.244-.211a.78.78 0 0 1 .349-.069c.143.023.227.033.248.033.095-.046.26-.142.494-.284.189-.139.355-.22.495-.24.165-.051.34-.063.529-.039l.422.107c.026.02.19.104.494.246.257.138.492.225.708.247.233.047.41.047.528 0 .164-.046.271-.069.316-.069.143 0 .399.129.778.386.209.142.4.284.561.425l2.79.527c2.042.399 3.463.668 4.262.811 1.015.14 2.259.261 3.742.353 1.29.048 2.351.06 3.174.038 1.714-.05 3.137-.318 4.263-.812.284-.118.803-.38 1.552-.777.732-.378 1.154-.587 1.271-.633.163-.072.375-.106.634-.106.262 0 .438.034.53.106.05.046.107.141.177.28.05.091.13.26.248.492.209.448.411.708.596.777.214.069.413.06.603-.037.165-.094.269-.248.317-.458a2.392 2.392 0 0 0 0-.561l-.069-.212h.351l.14.281c.139.236.25.423.318.563.094.212.2.399.318.563.162.166.317.262.458.283.282.026.492.012.634-.032.26-.073.387-.238.387-.495 0-.26-.026-.503-.069-.742l-.109-.246.426.072.177.281.353.528c.117.282.212.46.281.53a.778.778 0 0 0 .461.317.797.797 0 0 0 .528-.033c.163-.048.268-.167.316-.354.047-.165.022-.378-.068-.635l-.18-.354.351.033.175.251c.117.164.2.301.249.419.094.215.164.366.211.458a.962.962 0 0 0 .425.352c.467.189.831.168 1.091-.067.095-.072.155-.187.175-.352 0-.142-.011-.285-.033-.423a1.06 1.06 0 0 0-.176-.387l-.143-.143.493.034.178.317c.117.235.212.434.28.602.071.166.161.305.281.419.047.051.166.121.351.216a.783.783 0 0 0 .425.137.467.467 0 0 0 .389-.102c.19-.143.272-.352.248-.634a2.202 2.202 0 0 0-.176-.427l-.14-.248.384.037.179.286c.142.209.223.352.245.418.047.119.118.25.213.391.12.165.222.279.313.353.168.096.342.153.532.177.235.045.423.024.566-.071.234-.162.317-.458.247-.883 0-.092-.038-.209-.108-.353l-.105-.174.493.105.106.139c.097.166.19.356.284.567a2.7 2.7 0 0 0 .212.318c.094.139.247.292.458.46a.746.746 0 0 0 .493.173.581.581 0 0 0 .423-.173.725.725 0 0 0 .178-.39.805.805 0 0 0-.036-.388 4.03 4.03 0 0 0-.213-.352l-.142-.176.425.104.174.213c.117.164.189.292.216.387.021.119.089.244.21.387a.863.863 0 0 0 .351.355c.188.117.331.188.426.212a.57.57 0 0 0 .494-.178.534.534 0 0 0 .172-.389c0-.091-.023-.234-.072-.422a1.46 1.46 0 0 0-.173-.282l-.14-.109 10.296 1.308-7.224 7.547zm-47.965 5.359c-.256 0-.471.079-.634.247a.936.936 0 0 0-.246.634c0 .235.082.438.246.6a.857.857 0 0 0 .634.244.927.927 0 0 0 .634-.244.809.809 0 0 0 .248-.6.932.932 0 0 0-.248-.634.924.924 0 0 0-.634-.247z" clip-rule="evenodd"/></svg>
