<svg xmlns="http://www.w3.org/2000/svg" xml:space="preserve" viewBox="0 0 82.5 32"><g fill="#FFF" fill-rule="evenodd" clip-rule="evenodd"><path d="M35.559 17.937c-2.777 1.284-5.455 2.143-8.031 2.573-2.224.379-4.532.67-6.933.871-1.995.153-3.095.253-3.3.303a8.32 8.32 0 0 1-.793.114l-.3.038c-.457.103-.723.203-.797.303 0 .153-.078.379-.229.682-.151.355-.279.569-.38.645l-.304.19c-.049 0-.124-.09-.225-.266-.053-.152-.127-.518-.229-1.098-.077-.708-.125-1.164-.152-1.365-.127-.43-.505-.974-1.135-1.627-.708-.783-1.402-1.229-2.085-1.327-.783-.103-1.503.023-2.159.377-.655.329-1.036.784-1.136 1.364-.152.706-.203 1.313-.152 1.82.103.808.442 1.741 1.024 2.803.125.302.011.783-.341 1.441-.254.403-.633.855-1.139 1.359-.757.709-1.352.961-1.78.759-.429-.227-1.085-1.198-1.969-2.914-.455-.888-.949-1.857-1.479-2.918-.279-.556-.491-1.68-.645-3.373a93.427 93.427 0 0 1-.113-2.385v-1.744c.052-1.338.178-2.426.38-3.259.201-.961.781-2.347 1.741-4.169.886-1.716 1.491-2.713 1.819-2.991.258-.225.749-.063 1.482.493a6.474 6.474 0 0 1 1.779 1.933c.203.305.304.492.304.566.05.154 0 .419-.152.798a20.468 20.468 0 0 0-.681 1.478c-.304.681-.456 1.246-.456 1.702.026.685.054 1.161.078 1.44.1.43.253.77.455 1.024.452.454.972.781 1.551.984.455.15.847.203 1.174.15.456-.052.974-.251 1.555-.604.835-.508 1.441-1.163 1.818-1.972.152-.302.292-.858.417-1.669l.303-1.511c.052-.203.102-.317.15-.343a.435.435 0 0 1 .19-.037c.025.024.178.252.457.682.277.479.44.77.491.87.076.076.238.139.49.189h.345c.199 0 .301.052.301.149l4.281.269c3.082.151 5.076.354 5.987.605.275.076.945.216 2.006.418.962.202 1.769.377 2.425.531 1.517.402 2.881.944 4.092 1.628.48.251.936.52 1.362.794.557.354.999.621 1.327.797.53.378.796.594.796.644a46.337 46.337 0 0 1-3.485 1.786zM6.275 22.366a.838.838 0 0 1-.115-.264c-.05-.078-.15-.114-.303-.114-.201-.05-.605.114-1.211.493-.379.251-.733.491-1.062.719-.101.075-.14.202-.115.379l.076.227c.229.381.444.758.645 1.135.507.759.834 1.165.986 1.214.175.052.492-.113.946-.492.403-.303.632-.518.681-.646.053-.076-.013-.491-.189-1.249-.151-.783-.265-1.25-.339-1.402zM2.978 11.685c-.202.024-.403.126-.604.302-.306.275-.493 1.073-.57 2.386l-.037 1.857c0 .505.037 1.035.114 1.591.102 1.087.263 1.819.493 2.197.177.279.402.454.682.529.252.053.504.043.755-.037.253-.074 1.049-.771 2.388-2.084 1.337-1.314 1.995-2.057 1.97-2.234 0-.177-.72-.921-2.159-2.234-1.363-1.264-2.185-1.971-2.464-2.122a1.106 1.106 0 0 0-.568-.151zm3.485-4.89c-.177-.227-.429-.44-.757-.643-.328-.177-.608-.266-.833-.266-.176 0-.519.481-1.022 1.439-.506.962-.747 1.504-.722 1.632 0 .074.05.162.15.262.102.13.204.203.305.229l1.779.909c.078.077.165.11.267.11.251.079.404-.022.454-.3.051-.227.178-.819.379-1.78.127-.859.127-1.389 0-1.592z"/><path d="M35.559 17.937c-2.777 1.284-5.455 2.143-8.031 2.573-2.224.379-4.532.67-6.933.871-1.995.153-3.095.253-3.3.303a8.32 8.32 0 0 1-.793.114l-.3.038c-.457.103-.723.203-.797.303 0 .153-.078.379-.229.682-.151.355-.279.569-.38.645l-.304.19c-.049 0-.124-.09-.225-.266-.053-.152-.127-.518-.229-1.098-.077-.708-.125-1.164-.152-1.365-.127-.43-.505-.974-1.135-1.627-.708-.783-1.402-1.229-2.085-1.327-.783-.103-1.503.023-2.159.377-.655.329-1.036.784-1.136 1.364-.152.706-.203 1.313-.152 1.82.103.808.442 1.741 1.024 2.803.125.302.011.783-.341 1.441-.254.403-.633.855-1.139 1.359-.757.709-1.352.961-1.78.759-.429-.227-1.085-1.198-1.969-2.914-.455-.888-.949-1.857-1.479-2.918-.279-.556-.491-1.68-.645-3.373a93.427 93.427 0 0 1-.113-2.385v-1.744c.052-1.338.178-2.426.38-3.259.201-.961.781-2.347 1.741-4.169.886-1.716 1.491-2.713 1.819-2.991.258-.225.749-.063 1.482.493a6.474 6.474 0 0 1 1.779 1.933c.203.305.304.492.304.566.05.154 0 .419-.152.798a20.468 20.468 0 0 0-.681 1.478c-.304.681-.456 1.246-.456 1.702.026.685.054 1.161.078 1.44.1.43.253.77.455 1.024.452.454.972.781 1.551.984.455.15.847.203 1.174.15.456-.052.974-.251 1.555-.604.835-.508 1.441-1.163 1.818-1.972.152-.302.292-.858.417-1.669l.303-1.511c.052-.203.102-.317.15-.343a.435.435 0 0 1 .19-.037c.025.024.178.252.457.682.277.479.44.77.491.87.076.076.238.139.49.189h.345c.199 0 .301.052.301.149l4.281.269c3.082.151 5.076.354 5.987.605.275.076.945.216 2.006.418.962.202 1.769.377 2.425.531 1.517.402 2.881.944 4.092 1.628.48.251.936.52 1.362.794.557.354.999.621 1.327.797.53.378.796.594.796.644a46.337 46.337 0 0 1-3.485 1.786zM6.463 6.795c.127.203.127.733 0 1.593a157.13 157.13 0 0 1-.379 1.78c-.05.277-.203.379-.454.3a.362.362 0 0 1-.267-.11l-1.779-.91c-.101-.026-.203-.1-.305-.229-.101-.1-.15-.188-.15-.262-.025-.128.216-.67.721-1.632.504-.958.847-1.439 1.022-1.439.226 0 .506.089.834.267.329.201.581.415.757.642zm-3.485 4.89c.201 0 .392.049.567.15.279.151 1.101.858 2.464 2.122 1.439 1.313 2.159 2.058 2.159 2.234.025.178-.633.92-1.97 2.234-1.339 1.313-2.135 2.01-2.388 2.084-.251.08-.503.09-.756.037-.279-.075-.505-.25-.682-.529-.23-.378-.392-1.11-.493-2.197a11.598 11.598 0 0 1-.114-1.591l.037-1.857c.077-1.313.265-2.11.57-2.386.203-.175.404-.277.606-.301zm3.297 10.681c.074.151.188.619.339 1.401.177.758.242 1.173.189 1.249-.049.128-.277.343-.681.646-.454.379-.771.544-.946.492-.152-.049-.479-.455-.986-1.214a24.45 24.45 0 0 0-.645-1.135l-.076-.227c-.024-.177.015-.304.115-.379.328-.228.683-.468 1.062-.719.605-.379 1.01-.543 1.211-.493.152 0 .253.036.303.114a.834.834 0 0 0 .115.265zM63.669 21.381c-1.995.153-3.094.253-3.296.303-.302.053-.568.09-.796.114l-.302.038c-.48.103-.746.203-.796.303-.025.153-.103.379-.229.682-.173.355-.313.569-.416.645l-.266.19c-.049 0-.126-.09-.225-.266-.077-.152-.153-.518-.229-1.098-.075-.708-.14-1.164-.189-1.365-.125-.43-.493-.974-1.1-1.627-.704-.783-1.412-1.229-2.121-1.327a3.394 3.394 0 0 0-2.12.377c-.683.329-1.074.784-1.176 1.364-.124.706-.163 1.313-.114 1.82.102.808.431 1.741.986 2.803.152.302.051.783-.301 1.441-.281.403-.671.855-1.175 1.359-.734.709-1.315.961-1.746.759-.427-.227-1.083-1.198-1.968-2.914a63.72 63.72 0 0 1-1.479-2.918c-.303-.556-.516-1.68-.645-3.373a27.024 27.024 0 0 1-.112-2.385v-1.744c.051-1.338.162-2.426.34-3.259.229-.961.819-2.347 1.78-4.169.886-1.716 1.491-2.713 1.82-2.991.251-.226.743-.063 1.477.492a6.494 6.494 0 0 1 1.781 1.933c.201.305.302.492.302.566.053.154 0 .419-.151.798a20.11 20.11 0 0 0-.682 1.479c-.305.681-.454 1.246-.454 1.702 0 .685.025 1.161.075 1.44.074.43.229.77.455 1.024.455.454.971.781 1.553.984.43.15.809.203 1.135.15.482-.052 1.013-.251 1.593-.604.835-.508 1.44-1.163 1.817-1.972.128-.302.269-.858.418-1.669l.305-1.511c.049-.203.101-.317.149-.343a.432.432 0 0 1 .19-.037c.025.024.178.252.455.682.276.479.442.77.493.87.075.076.228.139.454.189h.379c.176 0 .277.052.303.149l4.28.269c3.056.151 5.041.354 5.949.605.304.076.972.216 2.009.418.983.202 1.791.377 2.423.531 2.097.58 3.929 1.386 5.495 2.422.555.354.983.621 1.285.797.558.378.837.594.837.644-4.069 2.299-7.92 3.752-11.555 4.356a78.47 78.47 0 0 1-6.895.874zm-16.783-.871c.253-.074 1.049-.771 2.387-2.084 1.339-1.314 1.997-2.057 1.97-2.234 0-.177-.72-.921-2.16-2.234-1.362-1.264-2.196-1.971-2.499-2.122a1.053 1.053 0 0 0-.53-.15c-.202.024-.416.126-.643.302-.305.275-.48 1.073-.531 2.386l-.036 1.857c0 .505.024 1.035.074 1.591.098 1.087.265 1.819.493 2.197.175.279.415.454.718.529.226.052.479.042.757-.038zm2.313 1.593c-.025-.078-.128-.114-.306-.114-.176-.05-.579.114-1.212.493-.352.251-.705.491-1.062.719-.099.075-.123.202-.073.379l.037.227c.228.381.457.758.682 1.135.479.759.809 1.165.984 1.214.178.052.48-.113.91-.492.403-.303.646-.518.719-.646.028-.076-.036-.491-.188-1.249-.152-.782-.277-1.25-.379-1.401a1.929 1.929 0 0 0-.112-.265zm.3-15.308c-.149-.227-.403-.44-.755-.643-.328-.178-.594-.267-.796-.267-.203 0-.556.481-1.062 1.439-.506.962-.746 1.504-.717 1.632a.86.86 0 0 0 .149.262c.1.13.202.203.301.229l1.783.909a.49.49 0 0 0 .302.11c.253.079.404-.022.455-.3.025-.227.138-.819.339-1.78.155-.858.155-1.388.001-1.591z"/><path d="M63.669 21.381c-1.995.153-3.094.253-3.296.303-.302.053-.568.09-.796.114l-.302.038c-.48.103-.746.203-.796.303-.025.153-.103.379-.229.682-.173.355-.313.569-.416.645l-.266.19c-.049 0-.126-.09-.225-.266-.077-.152-.153-.518-.229-1.098-.075-.708-.14-1.164-.189-1.365-.125-.43-.493-.974-1.1-1.627-.704-.783-1.412-1.229-2.121-1.327a3.394 3.394 0 0 0-2.12.377c-.683.329-1.074.784-1.176 1.364-.124.706-.163 1.313-.114 1.82.102.808.431 1.741.986 2.803.152.302.051.783-.301 1.441-.281.403-.671.855-1.175 1.359-.734.709-1.315.961-1.746.759-.427-.227-1.083-1.198-1.968-2.914a63.72 63.72 0 0 1-1.479-2.918c-.303-.556-.516-1.68-.645-3.373a27.024 27.024 0 0 1-.112-2.385v-1.744c.051-1.338.162-2.426.34-3.259.229-.961.819-2.347 1.78-4.169.886-1.716 1.491-2.713 1.82-2.991.251-.226.743-.063 1.477.492a6.494 6.494 0 0 1 1.781 1.933c.201.305.302.492.302.566.053.154 0 .419-.151.798a20.11 20.11 0 0 0-.682 1.479c-.305.681-.454 1.246-.454 1.702 0 .685.025 1.161.075 1.44.074.43.229.77.455 1.024.455.454.971.781 1.553.984.43.15.809.203 1.135.15.482-.052 1.013-.251 1.593-.604.835-.508 1.44-1.163 1.817-1.972.128-.302.269-.858.418-1.669l.305-1.511c.049-.203.101-.317.149-.343a.432.432 0 0 1 .19-.037c.025.024.178.252.455.682.276.479.442.77.493.87.075.076.228.139.454.189h.379c.176 0 .277.052.303.149l4.28.269c3.056.151 5.041.354 5.949.605.304.076.972.216 2.009.418.983.202 1.791.377 2.423.531 2.097.58 3.929 1.386 5.495 2.422.555.354.983.621 1.285.797.558.378.837.594.837.644-4.069 2.299-7.92 3.752-11.555 4.356a78.47 78.47 0 0 1-6.895.874zM49.499 6.795c.154.203.154.733 0 1.593-.201.961-.313 1.554-.339 1.78-.051.277-.202.379-.455.3a.49.49 0 0 1-.302-.11l-1.783-.91c-.099-.026-.201-.1-.301-.229a.86.86 0 0 1-.149-.262c-.029-.128.211-.67.717-1.632.506-.958.858-1.439 1.062-1.439.202 0 .468.089.796.267.35.201.604.415.754.642zm-.3 15.308c.051.102.087.189.113.264.102.151.227.619.379 1.401.151.758.216 1.173.188 1.249-.073.128-.315.343-.719.646-.43.379-.732.544-.91.492-.176-.049-.505-.455-.984-1.214-.225-.377-.454-.754-.682-1.135l-.037-.227c-.05-.177-.025-.304.073-.379.356-.228.71-.468 1.062-.719.633-.379 1.036-.543 1.212-.493.177 0 .279.036.305.115zm-2.313-1.593c-.278.08-.531.09-.758.037a1.149 1.149 0 0 1-.718-.529c-.229-.378-.396-1.11-.493-2.197a17.77 17.77 0 0 1-.074-1.591l.036-1.857c.051-1.313.227-2.11.531-2.386.227-.176.44-.277.643-.302.176 0 .353.049.53.15.303.151 1.137.858 2.499 2.122 1.44 1.313 2.16 2.058 2.16 2.234.027.178-.631.92-1.97 2.234-1.337 1.314-2.133 2.011-2.386 2.085z"/></g></svg>
