<svg xmlns="http://www.w3.org/2000/svg" xml:space="preserve" viewBox="0 0 92.059 32"><path fill="#FFF" fill-rule="evenodd" d="M1.984 14.83a.736.736 0 0 0-.226.538c0 .189.075.36.226.51a.686.686 0 0 0 .511.199.688.688 0 0 0 .51-.199.7.7 0 0 0 .227-.51.737.737 0 0 0-.227-.538.69.69 0 0 0-.51-.198.69.69 0 0 0-.511.198zm70.428-1.53c1.719.284 3.118.548 4.194.793l-8.333 6.378-13.49-.114c-.169-.416-.463-.529-.878-.341a1.668 1.668 0 0 1-.227-.17.424.424 0 0 0-.51 0 .444.444 0 0 0-.085.114.606.606 0 0 0-.226-.114 2.052 2.052 0 0 0-.624-.084c-.227 0-.426.029-.595.084a.612.612 0 0 0-.227.114.444.444 0 0 0-.085-.114.424.424 0 0 0-.51 0 .422.422 0 0 0-.085.114.444.444 0 0 0-.085-.114.426.426 0 0 0-.51 0c-.057.038-.085.076-.085.114a1.22 1.22 0 0 0-.227-.114 2.036 2.036 0 0 0-.623-.084c-.246 0-.454.029-.623.084a.587.587 0 0 0-.199.114.331.331 0 0 0-.114-.114.309.309 0 0 0-.226-.084c-.113 0-.198.029-.255.084a.323.323 0 0 0-.114.114.444.444 0 0 0-.085-.114.424.424 0 0 0-.51 0 .417.417 0 0 0-.084.114.62.62 0 0 0-.227-.114 1.94 1.94 0 0 0-.596-.084c-.245 0-.454.029-.623.084a.61.61 0 0 0-.228.114.444.444 0 0 0-.085-.114.427.427 0 0 0-.511 0 .438.438 0 0 0-.084.114.496.496 0 0 0-.085-.114.426.426 0 0 0-.51 0 .438.438 0 0 0-.084.114.619.619 0 0 0-.228-.114 2.032 2.032 0 0 0-.623-.084c-.226 0-.435.029-.624.084a.601.601 0 0 0-.198.114.331.331 0 0 0-.114-.114.313.313 0 0 0-.227-.084c-.113 0-.198.029-.255.084-.056.038-.085.076-.085.114-.378-.228-.69-.057-.935.511H37.41l-.057.34a8.347 8.347 0 0 1-.198.793c-.264.736-.633 1.124-1.105 1.162-.265.019-.481-.029-.652-.143a2.018 2.018 0 0 1-.425-.451 4.659 4.659 0 0 0-.453-.653 3.763 3.763 0 0 0-.709-.737c-.661-.51-1.492-.812-2.494-.907-.832-.094-2.381-.056-4.647.114-1.588.113-3.798.17-6.632.17a396.406 396.406 0 0 0-6.179-.084.277.277 0 0 0-.084-.2.307.307 0 0 0-.227-.083.274.274 0 0 0-.199.083.279.279 0 0 0-.084.2h-.34a2.06 2.06 0 0 1-.34.027.268.268 0 0 0-.085-.198.268.268 0 0 0-.199-.085.266.266 0 0 0-.198.085c-.076.057-.113.122-.113.198v.028c-.189 0-.378.009-.567.028 0-.075-.028-.133-.085-.17a.275.275 0 0 0-.198-.085.382.382 0 0 0-.227.085.271.271 0 0 0-.085.198c0 .019.01.037.028.056l-.539.058c0-.037-.028-.085-.084-.142-.058-.057-.124-.084-.199-.084s-.151.027-.227.084a.307.307 0 0 0-.085.227c0 .02.01.038.029.057-.17.039-.331.084-.482.143a.345.345 0 0 0-.056-.086.305.305 0 0 0-.227-.084.269.269 0 0 0-.198.084.272.272 0 0 0-.085.199c0 .037.01.074.028.113a3.475 3.475 0 0 0-.255.142.69.69 0 0 0-.197.142.313.313 0 0 0-.398.027.31.31 0 0 0-.085.228.27.27 0 0 0 .085.198c.02.019.048.038.085.057-.019 0-.028.01-.028.028-.19.34-.435.548-.738.624a1.587 1.587 0 0 1-1.105-.058c-.282-.132-.595-.368-.935-.708-.264-.283-.765-.878-1.502-1.784-.718-.89-1.171-1.485-1.36-1.787a.75.75 0 0 1-.142-.51l.085-.17-.538.027-1.474-1.699 1.474-1.928.34-.028c0-.094.018-.198.056-.312.095-.227.236-.397.425-.511.152-.075.643-.17 1.475-.283.018.094.056.17.112.228a.434.434 0 0 0 .312.142.345.345 0 0 0 .283-.142.386.386 0 0 0 .114-.284v-.057c.17-.02.35-.038.539-.057 0 .113.038.198.114.255.075.095.169.143.283.143s.217-.048.312-.143a.38.38 0 0 0 .113-.282v-.03c.151-.019.321-.037.51-.056 0 .095.038.18.113.255.076.076.17.113.284.113a.487.487 0 0 0 .312-.113.38.38 0 0 0 .114-.283v-.057l.624-.057c0 .113.038.197.113.255.076.095.17.142.283.142a.349.349 0 0 0 .284-.142.347.347 0 0 0 .142-.283v-.027c.169-.021.34-.029.51-.029 0 .094.038.179.113.254a.476.476 0 0 0 .313.114.371.371 0 0 0 .282-.114.377.377 0 0 0 .114-.283v-.028c.188-.021.368-.029.538-.029 0 .094.038.179.114.256a.425.425 0 0 0 .312.111.388.388 0 0 0 .397-.395v-.029c1.738-.095 3.485-.16 5.242-.197 2.74-.038 5.753.047 9.042.255.737.037 1.644.094 2.72.17v.027c0 .114.038.22.114.313a.384.384 0 0 0 .283.113.49.49 0 0 0 .312-.113.384.384 0 0 0 .114-.283c.246.019.462.029.651.029 0 .093.038.188.114.282a.486.486 0 0 0 .313.113.381.381 0 0 0 .283-.113.489.489 0 0 0 .114-.312v-.029a8.98 8.98 0 0 0 .708-.083c0 .094.037.178.112.253a.386.386 0 0 0 .284.114.38.38 0 0 0 .283-.114.43.43 0 0 0 .142-.312v-.056c.227-.058.426-.104.596-.142a.325.325 0 0 0 .113.113c.075.095.17.143.283.143s.208-.048.283-.143a.352.352 0 0 0 .143-.284.336.336 0 0 0-.058-.197c.227-.151.426-.322.596-.511a.398.398 0 0 0 .226.057.388.388 0 0 0 .398-.397.49.49 0 0 0-.114-.311.327.327 0 0 0-.085-.058c.265-.435.539-.717.822-.85a.93.93 0 0 1 .596-.086c.396.076.708.511.935 1.304.113.379.189.756.226 1.135l9.778.085c7.124.095 12.244.227 15.361.397 3.112.188 6.39.567 9.829 1.134z" clip-rule="evenodd"/></svg>
