<svg xmlns="http://www.w3.org/2000/svg" xml:space="preserve" viewBox="0 0 66 32"><path fill="#FFF" fill-rule="evenodd" d="M6.958 18.46c-.298.022-.644.161-1.032.413a6.306 6.306 0 0 0-1.1.894c-.321.32-.549.652-.689.997-.089.252-.192.699-.307 1.341-.093.526-.093.984 0 1.374.045.23.183.619.414 1.168.181.481.558.928 1.132 1.342.598.434 1.216.72 1.857.86a3.595 3.595 0 0 0 1.889-.174 4.26 4.26 0 0 0 1.513-.964c.46-.456.78-.916.962-1.372.16-.482.239-1.079.239-1.789 0-.709-.192-1.374-.583-1.994-.344-.595-.835-1.121-1.479-1.58a3.13 3.13 0 0 0-1.58-.55c-.229-.023-.64-.011-1.236.034zm57.847 2.75c.503 1.259.8 2.29.891 3.095-.594-.941-1.453-1.982-2.578-3.129-2.29-2.269-4.789-3.93-7.491-4.984-2.476-.94-4.491-1.535-6.05-1.788a17.82 17.82 0 0 0-1.925-.171H45.9a26.617 26.617 0 0 0-6.326.929c-.686.183-1.328.377-1.922.584l-.69.275.07.241c.022.161-.01.285-.104.378-.138.09-.47.251-.998.479-.527.207-.856.31-.995.31-.138-.023-.253-.137-.343-.344a11.59 11.59 0 0 1-.242-.585c-.184-.549-.527-1.12-1.032-1.717-.802-.962-1.696-1.5-2.68-1.614-1.375-.184-2.578.264-3.609 1.339a5.84 5.84 0 0 0-.858 1.099l-.276.552c-.297-.183-.697-.31-1.203-.378-1.009-.162-1.994-.024-2.958.412-.8.366-1.5.951-2.093 1.752a4.753 4.753 0 0 0-.516.757l-.174.308a17.955 17.955 0 0 0-1.236-.103c-.917-.021-1.604.103-2.063.378-.459.276-.882.721-1.271 1.341-.116.183-.242.4-.38.653-.09.206-.148.342-.171.412-.09.138-.171.195-.239.172l-.103-.068v.55c0 .435-.037.825-.104 1.168-.091.414-.356.976-.79 1.686-.414.685-.747 1.145-.999 1.374-.365.366-.859.688-1.478.962-.848.414-1.684.608-2.509.584-.758-.021-1.787-.376-3.094-1.065-.389-.23-.792-.469-1.203-.72l-.482-.344L.7 25.508l-.139-.345c.209-.297.439-.663.691-1.1.503-.869.823-1.604.961-2.2.16-.572.38-1.33.655-2.268l.345-1.203.72-.38-.378-.409a9.97 9.97 0 0 1 .242-.827c.228-.528.411-.814.549-.86.113-.021.262-.021.445 0a.63.63 0 0 0 .38-.102c.228-.116.342-.242.342-.38-.047-.137-.058-.228-.034-.273.069-.161.195-.243.379-.243.022 0 .149.034.377.107.183.067.296.055.342-.037.048-.045.103-.218.173-.516.07-.253.161-.414.275-.482.183-.138.401-.138.652 0 .114.092.208.138.276.138a.32.32 0 0 0 .276-.07c.138-.113.206-.285.206-.513-.025-.185.068-.344.274-.482.208-.115.402-.137.585-.069a.98.98 0 0 1 .207.069c.045.045.081.057.103.034.091-.045.136-.149.136-.31-.021-.185 0-.321.071-.412.228-.23.448-.332.653-.31h.239a.451.451 0 0 0 .276-.104c.069-.091.15-.194.24-.309.022-.046.068-.115.137-.204.023-.046.184-.14.479-.277.141-.068.277-.137.414-.205l.068-.242 1.617-.893a35.684 35.684 0 0 1 3.679-1.787c1.145-.482 2.728-.985 4.742-1.514a40.323 40.323 0 0 1 2.715-.652l1.031.481.48-.138.482.034c.391.045.779.079 1.168.104 1.261.045 2.326-.025 3.2-.208 1.35-.297 2.462-.745 3.332-1.338.436-.299.746-.575.93-.827l2.13-.275.378.482.034.377 4.88.379c1.766.251 3.221.539 4.367.86 1.306.388 2.701.916 4.193 1.581 1.375.616 2.462 1.214 3.264 1.786a37.938 37.938 0 0 1 2.684 2.027c1.052.917 1.934 1.787 2.643 2.612 2.017 2.388 3.529 4.853 4.539 7.395z" clip-rule="evenodd"/></svg>
