<svg xmlns="http://www.w3.org/2000/svg" xml:space="preserve" viewBox="0 0 61.193 32"><path fill="#FFF" fill-rule="evenodd" d="M60.604 16.104c-.443.344-.894.677-1.349.996a1.838 1.838 0 0 1-.166.111c-1.674 1.096-3.17 1.81-4.487 2.142a21.936 21.936 0 0 1-4.875.702 20.374 20.374 0 0 1-4.93-.406 66.274 66.274 0 0 1-1.977-.462c-.786-.197-1.262-.308-1.421-.332-.911-.21-1.988-.346-3.232-.406-1.268-.073-3.096-.08-5.483-.019l-3.195.092-.202.444-1.921-.038a.855.855 0 0 0-.146-.222 2.106 2.106 0 0 0-.573-.425 3.706 3.706 0 0 0-.757-.259l-.333-.055-.109 1.588-.445.425c-.332.333-.572.635-.719.904-.148.26-.295.642-.444 1.146a9.576 9.576 0 0 0-.202.646h-1.034c0-.149.013-.319.037-.517.049-.407.13-.752.239-1.035.124-.282.259-.56.406-.831l.204-.332a5.432 5.432 0 0 0-.333-.535c-.259-.382-.492-.658-.702-.831a3.151 3.151 0 0 1-.645-.646l-.242-.352a4.611 4.611 0 0 0-.774-.333c-.616-.172-1.157-.166-1.625.02-.099.036-.597.27-1.495.7a7.775 7.775 0 0 1-1.755.61c-.651.147-1.581.167-2.789.055a28.263 28.263 0 0 1-3.083-.479 54.162 54.162 0 0 0-2.309-.536c-.726-.159-1.317-.251-1.771-.277a10.89 10.89 0 0 0-1.478.075 6.413 6.413 0 0 0-.683.092l-.686.555-.146.664c-.11.456-.221.714-.332.775-.16.111-.382.247-.665.407l-.479-.037a2.018 2.018 0 0 1-.369-.278 2.035 2.035 0 0 1-.554-.774c-.124-.284-.166-.732-.13-1.348l.093-.851L0 16.288v-.85l.407-.203c0-.21.011-.443.036-.702.049-.517.13-.88.239-1.09.136-.246.284-.411.444-.498.123-.074.325-.135.608-.185.196-.037.353.006.462.13.05.061.08.122.092.185 1.157-.074 2.444-.149 3.86-.223 2.856-.159 4.968-.228 6.333-.203 1.219.013 3.016.104 5.392.276 2.179.174 3.397.253 3.656.242a4.73 4.73 0 0 0 1.09-.186 6.89 6.89 0 0 0 .739-.259c.209-.062.363-.056.461.02a.212.212 0 0 1 .111.147c.123-.112.271-.246.442-.407.32-.308.554-.585.702-.83.159-.26.289-.555.388-.887l.092-.443h.887v.462a3.905 3.905 0 0 1-.204.94 3.309 3.309 0 0 1-.442.813c-.099.146-.19.266-.277.352l5.207.073-.332-.518 1.22.518.867.037-.407-.591 1.367.591h.85l-.407-.591 1.367.628h.795l-.407-.518 1.33.555.831.055-.351-.609 1.274.609.886.038-.37-.61 1.274.61.923.036-.442-.592 1.163.592.961-.074-.314-.48 1.274.555.683.019c.616 0 1.292-.031 2.032-.093a99.849 99.849 0 0 0 3.415-.369l.37.277c.307.208.633.411.979.609 1.096.64 2.135 1.076 3.12 1.311.984.234 2.369.419 4.155.554l.424.036c.714.05 1.36.081 1.938.094l-.589.463z" clip-rule="evenodd"/></svg>
