<svg xmlns="http://www.w3.org/2000/svg" xml:space="preserve" viewBox="0 0 92 31.5"><path fill="#FFF" fill-rule="evenodd" d="M53.805 16.461a.777.777 0 0 0-.237-.572.772.772 0 0 0-.568-.232.788.788 0 0 0-.573.232c-.155.157-.232.349-.232.572s.077.413.232.568a.78.78 0 0 0 .573.236.764.764 0 0 0 .568-.236.765.765 0 0 0 .237-.568zM2.377 11.257c2.377.732 4.884 1.029 7.52.889a465.846 465.846 0 0 1 33.489-.178c.61-.641.582-1.409-.084-2.306 1.559-.418 2.602.387 3.131 2.415h2.34l.435.543c18.559-.04 32.681.977 42.367 3.047-5.398 1.266-17.763 1.899-37.093 1.9l-.271.281h-4.987l-.45.212H46.27c-.528.489-.372 1.214.469 2.179-1.571.877-2.725.204-3.461-2.021-10.783.404-21.969.404-33.558 0-2.601-.089-5.066.293-7.396 1.146-1.796-2.771-1.778-5.474.053-8.107z" clip-rule="evenodd"/></svg>
