<svg xmlns="http://www.w3.org/2000/svg" xml:space="preserve" viewBox="0 0 79.833 32"><path fill="#FFF" fill-rule="evenodd" d="M16.598 10.484c1.581-.238 2.805-.404 3.67-.504.71-.08 1.956-.148 3.729-.205 1.815-.041 3.166-.041 4.053 0 .751.019 1.569.107 2.456.265.437.08.8.149 1.096.206a7.677 7.677 0 0 0 3.374.948c.253.021.609.021 1.063 0 .296 0 .462.011.504.032.08.099.426.058 1.034-.122a13.748 13.748 0 0 0 1.57-.529c.473-.181.798-.279.974-.296.219-.041.493 0 .831.115.315.101.579.267.798.504a9.596 9.596 0 0 1 .504.708c.138.199.493.251 1.065.15.295-.04.571-.1.825-.178.298 0 .622-.167.976-.501a4.39 4.39 0 0 0 .419-.477c.036 0 .292.059.767.181.612.115 1.242.234 1.894.353.216.04.445.08.68.117 1.854.314 3.71.513 5.564.593 2.093.098 4.358-.048 6.806-.443 1.24-.197 2.267-.403 3.074-.619l.238.147c.279.156.681.402 1.212.736 1.244.732 2.495 1.253 3.76 1.57.669.16 1.459.274 2.364.354.376.021.781.038 1.216.058 1.023.041 2.386-.077 4.084-.354a32.01 32.01 0 0 0 2.247-.385 95.14 95.14 0 0 0-.771 1.007 44.11 44.11 0 0 1-1.687 1.951c-.532.593-1.39 1.164-2.573 1.719-.869.412-1.706.728-2.517.944-.098.021-.195.041-.296.06-.667.177-1.753.229-3.255.148a34.081 34.081 0 0 1-3.432-.326c-.709-.118-3.433-.455-8.163-1.005l-6.897-.828-.114.382-1.866.147a4.934 4.934 0 0 0-.296-.321c-.08-.08-.228-.148-.444-.208a1.008 1.008 0 0 0-.502 0c-.1.038-.217.098-.354.177l-.149.119.029-.178c.041-.16-.107-.278-.442-.354-.101-.021-.267.028-.502.148-.24.136-.366.236-.384.296-.022.058-.03.167-.03.321a1.387 1.387 0 0 1-.296.563c-.16.219-.426.416-.802.594-.354.158-.661.245-.917.266-.216 0-.404-.038-.561-.118-.039-.018-.08-.042-.119-.059l-.029-.03.12.267c.059.157.096.334.116.532.02.217.012.481-.031.799-.019.296-.137.622-.353.979a3.478 3.478 0 0 1-.503.681c-.098.116-.25.224-.442.322-.199.104-.327.122-.387.06-.059-.06-.077-.119-.059-.177a7.05 7.05 0 0 0 .267-.353c.136-.16.256-.486.352-.977.1-.476.14-.869.123-1.186-.023-.275-.146-.632-.39-1.066-.097-.177-.184-.336-.264-.473-.08-.116-.136-.176-.177-.176h-.623a33.113 33.113 0 0 1-1.033-.062c-.238 0-1.295-.119-3.167-.354-1.991-.258-3.137-.405-3.433-.443-.493-.039-2.446.048-5.857.264-3.394.24-5.454.414-6.185.533-.63.121-1.795.425-3.489.918-1.263.376-2.376.719-3.345 1.037-.613.176-1.655.59-3.138 1.24-1.437.633-2.335 1.057-2.691 1.272-.353.217-.611.385-.768.503-.178.139-.296.266-.355.386-.06.139-.1.237-.12.296-.02.039-.059.106-.116.207-.06.078-.198.098-.414.06a3.043 3.043 0 0 1-.622-.207c-.196-.08-.623-.501-1.271-1.272a12.762 12.762 0 0 1-.65-.859c-.2-.255-.287-.4-.267-.444 0-.099.12-.235.354-.413.217-.139.728-.472 1.537-1.006.613-.415 1.53-.897 2.754-1.448.253-.1.68-.275 1.271-.535.416-.196.68-.324.797-.383.456-.218.981-.446 1.567-.682.91-.336 2.032-.7 3.376-1.096 1.301-.354 3.095-.7 5.386-1.032.787-.1 1.547-.187 2.279-.267.609-.08.994-.121 1.153-.121.414-.02 1.174-.036 2.274-.058 1.383-.02 2.24-.02 2.575 0 .889.058 1.895.136 3.021.237 1.615.138 2.474.226 2.572.265.06.023.307.14.739.355.434.197.799.347 1.095.446.296.078.562.146.797.204.12.021.209.03.269.03l-.239-.326a2.018 2.018 0 0 1-.233-.621 1.957 1.957 0 0 1-.06-.475c0-.078-.011-.128-.029-.146h-.062c-.53 0-1.042-.038-1.537-.118-.297-.042-1.232-.098-2.811-.178-1.616-.1-2.674-.148-3.165-.148-.512 0-1.144.018-1.896.06-.728.038-1.766.106-3.105.205-1.244.08-2.804.296-4.675.654a71.052 71.052 0 0 0-4.616.977c-1.063.276-2.534.798-4.41 1.567-1.005.432-2.107.915-3.312 1.448-.475.216-1.106.583-1.896 1.095-.293.199-.709.481-1.242.858-.097.059-.227.049-.384-.03a.388.388 0 0 1-.146-.088l-.061-.029c-.16-.061-.443-.326-.858-.799-.473-.535-.776-.871-.918-1.007a4.751 4.751 0 0 1-.441-.533c-.08-.138-.08-.247 0-.324.058-.038.185-.188.384-.442.236-.3.415-.516.532-.652.157-.159.74-.542 1.746-1.155a43.51 43.51 0 0 1 1.449-.828c.632-.374 2.041-.927 4.23-1.655 1.716-.593 3.078-1.025 4.083-1.303.556-.155 1.738-.371 3.55-.649zm9.528.033a.677.677 0 0 0-.501.205.667.667 0 0 0-.208.504.67.67 0 0 0 .208.501.68.68 0 0 0 .501.208.686.686 0 0 0 .504-.208.68.68 0 0 0 .206-.501.677.677 0 0 0-.206-.504.68.68 0 0 0-.504-.205zm2.25.413a.582.582 0 0 0-.206.472.69.69 0 0 0 .206.504.68.68 0 0 0 .504.205.672.672 0 0 0 .499-.205.685.685 0 0 0 .21-.504.581.581 0 0 0-.21-.472.671.671 0 0 0-.499-.208.683.683 0 0 0-.504.208zm37.873 2.632-14.561-.355.563.296 14.41.384-.412-.325zm-34.207 1.627a.65.65 0 0 0-.205-.474.713.713 0 0 0-.475-.179.752.752 0 0 0-.501.179.645.645 0 0 0 0 .948.682.682 0 0 0 .976 0 .643.643 0 0 0 .205-.474zm1.278-.208a.583.583 0 0 0-.208.474c0 .199.066.356.208.478a.68.68 0 0 0 .501.201.66.66 0 0 0 .475-.201.6.6 0 0 0 .205-.478.596.596 0 0 0-.205-.474.681.681 0 0 0-.976 0zm-22.814 2.902a.61.61 0 0 0-.237.472c0 .197.078.362.237.503.136.139.307.206.504.206s.364-.067.501-.206a.644.644 0 0 0 .235-.503.607.607 0 0 0-.235-.472c-.137-.141-.304-.211-.501-.211s-.368.071-.504.211zm-6.923-.211a.655.655 0 0 0 .472-.206.649.649 0 0 0 .207-.471.606.606 0 0 0-.207-.478.662.662 0 0 0-.472-.205.696.696 0 0 0-.505.205.653.653 0 0 0-.176.478c0 .176.058.333.176.471a.689.689 0 0 0 .505.206zm2.041-1.684c0 .196.071.364.208.505a.655.655 0 0 0 .473.206.705.705 0 0 0 .711-.711.662.662 0 0 0-.208-.473.682.682 0 0 0-.976 0 .658.658 0 0 0-.208.473zm2.663 2.84a.643.643 0 0 0-.207.474c0 .196.067.367.207.503.138.14.306.208.503.208s.365-.068.504-.208a.682.682 0 0 0 .205-.503.648.648 0 0 0-.205-.474c-.139-.137-.307-.207-.504-.207s-.366.07-.503.207z" clip-rule="evenodd"/></svg>
