<svg xmlns="http://www.w3.org/2000/svg" xml:space="preserve" viewBox="0 0 91.436 33.02"><path fill="#FFF" fill-rule="evenodd" d="M64.413 15.165h.063a.67.67 0 0 0 .407-.188.604.604 0 0 0 0-.876.549.549 0 0 0-.407-.156H42.11a.507.507 0 0 0-.375.156.6.6 0 0 0 0 .876c.104.105.23.167.375.188h22.303zm11.323 6.1H36.104l-.563-1.596h-2.096v2.034l-.125.155h-.844l-.313-.499v-.845l-.188-.313a.622.622 0 0 1-.156.406.6.6 0 0 1-.876 0 .618.618 0 0 1-.157-.406.8.8 0 0 1-.188.406.604.604 0 0 1-.877 0 .622.622 0 0 1-.156-.406.807.807 0 0 1-.187.406.6.6 0 0 1-.876 0 .63.63 0 0 1-.156-.406.572.572 0 0 1-.188.406.6.6 0 0 1-.876 0 .631.631 0 0 1-.157-.406.568.568 0 0 1-.188.406c-.125.125-.271.188-.438.188s-.303-.063-.407-.188a.581.581 0 0 1-.189-.406.567.567 0 0 1-.187.406.505.505 0 0 1-.407.188.54.54 0 0 1-.438-.188.57.57 0 0 1-.187-.406.576.576 0 0 1-.188.406.505.505 0 0 1-.407.188.6.6 0 0 1-.438-.188.572.572 0 0 1-.188-.406.568.568 0 0 1-.188.406c-.104.125-.24.188-.407.188s-.313-.063-.438-.188a.808.808 0 0 1-.188-.406.622.622 0 0 1-.156.406.6.6 0 0 1-.876 0 .798.798 0 0 1-.187-.406.623.623 0 0 1-.157.406.6.6 0 0 1-.876 0 .623.623 0 0 1-.157-.406.807.807 0 0 1-.187.406.6.6 0 0 1-.876 0 .622.622 0 0 1-.156-.406.807.807 0 0 1-.187.406.6.6 0 0 1-.876 0 .626.626 0 0 1-.157-.406.576.576 0 0 1-.188.406.6.6 0 0 1-.876 0 .614.614 0 0 1-.156-.406.576.576 0 0 1-.188.406.6.6 0 0 1-.438.188.502.502 0 0 1-.406-.188.572.572 0 0 1-.188-.406.568.568 0 0 1-.188.406.505.505 0 0 1-.407.188.54.54 0 0 1-.438-.188.576.576 0 0 1-.188-.406.572.572 0 0 1-.188.406.505.505 0 0 1-.407.188.602.602 0 0 1-.438-.188.576.576 0 0 1-.188-.406.572.572 0 0 1-.188.406.505.505 0 0 1-.406.188.603.603 0 0 1-.439-.188.808.808 0 0 1-.188-.406.622.622 0 0 1-.156.406.602.602 0 0 1-.876 0 .808.808 0 0 1-.188-.406.622.622 0 0 1-.156.406.6.6 0 0 1-.875 0 .622.622 0 0 1-.156-.406.802.802 0 0 1-.189.406.6.6 0 0 1-.875 0 .622.622 0 0 1-.156-.406.8.8 0 0 1-.188.406.6.6 0 0 1-.876 0 .625.625 0 0 1-.156-.406.576.576 0 0 1-.188.406.6.6 0 0 1-.876 0 .625.625 0 0 1-.156-.406.575.575 0 0 1-.187.406.605.605 0 0 1-.439.188.506.506 0 0 1-.407-.188.566.566 0 0 1-.187-.406l-.344-.876L.851 17.23v-2.409l3.253-2.034.25-.437c0-.167.052-.303.157-.407.125-.125.27-.188.438-.188s.313.063.438.188c.104.104.167.24.188.407 0-.167.053-.303.157-.407a.6.6 0 0 1 .876 0c.104.104.157.24.157.407a.676.676 0 0 1 .187-.407.603.603 0 0 1 .876 0c.104.104.156.24.156.407a.67.67 0 0 1 .188-.407.6.6 0 0 1 .438-.188c.167 0 .303.063.407.188a.51.51 0 0 1 .188.407.505.505 0 0 1 .188-.407.6.6 0 0 1 .437-.188c.167 0 .303.063.407.188a.513.513 0 0 1 .188.407.51.51 0 0 1 .187-.407.541.541 0 0 1 .438-.188c.167 0 .303.063.408.188a.509.509 0 0 1 .187.407.508.508 0 0 1 .188-.407.505.505 0 0 1 .407-.188.6.6 0 0 1 .438.188.516.516 0 0 1 .188.407.553.553 0 0 1 .157-.407.6.6 0 0 1 .876 0 .507.507 0 0 1 .188.407.56.56 0 0 1 .156-.407.6.6 0 0 1 .876 0c.104.104.167.24.188.407 0-.167.051-.303.156-.407a.602.602 0 0 1 .876 0c.104.104.166.24.187.407 0-.167.053-.303.157-.407a.6.6 0 0 1 .876 0c.104.104.157.24.157.407a.676.676 0 0 1 .187-.407.6.6 0 0 1 .875 0c.105.104.157.24.157.407a.67.67 0 0 1 .188-.407.6.6 0 0 1 .438-.188c.167 0 .302.063.407.188a.516.516 0 0 1 .188.407.511.511 0 0 1 .188-.407.6.6 0 0 1 .438-.188c.167 0 .302.063.406.188a.51.51 0 0 1 .188.407.511.511 0 0 1 .188-.407.539.539 0 0 1 .438-.188c.167 0 .302.063.407.188a.51.51 0 0 1 .188.407.508.508 0 0 1 .188-.407.505.505 0 0 1 .407-.188.54.54 0 0 1 .438.188.513.513 0 0 1 .188.407.553.553 0 0 1 .157-.407.6.6 0 0 1 .875 0 .512.512 0 0 1 .187.407.565.565 0 0 1 .157-.407.6.6 0 0 1 .875 0c.106.104.168.24.189.407 0-.167.052-.303.156-.407a.6.6 0 0 1 .876 0c.104.104.167.24.188.407 0-.167.052-.303.156-.407a.6.6 0 0 1 .876 0 .55.55 0 0 1 .155.407.672.672 0 0 1 .189-.407.6.6 0 0 1 .876 0c.104.104.157.24.157.407a.67.67 0 0 1 .188-.407.6.6 0 0 1 .438-.188c.167 0 .302.063.407.188a.513.513 0 0 1 .188.407.508.508 0 0 1 .187-.407.605.605 0 0 1 .439-.188c.166 0 .302.063.406.188.125.104.187.24.187.407l.251.25 2.877-1.439h12.637l2.846 1.346h17.423l21.553 1.938-14.178 6.82zm-39.413-9.509h-.031a.6.6 0 0 0-.438.188.665.665 0 0 0-.157.438c0 .166.052.303.157.405a.6.6 0 0 0 .438.188h.031a.57.57 0 0 0 .407-.188.501.501 0 0 0 .188-.405.6.6 0 0 0-.188-.438.565.565 0 0 0-.407-.188zm9.541.626a.595.595 0 0 0-.188-.438.505.505 0 0 0-.407-.188h-6.413a.642.642 0 0 0-.375.188.6.6 0 0 0-.187.438c0 .166.063.303.187.405a.475.475 0 0 0 .375.188h6.413a.506.506 0 0 0 .407-.188.497.497 0 0 0 .188-.405zm1.219.594a.502.502 0 0 0 .406-.188.502.502 0 0 0 .189-.405.596.596 0 0 0-.189-.438.503.503 0 0 0-.406-.188.6.6 0 0 0-.438.188.6.6 0 0 0-.188.438.5.5 0 0 0 .188.405.606.606 0 0 0 .438.188z" clip-rule="evenodd"/></svg>
