<svg xmlns="http://www.w3.org/2000/svg" xml:space="preserve" viewBox="0 0 92 32.5"><path fill="#FFF" fill-rule="evenodd" d="M9.736 26.29c.816-.815 1.224-1.8 1.224-2.954s-.407-2.139-1.224-2.955c-.816-.816-1.801-1.225-2.955-1.225s-2.139.408-2.955 1.225c-.816.816-1.224 1.801-1.224 2.955s.408 2.139 1.224 2.954c.816.816 1.801 1.225 2.955 1.225s2.139-.409 2.955-1.225zM54.573 8.704a.85.85 0 0 0-.626.26.853.853 0 0 0-.259.625c0 .245.086.454.259.627a.854.854 0 0 0 .626.259.854.854 0 0 0 .626-.259.858.858 0 0 0 .259-.627.85.85 0 0 0-.259-.625.854.854 0 0 0-.626-.26zm-2.808-1.062c-.287 0-.533.102-.737.305-.203.204-.305.45-.305.737s.102.531.305.735c.205.204.451.307.737.307s.531-.103.734-.307c.205-.204.308-.448.308-.735s-.103-.533-.308-.737a.998.998 0 0 0-.734-.305zm-3.127-1.008c-.359 0-.666.128-.919.382a1.253 1.253 0 0 0-.381.919c0 .359.127.667.381.921.253.253.56.381.919.381s.666-.128.92-.381c.254-.254.381-.562.381-.921 0-.358-.127-.665-.381-.919a1.253 1.253 0 0 0-.92-.382zm-26.24 1.959a24.272 24.272 0 0 1 3.224-.518 69.22 69.22 0 0 1 3.182-.213 70.513 70.513 0 0 0 3.162-.217 21.89 21.89 0 0 0 3.161-.535c1.833-.457 3.434-1.033 4.805-1.731a34.706 34.706 0 0 0 1.727-.958 66.645 66.645 0 0 1 1.804-1.031l2.546 1.86c.269-.131.354-.355.251-.672l-.91-1.16 2.728.377.839 1.23c.172.19.345.257.518.196l.168-1.245 1.888 1.749.154-1.217 1.762 1.776V5.096l1.917 1.818V5.823c11.872 4.56 18.456 11.684 19.75 21.373-9.496-8.46-19.287-12.824-29.374-13.093l-.3.357-1.846.231c-1.986 2.1-3.982 3.158-5.987 3.175a12.3 12.3 0 0 0-.633-1.122 4.43 4.43 0 0 0-.871-.993c-.792-.657-1.898-.982-3.314-.976-1.912.012-4.094.69-6.546 2.039-1.226.673-2.261 1.345-3.105 2.018-.919-.102-1.99-.086-3.214.042-2.448.259-4.437.964-5.966 2.114-.324.246-.571.619-.741 1.124-.082.252-.196.768-.342 1.549-.136.723-.285 1.296-.448 1.721a4.695 4.695 0 0 1-1.058 1.651c-.076.078-.187.198-.334.358-1.145 1.145-2.525 1.718-4.144 1.718-1.618 0-2.999-.573-4.144-1.718C1.563 26.25.99 24.869.99 23.248c0-.704.169-1.458.507-2.262a8.01 8.01 0 0 1 1.515-2.351c2.203-2.356 4.805-4.327 7.805-5.913 3.177-1.678 7.037-3.054 11.581-4.129z" clip-rule="evenodd"/></svg>
