<svg xmlns="http://www.w3.org/2000/svg" xml:space="preserve" viewBox="0 0 72 32"><path fill="#FFF" fill-rule="evenodd" d="M2.485 19.214a1.238 1.238 0 0 0-.761-.254c-.263.02-.479.084-.648.198a1.466 1.466 0 0 0-.338.452.954.954 0 0 0-.113.563c0 .17.036.331.113.479.037.15.159.292.365.424.188.113.367.179.537.198a.88.88 0 0 0 .591-.17c.149-.056.3-.168.45-.338.113-.132.191-.311.227-.536a.965.965 0 0 0-.085-.535 1.207 1.207 0 0 0-.338-.481zm68.742-4.708c-.527.603-1.24 1.26-2.143 1.973-1.787 1.466-3.524 2.547-5.217 3.242-1.953.827-3.861 1.458-5.722 1.891-1.655.395-3.525.676-5.61.846-1.656.131-4.598.216-8.826.252h-5.837v-.534l-.395-.509-.478-.027-.284.367-.507-.141a7.123 7.123 0 0 0-.282-1.411c-.319-1.013-.751-1.701-1.298-2.057-.713-.453-1.362-.771-1.946-.959a5.81 5.81 0 0 0-2.084-.253c-.734.055-1.373.196-1.918.421-.49.189-1.006.509-1.551.959-.469.357-.78.564-.93.62a.419.419 0 0 1-.227.056c-.15 0-.263.009-.337.029-.227.02-.499-.103-.819-.368a7.601 7.601 0 0 0-.365-.309c-.134-.113-.228-.18-.283-.196-.131-.056-.912-.056-2.34 0a60.391 60.391 0 0 0-2.934.168c-2.931.208-4.971.387-6.118.537a90.536 90.536 0 0 0-2.961.422c-1.165.189-1.832.31-2.001.366-.132.038-.799.338-2.003.902-1.258.583-2 .913-2.226.987-.415.169-.725.272-.933.311-.355.093-.674.093-.958 0a2.456 2.456 0 0 1-.818-.368c-.225-.131-.366-.262-.422-.393a1.726 1.726 0 0 1-.312-.565 2.002 2.002 0 0 1-.139-.875c.018-.358.028-.574.028-.649.017-.112.084-.329.196-.648.133-.357.62-1.335 1.466-2.932.865-1.617 1.374-2.501 1.524-2.651.17-.186.283-.29.34-.31a.452.452 0 0 1 .282-.085c.018 0 .168.02.451.057.207.038.366.028.48-.028a.434.434 0 0 0 .226-.281v-.196l.535.167.48-.337 1.494-.254a64.785 64.785 0 0 1 2.198-.507 99.17 99.17 0 0 1 8.149-1.297c2.857-.338 6.503-.546 10.94-.621 2.199-.037 4.126-.037 5.779 0l.481.453.649-.339.646.394.481-.394.535.451.677-.338.563.48.591-.338.622.366.535-.282.649.392.593-.281.45.422.592-.281.51.478.733-.283.563.424.731-.283.481.453.62-.283 1.606.283c1.26.206 2.397.433 3.414.676 1.033.226 2.78.743 5.243 1.551 1.259.396 2.407.78 3.441 1.156l.195.057c.152.057.302.103.453.142.49.075.874.018 1.156-.17.281-.206.422-.441.422-.703.02-.151-.019-.36-.114-.623-.056-.131-.329-.355-.816-.675a10.012 10.012 0 0 0-1.468-.678c-.148-.037-.45-.142-.902-.31-.15-.018-.245-.065-.281-.142-.039-.095-.039-.179 0-.253.019-.132.113-.217.281-.253a.852.852 0 0 1 .311-.085c.076 0 .216.02.424.056.225.058 1.062.283 2.509.677 1.597.471 2.856.865 3.778 1.184.882.263 2.03.694 3.441 1.297.714.302 1.334.564 1.861.79z" clip-rule="evenodd"/></svg>
