<svg xmlns="http://www.w3.org/2000/svg" xml:space="preserve" viewBox="0 0 92.059 32"><path fill="#FFF" d="M72.948 12.353c-11.712-2.169-28.352-1.323-28.352-1.323s-.106.382-.364.382-.374-.382-.374-.382l-.444.018s-.116.391-.382.391-.354-.337-.354-.337l-.471.009s-.125.364-.382.373c-.257.009-.337-.355-.337-.355l-.479.009s-.035.355-.355.364c-.32.009-.355-.346-.355-.346l-.506.009s-.063.337-.355.346-.329-.355-.329-.355l-.489.018s-.124.391-.408.391-.364-.4-.364-.4l-4.682.098.675-2.248v-.26l-.941-.693-.249.125-.79 1.999-.782.675-.897.364-1.679.089-.213.337-.364.213v-.213l-.178-.257-21.109.506-.595.586v.506h-.338l-.399.391v.417h-.391l-.417.391v.444h-.4l-.373.346v.436l-.32-.036-.427.364v.409H2.58l-.453.56 1.108 2.805 5.07-.764 16.332-1.82s1.82-.049 1.934-.082c.114-.031.219-.39.382-.39s.317.293.317.293 1.567.258 1.917 1.796c.268 1.178-.26 2.624-.26 2.624l.91.552s.357-.617.715-1.332c.357-.715.455-1.332.455-1.332s1.584-1.748 3.9-.943c2.56.89 2.535 3.607 2.535 3.607s4.063-2.015 11.277-2.242 10.4.846 19.533.813c9.133-.032 15.34-4.858 15.34-4.858s-2.088-1.504-10.644-3.088zM4.49 18.422c-.492 0-.89-.42-.89-.938s.398-.938.89-.938c.491 0 .89.42.89.938s-.399.938-.89.938z"/></svg>
