<svg xmlns="http://www.w3.org/2000/svg" xml:space="preserve" viewBox="0 0 91.917 31.583"><path fill="#FFF" fill-rule="evenodd" d="M32.893 10.707v.225h.274v-.22l9.901-.274 1.03-.604.282.253 1.118-.683.354.219 1.106-.613.356.204c1.006-.794 1.811-1.141 2.412-1.042.22.034.34.121.362.264.023.142-.064.27-.26.38-.325.185-.544.401-.661.649a.817.817 0 0 0-.034.656.972.972 0 0 0 .41.492c.206.125.428.174.668.148v.795h.215v-.57l3.089.376v.567h.225v-.671c5.453.518 10.45.33 15-.568l14.679 5.917c-.907.704-2.414 1.6-4.518 2.69-2.105 1.09-4.401 1.697-6.887 1.822-2.487.124-4.617-.062-6.388-.551a353.86 353.86 0 0 0-7.292-1.898c-3.09-.78-5.804-1.183-8.139-1.213a.868.868 0 0 0-.09-.262 1.048 1.048 0 0 0-.425-.451 1.394 1.394 0 0 0-.59-.171h-.144c-.17 1.248-.504 2.195-1.001 2.843-4.658-1-9.536-1.547-14.627-1.639v-.187l-.291-.008v.213c-10.026-.095-16.556.37-19.596 1.398-3.457 1.063-7.002 2.866-10.634 5.413-1.738.187-1.931-1.318-.581-4.522 1.674-2.315 4.385-4.312 8.134-5.992 3.749-1.687 11.263-2.816 22.543-3.385z" clip-rule="evenodd"/></svg>
