<svg xmlns="http://www.w3.org/2000/svg" xml:space="preserve" viewBox="0 0 92.059 31.75"><path fill="#FFF" fill-rule="evenodd" d="M5.04 14.941a1.415 1.415 0 0 0-.427 1.034c0 .402.143.744.427 1.029.286.287.631.43 1.033.43s.745-.143 1.03-.43a1.4 1.4 0 0 0 .43-1.029c0-.402-.144-.747-.43-1.034-.285-.284-.628-.426-1.03-.426s-.747.142-1.033.426zm44.092.138a1.174 1.174 0 0 0-.861-.358c-.336 0-.623.119-.862.358a1.181 1.181 0 0 0-.357.861c0 .336.121.623.357.861.239.238.526.357.862.357.335 0 .622-.119.861-.357.238-.238.356-.525.356-.861a1.169 1.169 0 0 0-.356-.861zm3.552.796a.875.875 0 0 0-.267-.641c-.176-.175-.388-.263-.638-.263s-.464.088-.642.263a.88.88 0 0 0-.263.641c0 .25.087.463.263.637.178.179.392.27.642.27s.462-.091.638-.27a.858.858 0 0 0 .267-.637zm3.121.126a.706.706 0 0 0-.215-.518.702.702 0 0 0-.517-.215c-.2 0-.373.071-.517.215a.705.705 0 0 0-.215.518c0 .201.071.372.215.517a.708.708 0 0 0 .517.215.708.708 0 0 0 .517-.215.706.706 0 0 0 .215-.517zm2.734-.013a.548.548 0 0 0-.168-.401.538.538 0 0 0-.396-.164.558.558 0 0 0-.563.565c0 .155.054.287.162.397.113.11.246.166.401.166a.54.54 0 0 0 .396-.166.532.532 0 0 0 .168-.397zM33.82 11.703c1.719-.212 3.441-.89 5.163-2.032.864-.571 1.554-1.121 2.071-1.649 1.289 1.375 2.659 1.937 4.111 1.684.322.394.984.589 1.985.589 18.566-.497 32.612 1.364 42.137 5.58-9.524 4.217-23.57 6.078-42.137 5.58-1.001 0-1.663.197-1.985.592-1.452-.254-2.823.309-4.111 1.682-.518-.527-1.208-1.078-2.071-1.648-1.722-1.143-3.444-1.82-5.163-2.033-.938-.113-2.117-.137-3.535-.066-1.036.053-2.44.174-4.211.359-2.831.301-4.354.459-4.573.479-1.783.17-3.324.27-4.625.297a26.108 26.108 0 0 1-4.797-.348c-1.633-.268-3.145-.648-4.534-1.146-1.433-.514-2.564-1.092-3.397-1.73-.814-.627-1.272-1.268-1.369-1.916a.692.692 0 0 1 0-.193c.097-.652.554-1.292 1.369-1.921.833-.64 1.965-1.216 3.397-1.731a25.835 25.835 0 0 1 4.534-1.145c1.671-.27 3.27-.386 4.797-.35 1.3.029 2.842.128 4.625.298.219.02 1.742.179 4.573.478 1.771.187 3.175.307 4.211.362 1.418.066 2.596.043 3.535-.072zm6.192-.301c-1.292 0-2.394.456-3.308 1.369-.912.914-1.37 2.016-1.37 3.307s.458 2.395 1.37 3.307c.914.912 2.016 1.371 3.308 1.371.341 0 .668-.033.982-.096a4.54 4.54 0 0 0 .831-.254 4.692 4.692 0 0 0 1.495-1.021c.912-.912 1.369-2.016 1.369-3.307s-.457-2.394-1.369-3.307c-.914-.913-2.017-1.369-3.308-1.369z" clip-rule="evenodd"/></svg>
