<svg xmlns="http://www.w3.org/2000/svg" xml:space="preserve" viewBox="0 0 79.167 32"><path fill="#FFF" fill-rule="evenodd" d="m78.845 13.061-1.687 2.095c-1.33 1.531-2.5 2.636-3.516 3.312-1.8 1.147-4.052 1.992-6.753 2.532-2.412.474-5.226.71-8.447.71H43.644c-.157 0-.259-.01-.305-.033 0-.022-.055-.203-.168-.541-.18-.449-.292-.721-.338-.813a2.947 2.947 0 0 0-.979-1.113c-.451-.315-1.023-.486-1.723-.506-.723-.023-1.375.124-1.959.438A4.774 4.774 0 0 0 36.246 21c-.248.405-.405.766-.474 1.082-.113.677.01 1.093.373 1.25.224.045.382.091.473.135.18.046.305.112.37.203.203.339.225.62.066.843-.155.228-.449.317-.877.272-.519-.069-1.014-.292-1.485-.677-.587-.473-.88-1.068-.88-1.79v-2.467c0-.27-.021-.46-.066-.573-.068-.158-.19-.237-.372-.237-.136 0-1.6.214-4.392.643-3.4.427-6.634.64-9.696.64-2.996 0-6.238-.157-9.729-.472-1.734-.157-3.4-.313-5-.473-.495 0-.936.236-1.317.709a9.136 9.136 0 0 0-.676 1.084.715.715 0 0 1-.573.369c-.227 0-.43-.123-.608-.369-.182-.271-.281-1.467-.305-3.584a1.74 1.74 0 0 1-.572-.709 2.212 2.212 0 0 1-.239-1.013c0-.336.08-.664.239-.981.132-.292.325-.528.572-.71.045-1.98.146-3.094.305-3.342.179-.272.382-.396.608-.374.246 0 .439.125.573.374.247.449.473.798.676 1.046.382.497.822.744 1.317.744 1.6-.158 3.266-.315 5-.474 3.491-.337 6.733-.507 9.729-.507 3.063 0 6.296.216 9.696.643 2.792.428 4.256.641 4.392.641.182 0 .304-.077.372-.236.046-.09.066-.27.066-.54V9.682c0-.719.293-1.318.88-1.79.472-.383.967-.607 1.485-.676.428-.046.722.046.877.271.158.204.137.474-.066.812-.065.111-.19.19-.37.236-.091.022-.249.068-.473.134-.363.159-.486.564-.373 1.218.091.631.269 1.126.542 1.485l.369.373v.878h9.259c1.014 0 2.553.078 4.628.235 2.612.203 4.627.372 6.045.508 5.565.451 9.641.63 12.23.541 2.839-.113 5.36-.294 7.566-.541l2.434-.305z" clip-rule="evenodd"/></svg>
