<svg xmlns="http://www.w3.org/2000/svg" xml:space="preserve" viewBox="0 0 92 31.75"><path fill="#FFF" fill-rule="evenodd" d="M22.304 9.901c4.72.455 9.859.124 15.423-.999 1.121.093 2.207.042 3.251-.144l.457.888a.894.894 0 0 0 .602-.133c.142-.087.214-.198.214-.322a.388.388 0 0 0-.01-.085l.555-.081a.483.483 0 0 0 .477.396.478.478 0 0 0 .341-.137.448.448 0 0 0 .125-.432l.5-.079a.404.404 0 0 0 .135.233.456.456 0 0 0 .339.138.464.464 0 0 0 .337-.138.425.425 0 0 0 .123-.436l.548-.11a.481.481 0 0 0 .463.338.48.48 0 0 0 .341-.137.426.426 0 0 0 .136-.32.362.362 0 0 0-.022-.146l.63-.169 2.188.745c1.712.526 3.2.87 4.462 1.031 1.202.155 2.979.272 5.339.357 3.757.137 5.828.213 6.215.233 4.278.242 9.238.966 14.88 2.178 2.82.605 5.214 1.189 7.181 1.747-1.263.902-2.804 1.847-4.63 2.828-3.651 1.962-6.879 3.13-9.691 3.502-2.84.378-6.376.508-10.613.388a197 197 0 0 1-4.969-.219 422.426 422.426 0 0 0-4.103-.215c-1.951-.083-3.646-.074-5.094.017l-1.579.155c-.427-.256-.778-.333-1.052-.231-.252.096-.486.358-.708.793-.138.274-.355.816-.645 1.63a47.217 47.217 0 0 1-.893 2.304c-.167.381-.366.625-.601.734-.233.105-.471.065-.714-.123-.559-.428-.973-1.419-1.236-2.969a.723.723 0 0 1-.57-.049c-.181-.093-.338-.266-.464-.516-.538-1.042-1.362-1.922-2.475-2.638a8.915 8.915 0 0 0-3.528-1.319c-1.314-.202-2.541-.109-3.669.276-1.228.42-2.198 1.143-2.913 2.163a.474.474 0 0 1-.407.231c-.174 0-.366-.076-.575-.231a8.557 8.557 0 0 0-2.659-1.44 8.85 8.85 0 0 0-2.867-.455 8.313 8.313 0 0 0-2.743.491 6.583 6.583 0 0 0-2.278 1.363c-.434.402-.901.461-1.396.18-1.872-.786-3.822-1-5.84-.628-2.104.379-3.919 1.333-5.441 2.857-.739-.107-1.293-1.365-1.662-3.765-2.274-2.26-2.006-4.018.822-5.271 6.451-3.537 13.107-4.955 19.963-4.259zM1.574 17.81l.432-2.184c-1.268.59-1.413 1.318-.432 2.184z" clip-rule="evenodd"/></svg>
