<svg xmlns="http://www.w3.org/2000/svg" xml:space="preserve" viewBox="0 0 92.059 31.75"><path fill="#FFF" fill-rule="evenodd" d="M4.341 19.058c.28.257.614.387 1.001.387.388 0 .71-.13.969-.387.28-.282.419-.615.419-1.002 0-.389-.14-.71-.419-.97a1.264 1.264 0 0 0-.969-.418c-.387 0-.721.138-1.001.418a1.32 1.32 0 0 0-.388.97c.001.387.13.72.388 1.002zm-2.519-4.007a.432.432 0 0 0-.355-.161.539.539 0 0 0-.388.161c-.107.109-.162.239-.162.39s.054.277.162.387a.533.533 0 0 0 .388.162.43.43 0 0 0 .355-.162c.108-.109.162-.236.162-.387s-.054-.28-.162-.39zm34.299.26a1.374 1.374 0 0 0-1.001-.421c-.388 0-.711.142-.969.421-.279.257-.419.582-.419.97s.14.72.419 1.002c.258.257.582.385.969.385s.722-.128 1.001-.385c.257-.282.387-.614.387-1.002s-.13-.713-.387-.97zm31.875-.323a.643.643 0 0 0 .161-.421.68.68 0 0 0-.161-.451.83.83 0 0 0-.421-.193l-16.631-.517c-.28.021-.529.139-.743.354a1.137 1.137 0 0 0-.388.872c0 .323.129.604.388.839.214.215.463.334.743.356l16.631-.646a.807.807 0 0 0 .421-.193zm22.348-2.971-8.364 8.332c-7.277 2.714-14.974 3.466-23.092 2.26a2.285 2.285 0 0 0-.226-.193c-.172-.15-.333-.237-.484-.257a.94.94 0 0 0-.484.129 1.875 1.875 0 0 0-.227.128.323.323 0 0 0-.129-.161c-.129-.131-.258-.194-.387-.194a.311.311 0 0 0-.259.128l-.063.132a.394.394 0 0 0-.098-.161c-.085-.13-.193-.194-.322-.194a.313.313 0 0 0-.259.128c-.043.044-.064.086-.064.13a1.382 1.382 0 0 0-.259-.193c-.215-.15-.409-.226-.582-.226-.172 0-.301.052-.387.161-.065.044-.097.096-.097.159l-.162-.159a.488.488 0 0 0-.355-.161c-.107 0-.183.052-.226.161a.535.535 0 0 0-.032.159 1.81 1.81 0 0 0-.098-.159c-.085-.109-.183-.161-.291-.161s-.182.052-.225.161a.302.302 0 0 0-.065.159.983.983 0 0 0-.162-.127 1 1 0 0 0-.548-.161.652.652 0 0 0-.453.225.499.499 0 0 0-.129.194.39.39 0 0 0-.419-.226c-.108.021-.173.095-.195.226a.623.623 0 0 0-.032.192c-.043-.042-.086-.083-.129-.127a.553.553 0 0 0-.324-.032c-.085.041-.14.128-.161.258v.193a.93.93 0 0 0-.841-.033.58.58 0 0 0-.322.388c-.043.109-.053.193-.032.26l-.291.161a6.212 6.212 0 0 0-.743-.809c-.581-.539-1.065-.721-1.453-.548-.409.15-.7.548-.872 1.195-.087.32-.129.632-.129.936H44.58c-.108-.711-.398-.853-.872-.42l-.485-.195c-.043-.71-.355-.86-.937-.451l-.419-.195c-.086-.664-.398-.806-.937-.419l-.485-.129c-.043-.645-.355-.784-.936-.42a19.11 19.11 0 0 0-1.938-.71c-1.529-.453-2.82-.646-3.876-.582-1.098.065-2.421.368-3.971.905-1.357.537-2.11.807-2.261.807-.302.021-.797-.075-1.486-.292-1.378-.428-2.163-.667-2.357-.711a20.93 20.93 0 0 0-7.493-.644c-1.615.13-4.124.644-7.525 1.55-3.166.884-4.845 1.334-5.039 1.357-.259.043-.56.063-.903.063l-.45-.032-.776-1.163-.193-3.294c-.172-.321-.344-.71-.516-1.16-.345-.906-.496-1.683-.452-2.327.021-.754.495-1.303 1.421-1.648.452-.17.904-.279 1.356-.323 0-.063.076-.182.226-.355.216-.279 1.356-.654 3.423-1.128 2.37-.56 5.006-1.003 7.913-1.325 2.647-.323 5.457-.493 8.428-.517a64.34 64.34 0 0 1 3.682.032c1.399.065 2.681.236 3.843.519.581.128 1.012.257 1.291.387l1.809.128.097.259a.589.589 0 0 0 .453.292.44.44 0 0 0 .42-.26l.064-.226.613.064.13.225c.085.15.215.226.386.226.173 0 .302-.063.389-.193l.065-.225h.613l.162.225c.151.153.313.217.484.193a.473.473 0 0 0 .355-.257l.064-.258.582-.098.226.162c.151.106.302.141.452.098.129-.046.216-.173.258-.387v-.26l.453-.162.259.13c.215.064.376.075.485.032.107-.066.17-.194.192-.387l-.032-.26.452-.258.291.064c.215.043.376.031.484-.032.107-.065.15-.193.129-.389l-.064-.289 1.066-.549.162.354c.193.28.419.505.677.679.281.171.615.301 1.001.388.195.042.367.063.517.063l19.087-.419 1.615.903c1.271.667 2.368 1.195 3.294 1.582 1.851.733 3.003.667 3.455-.191.151-.262-.042-.701-.581-1.327l-.872-.871c6.265.174 12.531.765 18.796 1.778z" clip-rule="evenodd"/></svg>
