<svg xmlns="http://www.w3.org/2000/svg" xml:space="preserve" viewBox="0 0 95.563 32"><path fill="#FFF" fill-rule="evenodd" d="M63.057 11.228h13.7l7.68.733c5.48.824 9.146 2.033 10.998 3.628-2.083 1.827-5.569 3.087-10.458 3.781-2.058.283-4.694.463-7.911.541H63.057c-.077-.541-.219-.811-.425-.811-.205 0-.347.271-.424.811h-.077c-.077-.541-.219-.811-.424-.811-.207 0-.348.271-.425.811h-.386c-.206-.541-.501-.811-.887-.811s-.682.271-.888.811h-.386c-.077-.541-.218-.811-.425-.811-.205 0-.347.271-.424.811h-.077c-.077-.541-.218-.811-.425-.811-.205 0-.347.271-.424.811h-.386c-.154-.541-.451-.811-.887-.811-.386 0-.682.271-.888.811h-.348c-.128-.541-.283-.811-.462-.811-.207 0-.348.271-.425.811h-.039c-.077-.541-.219-.811-.424-.811-.181 0-.335.271-.463.811h-.386c-.153-.541-.438-.811-.849-.811-.438 0-.733.271-.888.811h-.386c-.077-.541-.218-.811-.424-.811s-.347.271-.425.811h-.076c-.078-.541-.219-.811-.425-.811s-.347.271-.424.811h-3.281c-.386-.231-.694-.321-.926-.27a36.44 36.44 0 0 1-1.042.425l-.694.077v.54l-2.045 5.904-2.316-.655c.386-.542.618-1.184.694-1.93.155-1.441-.527-2.586-2.044-3.435-2.856-.361-5.069-.323-6.638.115-.642.206-4.129.271-10.458.192-6.612-.077-10.202-.346-10.767-.809-.412-.104-.746-.091-1.003.039l-.309.231c-1.621 1.441-2.61 2.161-2.971 2.161-1.647 0-2.74-.72-3.281-2.161-.385-.978-.618-2.188-.694-3.627H.502c-.335 0-.502-.296-.502-.888s.167-.888.502-.888h.077c.077-1.594.386-2.675.926-3.241.644-.694 1.171-1.132 1.583-1.313.333-.153.848-.218 1.543-.193.54.025 1.042.142 1.505.348.051.025.475.283 1.273.771.154.026 2.058-.153 5.712-.54 3.73-.386 6.74-.514 9.03-.386 7.718.361 12.195.515 13.429.464 1.879-.387 3.203-1.003 3.976-1.853.746-.823 1.324-2.264 1.736-4.322l2.123.463.116 1.274-.965 2.817-.115 1.931.694.308c.49.181.811.271.965.271.257 0 .644-.167 1.158-.502h3.087c.103.54.244.811.424.811.207 0 .347-.271.425-.811h.076c.104.54.245.811.425.811.154 0 .295-.271.424-.811h.386c.232.54.528.811.888.811.335 0 .617-.271.849-.811h.424c.103.54.245.811.425.811.154 0 .295-.271.424-.811h.039c.128.54.27.811.425.811.205 0 .347-.271.424-.811h.424c.231.54.515.811.85.811.36 0 .656-.271.887-.811h.386c.13.54.271.811.424.811.208 0 .349-.271.425-.811h.077c.104.54.245.811.424.811.207 0 .348-.271.425-.811h.424c.181.54.463.811.85.811s.669-.271.849-.811h.425c.103.54.244.811.425.811.205 0 .347-.271.424-.811h.077c.103.54.245.811.424.811.154-.002.296-.273.424-.812z" clip-rule="evenodd"/></svg>
