<svg xmlns="http://www.w3.org/2000/svg" xml:space="preserve" viewBox="0 0 87.167 32"><path fill="#FFF" fill-rule="evenodd" d="M67.82 18.114c.12.104.253.173.396.216h2.052l.094-.063a.554.554 0 0 0 .245-.184c.224-.225.338-.51.338-.857-.021-.347-.124-.612-.308-.796l-.184-.123-.092-.029h-2.237c-.123.06-.244.152-.367.275-.226.243-.337.521-.337.826s.133.552.4.735zm19.117-.429c-.653.43-1.419.898-2.297 1.411-1.758 1.041-3.227 1.766-4.412 2.174-2.124.757-4.188 1.267-6.189 1.532a27.27 27.27 0 0 1-1.715.123l-30.794.153a.302.302 0 0 0-.123-.153 1.194 1.194 0 0 0-.428-.276c-.144-.08-.356-.144-.644-.183l-.368-.063-5.851.031-.031 4.688-.214.123a1.12 1.12 0 0 1-.493.121c-.142 0-.294-.041-.457-.121l-.246-.095-.06-4.84-.276-.061-.062-.83-.184.37-4.104-.089-.153-.397-.4-.033-.152.459-3.31.124-.214-.397-.459-.034-.214.432h-3.432l-.245-.46h-.276l-.244.398-3.218.062-.275-.397h-.308l-.214.428-3.4-.123-.307-.457h-.459l-.216.183-.732.367c-.636.041-1.33.082-2.085.122-1.513.082-2.594.111-3.248.092a50.413 50.413 0 0 1-1.592-.06c-.267-.021-.451-.053-.554-.093a1.323 1.323 0 0 1-.185-.154l-.06-.092-1.38.123a.387.387 0 0 1-.152-.215l-.062-.121-.03-1.503-.182-.584a30.006 30.006 0 0 1-.063-.704 13.57 13.57 0 0 1 0-1.318c.021-.327.063-.673.124-1.041l.121-.429v-1.746a.715.715 0 0 1 .092-.276c.063-.06.123-.093.185-.093.021-.021.041-.021.062 0h1.502l.335-.061c.286-.041.542-.071.766-.091.227-.021 1.328 0 3.31.062 1 .02 1.972.041 2.911.062l.95.397.121.123.521-.032.307-.427 3.339-.123.275.397h.276l.338-.397h3.094l.275.427.308.032.245-.459 3.43-.032.215.43.462-.03.242-.429 3.218.123.153.397.429.029.183-.427 4.107-.123.153.398.062-.858.276-.031V4.878l.151-.122a.761.761 0 0 1 .432-.124c.183 0 .377.042.58.124.123.04.215.082.276.122l.092 7.876h4.963l.583.549.581 1.259.214.029c.184.021.328-.021.43-.123.227-.184.235-.469.029-.856a1.79 1.79 0 0 0-.244-.368l-.121-.153 2.971.123.583 1.133.091.062a.459.459 0 0 0 .216.122c.223.103.419.062.582-.122.142-.163.132-.408-.032-.734a1.105 1.105 0 0 0-.183-.339l-.093-.121 1.899.183.582 1.104.063.062c.082.019.152.041.216.06.223.041.397-.041.519-.244.122-.184.114-.408-.029-.675a1.786 1.786 0 0 0-.153-.245l-.063-.092h1.84l.52 1.073.062.062c.062.038.133.07.216.091.204.062.408-.021.611-.245.123-.144.102-.357-.062-.644a1.776 1.776 0 0 0-.152-.245l-.093-.123h1.901l.489 1.012.091.093c.083.062.165.1.245.123.245.101.45.009.614-.277.08-.144.062-.347-.062-.611-.041-.062-.094-.133-.153-.216l-.092-.092 1.623-.063.43 1.043.093.062c.102.041.192.082.274.122.307.082.531.032.673-.152.123-.143.103-.367-.06-.675a1.295 1.295 0 0 0-.183-.307l-.094-.121 1.685.06.583 1.043.062.091c.083.041.152.07.214.094.225.06.409-.012.551-.216.144-.205.134-.429-.029-.673a15.391 15.391 0 0 1-.214-.216l-.093-.062 1.868.031.46.888.092.031.186.062c.202 0 .346-.082.427-.246a.588.588 0 0 0 0-.583.855.855 0 0 0-.153-.213l-.059-.063 2.022-.028 17.095 3.063 5.819 1.344z" clip-rule="evenodd"/></svg>
