<svg xmlns="http://www.w3.org/2000/svg" xml:space="preserve" viewBox="0 0 32 32"><g fill="#FFF"><path d="m13.919 11.804-1.008-1.264a.799.799 0 0 0 .193-.508.813.813 0 1 0-.812.812c.068 0 .128-.022.19-.039l.649 1.438-3.967 2.212a5.182 5.182 0 0 0 2.459 2.269l6.788-6.788a5.378 5.378 0 0 0-.247-.499l-4.245 2.367zM20.241 23.06l-4.624-3.082-.742.742 4.704 3.134-8.531 3.986.777-4.07-1.243 1.243L9.248 32h1.006l.555-2.905 9.693-4.528 1.284 7.401h1.007l-2.914-16.252-.777.777z"/><path d="M6.365 13.563a9.64 9.64 0 0 0 2.239 6.181l1.219-1.219a7.941 7.941 0 0 1-1.743-4.962 8 8 0 0 1 8-8c1.879 0 3.603.652 4.968 1.737l1.222-1.222a9.672 9.672 0 0 0-6.19-2.229c-5.366 0-9.715 4.349-9.715 9.714zM24.079 13.563a7.967 7.967 0 0 1-2.526 5.822l.3 1.977c2.386-1.77 3.94-4.6 3.94-7.799a9.656 9.656 0 0 0-.554-3.208l-1.379 1.379c.139.588.219 1.198.219 1.829z"/><path d="M26.151 9.443c.539 1.292.839 2.708.839 4.196 0 3.23-1.217 6.967-4.652 9.36l.335 2.167c4.321-2.597 6.223-7.117 6.223-11.339 0-2.072-.503-4.022-1.375-5.753l-1.37 1.369zM5.168 13.639c0-6.026 4.886-10.911 10.911-10.911 2.664 0 5.103.957 6.997 2.543l1.25-1.25a12.759 12.759 0 0 0-8.247-3.012C9 1.01 3.262 6.749 3.262 13.827c0 2.995.737 5.886 2.889 8.369l1.36-1.36c-1.772-2.107-2.343-4.838-2.343-7.197zM4.828 25.24 27.08 2.989l1.734 1.733-22.25 22.251z"/></g></svg>
