<svg xmlns="http://www.w3.org/2000/svg" fill="none" viewBox="0 0 12 25"><path fill="#fff" fill-rule="evenodd" d="m8.41.78.04.04v.07c0 .03.01.04.04.04V1h.03v.04c.03 0 .04.01.04.03v.11h.04v.08h.03v.07c.03 0 .04.01.04.03v.11l.04.04v.07l.03.04v.04h.04v.07l.03.04v.03c.03 0 .04.02.04.04v.04l.04.03v.11c0 .02 0 .04.03.04v.04h.04v.1H9v.04l.03.04v.03l.04.04v.07l.04.04v.1l.03.04v.04l.04.03v.04l.07.08v.03c.02 0 .04.02.04.04l.03.04v.18l.04.04v.07l.04.04v.03l.03.04v.04l.04.03v.07h.04v.08c0 .02 0 .03.03.03v.11c.03 0 .04.01.04.04v.07c.02 0 .04.01.04.04v.07h.03v.04l.04.03V4l.04.04v.03l.03.04v.14l.04.04v.07h.04v.11h.03v.07l.04.04v.04l.04.03v.08c.02 0 .03 0 .03.03v.08c0 .02.01.03.04.03v.07l.04.04v.04h.03v.03l.04.04v.04l.04.03v.07h.03v.11l.04.04v.04c0 .02.01.03.04.03v.04l.03.03v.11l.07.08v.07l.04.04v.03h.04v.08h.03c0 .02.02.03.04.03V6l.15.14v.48l.03.03v.08c.03 0 .04 0 .04.03l.04.04v.03l.03.04v.04h.04v.07c.02 0 .04.01.04.04l.03.03v.04h.04v.04l.07.07c0 .02.01.03.04.03v.04h.04v.04l.1.14v.26c.03.02.05.03.08.03v14.12h-.11v.04c-.03 0-.04.01-.04.03l-.03.08h-.08v.03l-.04.04v.03h-.04v.07h-.5v-.58l.07-.07c.02 0 .03-.02.03-.04h.04v-.04h.04v-.03h.03V7.9h-.07l-.04-.04v-.03l-.03-.04v-.02h-.04v-.04l-.04-.03v-.04l-.03-.04v-.07l-.04-.03v-.04h-.04v-.07h-.03v-.04l-.04-.04h-.04c0-.02 0-.03-.03-.03v-.07c0-.03-.02-.04-.04-.04v-.04h-.04V7.1c-.02 0-.03-.01-.03-.04 0-.02-.02-.03-.04-.03v-.04H10v-.04l-.03-.07a.04.04 0 0 0-.04-.04V6.8l-.1-.08V6.7H9.8v-.07c-.03 0-.04-.02-.04-.04l-.04-.04v-.03H9.7v-.04l-.07-.04V6.4h-.04v-.04c-.03 0-.04-.01-.04-.04v-.07c-.02 0-.03-.01-.03-.04l-.04-.03v-.04h-.04L9.33 6v-.04c-.03 0-.04-.01-.04-.04h-.04v17.79l-.15.03a.57.57 0 0 0-.14.11h-.04a6.8 6.8 0 0 1-1.64.66 8 8 0 0 1-1.75.36c-.49.1-1 .12-1.49.07-.42-.04-.83-.1-1.24-.18a6.87 6.87 0 0 1-1.86-.62 5 5 0 0 1-.76-.4l-.11-.03V5.89c-.1-.2-.06-.4.1-.62 0-.03.02-.05.04-.08a.74.74 0 0 1 .22-.03v-.04a8.57 8.57 0 0 1 1.32-.18 4.67 4.67 0 0 1 .98-.15 1.78 1.78 0 0 1 0-.5l.1-.19.12-.14v-1.6H2.9a3 3 0 0 1-.4-.04H2V1.8h.04v-.04h.07c-.05-.07-.05-.18 0-.33 0-.07.05-.2.14-.36a.45.45 0 0 1 .37-.3h4.3l.18.08V1c.15-.29.33-.54.55-.76V.13h.1c0-.03.02-.04.04-.04v.04h.37v.4l.03.04V.6h.19v.04l.03.03v.11Zm.48 18.08v-.22c-1.97.3-3.34.44-4.12.44-.8 0-2.23-.15-4.3-.44v1.35c2.09.36 3.54.54 4.37.54.88 0 2.23-.17 4.05-.5v-1.17Z" clip-rule="evenodd"/></svg>
