<svg xmlns="http://www.w3.org/2000/svg" xml:space="preserve" baseProfile="tiny" viewBox="0 0 27.969 32"><path fill="#FFF" fill-rule="evenodd" d="M.402 17.462c.041-.88.201-1.618.545-2.326.125-.257.166-.586.146-.875a5.739 5.739 0 0 1 .567-2.907c.174-.365.302-.757.511-1.1a21.64 21.64 0 0 1 1.055-1.536c.369-.501.724-1.024 1.16-1.463.658-.662 1.354-1.312 2.311-1.52.453-.099.928-.098 1.391-.159.111-.015.27-.068.31-.151.34-.699.976-.982 1.64-1.264a3.998 3.998 0 0 0 1.015-.635c.525-.448 1.166-.589 1.796-.757a4.766 4.766 0 0 1 1.019-.133c.832-.034 1.67-.107 2.496-.046 1.403.104 2.824.289 4.063.99a18.195 18.195 0 0 1 2.872 2.038c.708.608 1.289 1.357 1.758 2.206.524.949 1.064 1.886 1.405 2.913.271.817.469 1.661.655 2.502.186.841.39 1.688.45 2.542.067.96.011 1.933-.048 2.897a6.644 6.644 0 0 1-.293 1.549c-.121.388-.336.758-.567 1.097a7.195 7.195 0 0 0-.737 1.363c-.306.752-.577 1.546-1.181 2.137-.402.393-.907.539-1.46.63-.642.106-1.306.311-1.589.975-.394.921-1.152 1.367-2.014 1.694-.864.328-1.724.72-2.623.887-.685.127-1.383.22-2.069.368-.543.117-1.056.048-1.581-.165-.742-.301-1.551-.275-2.337-.327-.209-.014-.425.078-.639.12-.716.143-1.403.016-2.074-.234-.575-.214-1.162-.403-1.715-.663a11.49 11.49 0 0 1-1.542-.884 1.993 1.993 0 0 1-.909-1.623c-.022-.598-.149-1.106-.697-1.439a.505.505 0 0 1-.188-.277c-.23-.792-.737-1.407-1.248-2.027-.584-.707-.93-1.546-1.241-2.397a7.208 7.208 0 0 1-.299-1.046c-.069-.346-.085-.701-.114-.954z"/></svg>
