<svg xmlns="http://www.w3.org/2000/svg" xml:space="preserve" viewBox="0 0 63.746 29.201"><path fill="#FFF" fill-rule="evenodd" d="M52.33 1.738c.166-.033.316-.1.449-.2a17.93 17.93 0 0 1 3.35-.2c1.701.167 3.268 1.217 4.701 3.15.732 1.034 1.299 2.034 1.699 3l-4.949-1-2.451 2.9 1.352 2.6 5.398 1-.148.95c-.268.867-1.068 1.683-2.4 2.45-2.066 1.167-3.734 1.667-5 1.5l-.551 2.3c-1-.4-2.066-.75-3.2-1.05l.15-1.3-.95-.051-.15 1.45h-.05c-.167-.167-.35-.233-.55-.2-1.867-.533-3.65-.866-5.35-1-1.9-.166-8.617 1.417-20.15 4.75-10.5 3.066-16.133 4.816-16.9 5.25-.5.268-1.184.268-2.05 0-1.133-.434-2.05-1.366-2.75-2.8-.667-1.433-.6-2.667.2-3.7l1.45-.949c5.9-1.467 11.983-2.984 18.25-4.551 12.2-3.133 18.899-5 20.1-5.6 1.134-.433 2.767-1.833 4.9-4.2l3-3.35c.267-.267.667-.567 1.2-.9l.05.1c.167-.066.299-.133.399-.2l-.75 7.15.951.1.75-7.399zm-7.201 8.5-.25 5.25c-.033.133-.016.3.051.5.1.067.217.101.35.101l1.95.199c.1 0 .183-.016.25-.05.1-.033.167-.083.2-.149.1-.066.149-.15.149-.25l.45-5.3a1.121 1.121 0 0 0-.2-.4c-.066-.133-.167-.184-.3-.15l-2.1-.15c-.101-.033-.184-.033-.25 0-.101.067-.15.133-.15.2-.099.066-.15.133-.15.199zm-2.75 4.6a2.34 2.34 0 0 0-.6-1.3l-.05-.05c-.4-.367-.9-.6-1.5-.7-.134-.033-.267.017-.4.15-.167-.033-.3-.033-.399 0l-31.9 7.75a.449.449 0 0 0-.3.25c-.1.1-.133.217-.1.35 0 .134.05.234.15.301 1.3.967 1.8 2.3 1.5 4-.1.133-.1.232 0 .3.033.1.117.167.25.2.133.1.25.133.35.1l31.65-9.35h.1a1.52 1.52 0 0 0 .65-.45c.4-.4.6-.883.6-1.45l-.001-.101zm-1.399-.6c.233.2.366.434.399.7-.033.267-.116.5-.25.7l-.1.05a.478.478 0 0 1-.25.2v-.05l-30.95 9.1c.133-1.434-.25-2.617-1.15-3.55l30.95-7.45h.101c0-.033.066-.033.2 0 .133 0 .283-.017.449-.05.234 0 .45.117.65.35h-.049zM3.88 25.839c.433.399.95.583 1.55.55.6 0 1.1-.2 1.5-.601.4-.434.6-.982.6-1.649 0-.534-.217-1.017-.65-1.45-.434-.4-.967-.633-1.6-.7-.6.101-1.1.351-1.5.75-.4.4-.6.9-.6 1.5 0 .666.233 1.199.7 1.6z" clip-rule="evenodd"/></svg>
