<svg xmlns="http://www.w3.org/2000/svg" xml:space="preserve" viewBox="0 0 46.875 33"><path fill="#FFF" fill-rule="evenodd" d="M45.763 30.5c-.233 1.2-1.066 1.801-2.5 1.801h-39.5c-1.667 0-2.517-.816-2.55-2.45.133-.434.233-.851.3-1.25v-.05c2.034-8.301 2.034-16.351 0-24.15a8.809 8.809 0 0 0-.25-1.101c.133-1.433.967-2.15 2.5-2.15h39.5c1.4 0 2.233.6 2.5 1.8-.1.267-.183.55-.25.85-2.267 8.267-2.267 16.833 0 25.7.068.3.151.633.25 1zm-3.05-23.05c0-2.167-1.066-3.25-3.2-3.25H7.263c-2.167 0-3.25 1.083-3.25 3.25V25.1c0 2.167 1.083 3.25 3.25 3.25h32.25c2.134 0 3.2-1.083 3.2-3.25V7.45zm3.1 20.55c-1.833-7.833-1.833-15.417 0-22.75V28zm-4.35-20.55V25.1c0 1.3-.65 1.95-1.95 1.95H7.263c-1.3 0-1.95-.65-1.95-1.95V7.45c0-1.3.65-1.95 1.95-1.95h32.25c1.3 0 1.95.65 1.95 1.95zm-12.525 3.125-5.6-2.775a.64.64 0 0 0-.55-.025L17.063 10.6l-.025.025h-.1l-7.1 3.4a.629.629 0 0 0-.3.3.627.627 0 0 0-.025.425.616.616 0 0 0 .225.35l5.525 4.25.075.05a.977.977 0 0 0 .075.05L22.638 25a.59.59 0 0 0 .375.125.587.587 0 0 0 .375-.125l7.3-5.6.075-.05 5.525-4.25a.62.62 0 0 0 .225-.35.639.639 0 0 0-.024-.425.64.64 0 0 0-.301-.3l-7.1-3.4a.54.54 0 0 0-.15-.05zm-1.399.675-4.475 2.675-4.525-2.65 4.55-2.225 4.45 2.2zm-3.25 3.375 4.55-2.7 5.875 2.8-4.425 3.425-6-3.525zm4.899 4.35-6.175 4.75-6.175-4.75 6.225-3.6 6.125 3.6zm-17.875-4.25 5.875-2.8 4.625 2.725-6.075 3.5-4.425-3.425zM1.213 5.9c1.567 6.833 1.567 13.867 0 21.1V5.9z" clip-rule="evenodd"/></svg>
