<svg xmlns="http://www.w3.org/2000/svg" xml:space="preserve" viewBox="0 0 19.354 32.125"><g fill="#FFF" fill-rule="evenodd" clip-rule="evenodd"><path fill-opacity=".996" d="M4.752 2.9h.108v.072h.035v.683l.396-.215v-.036h5.934l.396.288v-.719h.035V2.9h.072v-.035h3.129V2.9h.18v.036h.035v3.093h-.035v.144h-.072v.036h-.646l.215.288v1.007h-.07v.036H2.055v-.036h-.072v-.036h-.037v-.827l.252-.359-.647-.073v-.036h-.108v-.144h-.037V2.865h3.346V2.9zm10.429 15.717h-.9l.182.287.035 6.869h-.035v.035h-.037v.072h.539v.072h.072v.107h.035v3.094h-.035v.035h-.18v.072h-3.129v-.072h-.072v-.07h-.036v-.324h.035v-.18h-.107v.07h-.035v.072h-.037v.037H5.039v-.037h-.072v-.072h-.035v-.034H4.86v.539h-.108v.072H1.406V26.06h.036v-.107h.108v-.072h.574v-.035h-.07v-.072h-.071v-6.869l.18-.287h-.648v-.038h-.072v-.035h-.072v-2.302h.035v-.071h.036v-.037h.72l-.217-.252v-4.351h.037v-.072h.072v-.072h12.407v.036h.035v4.387l-.217.323h.9v2.483zM1.983 8.547v-.036h.072v-.072h1.617v2.049H1.983v-.036h-.037V8.547h.037zm9.171 10.537 1.725-1.689v-.18l-1.725-1.763v3.632zm-5.72-3.453-1.941 1.583 1.941 1.799v-3.382z"/><path fill-opacity=".98" d="m16.296 10.309.611 2.122.215 4.712.252 1.761.395 1.188.289.072.252.826.539 1.655-1.115.359-.647-1.977-.18-.576.143-.217-.467-1.295-.252-1.761-.252-4.712-.539-1.438-.217-.54h-2.552V8.439h1.761v.719l1.008.036.791.719z"/><path d="M4.283 8.439h7.876v2.049H4.283z"/></g></svg>
