<svg xmlns="http://www.w3.org/2000/svg" width="88.5" height="32"><path fill-rule="evenodd" clip-rule="evenodd" fill="#FFF" d="M86.469 4.433V8.46l1.417.149c.099.199.186.399.261.597.099.151.162.298.187.448 0 .123-.063.248-.187.374-.149.148-.361.223-.635.223-.125 0-.261-.038-.41-.111h-.448l-.634 1.118-1.194-.485H74.791l-.521.635-.598-.448H66.51l-.112.635H55.132l-1.342.708c-.323.199-.647.372-.97.522-.348.099-.584.149-.709.149-.249 0-.485-.037-.708-.113-.15-.023-.25-.085-.298-.187l-.523-.334h-5.11c0 1.267.286 2.573.858 3.918.497 1.167 1.281 2.46 2.35 3.877 1.095 1.444 2.661 2.886 4.7 4.328-.049 0-.273.287-.67.858-.324.597-.735 1.244-1.231 1.94-.448.795-1.008 1.704-1.679 2.723-1.493-1.02-2.91-2.237-4.254-3.656-1.168-1.219-2.375-2.749-3.618-4.588-1.243-1.792-2.274-3.93-3.096-6.417-.099-.099-.236-.086-.411.038-.125.075-.224.162-.299.261l-1.118-.186c-.572.323-1.169.547-1.791.671-.498.151-1.083.186-1.753.112-.696-.075-1.368-.374-2.015-.896-.05 0-.285.188-.709.56-.422.375-.882.859-1.379 1.454-.521.623-1.007 1.32-1.455 2.09-.473.72-.797 1.454-.97 2.201 0 .05-.224.148-.671.297-.422.174-.921.287-1.493.335-.546.026-1.069-.098-1.565-.374-.474-.296-.771-.894-.897-1.789.025-.1.212-.497.561-1.193.298-.647.659-1.33 1.083-2.053.397-.746.771-1.43 1.119-2.051.373-.597.597-.896.671-.896-.074 0-.286-.147-.633-.447-.299-.298-.623-.411-.972-.335-.073.025-.322.111-.745.26-.448.125-1.007.312-1.679.561-.673.249-1.417.522-2.238.82-.847.299-1.691.597-2.538.896-1.989.721-4.215 1.542-6.677 2.462l-8.84 2.91-.751-10.555c.398-.299.858-.523 1.38-.672.474-.175 1.021-.311 1.642-.41.573-.125 1.207-.113 1.903.036 0 .05.547.037 1.64-.037 1.095-.125 2.313-.224 3.657-.298l5.409-.336c.348.101.696.211 1.044.336.622.223 1.144.335 1.566.335.149 0 .461-.073.934-.224.521-.1 1.056-.236 1.604-.41.621-.15 1.317-.36 2.088-.633l3.395-2.911.298.299h20.741c0-.049.076-.111.225-.185.074-.076.211-.139.41-.188.198-.049.496-.076.894-.076l15.967.149c.297.075.598.175.896.299.225.075.473.149.746.224.249.125.473.199.672.224h6.677c.348.448.685.858 1.007 1.232.273.298.573.609.895.933.273.273.51.423.708.446h5.857l.448-.149c.298-.521.51-.994.634-1.417.174-.349.336-.709.485-1.082.124-.375.236-.609.335-.71.075-.348.112-.534.112-.56v-.26h1.533zm-50.996 8.356l-2.015.037c-.398-.025-.746.085-1.044.335-.248.274-.374.61-.374 1.008 0 .322.126.609.374.857.298.249.646.375 1.044.375h2.015c.373 0 .671-.126.896-.375.224-.248.334-.535.334-.857 0-.398-.111-.734-.334-1.008-.225-.25-.523-.372-.896-.372z"/></svg>