<svg xmlns="http://www.w3.org/2000/svg" width="48.75" height="32"><g fill="#fff"><path d="M48.746 7.639c-.056-2.788-.781-4.516-1.505-5.63-.725-1.115-1.115-1.06-1.115-1.06S44.899.671 44.063.503c-.836-.167-2.397-.334-2.397-.334s-.558.111-.836.39c-.278.279-.446.502-.446.502s-.558-.056-1.003.279-1.059.892-1.059.892-1.021.035-1.84-.056C35.479 2.065 32.747.504 32.747.504s-.836.056-1.84.334-2.007.558-2.007.558-.725.446-1.171.78c-.446.334-.725.558-.725.558s-.279-.056-.725.39c-.446.446-3.568 4.46-3.512 7.359.056 2.898 1.338 6.355 1.45 6.913.111.557.278 1.449.278 1.449s-.725.279-.725.502c0 .223 0 2.787.279 3.01s.334.111.558 0l.223-.111v1.951s-.669.39-.725.725.167 3.122.167 3.289c0 .167.446-.279.446-.279l.334-.223v1.729c0 .223-.39.278-.334.613.056.334-.167 1.449 8.028 1.672 8.195.223 8.808.056 9.477-.056.669-.111.948-.613.948-1.059 0-.446.111-1.115.111-1.115s.279-.167.725-.167h.446s-.056.669 0 1.06c.056.39.39.836.892.557.502-.279.781-.669.725-.892l-.056-.223-.167-.781s.279.056.279-.501-.112-1.617-.056-2.174c.056-.557.223-1.449.223-1.449l-.334-.111s0-.613.111-1.004l.112-.39.334-.167s.334-1.282.446-2.174c.112-.892.334-1.338.334-1.338l-.613-.279s-.056-.613.279-.836c.334-.223.558-.39.725-.613.167-.223 0-.613-.056-.836s-.112-1.175.278-3.07c.39-1.895.892-3.679.837-6.466zm-18.007-.446c-1.561.223-1.617-.502-1.617-1.06 0-.557.167-1.784.501-2.118s1.059-.892 1.059-.892.669.669 1.115 1.45c.446.78.669 1.951.669 1.951s-.166.446-1.727.669zm4.237-1.951c-.78.613-1.839 1.115-1.839 1.115s-.447-1.283-.837-2.063c-.39-.781-1.059-1.505-1.059-1.505s.223-.279.558-.613.78-.948.78-.948.558.334 2.063 1.115c1.505.78 3.122.613 3.122.613s-2.008 1.672-2.788 2.286zm9.979 19.678c-.167.613-.056.334-.446.446-.391.112-1.06.167-1.06.167l.056-2.397s.557-.056 1.003-.056c.446 0 1.115.056 1.115.056s-.501 1.171-.668 1.784zm2.285-11.707c-.39 1.394-.334 2.174-.446 2.899-.112.725.167 1.282.167 1.282s-.39.557-.725.78-.279 1.227-.279 1.227h-1.059c-.446 0-1.45-.056-1.45-.056s.167-.781-.056-1.505c-.223-.725-1.561-1.951-2.229-2.843-.669-.892-.502-2.731-.391-5.073.112-2.341 1.394-5.185 1.84-6.132.446-.948 1.672-1.728 2.62-2.118 0 0 .836.056 1.338.725s1.449 3.624 1.394 5.296-.334 4.125-.724 5.518zM19.429 16.983s-.133-1.724-.265-2.52c-.133-.796-.802-1.316-.802-1.316s.265-7.56-7.494-7.56c-2.973 0-5.503 1.159-6.838 2.588-2.149 2.301-2.048 5.303-2.048 5.303s-.929.117-1.658.357c-.729.24 0 .704 0 .704s.736.211 1.797.211 1.32.047 1.32.047v.527c0 .107-.304.049-.304.178 0 .353.044 1.156.044 1.68 0 .265.267.101.279.265.008.113-.16.143-.146.266.025.221.06.456.102.7.021.119.14.194.163.316.335 1.713.856 3.702.856 3.702s-.295.032-.312.454c-.036.897.336 1.784.663 2.387.126.232.279.27.751.663.531.442 1.896.651 2.697.302 1.525-.663 1.837-1.153 1.837-1.153s2.719-.266 3.847-.729c1.127-.464 2.697-2.597 3.161-3.061.149-.149.41.069.6-.174.4-.515.785-.97.843-1.506.093-.856.104-1.626.104-1.626l.53-.066c.532-.067.273-.939.273-.939zM5.098 25.161c.666.012 1.811-.021 1.811-.021-.972.53-2.17.014-1.811.021zm4.842-2.286c-.022.499-.243.718-.243.718s-.818.032-1.282.032h-.928s1.24-1.27 1.589-1.602c.349-.331 1.152-.22 1.152-.22-.315.582-.265.542-.288 1.072zm.619-3.893c.133.862.221 1.547.221 1.547s-1.834.443-2.431.907-.796 1.062-1.525 1.491-1.26-.032-1.857-.629c-.378-.379-.277-2.252-.151-3.57.012-.126.124-.15.135-.264.03-.288.074-.47.044-.664-.03-.193-.132-.397-.132-.397s1.961-.012 2.956-.012 3.846-.332 3.846-.332l.044.685-1.282.376c-.001 0-.001 0 .132.862zm3.559 3.714c-1.629.618-2.346.853-2.346.853s-.078-1.035.555-1.648c.086-.083.067-.372.18-.32.317.146.814-1.181.621-1.228-.183-.043.127-.274.127-.274s.83.009 1.559.057c.862.057 1.954.451 1.954.451 0 .397-1.177 1.549-2.65 2.109zm-.022-5.084l.022-.553h1.923l.531.597-2.476-.044z"/></g></svg>