<svg xmlns="http://www.w3.org/2000/svg" width="35.109" height="39.937"><path fill-rule="evenodd" clip-rule="evenodd" fill="#FFF" d="M29.543 1.792c1.766 6.167 1.533 12.05-.7 17.65-1.333-.466-3.384-.966-6.15-1.5l-3.649-.75-.15-.3c-.033-.1-.15-.167-.35-.2-5.066-.233-8.883-.15-11.45.25-.133 0-.25.067-.35.2-.067.1-.083.217-.05.35-1.5.2-2.966.5-4.4.9-.8-4.767-.967-9.533-.5-14.3 9.7.367 18.95-.417 27.75-2.35v.05zm.9-.25h.15c.5-.133 1.017-.267 1.55-.4 2.133 7 1.85 13.4-.85 19.2-.467-.167-.95-.333-1.45-.5v-.05c2.267-5.799 2.466-11.883.6-18.25zM7.193 17.493c3.767-.567 7.517-.667 11.25-.3-.667 4.866-.716 11.851-.15 20.95h-8.4c-.133-6.633-1.25-12.867-3.35-18.7l.55-1.95h.1z"/></svg>