<svg xmlns="http://www.w3.org/2000/svg" width="92" height="32"><path fill-rule="evenodd" clip-rule="evenodd" fill="#FFF" d="M78.551 15.482l-.1-.065-1.901.032c-.089.068-.178.169-.267.3-.177.202-.256.412-.234.634 0 .222.102.446.302.668.089.088.178.168.265.233h2.102c.067-.065.134-.146.2-.233.113-.244.169-.502.169-.767 0-.267-.112-.489-.336-.666-.066-.046-.134-.092-.2-.136zm11.907 1.802c-1.49 1.135-3.202 2.046-5.138 2.734-1.89.689-4.447 1.167-7.671 1.435-1 .089-2.001.156-3 .2l-38.587.067-.035 4.103h-1.333v-4.97h-4.305c-.043-.045-.109-.1-.198-.168-.156-.109-.334-.166-.533-.166-.201.021-.379.09-.535.201-.065.045-.112.099-.134.166h-3.101c-.045-.067-.101-.121-.166-.166-.158-.135-.347-.201-.568-.201-.2 0-.366.066-.502.201-.065.045-.108.099-.131.166h-3.07c-.021-.067-.064-.121-.132-.166-.112-.135-.256-.201-.432-.201-.201 0-.369.066-.502.201-.067.045-.112.099-.134.166h-3.068c-.045-.067-.101-.133-.166-.201-.112-.131-.258-.198-.435-.198s-.322.067-.435.198c-.065.068-.121.134-.166.201h-3.234c-.021-.067-.065-.121-.134-.166-.111-.135-.256-.201-.432-.201-.158 0-.302.044-.435.134-.046.046-.079.077-.101.101h-1.7l-1.302.532H1.107c-.135-.177-.258-.389-.367-.633-.268-.488-.422-.822-.469-1.001-.044-.198-.044-1.123 0-2.767l.068-2.401c0-.066.011-.158.033-.268.021-.224.088-.399.201-.534.132-.11.311-.233.533-.364l.3-.137 6.97.035 1.469.533 1.635-.034.198.2c.112.112.244.167.401.167.132 0 .301-.077.5-.234l.267-.198h3.004l.197.198c.156.136.347.201.566.201.201.022.369-.035.502-.167.045-.044.077-.101.099-.167l.068-.065 2.867.032.167.2c.156.153.333.225.533.2.156 0 .322-.068.501-.2l.167-.2h3.067l.167.2c.113.132.256.2.434.2.18.024.355-.047.535-.2l.199-.2h3.067l.169.233c.177.156.343.234.5.234.243 0 .434-.078.566-.234.043-.046.077-.099.101-.166l.032-.067h4.303V6.177h1.402v7.07h3.567c.153-.021.289-.053.4-.099.156-.112.332-.223.534-.333l32.918.133 18.577 2.868c-.33.425-.863.912-1.597 1.468z"/></svg>