<svg xmlns="http://www.w3.org/2000/svg" width="90" height="32"><path fill-rule="evenodd" clip-rule="evenodd" fill="#FFF" d="M81.771 2.073c.307-.028.625-.041.96-.041.029-.027.043-.055.043-.084h.75c.028 0 .068.015.126.042l.04.042c0 .028.015.041.043.041h.125c.028.028.069.042.125.042.028.027.055.057.083.083.03.028.042.056.042.084 0 .028.015.055.042.083V2.657c0 .027.014.056.041.083.029.028.042.056.042.083.027.028.042.055.042.085V3.783c0 .028.013.042.042.042 0 .027.014.056.042.083v.083c-.028.028-.042.056-.042.084v.084c-.029.026-.057.04-.083.04v.084c-.013.013-.028.028-.042.041v1.005l.042.042c0 .027.014.041.042.041.028.029.056.058.083.084v.334c-.028.028-.042.056-.042.084 0 .028-.014.054-.042.083v2.547h4.718c.058.027.112.056.168.083l.041.042h.084V8.63c.055.028.11.056.167.083 0 .029.014.043.042.043l.083.083v2.919c-.028.029-.043.056-.043.084l-.041.042v.166c0 .028-.015.056-.042.083v.085c-.029.028-.057.042-.084.042 0 .028-.013.042-.041.042h-4.218c-.058.001-.1.016-.125.041h-.165c-.034.016-.061.029-.085.042.019.008.046.023.085.042v-.042c.055.028.109.056.165.083.028.028.055.041.083.041 0 .029.014.057.043.085v.082c.028.028.042.057.042.084 0 .029.015.057.042.084v.542c0 .026-.015.056-.042.083 0 .029-.014.057-.042.085l-.042.046v.041c0 .028.014.055.043.084l-.043.083c.027 0 .071.014.127.042.027.028.055.055.082.083 0 .028.015.042.042.042v.251c.028 0 .055.013.083.041.028.027.057.056.083.083 0 .028.013.042.042.042V14.808c-.029.027-.042.057-.042.084s-.014.056-.042.083c0 .028-.014.042-.042.042V19.644c0 .026-.013.054-.04.083 0 .028-.016.056-.043.084l-.083.082H85.067v.043c-.028.027-.055.041-.083.041 0 .027-.013.041-.042.041h-2.339c-.055 0-.125-.014-.21-.041-.026-.029-.041-.056-.041-.084-.027-.026-.055-.054-.083-.082v-.042-.085c-.029-.027-.057-.055-.084-.083v-.042-.084-.083-.084-.124H55.122c-.028.028-.054.056-.082.083v.25c.028.029.041.056.041.083.027.028.041.056.041.083v.127c-.028.028-.054.056-.082.082-.025.042-.04.068-.04.097v.041c-.026 0-.054.014-.083.042l-.041.043h-1.087c-.057 0-.126-.016-.21-.043-.027-.028-.042-.056-.042-.083-.028-.029-.054-.056-.083-.084v-.124c0 .027-.015.042-.041.042h-.125c-.057 0-.113-.015-.169-.042-.028-.029-.056-.056-.083-.085-.027-.027-.056-.055-.082-.083-.03 0-.056-.014-.084-.042 0-.029-.013-.057-.043-.084v-.083-.084-.083-.083-.084-.124-.084-.083-.083-.083-.084-.083-.125-.083-.083-.124c-.001-.029-.014-.057-.042-.084 0-.028-.014-.055-.041-.083 0-.028-.015-.056-.042-.083-.027 0-.055-.015-.083-.042v-.083c-.028-.028-.042-.056-.042-.083 0-.029-.015-.056-.04-.083 0-.028-.015-.056-.044-.083-.028-.029-.041-.056-.041-.083-.028-.028-.043-.056-.043-.083-.027-.028-.042-.057-.042-.085l-.04-.041v-.126c-.058-.028-.098-.055-.128-.083-.055-.027-.097-.056-.125-.083s-.069-.042-.123-.042c-.03.027-.044.055-.044.084-.029 0-.041.014-.041.041h-.043c0 .028-.014.055-.042.083V18.656c-.028.028-.042.056-.042.083l-.042.042c-.028.028-.042.056-.042.083-.014.014-.028.029-.042.042v.541c-.029.027-.044.055-.044.083-.026.029-.04.056-.04.083l-.042.043c-.028.026-.056.054-.083.083V20.03c0 .029-.014.057-.042.085 0 .028-.013.056-.042.083l-.042.043v.083c-.028.027-.042.055-.042.082v.083c-.028.029-.056.057-.083.084-.056.029-.097.055-.125.084 0 .028-.014.055-.042.083-.057 0-.097.015-.125.042h-.418c-.055-.027-.098-.042-.125-.042h-.083c-.058 0-.126-.014-.208-.041-.028-.029-.042-.057-.042-.083-.029-.028-.057-.057-.084-.083-.029-.029-.055-.043-.082-.043-.029-.026-.043-.056-.043-.083-.028-.027-.055-.055-.084-.082v-.126-.083-.085-.082-.084-.083-.085-.083c.03 0 .057-.014.084-.042 0-.029.015-.057.043-.084v-.083-.084-.063c-.028-.006-.058-.013-.086-.021h-.166c-.053-.026-.108-.04-.166-.041h-.166c-.058.028-.112.056-.167.083-.028.028-.056.057-.084.084-.028.027-.056.041-.084.041-.054.027-.111.055-.166.083-.027.028-.057.056-.083.084-.057.028-.098.057-.127.084-.083.026-.152.054-.209.083-.028.028-.054.042-.083.042 0 .027-.013.042-.041.042h-.126c-.083.028-.167.041-.25.041l-.041.041h-.125c-.113.029-.224.056-.336.084-.028 0-.056.014-.083.041H47.022c-.057 0-.111-.014-.166-.041-.031 0-.059-.014-.085-.041-.196 0-.39-.015-.584-.043h-.125l-.042-.041c-1.474 0-2.95-.013-4.426-.041-.056 0-.109-.015-.168-.042-.027-.029-.055-.056-.083-.085-.029-.027-.055-.055-.083-.083v-.042-.084c0-.027-.015-.056-.043-.083-.026-.028-.054-.056-.081-.084 0-.028-.015-.056-.042-.083-.028-.027-.042-.055-.042-.083-.028-.029-.043-.057-.043-.084-.028-.028-.056-.056-.084-.083l-.041-.041v-.042h-.083l-.042.042h-.125c-.112.028-.225.056-.335.083v.041c-.028.028-.043.056-.043.084-.027.028-.055.056-.083.083-.027.028-.055.056-.083.083v.167c0 .028-.015.056-.043.084 0 .028-.013.057-.041.084 0 .026-.013.04-.042.04v.085c-.027.027-.055.055-.082.083v.251c0 .028-.016.056-.044.083 0 .028-.014.056-.042.083 0 .028-.013.043-.042.043v.082c-.026.028-.054.058-.083.083v.084c0 .029-.015.055-.042.084v.083c-.026.029-.056.057-.083.083-.028.028-.041.056-.041.085 0 .027-.014.042-.043.042v.25c0 .027-.014.055-.042.083v.083c-.027.027-.056.055-.083.083-.028.029-.04.056-.04.083 0 .029-.015.043-.044.043v.166c0 .029-.014.057-.042.084v.083c-.027.028-.056.056-.083.082v.085c-.028.027-.043.056-.043.084 0 .027-.012.04-.042.04v.25c0 .027-.014.056-.041.083v.083c-.029.03-.057.056-.084.085-.028.027-.042.057-.042.082 0 .029-.013.041-.041.041v.251c0 .027-.015.056-.042.084v.083c-.028.028-.057.056-.085.084-.027.027-.041.055-.041.083s-.014.042-.04.042v.167c0 .027-.015.056-.044.084v.081c-.026.03-.054.058-.083.084v.083c-.028.027-.042.057-.042.084s-.014.041-.043.041v.166c0 .028-.012.057-.04.084v.083c-.028.03-.056.056-.084.084V24.697c-.028.03-.056.058-.083.084v.084c0 .026-.014.054-.042.082v.085c-.028.028-.055.054-.083.082V25.323c-.027.03-.055.058-.084.083v.168c0 .027-.013.054-.041.083v.084c-.027.026-.057.054-.083.083V26.032c-.028.026-.056.056-.083.083v.083c0 .026-.014.056-.042.083v.083c-.028.028-.056.055-.083.083-.028.03-.042.059-.042.085 0 .028-.015.042-.042.042v.167c0 .027-.013.056-.041.083v.083c-.029.026-.058.056-.084.082-.028.03-.043.057-.043.085l-.041.042c.028.027.056.042.083.042.027.028.056.042.084.042 0 .028.013.054.041.083v.083c.027.029.042.057.042.084.028.028.069.056.125.083v.083c.028.028.042.057.042.083v.083c.028.026.056.041.083.041V28.53c-.028.028-.056.057-.083.083 0 .028-.014.056-.042.083v.084c-.056.028-.097.056-.125.083-.027.029-.042.057-.042.085 0 .028-.013.056-.041.083 0 .028-.015.042-.043.042-.028.028-.055.057-.084.083H37.247c-.027.029-.056.057-.083.084-.027 0-.055.014-.082.042h-.128c-.222.028-.444.042-.667.042l-.041.042h-1.377l-.043-.042c-.195 0-.391-.014-.584-.042-.057 0-.124-.013-.209-.042l-.042-.041c-.083 0-.167-.015-.25-.043h-.124l-.043-.041c-.056 0-.11-.014-.167-.042-.056 0-.124-.014-.208-.042l-.083-.083c-.057 0-.111-.015-.167-.042-.084-.028-.152-.056-.209-.084-.057-.028-.097-.057-.125-.083-.058-.028-.111-.055-.169-.083-.026 0-.056-.014-.082-.042-.028-.027-.055-.056-.084-.083-.028-.028-.042-.055-.042-.083-.055-.027-.096-.058-.124-.083-.057-.029-.113-.056-.169-.083 0-.028-.014-.056-.042-.083-.028-.027-.055-.056-.083-.083-.028-.027-.056-.056-.084-.083-.026 0-.056-.014-.083-.042 0-.028-.014-.055-.042-.083 0-.027-.013-.056-.041-.084-.028-.028-.056-.057-.084-.083 0-.028-.013-.056-.041-.083 0-.028-.015-.056-.042-.085v-.081l-.042-.042c-.013-.014-.026-.028-.042-.042-.028 0-.055-.013-.083-.042 0-.027-.015-.056-.042-.083V27.2v-.083-.083-.083c-.026-.028-.056-.058-.083-.085v-.124-.084-.083-.083-.083-.083-.085-.125c.028-.028.042-.058.042-.083 0-.029.015-.057.041-.084v-.083-.084-.084-.082-.125-.084c.028-.026.042-.054.042-.083.028-.027.042-.055.042-.082.027-.03.041-.056.041-.083.028-.029.042-.058.042-.084.03-.029.042-.055.042-.083v-.125c.027-.029.042-.057.042-.084.028-.027.041-.055.041-.084.028-.028.042-.055.042-.083.03-.028.042-.057.042-.084.028-.026.041-.056.041-.083v-.084-.081c.029 0 .057-.016.084-.043 0-.026.015-.056.041-.083 0-.027.016-.055.043-.083 0-.026.013-.056.041-.083v-.083c.028-.028.042-.056.042-.083.028-.028.057-.055.083-.083v-.083c.028 0 .042-.014.042-.041 0-.029.013-.057.042-.084 0-.028.014-.055.042-.083.027-.028.043-.056.043-.084.028-.028.041-.055.041-.083.028-.027.043-.055.043-.083.027-.028.04-.056.04-.083.028-.027.057-.056.085-.083l.042-.042c0-.027.014-.056.041-.083 0-.029.015-.056.041-.085v-.081c.029-.029.042-.057.042-.084.029-.028.056-.056.084-.083v-.084c.03-.027.056-.055.083-.084v-.04-.083c.028-.028.043-.057.043-.084.028-.027.042-.055.042-.082.027-.029.04-.056.04-.085.03-.027.042-.056.042-.083.028-.028.042-.057.042-.083v-.084c.029 0 .057-.013.084-.042 0-.027.013-.056.041-.083v-.083-.084-.083c.028-.028.041-.056.041-.084.029-.028.042-.057.042-.083v-.125c.029-.028.043-.058.043-.084.028-.028.042-.055.042-.083.029-.028.041-.056.041-.084v-.083c.028-.027.042-.056.042-.083.027-.029.043-.057.043-.083v-.126c.028-.026.041-.056.041-.083.028-.027.043-.055.043-.082.028-.03.041-.056.041-.083v-.084-.084-.083c.028-.029.057-.056.083-.084v-.041c.028-.028.043-.056.043-.083.026-.029.041-.056.041-.085.03-.027.043-.055.043-.083v-.083c.027-.029.042-.057.042-.083.028-.028.043-.056.043-.083v-.126-.083c.027-.029.04-.057.04-.084.03-.028.043-.056.043-.083.027-.028.041-.056.041-.083v-.083-.084-.124c.03-.028.043-.056.043-.084 0-.028.014-.055.042-.083v-.083-.083-.086-.083l.083-.083.042-.042v-.085c.029-.027.042-.055.042-.083 0-.027.016-.056.044-.083v-.083-.083-.083-.083l-.044-.042v-.292c-.027 0-.042-.015-.042-.041v-.043l-.042-.042v-.041h-.041v-.125h-.042V16.7c-.028 0-.042-.015-.042-.042l-.043-.043v-.042c-.028 0-.041-.013-.041-.041l-.043-.041c0-.029-.013-.042-.04-.042v-.044h-.043v-.04l-.042-.042v-.041h-.043l-.041-.042c0-.028-.015-.042-.043-.042l-.042-.042h-.042c0-.027-.013-.042-.041-.042-.028-.028-.056-.041-.083-.041h-.043l-.042-.042c-.027 0-.041-.014-.041-.042h-.085c0-.027-.013-.041-.042-.041-.026-.029-.056-.042-.082-.042h-.043c-.028-.027-.056-.042-.083-.042l-.042-.042h-.04l-.042-.041c-.029-.028-.056-.042-.083-.042h-.043l-.042-.041h-.165l-.042-.042H32.2l-.043-.042H31.949l-.042-.042h-.167l-.041-.042h-.167c-.028-.028-.055-.042-.083-.042h-.042l-.042-.042h-.085l-.042-.042H30.07c-.028 0-.056.014-.083.042H29.611c-.028 0-.056.015-.083.042h-.042c-.028 0-.043.014-.043.042h-.083c0 .028-.014.042-.042.042h-.083c-.027 0-.056.015-.084.042h-.166c-.028 0-.056.013-.083.042h-.126c-.027 0-.055.013-.083.042h-.126c-.027 0-.055.012-.083.041h-.044c-.028 0-.043.014-.043.042h-.04c-.028.027-.057.041-.084.041-.027 0-.055.014-.083.042h-.083c-.029 0-.057.015-.083.042h-.083c-.029 0-.057.013-.084.042h-.041c-.028 0-.057.014-.083.041h-.043c-.028 0-.055.014-.083.042h-.087c-.027.028-.055.042-.082.042-.028 0-.055.013-.083.041l-.043.042h-.083c-.028 0-.056.015-.084.042h-.041c-.028 0-.057.014-.084.042h-.083c0 .028-.013.042-.041.042s-.057.013-.083.041h-.085c0 .027-.014.042-.041.042-.029 0-.055.013-.084.04h-.042c-.027 0-.055.017-.081.044h-.042c-.028 0-.056.013-.084.042h-.041c-.03 0-.057.014-.083.041h-.085c0 .028-.013.041-.041.041-.029 0-.055.014-.084.042h-.083c0 .029-.015.043-.041.043-.029 0-.056.014-.084.042h-.042c-.028 0-.056.013-.084.041h-.042c-.026 0-.04.014-.04.042h-.126c-.027 0-.055.014-.083.042h-.045c-.027 0-.057.013-.084.042h-.041c-.029 0-.058.014-.084.041h-.042c-.028 0-.056.014-.082.041h-.084c0 .028-.015.042-.042.042-.028 0-.056.016-.084.043l-.041.041h-.084c-.028 0-.056.015-.083.042h-.042c-.028 0-.055.014-.083.041h-.084c-.028.029-.056.043-.083.043-.027 0-.056.014-.084.042h-.043c-.028 0-.042.014-.042.04h-.042c-.029.029-.056.042-.083.042-.027 0-.042.014-.042.042h-.083c-.028.029-.056.042-.083.042-.029 0-.056.015-.083.042h-.042c-.03 0-.056.013-.083.041h-.042c-.028 0-.056.014-.084.042h-.041c-.027 0-.056.012-.083.041h-.041c-.029 0-.057.015-.084.041h-.044c-.027 0-.04.015-.04.042h-.042l-.042.042c-.027 0-.041.014-.041.042h-.043c-.028 0-.055.014-.083.042h-.043c-.028 0-.056.014-.084.041h-.041c-.028 0-.058.015-.084.042h-.041c-.029 0-.057.013-.083.04h-.083c-.028 0-.056.015-.084.042h-.041c-.029 0-.057.014-.083.043h-.043c-.028 0-.056.014-.084.042h-.043c-.028 0-.055.014-.083.041h-.084c-.028 0-.056.015-.083.042h-.083c-.029 0-.057.013-.085.042h-.041c-.028 0-.041.016-.041.041h-.044c-.028.029-.054.042-.083.042h-.082c-.03 0-.058.016-.086.043h-.082c-.028 0-.055.012-.084.04h-.041c-.056 0-.098.014-.126.042h-.041c-.028 0-.058.014-.083.041h-.084c-.027 0-.055.015-.082.042h-.043c-.029 0-.042.015-.042.043h-.125c-.027 0-.056.012-.084.04h-.083c-.027 0-.055.014-.083.042h-.084c-.028 0-.056.015-.083.042h-.042c-.028 0-.057.013-.083.041h-.126c-.028 0-.056.015-.083.042h-.124c-.029 0-.056.013-.083.041h-.126c-.028 0-.054.015-.083.042h-.124c-.028 0-.056.014-.083.042h-.044c-.028 0-.042.014-.042.041h-.042c-.028.029-.055.042-.083.042h-.126c-.027 0-.055.015-.082.042H18.5c-.028 0-.056.013-.083.041h-.125c-.028 0-.056.015-.083.042h-.043c-.028 0-.042.013-.042.041h-.042l-.041.042c-.028 0-.057.013-.084.042h-.042c-.028 0-.041.014-.041.042h-.126c-.028 0-.056.014-.083.041h-.041c-.03 0-.057.015-.084.042l-.042.041h-.041l-.043.043c-.028 0-.056.013-.083.041h-.041c-.028 0-.056.014-.085.042h-.083c-.028 0-.054.013-.082.041h-.084c0 .028-.014.042-.042.042-.028 0-.056.013-.084.042h-.042c-.027 0-.056.014-.082.042h-.126c-.027 0-.055.015-.083.043h-.083c-.028 0-.056.013-.084.04h-.043c-.027 0-.055.014-.083.043h-.041c-.028 0-.056.014-.084.042h-.125c-.026 0-.057.013-.083.042h-.083c0 .028-.014.041-.041.041-.028 0-.056.015-.084.041h-.043c-.028 0-.057.015-.085.043l-.059.063c-.026.007-.046.014-.065.019h-.043c-.027 0-.056.014-.083.042h-.083c0 .028-.014.043-.041.043-.028 0-.056.013-.084.041h-.083c-.028 0-.056.015-.083.042h-.041c-.029 0-.057.015-.085.043h-.083c-.028 0-.055.013-.083.041h-.042c-.028 0-.056.013-.084.043h-.125c-.028 0-.058.014-.085.042h-.04c-.028 0-.056.013-.083.04l-.042.042h-.125c-.028 0-.056.015-.084.041h-.125c-.027 0-.055.015-.083.043h-.042c-.056 0-.098.013-.127.041h-.04c-.028 0-.058.015-.085.042h-.041c-.029 0-.057.012-.083.042l-.043.038h-.125c-.028 0-.056.013-.084.041h-.125c-.028 0-.057.015-.084.042h-.041c-.029 0-.057.015-.083.041h-.166c-.029 0-.059.014-.086.042h-.042c-.026 0-.055.013-.083.043h-.041c-.029 0-.058.014-.084.042h-.086c0 .028-.013.042-.04.042-.028 0-.058.013-.085.041H11.778c-.028 0-.056.013-.085.041h-.083c-.029 0-.055.016-.083.043h-.125c-.03 0-.057.014-.084.041h-.168c-.027 0-.056.015-.083.042h-.125c-.028 0-.056.012-.083.042h-.124c-.03 0-.057.013-.084.042h-.124c-.03 0-.058.013-.087.041h-.04c-.027 0-.056.015-.084.042l-.041.042h-.042c-.027.026-.055.041-.083.041-.029 0-.043.015-.043.042h-.084c0 .028-.014.042-.041.042-.028 0-.057.014-.084.043h-.04c-.029 0-.058.013-.084.042h-.043c-.028 0-.042.014-.042.042h-.04c-.029.027-.058.042-.084.042-.058 0-.099.014-.127.041h-.041c-.028 0-.056.015-.084.042h-.042c-.028 0-.056.015-.083.043l-.042.042c-.027.027-.056.042-.083.042-.028 0-.056.014-.083.042l-.042.04h-.167c-.028 0-.056.016-.083.042h-.042c-.027 0-.043.015-.043.043H8.52c0 .027-.015.042-.042.042-.027 0-.055.013-.083.042l-.042.04h-.042c-.027.028-.055.043-.083.043h-.083c-.029 0-.056.014-.083.042h-.126c-.03 0-.056.014-.083.042h-.084c0 .028-.015.042-.042.042s-.055.012-.083.04h-.085c-.028 0-.056.016-.083.043h-.084c-.027 0-.056.014-.083.041h-.083c-.029 0-.057.015-.083.042h-.128c-.028 0-.056.015-.083.042h-.124c-.029 0-.056.014-.083.041h-.043c-.028 0-.041.015-.041.043h-.085c0 .028-.012.042-.041.042-.028 0-.056.013-.084.042h-.165c-.03 0-.058.015-.083.04H6.14c-.028 0-.055.015-.084.041h-.084c-.027.03-.055.043-.082.043-.028 0-.057.013-.084.042h-.041c-.03 0-.042.014-.042.042H5.68c-.029.027-.057.042-.084.042s-.056.013-.083.042h-.042c-.028 0-.056.013-.083.041h-.042c-.029 0-.043.015-.043.042h-.125c-.027 0-.056.014-.083.043h-.084c0 .028-.014.041-.041.041-.028 0-.056.014-.084.042h-.083c-.027 0-.055.015-.082.042h-.044c-.028 0-.056.014-.083.043h-.041c-.028 0-.057.012-.084.04h-.085c0 .029-.013.043-.041.043-.027 0-.056.014-.083.042h-.042c-.027 0-.055.014-.084.041h-.125c-.028 0-.056.015-.083.042h-.167c-.028 0-.056.014-.083.042H3.508c-.028 0-.055.014-.083.042h-.084c-.028 0-.056.013-.084.041h-.082c-.029 0-.057.015-.085.043H2.922c-.027 0-.055.013-.082.04h-.167c-.028 0-.056.014-.083.041h-.043c-.028 0-.042.015-.042.043h-.04l-.042.042c-.028 0-.056.014-.084.042h-.042c-.027 0-.056.014-.082.042h-.127c-.028 0-.056.014-.083.042h-.042c-.028 0-.055.015-.083.042-.029 0-.057.015-.084.041h-.083c0 .029-.015.042-.042.042s-.055.015-.083.042h-.043c-.028 0-.042.013-.042.042H1.42c0 .028-.014.041-.041.041-.029 0-.057.015-.083.043h-.085c0 .026-.015.041-.042.041-.029 0-.056.013-.083.04h-.084c-.028 0-.056.015-.083.043H.877c-.028 0-.057.015-.083.042H.752c-.028 0-.056.014-.083.043-.031-.015-.058-.03-.083-.043-.029-.027-.057-.056-.083-.084-.028-.027-.056-.055-.083-.081v-.043-.083c-.056 0-.126-.014-.209-.042 0-.028-.015-.055-.042-.083-.013-.015-.027-.028-.042-.042v-4.113l.042-.021c0-.028.013-.041.042-.041.028 0 .07-.015.125-.042h.167v-.042-.083-.084-.125-.083-.084-.083-.083-.083-.083-.135-.084-.083-.083-.082-.085-.083-.125-.083-.083-.084-.083-.083-.084-.125-.083-.083-.083-.083-.085-.083-.13-.082-.084-.083-.085-.083-.083-.126-.083-.084-.083-.084-.083-.083-.124-.085-.083c-.002-.029-.015-.07-.043-.125 0-.027-.013-.069-.04-.125v-.125-.126-.125-.125-.126-.083H.336c-.056 0-.112-.014-.168-.042-.027-.027-.055-.055-.083-.082-.028-.03-.057-.058-.085-.086v-.124-.084-.084-.083-.083-.084-.083-.127-.084-.083-.083-.083-.083-.083-.127-.083-.083-.083-.083-.085-.083-.125-.083-.084-.083-.085-.083-.082-.129-.084-.082-.083-.085c.028-.026.042-.055.042-.082.027-.028.042-.058.042-.086.028-.025.056-.055.083-.082.028 0 .042-.015.042-.042v-.083c.028-.027.042-.057.042-.084.028-.026.042-.054.042-.083.056-.028.097-.056.126-.084.027-.028.069-.056.125-.083.028 0 .054-.014.083-.042.028-.028.055-.041.084-.041.027-.029.055-.055.083-.083.027-.03.07-.057.125-.084.027-.029.055-.041.083-.041 0-.029.015-.043.042-.043h.126v-.041c.056.028.097.041.126.041.027 0 .04.015.04.043h.126c.056.026.109.056.167.082.028 0 .042.014.042.044h1.586l.043.039.042-.041H10.232c.028.028.07.041.125.041.027 0 .042.013.042.042 1.114-.029 2.213-.042 3.3-.042v-.041c.028 0 .056-.015.083-.044v-.041c.058 0 .112-.015.168-.041.055 0 .111-.016.167-.043.028-.026.07-.041.125-.041.055-.029.097-.058.125-.084.027-.028.057-.055.083-.083.028-.029.054-.057.083-.084.056-.028.112-.056.167-.083.027-.028.042-.057.042-.085.028 0 .056-.013.083-.04v-.042c.056 0 .112-.014.168-.042h.167v-.041h.125c.056.027.098.041.125.041.028.028.042.056.042.084.027.027.042.057.042.084s-.015.054-.042.083c0 .027-.015.055-.042.083-.056.028-.125.058-.209.083v.042c.029 0 .069.015.125.042.02 0 .04.007.062.022l.021-.022v-.042l.042-.042c.027-.025.055-.04.082-.04.032-.001.073-.015.126-.042h.062c.045-.002.096-.016.146-.042h.25v-.041h.459c.03-.001.072-.015.127-.042h.416c.029.013.057.027.083.042h.419c.029-.001.069-.015.124-.042h2.84c.028.013.057.027.083.042h.294c.029-.001.069-.015.123-.042h3.05c.027.013.056.027.083.042h1.044c.03-.001.072-.015.125-.042h1.964c.029-.028.056-.041.083-.041.027 0 .07-.016.125-.045.39 0 .779-.013 1.17-.04.028 0 .055-.015.083-.043h.125v-.041h.626c.028-.028.042-.056.042-.083.027-.03.07-.056.126-.084.026-.027.069-.055.125-.081.029-.029.07-.057.126-.084.027-.029.055-.057.083-.084l.083-.083c.028 0 .056-.014.084-.042.056-.027.11-.057.167-.083.028-.029.041-.056.041-.083.03-.028.071-.056.127-.083.028-.029.069-.057.125-.084.027-.026.057-.056.083-.082v-.086c.028-.027.056-.055.084-.083.028 0 .041-.014.041-.042.056-.029.112-.058.167-.083.028-.028.069-.056.125-.084.028-.027.057-.04.084-.04 0-.029.013-.041.041-.041.028 0 .071-.017.126-.045.223 0 .458-.013.709-.041.028-.028.07-.057.125-.083.03-.028.057-.056.084-.083.026-.028.056-.057.082-.083.029 0 .058-.014.083-.042.028-.029.042-.057.042-.083.03-.028.056-.055.083-.083.028-.028.057-.057.085-.084.027-.027.057-.055.083-.083.028-.028.055-.056.083-.084.028 0 .056-.015.083-.041.028-.028.055-.042.083-.042.029-.028.043-.056.043-.083.028-.029.042-.057.042-.083.029-.029.069-.057.125-.083.028-.028.068-.058.124-.084.028-.028.057-.055.083-.083.028-.026.056-.055.083-.083l.043-.041c0-.028.013-.056.042-.084.028-.027.043-.055.043-.084.027-.028.055-.041.083-.041 0-.027.012-.042.041-.042.03-.028.072-.041.126-.041.028-.028.041-.056.041-.084.027-.028.057-.055.083-.083.029-.028.057-.055.085-.083.026-.028.054-.056.083-.083.028-.027.056-.056.083-.084l.083-.083c.027 0 .043-.013.043-.042L34.538 6c.028-.03.056-.056.083-.083.03-.029.057-.057.085-.084.027-.029.055-.057.083-.084.028-.026.056-.056.084-.083.028-.028.055-.057.083-.084.026-.028.055-.054.083-.083.028 0 .042-.014.042-.041.057-.028.112-.058.168-.084.055-.028.109-.042.166-.042v-.043h.043l.041-.042c.029-.029.055-.043.083-.043h.127v-.041h16.286v-.041c.028-.027.042-.056.042-.084.028-.027.042-.055.042-.083.028-.027.057-.055.084-.083l.04-.042c0-.026.015-.056.044-.083.026-.028.04-.056.04-.083.03-.028.056-.056.083-.083l.042-.041c.028-.028.056-.042.083-.042h.083v-.045l.042-.042c.029-.028.057-.042.083-.042.028 0 .069-.014.125-.042h.419v-.04-.084c.026-.028.055-.056.083-.083.028-.028.07-.057.125-.084.029 0 .055-.014.083-.042s.057-.056.084-.083l.041-.042v-.042h.084c0-.028.013-.056.042-.083.028 0 .057-.013.083-.041.03-.029.058-.057.083-.083h.084c0-.029.015-.042.042-.042l.083-.083c.028-.028.058-.056.085-.082l.042-.044v-.083c.026-.028.054-.056.083-.083.027-.027.056-.055.084-.082.028-.03.056-.058.083-.085 0-.028.014-.055.04-.083v-.084-.127c.059-.028.099-.042.128-.042v-.042l.043.042v-.084h.083c.027 0 .054-.012.083-.042.028.03.056.056.082.084H55.294c.028-.028.04-.054.04-.083h.419c.029 0 .07.015.125.042l.083.083c.029.029.057.055.084.083.026.029.056.056.083.084 0 .027.014.057.042.084.03.028.055.041.083.041.028.028.057.055.083.083.028.029.056.057.083.084.027.028.055.056.084.083.027.027.055.056.083.083s.056.056.083.085c.03.026.058.054.084.082l.042.042c.029.028.071.041.125.041.028.028.069.055.125.083.028.029.042.056.042.083.012.015.027.028.041.042.014.014.028.028.043.042.03.03.07.057.124.083v.083c.056.028.097.042.125.042.028.028.056.057.083.084 0 .026.014.055.042.083.028.028.041.056.041.084l.043.041h1.461v-.038-.084-.083c.03 0 .056-.014.083-.042v-.042c.058 0 .112-.014.167-.042.056 0 .112-.013.167-.041.056-.027.113-.042.169-.042.028-.028.041-.057.041-.083.056 0 .111-.014.167-.042 0-.027.015-.055.041-.083.03 0 .056-.014.084-.042v-.042c.056 0 .11-.015.168-.042.055-.028.109-.056.165-.083.03-.028.058-.056.085-.082.027 0 .056-.016.082-.044h.042c.056-.028.112-.056.167-.083l.043-.042v-.042c.056 0 .111-.014.165-.042.03-.028.042-.056.042-.084.03 0 .056-.013.083-.041v-.042h.126c.028 0 .068.014.124.042.029.028.043.056.043.085 0 .027.013.055.041.082V3.576c0 .027.015.055.042.083.029.029.042.056.042.083.029.028.044.056.044.083 0 .027.012.056.04.083v.083l.042.042c.029.028.057.057.084.084 0 .026.014.055.042.083.027.028.042.056.042.084l.041.041h1.838c0-.028.014-.041.042-.041h.125v-.04h.211c.055.03.109.057.166.084.028.028.055.056.083.083 0 .028.014.042.04.042v.125c.028 0 .058.015.084.042.028.027.056.041.084.041 0 .028.013.056.041.083v.083c.017.018.031.03.042.042.028.028.055.056.083.083.028.029.056.057.083.083 0 .029.013.058.042.084 0 .028.014.055.042.083h.125v-.039h15.66c.029-.028.057-.056.084-.083.03 0 .056-.014.085-.043l.083-.083c.027-.027.04-.055.04-.083.03-.029.043-.057.043-.083.028-.028.042-.056.042-.083 0-.029.012-.058.041-.084v-.083c.028-.028.057-.056.083-.084.028 0 .042-.014.042-.042.027-.028.042-.056.042-.083s.013-.055.041-.084v-.081-.084-.084-.083c-.028-.028-.041-.057-.041-.083-.029 0-.042-.014-.042-.042v-.083-.083-.083-.083-.085-.083-.129-.084-.083-.083-.085-.083-.083-.126-.083-.084-.083c.027-.028.055-.056.083-.084.03-.026.072-.041.125-.041.083 0 .169-.015.251-.042.062 0 .119-.014.174-.042zm1.064.479l.021-.02c.014-.013.035-.027.063-.041h-.146c.014.014.027.029.042.041l.02.02zm-2.567 8.418c-.058.026-.112.054-.168.082h.25l.021-.041c-.019-.016-.04-.029-.062-.041l-.022-.021-.019.021zM55.605 3.056c.038.013.074.026.106.04v-.021l-.083-.041-.023.022zM41.887 16.021c-.028.028-.041.056-.041.083-.029.028-.056.056-.084.084.029.029.041.057.041.084V17.064c-.026.027-.041.056-.041.083-.028.029-.04.058-.04.085-.028.027-.042.055-.042.083l-.042.042c0 .029-.014.057-.042.084V18.486c0 .025.013.054.042.082v.166c0 .029.013.057.042.084 0 .029.014.055.042.083.027.028.069.056.125.083v.083c.026.028.041.056.041.084v.042h4.176c.028.028.07.041.125.041.029 0 .042.015.042.042h1.294c.028-.028.057-.042.084-.042s.07-.013.124-.041c.028 0 .071-.014.126-.042.028 0 .055-.013.084-.042.028 0 .067-.015.123-.042.055 0 .112-.013.167-.041.03-.028.07-.056.127-.083.027-.028.056-.056.083-.084.055-.027.111-.055.167-.083h.083v-.083-.083-.084-.083-.125-.083-.083-.083-.083-.085-.083-.125-.084-.082-.083-.084-.084-.082-.126-.084-.083-.083-.083-.083-.085-.127-.084-.083-.084-.376-.124h-4.531l-.02.041c-.028.028-.042.055-.042.083v.459c0 .026.015.055.042.083 0 .028.014.057.042.084v.251l.083.083v.084l.042.041c0 .028.014.055.042.083.028.029.056.057.083.084.027.027.042.056.042.083.028.029.043.058.043.085.027.027.04.055.04.083.028.028.07.055.125.083v.083l.042.042c0 .027.014.056.041.082.028.029.056.057.083.084.03.028.056.056.084.084.029.028.041.056.041.083.028.028.056.04.084.04.028.028.056.042.083.042s.069.014.125.043c.03.028.042.056.042.083.028.028.042.055.042.083v.166l-.042.042c-.027.028-.042.056-.042.083h-.041v.083l-.042.042c-.028.028-.042.056-.042.083H45.1c-.026.028-.054.042-.083.042h-.292c-.056-.028-.097-.042-.124-.042-.029-.028-.043-.056-.043-.083h-.04c-.058-.028-.112-.042-.168-.042-.057-.028-.112-.055-.167-.083-.028-.028-.042-.056-.042-.083h-.042c-.056-.029-.097-.042-.125-.042-.056-.028-.098-.054-.126-.083-.027-.028-.056-.055-.083-.083-.058-.029-.098-.042-.127-.042-.027-.027-.055-.055-.082-.083-.028-.028-.056-.057-.085-.084-.027-.028-.056-.055-.083-.083l-.083-.083c-.027-.029-.056-.057-.084-.084-.028-.027-.055-.055-.083-.084-.028-.026-.042-.055-.042-.082-.028 0-.042-.015-.042-.042-.027-.028-.041-.056-.041-.083-.03-.029-.057-.056-.085-.083v-.083-.085c-.028-.027-.042-.056-.042-.083v-.084c-.027-.028-.041-.055-.041-.083v-.041-.084c0-.028-.014-.055-.042-.083 0-.028-.015-.056-.042-.085-.028-.028-.042-.055-.042-.083v-.083-.084-.125c-.029-.028-.042-.057-.042-.084 0-.027-.014-.056-.042-.083v-.084-.083-.083-.124h-.167c-.028.026-.056.041-.085.041-.056.028-.109.055-.165.083-.055.028-.112.042-.167.042-.029.029-.056.055-.083.084-.024.028-.053.056-.081.083zm2.653 2.026l-.02.021.04.042v-.042l-.02-.021zm-21.488-3.152h.021c.076-.003.153-.017.231-.041.055 0 .109-.017.165-.043.029 0 .057-.013.084-.041.056 0 .111-.015.167-.042.139-.028.265-.057.375-.084.111-.028.209-.069.292-.126.056-.027.112-.055.167-.082.055 0 .111-.015.167-.042.112-.028.209-.056.294-.083.025-.014.045-.027.061-.042.027-.027.048-.054.063-.083.056-.029.111-.07.167-.127.056-.028.112-.055.167-.083H2.965c0 .028-.015.055-.044.083v.022c-.012 0-.027.006-.04.021H2.84c-.028 0-.056.014-.083.042l-.083.084v.041c-.028 0-.042.015-.042.042v.042c-.028 0-.041.014-.041.042v.669c0 .028.013.04.041.04v3.049c-.028 0-.041.016-.041.041v.586c-.028 0-.042.014-.042.042v1.377c0 .028.015.043.042.043v.083h.041v.124c0 .028.015.041.042.041v.084h.041v.042l.042.042v.042H2.8c.026.027.055.041.083.041s.04.015.04.042h.167v.041c0 .056-.013.099-.041.127 0 .032-.007.059-.021.083h.063c.028.027.042.057.042.084l.043.041v.042c0 .027-.014.055-.043.083 0 .027-.014.056-.042.083-.028 0-.07.014-.124.042h-.126l-.041.041v.063c.037-.001.08-.009.123-.021.029 0 .057-.013.085-.042.055 0 .111-.015.168-.041.082 0 .166-.015.25-.042.055 0 .11-.014.167-.042.027 0 .056-.014.083-.041.056 0 .111-.016.167-.042.084-.03.167-.056.25-.084.084-.027.167-.069.251-.125.056-.028.111-.055.167-.083.056 0 .111-.015.167-.042.083 0 .167-.014.251-.043.055 0 .11-.015.166-.042.028 0 .057-.012.083-.041.056 0 .112-.013.168-.042.083-.028.166-.055.25-.083.112-.03.223-.07.334-.125.083-.029.168-.057.252-.084.054 0 .11-.015.165-.042.083-.027.168-.055.25-.082.084-.03.167-.056.252-.083.082-.028.165-.058.25-.084.084-.028.167-.057.251-.084.083-.028.165-.056.25-.083.083-.029.167-.056.25-.084.083-.026.166-.054.25-.082.083-.029.166-.057.25-.084.083-.029.167-.057.25-.083.084-.028.168-.057.25-.084.084 0 .167-.013.251-.042.111 0 .223-.015.333-.042.029 0 .057-.014.084-.041.056 0 .111-.015.167-.042.083 0 .168-.014.252-.041.081-.028.165-.057.248-.084.084-.028.168-.069.25-.125.087-.029.168-.057.252-.084.083-.028.167-.056.25-.083.084-.028.169-.069.25-.125.057-.027.111-.055.167-.083.084-.028.154-.057.21-.083.083-.028.154-.07.209-.126.055-.028.111-.057.165-.082.028 0 .056-.015.084-.043.055 0 .112-.015.167-.042.084 0 .168-.013.25-.041.196-.029.391-.057.585-.083.084-.028.167-.071.251-.127.083-.029.167-.056.249-.083.084-.027.169-.055.251-.083.084-.029.168-.058.252-.085.083 0 .165-.012.248-.04.058 0 .112-.015.169-.042.028 0 .054-.013.083-.041.056 0 .112-.015.167-.042.083-.028.168-.054.25-.083.083-.028.166-.056.25-.083.083-.029.166-.056.251-.083.082-.028.167-.056.25-.083.083 0 .167-.013.25-.042.084-.028.167-.055.25-.084.083-.026.168-.068.252-.125.082-.027.166-.056.25-.083.082 0 .165-.015.25-.041.138-.028.263-.057.375-.085.111-.027.209-.068.293-.125.082-.028.166-.057.25-.083.083-.028.167-.056.25-.083.084-.029.168-.058.25-.085.084-.027.168-.056.252-.082.082-.029.166-.056.25-.086.083-.027.168-.055.25-.082.056-.028.111-.069.167-.125.056-.028.111-.069.167-.125.029-.016.057-.028.083-.042.029-.015.058-.028.083-.042.026 0 .055-.013.083-.041.057 0 .112-.015.168-.042h.063c.063-.007.125-.021.187-.042.112 0 .225-.014.335-.042.027 0 .056-.014.083-.041.057 0 .111-.014.166-.042.084-.029.168-.056.252-.083.11-.03.222-.07.333-.126.112-.028.224-.069.333-.125.057-.027.113-.055.168-.083l.063-.021.021-.022h.064l.855-.292c.096-.033.179-.061.261-.089zm8.499-.021c-.11.021-.229.042-.355.063-.056.056-.125.096-.208.126-.083.028-.167.055-.25.083H31.656l.042.042h.125c-.056-.057-.11-.113-.167-.168-.017-.034-.037-.067-.063-.104-.014-.014-.026-.028-.042-.042z"/></svg>