<svg xmlns="http://www.w3.org/2000/svg" width="32.074" height="32.074"><path fill="#FFF" d="M24.653 20.562c3.162-2.137 4.701-4.76 4.701-4.76s-4.11-7.656-13.544-7.656c-1.136 0-2.206.131-3.208.358l2.968 2.973c.089-.006.178-.008.269-.008 2.337 0 4.239 1.902 4.239 4.239 0 .104-.004.207-.011.309l1.686 1.681c.211-.625.325-1.294.325-1.99 0-2.104-1.045-3.961-2.64-5.091 4.001 1.063 6.428 3.69 7.502 5.141-.697.879-1.926 2.203-3.697 3.333l1.41 1.471zm-8.964-.619c-2.196-.076-3.973-1.831-4.085-4.019-.004-.072-.006-.145-.006-.217l-1.776-1.659c-.146.528-.224 1.084-.224 1.659 0 2.046.989 3.856 2.51 4.993-3.536-1.093-6.071-3.513-7.314-4.927.732-.869 1.927-2.111 3.537-3.207l-1.43-1.46c-3.027 2.154-4.637 4.695-4.637 4.695s4.986 7.467 13.544 7.467c1.061 0 2.059-.1 2.992-.277.002 0-3.061-3.046-3.111-3.048zM2.7506648 5.4782808l2.705689-2.7064544 23.171408 23.164855-2.705689 2.7064544z"/></svg>