<svg xmlns="http://www.w3.org/2000/svg" width="19.833" height="32"><g fill-rule="evenodd" clip-rule="evenodd" fill="#FFF"><path fill-opacity=".4" d="M5.987 8.875h10.156v3.064H5.987z"/><path d="M16.143 8.875H5.987v3.064h10.156V8.875zm2.637 2.495h.535c.333 0 .499.167.499.499v4.739c0 .333-.166.499-.499.499h-.535v9.479c0 .665-.333.998-.998.998H4.455c-.665 0-.998-.333-.998-.998V7.842c0-.665.333-.998.998-.998h4.668v-.677c0-.071.036-.107.107-.107h.463c.071 0 .107.036.107.107v.677h7.982c.665 0 .998.333.998.998v3.528zM8.125 14.862v9.479h8.018v-9.479H8.125z"/><path d="M10.619 21.989c.095 0 .143.048.143.143v.891c0 .071-.047.107-.143.107h-.962c-.119 0-.178-.036-.178-.107v-.891c0-.095.059-.143.178-.143h.962zm2.103 0c.119 0 .178.048.178.143v.891c0 .071-.06.107-.178.107h-.962c-.095 0-.143-.036-.143-.107v-.891c0-.095.048-.143.143-.143h.962zm2.138 1.14h-.962c-.119 0-.178-.036-.178-.107v-.891c0-.095.06-.143.178-.143h.962c.119 0 .178.048.178.143v.891c0 .071-.059.107-.178.107zm.178-3.029v.891c0 .071-.06.107-.178.107h-.962c-.119 0-.178-.036-.178-.107V20.1c0-.119.06-.178.178-.178h.962c.119 0 .178.059.178.178zm-1.319-2.066c0-.095.06-.143.178-.143h.962c.119 0 .178.048.178.143v.891c0 .071-.06.107-.178.107h-.962c-.119 0-.178-.036-.178-.107v-.891zm-2.102 2.957V20.1c0-.119.048-.178.143-.178h.962c.119 0 .178.06.178.178v.891c0 .071-.06.107-.178.107h-.962c-.095 0-.143-.035-.143-.107zm-2.138 0V20.1c0-.119.059-.178.178-.178h.962c.095 0 .143.06.143.178v.891c0 .071-.047.107-.143.107h-.962c-.119 0-.178-.035-.178-.107zm1.283-2.067c0 .071-.047.107-.143.107h-.962c-.119 0-.178-.036-.178-.107v-.891c0-.095.059-.143.178-.143h.962c.095 0 .143.048.143.143v.891zm.855-.89c0-.095.048-.143.143-.143h.962c.119 0 .178.048.178.143v.891c0 .071-.06.107-.178.107h-.962c-.095 0-.143-.036-.143-.107v-.891zM9.657 17c-.119 0-.178-.048-.178-.143v-.855c0-.095.059-.143.178-.143h.962c.095 0 .143.048.143.143v.855c0 .095-.047.143-.143.143h-.962zm4.24 0c-.119 0-.178-.048-.178-.143v-.855c0-.095.06-.143.178-.143h.962c.119 0 .178.048.178.143v.855c0 .095-.06.143-.178.143h-.962zm-.997-.143c0 .095-.06.143-.178.143h-.962c-.095 0-.143-.048-.143-.143v-.855c0-.095.048-.143.143-.143h.962c.119 0 .178.048.178.143v.855zM3.578 20.49c-.428 0-1.048-.066-1.404-.114-.428-.095-.808-.344-1.14-.749-.333-.403-.594-1.104-.784-2.102-.167-.95-.25-2.316-.25-4.098V11.93v-1.675c0-.475.06-1.045.178-1.71.119-.641.333-1.295.642-1.96.047-.119.106-.238.178-.356.119-.214.297-.404.535-.57.261-.19.476-.356.642-.499.593-.404 1.365-.63 2.315-.677.286 0 .499.012.642.036.618 0 1.199.036 1.746.107.594.071 1.069.178 1.425.321.642.214.9.356 1.057.512s.219.328.219.328.094.359.094.406l-.4.297v-.169c0-.158-.096-.332-.163-.489-.047-.135-.37-.305-.972-.508-.334-.135-.78-.237-1.338-.304-.513-.068-1.059-.102-1.638-.102-.135-.022-.335-.034-.604-.034-.891.046-1.616.259-2.173.643-.156.136-.357.293-.602.474-.223.158-.391.339-.502.541-.067.113-.124.227-.167.339-.291.632-.491 1.252-.603 1.862C.4 9.374.343 9.916.343 10.367v3.012c0 1.692.079 2.99.234 3.893.179.947.425 1.613.737 1.996.311.384.668.621 1.07.711.334.045.776.089 1.178.089l.016.422z"/></g></svg>