<svg xmlns="http://www.w3.org/2000/svg" width="47.875" height="32"><path fill-rule="evenodd" clip-rule="evenodd" fill="#FFF" d="M8.387 1.282v.192l.384.039v.422l27.197-.077v-.233l.23-.152.806.039.461.269v.153h.192v.422l.346.268h.537l.077.079c.08.051.129.102.156.154.025.051.038.114.038.189v.077h8.528l.077.079c.025.05.051.125.076.229.128.258.194.565.194.923 0 .356-.038.704-.117 1.037-.052.178-.102.307-.153.384l-8.683.038-.153.346h-.767v1.497c-.051.154-.103.257-.154.307-.052.078-.102.129-.153.154l-.076.039h-5.765l-.191.423h.538c.436.051.822.153 1.152.309.334.152.628.319.885.499.126.101.217.177.267.229l-.153.194h-3.266l5.454 18.859-.306.153.077.04c.077.024.151.05.229.076.104.051.207.128.308.231v.459c-.025.026-.062.065-.113.117-.128.076-.296.153-.5.231-.179.101-.356.176-.537.229l-.193.039h-.538l-.079.229h-1.305v.422h-2.881v-.383L24.674 9.886l-.346-.232-.537.999-.038.883h.114l.039.153.152.041v2.458l-.152.039v.153l-1.459.5c-.436.154-.947.308-1.537.461-1.154.307-2.101.422-2.843.347-.665-.077-1.344-.23-2.037-.463-.205-.051-.408-.113-.614-.191l-.191-.116-.424.347-.654.193-.153.267-1.383 3.303c-.974 2.408-1.625 4.034-1.958 4.88-.053.128-.077.244-.077.346-.026.155-.026.333 0 .536.024.335.087.769.191 1.307l.729.039c.128.026.219.05.268.076.077.029.152.079.232.156.026.051.049.089.077.114l-.039.076-.422.384c-.36.282-.706.487-1.037.615-.36.129-.833.242-1.421.348l-.77.113-6.683.077-.231-.266-.077-.77-.537-.116c-.153 0-.257-.025-.309-.077-.05 0-.088-.024-.114-.076l-.036-.08c0-.128-.013-.282-.038-.463-.051-.126-.089-.243-.113-.345-.029-.18-.039-.446-.039-.806 0-.359.039-.704.113-1.037l3.419-9.181c.18-.229.358-.487.538-.768.384-.564.602-.922.654-1.074.077-.258.127-.464.152-.617.052-.23.038-.46-.038-.691-.077-.282-.206-.575-.385-.883-.153-.281-.346-.551-.576-.808-.178-.178-.473-.421-.882-.727l-.536-.422v-.655c.127 0 .28-.05.46-.153.384-.18.728-.449 1.035-.808.309-.384.525-.794.653-1.227.026-.13.052-.257.078-.385v-.155c-.026-.024-.052-.064-.078-.114-.076-.103-.166-.192-.268-.268-.103-.076-.23-.129-.385-.155l-.191-.077c-.102.024-.204.038-.307.038-.257-.024-.447-.09-.576-.192-.179-.102-.295-.242-.346-.421-.101-.232-.101-.487 0-.77.103-.307.295-.5.577-.576.179-.051.371-.051.575 0 .078 0 .231.127.463.384.126.128.243.257.342.386v.422l.194.23.04-.462c.025-.127.052-.256.077-.384.076-.282.19-.511.345-.689.128-.182.345-.347.652-.5.154-.077.295-.128.423-.153v-.27h1.228v-.652h.73zm9.795 8.68c-.204.024-.434.088-.691.19-.537.23-.984.565-1.343 1.001-.361.433-.588.919-.692 1.46-.077.281-.116.508-.116.69l.039.152c.05.128.115.258.191.386.23.409.615.754 1.153 1.036.333.18.794.294 1.382.345.64.079 1.204.066 1.69-.037 1.076-.256 1.984-.653 2.728-1.189.179-.154.331-.332.459-.54.077-.128.142-.282.192-.46.028-.101.038-.434.038-1 0-.562-.024-.96-.077-1.189-.023-.155-.178-.424-.46-.808-.281-.356-.512-.588-.69-.69-.231-.128-.447-.179-.653-.153-.155 0-.345.037-.578.113-.153.053-.283.155-.382.308l-.117.193.193.039-.038.384c-.026.024-.052.061-.078.113-.077.128-.14.245-.191.346-.18.384-.27.745-.27 1.076 0 .359.041.666.118.921.049.154.166.387.344.693.103.178.332.371.693.575.176.102.356.18.537.231v.19c-.23.026-.5-.011-.808-.114-.589-.18-1.05-.499-1.382-.959-.177-.281-.308-.704-.383-1.27-.026-.178-.051-.37-.078-.574v-.231c-.025-.103-.05-.23-.077-.384-.077-.256-.127-.398-.154-.424-.05-.05-.152-.14-.307-.268l-.192-.152z"/></svg>