<svg xmlns="http://www.w3.org/2000/svg" width="50.75" height="32"><path fill-rule="evenodd" clip-rule="evenodd" fill="#FFF" d="M50.312 3.257c.056.029.14.042.253.042l-.041 1.014.169 1.397c-.059.282-.142.577-.253.887-.057.283-.142.549-.256.803-.083.367-.168.677-.251.931-.17.704-.339 1.24-.508 1.608-.142.366-.24.634-.297.803-.083.14-.155.225-.211.253-.029.057-.07.086-.126.086H29.296c-.028 0-.225.042-.592.126-.396.169-.831.482-1.312.929-.422.424-.817 1.045-1.184 1.861-.422.79-.635 1.889-.635 3.299v.465h-.083c-.028.026-.308.098-.845.209-.507.114-1.126.199-1.86.256-.707.085-1.48.125-2.327.125-.846-.027-1.577-.154-2.199-.382-.198.059-.451.243-.761.553-.339.364-.522.76-.549 1.181-.03.255-.112.777-.256 1.566-.14.817-.308 1.677-.506 2.579-.169.902-.311 1.733-.421 2.496-.172.733-.268 1.156-.296 1.268l.676 1.903h-.128c-1.326.167-2.678.324-4.06.465-1.181.083-2.464.155-3.847.212-1.382.026-2.722-.042-4.017-.212-.084 0-.183-.013-.297-.044-.226-.083-.394-.224-.505-.421-.171-.282-.255-.789-.255-1.522 0-.451.042-1.029.126-1.736.113-.675.323-1.465.634-2.366.254-.931.62-2.015 1.101-3.257.478-1.24 1.084-2.665 1.818-4.271v-.167c0-.085.013-.185.041-.297.029-.17.044-.354.044-.551 0-.563-.128-1.138-.382-1.734-.225-.563-.803-.93-1.733-1.098-.056 0-.296-.012-.718-.042-.452 0-.946-.029-1.478-.083-.511 0-1.003-.015-1.482-.044h-.72l-.126-.125v-.129c0-.138.042-.237.126-.294.084-.31.381-.62.89-.931.478-.31 1.353-.62 2.62-.929.029-.029.128-.198.297-.508.168-.31.255-.677.255-1.1 0-.168-.015-.309-.044-.423-.027-.141-.099-.323-.211-.549-.084-.059-.182-.169-.297-.338-.141-.226-.351-.635-.633-1.229v-.8l.804-.213c.083.056.155.098.211.127.113.114.197.17.253.17h1.438c0-.056.059-.17.169-.338.029-.113.084-.211.168-.295L7.48 3.299c.054-.028.138-.056.251-.083.113-.056.213-.113.298-.17v-.635c0-.139.014-.324.04-.549h1.565l1.099 1.1 1.861-.042.634-.339 7.653-.042c.085.114.155.209.212.294.14.142.24.212.295.212l9.938.17.126.083c.028.056.085.083.169.083h.549c.03-.056.043-.096.043-.125 0-.055.014-.098.042-.128.056-.056.112-.11.168-.167l11.164.083c0 .083.015.157.042.212 0 .084.014.154.042.212v.126h.591c0-.029.029-.126.084-.296.027-.056.084-.112.168-.17h2.199c.059-.026.183-.097.381-.209.197-.143.395-.267.594-.381.195-.142.406-.24.632-.296.199-.086.354-.128.466-.128.169 0 .283.113.337.339.085.254.128.421.128.508.111.083.267.141.464.167.083.031.196.059.338.087 0 .027.028.042.085.042h.174zm-30.275 8.456c-.282 0-.521.085-.721.255-.167.196-.251.438-.251.718v3.088c0 .253.085.491.251.719.199.169.438.252.721.252h3.298c.282 0 .521-.083.718-.252.225-.228.339-.466.339-.719v-3.088c0-.28-.114-.521-.339-.718-.197-.169-.436-.255-.718-.255h-3.298z"/></svg>