<svg xmlns="http://www.w3.org/2000/svg" width="20.104" height="32"><g fill="#FFF"><circle cx="10.064" cy="4.219" r="2.713"/><path d="M15.931 11.424l-3.375-3.701c-.127-.141-.287-.227-.453-.288-.188-.097-.393-.167-.619-.167H8.645c-.224 0-.429.068-.614.165-.178.058-.35.145-.484.294L4.172 11.43c-.422.461-.389 1.177.075 1.599.215.197.488.296.762.296.305 0 .613-.126.836-.371l1.439-1.578v2.612H6.196v4.464h1.089v2.14H6.196v1.088h1.133c.105.527.548.933 1.105.933s1.001-.405 1.106-.933h.338v-1.088h-.294v-6.025h.96v6.025h-.319v1.088h.363c.106.527.55.933 1.106.933s1-.405 1.105-.933h1.107v-1.088h-1.063v-2.14h1.063v-4.464h-1.063V11.4l1.412 1.549c.223.245.531.371.838.371.271 0 .545-.099.762-.296.465-.422.5-1.139.076-1.6z"/></g><g fill="#FFF"><path d="M10.534 27.268h3.023V28.5h-3.023zM10.534 24.452h3.014v.414h-3.014zM10.534 23.607h3.023v.207h-3.023zM10.534 29.221h3.014v1.854h-3.014zM10.534 25.639h3.023v.833h-3.023z"/></g><g fill="#FFF"><path d="M6.429 27.284h3.234v1.232H6.429zM6.429 24.469h3.224v.415H6.429zM6.429 23.624h3.234v.207H6.429zM6.429 29.237h3.224v1.854H6.429zM6.429 25.656h3.234v.832H6.429z"/></g></svg>