<svg xmlns="http://www.w3.org/2000/svg" viewBox="0 0 19.438 32"><defs/><path fill="#FFF" fill-rule="evenodd" d="M14.917 11.512v.072c.022.023.034.048.034.072 0 .023.012.047.036.072v.035c.025.023.037.048.037.072.024.023.047.047.071.071v.036c0 .024.013.035.036.035v.072c.025.023.036.048.036.072s.012.048.037.073l.035.035v.071c.025.023.037.048.037.071l.036.037v.108c.024.024.048.046.072.071 0 .024.011.047.034.073l.036.036v.071c.024.023.037.048.037.072v.036c.023 0 .035.011.035.035v.071c.025.023.036.048.036.072.024.023.036.047.036.072.023 0 .036.013.036.036.023.023.037.047.037.072.023.024.034.047.034.071h.071c0 .024.024.037.073.037.024.022.047.046.071.07.023.024.037.047.037.072.022.024.035.048.035.071v.073c.023.022.036.046.036.069 0 .026.013.048.036.071v.038c0 .023.011.046.036.07v.073c.024.024.036.047.036.071.024 0 .037.012.037.035v.037c.024.023.036.046.036.071v.073l.035.036c0 .023.011.045.037.07 0 .024.012.049.036.072v.072c.025 0 .036.011.036.036l.035.037c.025.023.036.046.036.071.024.026.036.048.036.071v.037c.023.023.036.047.036.071.023.025.037.049.037.072l.034.035c.025.024.036.047.036.07l.037.038v.072c.023.023.034.047.034.071l.037.036c0 .022.012.047.036.072 0 .023.011.049.034.071v.036c.026.024.038.047.038.072l.034.036c.025.023.037.047.037.071 0 .024.012.036.035.036v.072c.024.024.036.047.036.072.024.023.036.048.036.072l.037.035c.023.024.036.049.036.072l.035.036v.072l.035.035v.071c0 .024.013.049.037.072v.073c.023 0 .036.011.036.034.024.023.035.048.035.073v.035c.025.024.049.047.072.072l.037.037v.071c0 .024.012.048.035.071v.072c.024 0 .037.012.037.035v.073l.035.037v.069l.036.039c0 .022.012.045.035.069 0 .023.013.047.037.071v.109c.023.023.036.048.036.071l.037.037c.023.022.046.047.072.07v.037c.024.024.035.048.035.072v.071l.036.036c.024.023.036.049.036.071v.074l.037.035v.035c.024.024.047.048.071.073 0 .023.012.047.036.07 0 .024.012.049.035.074 0 .022.013.036.036.036v.143l.071.072c.025.023.048.047.072.07v.072c.024.023.048.049.072.074v.034c.023.024.035.048.035.073.025.023.037.048.037.071v.036c.023.024.047.037.072.037 0 .024.012.048.036.072 0 .023.012.047.036.071 0 .024.011.048.036.071v.108c.023.023.034.047.034.071l.037.037c.024 0 .047.011.072.036v.071c.023.025.035.048.035.072l.036.035v.145c.025 0 .049.011.073.034 0 .025.011.05.034.072.024 0 .036.011.036.035 0 .023.013.048.036.071v.36c-.023 0-.036.011-.036.034v.072l-.036.036v4.152l.036.037v.071c0 .025.013.048.036.071v1.04l.036.036v.07l.036.038v1.541l.035.036c0 .023.012.048.036.072v1.289c-.024 0-.036.011-.036.035v.072c-.024.022-.035.046-.035.072v1.397c0 .025-.013.048-.036.071v.072c0 .023-.013.047-.036.072l-.036.036c0 .024-.012.047-.036.07-.023.024-.034.048-.034.072-.024.025-.037.048-.037.072h-.037c0 .024-.011.048-.036.072h-.043c-.072.025-.12.048-.143.071-.048 0-.095.012-.144.035h-.251c-.048-.023-.094-.035-.142-.035-.024-.023-.06-.046-.107-.071 0-.024-.013-.048-.037-.072v-.287l.037-.035c.024-.023.047-.048.071-.072.024-.023.048-.046.071-.071h.143c.024-.023.048-.047.071-.072V23.874c-.022-.023-.035-.046-.035-.071-.024-.024-.047-.037-.072-.037V22.834c-.023-.024-.035-.046-.035-.071v-.037c-.024-.023-.036-.047-.036-.072V21.54c-.023-.024-.048-.047-.071-.071v-.432c-.024-.022-.036-.047-.036-.07-.024-.024-.035-.049-.035-.072v-.288l-.036-.035c-.024-.024-.037-.049-.037-.072V20.286c-.024-.024-.036-.047-.036-.072v-.071c-.024 0-.036-.013-.036-.036 0-.025-.011-.048-.035-.073v-.071c-.025 0-.048-.012-.072-.036v-.43c-.025 0-.037-.011-.037-.036-.024 0-.036-.012-.036-.037 0-.023-.012-.047-.037-.07 0-.024-.011-.047-.035-.072v-.071c-.023 0-.036-.012-.036-.037 0-.023-.011-.048-.035-.071-.024-.024-.037-.048-.037-.073-.023 0-.035-.011-.035-.035v-.035c-.024-.024-.037-.047-.037-.071a1.6295 1.6295 0 00-.072-.072c0-.024-.011-.036-.035-.036 0-.025-.013-.048-.036-.072v-.071c-.024-.025-.037-.049-.037-.073v-.034l-.032-.036c0-.024-.011-.047-.035-.071 0-.024-.013-.049-.036-.07 0-.027-.013-.037-.037-.037v-.072c-.023-.024-.036-.048-.036-.073-.024-.023-.036-.047-.036-.07h-.035v-.073c0-.025-.011-.047-.037-.071v-.073c-.023-.023-.045-.035-.072-.035 0-.023-.011-.048-.034-.07h-.073c-.023-.025-.058-.049-.107-.074-.024-.022-.034-.047-.034-.071-.025 0-.049-.011-.073-.036v-.071c-.024-.024-.036-.047-.036-.072l-.036-.037v-.07c-.023 0-.046-.014-.071-.037-.024-.023-.048-.047-.073-.071 0-.025-.012-.047-.035-.072v-.037c0-.023-.012-.048-.036-.071 0-.024-.012-.047-.037-.069 0-.027-.012-.039-.036-.039v-.069c-.025 0-.036-.012-.036-.037-.023-.023-.048-.048-.071-.073v-.034c0-.023-.013-.048-.035-.072v-.071c-.024-.024-.048-.047-.072-.071l-.036-.037c-.024-.025-.049-.048-.073-.072V16.275c-.023-.024-.046-.048-.071-.073-.023-.023-.048-.048-.071-.072 0-.023-.013-.045-.036-.071l-.036-.035c-.023-.024-.036-.048-.036-.072l-.035-.036v-.072c-.024 0-.037-.013-.037-.035-.024-.024-.047-.049-.07-.072 0-.024-.013-.047-.036-.072-.025-.023-.036-.048-.036-.072l-.036-.036c-.024-.023-.037-.047-.037-.071-.023 0-.047-.011-.072-.036v-.072c-.024 0-.036-.012-.036-.036-.023-.022-.036-.048-.036-.071a1.6108 1.6108 0 00-.071-.072c0-.024-.012-.036-.037-.036 0-.023-.012-.048-.036-.071a1.2097 1.2097 0 00-.071-.072l-.036-.038c-.023-.023-.047-.046-.072-.07l-.033-.035c0-.022-.013-.046-.038-.072v-.071c-.023-.023-.047-.037-.071-.037 0-.023-.012-.045-.036-.071-.024-.024-.037-.048-.037-.071-.023 0-.036-.012-.036-.037-.023-.025-.048-.036-.07-.036-.025-.024-.036-.048-.036-.072 0-.023-.013-.048-.036-.072-.908 0-1.827.013-2.758.036 0 .024-.012.036-.036.036 0 .023-.011.047-.035.072v2.079h.143c.071 0 .144.011.214.035 0 .024.012.037.037.037.094.022.166.034.215.034.047 0 .095.013.143.037h.072c.143.023.299.035.465.035h.18c.022.024.047.035.071.035.024.025.047.038.071.038.048 0 .085.012.108.035h.037c.095.024.178.037.25.037.07 0 .131.011.179.036.023.023.048.034.071.034h.072c.048 0 .083.012.107.039h.072c.047.022.097.032.143.032.048 0 .109.013.18.037.023.023.047.047.072.071.047.024.083.037.106.037h.073c.071 0 .141.012.213.037.025.022.049.047.073.071.022.024.058.048.107.072.047.022.095.047.143.07.024 0 .061.012.108.037.023.024.06.036.108.036.046.024.094.048.142.07 0 .025.025.049.072.072l.036.037c.023.023.048.047.071.071.025.023.048.047.071.072v.035c.049.024.084.048.109.073.024.023.058.035.107.035 0 .024.023.047.071.071 0 .024.011.048.036.073.024 0 .048.013.072.036s.036.045.036.07c.023.026.046.049.071.073.024.023.048.036.072.036.023.023.047.047.071.07l.036.037c.023.024.047.047.073.071 0 .023.01.038.034.038 0 .023.013.047.036.07.024.024.037.047.037.072.023.023.034.048.034.071l.037.037c.024.024.036.048.036.072l.034.036v.071l.038.035v.071c.022.023.034.048.034.071.025.024.037.049.037.073v.036c.023.024.035.049.035.071v.037c.024.023.049.047.072.07v.037c0 .024.012.047.037.071v.143c.023 0 .036.011.036.035.024.023.035.048.035.071v.037c.024.024.035.047.035.071v.107c0 .023.013.049.037.072v.107c.023.025.036.048.036.072l.035.036v.071c.025 0 .036.012.036.036v.07c0 .025.013.049.036.073v.036c0 .023.012.048.037.072v.106c0 .025.012.048.035.073v.036c.024.023.037.048.037.071.024.024.035.048.035.072l.036.035c.024.024.035.048.035.072.025.024.037.049.037.072v.072c0 .024.012.048.036.071v.072c0 .023.011.049.037.073v.035c.023.024.035.048.035.072.024.024.037.049.037.073v.034l.035.036v.322c.023.025.036.048.036.072v.035l.036.037v1.719c-.024.025-.036.047-.036.072-.024.023-.036.046-.036.07v.394c0 .024-.011.049-.035.072v.071c0 .024-.013.046-.037.072l-.035.035v.143l-.037.037v.035c-.024.023-.036.048-.036.072v.178c-.024.023-.037.049-.037.072-.023.024-.035.048-.035.072l-.036.037v.034c-.023.024-.035.048-.035.072v.072c0 .023-.012.035-.037.035v.073c-.023.023-.035.047-.035.071v.07l-.072.073c0 .023-.011.048-.036.072v.071c0 .024-.011.035-.035.035 0 .025-.013.049-.036.074 0 .023-.012.048-.037.072v.071l-.033.037v.035c-.022.024-.048.048-.071.073v.07c-.024 0-.037.013-.037.036v.072c-.023.023-.036.046-.036.07 0 .024-.012.048-.036.073v.037l-.035.035c0 .023-.011.049-.037.072v.071l-.034.036c0 .022-.011.048-.038.072v.07l-.034.036c-.024.023-.036.048-.036.071l-.037.037c0 .023-.011.047-.034.072v.072l-.037.036c0 .022-.011.048-.036.072 0 .023-.012.046-.034.07 0 .023-.014.036-.037.036-.024.024-.036.049-.036.072 0 .024-.012.037-.036.037 0 .022-.011.046-.036.07 0 .024-.011.037-.035.037 0 .023-.011.047-.036.07 0 .024-.012.049-.036.072-.025.024-.048.048-.071.072v.036c-.024.024-.036.047-.036.072-.024.024-.048.036-.072.036 0 .023-.012.048-.036.071 0 .025-.012.038-.036.038 0 .022-.012.046-.036.07v.071c-.024.025-.049.049-.072.073-.023 0-.047.011-.071.036-.024.024-.049.047-.073.07v.035c-.023.024-.046.048-.071.073 0 .025-.011.037-.034.037 0 .023-.014.047-.037.07 0 .024-.013.047-.036.072-.023.024-.047.048-.072.071l-.035.037c-.024.024-.037.048-.037.072-.047.024-.083.035-.106.035-.025.025-.036.048-.036.073l-.036.034c-.048.024-.084.047-.108.071-.048.025-.083.048-.107.073-.024.024-.047.048-.072.071-.024 0-.048.011-.07.037-.024.022-.037.046-.037.071-.024.023-.047.035-.071.035-.047.024-.096.048-.144.071-.024 0-.059.013-.108.037-.048.024-.084.047-.106.072-.025.024-.049.047-.072.072s-.047.035-.071.035c-.049.024-.085.049-.109.072-.046.024-.096.049-.143.073-.047.022-.083.035-.107.035 0 .024-.012.047-.035.071l-.037.036c-.047.024-.083.048-.106.072-.024.025-.049.036-.073.036-.048.024-.095.037-.143.037-.024.023-.048.035-.072.035-.05 0-.083.012-.107.036-.071.024-.119.049-.144.072-.048.024-.084.036-.108.036-.047.023-.084.035-.106.035-.073 0-.132.012-.18.037h-.072c-.046.023-.094.036-.141.036-.051.024-.098.036-.146.036-.046.023-.083.046-.106.071-.047.024-.095.047-.144.072l-.071.035h-.215c-.025.024-.037.048-.037.072h-.07a.3056.3056 0 01-.144.037c-.025 0-.06.011-.108.034h-.071c-.024.024-.06.035-.107.035-.095 0-.179.013-.25.037h-.107c-.024.025-.061.036-.107.036-.048 0-.096.012-.144.037h-.037a.3127.3127 0 01-.141.035c-.048 0-.109.012-.18.035-.048.023-.083.037-.107.037-.024.023-.06.034-.108.034h-.322c-.048.024-.095.047-.143.072-.048.024-.084.037-.108.037-.023.024-.06.037-.107.037-.072 0-.155.012-.25.036h-.036c-.023.023-.06.036-.108.036H7.539c-.049 0-.096-.013-.144-.036h-.034c-.024-.024-.049-.036-.073-.036-.072-.024-.131-.037-.18-.037-.046-.024-.095-.047-.143-.072 0-.024-.012-.037-.036-.037h-.034c-.049-.022-.107-.034-.18-.034-.024-.024-.06-.048-.106-.072l-.037-.035c-.047-.024-.084-.037-.107-.037a.7087.7087 0 00-.216-.036l-.071-.037h-.036c-.073-.023-.13-.035-.178-.035a3.2086 3.2086 0 01-.144-.071c-.048-.024-.095-.048-.143-.072h-.108c-.072-.024-.143-.047-.214-.072-.023-.024-.049-.048-.071-.072h-.036c-.072-.026-.121-.037-.144-.037-.072-.023-.144-.048-.214-.072-.025 0-.051-.012-.073-.037h-.036c-.072-.023-.119-.035-.143-.035a1.5351 1.5351 0 00-.179-.072c-.023-.023-.06-.046-.108-.071-.047 0-.094-.012-.142-.035a1.4965 1.4965 0 00-.181-.073c-.023-.024-.033-.048-.033-.072-.049-.023-.097-.036-.145-.036-.024-.023-.048-.046-.072-.071-.024 0-.048-.013-.072-.035-.022-.024-.046-.048-.07-.073-.048-.023-.072-.047-.072-.072-.024 0-.048-.011-.072-.035-.023-.024-.048-.047-.072-.072a.9605.9605 0 00-.071-.072c-.025-.023-.059-.037-.107-.037-.024-.023-.06-.046-.106-.071-.024 0-.037-.012-.037-.035-.024-.024-.048-.049-.071-.071-.024-.026-.049-.037-.073-.037 0-.023-.012-.047-.035-.071-.024-.025-.037-.048-.037-.073l-.071-.071c-.023-.023-.047-.034-.071-.034-.024-.025-.048-.048-.071-.073-.023 0-.037-.011-.037-.035-.047-.023-.095-.048-.143-.072 0-.024-.012-.037-.034-.037-.024-.023-.038-.047-.038-.071a2.444 2.444 0 00-.072-.072 2.411 2.411 0 00-.072-.07c-.022 0-.046-.012-.07-.037 0-.025-.013-.048-.036-.073-.023 0-.048-.011-.072-.035 0-.023-.012-.046-.036-.07 0-.025-.012-.036-.036-.036 0-.023-.012-.048-.036-.073-.023-.023-.035-.046-.035-.071-.024-.024-.048-.048-.073-.07-.023 0-.047-.012-.071-.038-.024-.023-.037-.047-.037-.071-.024 0-.036-.012-.036-.036v-.072l-.035-.036v-.072c-.023-.023-.049-.048-.072-.072 0-.023-.012-.047-.036-.07-.023 0-.036-.013-.036-.037-.024-.023-.035-.048-.035-.07l-.036-.037c0-.023-.013-.047-.037-.072l-.071-.07c-.024-.024-.047-.049-.071-.072 0-.024-.013-.048-.036-.072v-.107c0-.024-.013-.047-.036-.072 0-.023-.012-.048-.036-.071-.024 0-.036-.011-.036-.036-.024 0-.049-.012-.071-.035v-.072c0-.024-.012-.047-.037-.071v-.036c0-.024-.011-.048-.035-.073 0-.023-.012-.047-.037-.07 0-.024-.012-.037-.035-.037v-.109c0-.023-.012-.048-.036-.071v-.072c-.025 0-.037-.011-.037-.036 0-.022-.011-.046-.035-.071v-.071c0-.025-.013-.037-.037-.037v-.071c-.023 0-.035-.013-.035-.037v-.071l-.036-.038v-.07c0-.024-.012-.047-.036-.071 0-.024-.012-.048-.035-.071l-.036-.038v-.106c0-.023-.013-.048-.037-.071v-.25c-.022 0-.034-.014-.034-.037l-.072-.072V24.83c-.023-.024-.036-.048-.036-.071v-.035C.422 24.7.41 24.676.41 24.652V24.544c0-.023-.013-.046-.037-.071v-.037c0-.023-.012-.046-.036-.071V22.109c.024-.024.036-.047.036-.072 0-.023.012-.047.037-.072v-.393c0-.023.012-.048.036-.072v-.035c.024 0 .036-.013.036-.037v-.323c.024-.023.048-.047.072-.072H.59v-.321c0-.024.013-.049.037-.072V20.425c.023-.023.036-.047.036-.072.023 0 .035-.013.035-.035.024-.025.047-.049.072-.072v-.072c0-.023.012-.034.035-.034v-.18c.023-.023.037-.049.037-.073v-.036c.023-.023.046-.047.071-.072 0-.023.013-.048.036-.071v-.035c.023 0 .035-.011.035-.035.024-.026.037-.049.037-.071.024-.026.035-.049.035-.073V19.386c.025-.024.037-.047.037-.072v-.107c.022 0 .036-.012.036-.037.023-.023.035-.048.035-.071.024-.024.049-.048.072-.073l.036-.035v-.071c.023-.024.036-.048.036-.071.024-.024.047-.048.071-.072l.071-.067c.024-.023.037-.047.037-.071.023-.025.036-.049.036-.073l.035-.034c.024-.025.036-.051.036-.074.024-.023.036-.047.036-.072.023-.023.049-.046.072-.07.023 0 .035-.013.035-.036.024 0 .049-.013.073-.036.023-.024.047-.048.071-.073l.073-.07.035-.036c.024-.025.036-.049.036-.074.024-.022.049-.046.072-.07.024-.024.049-.048.072-.073.023 0 .036-.012.036-.035.024 0 .048-.013.07-.035.024-.025.048-.049.072-.074.024-.022.048-.047.072-.071l.036-.033c.022-.023.034-.048.034-.071.025-.024.048-.047.071-.072.024-.024.049-.037.072-.037 0-.023.014-.048.037-.07.047 0 .095-.014.142-.037.024-.023.047-.047.071-.071.025-.025.061-.047.109-.072h.215c.023-.023.046-.047.07-.072.047-.023.098-.048.143-.073.072-.023.121-.046.145-.071.047 0 .096-.01.142-.034.048-.025.108-.036.18-.036.024 0 .048-.012.072-.037h.037c.047-.023.093-.035.141-.035.047-.025.084-.038.108-.038a.32.32 0 01.142-.035h.108c.048 0 .095-.012.143-.035h.036c.048-.024.095-.037.143-.037.096-.023.203-.034.322-.034.025-.025.061-.049.109-.072.046 0 .095-.012.143-.036.023-.025.047-.037.071-.037.048 0 .084-.013.108-.036l.036-.036h.143c.216 0 .442-.011.68-.035h.18v-.035h.356V14.983c-.023-.023-.036-.046-.036-.07v-.538h-.286c0-.023-.013-.047-.035-.071V14.161h-.108V9.471c-.239 0-.466.013-.681.035h-.107a.291.291 0 01-.142.036h-.142a.4352.4352 0 00-.179-.036c-.048 0-.083-.011-.109-.035a1.1593 1.1593 0 00-.179-.072c-.024-.023-.036-.047-.036-.07-.023-.024-.048-.047-.071-.073-.025 0-.036-.012-.036-.036-.025-.023-.036-.047-.036-.072v-.035c-.024-.024-.035-.049-.035-.071v-.18c0-.023.011-.036.036-.036v-.071c0-.023.011-.046.036-.072l.036-.036c.022-.022.047-.047.07-.071l.036-.036c.048-.024.096-.037.144-.037h.035v-.321l.037-.036c.024-.023.047-.047.072-.071.023-.023.036-.048.036-.072.021-.025.047-.048.07-.073 0-.023.012-.037.036-.037.023-.022.047-.046.071-.07.048 0 .084-.011.108-.035l.036-.036h.644v-.036c.024-.024.048-.036.073-.036.022-.023.046-.047.071-.071.047 0 .084-.011.107-.035V7.467h5.264v-.861c.025-.024.061-.036.108-.036v-.035h.931v.249l.036.037v.072c.024.023.036.046.036.071l.036.036v.036c.024.024.035.047.035.072v.072c0 .022-.011.036-.035.036v.071c-.024.023-.036.047-.036.07-.024.024-.036.048-.036.073v.144h.143c.025.023.049.047.071.07.025.025.048.036.073.036.023.024.036.048.036.073.024 0 .048.013.072.036.024.024.036.047.036.071l.037.034c.023.024.035.05.035.073.024.024.037.048.037.073v.036c.024.024.035.048.035.071v.107c0 .023-.011.047-.035.071v.035h.035c0 .024.012.049.035.072v.071c.024.024.037.048.037.073l.035.036v.144c.024.024.037.048.037.071h.036c.023.023.035.048.035.071.024 0 .049.014.072.036.024.024.036.047.036.073l.037.035c.023.023.035.048.035.071l.037.036v.071l.035.036v.073c0 .023.012.047.037.07v.072l.035.035v.072l.035.036v.071l.037.037c0 .024.012.048.035.072v.071c.024.023.047.048.072.072.024 0 .037.013.037.035.022.025.034.048.034.072v.107l.037.036c.023.024.047.049.072.071 0 .023.011.047.036.072 0 .023.012.047.035.072v.035c.023.024.036.048.036.072v.036c.024.024.036.047.036.072.022 0 .047.012.07.036v.072c.024.023.036.047.036.072v.071c.024 0 .037.013.037.036.024.022.036.047.036.072v.035c0 .023.011.049.035.074l.036.034c0 .024.012.048.038.072 0 .022.01.047.033.072v.036c.025.023.038.047.038.071.023.023.035.046.035.072l.036.034c-.006.024.007.036.032.036zM1.415 21.896v-.179l-.036.036v.072c-.024.024-.035.048-.035.071v.215c0-.024.012-.049.035-.072v-.072c.025 0 .036-.011.036-.035v-.036z" clip-rule="evenodd"/></svg>
