<svg xmlns="http://www.w3.org/2000/svg" width="93.25" height="32"><path fill-rule="evenodd" clip-rule="evenodd" fill="#FFF" d="M92.744 12.856c.05.352.1.764.15 1.24.025.501-.125.789-.452.865-.175.025-.463.062-.865.112-.401.026-.864.038-1.391.038-.501 0-1.002-.012-1.502-.038-.527-.05-.941-.087-1.242-.112l-.338-.15h-5.263c0 .024-.075.087-.226.188-.025.074-.05.112-.075.112l-.714.189-.375-.188h-.752l-.151.188c-.101.075-.149.163-.149.262v.151l-.301.565h-.676v1.278l-.338.149c-.1.05-.228.075-.376.075-.276 0-.477-.024-.601-.075l-.979-.149h-2.895v.488h-.301c-.701 0-1.103-.024-1.204-.075-.125-.05-.224-.088-.3-.113v-.188c-.05 0-.075-.037-.075-.112h.075v-.152H58.909c-.35.05-.765.101-1.24.152-.476.024-.915.062-1.314.112-.453.025-.829.063-1.13.112-.25.051-.413.076-.488.076-.226.125-.438.125-.639 0-.075-.05-.138-.1-.188-.15l-.187-.149v-.301h-4.964c.052.851.127 1.803.226 2.856.101 1.028.188 2.006.263 2.933.102.902.176 1.693.226 2.368.076.602.114.991.114 1.166-.025.05-.088.163-.188.338-.1.1-.501.201-1.203.3-.752.126-1.492.275-2.22.452-.801.125-1.427.213-1.878.263-.452.075-.79.138-1.015.188-.201.025-.352.025-.451 0-.051-.05-.101-.1-.151-.149 0-.025-.013-.101-.036-.227 0-.075-.039-.4-.114-.978-.05-.576-.139-1.39-.262-2.443-.076-1.152-.201-2.719-.377-4.699h-.639l-.375.64h-.301l.301-.64h-.791v.188c-.174.652-.375 1.229-.6 1.729-.226.477-.488.814-.79 1.015-.476.2-1.115.326-1.917.376-.853.025-1.454-.05-1.804-.226l-.527-.339c-.2-.074-.389-.162-.564-.262-.176-.101-.312-.176-.414-.227l-.188.188c-.074.075-.174.275-.301.602-.124.326-.275.639-.45.939-.351.877-.664 1.58-.94 2.106-.275.5-.488.889-.639 1.165-.175.301-.313.476-.413.526-.126.074-.226.114-.301.114-.201 0-.715-.252-1.542-.753-.801-.501-1.566-1.051-2.293-1.654l-.3-.188.111-.151c.025-.049.113-.226.264-.526.1-.25.25-.552.451-.902.176-.326.351-.64.527-.94.174-.3.375-.526.601-.676l.15-.188c.226-.225.465-.476.715-.752.275-.275.463-.602.563-.978.101-.501.05-.914-.15-1.241-.226-.275-.451-.451-.677-.526h-5.83c-.024 0-.101.013-.225.038-.1.05-.238.075-.415.075-.2.05-.412.113-.639.188-.15.05-.663.226-1.54.527-.878.326-1.918.701-3.122 1.127-1.127.452-2.369.928-3.721 1.43-1.279.45-2.495.889-3.647 1.315-1.077.376-1.992.701-2.744.977-.727.302-1.129.451-1.203.451-.251.051-.564.1-.941.151-.426.05-.828.1-1.203.149-.401.051-.776.076-1.127.076-.301.05-.551.025-.752-.076-.301-.149-.488-.375-.563-.676-.026-.25-.038-.564-.038-.94v-.563c.025-.226.088-.414.188-.564.075-.25.113-.488.113-.715v-.865c.1-.2.163-.375.188-.526.024-.175.038-.375.038-.601 0-.652-.025-1.291-.076-1.918-.1-.626-.15-1.027-.15-1.203H.938c-.1-.225-.163-.425-.188-.601v-.978c.101-.1.163-.175.188-.225 0-.05.113-.075.339-.075.05-.05.25-.101.601-.15.352-.025.739-.063 1.166-.113h1.353c.401-.025.727-.038.979-.038.1-.251.212-.526.338-.827.075-.251.289-.426.638-.526.227-.077.902-.113 2.03-.113 1.104-.025 2.318-.05 3.647-.075 1.303-.051 2.556-.076 3.76-.076 1.177-.024 1.916-.038 2.218-.038h.188c.099.201.225.364.375.49.075.201.163.375.263.526.1.177.201.275.301.3.151 0 .351-.012.602-.037.225 0 .375-.051.451-.15.275-.125.726-.351 1.353-.677.627-.376 1.053-.639 1.279-.79.326-.225.602-.376.827-.451.225-.151.538-.225.939-.225h1.618c.727 0 1.277-.026 1.653-.075.026-.05.063-.101.113-.15.025-.076.087-.151.188-.227.074-.1.137-.213.188-.338l.79-.452.601-.15c.126.1.239.175.338.225.276.051.452.076.527.076l.602.15.526.639v.151l-.226.151h.339v-.601l-.301-.226c-.075-.076-.125-.163-.15-.263l-.303-.601-.187-.715v-.15c-.452.1-.94.175-1.467.227-.577.05-1.053.125-1.429.225-.2 0-.638-.012-1.315-.037h-2.106c-.751 0-1.416-.013-1.992-.038-.602-.049-.953-.074-1.053-.074-.075 0-.15.025-.226.074-.075.025-.163.038-.263.038-.151.025-.276.037-.375.037l-2.181-.149v-.303c0-.025-.025-.162-.075-.414-.05-.3-.088-.626-.113-.977 0-.325-.025-.652-.075-.977-.024-.375 0-.665.075-.864.025-.175.063-.326.113-.451.05-.075.1-.164.15-.263.025-.076.038-.151.038-.226l.225-.114h2.707c.401 0 .928.038 1.58.114.676 0 1.403.013 2.18.038.752 0 1.479.024 2.18.074.678 0 1.278.013 1.805.038.526.025.914.037 1.166.037l.94.113c.326.076.602.125.828.151.224.025.413.037.563.037.177-.05.565-.075 1.167-.075.626-.026 1.278-.051 1.955-.076.652-.025 1.265-.038 1.842-.038h.865c.225 0 .388-.024.489-.074.125 0 .225-.013.3-.039l.15-.187c0-.176.176-.313.527-.414.476-.226.965-.226 1.466 0h.15c.225 0 .389.024.488.075.101.05.201.163.301.339.1.125.25.187.451.187l.301.113c.476 0 1.14.038 1.992.114.903.075 1.655.038 2.256-.114.376-.074.926-.137 1.653-.188.677-.074 1.379-.137 2.106-.188.777-.025 1.491-.038 2.143-.038.676 0 1.127.038 1.354.114h.15c.326.075.54.187.64.337.15.126.25.489.301 1.091.099.626.05 1.19-.151 1.691-.201.551-.414.902-.639 1.052-.1.076-.451.113-1.053.113h-1.992c-.702 0-1.404-.037-2.104-.113-.703-.025-1.204-.087-1.504-.188-.326-.075-.602-.113-.827-.113-.201 0-.4.038-.602.113H45.6c0 .226-.174.515-.525.865h-.188c-.828.426-1.379.726-1.655.902-.276.125-.414.25-.414.376-.075 0-.138.05-.188.15 0 .151-.051.3-.151.452h20.94c.05-.026.201-.038.451-.038.275-.024.564-.063.865-.114.301-.05.601-.074.901-.074.302-.05.514-.076.64-.076.3 0 .589-.013.865-.038.25-.075.451-.113.601-.113l.302-.301c.099-.05.174-.1.226-.15h1.429c.099.076.174.175.225.301.176.25.3.425.375.526h7.631c-.1-.251-.175-.526-.225-.828-.051-.25-.075-.477-.075-.677 0-.2.013-.313.037-.339l.113-.111c.174-.25.363-.427.563-.527.176-.125.326-.188.451-.188l.751.188.301.865.3 1.692v1.014c.101 0 .201.063.301.188v.301l-.114.15h.114c.15 0 .251-.012.301-.038l.075-.112h.79l.112.112c.075.025.138.038.188.038h10.676l.155.155zm-58.911 6.842c-.076.101-.138.188-.188.263l.488.489c.175.075.326.162.452.264.125.05.225.074.3.074.276.05.54.075.791.075h1.203c.275 0 .476-.025.601-.075.175 0 .275-.074.301-.225 0-.1.075-.238.225-.414.202-.551.301-.865.301-.939v-.112c0-.05-.05-.075-.151-.075-.075 0-.213.025-.414.075-.201.075-.388.15-.563.226h-.978c-.176 0-.514.025-1.016.074-.501.076-.852.15-1.053.226-.073-.001-.174.024-.299.074z"/></svg>