<svg xmlns="http://www.w3.org/2000/svg" width="90.25" height="32"><path fill-rule="evenodd" clip-rule="evenodd" fill="#FFF" d="M88.842 8.021c.247 0 .37.11.37.334v2.447H83.354c-1.139.023-2.411.062-3.82.111-1.384 0-2.769.013-4.153.038-1.286.025-2.151.037-2.595.037 0 .321-.1.581-.298.778-.519.521-1.001.778-1.446.778-.198 0-.457-.135-.778-.408-.322-.32-.569-.543-.743-.667-.098 0-.234-.025-.406-.075-.124-.024-.284-.087-.482-.185l-.705-.223c-.099-.049-.322-.074-.668-.074-.372-.049-.829-.074-1.372-.074-.52 0-1.138.025-1.854.074-.643 0-1.297.025-1.966.074 0 .1-.024.223-.073.371-.075.173-.111.31-.111.407l-.26.112c-.099.025-.223.038-.37.038 0 .073-.014.197-.038.371-.024.098-.037.247-.037.445-.05.196-.073.443-.073.741h-.298c-1.014 0-2.126.012-3.336.037-1.187 0-2.325.012-3.411.037-1.063.05-1.966.074-2.708.074-.741.025-1.187.037-1.335.037-.098.025-.271.049-.519.074-.223.025-.482.049-.779.074-.321.073-.643.124-.964.149-.296.074-.531.124-.705.148h-.111l-.186-.446c-.049-.272-.074-.556-.074-.853-.048-.247-.074-.469-.074-.668v-.518c-.148.075-.421.136-.815.185-.421.049-.866.124-1.335.222-.445.076-.877.161-1.298.262-.42.048-.68.073-.778.073 0 .148-.013.296-.038.444-.075.149-.111.26-.111.334 0 1.26.197 2.682.594 4.265.396 1.507.829 2.942 1.297 4.302.495 1.309.927 2.409 1.3 3.299.395.866.592 1.31.592 1.335l.148.26-.296.111c-.124.074-.396.198-.816.372-.371.198-.877.444-1.52.742-.668.272-1.57.715-2.707 1.334h-.26c-.419-.545-.865-1.483-1.335-2.819-.47-1.335-.914-2.731-1.333-4.19-.421-1.434-.768-2.794-1.04-4.079-.296-1.311-.519-2.165-.667-2.559-.222.123-.544.271-.964.443-.099 0-.16.038-.185.111 0 .026-.038.038-.111.038-.125.223-.334.334-.63.334-1.21.297-2.176.309-2.894.038-.691-.271-1.149-.495-1.371-.668-.05.075-.111.124-.186.147l-.668.335c-.766 1.73-1.223 3.151-1.371 4.265-.124 1.112-.186 1.928-.186 2.447v.593c0 .1-.024.162-.074.186-.05 0-.075.037-.075.112-.419 0-1.816-.631-4.19-1.892l-.222-.111v-.112c.296-.668.605-1.372.927-2.113.273-.767.544-1.471.816-2.115.247-.642.445-1.223.593-1.742.148-.444.234-.717.26-.815 0-.098-.038-.197-.111-.297-.049-.098-.074-.197-.074-.296-.075-.049-.161-.148-.259-.296-.1-.099-.199-.2-.298-.297-.123-.1-.211-.209-.26-.333-.148-.073-.494-.112-1.038-.112-.618 0-1.311.013-2.077.039-.791.049-1.669.085-2.633.11-.913.075-1.767.125-2.558.148l-3.115.111c-1.953 0-4.918 1.768-8.899 5.303l-.297.296c-.173.248-.419.458-.741.63-.346.42-.569.679-.667.779-.125.099-.223.15-.298.15-.196 0-.383-.15-.555-.448-.149-.395-.224-.702-.224-.927 0-.123-.012-.505-.037-1.149-.023-.619-.086-1.348-.185-2.188-.073-.816-.148-1.657-.223-2.521-.098-.841-.198-1.535-.295-2.077-.272-.544-.224-1.087.147-1.632.247-.273.569-.409.964-.409h18.467c.149 0 .26-.049.334-.148v-.145c.099-.074.162-.147.187-.223.024-.074.073-.173.147-.297.173-.123.433-.185.778-.185.372 0 .631-.05.779-.147.149-.051.297-.074.446-.074.172 0 .321-.05.445-.149.37-.098.678-.209.926-.333.296-.124.506-.297.63-.519.197-.124.309-.321.333-.593.049-.249.1-.618.148-1.114v-.333c0-.445.111-.755.334-.929.198-.099.469-.148.815-.148h.296l.111.148.817.78c0 .173.309.135.926-.111h.482c.148.073.271.272.37.592.075.322.149.656.224 1.001.74-.097 1.543-.147 2.409-.147.841 0 1.335.05 1.483.148.099.025.186.038.26.038.098.05.235.075.408.075h9.457c0-.249-.038-.458-.111-.631l-.112-.295h1.669v.295c0 .125.025.198.074.223 0 .023.025.037.073.037H68.41c0-.048-.012-.135-.037-.26v-.482c-.075-.148-.111-.346-.111-.592l.518-.966 1.558-.148h.148v2.707l-.112.038c-.024.05-.06.075-.11.075-.025.023-.05.061-.075.111.198.223.581.507 1.15.852.593.322 1.249.482 1.966.482.271.026.765.05 1.482.075.717.05 1.508.075 2.374.075s1.743-.025 2.633-.075c.964-.024 1.817-.038 2.559-.038.792 0 1.458-.011 2.002-.037h.926c.099 0 .334-.036.706-.111.272-.048.593-.111.965-.184.418-.025.802-.051 1.149-.076.371-.051.619.011.741.185zm-57.404 5.006c-.199 0-.396.086-.594.26-.173.222-.259.494-.259.816 0 .321.086.592.259.815.198.198.395.297.594.297h2.706c.223 0 .445-.099.668-.297.173-.223.259-.494.259-.815 0-.322-.086-.594-.259-.816-.224-.173-.445-.26-.668-.26h-2.706zm-28.703-.074c.075.495.148 1.001.222 1.521.076.593.125 1.162.149 1.706.075.47.136.89.186 1.26.223-.222.532-.494.927-.816.445-.346.889-.717 1.334-1.111.99-.717 1.941-1.434 2.856-2.152.939-.668 1.78-1.273 2.521-1.816H2.55c.024.393.086.863.185 1.408z"/></svg>