<svg xmlns="http://www.w3.org/2000/svg" width="44.875" height="32"><path fill-rule="evenodd" clip-rule="evenodd" fill="#FFF" d="M43.566 10.77c-.084.055-.22.083-.412.083-.381.082-.997.137-1.844.165-.875.025-1.82.052-2.831.079-1.013.085-2.01.126-2.997.126-.981.025-1.789.039-2.422.039-.709 0-1.282.04-1.721.125-.437.08-.778.148-1.024.205-.217.137-.356.275-.412.41-.054.135-.081.315-.081.534v.33c0 .246.014.545.043.9.027.327.067.643.123.942.078.383.162.753.244 1.109v.123l-.574.656v.124c-.191.109-.685.164-1.479.164-1.584.082-2.922.105-4.018.082-1.039 0-1.929-.028-2.667-.082-.655-.083-1.176-.164-1.558-.246-.329-.112-.56-.207-.697-.288-.219 0-.44.042-.658.125-.216.164-.477.438-.779.82-.354.41-.766 1.039-1.23 1.887-.439.903-.945 2.107-1.517 3.609-.602 1.475-1.272 3.336-2.01 5.577l-.083.084c0 .656-.179 1.065-.533 1.231-.191.189-.344.231-.452.123H2.79c0-.136.016-.262.042-.369.106-.275.166-.493.166-.657h-.659c-.11 0-.22-.012-.327-.041-.631-.055-1.122-.342-1.477-.859-.193-.305-.288-.686-.288-1.15 0-.573.08-1.067.245-1.477.138-.466.205-.726.205-.779v.082c.028-.028.205-.26.534-.698.274-.438.629-.984 1.067-1.642.466-.681.943-1.409 1.437-2.172.574-.767 1.106-1.518 1.599-2.258.545-1.039.972-1.968 1.27-2.788.277-.822.411-1.544.411-2.176 0-.409-.067-.819-.202-1.229-.249-.521-.591-.931-1.026-1.23-.411-.248-.837-.481-1.273-.7-.384-.08-.643-.258-.779-.533-.112-.3-.165-.63-.165-.984 0-.134.016-.274.041-.41v-.288l-.041-.081V5.191v-.903c0-.246-.041-.408-.124-.492h-.041c-.027 0-.04-.041-.04-.12 0-.03.013-.07.04-.124l.041-.085c.028-.053.152-.133.37-.243.193-.082.781-.151 1.763-.207.056-.082.084-.164.084-.247 0-.055.041-.108.125-.163.053-.11.105-.205.163-.289l.121-.121 1.188.042.126.287c.052.054.08.136.08.245.028.083.042.166.042.247h33.884l.081-.164c.054-.055.096-.083.124-.083l.779-.245c.028.054.083.11.165.164l.204.202h1.477l.288 4.475c-.002 1.883-.315 3.02-.944 3.403zm-16.205.822h-5.827c-.079 0-.177.066-.284.204-.139.138-.206.328-.206.577v1.968c0 .301.067.504.206.613.106.137.205.208.284.208h5.827c.139 0 .249-.071.328-.208.137-.109.208-.313.208-.613v-1.968c0-.249-.071-.438-.208-.577-.079-.138-.189-.204-.328-.204z"/></svg>