<svg xmlns="http://www.w3.org/2000/svg" width="60.178" height="35.005"><path fill-rule="evenodd" clip-rule="evenodd" fill="#FFF" d="M50.473 3.899c1.734.933 3.083 2.417 4.05 4.45.967 1.966 1.467 3.583 1.5 4.85l-.451 1.35c-.232.967-.217 1.833.051 2.6.533 1.2 1.334 2.233 2.4 3.1l1 2.351-5.551 2.05-.949-2.55c.232-1.2.133-2.384-.301-3.55-.266-.733-.949-1.4-2.049-2-.567-.333-1.083-.583-1.55-.75l-2 .8-2.051-5.4c2.601-1.267 3.95-2.333 4.051-3.2 0-.6-1.551-1.95-4.65-4.05-1.533-1.033-3.084-2.033-4.65-3 1.167.1 2.5.3 4 .6 2.933.633 5.316 1.416 7.15 2.349zM45.374 17l-3.051 1.05c-2.566.867-4.699 1.7-6.399 2.5l-9 3.899-1.95-6 18.35-6.75L45.374 17zm-19.601 7.949l-5.1 2.15c-4 1.8-9.867 4.066-17.6 6.8-1.4-1.7-2.033-3.916-1.9-6.65l22.6-8.35 2 6.05z"/></svg>