<svg xmlns="http://www.w3.org/2000/svg" width="32" height="32"><g fill="#FFF"><path d="M8.03 19.887c-.089 0-.181-.003-.264-.014-.089-.045-.396-.481-.396-1.447 0-1.036.106-1.302.34-1.885l.092-.229c.113-.291.248-.551.378-.803.21-.409.428-.832.542-1.332.162-.712.945-2.953 1.829-4.019 1.27-1.536 3.125-2.282 5.672-2.282 3.312 0 4.307 1.05 5.458 2.265l.071.074c.511.54 1.238 1.714 1.799 4.238.146.652.361 1.057.569 1.447.114.215.236.441.356.731.233.567.27.978.3 1.845.021.59-.067 1.041-.148 1.247-.045.114-.077.152-.084.159 0 0-.039.004-.101.004-.099 0-.221-.009-.356-.018-.105-.007-.218-.015-.336-.021-.003-.027-.006-.052-.007-.065-.031-.385-.031-.546-.031-1.059 0-.077-.024-.769-.883-1.265l-.101-.06c-.688-.409-1.468-.872-6.507-.872-5.485 0-6.358.674-6.828 1.036-.464.361-.994.769-.994 1.33v.979c-.09.007-.226.016-.37.016z"/><path d="M16.224 8.376c3.097 0 3.936.885 5.096 2.108l.07.074c.383.404 1.11 1.463 1.679 4.024.156.698.388 1.133.611 1.553.117.219.228.426.335.684.204.497.234.854.264 1.674.012.367-.021.656-.06.844-.005-.155-.005-.326-.005-.612 0-.174-.055-1.074-1.133-1.698l-.095-.056c-.898-.534-1.967-.942-6.763-.942-5.219 0-6.419.589-7.133 1.14-.528.407-1.187.913-1.19 1.717-.018-.131-.029-.283-.029-.459 0-.939.083-1.146.305-1.699l.092-.233c.103-.259.227-.5.357-.755.225-.438.457-.889.585-1.45.15-.657.908-2.824 1.728-3.813 1.168-1.414 2.897-2.101 5.286-2.101m0-1c-3.462 0-5.157 1.375-6.057 2.463-.967 1.165-1.765 3.494-1.932 4.227s-.599 1.298-.898 2.063-.466 1.032-.466 2.297.466 1.896.832 1.943c.104.014.217.018.327.018.281 0 .539-.03.539-.03s.034.014.08.014c.099 0 .251-.062.251-.446v-1.032c0-.3.368-.599.801-.932.432-.333 1.33-.932 6.522-.932s5.725.499 6.357.864c.633.366.633.832.633.832 0 .533 0 .7.033 1.1.017.202.051.51.34.519.34.01.646.044.857.044.292 0 .487-.066.65-.48.113-.289.204-.814.183-1.447-.03-.858-.066-1.359-.338-2.02-.344-.826-.694-1.176-.895-2.074-.132-.593-.699-3.195-1.93-4.494-1.228-1.298-2.294-2.497-5.889-2.497z"/></g></svg>