<svg xmlns="http://www.w3.org/2000/svg" width="92" height="31.5"><path fill-rule="evenodd" clip-rule="evenodd" fill="#FFF" d="M53.805 16.461c0-.224-.079-.415-.237-.572-.155-.155-.344-.232-.568-.232-.224 0-.415.077-.573.232-.155.157-.232.349-.232.572s.077.413.232.568c.158.158.349.236.573.236.224 0 .413-.078.568-.236.158-.155.237-.344.237-.568zM2.377 11.257c2.377.732 4.884 1.029 7.52.889 11.378-.462 22.542-.521 33.489-.178.61-.641.582-1.409-.084-2.306 1.559-.418 2.602.387 3.131 2.415h2.34l.435.543c18.559-.04 32.681.977 42.367 3.047-5.398 1.266-17.763 1.899-37.093 1.9l-.271.281h-4.987l-.45.212H46.27c-.528.489-.372 1.214.469 2.179-1.571.877-2.725.204-3.461-2.021-10.783.404-21.969.404-33.558 0-2.601-.089-5.066.293-7.396 1.146-1.796-2.771-1.778-5.474.053-8.107z"/></svg>