<svg xmlns="http://www.w3.org/2000/svg" width="91.436" height="33.02"><path fill-rule="evenodd" clip-rule="evenodd" fill="#FFF" d="M64.413 15.165h.063c.167-.021.301-.082.407-.188.124-.124.187-.271.187-.438s-.063-.313-.187-.438c-.105-.105-.24-.156-.407-.156H42.11c-.146 0-.271.051-.375.156-.125.124-.188.271-.188.438s.063.313.188.438c.104.105.23.167.375.188h22.303zm11.323 6.1H36.104l-.563-1.596h-2.096v2.034l-.125.155h-.844l-.313-.499v-.845l-.188-.313c0 .146-.052.281-.156.406-.125.125-.271.188-.438.188-.167 0-.313-.063-.438-.188-.105-.125-.157-.26-.157-.406-.021.146-.083.281-.188.406-.125.125-.271.188-.439.188-.166 0-.312-.063-.438-.188-.104-.125-.156-.26-.156-.406-.021.146-.083.281-.187.406-.125.125-.271.188-.438.188s-.313-.063-.438-.188c-.102-.123-.155-.258-.156-.406-.002.148-.064.283-.188.406-.125.125-.271.188-.438.188-.168 0-.313-.063-.438-.188-.103-.123-.155-.258-.157-.406-.001.148-.064.283-.188.406-.125.125-.271.188-.438.188s-.303-.063-.407-.188c-.123-.123-.186-.258-.189-.406-.001.148-.063.283-.187.406-.104.125-.24.188-.407.188-.188 0-.333-.063-.438-.188-.123-.123-.186-.258-.187-.406-.002.148-.065.283-.188.406-.104.125-.24.188-.407.188-.167 0-.313-.063-.438-.188-.124-.123-.186-.258-.188-.406-.001.148-.064.283-.188.406-.104.125-.24.188-.407.188s-.313-.063-.438-.188c-.104-.125-.167-.26-.188-.406 0 .146-.052.281-.156.406-.125.125-.271.188-.438.188-.166 0-.313-.063-.438-.188-.104-.125-.167-.26-.187-.406 0 .146-.053.281-.157.406-.125.125-.271.188-.438.188-.167 0-.313-.063-.438-.188-.104-.125-.157-.26-.157-.406-.021.146-.083.281-.187.406-.125.125-.271.188-.438.188-.167 0-.313-.063-.438-.188-.104-.125-.156-.26-.156-.406-.021.146-.083.281-.187.406-.125.125-.271.188-.438.188-.167 0-.313-.063-.438-.188-.103-.123-.156-.258-.157-.406-.002.148-.065.283-.188.406-.125.125-.271.188-.438.188-.167 0-.313-.063-.438-.188-.104-.123-.156-.258-.156-.406-.002.148-.065.283-.188.406-.125.125-.271.188-.438.188-.167 0-.303-.063-.406-.188-.124-.123-.186-.258-.188-.406-.001.148-.064.283-.188.406-.104.125-.24.188-.407.188-.188 0-.333-.063-.438-.188-.123-.123-.186-.258-.188-.406-.002.148-.064.283-.188.406-.104.125-.24.188-.407.188-.166 0-.313-.063-.438-.188-.123-.123-.186-.258-.188-.406-.002.148-.064.283-.188.406-.104.125-.24.188-.406.188-.168 0-.313-.063-.439-.188-.104-.125-.167-.26-.188-.406 0 .146-.052.281-.156.406-.126.125-.271.188-.438.188s-.313-.063-.438-.188c-.104-.125-.167-.26-.188-.406 0 .146-.052.281-.156.406-.125.125-.271.188-.438.188-.166 0-.312-.063-.437-.188-.104-.125-.156-.26-.156-.406-.021.146-.084.281-.189.406-.125.125-.271.188-.437.188-.167 0-.313-.063-.438-.188-.104-.125-.156-.26-.156-.406-.021.146-.083.281-.188.406-.125.125-.271.188-.438.188-.167 0-.313-.063-.438-.188-.103-.123-.155-.258-.156-.406-.002.148-.065.283-.188.406-.125.125-.27.188-.438.188-.167 0-.313-.063-.438-.188-.103-.123-.155-.258-.156-.406-.001.148-.065.283-.187.406-.126.125-.272.188-.439.188-.167 0-.302-.063-.407-.188-.125-.125-.187-.26-.187-.406l-.344-.876L.851 17.23v-2.409l3.253-2.034.25-.437c0-.167.052-.303.157-.407.125-.125.27-.188.438-.188s.313.063.438.188c.104.104.167.24.188.407 0-.167.053-.303.157-.407.125-.125.271-.188.438-.188.167 0 .313.063.438.188.104.104.157.24.157.407.021-.167.083-.303.187-.407.125-.125.272-.188.439-.188.166 0 .312.063.437.188.104.104.156.24.156.407.021-.167.083-.303.188-.407.125-.125.271-.188.438-.188.167 0 .303.063.407.188.124.103.186.238.188.407.001-.169.064-.305.188-.407.125-.125.271-.188.437-.188.167 0 .303.063.407.188.123.103.186.238.188.407.002-.169.064-.305.187-.407.105-.125.251-.188.438-.188.167 0 .303.063.408.188.123.103.186.238.187.407.001-.169.065-.305.188-.407.104-.125.24-.188.407-.188.167 0 .313.063.438.188.123.103.185.238.188.407.001-.169.054-.305.157-.407.125-.125.271-.188.438-.188.167 0 .313.063.438.188.124.103.187.238.188.407.002-.169.054-.305.156-.407.125-.125.271-.188.438-.188s.313.063.438.188c.104.104.167.24.188.407 0-.167.051-.303.156-.407.125-.125.272-.188.438-.188.167 0 .313.063.438.188.104.104.166.24.187.407 0-.167.053-.303.157-.407.125-.125.271-.188.438-.188.167 0 .313.063.438.188.104.104.157.24.157.407.021-.167.083-.303.187-.407.125-.125.271-.188.438-.188.167 0 .312.063.437.188.105.104.157.24.157.407.021-.167.083-.303.188-.407.125-.125.271-.188.438-.188.167 0 .302.063.407.188.123.103.185.238.188.407.002-.169.065-.305.188-.407.125-.125.271-.188.438-.188.167 0 .302.063.406.188.124.103.186.238.188.407.002-.169.065-.305.188-.407.104-.125.25-.188.438-.188.167 0 .302.063.407.188.124.103.186.238.188.407.002-.169.064-.305.188-.407.104-.125.24-.188.407-.188.188 0 .333.063.438.188.123.103.186.238.188.407.001-.169.054-.305.157-.407.124-.125.27-.188.437-.188.167 0 .313.063.438.188.123.103.185.238.187.407.003-.169.055-.305.157-.407.125-.125.271-.188.438-.188s.313.063.437.188c.106.104.168.24.189.407 0-.167.052-.303.156-.407.125-.125.271-.188.438-.188.167 0 .313.063.438.188.104.104.167.24.188.407 0-.167.052-.303.156-.407.125-.125.271-.188.438-.188.167 0 .313.063.438.188.104.104.155.24.155.407.021-.167.084-.303.189-.407.125-.125.271-.188.438-.188.167 0 .313.063.438.188.104.104.157.24.157.407.021-.167.083-.303.188-.407.125-.125.271-.188.438-.188.167 0 .302.063.407.188.123.103.186.238.188.407.001-.169.064-.305.187-.407.126-.125.272-.188.439-.188.166 0 .302.063.406.188.125.104.187.24.187.407l.251.25 2.877-1.439h12.637l2.846 1.346h17.423l21.553 1.938-14.178 6.82zm-39.413-9.509h-.031c-.167 0-.313.063-.438.188-.104.125-.157.271-.157.438 0 .166.052.303.157.405.125.125.271.188.438.188h.031c.146 0 .282-.063.407-.188.125-.103.188-.239.188-.405 0-.168-.063-.313-.188-.438-.125-.126-.261-.188-.407-.188zm9.541.626c0-.168-.062-.313-.188-.438-.104-.125-.24-.188-.407-.188h-6.413c-.146.021-.271.083-.375.188-.125.125-.187.271-.187.438 0 .166.063.303.187.405.105.125.229.188.375.188h6.413c.167 0 .302-.063.407-.188.126-.102.188-.239.188-.405zm1.219.594c.167 0 .303-.063.406-.188.125-.103.189-.239.189-.405 0-.168-.063-.313-.189-.438-.104-.125-.239-.188-.406-.188-.167 0-.313.063-.438.188s-.188.271-.188.438c0 .166.063.303.188.405.126.124.271.188.438.188z"/></svg>