<svg xmlns="http://www.w3.org/2000/svg" width="92" height="32.5"><path fill-rule="evenodd" clip-rule="evenodd" fill="#FFF" d="M9.736 26.29c.816-.815 1.224-1.8 1.224-2.954s-.407-2.139-1.224-2.955c-.816-.816-1.801-1.225-2.955-1.225s-2.139.408-2.955 1.225c-.816.816-1.224 1.801-1.224 2.955s.408 2.139 1.224 2.954c.816.816 1.801 1.225 2.955 1.225s2.139-.409 2.955-1.225zM54.573 8.704c-.245 0-.454.087-.626.26-.172.172-.259.381-.259.625 0 .245.086.454.259.627.172.172.381.259.626.259s.454-.087.626-.259c.172-.173.259-.382.259-.627 0-.244-.086-.453-.259-.625-.173-.173-.382-.26-.626-.26zm-2.808-1.062c-.287 0-.533.102-.737.305-.203.204-.305.45-.305.737s.102.531.305.735c.205.204.451.307.737.307s.531-.103.734-.307c.205-.204.308-.448.308-.735s-.103-.533-.308-.737c-.203-.204-.448-.305-.734-.305zm-3.127-1.008c-.359 0-.666.128-.919.382-.254.254-.381.561-.381.919 0 .359.127.667.381.921.253.253.56.381.919.381s.666-.128.92-.381c.254-.254.381-.562.381-.921 0-.358-.127-.665-.381-.919s-.56-.382-.92-.382zm-26.24 1.959c.962-.229 2.037-.401 3.224-.518.697-.07 1.758-.142 3.182-.213 1.392-.072 2.446-.145 3.162-.217 1.168-.118 2.221-.297 3.161-.535 1.833-.457 3.434-1.033 4.805-1.731.445-.226 1.021-.545 1.727-.958.844-.494 1.445-.838 1.804-1.031l2.546 1.86c.269-.131.354-.355.251-.672l-.91-1.16 2.728.377.839 1.23c.172.19.345.257.518.196l.168-1.245 1.888 1.749.154-1.217 1.762 1.776V5.096l1.917 1.818V5.823c11.872 4.56 18.456 11.684 19.75 21.373-9.496-8.46-19.287-12.824-29.374-13.093l-.3.357-1.846.231c-1.986 2.1-3.982 3.158-5.987 3.175-.256-.498-.467-.873-.633-1.122-.266-.403-.556-.734-.871-.993-.792-.657-1.898-.982-3.314-.976-1.912.012-4.094.69-6.546 2.039-1.226.673-2.261 1.345-3.105 2.018-.919-.102-1.99-.086-3.214.042-2.448.259-4.437.964-5.966 2.114-.324.246-.571.619-.741 1.124-.082.252-.196.768-.342 1.549-.136.723-.285 1.296-.448 1.721-.25.645-.602 1.196-1.058 1.651-.076.078-.187.198-.334.358-1.145 1.145-2.525 1.718-4.144 1.718-1.618 0-2.999-.573-4.144-1.718C1.563 26.25.99 24.869.99 23.248c0-.704.169-1.458.507-2.262.364-.868.869-1.651 1.515-2.351 2.203-2.356 4.805-4.327 7.805-5.913 3.177-1.678 7.037-3.054 11.581-4.129z"/></svg>