<svg xmlns="http://www.w3.org/2000/svg" width="92.059" height="32"><path fill-rule="evenodd" clip-rule="evenodd" fill="#FFF" d="M1.984 14.83c-.151.151-.226.331-.226.538 0 .189.075.36.226.51.132.134.303.199.511.199.207 0 .376-.065.51-.199.151-.149.227-.32.227-.51 0-.207-.076-.387-.227-.538-.133-.133-.303-.198-.51-.198-.208 0-.378.065-.511.198zm70.428-1.53c1.719.284 3.118.548 4.194.793l-8.333 6.378-13.49-.114c-.169-.416-.463-.529-.878-.341-.113-.075-.189-.132-.227-.17-.076-.055-.16-.084-.255-.084-.094 0-.179.029-.255.084-.038.038-.066.076-.085.114-.037-.038-.113-.076-.226-.114-.171-.055-.379-.084-.624-.084-.227 0-.426.029-.595.084-.114.038-.189.076-.227.114-.019-.038-.047-.076-.085-.114-.075-.055-.16-.084-.255-.084s-.179.029-.255.084c-.039.038-.066.076-.085.114-.019-.038-.047-.076-.085-.114-.076-.055-.161-.084-.255-.084s-.179.029-.255.084c-.057.038-.085.076-.085.114-.056-.038-.132-.076-.227-.114-.17-.055-.377-.084-.623-.084s-.454.029-.623.084c-.096.038-.162.076-.199.114-.02-.038-.057-.076-.114-.114-.056-.055-.131-.084-.226-.084-.113 0-.198.029-.255.084-.057.038-.095.076-.114.114-.019-.038-.047-.076-.085-.114-.075-.055-.161-.084-.255-.084s-.18.029-.255.084c-.038.038-.066.076-.084.114-.038-.038-.114-.076-.227-.114-.17-.055-.369-.084-.596-.084-.245 0-.454.029-.623.084-.115.038-.19.076-.228.114-.019-.038-.047-.076-.085-.114-.075-.055-.161-.084-.255-.084-.095 0-.18.029-.256.084-.038.038-.065.076-.084.114-.02-.038-.048-.076-.085-.114-.076-.055-.161-.084-.255-.084s-.18.029-.255.084c-.037.038-.066.076-.084.114-.038-.038-.114-.076-.228-.114-.169-.055-.377-.084-.623-.084-.226 0-.435.029-.624.084-.094.038-.161.076-.198.114-.02-.038-.057-.076-.114-.114-.057-.055-.132-.084-.227-.084-.113 0-.198.029-.255.084-.056.038-.085.076-.085.114-.378-.228-.69-.057-.935.511H37.41l-.057.34c-.057.283-.123.548-.198.793-.264.736-.633 1.124-1.105 1.162-.265.019-.481-.029-.652-.143-.132-.094-.273-.244-.425-.451-.17-.284-.321-.502-.453-.653-.208-.283-.444-.529-.709-.737-.661-.51-1.492-.812-2.494-.907-.832-.094-2.381-.056-4.647.114-1.588.113-3.798.17-6.632.17-3.042-.057-5.102-.084-6.179-.084 0-.077-.028-.142-.084-.2-.056-.056-.132-.083-.227-.083-.076 0-.142.027-.199.083-.056.059-.084.123-.084.2h-.34c-.114.019-.227.027-.34.027 0-.076-.028-.142-.085-.198-.057-.058-.123-.085-.199-.085-.075 0-.142.027-.198.085-.076.057-.113.122-.113.198v.028c-.189 0-.378.009-.567.028 0-.075-.028-.133-.085-.17-.057-.056-.123-.085-.198-.085-.076 0-.151.029-.227.085-.057.057-.085.123-.085.198 0 .019.01.037.028.056-.189.021-.368.039-.539.058 0-.037-.028-.085-.084-.142-.058-.057-.124-.084-.199-.084s-.151.027-.227.084c-.057.057-.085.133-.085.227 0 .02.01.038.029.057-.17.039-.331.084-.482.143-.019-.039-.038-.067-.056-.086-.057-.057-.132-.084-.227-.084-.075 0-.142.027-.198.084-.057.057-.085.123-.085.199 0 .037.01.074.028.113-.075.037-.159.084-.255.142-.075.037-.142.084-.197.142-.058-.038-.114-.058-.171-.058-.094 0-.169.029-.227.085-.057.058-.085.133-.085.228 0 .075.028.142.085.198.02.019.048.038.085.057-.019 0-.028.01-.028.028-.19.34-.435.548-.738.624-.377.113-.746.094-1.105-.058-.282-.132-.595-.368-.935-.708-.264-.283-.765-.878-1.502-1.784-.718-.89-1.171-1.485-1.36-1.787-.114-.17-.161-.339-.142-.51l.085-.17-.538.027-1.474-1.699 1.474-1.928.34-.028c0-.094.018-.198.056-.312.095-.227.236-.397.425-.511.152-.075.643-.17 1.475-.283.018.094.056.17.112.228.095.095.199.142.312.142.114 0 .208-.047.283-.142.076-.076.114-.171.114-.284v-.057c.17-.02.35-.038.539-.057 0 .113.038.198.114.255.075.095.169.143.283.143s.217-.048.312-.143c.076-.075.113-.17.113-.282v-.03c.151-.019.321-.037.51-.056 0 .095.038.18.113.255.076.076.17.113.284.113.113 0 .217-.037.312-.113.076-.075.114-.169.114-.283v-.057l.624-.057c0 .113.038.197.113.255.076.095.17.142.283.142.114 0 .208-.047.284-.142.095-.076.142-.169.142-.283v-.027c.169-.021.34-.029.51-.029 0 .094.038.179.113.254.095.078.198.114.313.114.113 0 .208-.036.282-.114.077-.075.114-.169.114-.283v-.028c.188-.021.368-.029.538-.029 0 .094.038.179.114.256.075.074.179.111.312.111.113 0 .208-.037.283-.111.076-.077.114-.171.114-.284v-.029c1.738-.095 3.485-.16 5.242-.197 2.74-.038 5.753.047 9.042.255.737.037 1.644.094 2.72.17v.027c0 .114.038.22.114.313.075.075.169.113.283.113.114 0 .218-.038.312-.113.076-.075.114-.171.114-.283.246.019.462.029.651.029 0 .093.038.188.114.282.095.076.198.113.313.113.113 0 .208-.037.283-.113.076-.095.114-.199.114-.312v-.029c.245-.019.48-.047.708-.083 0 .094.037.178.112.253.076.076.171.114.284.114.114 0 .208-.038.283-.114.094-.093.142-.197.142-.312v-.056c.227-.058.426-.104.596-.142.019.037.056.075.113.113.075.095.17.143.283.143s.208-.048.283-.143c.094-.076.143-.17.143-.284 0-.075-.019-.141-.058-.197.227-.151.426-.322.596-.511.056.038.132.057.226.057.114 0 .208-.037.284-.113.075-.075.114-.171.114-.284s-.039-.217-.114-.311c-.019-.02-.047-.038-.085-.058.265-.435.539-.717.822-.85.189-.095.387-.123.596-.086.396.076.708.511.935 1.304.113.379.189.756.226 1.135l9.778.085c7.124.095 12.244.227 15.361.397 3.112.188 6.39.567 9.829 1.134z"/></svg>