<svg xmlns="http://www.w3.org/2000/svg" width="92.059" height="31.75"><path fill-rule="evenodd" clip-rule="evenodd" fill="#FFF" d="M5.04 14.941c-.285.287-.427.632-.427 1.034s.143.744.427 1.029c.286.287.631.43 1.033.43s.745-.143 1.03-.43c.286-.285.43-.627.43-1.029 0-.402-.144-.747-.43-1.034-.285-.284-.628-.426-1.03-.426s-.747.142-1.033.426zm44.092.138c-.239-.239-.526-.358-.861-.358-.336 0-.623.119-.862.358-.236.238-.357.525-.357.861 0 .336.121.623.357.861.239.238.526.357.862.357.335 0 .622-.119.861-.357.238-.238.356-.525.356-.861.001-.336-.118-.623-.356-.861zm3.552.796c0-.249-.089-.463-.267-.641-.176-.175-.388-.263-.638-.263s-.464.088-.642.263c-.176.178-.263.393-.263.641 0 .25.087.463.263.637.178.179.392.27.642.27s.462-.091.638-.27c.178-.174.267-.387.267-.637zm3.121.126c0-.201-.071-.374-.215-.518-.144-.144-.315-.215-.517-.215-.2 0-.373.071-.517.215-.144.144-.215.316-.215.518 0 .201.071.372.215.517.144.143.316.215.517.215s.373-.072.517-.215c.144-.145.215-.316.215-.517zm2.734-.013c0-.155-.056-.289-.168-.401-.108-.109-.241-.164-.396-.164-.155 0-.288.055-.401.164-.108.112-.162.246-.162.401 0 .155.054.287.162.397.113.11.246.166.401.166.154 0 .287-.056.396-.166.113-.11.168-.242.168-.397zM33.82 11.703c1.719-.212 3.441-.89 5.163-2.032.864-.571 1.554-1.121 2.071-1.649 1.289 1.375 2.659 1.937 4.111 1.684.322.394.984.589 1.985.589 18.566-.497 32.612 1.364 42.137 5.58-9.524 4.217-23.57 6.078-42.137 5.58-1.001 0-1.663.197-1.985.592-1.452-.254-2.823.309-4.111 1.682-.518-.527-1.208-1.078-2.071-1.648-1.722-1.143-3.444-1.82-5.163-2.033-.938-.113-2.117-.137-3.535-.066-1.036.053-2.44.174-4.211.359-2.831.301-4.354.459-4.573.479-1.783.17-3.324.27-4.625.297-1.527.037-3.126-.078-4.797-.348-1.633-.268-3.145-.648-4.534-1.146-1.433-.514-2.564-1.092-3.397-1.73-.814-.627-1.272-1.268-1.369-1.916-.009-.069-.009-.133 0-.193.097-.652.554-1.292 1.369-1.921.833-.64 1.965-1.216 3.397-1.731 1.39-.497 2.901-.878 4.534-1.145 1.671-.27 3.27-.386 4.797-.35 1.3.029 2.842.128 4.625.298.219.02 1.742.179 4.573.478 1.771.187 3.175.307 4.211.362 1.418.066 2.596.043 3.535-.072zm6.192-.301c-1.292 0-2.394.456-3.308 1.369-.912.914-1.37 2.016-1.37 3.307s.458 2.395 1.37 3.307c.914.912 2.016 1.371 3.308 1.371.341 0 .668-.033.982-.096.287-.059.564-.143.831-.254.545-.23 1.043-.57 1.495-1.021.912-.912 1.369-2.016 1.369-3.307s-.457-2.394-1.369-3.307c-.914-.913-2.017-1.369-3.308-1.369z"/></svg>