<svg xmlns="http://www.w3.org/2000/svg" width="61.193" height="32"><path fill-rule="evenodd" clip-rule="evenodd" fill="#FFF" d="M60.604 16.104c-.443.344-.894.677-1.349.996-.049.037-.104.074-.166.111-1.674 1.096-3.17 1.81-4.487 2.142-1.613.419-3.237.653-4.875.702-1.699.062-3.342-.074-4.93-.406-.628-.136-1.286-.29-1.977-.462-.786-.197-1.262-.308-1.421-.332-.911-.21-1.988-.346-3.232-.406-1.268-.073-3.096-.08-5.483-.019l-3.195.092-.202.444-1.921-.038c-.024-.061-.073-.136-.146-.222-.148-.16-.339-.302-.573-.425-.234-.11-.485-.197-.757-.259l-.333-.055-.109 1.588-.445.425c-.332.333-.572.635-.719.904-.148.26-.295.642-.444 1.146-.086.246-.152.462-.202.646h-1.034c0-.149.013-.319.037-.517.049-.407.13-.752.239-1.035.124-.282.259-.56.406-.831l.204-.332c-.086-.161-.196-.338-.333-.535-.259-.382-.492-.658-.702-.831-.222-.159-.437-.376-.645-.646l-.242-.352c-.221-.123-.479-.234-.774-.333-.616-.172-1.157-.166-1.625.02-.099.036-.597.27-1.495.7-.592.284-1.177.488-1.755.61-.651.147-1.581.167-2.789.055-1.009-.099-2.037-.258-3.083-.479-1.096-.271-1.864-.45-2.309-.536-.726-.159-1.317-.251-1.771-.277-.443-.011-.937.014-1.478.075-.271.023-.499.056-.683.092l-.686.555-.146.664c-.11.456-.221.714-.332.775-.16.111-.382.247-.665.407l-.479-.037c-.111-.062-.234-.154-.369-.278-.259-.232-.444-.492-.554-.774-.124-.284-.166-.732-.13-1.348l.093-.851L0 16.288v-.85l.407-.203c0-.21.011-.443.036-.702.049-.517.13-.88.239-1.09.136-.246.284-.411.444-.498.123-.074.325-.135.608-.185.196-.037.353.006.462.13.05.061.08.122.092.185 1.157-.074 2.444-.149 3.86-.223 2.856-.159 4.968-.228 6.333-.203 1.219.013 3.016.104 5.392.276 2.179.174 3.397.253 3.656.242.405-.026.77-.087 1.09-.186.185-.049.431-.136.739-.259.209-.062.363-.056.461.02.062.035.099.085.111.147.123-.112.271-.246.442-.407.32-.308.554-.585.702-.83.159-.26.289-.555.388-.887l.092-.443h.887v.462c-.037.356-.105.671-.204.94-.099.271-.245.543-.442.813-.099.146-.19.266-.277.352l5.207.073-.332-.518 1.22.518.867.037-.407-.591 1.367.591h.85l-.407-.591 1.367.628h.795l-.407-.518 1.33.555.831.055-.351-.609 1.274.609.886.038-.37-.61 1.274.61.923.036-.442-.592 1.163.592.961-.074-.314-.48 1.274.555.683.019c.616 0 1.292-.031 2.032-.093 1.206-.111 2.344-.233 3.415-.369l.37.277c.307.208.633.411.979.609 1.096.64 2.135 1.076 3.12 1.311.984.234 2.369.419 4.155.554.148.013.289.024.424.036.714.05 1.36.081 1.938.094l-.589.463z"/></svg>