<svg xmlns="http://www.w3.org/2000/svg" width="79.167" height="32"><path fill-rule="evenodd" clip-rule="evenodd" fill="#FFF" d="M32.168 14.728l-.087-.291.029-.289h-2.433v.607l2.491-.027zm43.772-3.62c-2.26 1.756-3.803 2.886-4.634 3.388-1.234.751-2.557 1.477-3.964 2.172-1.854.888-3.589 1.571-5.211 2.056-1.602.462-3.609.905-6.023 1.331-.771.114-1.523.231-2.256.349l-.899.144c-.075-.096-.184-.185-.316-.261-.253-.173-.493-.251-.726-.231-.231.037-.49.164-.78.376l-.405.317c-.097-.077-.214-.145-.348-.201-.29-.137-.541-.185-.754-.144-.229.038-.49.144-.778.315l-.379.261c-.096-.058-.202-.125-.317-.201-.271-.115-.503-.166-.694-.146-.193 0-.425.086-.695.259l-.349.263c-.096-.076-.221-.156-.376-.232-.308-.136-.57-.192-.781-.174-.134.018-.339.106-.607.262l-.291.231c-.096-.059-.211-.126-.348-.202-.271-.155-.511-.232-.724-.232-.229 0-.482.085-.752.262-.077.038-.154.086-.232.144l-.085.059c-.136-.078-.29-.155-.464-.231-.349-.174-.626-.261-.84-.261-.173 0-.397.097-.666.29l-.347.288h-2.896l-.289-1.158-1.592 1.593c-.021.02-.078.028-.175.028-.153.02-.337.02-.549 0-.212-.019-.389-.057-.522-.114l-.114-.06c-.192-.404-.463-.829-.811-1.273-.677-.849-1.381-1.342-2.115-1.478-.887-.114-1.775.029-2.663.436-.27.136-.512.28-.723.435l-.29.232-.404.029c-.289-.193-.655-.367-1.1-.523-.928-.327-1.805-.435-2.635-.317-.831.114-1.649.405-2.46.869-.405.231-.725.452-.955.664l-.407.06c-.56-.231-1.256-.454-2.085-.665-1.698-.427-3.29-.59-4.774-.493-.696.057-1.197.115-1.506.174-.561.098-1.14.279-1.737.55-.617.269-1.391.763-2.315 1.476-.464.35-.87.667-1.216.958l-1.68.577c-.096 0-.212-.01-.349-.029-.248-.019-.491-.049-.724-.087-.212-.059-.435-.144-.666-.261l-.288-.144-.202-.9-.984-.491c-.078-.061-.144-.117-.203-.177-.154-.155-.232-.317-.232-.492 0-.136.011-.271.028-.406l.03-.146c.211-.346.491-.761.84-1.243.675-.966 1.359-1.766 2.053-2.404.773-.695 1.439-1.206 2-1.533.424-.29.936-.529 1.533-.723 1.893-.715 3.562-1.247 5.009-1.595 1.157-.25 2.373-.444 3.647-.579 1.2-.131 2.907-.239 5.123-.317h.088c1.468-.039 2.886-.077 4.255-.115h.752c1.587-.017 2.929-.025 4.024-.028 1.638-.011 2.728-.011 3.271 0h.145c.774.02 1.447.152 2.028.404.307.115.539.241.693.376l.232-.29.231.232.202-.232.29.203.144-.144.232.087.088-.232.26.146.144-.203.262.173.117-.259.346.115.057-.262.32.146v-.348l.347.115v-.26l.376.027.552-.406.52.147c.444.095.956.212 1.536.348 1.755.346 3.655.616 5.699.809 2.047.155 3.872.232 5.474.232.578 0 1.253-.019 2.026-.057.426 0 1.101-.032 2.026-.089 1.447-.058 3.193-.185 5.238-.376 2.048-.212 3.86-.444 5.444-.696 1.68-.248 4.041-.79 7.091-1.619 1.525-.405 2.877-.781 4.053-1.13-.962.773-2.007 1.595-3.124 2.462z"/></svg>