<svg xmlns="http://www.w3.org/2000/svg" width="92.059" height="31.75"><path fill-rule="evenodd" clip-rule="evenodd" fill="#FFF" d="M4.341 19.058c.28.257.614.387 1.001.387.388 0 .71-.13.969-.387.28-.282.419-.615.419-1.002 0-.389-.14-.71-.419-.97-.259-.28-.582-.418-.969-.418s-.721.138-1.001.418c-.258.26-.388.581-.388.97.001.387.13.72.388 1.002zm-2.519-4.007c-.085-.106-.204-.161-.355-.161-.15 0-.279.055-.388.161-.107.109-.162.239-.162.39s.054.277.162.387c.108.107.237.162.388.162.151 0 .27-.055.355-.162.108-.109.162-.236.162-.387s-.054-.28-.162-.39zm34.299.26c-.28-.279-.615-.421-1.001-.421-.388 0-.711.142-.969.421-.279.257-.419.582-.419.97s.14.72.419 1.002c.258.257.582.385.969.385s.722-.128 1.001-.385c.257-.282.387-.614.387-1.002s-.13-.713-.387-.97zm31.875-.323c.108-.13.161-.269.161-.421 0-.171-.053-.323-.161-.451-.129-.106-.269-.173-.421-.193l-16.631-.517c-.28.021-.529.139-.743.354-.258.237-.388.526-.388.872 0 .323.129.604.388.839.214.215.463.334.743.356l16.631-.646c.152-.02.292-.084.421-.193zm22.348-2.971l-8.364 8.332c-7.277 2.714-14.974 3.466-23.092 2.26-.065-.063-.14-.129-.226-.193-.172-.15-.333-.237-.484-.257-.172 0-.334.041-.484.129-.086.041-.162.085-.227.128-.021-.063-.064-.115-.129-.161-.129-.131-.258-.194-.387-.194-.108 0-.195.044-.259.128-.021.043-.042.086-.063.132-.022-.065-.055-.12-.098-.161-.085-.13-.193-.194-.322-.194-.108 0-.194.044-.259.128-.043.044-.064.086-.064.13-.065-.063-.152-.13-.259-.193-.215-.15-.409-.226-.582-.226-.172 0-.301.052-.387.161-.065.044-.097.096-.097.159-.043-.042-.096-.095-.162-.159-.108-.109-.226-.161-.355-.161-.107 0-.183.052-.226.161-.021.064-.032.117-.032.159-.022-.042-.055-.095-.098-.159-.085-.109-.183-.161-.291-.161s-.182.052-.225.161c-.044.064-.065.117-.065.159-.043-.042-.097-.086-.162-.127-.171-.109-.354-.161-.548-.161-.194.02-.345.096-.453.225-.064.063-.107.128-.129.194-.021-.044-.053-.087-.096-.131-.108-.086-.216-.115-.323-.095-.108.021-.173.095-.195.226-.021.065-.032.129-.032.192-.043-.042-.086-.083-.129-.127-.129-.046-.237-.055-.324-.032-.085.041-.14.128-.161.258v.193c-.064-.043-.151-.075-.259-.098-.194-.041-.387-.021-.582.065-.171.085-.278.215-.322.388-.043.109-.053.193-.032.26l-.291.161c-.215-.282-.462-.551-.743-.809-.581-.539-1.065-.721-1.453-.548-.409.15-.7.548-.872 1.195-.087.32-.129.632-.129.936H44.58c-.108-.711-.398-.853-.872-.42l-.485-.195c-.043-.71-.355-.86-.937-.451l-.419-.195c-.086-.664-.398-.806-.937-.419l-.485-.129c-.043-.645-.355-.784-.936-.42-.539-.236-1.184-.474-1.938-.71-1.529-.453-2.82-.646-3.876-.582-1.098.065-2.421.368-3.971.905-1.357.537-2.11.807-2.261.807-.302.021-.797-.075-1.486-.292-1.378-.428-2.163-.667-2.357-.711-2.454-.667-4.952-.881-7.493-.644-1.615.13-4.124.644-7.525 1.55-3.166.884-4.845 1.334-5.039 1.357-.259.043-.56.063-.903.063l-.45-.032-.776-1.163-.193-3.294c-.172-.321-.344-.71-.516-1.16-.345-.906-.496-1.683-.452-2.327.021-.754.495-1.303 1.421-1.648.452-.17.904-.279 1.356-.323 0-.063.076-.182.226-.355.216-.279 1.356-.654 3.423-1.128 2.37-.56 5.006-1.003 7.913-1.325 2.647-.323 5.457-.493 8.428-.517 1.486-.021 2.712-.012 3.682.032 1.399.065 2.681.236 3.843.519.581.128 1.012.257 1.291.387l1.809.128.097.259c.108.172.258.271.453.292.192 0 .332-.087.42-.26l.064-.226.613.064.13.225c.085.15.215.226.386.226.173 0 .302-.063.389-.193l.065-.225h.613l.162.225c.151.153.313.217.484.193.151-.021.27-.107.355-.257l.064-.258.582-.098.226.162c.151.106.302.141.452.098.129-.046.216-.173.258-.387v-.26l.453-.162.259.13c.215.064.376.075.485.032.107-.066.17-.194.192-.387l-.032-.26.452-.258.291.064c.215.043.376.031.484-.032.107-.065.15-.193.129-.389l-.064-.289 1.066-.549.162.354c.193.28.419.505.677.679.281.171.615.301 1.001.388.195.042.367.063.517.063l19.087-.419 1.615.903c1.271.667 2.368 1.195 3.294 1.582 1.851.733 3.003.667 3.455-.191.151-.262-.042-.701-.581-1.327l-.872-.871c6.265.174 12.531.765 18.796 1.778z"/></svg>