<svg xmlns="http://www.w3.org/2000/svg" width="95.833" height="32"><path fill-rule="evenodd" clip-rule="evenodd" fill="#FFF" d="M88.067 18.142c-1.037.352-2.262.727-3.669 1.127-2.823.799-5.164 1.352-7.022 1.656-1.833.284-4.18.494-7.05.634-.916.048-1.824.086-2.714.108h-1.06c-.023-.117-.082-.283-.176-.496-.213-.398-.544-.763-.988-1.093-.399-.329-.905-.564-1.516-.704-.165-.047-.34-.068-.531-.068l-19.816-.11c-.095.029-.201.072-.317.143-.048.024-.095.083-.142.174l-.037.105-.458 2.19c-.332 1.549-.576 2.608-.742 3.173-.024.071-.059.165-.106.279-.071.117-.125.201-.176.249-.117.095-.339.166-.671.209l-.493.074c-.306-.024-.634-.035-.989-.035-.705-.028-1.173-.06-1.409-.107-.095-.022-.174-.072-.248-.141-.095-.072-.154-.153-.175-.249 0-.184.127-.454.388-.809.023-.023.199-.222.528-.598.238-.306.458-.602.667-.885.379-.542.589-.951.635-1.233.024-.187.024-.507 0-.955l-.033-.631c-.095.021-.165.021-.212 0-.143-.19-.305-.39-.491-.603-.328-.422-.624-.739-.882-.948-.378-.309-.746-.542-1.098-.708-.632-.285-1.326-.413-2.077-.387-.726.048-1.391.292-1.972.738-.636.444-1.106 1.061-1.415 1.833-.257.682-.458 1.188-.6 1.52-.09.161-.153.27-.177.313-.023.049-.065.085-.139.107-.117.095-.226.13-.313.108-.119 0-.27-.099-.464-.283-.234-.262-.456-.589-.667-.987-.167-.284-.284-.497-.354-.638-.143-.258-.27-.484-.387-.671-.354-.469-.813-.86-1.377-1.164-.634-.327-1.222-.527-1.762-.596-.682-.073-1.292.08-1.833.456-.378.235-.85.564-1.411.99-.4.304-.659.481-.775.526-.165.047-.34.057-.53.035-.115-.024-.316-.104-.599-.248-.354-.138-.728-.257-1.128-.353-.608-.139-1.199-.185-1.765-.139-.563.069-1.047.19-1.444.354-.377.164-.751.397-1.129.704-.233.21-.504.448-.813.707-.21.165-.41.278-.599.35-.419.166-.772.271-1.057.318-.304.025-.576.069-.81.143-.493.093-.931.235-1.304.423-.399.211-.821.552-1.271 1.02-.163.165-.479.565-.951 1.203-.378.469-.787 1.011-1.237 1.62l-1.091.428-.634-.139c-1.95-3.175-3.069-4.962-3.352-5.359-.047-.073-.361-.47-.951-1.203-.422-.539-.646-.878-.668-1.018-.023-.19.012-.426.104-.708.095-.235.213-.471.356-.708.095-.117.317-.374.671-.772.398-.401.689-.733.879-.989.117-.162.329-.495.634-.988.209-.401.4-.686.561-.847.216-.188.402-.316.569-.388.068-.022.21-.044.42-.071.095-.021.353-.046.777-.068.517-.047 1.059-.142 1.621-.286.708-.162 1.245-.305 1.621-.422.38-.139 1.06-.423 2.045-.847 1.155-.518 2.07-.916 2.752-1.195.916-.358 1.776-.66 2.579-.919 1.029-.331 1.738-.543 2.113-.634.612-.12 1.362-.215 2.256-.283.874-.072 1.717-.083 2.54-.035.542.047 1.247.14 2.114.283.708.093 1.401.165 2.082.21.566.025 1.352.034 2.362.034.73 0 1.445-.034 2.153-.101.355-.027.638-.05.847-.075l.034-.211.213-.037.105.215.354-.036v-.214l.283-.067.071.249.35-.039v-.246l.279-.032.038.244.353-.035v-.282h.247l.035.177.317-.035v-.285l.283-.036.034.251.283-.039v-.351l.248-.037.069.285.282-.073v-.349h.248l.067.244h.217l.033-.316.281-.037.038.283.21-.069v-.245l.249-.036.07.176.353-.108c.26-.092.438-.174.529-.247.094-.042.2-.118.321-.211.091-.116.174-.189.244-.211.092-.046.209-.069.349-.069.143.023.227.033.248.033.095-.046.26-.142.494-.284.189-.139.355-.22.495-.24.165-.051.34-.063.529-.039.095.025.234.06.422.107.026.02.19.104.494.246.257.138.492.225.708.247.233.047.41.047.528 0 .164-.046.271-.069.316-.069.143 0 .399.129.778.386.209.142.4.284.561.425l2.79.527c2.042.399 3.463.668 4.262.811 1.015.14 2.259.261 3.742.353 1.29.048 2.351.06 3.174.038 1.714-.05 3.137-.318 4.263-.812.284-.118.803-.38 1.552-.777.732-.378 1.154-.587 1.271-.633.163-.072.375-.106.634-.106.262 0 .438.034.53.106.05.046.107.141.177.28.05.091.13.26.248.492.209.448.411.708.596.777.214.069.413.06.603-.037.165-.094.269-.248.317-.458.022-.188.022-.377 0-.561l-.069-.212h.351l.14.281c.139.236.25.423.318.563.094.212.2.399.318.563.162.166.317.262.458.283.282.026.492.012.634-.032.26-.073.387-.238.387-.495 0-.26-.026-.503-.069-.742l-.109-.246.426.072.177.281c.14.211.26.388.353.528.117.282.212.46.281.53.118.165.274.273.461.317.188.048.365.038.528-.033.163-.048.268-.167.316-.354.047-.165.022-.378-.068-.635l-.18-.354.351.033.175.251c.117.164.2.301.249.419.094.215.164.366.211.458.121.168.256.284.425.352.467.189.831.168 1.091-.067.095-.072.155-.187.175-.352 0-.142-.011-.285-.033-.423-.023-.12-.083-.251-.176-.387l-.143-.143.493.034.178.317c.117.235.212.434.28.602.071.166.161.305.281.419.047.051.166.121.351.216.146.093.286.137.425.137.144.027.273-.011.389-.102.19-.143.272-.352.248-.634-.021-.099-.084-.238-.176-.427l-.14-.248.384.037.179.286c.142.209.223.352.245.418.047.119.118.25.213.391.12.165.222.279.313.353.168.096.342.153.532.177.235.045.423.024.566-.071.234-.162.317-.458.247-.883 0-.092-.038-.209-.108-.353l-.105-.174.493.105.106.139c.097.166.19.356.284.567.068.119.139.224.212.318.094.139.247.292.458.46.139.116.304.173.493.173.164 0 .305-.057.423-.173.091-.099.152-.226.178-.39.022-.117.008-.248-.036-.388-.051-.095-.118-.211-.213-.352l-.142-.176.425.104.174.213c.117.164.189.292.216.387.021.119.089.244.21.387.095.165.211.284.351.355.188.117.331.188.426.212.187.023.352-.036.494-.178.117-.116.172-.247.172-.389 0-.091-.023-.234-.072-.422-.043-.093-.1-.188-.173-.282l-.14-.109 10.296 1.308-7.224 7.547zm-47.965 5.359c-.256 0-.471.079-.634.247-.165.188-.246.4-.246.634 0 .235.082.438.246.6.164.165.378.244.634.244.236 0 .448-.079.634-.244.166-.162.248-.365.248-.6 0-.234-.082-.447-.248-.634-.187-.167-.399-.247-.634-.247z"/></svg>