<svg xmlns="http://www.w3.org/2000/svg" width="92" height="31.75"><path fill-rule="evenodd" clip-rule="evenodd" fill="#FFF" d="M22.304 9.901c4.72.455 9.859.124 15.423-.999 1.121.093 2.207.042 3.251-.144l.457.888c.027.004.058.007.088.007.207 0 .376-.047.514-.14.142-.087.214-.198.214-.322 0-.03-.004-.058-.01-.085l.555-.081c.014.099.06.184.136.259.096.089.207.137.341.137s.248-.048.341-.137c.089-.089.138-.198.138-.325 0-.036-.002-.071-.013-.107l.5-.079c.019.093.061.168.135.233.092.092.202.138.339.138.131 0 .243-.046.337-.138.093-.089.14-.193.14-.322 0-.037-.008-.076-.017-.114l.548-.11c.024.075.063.142.123.201.096.088.209.137.34.137.135 0 .248-.049.341-.137.093-.09.136-.196.136-.32 0-.054-.003-.102-.022-.146l.63-.169 2.188.745c1.712.526 3.2.87 4.462 1.031 1.202.155 2.979.272 5.339.357 3.757.137 5.828.213 6.215.233 4.278.242 9.238.966 14.88 2.178 2.82.605 5.214 1.189 7.181 1.747-1.263.902-2.804 1.847-4.63 2.828-3.651 1.962-6.879 3.13-9.691 3.502-2.84.378-6.376.508-10.613.388-1.357-.04-3.012-.111-4.969-.219-2.326-.128-3.691-.199-4.103-.215-1.951-.083-3.646-.074-5.094.017l-1.579.155c-.427-.256-.778-.333-1.052-.231-.252.096-.486.358-.708.793-.138.274-.355.816-.645 1.63-.352.964-.647 1.731-.893 2.304-.167.381-.366.625-.601.734-.233.105-.471.065-.714-.123-.559-.428-.973-1.419-1.236-2.969-.205.06-.397.046-.57-.049-.181-.093-.338-.266-.464-.516-.538-1.042-1.362-1.922-2.475-2.638-1.069-.687-2.243-1.124-3.528-1.319-1.314-.202-2.541-.109-3.669.276-1.228.42-2.198 1.143-2.913 2.163-.104.153-.239.231-.407.231-.174 0-.366-.076-.575-.231-.794-.634-1.678-1.113-2.659-1.44-.929-.309-1.884-.461-2.867-.455-.964.014-1.877.176-2.743.491-.882.317-1.64.772-2.278 1.363-.434.402-.901.461-1.396.18-1.872-.786-3.822-1-5.84-.628-2.104.379-3.919 1.333-5.441 2.857-.739-.107-1.293-1.365-1.662-3.765-2.274-2.26-2.006-4.018.822-5.271 6.451-3.537 13.107-4.955 19.963-4.259zM1.574 17.81l.432-2.184c-1.268.59-1.413 1.318-.432 2.184z"/></svg>