<svg xmlns="http://www.w3.org/2000/svg" width="79.833" height="32"><path fill-rule="evenodd" clip-rule="evenodd" fill="#FFF" d="M16.598 10.484c1.581-.238 2.805-.404 3.67-.504.71-.08 1.956-.148 3.729-.205 1.815-.041 3.166-.041 4.053 0 .751.019 1.569.107 2.456.265.437.08.8.149 1.096.206 1.047.575 2.169.89 3.374.948.253.021.609.021 1.063 0 .296 0 .462.011.504.032.08.099.426.058 1.034-.122.515-.139 1.035-.313 1.57-.529.473-.181.798-.279.974-.296.219-.041.493 0 .831.115.315.101.579.267.798.504.08.101.168.219.265.354.061.08.141.198.239.354.138.199.493.251 1.065.15.295-.04.571-.1.825-.178.298 0 .622-.167.976-.501.159-.159.299-.316.419-.477.036 0 .292.059.767.181.612.115 1.242.234 1.894.353.216.04.445.08.68.117 1.854.314 3.71.513 5.564.593 2.093.098 4.358-.048 6.806-.443 1.24-.197 2.267-.403 3.074-.619l.238.147c.279.156.681.402 1.212.736 1.244.732 2.495 1.253 3.76 1.57.669.16 1.459.274 2.364.354.376.021.781.038 1.216.058 1.023.041 2.386-.077 4.084-.354.845-.118 1.593-.245 2.247-.385-.216.279-.474.613-.771 1.007-.632.768-1.193 1.419-1.687 1.951-.532.593-1.39 1.164-2.573 1.719-.869.412-1.706.728-2.517.944-.098.021-.195.041-.296.06-.667.177-1.753.229-3.255.148-1.222-.057-2.365-.167-3.432-.326-.709-.118-3.433-.455-8.163-1.005l-6.897-.828-.114.382-1.866.147c-.099-.114-.197-.226-.296-.321-.08-.08-.228-.148-.444-.208-.198-.042-.363-.042-.502 0-.1.038-.217.098-.354.177l-.149.119.029-.178c.041-.16-.107-.278-.442-.354-.101-.021-.267.028-.502.148-.24.136-.366.236-.384.296-.022.058-.03.167-.03.321-.042.182-.136.367-.296.563-.16.219-.426.416-.802.594-.354.158-.661.245-.917.266-.216 0-.404-.038-.561-.118-.039-.018-.08-.042-.119-.059l-.029-.03.12.267c.059.157.096.334.116.532.02.217.012.481-.031.799-.019.296-.137.622-.353.979-.159.274-.328.501-.503.681-.098.116-.25.224-.442.322-.199.104-.327.122-.387.06-.059-.06-.077-.119-.059-.177.021-.022.109-.137.267-.353.136-.16.256-.486.352-.977.1-.476.14-.869.123-1.186-.023-.275-.146-.632-.39-1.066-.097-.177-.184-.336-.264-.473-.08-.116-.136-.176-.177-.176h-.623c-.433-.021-.777-.041-1.033-.062-.238 0-1.295-.119-3.167-.354-1.991-.258-3.137-.405-3.433-.443-.493-.039-2.446.048-5.857.264-3.394.24-5.454.414-6.185.533-.63.121-1.795.425-3.489.918-1.263.376-2.376.719-3.345 1.037-.613.176-1.655.59-3.138 1.24-1.437.633-2.335 1.057-2.691 1.272-.353.217-.611.385-.768.503-.178.139-.296.266-.355.386-.06.139-.1.237-.12.296-.02.039-.059.106-.116.207-.06.078-.198.098-.414.06-.198-.042-.405-.109-.622-.207-.196-.08-.623-.501-1.271-1.272-.258-.317-.476-.603-.65-.859-.2-.255-.287-.4-.267-.444 0-.099.12-.235.354-.413.217-.139.728-.472 1.537-1.006.613-.415 1.53-.897 2.754-1.448.253-.1.68-.275 1.271-.535.416-.196.68-.324.797-.383.456-.218.981-.446 1.567-.682.91-.336 2.032-.7 3.376-1.096 1.301-.354 3.095-.7 5.386-1.032.787-.1 1.547-.187 2.279-.267.609-.08.994-.121 1.153-.121.414-.02 1.174-.036 2.274-.058 1.383-.02 2.24-.02 2.575 0 .889.058 1.895.136 3.021.237 1.615.138 2.474.226 2.572.265.06.023.307.14.739.355.434.197.799.347 1.095.446.296.078.562.146.797.204.12.021.209.03.269.03l-.239-.326c-.097-.157-.176-.364-.233-.621-.039-.157-.06-.314-.06-.475 0-.078-.011-.128-.029-.146h-.062c-.53 0-1.042-.038-1.537-.118-.297-.042-1.232-.098-2.811-.178-1.616-.1-2.674-.148-3.165-.148-.512 0-1.144.018-1.896.06-.728.038-1.766.106-3.105.205-1.244.08-2.804.296-4.675.654-1.735.313-3.275.641-4.616.977-1.063.276-2.534.798-4.41 1.567-1.005.432-2.107.915-3.312 1.448-.475.216-1.106.583-1.896 1.095-.293.199-.709.481-1.242.858-.097.059-.227.049-.384-.03-.059-.02-.106-.05-.146-.088l-.061-.029c-.16-.061-.443-.326-.858-.799-.473-.535-.776-.871-.918-1.007-.217-.237-.362-.412-.441-.533-.08-.138-.08-.247 0-.324.058-.038.185-.188.384-.442.236-.3.415-.516.532-.652.157-.159.74-.542 1.746-1.155.493-.293.976-.571 1.449-.828.632-.374 2.041-.927 4.23-1.655 1.716-.593 3.078-1.025 4.083-1.303.556-.155 1.738-.371 3.55-.649zm9.528.033c-.195 0-.364.066-.501.205-.142.136-.208.305-.208.504 0 .194.066.364.208.501.137.139.306.208.501.208.197 0 .365-.069.504-.208.139-.137.206-.307.206-.501 0-.199-.067-.368-.206-.504-.138-.139-.306-.205-.504-.205zm2.25.413c-.139.116-.206.274-.206.472 0 .196.067.363.206.504.138.139.306.205.504.205.195 0 .362-.066.499-.205.141-.141.21-.308.21-.504 0-.197-.069-.355-.21-.472-.137-.14-.304-.208-.499-.208-.198 0-.366.069-.504.208zm37.873 2.632l-14.561-.355.563.296 14.41.384-.412-.325zm-34.207 1.627c0-.176-.066-.336-.205-.474-.139-.118-.296-.179-.475-.179-.194 0-.362.061-.501.179-.141.138-.208.298-.208.474 0 .181.067.335.208.474.139.139.307.206.501.206.179 0 .336-.067.475-.206s.205-.293.205-.474zm1.278-.208c-.142.118-.208.278-.208.474 0 .199.066.356.208.478.136.136.304.201.501.201.179 0 .333-.065.475-.201.138-.121.205-.278.205-.478 0-.195-.067-.355-.205-.474-.142-.137-.296-.207-.475-.207-.197 0-.365.07-.501.207zm-22.814 2.902c-.159.136-.237.296-.237.472 0 .197.078.362.237.503.136.139.307.206.504.206s.364-.067.501-.206c.159-.141.235-.306.235-.503 0-.176-.076-.336-.235-.472-.137-.141-.304-.211-.501-.211s-.368.071-.504.211zm-6.923-.211c.175 0 .332-.068.472-.206.138-.138.207-.295.207-.471 0-.199-.069-.355-.207-.478-.14-.136-.297-.205-.472-.205-.198 0-.366.069-.505.205-.118.122-.176.278-.176.478 0 .176.058.333.176.471.139.138.307.206.505.206zm2.041-1.684c0 .196.071.364.208.505.136.136.296.206.473.206.198 0 .366-.07.503-.206.136-.141.208-.309.208-.505 0-.177-.072-.334-.208-.473-.137-.138-.305-.207-.503-.207-.177 0-.337.069-.473.207-.137.139-.208.296-.208.473zm2.663 2.84c-.14.137-.207.296-.207.474 0 .196.067.367.207.503.138.14.306.208.503.208s.365-.068.504-.208c.138-.136.205-.307.205-.503 0-.178-.067-.337-.205-.474-.139-.137-.307-.207-.504-.207s-.366.07-.503.207z"/></svg>