<svg xmlns="http://www.w3.org/2000/svg" width="89" height="32"><path fill-rule="evenodd" clip-rule="evenodd" fill="#FFF" d="M81.346 17.205c-1.482.773-2.792 1.278-3.926 1.513-1.825.388-3.217.665-4.184.837-1.631.235-3.153.374-4.57.418-1.785.046-2.964.078-3.538.097h-.385c-1.16.021-2.24-.012-3.25-.097-1.05-.087-2.82-.376-5.31-.868-2.274-.472-3.561-.775-3.86-.903-.083-.042-.15-.062-.193-.064l-4.698-.063-.322-.451c-.15.086-.365.203-.643.354-.45.236-1.352.568-2.704.998-1.587.58-2.444.804-2.572.676-.152-.151-.27-.324-.354-.515-.108-.17-.193-.387-.258-.643-.085-.323-.312-.902-.676-1.739-.449-.965-.815-1.619-1.095-1.961-.321-.387-.686-.709-1.092-.966-.452-.255-.869-.385-1.255-.385-.515-.022-1.008.02-1.479.13-.643.17-1.105.458-1.383.866-.215.323-.441.687-.677 1.093-.129.324-.226.516-.291.579-.085.063-.236.097-.45.097-.149 0-.374-.021-.674-.063-.903-.172-1.739-.323-2.511-.45-1.457-.258-2.541-.354-3.25-.29-.877.021-1.469.032-1.771.032-.405.02-.931.107-1.573.258-.13.021-.667.138-1.61.353-.409.106-.697.16-.868.16-.214 0-.355-.011-.42-.034-.105-.02-.32-.104-.643-.256-.386-.193-.74-.312-1.063-.352-.405-.065-.761-.012-1.06.159-.428.258-.773.496-1.03.71-.365.32-.642.707-.835 1.156-.066.086-.257.547-.58 1.384-.173.472-.333.751-.484.837-.212.087-.45.138-.707.161-.277.043-.495 0-.643-.128-.322-.365-.602-.665-.837-.902-.429-.472-.761-.729-.998-.772-.386-.106-.676-.138-.869-.096-.43.021-.913.214-1.448.58-.516.34-1.341 1.157-2.478 2.443-.023.021-.688.807-1.995 2.349-.622.73-1.125 1.309-1.513 1.737-.729.772-1.178 1.16-1.351 1.16-.299 0-.524-.503-.674-1.513-.043-.257-.033-.824.032-1.704.108-1.01.257-1.835.45-2.478.365-1.137.729-2.049 1.094-2.734.622-1.245 1.426-2.36 2.412-3.347 1.096-1.051 2.393-2.07 3.893-3.057 1.352-.9 2.521-1.534 3.507-1.899 1.459-.535 3.271-1.028 5.439-1.479 1.479-.321 2.723-.548 3.729-.675 4.721-.537 7.23-.805 7.529-.805.215 0 .388.033.515.096.065.045.129.087.193.13.042 0 1.04.033 2.992.095.987.044 1.962.086 2.927.128l.258-.19h2.059l10.458.804.291.161c.191.13.309.277.354.45 0 .15.021.182.063.097 0-.022.01-.053.034-.097l-.096-.514 3.506.033v.546h-1.03l.225.481c.216.323.431.517.646.58.235.063 1.597.031 4.086-.097 1.242-.064 2.455-.139 3.632-.225l1.417-.193 2.993.965c.417.129.825.247 1.222.353 1.8.517 3.376.871 4.729 1.063 5.253.708 8.634 1.019 10.135.934.601-.021 2.038-.087 4.313-.194 2.1-.105 3.472-.247 4.117-.419l-.097.227c-.43.472-.9.964-1.416 1.479-1.095 1.072-1.932 1.781-2.51 2.123-1.456.856-2.475 1.437-3.051 1.736zm-29.118.933c-.065-.022-.108-.042-.129-.063-.042 0-.032.021.033.063h.096z"/></svg>