<svg xmlns="http://www.w3.org/2000/svg" width="96.583" height="32"><path fill-rule="evenodd" clip-rule="evenodd" fill="#FFF" d="M55.016 3.717h.91l.436.145c.073.145.183.231.328.255h.327l.072.146c.121 0 .206.013.254.036.098.048.182.036.256-.036.096 0 .242.013.436.036.169.048.339.122.508.218.194.072.353.157.473.254.146.073.231.122.255.146.072.025.146.037.217.037.099.073.183.109.255.109h.328c.048 0 .133.012.254.036.146.048.292.122.437.218.169.049.314.097.436.146l.182.108h.109c.072.194.133.375.182.546.072.168.133.363.181.581.049.218.073.424.073.618 0 .17-.012.34-.038.509 0 .17-.036.34-.108.508-.195.631-.388 1.031-.583 1.201-.194.194-.291.351-.291.473-.072.048-.121.072-.145.072-.07.024-.13.037-.182.038h9.673c.048.097.085.181.109.254.073.17.146.279.218.328.461.073.97.17 1.528.291.533.146 1.065.278 1.6.4.533.098.981.182 1.345.254.412.098.667.133.764.109.218 0 .352-.206.4-.618.048-.121.072-.291.072-.51l.727-1.454v-.327c0-.17.012-.365.037-.583.024-.266.061-.534.109-.799h1.164v3.999l-.038.291v.073c0 .072.098.108.291.108.073.073.51.11 1.31.11.824 0 1.818-.013 2.981-.037 1.188 0 2.461-.012 3.818-.037 1.333-.024 2.594-.036 3.782-.036.388-.024.776-.036 1.164-.036h.945c.291 0 .521.012.691.036h.799c.292 0 .57-.036.837-.108h1.09c.17 0 .255.036.255.108.243.897.352 1.467.327 1.71-.049.194-.158.291-.327.291-.073.072-.375.109-.909.109-.557 0-1.151-.024-1.782-.073-.581-.025-1.15-.049-1.708-.073-.559 0-.874-.024-.945-.072H78.762c0 .072-.146.109-.436.109v.509h1.636l.582.619v1.709h-.764c-.097-.024-.194-.073-.291-.146-.073-.023-.121-.059-.146-.108-.073-.025-.121-.037-.146-.037-.073 0-.158.012-.254.037h-.4c-.169.049-.363.072-.581.072l-5.6.182c-.776.073-1.492.132-2.146.181-.654.025-.994.037-1.018.037-.098.169-.254.401-.473.691-.218.314-.545.473-.981.473-.389 0-.837-.304-1.347-.909-.168 0-.314-.036-.435-.11-.146-.096-.255-.145-.328-.145.073.388.109.691.109.909v.692c0 .339-.012.593-.036.763-.049.146-.109.267-.182.364-.17.024-.364.024-.583 0-.169-.049-.364-.122-.581-.218-.097-.024-.521-.036-1.272-.036h-2.8c-1.091 0-2.243.012-3.456.036h-2.436c.037.129.074.263.109.4.291 1.114.436 1.999.436 2.653v6.837c0 .582-.06.897-.182.945-.169-.048-.338-.072-.509-.072H46.36c-.363 0-.594-.036-.691-.108-.145-.073-.218-.267-.218-.583l-.071-11.71c.049-.097.073-.194.073-.291-.041-.165-.205-.268-.49-.309-.03.005-.059.01-.092.018-.072.024-.157.121-.254.291-.097 0-.146.085-.146.255s.012.328.035.472c0 .122.037.219.11.292-.024.072-.073.157-.146.253-.098.074-.182.109-.255.109.073.17.109.327.109.473.024.146.037.328.037.545 0 .388-.048.74-.146 1.056-.146.314-.412.521-.8.617-.315.17-.704.279-1.164.328-.437.048-.848.048-1.236 0-.413-.049-.752-.097-1.019-.146-.267-.048-.399-.109-.399-.182-.097-.024-.195-.048-.292-.072-.194-.048-.316-.108-.364-.183-.023.074-.12.364-.29.873-.194.485-.412 1.031-.655 1.637-.242.582-.449 1.127-.618 1.635-.17.461-.255.716-.255.765.049.072.122.206.219.399.025.17.037.292.037.364 0 .097-.061.206-.182.327-.049.17-.182.376-.4.619-.266.217-.775.217-1.527 0-.387-.097-.8-.219-1.236-.364-.437-.17-.836-.328-1.201-.473-.412-.146-.848-.316-1.308-.509h-.256l.146-.219c.291-.509.631-1.09 1.019-1.746.412-.654.788-1.272 1.127-1.854.363-.583.654-1.08.872-1.492.243-.411.364-.654.364-.727.073-.169.061-.412-.036-.727-.122-.339-.303-.57-.545-.692l-.474-.254c-.129-.065-.257-.126-.382-.181l-7.181-.51h-6.146c-1.309 0-2.654.133-4.036.4-1.551.291-2.4.642-2.545 1.055-.097.218-.122.545-.073.981.073.533.254.994.545 1.382.29.364.375.618.255.764-.049.073-.134.108-.255.108l-12.76.586c-.34 0-.619-.169-.837-.509C.108 22.686 0 22.273 0 21.789V11.243c.121-.17.314-.303.581-.399.559-.243 1.2-.219 1.927.073.51.194 2.873.521 7.092.981.412.024.884.351 1.418.982.533.605 1.067.945 1.601 1.018.508.048 1.236.024 2.181-.072.825-.073 1.576-.182 2.255-.328 1.552-.291 2.91-.654 4.073-1.092.703-.266 1.685-.69 2.946-1.271 1.567-.669 3.275-1.02 5.127-1.056.153-.024.311-.048.472-.072.679-.096 1.358-.194 2.036-.292.655-.071 1.164-.096 1.528-.071v-.291c.146-.339.267-.667.364-.981.073-.268.182-.486.327-.655.169-.194.388-.339.655-.436.242-.073.583-.098 1.019-.073.363.073.751.158 1.163.255.413.072.788.157 1.128.254l1.053.363c.074.024.146.11.219.254.073.025.132.122.182.292.048.145.072.327.072.545v.473h5.854v-.473h3.091v.473c.242 0 .545.012.909.036h1.236c.412 0 .788.012 1.127.035.291.049.473.074.546.074.072 0 .375-.024.908-.074.534-.023 1.176-.06 1.927-.108.752-.024 1.528-.084 2.327-.182.849-.048 1.613-.133 2.292-.254.072-.024.181-.121.327-.291.121-.073.242-.193.363-.363.098-.194.207-.473.327-.837-.291-.242-.509-.387-.654-.436-.121-.048-.242-.109-.363-.182-.243 0-.388-.06-.437-.182-.242-.098-.522-.182-.836-.254-.339-.073-.631-.133-.873-.182h-.146c-.169-.121-.46-.182-.872-.182l-.692-.145c-.292-.074-.484-.135-.583-.183-.072-.048-.194-.17-.364-.364v-.036h-.763c-.266 0-.472.013-.619.037-.12 0-.242-.012-.363-.037-.217-.266-.351-.557-.399-.873-.073-.29.134-.836.618-1.636v-.108h.073c.63.169 1.031.303 1.199.399.195.146.341.279.437.401zM43.071 19.098c-.414.056-1.256.068-2.527.036-.146.194-.219.388-.219.583 0 .315.11.57.328.763.194.194.46.291.8.291h.946c.194 0 .388-.097.582-.291.194-.193.29-.448.29-.763 0-.205-.066-.412-.2-.619z"/></svg>