<svg xmlns="http://www.w3.org/2000/svg" width="79.808" height="32"><path fill="#FFF" d="M78.096 12.723l-3.506-.042v-.155l-2.355.039-.463.153-4.09-.038.811.155v.695l-.193.232-.887-.039v.309h-.656v-1.158h.154v-.156l-2.51-.076-.076.232-.078.578c-.025.051-.051.09-.076.116-.051.051-.117.077-.193.077-.051-.025-.117-.064-.193-.115l-.154-.078.039-.541-.078-.231h-.5l-.041.849c-.025.076-.076.128-.152.154l-.154.116h-.271l-.23.502L48 14.417l-.27-.153-.348-.078-.733.27-.077-.965-.696.04.038.617-.038.078c-.026.077-.064.141-.116.192-.052.026-.129.052-.232.078l-.116.039c-.025-.026-.065-.039-.116-.039-.103 0-.179.051-.232.155-.052.077-.103.154-.154.231l-.077.154v3.279l.23.078.039.271-.502.191v1.197c.052.926.168 1.787.348 2.584.181.799.463 1.803.849 3.012.181.617.348 1.145.502 1.58l.153.195-5.826 1.621h-.154v-.156c-.18-.617-.386-1.299-.618-2.045-.438-1.543-.733-2.688-.888-3.434-.153-.746-.258-1.518-.309-2.314l-.077-1.004-.425.078-.54-.078h-3.627l-1.196.115H32.6c-.181 0-.323.039-.425.117-.077.076-.155.154-.232.23l-.848 1.621.423.502-.115.076c-.155.053-.335.129-.542.232-.102.051-.192.127-.269.23l-.078.117-1.66 3.242c-.051.102-.063.205-.038.307.025.078.09.18.193.309.051.051.102.09.154.117l-.154.346-5.441-1.273 4.901-8.49c.051-.102.089-.217.116-.348.103-.23.129-.461.077-.693-.077-.282-.166-.514-.27-.693-.128-.18-.27-.335-.424-.463-.155-.103-.309-.18-.463-.232l-1.235-.039v.155l-.348.038-.038-2.123-.965-.038-.039-.348h-3.897l-.926.695-3.667.078v.348l-3.203.039.039 2.006H10.99v.812H9.91v-.771L6.282 18.59v-1.854L1.689 18.82l-.038.771-.039.115c-.052.104-.117.154-.193.154s-.128-.051-.154-.154l-.039-.119.079-10.262h4.09c.077.025.127.075.153.154.051.103.09.283.117.54l10.535.117c.052.026.09.051.115.076.051.052.077.116.077.192l8.529.04-.039-.348h1.003v-.27l.347-.038.039.269 1.002-.038v-.463h1.004l.078.078 2.585-4.13.115-.153c.104-.129.206-.206.31-.231.102-.078.232-.129.385-.155h.232l12.851 1.389.385.077c.309.103.527.232.656.386.128.181.257.399.385.656.052.128.104.244.154.348l-.076 2.508.27-.039.038-1.12.811.155v-.271l.27-.039v-.076c.026-.052.052-.091.077-.117.051-.026.117-.051.193-.077l14.279.231.154.31v.384l.387.04.076.038c.078.051.115.103.115.154.025.103.053.412.078.926h.502l.039-1.504 2.354-3.319.23-.193c.154-.129.309-.18.463-.154.387.051.67.192.85.424.076.077.115.167.115.27 0 .051-.014.09-.039.116l.039 4.36h4.092l.539.193 2.316-.038v-.155l3.508-.034m-11.3-2.242c-.078-.052-.143-.115-.193-.194-.025-.077-.078-.244-.154-.501l-.039-.386-.889-.077-1.389 2.16.195.155h2.623l.191-.232v-.925h-.345zm-2.432 2.277h2.469l.117-.385h-2.586v.385zM44.912 6.97H33.836c-.181.052-.322.116-.425.193-.103.078-.219.193-.347.347l-.154.193-.617 1.506.231.231 12.311-.078.153-.038c.104-.026.206-.078.309-.155.309-.206.463-.541.463-1.004 0-.386-.142-.694-.425-.925-.103-.078-.206-.142-.308-.193l-.115-.077zm-39.98 7.256l-.155-.039H1.921l-.154.039c-.078.077-.116.154-.116.231s.051.141.154.193c.025.026.064.051.116.077h2.895c.052-.026.09-.064.116-.116.077-.077.116-.141.116-.193-.001-.078-.039-.14-.116-.192zM1.651 9.67v.425h3.666c0-.077-.013-.167-.039-.27 0-.077-.039-.128-.116-.155l-.153-.038-3.358.038zm35.466 7.371c-.103-.051-.206-.088-.309-.114h-1.466c-.103.075-.219.192-.348.346-.206.335-.321.644-.348.927-.025.281.066.564.271.848.103.129.218.234.348.309l-.155.117c-.154-.078-.321-.207-.502-.387-.333-.309-.514-.643-.54-1.002-.025-.232.026-.502.155-.812l.154-.346c-.232.024-.451.103-.657.229-.462.309-.667.76-.616 1.352.026.334.193.643.501.926.154.154.309.271.463.35h3.473v-.464c.129-.104.231-.258.309-.465.128-.359.103-.758-.078-1.195-.128-.258-.346-.463-.655-.619z"/></svg>