<svg xmlns="http://www.w3.org/2000/svg" viewBox="0 0 67.5 32"><defs/><path fill="#FFF" fill-rule="evenodd" d="M2.081 4.085h.115v-.038h15.076c.334-.024.656-.038.965-.038.025-.026.051-.051.075-.077h.193c.051 0 .103.013.155.039.026.024.051.052.077.076H54.48c.05 0 .101.013.152.039.026.026.053.052.078.077.025.026.051.053.076.078.026.025.04.052.04.077.025.025.039.05.039.077.024 0 .039.013.039.038h.385v.926l.039.038v.153c-.026.026-.038.052-.039.078v.346h-.154v.078h.115c.052 0 .103.012.154.039l.038.04c.026-.026.052-.053.077-.078h.618c.026 0 .051.012.077.039v-.039c.052 0 .102.012.154.039.025.025.051.052.077.077 0 .025.013.052.039.077 0 .025.013.051.038.078v.692h9.91c.05 0 .103.013.153.04.025.025.053.05.078.077.025 0 .064.012.115.037.026.025.051.052.078.078 0 .025.012.052.039.077 0 .025.014.052.039.077V9.06c-.025.025-.039.051-.039.077 0 .025.014.051.039.077v.039c-.025.026-.051.051-.077.078v.115c-.026.025-.052.051-.078.077V9.6l-.039.038c-.026.025-.052.039-.077.039-.024 0-.064.012-.115.039h-4.782v.423h-.038v.04c-.025 0-.052.013-.078.039v.077c-.025.025-.052.05-.078.077h-.038c-.025 0-.064.012-.115.038-.052-.025-.104-.038-.155-.038-.026 0-.063.012-.116.038h-4.241c-.027.025-.052.039-.078.039-.025 0-.064.013-.116.039h-.077c-.025.026-.051.052-.077.078l.039.039c0 .025.012.052.038.077v.077c-.025.025-.051.038-.077.038v.078c-.026.025-.039.052-.039.077h-.077c-.025.025-.064.039-.116.039h-.347v.116h-1.35v.772c-.103.025-.218.039-.346.039v.039c0 .025-.013.051-.04.077 0 .025-.013.05-.038.077 0 .025-.013.038-.038.038 0 .025-.014.051-.04.077v.077c-.025.025-.051.051-.078.077v.077c-.025.026-.05.052-.076.077v.077c-.026.025-.039.052-.039.077l-.039.039c-.025.025-.039.052-.039.077-.026.026-.039.052-.039.077-.025.026-.039.052-.039.077l-.077.077c0 .026-.014.052-.04.078v.039c0 .025-.012.051-.038.076a.7451.7451 0 00-.039.04c-.013.016-.027.027-.038.039-.026.026-.039.052-.039.077-.026.024-.039.049-.039.077 0 .025-.013.037-.038.037-.027.028-.053.053-.078.078s-.038.051-.038.077c-.026.026-.052.052-.078.077a2.85 2.85 0 01-.078.077l-.076.077c-.03 0-.063.006-.097.02a.089.089 0 00-.019.057c-.026.025-.052.051-.077.077h-.03c-.021.01-.04.018-.059.019l-.019.02c-.026.025-.038.052-.038.077 0 .026-.013.052-.04.077 0 .026-.013.039-.038.039-.025.025-.051.052-.077.077-.076.027-.154.052-.231.079-.076.024-.142.05-.193.076v.039l-.038.04h-.462c0 .025-.014.039-.039.039a.3507.3507 0 01-.155.038h-1.542a.3498.3498 0 00-.154-.038c-.026-.026-.04-.052-.04-.078h-.386c-.024-.025-.063-.039-.115-.039l-.039-.039h-.078c-.078-.025-.141-.037-.191-.037-.026-.027-.052-.052-.078-.079 0-.025-.013-.052-.039-.077h-.038c-.051-.025-.103-.039-.155-.039-.025-.025-.051-.051-.076-.077 0-.025-.012-.052-.039-.077-.026-.026-.064-.052-.115-.078v-.038c-1.414 0-2.814.013-4.204.038-.025 0-.037.013-.037.04h-.04c-.052.026-.103.039-.154.039h-.462l-.04.039c-.05 0-.09.013-.115.039a.339.339 0 00-.155.039c-.025.025-.038.052-.038.077-.052.025-.103.052-.155.077-.025.027-.064.052-.115.079-.026.024-.053.037-.078.037 0 .025-.013.052-.038.077 0 .026-.013.052-.038.078h-.039c-.078.025-.141.038-.193.038-.026.026-.064.052-.116.078l-.077.077c-.026.024-.05.05-.077.076v.077c-.025.025-.038.052-.038.077-.053.026-.104.052-.154.078-.026.025-.064.052-.117.076-.025.028-.051.04-.076.04 0 .025-.013.05-.04.077-.024.027-.05.051-.076.076v.078l-.077.077c-.026.025-.039.052-.039.078-.026.025-.052.051-.078.076 0 .025-.012.052-.038.077v.039c-.026.025-.04.052-.04.077-.025.025-.039.051-.039.078-.026.025-.052.051-.076.076v.077c-.025.025-.038.053-.038.079 0 .025-.013.05-.04.077 0 .024-.013.051-.039.076 0 .026-.012.039-.039.039-.025.026-.039.052-.039.078-.025.025-.038.051-.038.077 0 .025-.013.05-.039.077v.077c-.025.025-.039.051-.039.077-.052.025-.09.051-.115.076-.025.026-.038.053-.038.078-.026.025-.064.039-.115.039 0 .025-.014.052-.04.077-.025.025-.051.052-.077.077 0 .025-.013.038-.038.038l-.039.04c-.052 0-.09.013-.116.039-.05 0-.102.013-.153.039l-.039.039c-.051.025-.103.039-.155.039h-.269l-.039.039c-.051 0-.09.014-.116.039h-.347c-.025-.024-.065-.039-.116-.039l-.039-.039h-.076c-.078-.025-.142-.039-.193-.039 0-.026-.013-.052-.04-.077h-.116a7.309 7.309 0 01-.153-.078c-.025 0-.051-.012-.078-.038-.022-.023-.042-.042-.057-.057-.087-.01-.171-.017-.251-.02-.025-.025-.051-.052-.077-.077-.025 0-.038-.013-.038-.039-.026-.025-.039-.052-.039-.078 0-.025-.013-.051-.039-.076a2.7952 2.7952 0 00-.077-.077v-.077c-.026-.027-.038-.052-.038-.077 0-.026-.013-.052-.039-.077v-.193c0-.026-.013-.052-.039-.077a5.812 5.812 0 01-.077-.079v-.386c-.025-.024-.038-.051-.038-.076V15.008c0-.024-.013-.051-.04-.076v-.078c-.025 0-.038-.013-.038-.037v-.077c-1.954 0-3.921.012-5.9.039 0 .025-.013.039-.038.039a.3667.3667 0 01-.155.037h-.193v.078c0 .025-.014.052-.039.076v.078c-.025.025-.051.052-.078.077a.2706.2706 0 01-.038.037l-.039.021v.019l-.077.077c-.026.027-.04.051-.04.076-.051.026-.088.04-.113.04 0 .025-.013.052-.039.077 0 .026-.013.052-.039.077v.077a5.482 5.482 0 01-.077.076c-.026.028-.064.053-.116.078 0 .025-.013.052-.038.077a1.933 1.933 0 00-.079.078c-.024.025-.051.039-.076.039-.026.024-.038.052-.038.076-.026.025-.052.05-.078.078-.025.025-.051.05-.077.076v.077c-.025.025-.051.053-.077.077l-.078.078c-.025.025-.039.051-.039.077-.05.025-.089.039-.115.039 0 .025-.013.05-.038.076a2.868 2.868 0 01-.078.078c-.025.025-.052.051-.078.077-.025.025-.05.051-.076.077-.027.026-.052.052-.077.077a.4837.4837 0 01-.116.077c-.051.025-.09.052-.117.077-.024.025-.051.038-.076.038 0 .026-.013.053-.038.078-.027.025-.04.051-.04.077h-.039c-.051.025-.102.039-.153.039-.026.025-.039.053-.039.077-.025.026-.038.052-.038.078l-.04.037c-.025.025-.051.039-.076.039s-.065.013-.117.04c-.05-.026-.089-.04-.114-.04-.026 0-.039.013-.039.04-.026.025-.039.051-.039.076h-.077c-.026.026-.065.039-.117.039h-5.282c-.052-.025-.103-.039-.155-.039-.025-.025-.052-.051-.077-.076 0-.026-.013-.053-.039-.078v-.154l.019-.039h-.135v.077c-.025 0-.039.013-.039.04v.076c-.026 0-.039.013-.039.039 0 .028-.013.052-.039.078v.038c-.026.026-.039.052-.039.077-.025 0-.051.013-.078.041v.191c-.025 0-.051.013-.076.039v.233c0 .026-.013.051-.039.077v.039c-.025.025-.038.05-.038.078v.037c-.026.025-.04.052-.04.076-.025 0-.038.013-.038.039-.025.026-.039.053-.039.078-.026 0-.039.013-.039.039v.193c-.026 0-.052.013-.078.039-.024.025-.037.051-.037.078-.026 0-.04.012-.04.038v.098c-.026.025-.038.052-.038.077-.027 0-.052.013-.077.04 0 .025-.013.05-.038.077v.116c-.025 0-.039.012-.039.039v.077c-.026 0-.039.012-.039.039 0 .025-.012.052-.038.077v.037c-.026.028-.039.053-.039.078-.025 0-.05.012-.077.038v.077c-.025 0-.039.013-.039.039v.078c-.025 0-.038.013-.038.04-.027.025-.04.049-.04.076-.025 0-.037.013-.037.038v.116c-.025.025-.039.052-.039.076-.026 0-.051.013-.077.039 0 .027-.013.053-.039.079v.038c-.026.025-.039.05-.039.077-.026 0-.039.014-.039.039v.078c-.025 0-.039.012-.039.038 0 .024-.013.05-.038.077-.026.025-.038.052-.038.078-.027 0-.039.013-.039.039-.027.025-.04.052-.04.076-.025 0-.038.014-.038.04-.026.025-.038.05-.038.077-.026 0-.052.013-.078.039-.025.024-.039.051-.039.077-.025 0-.038.012-.038.039v.077c-.025 0-.039.012-.039.038s-.013.052-.039.078l-.039.037c0 .026-.013.052-.038.077v.04c-.026.025-.039.052-.039.077-.026 0-.039.012-.039.039v.039l-.039.078c-.026 0-.039.012-.039.038v.077h-.019l-.02.039v.077c-.014 0-.028.007-.039.02-.015.002-.029.007-.038.019v.077l-.039.04-.04.076c-.025 0-.051.013-.077.04-.026.025-.039.05-.039.076-.026 0-.051.013-.077.039-.026.026-.039.052-.039.078-.026 0-.051.012-.077.038v.077h.135c.044.001.089.001.135 0v.078c-.026 0-.051.012-.078.037v.077l-.039.04c0 .025-.012.051-.038.076v.233c-.026 0-.052.013-.078.039v.078l-.039.037c0 .025-.013.052-.038.077v.425c0 .013-.007.026-.018.039-.018.004-.037.017-.059.04-.025.025-.04.051-.04.076-.025 0-.038.012-.038.039v.232c-.026 0-.052.013-.078.039v.076l-.037.039c0 .026-.014.052-.039.078v.039c-.026.025-.039.05-.039.077-.026 0-.039.013-.039.039v.038c-.051.025-.09.038-.116.038-.025 0-.064.014-.114.04h-.118c-.025 0-.063.012-.116.039h-.057a.5462.5462 0 00-.097.039c-.025 0-.039.013-.039.039-.025.024-.039.051-.039.078-.025 0-.052.012-.077.039 0 .025-.014.052-.039.076v.116c-.026 0-.051.012-.077.038-.025.025-.052.052-.078.077v.039c-.026.026-.039.052-.039.077-.025 0-.039.013-.039.039v.309c-.025 0-.05.013-.076.039v.309l-.039.038c0 .026-.012.053-.04.078v.155c-.025.026-.039.052-.039.078.052.025.091.049.117.076.026 0 .051.013.076.039v.154c-.025.026-.05.052-.076.077-.026.026-.065.04-.117.04h-.153c-.025.024-.04.051-.04.076-.025 0-.051.015-.076.039 0 .026-.013.052-.039.078l-.039.038c0 .025-.013.053-.038.078l-.039.039c0 .024-.014.052-.04.077v.037c-.024.027-.038.052-.038.078-.026 0-.039.012-.039.038h-.348v.271c.026.025.053.051.078.076l.039.04v.039c.026.027.039.052.039.077v.077c-.025.025-.039.051-.039.076-.021 0-.034.007-.039.021v.02c-.024.025-.037.049-.037.077h-.041a.341.341 0 01-.153.037c-2.492 0-4.974.014-7.441.039H9.72c-.027 0-.065.013-.117.039-.051-.025-.103-.039-.154-.039-.052-.025-.103-.039-.155-.039h-.153a.3534.3534 0 00-.156-.037c-.024-.028-.051-.052-.076-.077s-.052-.053-.078-.078a2.741 2.741 0 00-.076-.077c-.026-.026-.051-.052-.078-.077 0-.025-.012-.052-.039-.077-.025-.025-.05-.051-.076-.077-.027-.025-.052-.039-.078-.039a1.8921 1.8921 0 01-.077-.078 2.796 2.796 0 00-.078-.076c-.025-.026-.038-.052-.038-.077v-.348c.025-.025.05-.051.078-.076.025-.026.051-.052.076-.078h.193c.052 0 .103.013.155.039.025.025.05.052.077.077 0 .025.014.053.039.078V27.049a2.796 2.796 0 00-.078-.076c0-.026-.013-.052-.038-.078 0-.024-.013-.039-.039-.039v-.077c.026-.025.039-.052.039-.077l.077-.077h.039v-.194c0-.024.013-.038.039-.038 0-.025.013-.052.037-.078.012-.01.025-.018.04-.019.011-.014.024-.02.039-.02.025-.025.052-.05.078-.076.025-.025.05-.039.076-.039v-.078c.026-.024.051-.037.077-.037 0-.025.014-.053.039-.077l.038-.04v-.076c.025-.025.053-.039.078-.039v-.078c0-.024.013-.037.038-.037 0-.027.013-.052.039-.077V25.389c.025-.025.051-.039.077-.039v-.077c0-.026.014-.04.039-.04 0-.024.013-.049.038-.076.026-.025.052-.038.079-.038v-.194c.025-.026.05-.039.076-.039v-.077c0-.026.013-.038.039-.038v-.077c0-.025.012-.039.039-.039 0-.026.014-.052.039-.078v-.039c.025-.025.038-.051.038-.076v-.039c.026-.025.039-.052.039-.078.026-.025.051-.037.077-.037 0-.027.013-.052.039-.077V24.114c0-.025.012-.038.039-.038v-.078c.026-.025.05-.039.076-.039.025-.025.039-.051.039-.077l.039-.039c0-.025.013-.051.038-.077V23.65c0-.025.014-.039.039-.039 0-.026.012-.052.039-.077v-.054c.025-.025.038-.05.038-.076l.039-.041c.025-.025.039-.05.039-.076 0-.026.013-.039.038-.039v-.078c0-.025.014-.039.039-.039 0-.025.013-.051.04-.077v-.038c.025-.025.039-.052.039-.078.025-.025.051-.037.077-.037 0-.026.013-.052.038-.077 0-.025.013-.039.039-.039v-.077c0-.026.014-.04.04-.04v-.116c.025-.025.038-.052.038-.077l.04-.037v-.078c.025-.025.051-.038.076-.038 0-.026.013-.053.039-.078v-.039c.025-.026.038-.051.038-.077v-.039c.026-.025.04-.05.04-.077l.038-.038v-.077c.051-.025.09-.039.115-.039.027-.026.038-.052.038-.077s.014-.038.04-.038c0-.026.012-.053.038-.079V21.549c0-.026.013-.039.037-.039 0-.025.013-.052.039-.077v-.039c0-.026.014-.052.039-.077v-.04c.025-.025.04-.051.04-.076v-.04c.025-.025.038-.05.038-.077l.038-.037c.026-.026.039-.052.039-.077 0-.026.013-.04.039-.04 0-.025.013-.051.038-.076l.038-.04v-.077c.027 0 .052-.013.078-.039v-.154c0-.026.012-.052.038-.079v-.039l.02-.018.02-.04v-.019l.038-.039c.026-.025.039-.052.039-.077l.039-.038c0-.027.012-.051.039-.076v-.04c.026-.026.039-.052.039-.078.025-.025.051-.039.077-.039 0-.025.013-.051.038-.077v-.038c.026-.025.039-.05.039-.078l.038-.037c.026-.025.04-.052.04-.077 0-.026.012-.039.039-.039v-.077c0-.026.013-.039.038-.039v-.078c0-.025.013-.038.039-.038v-.117h.02c.019-.002.051-.016.096-.039V19.2c.026-.025.039-.051.039-.077l.039-.039c.026-.025.038-.052.038-.077l.04-.039c0-.025.013-.05.038-.077v-1.157c.026-.025.051-.039.078-.039 0-.025.012-.051.037-.076 0-.026.014-.04.039-.04v-.076l.038-.039c.026-.026.04-.052.04-.078l.039-.039c0-.025.012-.051.038-.077 0-.025.013-.039.04-.039v-.116c0-.025.013-.052.038-.077v-.039c0-.025.013-.052.039-.077v-.039c.026-.026.039-.052.039-.077 0-.026.012-.039.037-.039 0-.026.014-.052.041-.077 0-.025.013-.04.038-.04 0-.025.013-.05.038-.076.026-.026.052-.039.077-.039 0-.026.013-.052.039-.077v-.039c.026-.026.039-.052.039-.078 0-.025.013-.039.038-.039 0-.025.014-.051.039-.077v-.037c0-.025.013-.053.039-.079v-.038c0-.024.013-.052.038-.076 0-.025.013-.039.04-.039 0-.027.012-.053.039-.078 0-.025.012-.039.038-.039 0-.025.013-.052.039-.077 0-.025.013-.04.039-.04.025-.024.038-.051.038-.076l.04-.038c.025-.026.038-.053.038-.078l.039-.039c.025-.024.038-.051.039-.077-.025-.026-.051-.04-.077-.04-.025-.025-.038-.049-.038-.076h-.192c-.027-.026-.066-.039-.117-.039-.026 0-.039-.013-.039-.038h-.307c-.053-.026-.104-.04-.156-.04-.025-.024-.038-.05-.038-.076h-.502c-.025-.026-.064-.039-.116-.039-.026 0-.039-.013-.039-.04h-.424c-.051-.025-.103-.039-.155-.039-.026-.024-.038-.051-.038-.076h-.386c-.026-.025-.063-.04-.114-.04-.026 0-.04-.012-.04-.039h-.308a.3442.3442 0 00-.153-.037c-.025-.025-.04-.052-.04-.077h-.308c-.026-.026-.064-.04-.115-.04-.027 0-.039-.012-.039-.039h-.501a.349.349 0 00-.153-.038c-.027-.026-.039-.052-.039-.078h-.386c-.025-.025-.065-.039-.116-.039l-.04-.039h-.229a.3547.3547 0 00-.154-.037c-.026-.027-.039-.052-.039-.079h-.192c-.027-.025-.065-.038-.117-.038l-.039-.039h-.231c-.052-.025-.103-.039-.154-.039-.026-.025-.04-.051-.04-.077h-.114c-.026-.025-.065-.039-.116-.039-.025 0-.039-.013-.039-.039h-.116a.3351.3351 0 00-.154-.039c-.026-.026-.038-.052-.038-.077h-.192c-.026-.026-.064-.039-.116-.039l-.021-.023h-.156c-.05-.025-.102-.039-.153-.039-.025-.025-.039-.052-.039-.077h-.077c-.025-.026-.063-.039-.117-.039l-.039-.039h-.154a.3304.3304 0 00-.152-.039c-.027-.026-.041-.052-.041-.077h-.077c-.025-.025-.063-.04-.115-.04l-.038-.039h-.154c-.052-.024-.102-.037-.155-.037-.024-.028-.063-.053-.115-.077l-.077-.077h-.038c-.052-.025-.104-.039-.155-.039-.025-.027-.064-.053-.116-.078-.026-.025-.051-.051-.076-.076h-.039c-.051-.026-.103-.04-.153-.04-.027-.025-.065-.05-.117-.077-.026-.025-.052-.05-.077-.076h-.115c-.052-.026-.103-.04-.155-.04-.024-.025-.05-.051-.076-.077-.027-.025-.04-.052-.04-.077H4.24c-.052-.025-.103-.039-.155-.039-.025-.025-.038-.052-.038-.077h-.078c-.051-.025-.103-.052-.153-.077-.052 0-.091-.014-.117-.039-.026-.025-.051-.052-.077-.077s-.039-.052-.039-.078c-.052-.025-.09-.051-.114-.076-.027-.026-.065-.052-.117-.078-.026-.025-.051-.051-.077-.076-.027-.027-.053-.052-.078-.077-.052-.026-.103-.052-.154-.077-.052 0-.089-.013-.116-.039-.025-.026-.051-.052-.077-.078-.026-.025-.039-.052-.039-.076-.051-.026-.09-.052-.116-.078a2.795 2.795 0 01-.077-.077c0-.025-.013-.05-.039-.077a2.8324 2.8324 0 00-.078-.076c-.051-.026-.102-.052-.153-.077-.026 0-.052-.014-.077-.041-.026-.024-.065-.051-.116-.076-.026-.025-.065-.05-.117-.076-.051-.026-.089-.053-.115-.078-.012-.013-.025-.025-.039-.038h-.269v-.194c-.028-.025-.052-.051-.078-.078-.025-.025-.051-.051-.077-.076-.026-.027-.064-.052-.116-.077-.025-.025-.064-.052-.116-.077-.025-.026-.05-.052-.076-.078-.027-.025-.051-.052-.077-.077l-.04-.038c-.025-.026-.038-.052-.038-.077v-.04c-.026 0-.052-.013-.078-.037-.025-.025-.051-.039-.077-.039-.026-.025-.039-.052-.039-.077v-.078c-.02-.021-.032-.046-.032-.073a1.884 1.884 0 01-.078-.077v-.076c-.026-.026-.052-.051-.077-.078 0-.026-.013-.052-.039-.077 0-.025-.013-.039-.039-.039C.513 9.574.5 9.549.5 9.522V8.365c0-.025.013-.051.038-.076.026-.026.039-.053.039-.078s.012-.051.039-.077V7.479c.025-.025.039-.052.039-.077s.013-.052.039-.077v-.038c.026-.025.05-.052.077-.078.025-.025.05-.051.076-.076 0-.027.014-.052.039-.077v-.078c.026-.025.051-.051.077-.076.025-.027.051-.052.076-.079.026-.026.04-.051.04-.077.025-.025.05-.039.077-.039 0-.025.014-.05.039-.076 0-.026.012-.052.038-.078 0-.025.013-.052.041-.077v-.153c.024-.027.05-.053.075-.078 0-.025.014-.052.039-.077V5.822c.025-.027.037-.052.037-.079 0-.024.013-.05.039-.076v-.694c.026-.026.051-.052.077-.078 0-.024.013-.051.038-.076v-.154c.027-.025.04-.052.04-.077 0-.026.013-.052.039-.078v-.076c.025-.025.051-.038.076-.038.025-.028.064-.053.116-.078 0-.025.013-.052.038-.077.026-.025.052-.052.078-.078.025-.026.062-.051.115-.078zm26.951 10.064c-1.184.026-2.378.039-3.586.039v.694c.026.026.039.052.039.077.025.025.038.052.038.077.025.026.04.052.04.078v.116c.025.025.051.05.076.077.026.027.052.051.078.076l.078.078h.038l.039.039v.039c.026 0 .039.013.039.039l.038.04v.076c.05.025.102.052.155.077h1.658l.038-.04c.051-.024.09-.038.116-.038.025-.025.039-.05.039-.076h.039c.026 0 .051-.014.077-.04.077 0 .142-.013.193-.039.025-.025.051-.052.076-.077l.078-.078c.025-.025.039-.049.039-.076.025-.026.051-.052.077-.077v-.04c.025-.024.039-.05.039-.076.025-.026.052-.052.077-.078.025-.025.05-.052.076-.077v-.077c.027-.025.052-.052.079-.076 0-.025.014-.052.039-.077v-.116c.025-.026.038-.052.038-.078.026-.025.051-.052.078-.077l.077-.077h.076v-.039c0-.025-.013-.052-.038-.077 0-.025-.013-.052-.039-.077v-.039zm-4.821.694v-.076c0 .025-.013.052-.038.076-.025.026-.051.053-.078.078-.025.025-.051.052-.077.076v.039h-.039v.04l-.039.039v.039h-.038v.037c-.014.014-.026.028-.04.04v.038h-.038c-.026.027-.04.052-.04.077-.013.012-.025.025-.038.038-.012.013-.025.026-.038.04 0 .025-.013.052-.039.077v.039h-.019c0 .013-.007.026-.02.039v.04c-.025.025-.038.052-.038.076v.077h.887v-.153c-.025 0-.051-.014-.078-.04l-.077-.077c0-.025-.013-.052-.039-.077v-.154c-.025-.025-.051-.05-.078-.078v-.269c0-.025.004-.055.004-.081zm-22.592-4.76v-.155H1.56l.019.019v.116l.04.02zm4.684 1c.045.013.089.02.135.02v-.02h-.135z" clip-rule="evenodd"/></svg>
