<svg xmlns="http://www.w3.org/2000/svg" width="49.125" height="32"><path fill-rule="evenodd" clip-rule="evenodd" fill="#FFF" d="M28.065 10.277v-.086h-3.418v.259c.03.029.044.057.044.085v.045l.044.042v.042c.056.03.114.058.171.086.028.029.057.059.088.088.027.028.043.055.043.083v.043c.028.029.057.045.085.045 0 .028.015.056.044.085 0 .03.013.059.042.086 0 .03.014.044.044.044.027.028.043.055.043.086.028.028.042.058.042.087v.085l.043.043v.044c.029.028.057.057.086.085 0 .03.016.058.044.087.029.029.058.058.087.086v.044h.042v.045c.029.027.059.056.086.085v.085l.043.045v.042c.028 0 .057.015.085.044 0 .029.015.058.043.087h1.17c.028 0 .044-.016.044-.044.027 0 .056-.014.083-.043v-.037h.087v-.087c.029-.029.058-.057.087-.085.057 0 .101-.017.129-.044 0-.029.013-.058.043-.086v-.044-.086c0-.029.015-.057.043-.087v-.129c.028 0 .044-.015.044-.043.028-.029.042-.058.042-.085.028-.029.056-.059.087-.087 0-.031.014-.058.042-.086v-.044c.029-.028.044-.057.044-.086 0-.029.014-.058.043-.085.028 0 .057-.016.086-.045.028-.027.058-.043.087-.043v-.083-.088-.086-.13c0-.028.015-.056.043-.085 0-.029-.016-.057-.043-.086.008-.035.008-.063.008-.093zM44.15 6.385c.028.03.044.059.044.086 0 .032.013.044.042.044h.607v.044h3.936l.214.217v2.333l-.257.26h-3.633v.088c-.173 0-.363.012-.563.042l-.044.044c-.029.027-.07.071-.129.129-.028 0-.059.015-.088.042.029.032.045.06.045.088.028.028.043.059.043.087 0 .028.013.058.042.085v.39c-.03.03-.042.058-.042.086-.028.029-.059.057-.088.085v.346l-.043.042c-.029.032-.042.058-.042.089-.059.028-.114.041-.172.041-.058 0-.116-.013-.173-.041-.03-.031-.044-.057-.044-.089-.03 0-.059-.013-.086-.042l-.043-.042c0-.029-.015-.06-.044-.088 0-.028-.013-.057-.043-.086 0-.028-.013-.057-.042-.085l-.043-.045c-.027-.028-.056-.056-.086-.085l-.086-.086c-.029-.029-.043-.057-.043-.087h-.087c-.029-.029-.057-.058-.086-.086-.027-.028-.057-.057-.085-.088 0-.027-.016-.057-.043-.086 0-.028-.028-.043-.086-.043-.029-.028-.044-.058-.044-.085-.028-.028-.058-.059-.086-.087s-.057-.056-.085-.088l-.088-.085c0-.028-.014-.059-.042-.086h-.044c-.057 0-.115-.015-.173-.044l-.042-.042h-.13c-.029.057-.058.099-.087.128-.028.057-.043.101-.043.128-.028.032-.072.073-.128.131-.059.057-.117.101-.173.129-.059.029-.13.073-.216.129-.059 0-.102.016-.13.045h-.043v.043c0 .028-.015.057-.043.086h-.13c-.058.03-.1.058-.129.087 0 .03-.016.058-.043.086v.085c0 .031-.016.045-.042.045v.085c-.031 0-.06.016-.087.044V21.853c0 .029-.016.059-.043.087l-.043.043v.086c-.03 0-.059.013-.088.042l-.042.044h-.345c-.029-.029-.058-.044-.087-.044-.145 0-.289-.014-.432-.042-.059 0-.114-.015-.174-.042-.056-.03-.085-.059-.085-.087h-.086c-.03 0-.045-.015-.045-.043-.056 0-.114-.014-.172-.043-.029 0-.044-.013-.044-.042-.056 0-.115-.015-.172-.044h-.13v-.045c-.057 0-.114-.013-.172-.042-.059 0-.116-.014-.171-.041l-.044-.043h-.26c-.03-.03-.058-.045-.086-.045-.031 0-.058-.013-.087-.043-.059 0-.101-.014-.13-.042-.057-.03-.102-.057-.13-.086-.056-.03-.115-.058-.173-.087h-.043c-.058-.03-.101-.058-.13-.086-.056-.031-.099-.058-.128-.087 0-.03-.015-.058-.044-.086-.029-.03-.059-.044-.087-.044-.029-.027-.043-.057-.043-.085-.029-.028-.056-.058-.085-.086-.031-.03-.044-.057-.044-.089-.029 0-.057-.013-.087-.042-.028 0-.057-.014-.085-.042 0-.028-.014-.056-.043-.087 0-.027-.015-.056-.042-.088 0-.027-.015-.055-.044-.083 0-.029-.014-.043-.043-.043v-.088c0-.027-.015-.055-.045-.086v-.043c-.028-.03-.056-.057-.085-.086l-.043-.044v-.087c-.029-.027-.042-.056-.042-.085 0-.028-.015-.058-.043-.088v-.042-.128-.09-.249-.131-.086-.085-.174-.087-.085-.13-.086-.13-.13-.087-.086-.128-.131-.129-.086c.029-.029.043-.057.043-.086.028-.029.042-.058.042-.087V17.115v-.089-.128-.088-.086-.172c.03-.028.043-.058.043-.087.029-.027.043-.057.043-.087.028-.028.042-.058.042-.086v-.045-.084-.086-.173-.087-.085-.132-.086-.169-.087-.087-.086-.13-.135-.131-.086-.087-.129-.131-.083-.133-.086-.086-.175-.086-.086-.129-.086-.086-.087-.086-.087-.086-.129-.085-.174-.087-.084-.135-.087-.129-.13-.086-.087-.129-.129-.087-.13-.086-.085-.172-.088-.086-.13-.085-.086-.129c-.056-.028-.099-.044-.128-.044h-6.703c0 .028-.015.044-.043.044l.043.042c.029.03.043.058.043.087v.689c-.029.03-.058.059-.086.089v.301c-.058.031-.116.058-.173.087-.028 0-.058.013-.087.044-.027.028-.056.043-.086.043-.029.029-.044.057-.044.086-.027.03-.057.058-.085.086-.057.027-.102.057-.13.086v.045c-.027.027-.043.056-.043.085v.172c-.029.029-.059.059-.086.087V12.785c-.03 0-.044.014-.044.044-.028.028-.057.055-.086.087V13c0 .028-.014.057-.043.088 0 .027-.014.042-.043.042v.173c0 .028-.015.042-.043.042-.028.031-.072.06-.129.087l-.043.044c-.029.028-.059.059-.087.086-.03.029-.073.042-.13.042-.116.03-.245.06-.389.086-.03 0-.059.015-.086.045h-1.384l-.043.042h-.129c-1.038.03-2.076.059-3.114.088-.029 0-.058.014-.087.043h-.301c0 .028-.015.042-.043.042-.028.029-.057.058-.084.086l-.046.045h-.042V15.632c-.028 0-.044.015-.044.043s-.012.058-.042.087V17.66c.029.03.042.059.042.086 0 .031.016.06.044.088v.82c.029.029.042.059.042.087l.046.044c0 .029.014.057.042.086V19.302c.028.027.042.057.042.087l.043.042v.647c0 .027.014.058.042.085v.086c.03.029.045.06.045.088v.603l-.045.042c-.028.031-.042.058-.042.088-.029.029-.058.043-.085.043v.173l-.042.043v.086c-.03.028-.06.058-.088.085V22.235h.088c0 .027.014.057.042.086V23.14l.042.045c.029.028.043.055.043.084v.561c0 .028.014.058.042.085 0 .029.016.043.045.043V24.476c.029.03.058.044.087.044V24.996c.028.027.056.057.085.085h.042V25.642c0 .028.016.043.044.043V26.202c.03.028.059.043.087.043 0 .028.013.056.043.085v.477c.03.028.057.057.085.087v.43l.044.042c0 .031.013.057.043.087v.302c.029.03.045.058.045.085l.041.045v.131c.031.027.043.057.043.084.031.03.045.056.045.086l.042.044v.26c.028.03.057.042.085.042v.045c.029.026.043.056.043.085 0 .028.015.057.043.085v.13c.029.029.044.059.044.087.029.028.044.058.044.086.029.029.057.043.087.043 0 .029.012.044.043.044v.172c0 .028.013.057.042.087v.086h.043c.058 0 .116.015.174.042.028.029.042.057.042.085s.014.046.044.046v.949c.029.03.043.058.043.086l.044.044v.128c-.03.03-.059.059-.088.087-.03.03-.044.059-.044.087h-1.6c-.028 0-.071.015-.13.044h-.042c-.085.028-.159.043-.217.043-.028.029-.071.056-.128.085h-.043c-.028.029-.072.043-.13.043h-1.731c-.055-.029-.127-.043-.216-.043-.056-.029-.114-.056-.171-.085v-.043c-.059-.03-.117-.044-.175-.044h-1.081v-.042h-.059c-.06 0-.116-.015-.173-.044-.029-.028-.058-.057-.086-.087 0-.029-.016-.055-.044-.086v-.042c-.029 0-.057-.016-.086-.044 0-.028-.015-.057-.043-.086v-.086-.089c-.029-.028-.058-.059-.087-.086v-.131c-.029-.028-.057-.057-.086-.084v-.045-.086-.087-.129c-.03-.03-.059-.059-.087-.085v-.047-.085c0-.028-.015-.042-.042-.042 0-.027-.015-.059-.045-.086 0-.03-.014-.059-.044-.087v-.086-.13l-.043-.043c0-.028-.014-.058-.042-.086v-.129-.088-.085c-.029-.029-.057-.059-.087-.085v-.087-.087-.086c-.028-.029-.041-.06-.041-.087 0-.029-.016-.044-.044-.044v-.086-.084-.089c-.029 0-.059-.014-.087-.042l-.043-.045v-.085-.085-.131c0-.027-.014-.057-.042-.086v-.173c0-.031-.015-.058-.043-.088 0-.027-.013-.056-.044-.086 0-.028-.014-.056-.042-.085v-.128-.132-.129c-.029-.027-.043-.058-.043-.086 0-.028-.014-.057-.043-.086v-.131-.128-.087-.135-.086c-.03-.03-.043-.06-.043-.087 0-.029-.015-.059-.043-.086v-.086-.086-.087-.086c-.029 0-.044-.016-.044-.044 0-.029-.013-.058-.042-.086v-.085-.087-.085-.087c0-.028-.015-.059-.043-.086 0-.029-.016-.059-.044-.088l-.043-.044v-.083-.088l-.043-.044c0-.028-.015-.042-.044-.042v-.085-.088-.13-.086-.13-.129c0-.026-.014-.057-.043-.086 0-.028-.014-.056-.042-.085v-.129-.13-.087-.129-.086-.085-.174-.087-.085-.131-.085-.086-.086-.087-.087-.129-.087-.086V21.621v-.088-.085-.129h-.301c-.029 0-.058-.016-.087-.045-.028 0-.058-.013-.086-.041h-.042c-.06 0-.115-.015-.174-.045-.028-.028-.058-.056-.086-.085-.027-.03-.056-.057-.085-.088v-.085-.086-.131c0-.027-.016-.056-.045-.084 0-.029-.013-.06-.042-.088v-.084-.087-.088-.086-.128-.086l-.087-.087v-.173-.086-.086-.128-.087-.13-.129-.085-.087-.13-.129-.131-.083-.088-.087-.173-.086-.13-.088-.086-.172-.084-.087-.13-.085-.089-.172-.086-.087-.086c.029 0 .044-.013.044-.042.029-.028.043-.058.043-.087v-.173-.088-.085-.088-.127-.087h.042v-.085c.029-.032.045-.061.045-.088v-.085-.087-.128-.087c.029 0 .058-.016.085-.045v-.085-.131c.029-.029.044-.057.044-.085.029-.029.057-.059.086-.085v-.131c.029 0 .058-.015.086-.043v-.086-.087-.13c.03-.028.044-.058.044-.087 0-.028.013-.056.042-.083v-.086h.086v-.089-.085-.087c.029-.029.043-.057.043-.086.03 0 .056-.014.086-.045v-.086-.129l.044-.044v-.087-.085-.129-.086-.128-.131-.086-.087-.129c.028-.028.057-.058.085-.087l.043-.042V12.3v-.129-.088-.086c-.028-.029-.043-.058-.043-.086-.028 0-.057-.016-.085-.044v-.042-.086-.086-.13c-.028-.029-.044-.058-.044-.085-.03-.029-.057-.059-.086-.087-.029-.031-.059-.044-.086-.044l-.043.044v.087c0 .027-.016.057-.042.085v.043c-.029.03-.06.058-.088.087-.027 0-.057.014-.086.042l-.042.044h-.129c-.03 0-.087-.014-.174-.044-.027-.029-.073-.042-.13-.042h-.128c-.952.029-1.931.057-2.941.086-.029.03-.043.058-.043.086-.028 0-.043.015-.043.042h-.128c-.059 0-.118-.015-.173-.042 0-.029-.016-.057-.043-.086-.03-.029-.057-.057-.086-.086l-.042-.043c0-.031-.016-.044-.043-.044 0-.03-.014-.057-.046-.087v-.042l-.043-.044c-.026 0-.056-.015-.085-.043H6.152c-.058 0-.116-.015-.173-.044-.029-.029-.058-.042-.086-.042-.029-.029-.058-.058-.086-.087v-.13-.089c-.028 0-.056-.013-.087-.042-.029 0-.059-.014-.087-.042-.028-.029-.058-.06-.086-.088 0-.028-.013-.057-.044-.086v-.13c0-.028-.014-.056-.041-.085v-.086-.087h-.088c-.027 0-.043.016-.043.043v.173c-.027.029-.043.057-.043.088v.042c0 .027-.015.058-.041.086v.13c0 .028-.015.055-.046.083v.129c-.027.03-.043.059-.043.089v.087c-.028 0-.042.013-.042.042V11.736c0 .03-.014.058-.043.086v.086h-.059c0 .028-.015.058-.043.086v.216c0 .029-.013.059-.042.087v.259c-.029.029-.059.057-.086.085-.059.058-.116.117-.174.174-.029 0-.043.027-.043.086-.03.057-.044.116-.044.173 0 .058-.015.101-.043.128-.029.058-.043.117-.043.173-.029.031-.042.06-.042.087-.06.06-.102.116-.131.173v.131c-.029.057-.044.114-.044.173v.129c-.058.027-.101.072-.128.131-.03.056-.045.113-.045.171-.028.03-.072.074-.129.13v.129c-.028.058-.057.101-.085.131-.03.056-.057.113-.087.172 0 .057-.015.102-.043.129v.172l-.042.045c-.03.027-.043.056-.043.087-.03.027-.044.069-.044.128-.029.058-.057.114-.086.173-.029 0-.057.015-.086.043l-.043.044v.042c-.03.029-.058.058-.086.085v.088l-.044.043v.087c0 .027-.013.055-.042.086 0 .027-.015.042-.043.042-.03.03-.044.06-.044.088-.03 0-.058.014-.086.044v.084c0 .031-.013.06-.043.086v.087c-.028 0-.058.014-.087.044-.029.028-.043.057-.043.086-.028 0-.057.015-.085.043-.057 0-.086.017-.086.043-.029.028-.044.058-.044.088h-.086c0 .027-.015.041-.043.041h-.433c-.027 0-.07.016-.13.046-.113 0-.216.014-.301.042h-.217c-.144-.028-.273-.057-.39-.087-.086-.026-.156-.041-.215-.041-.087-.03-.172-.045-.259-.045-.059 0-.115-.015-.174-.043 0-.026-.013-.059-.042-.086l-.086-.086v-.086-.087-.087-.131-.084-.086-.173-.087-.085-.132-.086-.169-.087-.087-.086-.13-.157-.131-.086-.087-.129-.131-.083-.133-.086-.086-.175-.086-.086-.129-.086-.086-.087-.086-.087-.086-.129-.085-.174-.087-.084-.135-.087-.129-.13-.086-.087-.129-.129-.087-.13-.086-.085-.172-.088-.086-.13-.085-.086-.087-.086-.088-.133-.085-.087-.173-.086-.085-.13-.086-.133-.129-.087-.084-.13-.131-.086-.129-.088-.087-.173V7.9v-.13-.087-.084-.176-.086-.086-.13-.087-.086-.172-.087-.086-.132-.086-.129-.131-.085-.088-.126-.134-.127-.088-.086h.042l-.05-.043v-.13c.027-.028.043-.058.043-.086.028-.028.056-.058.086-.089.029-.027.059-.056.087-.085l.086-.085c0-.03.015-.058.043-.087.029-.03.045-.059.045-.086.028-.03.041-.059.041-.086.029 0 .06-.016.086-.043l.044-.047c.059-.028.1-.041.129-.041.086-.029.146-.059.174-.087.057 0 .128-.013.216-.042.028 0 .043-.017.043-.045h.129c.089-.029.16-.042.217-.042v-.045h.086c.06.031.117.058.173.088.031 0 .044.014.044.045 0 .029.016.042.042.042v.087h2.338c-.016-.015-.03-.03-.044-.045 0-.029-.015-.056-.043-.085V4.31c-.028-.03-.057-.057-.088-.088V4.18v-.304-.172c.03-.028.06-.043.087-.043v-.045c.029-.027.044-.056.044-.083.028-.03.045-.06.045-.087.026-.03.041-.059.041-.087.029 0 .043-.016.043-.045 0-.026.015-.057.043-.086.028 0 .058-.015.087-.042.028 0 .072-.015.129-.045.029 0 .059-.014.087-.043v-.041-.088-.129-.131c.028-.029.043-.057.043-.087.057-.028.1-.057.128-.084.029-.029.073-.06.129-.089l.046-.042h.517c.029 0 .072.014.13.042.028.029.057.045.086.045.058.029.115.059.173.087 0 .028.014.058.042.085.031.029.074.043.13.043h.129v.044c.087-.028.16-.044.217-.044.03 0 .059-.014.088-.043.026 0 .056-.014.085-.043.028 0 .072-.013.128-.042h.13c0 .028.031.058.086.085 0-.027.015-.057.045-.085v-.087c.029 0 .057-.016.085-.045l.043-.042c.03-.028.059-.058.088-.086.034-.028.048-.059.048-.087.028-.028.057-.057.085-.086l.043-.042v-.087-.086c.029 0 .057-.016.088-.044v-.086c.028-.028.056-.043.084-.043.03-.03.06-.046.089-.046 0-.027.014-.042.044-.042.057-.03.101-.045.127-.045.059-.027.116-.042.175-.042v-.041h.043c.029 0 .043-.018.043-.045.028 0 .042-.015.042-.042H39.047c0-.031.014-.045.044-.045h.085v-.041h.089c.058.028.115.056.173.086.057 0 .116.013.171.042.029.027.06.045.088.045.057.028.099.056.127.083.03.03.074.06.131.086l.045.045c.029.03.058.056.086.086.03.029.056.06.087.087v.086c.029.028.043.058.043.087.058.027.101.056.13.086.028.029.043.057.043.086.029.028.058.057.086.086 0 .028.029.043.087.043 0 .028.012.042.042.042v.045h.131c.029.029.056.044.087.044.028 0 .043.015.043.043h.649c0-.028.014-.043.043-.043.028 0 .072-.015.128-.044h.174c.028.029.071.044.129.044.029 0 .043.015.043.043h.087c.058.028.116.058.174.085l.042.043c.058 0 .101.016.13.044h.042c.058.026.116.057.174.086v.041c.057.03.114.06.172.088 0 .029.015.059.044.088h.086v.43c.028.058.071.116.128.173l.045.087c0 .058.012.116.041.173v.301c-.026.035-.038.062-.038.092h.128c.029 0 .073.014.13.045 0 .029.016.042.044.042.028.029.057.058.086.087.03.028.042.058.042.087 0 .028.015.043.043.043v.128c0 .029-.013.059-.043.086v.088l-.042.042v.303c0 .028.015.071.042.128 0 .056.03.115.088.174l.043.085c0 .058.014.116.043.175v.299l-.043.044h.043c.058.029.115.057.173.086 0 .029.015.043.044.043.056.033.114.062.171.09zm-20.67 5.234c-.03-.029-.043-.057-.043-.087-.03 0-.059-.015-.088-.043-.027-.029-.042-.058-.042-.085v-.087c-.03-.029-.043-.058-.043-.086 0 .028-.015.057-.044.086V11.619c0 .029.016.057.044.086v.086c0 .027.013.042.043.042v.346c.03.029.057.059.085.087v.044h.651c-.032-.001-.06-.016-.087-.044-.03-.028-.059-.058-.088-.087-.028 0-.043-.015-.043-.042-.029-.03-.055-.061-.085-.088s-.043-.059-.043-.086v-.086c-.031 0-.042-.016-.042-.044-.031 0-.058-.015-.089-.042-.027-.029-.056-.057-.085-.086-.001-.029-.001-.057-.001-.086zM.863 7.121v1.34c.028-.03.043-.058.043-.086v-.13-.174-.131-.127-.13-.173-.13-.129-.13-.173-.128-.131c0-.029-.015-.058-.043-.086V7.121z"/></svg>