<svg xmlns="http://www.w3.org/2000/svg" width="73.625" height="32"><path fill-rule="evenodd" clip-rule="evenodd" fill="#FFF" d="M32.092 2.094c.028-.028.069-.056.125-.083V1.841v-.168c.169.029.337.042.505.042v.083c.167 0 .335.015.502.042v.084c.029 0 .071.014.128.041v.084c.056 0 .099.015.126.043v.127c.028 0 .056.028.083.083.028.028.056.056.083.082.057.028.098.059.127.086.055.028.098.069.125.125l.042.042c.113.027.225.058.336.084v.083c.028.028.07.042.126.042v.084h31.131c.056.028.125.055.21.083.026.028.057.057.082.083.029.029.072.057.127.085l.042.084c.028.028.042.069.042.126.026.029.042.057.042.084v.042h.043c.026.056.055.096.083.124.027.028.168.521.42 1.472.279.98.532 1.47.756 1.47h1.303l.25-.083h.253v-.038h1.218l.293.042.253.083h1.805l.17.084.083.126.462.042-.042 4.032-.043.083-.042.129-.167.167h-.168l-.206-.042v.044h-3.698l1.639 3.695V15.158c0 .027.014.068.043.125v1.175c0 .028-.561.043-1.682.043-.054-.028-.6-1.021-1.638-2.983-.446.029-.896.057-1.342.084-.085 0-.156.013-.211.041h-.293c0 .028-.013.055-.042.084 0 .059-.015.084-.042.084v.212c0 .027-.014.056-.044.083 0 .056-.013.098-.041.124v2.642c.028.029.056.057.084.084v1.091c.028.029.042.055.042.084.029.026.055.055.083.083 0 .059.015.099.044.127V19.304c0 .029.012.041.042.041 0 .057.014.1.041.127 0 .029.016.056.041.085V19.765c0 .028.016.057.044.084 0 .056.013.098.042.125V20.143c.028.028.041.056.041.083.028.056.042.099.042.126.028.028.042.058.042.084.026.027.042.056.042.083v.084c.029.056.057.096.084.125 0 .028.014.059.042.086V21.023c0 .029.012.058.042.084v.125c.028 0 .041.028.041.084.029.028.044.056.044.084.029.028.042.056.042.083.028.056.041.099.041.127.028 0 .042.028.042.083v.084c.028.026.057.057.084.085 0 .056.015.096.041.124v.378c.028.028.057.056.085.083V22.74c.028.028.056.071.083.126.028 0 .042.03.042.084.028.028.042.056.042.083V23.242c.028.028.043.056.043.084 0 .028.014.056.042.084.029.056.057.083.083.083V23.787c.03.057.058.1.085.127v.252c0 .056.014.098.043.126.028.029.056.057.083.084V24.669c.028.028.042.054.042.083.028.027.056.069.083.127 0 .028.014.055.042.083v.168c0 .028.013.068.041.126 0 .027.015.055.042.084V25.758l.043.043c.027.057.055.099.083.126s.042.056.042.084V28.319c0 .057-.015.097-.042.126v.042c.028.027.042.07.042.126v.042c-.028.057-.057.098-.084.125 0 .056-.014.085-.041.085-.029.028-.043.056-.043.083-.027 0-.042.014-.042.041-.111.028-.196.057-.25.084-.085 0-.154.016-.21.042-.057.028-.1.056-.127.084-.028.028-.083.042-.167.042-.057.029-.126.042-.21.042-.028.028-.056.055-.083.084-.057 0-.111.015-.168.04-.142 0-.281.016-.421.043h-.083c-.057.028-.113.043-.169.043-.196 0-.378.013-.547.041-.056.028-.125.056-.209.084-.477.028-.953.042-1.428.042-.029.028-.057.056-.084.084-.056 0-.111.015-.168.042-.28.029-.56.058-.84.085-.028 0-.057.013-.084.041-.083.028-.154.056-.209.083-.084-.028-.154-.056-.21-.083s-.098-.041-.126-.041h-.042c-.084 0-.155-.015-.211-.043-.083-.057-.139-.098-.169-.125-.026-.03-.067-.058-.124-.085-.028-.029-.058-.07-.084-.125v-.043c-.028-.056-.042-.097-.042-.126v-.084c-.028-.028-.041-.07-.041-.126-.03-.026-.056-.042-.086-.042V28.864c-.028-.03-.056-.072-.083-.128-.029-.026-.058-.054-.084-.083 0-.03-.014-.056-.042-.086v-.125l-.044-.083V28.188c-.027-.055-.056-.096-.083-.125-.028-.028-.054-.056-.083-.083V27.811c0-.056-.015-.097-.041-.125-.03-.056-.058-.083-.085-.083 0-.028-.013-.071-.041-.128v-.083-.085c0-.056-.015-.099-.042-.125v-.083-.085-.083V26.721c-.028-.028-.056-.069-.083-.125-.029 0-.058-.015-.085-.043-.033-.023-.047-.065-.047-.093-.028-.028-.057-.056-.084-.083 0-.03-.013-.072-.042-.128v-.041V25.998v-.124c0-.028-.013-.059-.041-.087 0-.027-.014-.056-.042-.082V25.494v-.084-.084-.126c-.029-.028-.057-.056-.086-.082-.028-.031-.041-.071-.041-.128v-.043-.125-.084-.125-.085-.084V24.236c-.028-.028-.041-.057-.041-.084-.03-.027-.042-.056-.042-.085 0-.056-.015-.097-.043-.125v-.084-.084-.083-.126-.083-.169-.125-.084-.126-.084-.084V22.601c0-.029-.013-.057-.041-.084-.03-.028-.058-.056-.084-.083-.029-.028-.043-.07-.043-.128v-.083-.169-.125-.084-.084-.125-.084V21.384v-.126-.084V20.965v-.083-.084c-.027-.028-.056-.072-.083-.127v-.083-.167-.128-.083-.083V20v-.084V19.748v-.123-.087V19.37 19.16v-.125-.083-.084c-.028-.056-.042-.098-.042-.126-.028 0-.057-.028-.084-.083v-.083-.084V18.282v-.167-.127-.083-.169V17.527v-.125-.084-.084V17.024v-.184c0-.056-.013-.099-.041-.127s-.072-.041-.127-.041c0-.029-.013-.071-.042-.127v-.042-.252c-.056-.028-.097-.07-.125-.125-.029-.028-.058-.041-.085-.041v-.128-.083-.127c0-.028-.013-.042-.041-.042-.028-.028-.056-.055-.085-.083l-.083-.043c-.111-.028-.195-.058-.252-.084-.026 0-.068-.029-.124-.084v-.041c-.029-.028-.057-.043-.084-.043-.085 0-.169-.014-.252-.042h-.714c-.056 0-.126.015-.209.042 0 .056-.013.097-.041.126-.085.029-.141.055-.169.085-.057.028-.112.068-.169.124 0 .029-.013.042-.041.042v.126c-.056.057-.099.084-.126.084-.027.027-.056.069-.084.126-.056.028-.099.057-.126.084-.057.027-.083.056-.083.082l-.042.087c-.056.027-.097.069-.126.125-.028.028-.069.057-.126.084-.028.028-.055.056-.083.083l-.044.085c-.056 0-.125.028-.208.082-.029.03-.07.071-.126.127-.028 0-.056.016-.083.043 0 .055-.015.099-.045.126-.054.028-.096.056-.124.083s-.056.069-.084.125c-.027.029-.055.042-.084.042-.055.055-.125.098-.208.124-.029.059-.057.086-.085.086-.028.029-.071.069-.126.125-.056.03-.098.057-.124.084l-.085.085c-.028.056-.056.097-.083.125l-.083.083c-.029.029-.058.059-.085.086-.083.027-.167.042-.25.042-.057.026-.112.055-.17.083-.027.059-.056.099-.083.127-.028 0-.068.028-.126.083-.084.029-.167.057-.251.084-.112.029-.209.057-.295.084-.083.055-.14.098-.169.125-.054 0-.109.028-.167.084-.056.028-.111.056-.167.083-.111 0-.21.015-.294.043h-.252c-.224.028-.463.056-.715.083-.083.029-.153.057-.209.084h-1.765c-.055-.028-.139-.056-.251-.084-.14-.028-.295-.056-.462-.083h-.21c0-.057-.028-.099-.084-.126-.028-.056-.071-.084-.126-.084 0-.028-.015-.071-.042-.125-.056-.028-.097-.056-.125-.084-.058-.028-.142-.056-.252-.084 0-.056-.028-.083-.085-.083-.056-.028-.097-.068-.125-.127-.029-.028-.071-.057-.127-.083 0 .026-.015.055-.043.083-.027.059-.041.099-.041.127-.029 0-.058.028-.085.083v.084c-.026.029-.041.057-.041.084-.029.055-.042.098-.042.125-.027 0-.056.028-.083.084 0 .028-.015.07-.043.126-.028 0-.056.014-.083.041V19.186c-.028.028-.042.068-.042.125l-.042.041c-.028.057-.043.1-.043.127-.027.029-.056.056-.083.085V19.856c0 .056-.014.098-.042.125l-.044.086-.083.083V20.443c-.029.027-.042.056-.042.083 0 .057-.014.084-.043.084-.029.056-.041.096-.041.125-.029.028-.043.059-.043.086-.029.028-.056.069-.085.125v.168c0 .026-.013.07-.041.125-.028 0-.056.028-.083.084 0 .028-.015.056-.042.084v.083c-.028.056-.042.099-.042.127v.544l-.042.082c-.028.057-.041.101-.041.128-.03.028-.058.056-.086.083v.586c-.028.029-.042.057-.042.084s-.014.07-.042.125c-.028.028-.057.056-.083.084V23.921c-.028.028-.042.056-.042.083-.029.028-.042.071-.042.127V29.585l-.044.084c-.026.028-.054.07-.082.126-.027.029-.058.058-.085.085h-.169v.838h-7.31v-.042-.167-.126-.084-.083-.186V29.863h-.839c-.028 0-.056.016-.083.043h-.881c-.086 0-.155-.015-.211-.043-.056-.057-.098-.098-.125-.125-.03-.03-.057-.058-.085-.085V29.485v-.126c-.028-.028-.057-.056-.083-.084-.028-.028-.057-.07-.086-.126v-.042V28.899v-.128-.083-.086V28.394 28.223v-.125-.083c-.027-.027-.041-.07-.041-.125v-.044V27.638v-.128-.083-.085V27.134v-.085-.083V26.756 26.588v-.125-.083-.169V26.001v-.124c.028-.028.041-.059.041-.087v-.082V25.497v-.084-.084-.126-.082V24.95v-.125-.084-.125-.085-.084V24.239v-.084-.085V23.861v-.084c.03-.028.043-.056.043-.083.057-.057.098-.097.126-.126v-.083-.169-.125-.084-.126c0-.027.014-.055.043-.084.026-.027.056-.055.083-.084 0-.027.014-.069.041-.126v-.083-.084c0-.027.015-.056.043-.083v-.128-.083-.169-.125-.084c.028-.028.042-.056.042-.084.057-.056.098-.098.125-.125.028-.028.044-.056.044-.084.026-.028.057-.069.084-.125l.041-.043v-.126c0-.028.013-.056.043-.084 0-.027.013-.068.041-.125v-.084-.083c.028-.028.043-.056.043-.084.028-.028.042-.072.042-.127.026-.026.041-.054.041-.083v-.084l.042-.083c0-.028.014-.069.042-.128.029-.028.071-.056.127-.083.028-.027.056-.055.083-.083v-.127c.028-.028.041-.057.041-.084.029-.028.044-.069.044-.125v-.043-.123c.027-.03.055-.057.084-.087 0-.027.015-.068.041-.125.03-.028.056-.043.085-.043.028-.057.056-.098.083-.125v-.085c0-.028.014-.068.041-.125.028-.028.043-.056.043-.083v-.084-.126c.027 0 .056-.028.084-.083.028-.028.042-.056.042-.083s.014-.058.041-.084c.028-.058.055-.099.083-.126.03 0 .058-.028.086-.084 0-.028.014-.07.042-.125v-.042-.127c.027-.028.056-.056.082-.083.03-.028.058-.069.085-.127v-.042V17.53c0-.028.015-.071.043-.125.028-.029.056-.057.083-.084 0-.029.013-.057.041-.084V17.027v-.187c0-.056.015-.099.043-.127v-.041-.169V16.294v-.128-.082c-.028-.029-.043-.057-.043-.085v-.084-.126c-.028-.029-.041-.057-.041-.084-.028-.028-.056-.055-.083-.083-.028-.056-.043-.101-.043-.127l-.085-.084c-.026-.028-.055-.068-.082-.125v-.043c-.029-.054-.042-.097-.042-.125-.029-.028-.057-.056-.086-.084-.028-.029-.055-.07-.083-.126l-.041-.041c0-.056-.014-.098-.042-.128-.029-.027-.072-.056-.128-.083-.027-.029-.041-.071-.041-.126v-.084c-.028-.028-.07-.056-.126-.083-.056-.056-.083-.1-.083-.128l-6.891.044c-1.597.028-3.194.042-4.788.042-.029.028-.057.069-.086.125-.027 0-.056.013-.084.041H24.627c-.055 0-.125-.013-.21-.041-.056-.028-.109-.056-.167-.083-.028-.056-.057-.1-.085-.128-.026 0-.054-.026-.083-.083v-.124c-.028-.028-.057-.044-.084-.044-.029-.057-.041-.099-.041-.127-.029-.027-.058-.055-.086-.082v-.168-.126-.084-.126-.083-.086-.083-.127-.084-.084V12.516v-.083-.086-.125-.085-.168-.125-.084-.083-.126-.084V11.258v-.085-.083-.129-.083-.167-.125-.127h-.755c-.083-.027-.167-.056-.25-.083l-.083-.083c-.03 0-.058.015-.085.042-.083-.028-.154-.056-.21-.084-.029-.027-.056-.071-.085-.127-.028 0-.055-.026-.083-.083v-.134H2.894v.756l-.041.084-.045.043v.504h.044l.041.041-.041.084-.759 8.235-.041.041v.084l-.042.043-.379 1.261-1.345.126V7.386h.086l.168-.041v-.041h.084l.126.082.083.084v.084H3.02l.125.042.043.041.083.042h19.998c.7 0 1.4-.014 2.099-.042h.253v-.039V7.427v-.124-.083-.085-.212-.166-.127-.083V6.377 6.168v-.126-.083-.084V5.665v-.168-.126-.083V5.118v-.125-.084-.169V4.53v-.127-.083-.083V4.025v-.083-.084-.126-.084V3.48v-.127c0-.028.014-.056.042-.083.056-.028.097-.07.125-.126h.169c.028-.029.043-.056.043-.084l.042-.043c.027-.028.056-.042.083-.042h.169v-.041h5.417V2.85v-.126-.084-.084-.126c.059 0 .126-.016.21-.044v-.165c.058-.059.114-.1.171-.127zm17.853 14.787c-.7-.7-1.091-1.511-1.175-2.437-.112.084-.211.169-.294.252-.364.365-.645.769-.841 1.218.028.027.07.069.128.126.754.728 1.624 1.134 2.604 1.218-.14-.111-.283-.235-.422-.377zm4.621-2.015c-.056-.056-.111-.114-.167-.169-.814-.813-1.794-1.218-2.942-1.218-.446 0-.868.07-1.26.209-.057.25-.085.532-.085.84 0 1.038.337 1.947 1.01 2.73.979-.084 1.833-.491 2.563-1.218.364-.363.657-.755.881-1.174zM36.208 28.77v-.083h-.043c0 .057.015.098.043.125v-.042z"/></svg>