<svg xmlns="http://www.w3.org/2000/svg" width="81.466" height="32"><path fill-rule="evenodd" clip-rule="evenodd" fill="#FFF" d="M80.762 7.29c.032.032.063.079.094.141.063.063.125.11.188.142v.187c.032.031.078.078.142.141 0 .032.016.047.046.047.032 0 .063.016.095.049 0 .03.015.062.047.09.03.033.063.048.093.048v.47l-.047.048c0 .03.016.046.046.046v.187c0 .032-.016.063-.046.094 0 .032-.017.063-.047.093l-.094.048H81.138l.047.046v.188c-.032 0-.047.016-.047.047s-.017.047-.048.047c-.031.031-.047.063-.047.094h-.093v.047h-.094c0 .032-.014.047-.046.047h-.047c-.846.031-1.674.047-2.488.047l-.046.047h-.378c-6.573.03-13.116.063-19.626.094h-.094V10.295c0 .03-.015.062-.046.092 0 .033-.016.063-.047.094v.94h.094c.032 0 .063.017.094.048h.046c.031.03.08.046.142.046.03 0 .062.014.093.046.03.03.047.063.047.094h.046V11.796h.093V11.938c0 .03.017.062.047.093v.046l.047.047c-.063.032-.094.063-.094.094V15.27l-.045.046v.047c-.063 0-.112.016-.143.048h-.281c-.031 0-.078-.016-.141-.048h-.047V17.664c-.031.031-.048.063-.048.094v.047h.142l.047.046c.032 0 .062.016.093.048v.094l.046.046c0 .033.017.063.048.095v.045c0 .033.016.048.047.048h.045c.031.031.047.062.047.095V18.463c0 .03-.016.062-.047.094l-.045.046V28.98c-.032.031-.047.063-.047.095.031 0 .063.015.093.046.031.031.047.062.047.094v.094c0 .03-.016.062-.047.094h-.516c-.031.032-.048.063-.048.093-.031.033-.062.063-.093.094V31.61c.031.033.077.047.141.047l.046.047c0 .031.017.063.048.093-.031.032-.048.065-.048.095 0 .031-.015.047-.046.047-.063 0-.11.014-.141.046h-1.127c-.063-.033-.11-.046-.143-.046-.03 0-.062-.016-.092-.047v-.095-.093c.03 0 .062-.015.092-.047.033 0 .079-.015.143-.047h.046V31.469v-.093-.186-.189-.094-.187-.094V30.485v-.094V30.25v-.14-.094V29.875v-.094V29.64h-.046v-.093c-.063-.031-.11-.049-.143-.049-.03-.03-.045-.061-.045-.093h-.14c-.062-.032-.11-.064-.141-.094 0-.032-.016-.063-.048-.094v-.094l-.046-.046c0-.033-.016-.064-.047-.095l-.046-.048v-.091c0-.034-.017-.065-.048-.097v-.091-.095-.14-.189-.188-.094V27.807v-.094-.188-.094-.095-.093V27.102v-.188-.094V26.679v-.094-.14-.094-.14-.094V25.976v-.14V25.695v-.093-.096-.093-.093-.095-.14-.095-.14-.14-.187V24.381v-.093-.189-.094-.14-.095-.14V23.489v-.093-.14-.095-.188-.094-.189-.187-.14-.094V22.128v-.093V21.8 21.657v-.093-.187-.093V21.142v-.095-.281-.094V20.53v-.093-.187-.093-.189V19.827v-.14-.14-.095-.14-.095-.094-.188-.094V18.7v-.14V18.418v-.093-.095-.14c0-.031.016-.048.048-.048h.139v-.046-.094c.032-.032.048-.063.048-.094.03 0 .062-.016.093-.047l.048-.047v-.094-.187V17.292v-.188-.095-.188-.093V16.586v-.094-.281-.096-.14-.095-.186-.094-.14-.095h-.469v.048l-.094-.095v-.046-.094V15.037v-.095-.186c.032-.03.048-.064.048-.094 0-.031.016-.047.046-.047-.03-.031-.063-.046-.094-.046v-.189c.032 0 .048-.017.048-.047s.016-.062.046-.094v-.14-.094-.095c0-.031-.016-.062-.046-.093 0-.031-.016-.063-.048-.095v-.045-.093-.096-.093h.094c-.03-.032-.063-.047-.094-.047l-.047-.095c-.062 0-.124-.016-.187-.046l-.048-.047c-.03-.032-.062-.063-.092-.095v-.092-.096c0-.03-.016-.063-.047-.095 0-.03-.015-.045-.048-.045v-.189l-.094-.094c-.031.032-.078.048-.141.048v.28c0 .032-.015.064-.047.095 0 .032-.016.063-.046.096l-.046.045c-.063.032-.11.047-.141.047-.125.032-.234.063-.328.095-.032.031-.064.046-.095.046V13.441c0 .031-.015.045-.045.045l-.048.047c0 .032-.015.063-.047.095 0 .03-.015.046-.046.046-.032 0-.048.015-.048.045h-.094c-.063.032-.141.048-.235.048l-.047.047h-.092c-.063 0-.126-.016-.189-.047v-.048h-.188c-.032 0-.047.016-.047.048l-.049.05H52.309c-.126.031-.267.062-.423.093H51.417c0-.031-.017-.062-.049-.093h-.093c-.032 0-.079-.016-.142-.047-.031-.032-.047-.062-.047-.093-.031 0-.062-.017-.093-.046V13.489v-.093-.096-.14-.095-.092-.096H40.661v.845h.188c.062.032.111.064.142.095 0 .031.016.062.047.093h.047V14.709c.03.063.077.11.141.142 0 .062.016.125.046.188.032.033.062.079.093.142.032.031.064.047.096.047.031.031.062.047.094.047h.046c.032 0 .079.016.141.046 0 .032.016.047.048.047.03.032.062.048.093.048V26.823c-.031.031-.063.063-.093.094v.517c-.032.031-.048.063-.048.094-.031.033-.062.046-.093.046-.031.032-.079.048-.141.048H32.775c-.032 0-.078-.017-.141-.048-.063 0-.126-.014-.188-.046 0-.031-.016-.063-.047-.094-.03-.03-.062-.063-.093-.095h-.282c-.031 0-.063-.013-.094-.045-.03-.033-.046-.064-.046-.095v-.094-.095-.14-.094-.188-.188-.093V26.166v-.188-.095-.14-.093V25.508v-.093V25.273v-.093V25.038v-.186-.093-.189-.187-.093-.14-.095V23.914 23.773v-.093-.095-.14-.094-.093-.095-.14-.096-.237-.14-.095-.14-.094-.094-.093-.095-.187-.188V21.423v-.093V21.189v-.094-.235V20.718v-.092-.189V20.296v-.093V20.062v-.236-.093V19.592v-.094-.187-.095-.187V18.887 18.7v-.094-.14-.095-.235V17.995v-.094V17.76 17.618 17.477v-.093-.189-.093-.095-.14-.095-.14V16.491 16.35v-.139c-.032 0-.048-.017-.048-.048 0-.032-.016-.063-.047-.094v-.093-.095-.186-.094V15.46 15.225v-.094-.14-.095c.032-.03.047-.062.047-.093l.048-.047h.046c-.03-.03-.046-.064-.046-.094v-.094-.096l.092-.093c.033-.031.048-.062.048-.093.03 0 .063-.016.095-.048.031-.031.077-.045.141-.045v-.049c0-.03.015-.061.046-.092v-.094l.046-.048c.032-.029.063-.045.094-.046-.564 0-1.127.016-1.69.046h-.094v.752c-.03.064-.046.109-.046.141 0 .031.016.063.046.093 0 .032.016.064.047.095l.047.046c.032.033.063.063.094.094.03.031.062.063.093.094v.14c0 .032.016.063.048.095v.14c-.032.031-.048.063-.048.094l-.046.093h-.047v.047c0 .032-.017.063-.047.094 0 .032-.016.048-.047.048l-.094.093h-.093c-.156.031-.313.063-.47.094-.032 0-.063.016-.094.048H29.207l-.047.046h-.047v.28c-.031.032-.046.063-.046.095-.033 0-.063.016-.094.046v.094c0 .031-.016.063-.048.095l-.046.047v.281c-.031 0-.063.016-.094.047v.047c0 .032-.016.063-.047.094 0 .031-.017.062-.048.093V17.759l-.046.047c0 .032-.016.063-.046.094v.14c-.032.033-.047.063-.047.095l-.048.045v.096c-.031.03-.046.062-.046.093-.031.031-.063.063-.094.095V18.746c0 .031-.016.046-.047.046V19.027l-.047.046v.047c-.031.031-.063.063-.093.094V19.496c0 .032-.016.063-.047.094v.046c-.031.032-.063.063-.094.095V19.965c-.03.031-.063.064-.093.095V20.858c-.032.031-.062.046-.095.046v.188c-.031.032-.063.063-.094.094v.234l-.046.047v.094c-.032 0-.063.016-.095.047h-.141l-.047.046c-.031.032-.046.064-.046.095-.031 0-.062.017-.094.048h-.047c-.063 0-.124-.016-.188-.048l-.047-.047c-.031.032-.063.047-.093.047 0 .032-.016.048-.047.048H24.984c-.062 0-.141-.016-.235-.048v-.047c-.094 0-.173-.016-.234-.047H24.374c-.033 0-.079-.015-.143-.046-.061 0-.124-.016-.186-.047l-.095-.094c-.063 0-.109-.016-.141-.047-.033 0-.063-.016-.096-.046-.03-.031-.063-.062-.093-.093v-.095h-.142c0-.031-.015-.063-.046-.094-.032-.03-.047-.063-.047-.093v-.14-.094c-.032-.031-.063-.062-.094-.094v-.046V20.485v-.094c.031-.031.047-.063.047-.095.031 0 .047-.016.047-.046v-.093-.094-.095c.031 0 .047-.016.047-.047.031-.03.046-.063.046-.093.032 0 .048-.016.048-.047.032-.031.047-.063.047-.093V19.5c0-.031.015-.063.046-.096v-.045-.094c.03-.03.047-.063.047-.096l.045-.045v-.14c.032 0 .063-.016.096-.048v-.047-.093-.094c.032 0 .046-.016.046-.047.032-.031.047-.063.047-.093V18.42c.031 0 .062-.016.092-.047 0-.031.016-.063.049-.093v-.05-.14l.046-.048v-.094-.14c.031 0 .047-.016.047-.047.032-.031.047-.063.047-.094.03-.032.046-.062.046-.094v-.046-.094-.093c.032-.032.064-.048.095-.048v-.095c.031-.031.048-.063.048-.093.031 0 .046-.016.046-.048v-.093c.031-.031.047-.063.047-.093v-.048-.187c.031-.032.048-.063.048-.095v-.092l.046-.048v-.186c.031 0 .063-.017.094-.048v-.094V15.931c.031-.031.047-.062.047-.094.032-.031.047-.062.047-.093v-.047V15.556l.046-.047c0-.031.016-.063.048-.094v-.048l-.048-.047c0-.03-.015-.046-.046-.046v-.094c0-.032-.015-.063-.047-.094 0-.031-.016-.047-.047-.047v-.095c-.031-.031-.063-.062-.094-.093-.031 0-.046-.015-.046-.046l-.048-.047v-.094c-.031-.031-.062-.063-.093-.094l-.048-.046c0-.031-.031-.064-.095-.095-.03 0-.061-.016-.093-.047h-.093v-.047c-.064 0-.142-.015-.235-.046l-.049-.093c-.062 0-.123-.017-.186-.049-.032 0-.078-.016-.141-.046-.032-.031-.047-.062-.047-.094-.032 0-.063-.015-.094-.046v-.051H23.1c-.031-.031-.063-.062-.093-.093-.063-.031-.094-.063-.094-.095-.031 0-.063-.014-.094-.045-.031 0-.046-.017-.046-.046-.063-.032-.095-.063-.095-.095 0-.031-.016-.047-.048-.047v-.045c-.029-.031-.062-.063-.092-.094 0-.033-.017-.064-.049-.095 0-.03-.015-.046-.046-.046l-.046-.046c0-.032-.015-.063-.046-.095v-.14-.094c-.033-.032-.047-.063-.047-.094-.03 0-.048-.016-.048-.048v-.094h-.046c0-.031-.016-.047-.047-.047v-.094-.187H21.741c-.031 0-.079-.016-.141-.048-.032-.03-.048-.062-.048-.094-.063-.032-.109-.047-.142-.047-.03 0-.062-.015-.093-.046v-.093-.192h-5.165c-.032 0-.079-.015-.141-.046v-.048h-.188l-.046-.047c-.032-.031-.063-.063-.095-.093l-.047-.046c0-.031-.015-.048-.046-.048-.031-.031-.063-.063-.095-.094v-.045V11.14v-.093V10.906v-.094V10.671v-.094h-2.207c-.125-.032-.22-.047-.281-.047-.095-.032-.157-.048-.188-.048-.032.031-.079.079-.142.141-.063.062-.142.094-.234.094H12.113v.095c-.031.094-.079.188-.142.281l-6.526 5.071c-.062.063-.157.079-.282.048h-.094c-.063 0-.109.016-.142.046-.062.031-.126.062-.188.093.032.063.032.141 0 .234-.031.094-.078.188-.141.283l-.187.14c-.063.031-.126.047-.188.047 0 .033-.016.048-.047.048h-.042c-.033.03-.064.062-.095.093l-.046.047c0 .031-.015.047-.047.047-.063.032-.11.063-.142.094l-.046.046c0 .032-.015.046-.047.046-.03 0-.063.016-.093.048h-.094c-.032.032-.063.063-.094.093h-.048c-.032.032-.064.048-.095.048h-.422c-.063 0-.126-.016-.189-.048-.03 0-.046-.014-.046-.046-.031 0-.063-.015-.093-.046h-.188c-.032-.032-.095-.062-.188-.094 0-.032-.015-.063-.046-.093-.063-.032-.11-.048-.142-.048-.03 0-.046-.017-.046-.047-.032-.031-.062-.047-.095-.047-.032-.03-.062-.062-.094-.092-.031 0-.047-.016-.047-.048 0-.03-.016-.062-.047-.093-.03-.031-.046-.063-.046-.093-.033 0-.047-.015-.047-.048-.032-.031-.063-.062-.095-.093v-.094-.095-.092c0-.032-.015-.048-.047-.048v-.186l-.046-.048c0-.032-.016-.063-.047-.094V15.931c-.032-.031-.046-.062-.046-.094v-.14-.094c-.032 0-.062-.017-.095-.047 0-.031-.017-.047-.047-.047V15.367v-.14c-.032-.031-.063-.063-.094-.094v-.094-.095-.139c0-.032-.016-.062-.046-.095 0-.031-.016-.062-.047-.093v-.046V14.429l-.094-.094v-.094-.14-.094-.095C.815 13.881.8 13.85.8 13.819s-.015-.063-.046-.095v-.045-.093-.096c-.031-.03-.063-.062-.093-.093v-.047-.095c0-.03-.017-.046-.049-.046 0-.032-.015-.062-.046-.095v-.138-.096-.14l-.047-.048c0-.032-.015-.063-.046-.094v-.093-.096-.139l-.049-.05c0-.03-.016-.062-.047-.094v-.047-.093V11.845v-.094c0-.031-.015-.062-.047-.094v-.047-.093c0-.031-.017-.062-.048-.094l-.046-.047c0-.031-.016-.062-.046-.092v-.189-.094V10.86 10.719c-.031 0-.047-.015-.047-.046v-.189-.094V10.249c-.031-.03-.046-.061-.046-.092L0 10.06v-.094-.188-.093V9.544v-.189-.093-.14-.094V8.886v-.094-.139-.096-.139c.032-.032.064-.065.096-.097l.046-.046v-.093l.047-.048v-.092c.03-.032.046-.063.046-.095h.094v-.095c.032-.03.047-.062.047-.093H.47v-.095c.031-.031.063-.062.094-.092 0-.032.016-.048.046-.048h.049c.062-.03.109-.046.14-.046.063-.03.125-.047.188-.047v-.047h.188l.046.047v-.047c.033 0 .049-.015.049-.046h.093l.046-.048H1.691c.031.032.079.048.14.048.033 0 .063.015.095.046.031-.062.109-.094.235-.094h9.389c.127 0 .205.016.236.048.064-.033.127-.063.188-.095.063-.031.125-.063.188-.093.032-.032.063-.049.095-.049.063-.031.125-.046.188-.046h5.821v-.046c.032-.032.047-.063.047-.094V6.82c.031-.03.046-.062.046-.094v-.093c.032-.032.063-.048.094-.048h.047v-.094-.139c.032-.032.063-.062.094-.095V6.21c.063-.032.125-.063.187-.094h.095c.031-.031.046-.062.046-.095l.094-.093H19.579c.031 0 .046.016.046.047l.094-.047v-.047-.094-.094h.095V5.6 5.459c.031-.031.046-.062.046-.093 0-.033-.015-.064-.046-.095v-.047c-.031-.03-.063-.046-.095-.046l-.045-.046c0-.033-.018-.065-.049-.096v-.047-.093V4.754v-.093-.094c.031-.033.049-.065.049-.095.03-.031.045-.062.045-.095v-.044c.033-.033.064-.047.095-.047h.139v-.049c.033-.03.064-.046.095-.046 0-.03.015-.047.046-.047s.063-.015.094-.046h.188c.03 0 .061-.016.093-.047.032 0 .08-.016.142-.046.031-.032.046-.064.046-.095v-.048-.094c.031-.031.047-.063.047-.093.03-.032.063-.048.094-.048 0-.031.016-.063.048-.093 0-.031.015-.063.046-.094.031 0 .063-.016.093-.048h.142v-.047h.564c.031.033.077.046.141.046.031.032.063.048.094.048 0 .031.015.063.046.094.031.03.064.062.095.093.031 0 .047.016.047.048.032.03.047.062.047.093.031.031.047.062.047.094h.469c.063 0 .126.016.188.047.032.031.063.063.095.095.031.03.063.046.093.046 0 .031.016.047.047.047v.188h.048c0 .031.031.062.094.092.063 0 .109.018.141.048.031 0 .047.016.047.047h2.441c.031-.031.062-.047.094-.047h.141v-.046h.094c.062.033.108.063.14.095v-.047h.096v-.048c.062.033.107.063.139.095.033.03.048.062.048.095h.094c0 .03.016.063.046.094.031.03.046.062.046.093v.093c.033-.031.063-.046.095-.046h.141c.032 0 .079.016.141.046.031.033.046.063.046.095v.47l.047.046c0 .031.016.047.048.047v.187c.03 0 .046.016.046.048v.046l.046.048v.281h.141c1.157 0 2.333-.016 3.521-.046v-.049l.049-.046c0-.031.015-.047.046-.047h.14c.033 0 .095-.014.188-.046v-.094c.033-.031.063-.062.095-.094h.047c.031-.03.062-.062.094-.093s.046-.063.046-.094l.095-.093c0-.031.016-.046.046-.046h.094v-.051h.236c.03.031.077.064.139.095l.094.093v.094c.063-.063.142-.11.235-.141.063 0 .142-.031.235-.093h.283v-.048c.124.031.233.049.327.049.032.031.063.062.095.093.03-.062.046-.11.046-.142.095-.063.189-.093.283-.093h2.3c.096 0 .174.03.236.093.03.064.062.126.094.188.155 0 .298-.016.422-.047h.188c.032 0 .078-.015.141-.046h2.958c.063.031.111.046.142.046h.14c.063.031.108.062.142.093.03.032.078.063.14.095l.047.046c.031 0 .047-.014.047-.046.031-.031.063-.063.094-.095 0-.031.014-.062.045-.093h.189v-.045c.031.031.078.046.141.046.031.031.062.047.094.047 0 .03.015.063.046.094V5.741h.047c.031 0 .079-.016.141-.048h.187c.032.032.063.048.094.048v.046c.596-.031 1.206-.046 1.832-.046v-.048c.03-.03.063-.062.095-.093s.062-.063.094-.094c.03 0 .045-.016.045-.047.063 0 .127-.015.19-.046.218 0 .438-.016.656-.046.031-.033.048-.064.048-.095.031-.031.062-.047.093-.047.032-.03.063-.046.094-.046.032 0 .048-.016.048-.046.063-.033.125-.065.187-.096H45.78c.032 0 .047-.016.047-.047l.094-.093c.063-.032.109-.049.141-.049.094-.031.156-.046.188-.046h.14l.046-.046h.049c.029-.031.062-.046.093-.046.062 0 .094-.016.094-.046h.14v-.096-.095-.095c-.031 0-.063-.015-.093-.045 0-.033-.016-.047-.047-.047v-.049L43.011 2.97c-.063-.032-.125-.094-.188-.188-.03-.063-.046-.125-.046-.186h-.047c-.032-.032-.063-.048-.095-.048-.031 0-.061-.014-.093-.047H42.307c-.125-.031-.219-.063-.281-.093h-.189c-.031 0-.062-.016-.094-.047h-.141c-.063-.032-.125-.047-.188-.047-.03-.032-.063-.048-.093-.048-.032-.032-.063-.062-.094-.093s-.063-.063-.095-.094c-.031-.032-.062-.049-.092-.049-.063 0-.11-.015-.142-.046-.063 0-.11-.015-.14-.046-.033-.031-.048-.063-.048-.093-.031-.033-.063-.049-.094-.049-.031-.031-.047-.063-.047-.094l-.046-.047h-.046v-.046l-.048-.048c-.031-.032-.062-.047-.094-.047-.032-.031-.063-.062-.094-.092l-.046-.096v-.094c-.031-.031-.048-.062-.048-.093l-.047-.047V.998.857c.031 0 .046-.015.046-.046 0-.032.017-.062.048-.094V.669.528l.046-.046c.031-.032.062-.063.094-.094h.094V.341c.032-.095.095-.171.188-.236.063-.094.157-.124.282-.094l.282.094c.125.031.219.096.282.188.062.095.078.189.046.283h.188c.032.031.078.046.14.046.032.032.063.048.095.048h.14l.048.047h.093c.063.032.11.046.141.046l.046.048c0-.062.032-.109.094-.142.064-.063.157-.094.283-.094.062 0 .125.015.188.046l4.883 1.316c.093 0 .17.046.234.141 0 .031.016.063.048.094.031.032.063.047.093.047.032.03.079.046.141.046.062 0 .109.017.141.048v.094c.031 0 .063.015.094.046.032.031.063.047.094.047 0 .033.015.063.047.095.031-.032.063-.048.094-.048V2.5h.047c.063-.031.125-.047.188-.047v-.046c.063.031.109.062.14.093h.049c.032.033.062.063.093.095V5.926c-.031 0-.061.016-.093.047s-.049.064-.049.095c-.031.03-.078.046-.14.046h-.14l-.048.049c0 .031-.015.048-.047.048 0 .031-.015.046-.046.046h-1.598c0 .034-.016.048-.045.048v.047l-.047.047c0 .03-.017.046-.047.046h-.141c-.064.032-.141.063-.234.094v.375h6.949v-.046-.095-.234c.032-.031.047-.062.047-.094.029-.031.046-.063.046-.093.031-.032.062-.047.093-.047.032 0 .08-.015.141-.048.031 0 .078-.015.142-.046.031-.032.046-.063.046-.094h.094l.047-.047v-.049-.14-.094-.094V5.6 5.459v-.093-.095l-.047-.047c-.03-.03-.063-.046-.094-.046v-.047-.096c.031 0 .048-.016.048-.047.031-.03.046-.062.046-.093l.095-.095c.03 0 .045-.016.045-.046.031 0 .063-.016.095-.046.031-.032.077-.046.14-.046v-.094c.031 0 .063-.018.095-.049.031-.031.047-.063.047-.093.03-.03.047-.063.047-.093l.047-.047v-.049h.094v-.093l.046-.046h.046c.033 0 .063-.016.096-.047.187 0 .389-.016.609-.046.032 0 .047-.016.047-.047h.094v-.049h.188c.063.031.11.063.141.095l.047.046c.031 0 .045-.016.045-.046.064-.032.111-.047.143-.047v-.048c.062.031.125.063.188.095l.047.046c0 .031.016.047.046.047V4.8h.047c.03 0 .047.016.047.046h.047c.063.033.125.063.188.095 0 .031.017.046.047.046 0 .031.016.047.046.047v.096c.031.031.062.046.095.046l.046.046v1.313l.095.046c.03.032.061.048.095.048.062.031.108.063.14.093 0 .032.015.064.046.094.031.031.063.048.094.048v.186h22.491c.094.032.187.063.282.095.063.067.141.114.235.145zm-22.445 7.747v-.095c0 .033-.017.064-.046.095h.046zm-1.642-9.578V5.693c.03.03.046.062.046.094v-.094V5.6 5.459h-.046zm-1.972 1.08l-.047.046h.047v-.046zm-.188.187c.063-.031.093-.062.093-.093-.063.031-.126.063-.188.093v.047c.033-.031.062-.047.095-.047zm-7.138-2.348v.095l.047.046v-.046-.095-.092h-.047v.092zm-2.535 1.643c-.095.001-.205.018-.329.049h.282c0-.031.016-.047.047-.049zm11.598 8.97l-.047-.049v.049h.047zm-34.418-3.382v-.093h-.048v.093h.048zm3.005 2.818c.032.031.063.046.095.046v-.046h-.095zm5.213.938c-.032.063-.063.111-.094.142h.14c0-.031-.016-.063-.046-.094v-.048zM11.082 9.591H3.241v.094c.031.062.046.11.046.141v.14c0 .032.016.079.048.142v.14c.032.032.047.079.047.141.031.063.063.11.093.142 0 .062.016.125.047.187v.376c.031.062.079.11.141.142 0 .032.016.078.046.14v.047h.235c.063.063.125.14.188.234l.703 2.065 1.221-.89c.094-.063.189-.094.281-.094.095.03.157.077.188.14.032-.03.063-.063.094-.095l.095-.093c.03-.032.046-.063.046-.094l.047-.047c.032 0 .063-.015.095-.046.03-.032.047-.063.047-.096.093-.03.172-.062.234-.093l.047-.046c.032 0 .062-.016.094-.048.032-.03.063-.062.093-.094.032-.032.063-.047.094-.047.03-.031.079-.046.141-.046 0-.031.031-.063.094-.093.032-.032.063-.065.093-.095.032-.031.064-.063.095-.094.063-.031.109-.062.14-.094h.096c.033 0 .079-.015.141-.047 0-.031.015-.063.048-.093.031 0 .063-.016.093-.046.031-.031.062-.048.094-.048 0-.031.016-.063.047-.094.063-.031.109-.061.141-.093l.047-.048c.031-.032.078-.064.142-.094.062-.032.093-.063.093-.094.063-.031.109-.063.142-.094h.046c.032-.032.048-.062.048-.094.031-.031.062-.063.093-.095h.093c.033-.032.08-.062.143-.094.03-.031.045-.063.045-.093.032-.032.064-.048.097-.048 0-.031.014-.062.045-.094.062 0 .108-.013.14-.046.032-.032.062-.063.092-.095.032 0 .065-.014.095-.046.032-.03.063-.062.095-.094.03-.032.077-.063.141-.095.031 0 .063-.015.093-.046.063-.03.11-.062.142-.094.031-.031.077-.046.14-.046h.047c.031-.031.047-.063.047-.094.063-.031.108-.063.141-.094.029-.03.077-.045.141-.047z"/></svg>