<svg xmlns="http://www.w3.org/2000/svg" width="32.074" height="32.074"><g fill="#FFF"><path d="M27.366 15.763c-.083 1.883-.603 3.655-1.495 5.194l.726.735c1.144-1.875 1.803-4.077 1.803-6.429 0-6.829-5.557-12.385-12.386-12.385-2.343 0-4.535.654-6.406 1.788l.73.73c1.535-.886 3.3-1.402 5.176-1.485l1-.008c5.879.257 10.603 4.982 10.86 10.859l-.008 1.001z"/><path d="M26.406 15.763H20.7l-1.01-1h6.705zM16.514 4.874v6.675l-1-.951V4.874zM5.611 15.763h6.832l-.995-1H5.622z"/><path d="M16.514 26.615c1.907-.084 3.699-.616 5.252-1.529l.728.728c-1.886 1.163-4.106 1.834-6.48 1.834-6.829 0-12.386-5.557-12.386-12.386 0-2.371.67-4.589 1.83-6.474l.715.752c-.903 1.546-1.429 3.328-1.512 5.223l-.008 1c.257 5.879 4.982 10.603 10.86 10.86l1.001-.008z"/><path d="M16.514 25.647v-5.841l-1-.965v6.806z"/></g><path fill="#FFF" d="M2.9970748 4.8935146l2.705689-2.7064544 23.171408 23.164855-2.705689 2.7064544z"/></svg>