<svg xmlns="http://www.w3.org/2000/svg" width="100.25" height="32"><path fill-rule="evenodd" clip-rule="evenodd" fill="#FFF" d="M97.74 7.175c0 .047.012.096.035.143V8.037h1.651c.072 0 .131.011.178.035.026 0 .048.012.073.036h.036v-.036h.072c.047.023.108.049.18.07.023.024.047.062.07.109.025 0 .038.023.038.07.024.024.035.049.035.073v.071c-.024.048-.035.083-.035.107-.018.017-.029.042-.038.073h.073V9.273c.012.013.024.029.036.054.024.024.037.06.037.107l.035.037v.285c0 .024-.011.047-.035.072-.023.022-.048.047-.072.07v.863h-.52l.016.035c0 .024.013.049.038.072.022.024.047.048.071.072v.106l-.019.018c-3.121-.011-6.238-.017-9.347-.018-.047.025-.083.049-.107.073-.144.006-.288.012-.431.017v.09h-.034v-.035-.055c-.396.022-.792.046-1.185.072v.018h-.144v.072c-.175-.006-.347-.013-.521-.019-.018.02-.035.037-.053.055-.024.047-.036.095-.036.143-.035.007-.072.015-.107.02v.539c.061.004.121.009.178.018v2.121c-.118-.003-.238-.003-.358 0v.179h-.968v.107c0 .023-.013.048-.037.071-.023.025-.036.061-.036.108-.023.024-.047.035-.07.035-.025 0-.049.013-.074.037-.023.022-.047.035-.07.035l-.036.035c-.048.024-.096.035-.145.035h-.358v.036c-.24.049-.479.098-.718.145v.071c-.215.024-.418.061-.61.108-.048.023-.084.048-.108.07-.622.024-1.244.062-1.865.108-.048.023-.085.049-.108.072-.492-.013-.981-.026-1.472-.035-.024.023-.048.047-.072.071h-.037c-.047.025-.108.036-.179.036H70.486c-.111.011-.225.022-.341.036v.07c-.526.024-1.065.061-1.616.108v.071c-.573.023-1.136.06-1.686.107-.047.024-.083.048-.107.073-.455.023-.898.059-1.328.106-.048.024-.084.048-.108.072-.406.023-.825.06-1.255.108v.071c-.479.023-.958.06-1.437.107v.071c-.454.024-.897.06-1.328.107-.047.023-.083.049-.107.072-.575.024-1.137.061-1.687.106-.047.024-.084.049-.108.072-.741-.023-1.471-.035-2.189-.035-.023-.024-.059-.06-.107-.107-.383-.024-.765-.048-1.148-.072-.024-.024-.06-.061-.107-.108-.12-.023-.25-.047-.395-.071v-.108c-.12-.021-.239-.046-.359-.069v-.109c-.048-.022-.107-.047-.178-.071v-.107c-.12-.023-.24-.048-.359-.072v-.107c-.048-.024-.108-.048-.18-.072-.024-.048-.037-.096-.037-.144-.023-.047-.059-.094-.105-.143-.048-.048-.085-.085-.109-.108-.094-.047-.192-.096-.287-.144-.023-.048-.036-.095-.036-.144-.025-.048-.061-.095-.108-.145-2.52.021-5.042.045-7.572.073v.071c-.79-.023-1.58-.036-2.368-.036-.024-.023-.061-.059-.108-.108-.12-.022-.251-.047-.395-.071v-.088c-.021.011-.044.017-.072.017 0 .024-.011.035-.035.035l-.107.107c-.024.026-.048.037-.073.037 0 .024-.012.036-.036.036 0 .023-.012.035-.036.035l-.035.036c-.025 0-.05.013-.073.036h-.035c-.048.024-.083.037-.108.037l-.035.035h-.036v.035l-.072.035-.036.036h-.019c-.016.005-.034.017-.052.037h-.038c-.048.023-.083.035-.107.035 0 .023-.011.037-.036.037-.023 0-.036.012-.036.035-.023 0-.036.012-.036.036-.024 0-.036.012-.036.036-.023 0-.037.013-.037.036-.023 0-.047.011-.07.036-.024 0-.036.011-.036.034-.025 0-.048.012-.072.036h-.037c0 .024-.012.036-.035.036-.023.023-.047.036-.071.036 0 .023-.012.035-.037.035v.036c-.121.023-.24.036-.359.036l-.036.035c-.025.024-.049.036-.073.036l-.071.073v.035l-.036.035v.036c-.048.024-.084.036-.107.036l-.036.036v.035h-.035c-.024.024-.048.036-.072.036l-.108.108v.07c-.048.025-.083.037-.108.037l-.072.071v.072c-.048.022-.084.035-.108.035-.023.023-.047.036-.072.036v.072h-.108v.036c-.023.023-.047.034-.071.034 0 .024-.011.037-.035.037s-.035.012-.035.035l-.038.049v.07h-.213c0 .024-.013.037-.037.037v.07h-.107c-.024.025-.048.038-.072.038-.071.023-.155.035-.25.035-.073.023-.155.035-.252.035v.072h-.215c-.047.023-.095.036-.143.036-.288.023-.574.035-.861.035h-.826c-.047 0-.097-.012-.145-.035-.047 0-.083-.013-.106-.036-.025 0-.048-.012-.073-.036v-.036c-.045-.022-.093-.035-.143-.035.024 0 .036.013.036.035v.287c.012.013.024.024.037.036l.036.036v.143c-.013.012-.024.024-.036.036-.013-.012-.024-.024-.037-.036h-.611c-.024 0-.06-.012-.108-.036l-.07-.071v-.072c-.048-.023-.085-.036-.108-.036v-.036l-.035-.035v-.036c-.025 0-.037-.012-.037-.036l-.036-.035c-.024 0-.049-.013-.072-.036 0-.025-.011-.036-.036-.036v-.071l-.036-.035v-.038l-.216-.215v-.035c-.024 0-.035-.013-.035-.037l-.073-.07v-.036c0-.023-.012-.036-.036-.036v-.071c-.023-.023-.047-.037-.07-.037l-.036-.035c0-.023-.012-.036-.037-.036v-.035c-.022 0-.035-.012-.035-.037v-.038l-.036-.034v-.035c-.024 0-.035-.013-.035-.036l-.038-.037v-.036h-.036v-.035c0-.024-.012-.036-.036-.036 0-.023-.012-.036-.036-.036l-.072-.071v-.035c0-.025-.013-.037-.036-.037v-.036l-.036-.036v-.215h-.036c0-.024-.011-.036-.036-.036v-.034l-.036-.036V15.5h-.034c-.061-.005-.12-.017-.179-.036h-1.257c-.233.018-.46.029-.683.036v.036h-.143c-.072.023-.143.047-.215.07-.263.024-.539.048-.826.072-.024 0-.06.012-.108.036-.048 0-.083.012-.107.035-.072 0-.119.013-.144.036-.024 0-.048.012-.071.036-.073 0-.121.013-.144.035-.048.024-.084.036-.108.036-.047.024-.096.036-.143.036-.071.024-.12.049-.143.072-.073.023-.144.048-.216.071 0 .024-.023.048-.071.072-.048 0-.084.013-.108.035-.047.024-.083.048-.107.073-.048.023-.096.036-.143.036v.035c-.014.008-.032.013-.054.019-.002.018-.01.035-.018.052-.024.025-.048.048-.072.072l-.036.036h-.037v.035c-.047.048-.095.096-.142.145-.049.048-.096.096-.144.144-.072.048-.144.097-.216.143v.251c-.047.024-.106.06-.18.107v.072c-.047.023-.107.06-.18.107v.25c-.047.024-.106.061-.179.108v.249c-.046.024-.107.061-.18.108v1.617c-.023.023-.035.061-.035.108-.023.048-.06.084-.108.107l-.035.036c-.06-.002-.12-.002-.18 0-.024.023-.037.049-.037.071-.024.049-.047.085-.072.108l-.071.035c-.049 0-.108.013-.179.036h-.073c-.071-.023-.144-.036-.215-.036-.022-.048-.047-.084-.071-.106-.024-.024-.036-.06-.036-.108v-.017c-.167-.008-.334-.013-.502-.02v.036c-.049.023-.108.061-.18.108v.071c-.06.012-.119.028-.179.053v.306c-.048.024-.108.06-.18.107v.071c-.28-.008-.563-.014-.843-.017-.389-.012-.777-.017-1.166-.019v.071c.022.023.048.048.071.072.024.024.06.061.107.107.024.024.035.048.035.071v.038l.037.034v.107c-.024.025-.037.049-.037.073-.023.022-.035.059-.035.106-.023.024-.047.035-.072.035h-.072c-.024.024-.06.037-.108.037h-.143c-.073-.024-.144-.037-.215-.037-.025-.023-.06-.047-.108-.07-.024-.049-.048-.084-.072-.107-.024 0-.048-.025-.072-.072v-.144-.106-.107c-.023 0-.048-.025-.071-.073 0-.023-.013-.048-.036-.071v-.071c-.047-.048-.084-.084-.108-.107-.048-.024-.071-.048-.071-.072 0-.022-.012-.048-.036-.071-.025-.048-.049-.084-.072-.108-.024-.023-.048-.048-.072-.071-.023-.023-.035-.06-.035-.108-.024-.023-.037-.047-.037-.071v-.036c-.071-.023-.144-.048-.215-.071-.025-.048-.048-.072-.072-.072-.023-.023-.047-.059-.071-.106-.072-.025-.132-.049-.179-.073h-.215c-.049 0-.108.012-.18.036-.048-.024-.107-.036-.179-.036-.024-.023-.047-.047-.072-.07-.023-.049-.047-.085-.072-.108v-.072-.143-.107-.071c-.096.023-.18.059-.251.107-.096.048-.191.096-.287.144v.144c-.096.048-.18.097-.251.145-.096.022-.192.046-.289.07-.118.023-.237.061-.357.107-.048.023-.107.048-.18.072-.095.023-.179.06-.25.107-.047.024-.084.048-.107.072-.119.023-.24.061-.359.108v.071c-.119.023-.24.06-.359.107v.071c-.12.025-.239.061-.358.108v.071c-.144.024-.287.06-.432.107-.047.023-.083.048-.107.071-.048.024-.106.06-.18.108v.072c-.143.023-.286.06-.43.106-.047.024-.083.049-.108.072-.119.024-.239.06-.357.107v.073c-.121.022-.239.059-.359.106v.072c-.144.022-.288.06-.43.107-.048.023-.084.048-.109.071-.118.024-.239.061-.357.109v.07c-.048.024-.109.06-.181.108v.071c-.094.024-.179.06-.251.107-.046.024-.084.048-.108.072-.119.023-.239.061-.358.107v.071c-.121.023-.239.061-.359.107v.072c-.096.023-.179.061-.252.107-.048.024-.083.049-.106.072-.097.023-.18.06-.253.107-.047.024-.083.049-.107.072-.095.024-.179.06-.251.107-.047.023-.084.048-.108.072-.048.022-.107.06-.179.107v.07c-.12.024-.238.061-.358.109v.07c-.12.025-.239.061-.36.109v.071c-.119.022-.24.06-.357.107v.071c-.168.023-.348.06-.539.107v.072c-.096.023-.18.061-.252.107-.048.023-.083.049-.106.072-.12.024-.24.06-.359.107v.072c-.12.023-.24.061-.36.107v.071c-.119.024-.239.061-.358.107v.071c-.168.025-.347.061-.538.108v.072c-.12.023-.241.06-.359.106v.073c-.12.023-.239.06-.36.107v.071c-.119.023-.238.06-.358.108v.071c-.12.022-.239.06-.359.108v.071c-.095.023-.18.059-.251.107-.047.023-.084.048-.107.071-.12.024-.241.061-.36.109v.07c-.119.024-.239.061-.358.108v.071c-.167.023-.347.061-.539.107v.072c-.144.022-.287.06-.43.106-.048.024-.085.049-.108.072-.144.023-.287.061-.43.106-.048.024-.085.05-.108.073-.119.023-.24.061-.358.107v.072c-.097-.003-.192-.003-.288 0v.249c-.024.049-.048.084-.072.108l-.036.036c-.023 0-.037.012-.037.035-.023 0-.059.012-.106.036h-.107c-.048-.024-.096-.048-.144-.071H4.08c-.047.023-.095.047-.143.071h-.144c-.046-.024-.107-.048-.179-.071-.024 0-.047-.023-.07-.072v-.035c-.025-.025-.049-.049-.073-.072v.107c-.024.024-.047.049-.072.072l-.036.071c0 .024-.012.061-.036.107-.049.023-.096.037-.144.037-.048.022-.107.048-.179.07h-.323c-.072-.022-.13-.048-.18-.07h-.072c-.047-.025-.096-.049-.144-.073-.024-.023-.048-.047-.07-.071-.049-.024-.109-.048-.18-.071-.048 0-.072-.013-.072-.036-.095-.024-.167-.049-.215-.071-.048.004-.097-.019-.144-.043-.024-.023-.049-.048-.072-.071-.048-.049-.084-.084-.108-.107-.024-.025-.035-.048-.035-.072 0-.026-.013-.061-.037-.108 0-.023-.012-.048-.035-.072 0-.025-.013-.048-.037-.071 0-.024-.012-.06-.035-.107v-.072-.143-.107-.071-.072-.106-.074-.106c0-.023-.011-.049-.035-.072-.025-.024-.037-.048-.037-.071-.023-.047-.036-.084-.036-.109v-.07-.143-.107-.071-.108-.071c-.024-.024-.036-.049-.036-.072-.023-.024-.047-.06-.071-.108 0-.022-.012-.048-.037-.071v-.07-.18-.143-.178-.107-.072-.072-.107c0-.023-.012-.049-.036-.071v-.071c0-.049-.011-.084-.036-.109v-.07-.109-.07-.143-.107V22.872v-.108-.071-.107-.072-.072-.178c0-.024-.012-.048-.036-.072 0-.048-.011-.071-.036-.071-.024-.049-.049-.085-.073-.107v-.178-.073-.072-.107-.072-.07-.179-.144-.106-.203-.071-.071-.107-.072-.071-.108c-.023-.023-.047-.048-.071-.071 0-.023-.012-.06-.035-.108v-.071-.071-.179V19.668v-.11-.07-.107-.072-.071-.107-.072-.143-.107c-.024-.024-.048-.06-.072-.107-.024 0-.035-.012-.035-.035v-.179-.108-.072-.071-.108-.07-.144-.107-.178l-.072-.072-.036-.072v-.107-.071-.072-.106-.073-.157-.109-.178-.143c-.023-.047-.047-.083-.071-.108 0-.021-.011-.046-.038-.069v-.109-.071-.072-.107-.072-.071-.107-.072c0-.023-.012-.06-.035-.106-.024 0-.047-.011-.072-.036 0-.048-.011-.085-.036-.108v-.072-.106-.144-.108-.071-.106-.072c.025-.023.036-.046.036-.07.024-.024.048-.062.072-.109.023 0 .048-.012.073-.035l.036-.035h.035v-.154-.107c0-.024.012-.061.036-.108.023 0 .048-.012.072-.036.023-.047.059-.083.107-.107.023-.024.047-.047.072-.071.023-.023.048-.059.072-.107.024-.024.048-.048.071-.072.047 0 .072-.012.072-.035.072-.024.131-.049.18-.073.024-.024.048-.048.073-.071h.142c.072-.023.144-.048.215-.07.097-.024.168-.061.215-.108.024 0 .061-.012.108-.036h.359c.048 0 .097.012.144.036.047 0 .083.013.107.036h.073c.047.023.106.048.179.072.023.047.047.07.072.07.024.023.047.06.07.109h.109c.144-.025.287-.05.43-.073.023-.022.036-.048.036-.071H4.652l.018.018c.49.012.976.018 1.454.018.034.035.058.06.071.071l.018.019c.143.007.279.012.413.02.192.022.371.035.539.035.024.023.047.048.071.071h.718c.023-.023.047-.048.072-.071h.035c.622 0 1.245-.013 1.867-.035h.107c.048-.025.083-.038.107-.038.059-.005.119-.012.18-.018v-.418h.465c.073-.023.145-.035.217-.035 0-.023.011-.035.036-.035v-.036H11.325c.025 0 .037-.012.037-.035H11.829c.024 0 .036-.013.036-.037h.358c.12-.023.251-.035.395-.035.024-.023.049-.036.072-.036.023 0 .047-.013.072-.036h.286c.024 0 .048-.011.071-.036H13.227c.023 0 .046-.012.071-.036h.396c.143-.023.288-.036.43-.036.023-.022.048-.035.072-.035.022 0 .035-.012.035-.035h.503v-.036c.272.02.535.031.79.036h.144c.012-.004.024-.01.036-.019.182-.001.362-.007.539-.018H16.351l.035-.037h.144c.144-.023.275-.035.396-.035h.286c.025-.023.062-.035.108-.035h.287c.024 0 .06-.013.108-.036h.25c.216 0 .42-.012.612-.035h.143c.024 0 .036-.013.036-.037H18.971c0-.024.012-.036.036-.036H19.329c.048-.023.097-.035.143-.035h.36c.047 0 .095-.013.143-.036h.287c.048 0 .095-.012.143-.036h.143c.024 0 .049-.012.073-.034H20.836c.024-.025.049-.037.072-.037h.288c.048-.024.095-.035.143-.035H21.663c.047 0 .096-.013.143-.036h.287c.192 0 .384-.013.575-.036h.107c.024 0 .048-.012.072-.036h.145l.036-.036h.251c.047-.024.083-.036.107-.036h.214c.107 0 .216-.011.323-.036v.036h.144v.181l.036.035v.037l.037.034v.036c.047 0 .083.012.107.036.071 0 .131.012.179.035.024.024.048.036.072.036v.037c.072 0 .143.012.216.035.096 0 .179.012.25.036h.395c.072-.024.132-.036.18-.036.024-.023.048-.035.072-.035l.036-.037c.049 0 .096-.012.145-.036.023 0 .047-.013.072-.035h.143c.022-.024.059-.036.108-.036.048-.024.095-.036.144-.036v-.034c.047 0 .083-.014.107-.037.023 0 .035-.012.035-.035h.145c.024-.024.06-.036.108-.036H26.762c0-.024.011-.036.035-.036v-.036c.048 0 .084-.012.107-.036.024 0 .037-.012.037-.036h.143c.024-.023.06-.036.107-.036.049-.023.095-.036.143-.036v-.035c.048 0 .097-.013.145-.035v-.037h.071c.072-.023.132-.035.179-.035.023-.023.061-.036.108-.036v-.036c.024 0 .048-.012.072-.035v-.037h.18c.047-.024.083-.036.107-.036.048-.023.083-.034.108-.034l.035-.037c.024 0 .061-.012.108-.036v-.035h.179c.048-.024.083-.036.108-.036.024-.024.049-.035.072-.035v-.036c.047 0 .083-.012.106-.036.025 0 .037-.011.037-.036h.108c.024-.024.048-.036.073-.036.024-.023.046-.035.071-.035l.036-.036c.047 0 .095-.013.142-.035.025 0 .048-.013.073-.036h.035c.024-.025.06-.037.108-.037.024-.022.047-.035.071-.035l.036-.036c.025 0 .06-.012.108-.035v-.036h.144c.024-.023.048-.036.071-.036.047-.023.096-.035.143-.035l.036-.037c.023 0 .047-.012.072-.035.024 0 .048-.013.072-.036h.036c.047-.024.096-.036.143-.036.024-.023.049-.036.072-.036v-.036c.024 0 .06-.011.107-.034v-.037h.144l.036-.034h.035c.048-.025.096-.037.144-.037v-.035c.024 0 .047-.013.071-.036v-.037h.108c.024-.022.048-.034.072-.034.047-.025.096-.036.144-.036v-.048c.023 0 .047-.012.071-.036.023 0 .048-.012.071-.035h.073c.048-.023.083-.036.107-.036.024-.023.047-.035.072-.035v-.038c.047 0 .095-.011.143-.034v-.036h.144c.023-.024.048-.037.071-.037.048-.023.097-.035.144-.035v-.037c.048 0 .097-.012.144-.036v-.034h.072c.048-.025.096-.037.143-.037.023-.022.047-.035.072-.035l.036-.037c.023 0 .049-.01.071-.034v-.036h.108c.024-.025.048-.037.071-.037.05-.025.097-.035.144-.035v-.038c.026 0 .049-.011.073-.035v-.035h.107c.049-.024.096-.037.144-.037.024-.024.047-.035.071-.035v-.036c.024 0 .048-.012.072-.036.024 0 .048-.012.072-.035h.073c.047-.025.095-.037.143-.037.024-.023.048-.036.072-.036l.035-.035c.024 0 .061-.012.108-.036v-.037h.108c.024-.023.047-.035.071-.035.048-.024.095-.036.144-.036v-.037c.023 0 .036-.013.036-.035v-.036h.107c.024-.024.047-.036.072-.036.049-.023.083-.035.107-.035v-.037c.024 0 .048-.011.072-.035v-.037h.144l.037-.036c.047-.023.094-.035.142-.035v-.035c.025 0 .049-.013.073-.037.023 0 .048-.012.072-.036v-.035h.071c.047-.024.096-.036.144-.036v-.037c.024 0 .047-.013.071-.036.024 0 .048-.012.072-.035h.037c.023-.024.058-.037.106-.037.025-.022.049-.036.074-.036v-.034c.046 0 .095-.013.142-.036v-.037h.072c.048-.023.084-.037.108-.037l.037-.036v-.034c.024 0 .047-.013.071-.036.024 0 .047-.012.071-.035h.036L36.52 8c.048-.024.084-.037.108-.037v-.034c.024 0 .048-.013.071-.037v-.035h.106l.037-.035c.023-.025.047-.038.072-.038l.035-.035c.024 0 .048-.013.071-.035v-.038h.108c0-.023.011-.035.036-.035 0-.023.012-.036.036-.036v-.036c.023 0 .036-.012.036-.035v-.036h.107v-.036h.072v-.503c.121.004.239.01.359.018V6.6c.395.018.788.029 1.184.036V6.6c.188.021.369.033.539.036h.072v.359h.287v.035h.396v.037c.023 0 .034.012.034.035v.359c2.179.007 4.355.012 6.532.018v.054h.215c-.023-.023-.048-.036-.071-.036V7.48h.43v.018l-.036.036h2.189v-.036c.156-.002.312-.002.467 0v.036h.107v-.036h.431v.036h.251v-.036h.431v.036h1.256v-.036h.43v.036h.323v-.036c.299-.002.599-.002.898 0v.036h.395c.023.023.035.06.035.107.024.023.048.061.072.107h1.256c.023.048.035.084.035.108v.072h.071c.025.023.062.059.108.107v.035l.036-.035h37.536c-.024-.023-.047-.049-.072-.073v-.14c.298.015.597.026.898.035.024.023.047.047.072.072.167.002.334.01.501.017v-.054-.251-.144-.144-.144c.072-.048.131-.083.18-.107v-.106c.79.022 1.579.035 2.368.035.05.049.085.096.11.144zm-62.655 6.997c-.039.006-.075.011-.107.019.027-.001.056-.001.089 0l.018-.019zm1.578 1.149c-.023.023-.047.035-.071.035 0 .023.012.037.036.037v.681h.071v.144c.024.025.048.037.072.037 0 .023.012.036.034.036v.035c0 .023.014.034.037.034v.036c.023 0 .036.013.036.037.023 0 .059.011.106.035v.071h.036c.019 0 .037.007.054.02.031.005.06.012.09.018v.018c.015.003.026.008.036.018.048 0 .096.012.143.036v.036c.024.024.049.036.072.036.025 0 .061.012.108.036h.178c.241-.024.48-.036.72-.036.07-.024.142-.036.214-.036v-.072h.145c.119-.024.239-.035.357-.035.025-.023.049-.037.073-.037.048-.023.084-.035.107-.035v-.036c.023 0 .035-.012.035-.035v-.037h.144v-1.363c-.945-.018-1.89-.029-2.835-.035v.321zm3.444-.844c-.284.003-.573.01-.859.018.287-.001.574-.001.859 0v-.018zm-39.149.27c0 .023-.011.035-.036.035l-.036.035v.107c.024-.047.061-.083.107-.107.025-.047.049-.095.073-.143v-.035c-.001.024-.013.048-.037.072-.023.023-.048.036-.071.036zm.215-.252c.024-.012.049-.023.072-.035v-.072c-.023.023-.048.049-.072.072v.035zm.359-.25c0-.018.005-.035.018-.054l-.018.018c-.073.023-.132.048-.18.071-.017.019-.04.041-.072.072.048.001.096.001.144 0v-.072c.024-.024.06-.035.108-.035zm-.322 3.192c.008.01.02.021.035.036v-.036H1.21zm2.152 9.511c.024.023.047.059.071.107.023.023.035.047.036.071v-.035-.107c.024-.024.036-.048.036-.072.009-.01.021-.021.037-.035-.075.001-.148.001-.216 0 .024.023.036.046.036.071z"/></svg>