<svg xmlns="http://www.w3.org/2000/svg" width="37.875" height="32"><path fill-rule="evenodd" clip-rule="evenodd" fill="#FFF" d="M37.225 10.695c-.12.239-.314.372-.581.402-.446.029-3.495.073-9.136.135-.179 0-.372.043-.582.132-.36.121-.598.329-.717.629-.089.239-.104.714-.046 1.433.03.356.091.894.18 1.611.031.359.09.731.179 1.123 0 .207-.165.327-.494.355-.685.149-1.312.255-1.88.315-1.014.147-2.104.238-3.268.268-1.822.029-3.851-.03-6.092-.179-1.939 5.166-2.91 7.911-2.91 8.239 0 .359.077 1.508.224 3.45.448.326.807.552 1.075.67.209.092.297.208.269.36 0 .088-.03.147-.09.177l-.312.179c-.33.089-.688.105-1.077.046-.568-.09-4.374-.85-11.419-2.284-.357-.061-.357-1.043 0-2.957.149-.805.493-1.971 1.03-3.492.567-1.554 1.09-2.777 1.568-3.671.506-.928.91-1.925 1.208-3 .358-1.076.507-1.838.449-2.285-.061-.327-.479-.716-1.254-1.165-.597-.298-1.163-.521-1.701-.672-.3-.03-.539-.178-.718-.447-.12-.12-.253-.285-.404-.493-.089-.12-.134-.431-.134-.94v-1.12c0-.775.061-1.253.18-1.433.568-.984.998-1.717 1.296-2.193.269-.388.524-.688.764-.897.268-.268.506-.388.716-.359.208.03.448.03.717 0l.447-.044c.149-.269.284-.464.404-.582.12-.118.565-.074 1.344.134l.179.492h12.314v.404h5.331v-.404l12.27-.044.403.223c.238.149.358.329.358.537.061 1.167.118 2.256.179 3.271.06 2.001.044 3.103-.046 3.314-.15.477-.223.732-.223.762zm-12.854 1.119c-.148-.061-.268-.092-.356-.092v.092l-3.985-.044c-.152.566-.091 1.043.176 1.433.361.565.658.97.899 1.209.239.208.521.341.85.4.297.03.434.106.403.225-.029.149-.148.226-.359.226h-.579c-.329-.061-.69-.269-1.077-.627-.626-.538-1.03-.987-1.211-1.343-.117-.39-.178-.898-.178-1.522l-.805-.047c-.479 0-.896.194-1.254.584-.298.357-.448.778-.448 1.253v1.208c.061.36.361.644.897.852.775.299 1.523.418 2.238.36.837-.122 1.493-.196 1.972-.226.238-.03.67-.014 1.297.045.628.059 1.061.089 1.298.089.39 0 .643-.03.761-.089.061-.06.181-.179.361-.357.118-.18.148-.659.087-1.435-.03-.748-.148-1.3-.357-1.657-.121-.268-.332-.449-.63-.537z"/></svg>