<svg xmlns="http://www.w3.org/2000/svg" width="37.75" height="32"><path fill-rule="evenodd" clip-rule="evenodd" fill="#FFF" d="M37.073 2.483V2.857h.418V11.239H27.352l-.041.044v.123c-.028.029-.057.042-.084.042-.054.028-.097.054-.124.083l-.043.041v.042c-.025 0-.068.014-.124.044 0 .026-.014.053-.042.082h-.041c-.027.029-.056.056-.083.083-.028 0-.043.015-.043.044v.041c-.027 0-.056.015-.083.042h-.083v4.046h.209v.712h-.043V17.206H14.339v.249c-.03.029-.043.056-.043.085-.028.056-.055.099-.083.127v.666c-.027.028-.04.056-.04.084-.057.027-.097.069-.127.125v.542c-.026.056-.042.097-.042.125-.054.028-.082.054-.082.083v.666c-.055.028-.112.07-.167.126v.501c-.028 0-.07.026-.125.082V21.086c-.026.027-.041.055-.041.081-.029.056-.07.097-.126.128v.248c-.026 0-.041.028-.041.084-.028.028-.055.069-.084.125V21.959c-.027.028-.042.058-.042.085-.026.056-.07.097-.125.125v.25c-.027 0-.04.029-.04.085-.028.026-.057.068-.084.124V22.92c-.056 0-.111.026-.166.083-.029 0-.042.028-.042.084-.028.028-.054.068-.085.124V23.63l-.166.083v.333c-.026.029-.07.07-.126.125V24.462c-.054.057-.109.099-.165.125v.335c-.028.027-.042.069-.042.123-.056 0-.083.029-.083.084V25.505c-.057.029-.112.071-.167.125v.458c-.029.03-.07.056-.127.084v.667c-.056.029-.111.056-.167.084v1.503h.045c.026 0 .041.013.041.04v.21l.041.042v.125c.028 0 .04.012.04.041v.042c0 .029.017.041.045.041v.044c0 .026.012.041.042.041v.042l.04.042v.167c.027 0 .056.014.083.04v.043l.043.043v.04h.042v.042c0 .029.013.041.042.041h.041v.048c.029 0 .042.012.042.041v.042h.083v.041c.028.028.056.043.082.043h.086v.041c0 .028.014.043.04.043H12.797v.041h.043v.043h.125v.041h.083c0 .027.015.043.043.043v.333h-.794v-.04h-.083l-.042.04h-.461c-.107 0-.206.016-.29.042h-1.042c-.087-.026-.154-.042-.208-.042v-.127H9.836c-.056-.025-.112-.041-.167-.041v-.165h-.375c-.139-.028-.276-.043-.416-.043v-.086c-.118-.026-.242-.04-.381-.04s-.278-.015-.417-.043v-.041h-.25c-.333-.028-.68-.043-1.042-.043v-.083c-.336-.029-.64-.057-.919-.084-.026 0-.056-.027-.082-.083-.166 0-.333-.013-.5-.04-.029-.03-.057-.056-.084-.087-.167-.026-.335-.056-.502-.081-.024 0-.053-.029-.081-.085-.167 0-.335-.014-.499-.042-.029-.026-.059-.056-.085-.083-.167-.029-.32-.056-.46-.085v-.08c-.112 0-.223-.014-.332-.041-.028-.03-.056-.056-.085-.085-.055-.026-.125-.056-.208-.082H2.7v-.083-.128-.083-.124V28.055H.367v-.04V27.847H.2v-.125-.124-.085-.126-.123-.126-.082-.085-.126-.122-.087-.123-.127-.081-.126-.084-.125-.125-.085-.124-.125-.168-.123-.127c.081-.028.137-.043.167-.043v-.123-.126-.124-.085-.125-.124-.084c.025-.056.054-.083.081-.083.027-.054.042-.095.042-.125v-.125-.125-.083-.083c.085-.029.141-.04.167-.04v-.128-.125-.125-.082-.125-.083-.126c.056-.056.097-.081.126-.081v-.126-.126-.124-.085-.083c.082-.028.138-.042.167-.042v-.125-.125-.125-.083-.081c.056-.03.096-.044.122-.044v-.126-.122-.128c.085-.026.141-.054.168-.081v-.085-.124-.126c.056-.028.098-.056.125-.084v-.125-.125c.059-.026.098-.07.126-.125 0-.028.015-.056.042-.084v-.083c.055 0 .097-.013.125-.041v-.126-.124c.056-.029.096-.069.124-.127 0-.028.013-.054.043-.082v-.083-.124c.056-.029.096-.056.124-.084v-.083-.127-.124c.056-.028.112-.056.167-.083v-.127-.125c.028-.026.069-.056.125-.083v-.125c.026-.028.042-.054.042-.083.028-.056.056-.099.083-.125 0-.054.013-.099.042-.125.027-.029.055-.056.083-.085.029-.026.044-.067.044-.125v-.125-.082c.054-.057.111-.085.164-.085v-.122-.128c.029-.027.07-.069.126-.125v-.083-.126-.124c.056-.028.098-.056.125-.083 0-.058.014-.084.042-.084v-.082c.056-.028.097-.056.126-.085V16.378c.053-.025.111-.053.166-.081v-.126c.056-.026.098-.056.127-.082v-.126c.029-.056.053-.081.083-.081.026-.057.056-.102.082-.126v-.128-.123c0-.029.028-.056.083-.084.027-.027.044-.066.044-.123v-.086c.053-.056.096-.096.124-.125 0-.057.015-.083.042-.083v-.125c.056-.028.095-.069.125-.125v-.126-.083-.083c.055-.028.111-.04.167-.04v-.126-.125-.125c.057-.028.096-.056.124-.083v-.125-.083-.126-.081-.127-.124c.056 0 .112-.015.168-.043v-.125-.251c-.056 0-.112-.012-.168-.042v-.167-.083c-.056 0-.11-.016-.164-.043-.029-.029-.072-.068-.126-.124v-.124c0-.028-.014-.056-.043-.087-.082-.027-.165-.056-.248-.083v-.085c-.057-.025-.112-.053-.168-.081-.028-.027-.071-.071-.125-.127v-.083c-.058-.029-.111-.056-.167-.082-.028-.03-.056-.059-.085-.085-.055-.029-.11-.041-.166-.041v-.083c-.057-.028-.111-.056-.167-.083v-.082c-.083-.031-.178-.044-.29-.044v-.083c-.056-.028-.113-.055-.168-.083-.028-.027-.055-.055-.083-.083-.057-.028-.111-.041-.167-.041v-.083c-.167-.029-.321-.057-.458-.084-.028-.028-.057-.057-.085-.084-.055-.028-.124-.041-.209-.041v-.083c-.192-.029-.388-.056-.582-.085v-.125-.082-.085H.368v-.125-.173-.126-.125-.124-.085-.124-.126-.167-.125-.122-.127c.05-.03.092-.056.118-.083v-.127-.083V8.157v-.126-.124-.126-.083-.084c.167-.027.32-.041.461-.041v-.125-.126-.124-.084-.124-.084V6.696v-.125-.127-.123c.056-.026.096-.057.122-.085v-.082-.126c.059-.056.1-.095.128-.124 0-.028.013-.056.04-.085v-.122-.127c.056 0 .098-.015.125-.042v-.125-.127-.123c.085-.029.141-.056.169-.085v-.083-.125c.055-.029.097-.056.125-.085v-.083-.124c.056-.027.111-.055.167-.083v-.084c.056 0 .096-.014.124-.042v-.127-.121c.056 0 .112-.014.167-.044v-.082c.056-.029.096-.056.125-.083v-.085-.125c.056-.028.112-.056.168-.082v-.083c.055 0 .097-.015.126-.044v-.082c.054-.029.111-.056.164-.085v-.083c.056 0 .099-.013.126-.042v-.082c.056-.028.111-.042.167-.042V2.9v-.25c.389 0 .779.014 1.168.043v-.086-.124-.125-.168-.125-.124c4.756.025 9.51.041 14.267.041V2.399h.583v.084c.056.027.097.056.127.083V3.275h5.255v-.041-.167-.125-.128-.122-.086-.124-.125-.167-.125-.124c3.56.025 7.103.041 10.636.041v-.041c.335.025.653.041.961.041h.917v.083c.056 0 .111.013.167.044v.248c.002.03.002.071.002.126zM17.55 11.704c-.085.026-.155.056-.208.082-.028.029-.071.056-.126.085-.029.026-.069.067-.125.123v.126c-.028.027-.067.056-.124.083v.211c-.056.027-.111.056-.167.081V12.704c-.028.028-.069.057-.127.083v.335c-.028.027-.056.068-.083.125-.027.028-.056.055-.083.083v.25c0 .028-.014.055-.042.082-.026.029-.057.058-.083.084v.251c-.029.029-.042.071-.042.126l.042.085V14.415c.026.056.057.097.083.124.028.028.042.056.042.083v.126l.125.125c0 .028.013.069.041.125.028 0 .041.026.041.083.03.028.058.068.086.125v1.293h8.301v-.127-.122-.293c.221 0 .443.015.665.042v-.042-.124c.03 0 .058-.014.085-.044v-.04-.335-.29-.335-.375-.292-.335-.335-.331-.335-.292-.333-.126h-.377v-.041-.082c-.025 0-.054-.015-.082-.041v-.044h-.083c0-.027-.013-.053-.042-.083v-.041c0-.029-.012-.042-.042-.042v-.044h-.124v-.083h-.084c0-.029-.015-.056-.042-.083l-.083-.042c-.028-.025-.057-.041-.084-.041-.054-.029-.095-.04-.124-.04v-.085h-4.506V11.66c-.056.026-.112.053-.167.082V13.579c.028.028.043.055.043.082.026 0 .04.015.04.045 0 .026.013.04.043.04 0 .03.013.042.041.042 0 .031.014.042.043.042v.084c.026.027.053.041.081.041.028.028.058.056.084.083v.042c0 .028.014.043.042.043.027.028.042.056.042.085l.042.04h.084v.083c.027 0 .056.016.083.04l.042.044c.028 0 .054.012.083.04v.083h.081c.031.028.056.056.086.083v.042c.025 0 .056.015.081.043.056 0 .113.014.167.042v.083h.168c.056.028.096.055.125.082v.044c.083 0 .153.011.208.04.054 0 .126.016.209.042v.085h.583v.707h-1.334v-.044c-.056-.025-.112-.04-.167-.04-.056-.028-.126-.056-.208-.083v-.045c-.029-.025-.07-.04-.126-.04-.056 0-.112-.015-.167-.042v-.041c-.027-.029-.069-.044-.125-.044-.057-.026-.112-.056-.165-.082v-.041l-.043-.04c-.028-.029-.056-.044-.084-.044v-.042c-.055-.025-.097-.056-.125-.081-.028 0-.056-.015-.086-.043v-.083c-.025-.029-.053-.04-.081-.04-.028-.03-.056-.044-.084-.044-.028-.026-.04-.054-.04-.082l-.043-.042c0-.028-.012-.056-.041-.083-.027-.028-.057-.043-.084-.043v-.042c-.027-.028-.052-.056-.083-.083v-.042c-.027-.026-.055-.055-.082-.082l-.043-.044v-.04c-.026 0-.053-.016-.082-.042v-.041c-.029-.029-.056-.056-.083-.084v-.04c0-.028-.03-.043-.085-.043v-.042-.083h-.207v-.082c0-.029-.014-.043-.043-.043 0-.027-.015-.054-.04-.083v-.166-.127-.163V13.079v-.083c.053 0 .083-.013.083-.041v-.083-.125-.167-.167-.167-.167-.167-.167-.167-.125-.209h-.71v.167c-.141.029-.292.057-.46.084v.042c-.028.026-.069.056-.124.083v.084zM7.161 29.6c.085 0 .156.012.212.041V29.6c-.087-.029-.183-.044-.294-.044l.082.044z"/></svg>