<svg xmlns="http://www.w3.org/2000/svg" width="20.104" height="32"><g fill="#FFF"><circle cx="9.826" cy="20.694" r="1.557"/><path d="M12.52 17.854c-.345-.105-.709.089-.814.434l-.409 1.339c.219.3.348.669.348 1.068 0 1.002-.815 1.817-1.817 1.817-1.003 0-1.817-.815-1.817-1.817 0-.358.104-.692.283-.974l-.438-1.434c-.104-.345-.47-.539-.813-.434-.346.105-.539.47-.434.814l1.588 5.198v7.141c0 .36.291.652.651.652.361 0 .652-.292.652-.652v-2.271h.588v2.336c0 .36.292.652.652.652.359 0 .652-.292.652-.652v-7.292l1.561-5.111c.105-.344-.09-.709-.433-.814z"/></g><path fill="#FFF" d="M10.028.359C4.535.359.082 4.242.082 9.033c0 .797.124 1.569.355 2.303l5.971 7.113c.019-.151.074-.293.161-.416L.814 11.187c.442-.149.94-.234 1.467-.234 1.063 0 2.008.342 2.612.873l2.374 5.822c.016 0 .031-.002.046-.002.149 0 .292.036.417.1L5.231 11.62c.552-.412 1.316-.667 2.162-.667.93 0 1.761.308 2.319.792v7.224c.064-.006.129-.011.195-.011s.132.004.195.011v-7.187c.559-.506 1.408-.829 2.359-.829.843 0 1.604.253 2.155.661l-2.478 6.073c.085-.026.176-.04.27-.04.055 0 .109.005.164.016l2.356-5.778c.002.001.003.002.005.004.6-.566 1.577-.936 2.682-.936.584 0 1.132.104 1.607.284l-6.067 6.799c.085.121.14.261.159.41 0 0 6.279-7.045 6.282-7.044.245-.753.376-1.547.376-2.369.003-4.791-4.451-8.674-9.944-8.674z"/></svg>