<svg xmlns="http://www.w3.org/2000/svg" width="32" height="32"><g fill="#FFF"><path d="M2.416 3.535v24.786l11.387 2.847V.604L2.416 3.535zM7.73 15.129c-1.271 0-2.302-1.855-2.302-4.144S6.459 6.841 7.73 6.841c1.271 0 2.301 1.855 2.301 4.144 0 2.288-1.031 4.144-2.301 4.144zM27.349 10.765h2.591v.709h-2.591zM26.6523216 9.860223l1.4452482-1.4637612.5031012.4967382-1.4452482 1.4637612zM26.8658504 12.4729192l.4971624-.502677 1.463238 1.4471856-.4971624.502677zM25.7968424 13.0252168l.6391824-.30444.58953 1.2377388-.6391824.30444zM25.6925408 9.0962138l.7378722-1.1554788.5958596.3805074-.7378722 1.1554788zM16.362 12.138l7.997.004 2.054-1.137-2.164-1.042h-7.887v2.175z"/></g></svg>