<svg xmlns="http://www.w3.org/2000/svg" viewBox="0 0 32 32"><defs/><path fill="#FFF" d="M2.416 3.535v24.786l11.387 2.847V.604L2.416 3.535zM7.73 15.129c-1.271 0-2.302-1.855-2.302-4.144S6.459 6.841 7.73 6.841c1.271 0 2.301 1.855 2.301 4.144 0 2.288-1.031 4.144-2.301 4.144zm19.619-4.364h2.591v.709h-2.591zm-.6967-.9048l1.4453-1.4637.503.4967-1.4452 1.4638zm.2136 2.6127l.4971-.5027 1.4633 1.4472-.4972.5027zm-1.069.5523l.6391-.3044.5896 1.2377-.6392.3045zm-.1044-3.929l.738-1.1555.5958.3805-.7379 1.1555zM16.362 12.138l7.997.004 2.054-1.137-2.164-1.042h-7.887v2.175z"/></svg>
