<svg xmlns="http://www.w3.org/2000/svg" width="32" height="32"><g fill="#FFF"><path d="M13.919 11.804l-1.008-1.264c.115-.14.193-.313.193-.508 0-.448-.364-.812-.812-.812s-.812.364-.812.812c0 .449.363.812.812.812.068 0 .128-.022.19-.039l.649 1.438-3.967 2.212c.543 1.003 1.41 1.806 2.459 2.269l6.788-6.788c-.075-.17-.155-.338-.247-.499l-4.245 2.367zM20.241 23.06l-4.624-3.082-.742.742 4.704 3.134-8.531 3.986.777-4.07-1.243 1.243L9.248 32h1.006l.555-2.905 9.693-4.528 1.284 7.401h1.007l-2.914-16.252-.777.777z"/><path d="M6.365 13.563c0 2.353.845 4.502 2.239 6.181l1.219-1.219c-1.085-1.364-1.743-3.083-1.743-4.962 0-4.418 3.581-8 8-8 1.879 0 3.603.652 4.968 1.737l1.222-1.222c-1.681-1.392-3.838-2.229-6.19-2.229-5.366 0-9.715 4.349-9.715 9.714zM24.079 13.563c0 2.298-.975 4.364-2.526 5.822l.3 1.977c2.386-1.77 3.94-4.6 3.94-7.799 0-1.126-.201-2.203-.554-3.208l-1.379 1.379c.139.588.219 1.198.219 1.829z"/><path d="M26.151 9.443c.539 1.292.839 2.708.839 4.196 0 3.23-1.217 6.967-4.652 9.36l.335 2.167c4.321-2.597 6.223-7.117 6.223-11.339 0-2.072-.503-4.022-1.375-5.753l-1.37 1.369zM5.168 13.639c0-6.026 4.886-10.911 10.911-10.911 2.664 0 5.103.957 6.997 2.543l1.25-1.25c-2.229-1.877-5.104-3.012-8.247-3.012C9 1.01 3.262 6.749 3.262 13.827c0 2.995.737 5.886 2.889 8.369l1.36-1.36c-1.772-2.107-2.343-4.838-2.343-7.197zM4.8282782 25.2396428L27.079301 2.98862l1.7338092 1.7338092L6.5620874 26.973452z"/></g></svg>