<svg xmlns="http://www.w3.org/2000/svg" width="52.5" height="32"><path fill-rule="evenodd" clip-rule="evenodd" fill="#FFF" d="M52.271 6.917l-.543 1.315v2.45h-2.541v-.318h-.589v.364h-3.857v-.408l-3.901-.046-.682.273h-5.851c-.182 0-.392.03-.636.091-.454.089-.801.227-1.043.407l-.046.047c-.362.302-.573.483-.635.543-.21.271-.332.575-.363.907-.029.332-.043.848-.043 1.542v.953c-.426-.03-.862-.047-1.316-.047h-1.18c-.333 0-.592.033-.772.093-.392.089-.68.211-.861.362-.12.091-.241.257-.364.5-.058.061-.107.122-.136.181-.121.243-.21.574-.27.998-.063.484-.137.785-.228.906-.211.425-.425.756-.635 1.001-.484.482-1.09.862-1.816 1.133-.058.031-.122.059-.181.092-.757.211-1.481.377-2.177.498-.665.06-1.271.077-1.814.045-.122 0-.256-.029-.409-.089-.272-.091-.56-.259-.862-.5-.122-.122-.242-.242-.362-.363l-.181-.181-.272.271c-.152-.029-.302-.06-.455-.09-.213-.032-.408-.06-.589-.092-.182 0-.348-.014-.499-.045-.365-.06-.68-.104-.954-.136-.575-.061-.983-.044-1.225.045-.392.181-.71.392-.952.636-.272.271-.423.574-.453.907-.03.454.09.861.363 1.225.06.121.15.258.272.407.06.122.075.228.045.319 0 .06-.06.152-.182.271-.06.06-.181.153-.364.272-.332.303-.515.636-.544.998-.089.485 0 .923.272 1.317l.227.407c.061.123.075.242.044.363-.03.092-.09.181-.182.273-.09.061-.241.135-.452.227-.425.21-.713.422-.863.633-.15.213-.272.485-.361.819-.064.301-.183.528-.365.679-.271.212-.984.422-2.131.636-1.182.181-2.195.255-3.042.227-1.208-.062-2.206-.182-2.994-.363-1.179-.302-1.828-.726-1.95-1.271-.059-.212 0-.5.182-.861.06-.063.105-.137.133-.229.153-.302.275-.544.365-.724.151-.302.287-.59.407-.864.122-.271.273-.694.455-1.27.272-.725.482-1.299.635-1.723.543-1.513 1.012-2.647 1.405-3.402.424-.757 1.12-1.876 2.087-3.358 1.029-1.542 1.68-2.541 1.951-2.995.244-.332.394-.665.454-.998.03-.242.03-.544 0-.907v-.772c0-.272.059-.53.181-.772.182-.301.666-.527 1.453-.68.272-.061.561-.105.862-.135h.317c.121-.122.259-.243.411-.362.33-.244.633-.41.907-.501.241-.089.529-.196.861-.317l.454-.091-.273-.68c-.241-.423-.496-.727-.77-.908-.271-.151-.652-.256-1.135-.317-.061-.031-.136-.044-.227-.044-.302-.032-.576-.047-.816-.047l-.043-.228c.27-.029.558-.045.86-.045.666-.061 1.134-.061 1.408 0 .242.061.543.227.907.5.03.029.059.046.09.046.272.209.469.316.59.316.151 0 .392-.227.726-.681.152-.182.302-.377.454-.589l1.043.044.409-.952-.091-.046c-.062-.031-.105-.075-.135-.136-.152-.181-.183-.394-.093-.635.063-.151.153-.259.272-.319.031-.029.061-.043.091-.043.09-.031.151-.031.183 0l.089-.455.545.091-.045.412h1.587l.5.319h2.449v-.636l.635-.59.907.047v.453h.816v-.453h.954v.453h.816v-.5h.953v.5h.862v-.5h.817v.5h.952v-.453h.817v.453h.907v-.5h.861v.5h.908v-.5h.908v.5h.863v-.5h.814v.5h.908v-.453h.816v.408h.908v-.408h.636l.453.136c.334.121.62.226.863.317.393.151.937.424 1.633.817h5.307v-.817h2.587l.182.044c.149.032.271.107.361.228.062.121.108.257.137.408l-.045.227 1.268 1.044v2.449zm-29.804 7.666l.271.229c-.122.304-.242.544-.364.726-.06.121-.163.287-.316.498-.031 0-.061.017-.091.045-.211.242-.363.455-.454.636-.062.333-.062.635 0 .908.06.271.243.543.545.817.242.241.558.483.953.725.181.12.347.212.5.272l-.138.272c-.211-.06-.468-.149-.771-.272-.543-.241-1.012-.545-1.405-.907-.242-.273-.437-.65-.59-1.134l-.182-.728.228-.179.045-.545c-.119 0-.257-.017-.406-.044-.365-.032-.636-.077-.818-.137-.182-.061-.346-.183-.499-.364l-.182-.227-.181.138c-.12.119-.227.27-.317.453-.333.453-.499.892-.499 1.315v.181c.029.424.107.817.226 1.181.123.452.273.785.455.997.212.212.467.392.77.545.364.152.833.24 1.408.272.544.029 1.166-.017 1.861-.138.392-.091.726-.167.998-.225.149-.064.271-.106.363-.139.149-.059.302-.135.454-.225.181-.092.392-.228.636-.41.512-.362.815-.665.904-.906.154-.273.243-.561.275-.863.06-.302.06-.682 0-1.134v-.045c-.032-.363-.228-.68-.592-.954-.241-.211-.573-.437-.997-.679-.303-.152-.756-.228-1.362-.228h-.775l.047.273z"/></svg>