<svg xmlns="http://www.w3.org/2000/svg" width="84.75" height="32"><path fill-rule="evenodd" clip-rule="evenodd" fill="#FFF" d="M20.6 7.498h13.686c.086.021.151.043.195.066.064.043.107.086.129.128l.033.033h.032c.022.021.065.054.131.097.021.044.042.088.063.13 0 .021.011.044.032.064v.099H35v-.064h.292c.042.042.107.074.193.097.043.021.087.044.13.064 16.173 0 32.356.012 48.551.033.085.043.161.075.226.096.023.021.055.044.099.066.022.043.043.086.064.13.021.042.033.075.033.097v.128c0 .023-.011.035-.033.035.021.021.033.042.033.063v2.175c-.022 0-.054.011-.097.033-.044.043-.088.076-.13.097-.022.064-.044.107-.066.129-.064.022-.108.055-.129.099-.022.043-.033.075-.033.099-.087-.023-.152-.056-.195-.099l-.032-.033H82.22v.551c0 .022.01.044.032.066l.033.031c.173 0 .336.011.487.031v-.031-.098h1.556V15.28c-.497 0-.983-.011-1.458-.032v.032h-.39c-.022 0-.034.012-.034.032-.021.021-.053.032-.097.032-.021.021-.043.055-.064.098v.064c-.021.022-.033.043-.033.065-.022.021-.032.054-.032.098 0 .021-.011.044-.033.063 0 .022-.022.045-.064.065-.022.044-.043.076-.065.099 0 .021-.012.031-.033.031v.065c-.064.021-.108.055-.129.098-.021.021-.042.043-.065.064 0 .021-.011.043-.031.064-.022.043-.056.075-.098.097-.021.021-.034.043-.034.065-.021.021-.032.054-.032.097v.033c-.042 0-.085.011-.129.032v.064c-.043.022-.098.033-.162.033-.043.043-.075.076-.097.098v.064h-.487v.194c-6.984.022-13.957.032-20.918.032v.227c-.541 0-1.083-.011-1.623-.032v-.066-.129-.064-.064c-.064-.044-.141-.064-.228-.064-.086-.022-.172-.044-.259-.067v-.058c-.086 0-.151-.022-.194-.065-.065-.022-.13-.044-.196-.065v-.064c-.107 0-.205-.011-.291-.033-.109-.043-.206-.075-.293-.097v-.065H46.317c-.087-.021-.174-.054-.26-.097-.044-.021-.076-.044-.097-.064-.043-.021-.098-.044-.162-.064-.021-.043-.054-.087-.098-.132-.043-.021-.075-.042-.097-.063v-.131-.097-.13h-2.432v.485h-.682v.387c-.498 0-1.016-.01-1.557-.031-.021-.022-.043-.044-.064-.065v-.032-.097-.065-.098H32.99c-.022 0-.055.023-.097.066h-.098c-.021.021-.055.031-.098.031-.065.022-.108.044-.129.065-.044.021-.098.055-.162.097h-.097c-.065.022-.108.032-.131.032-.042.021-.086.043-.129.065 0 .021-.022.054-.065.097-.042.022-.086.044-.13.065 0 .021-.022.032-.064.032 0 .021-.012.032-.034.032-.042.022-.075.033-.096.033-.043.043-.077.076-.098.098v.064c-.042.021-.077.033-.097.033v.161h-.161v.161c-.152 0-.304.012-.455.032h-.032c-.109 0-.205.013-.293.034h-.032c-.043 0-.075.01-.097.032h-.065c-.087 0-.185.021-.292.064h-.032c-.086 0-.173.012-.259.032h-.066c-.021 0-.053.011-.097.033h-.032c-.043 0-.076.012-.097.031h-.032c-.023 0-.043.012-.064.034h-.033c-.066 0-.109.009-.131.031h-.032c-.022 0-.033.022-.033.065h-.065c-.043 0-.076.011-.098.032h-.033c-.064 0-.107.011-.129.032h-.032c-.043 0-.097.012-.163.032h-.031c-.022 0-.043.011-.064.033h-.067c-.021 0-.032.022-.032.064h-.033c-.021 0-.043.011-.064.033h-.033c-.043 0-.076.01-.098.031h-.032c0 .021-.011.032-.033.032s-.054.013-.097.032h-.033c-.021 0-.042.012-.064.032h-.032c-.022 0-.055.022-.098.065h-.032c-.022 0-.043.013-.066.033h-.032l-.064.032h-.032c-.022 0-.043.011-.065.032h-.033c-.022 0-.032.01-.032.034h-.066c-.021 0-.042.021-.064.063h-.033c0 .022-.011.032-.032.032-.044 0-.076.011-.097.033h-.032c-.022 0-.032.011-.032.033h-.034c-.021 0-.032.011-.032.032h-.064c-.021 0-.033.01-.033.031h-.032c-.023 0-.044.021-.066.066-.042 0-.075.009-.096.032h-.034c-.02 0-.032.011-.032.032h-.032c0 .021-.011.032-.031.032-.044 0-.076.011-.099.033-.021 0-.032.021-.032.063h-.032c0 .022-.011.032-.033.032-.065 0-.107.011-.13.034h-.032l-.065.063v.033h-.064c-.021 0-.033.021-.033.063h-.032c0 .022-.011.033-.033.033-.021 0-.053.011-.097.033h-.031c0 .021-.012.031-.035.031-.021 0-.042.012-.064.034h-.033c0 .042-.021.064-.065.064-.022 0-.043.01-.064.032h-.032c-.022 0-.033.009-.033.031h-.064c-.022 0-.034.011-.034.033h-.031c-.022 0-.032.011-.032.033h-.034c-.021 0-.032.011-.032.032h-.065c0 .042-.011.064-.032.064s-.032.011-.032.033h-.033c-.022 0-.032.01-.032.031h-.066l-.064.065c-.021 0-.033.021-.033.063h-.032c-.043 0-.065.011-.065.032h-.032c0 .023-.011.034-.032.034-.022 0-.033.011-.033.032h-.032c0 .021-.011.032-.032.032-.043 0-.064.021-.064.065h-.035c0 .021-.011.031-.031.031-.022 0-.033.01-.033.032h-.033c-.042 0-.063.011-.063.033h-.033c-.021 0-.033.011-.033.031h-.032v.034c-.021 0-.032.02-.032.064h-.032c-.044 0-.067.011-.067.033H24.2c-.021 0-.032.009-.032.031h-.033l-.097.065c-.022 0-.043.021-.064.063 0 .021-.01.035-.032.035s-.033.009-.033.031h-.032l-.129.097c-.022 0-.032.022-.032.065h-.032l-.131.098c-.021 0-.032.01-.032.031h-.032c-.022 0-.031.021-.031.065h-.066c-.021 0-.032.011-.032.032h-.032c-.021 0-.043.012-.064.032-.044 0-.076.011-.097.032-.022 0-.043.011-.065.032h-.033c-.022 0-.054.011-.097.032-.021 0-.044.022-.065.066h-.037c-.022 0-.054.01-.098.032-.021 0-.043.011-.065.031h-.032c-.021 0-.032.012-.032.033h-.031c-.066 0-.109.012-.13.032h-.033c-.022 0-.032.021-.032.064h-.066c-.021 0-.042.012-.065.034h-.031c-.021 0-.044.009-.065.031h-.065c-.043 0-.075.011-.097.031h-.034c-.042 0-.085.013-.129.034-.108 0-.194.011-.259.032h-.033c-.065 0-.107.021-.129.065h-.033c-.064 0-.119.011-.162.031h-.034c-.107 0-.214.012-.324.033H19.724l-.032-.033h-.163v-.031h-.13l-.032-.065h-.164l-.032-.032h-.227l-.032-.034h-.066v-.031h-.129l-.032-.031h-.097l-.033-.034h-.098l-.031-.064h-.098v-.032h-.097l-.065-.033h-.032l-.034-.031h-.063l-.033-.032h-.064l-.032-.066h-.064v-.032h-.098l-.033-.032h-.063l-.033-.032h-.097v-.032h-.034l-.064-.098h-.033v-.031h-.096v-.033h-.034v-.033h-.032v-.031h-.032v-.065h-.033v-.033h-.065v-.032l-.032-.031h-.032l-.131-.13v-.032h-.032v-.012l-.063-.064v-.064h-.034v-.034h-.032v-.031l-.098-.065v-.031l-.066-.098v-.032h-.031v-.034l-.064-.032v-.063l-.032-.033h-.034v-.032l-.032-.031v-.033l-.032-.064v-.032c-.022-.022-.054-.033-.098-.033v-.033l-.064-.063v-.064l-.034-.034c0-.021-.009-.031-.031-.031v-.066l-.098-.097v-.031l-.032-.032v-.034l-.065-.096V18.5l-.032-.032h-.065v-.064l-.033-.074v-.031l-.033-.032v-.033l-.065-.065v-.063l-.162-.132v-.065l-.032-.032v-.032c-.044 0-.065-.011-.065-.032l-.292-.324v-.031h-.032v-.065c-.021 0-.033-.011-.033-.033h-.065l-.098-.129c0-.021-.01-.034-.032-.034v-.032l-.195-.193h-.583c-.023.021-.043.032-.064.032-.218.022-.412.064-.584.13-.043.021-.086.043-.129.063-.022 0-.055.013-.099.034v-.066-.129-.096h-.032v.031l-.032.032c-.065.022-.12.032-.163.032-.064.022-.119.054-.162.098-.021.021-.043.043-.065.063-.022.023-.054.034-.098.034l-.031.032c-.043 0-.075.021-.098.064-.043.021-.077.043-.097.065l-.066.065c-.043 0-.097.009-.162.031-.021.043-.042.076-.063.098 0 .021-.011.032-.033.032l-.065.032c-.042 0-.076.011-.097.033-.021.043-.055.064-.097.064v.033c-.044.021-.097.031-.163.031-.044.021-.077.045-.097.064v.098c-.042.022-.098.033-.164.033-.064.021-.119.043-.162.064-.043.022-.076.055-.097.097 0 .022-.011.032-.033.032l-.031.033c-.065 0-.109.011-.13.033-.021.021-.042.042-.064.063l-.065.099c-.064 0-.12.011-.162.032v.032l-.032.033c-.065.043-.119.063-.163.063-.021.022-.043.043-.065.066-.043.021-.063.041-.063.063v.13c-.023 0-.044.011-.066.033-.022.021-.043.043-.065.065-.063.064-.118.118-.161.161-.086.021-.162.065-.228.13l-.032.033v.063h-.097c-.022.022-.044.033-.065.033-.021.043-.042.074-.064.096 0 .023-.021.045-.064.066-.021.021-.043.054-.064.098-.043.021-.087.041-.13.063-.021.021-.044.044-.065.064 0 .022-.011.054-.032.099-.022.021-.044.042-.064.064-.043.022-.078.033-.098.033-.023.021-.043.053-.064.096-.026.028-.059.051-.102.073-.022.021-.032.043-.032.063-.021.022-.043.056-.064.099v.064c-.065 0-.108.011-.129.033-.022.021-.044.053-.065.097v.064c-.044 0-.087.011-.131.032l-.064.064c-.022.045-.043.076-.064.099-.043.021-.076.043-.097.064-.023.021-.034.054-.034.097 0 .022-.011.034-.033.034 0 .02-.011.042-.032.063-.021.022-.064.045-.129.066 0 .043-.011.076-.033.097-.021.021-.043.043-.064.065-.043.021-.076.054-.099.097-.02.021-.031.043-.031.064-.021.022-.042.044-.065.064-.021.022-.053.032-.097.032v.099c-.022.021-.044.043-.065.064-.021.021-.032.054-.032.097-.021.022-.055.045-.099.066-.021.021-.042.041-.063.064-.021.021-.045.054-.066.098-.021.021-.032.043-.032.064 0 .022-.022.032-.065.032 0 .021-.011.054-.032.098-.022.022-.054.043-.097.063v.066c0 .022-.023.054-.065.097 0 .021-.011.043-.033.064v.129c-.043.022-.074.032-.096.032-.021.022-.033.045-.033.065-.042.021-.064.044-.064.065 0 .042-.011.076-.032.096 0 .022-.011.044-.033.065-.021.023-.033.055-.033.098 0 .022-.01.033-.032.033 0 .021-.021.042-.064.064v.226c-.042.022-.076.034-.097.034-.023.042-.032.073-.032.095-.023.021-.033.045-.033.066v.097c-.065 0-.108.011-.13.032 0 .021-.011.045-.032.066 0 .021-.011.042-.033.064v.097c-.046.029-.068.05-.068.072-.021.021-.042.032-.065.032v.098c-.021.021-.043.043-.064.065V24.557h-.13v.194c-.542 0-1.082-.012-1.622-.033-.065-.022-.119-.053-.162-.097v-.064c-.065 0-.109-.012-.131-.032-.086-.023-.15-.044-.194-.066 0-.043-.011-.074-.032-.097l-.032-.032c-.087-.021-.151-.041-.195-.063v-.099c-.064 0-.119-.011-.162-.031-.021-.022-.043-.044-.065-.065l-.097-.098c-.023 0-.044-.011-.066-.032-.043-.022-.097-.043-.162-.064 0-.022-.01-.055-.032-.097-.021 0-.054-.011-.098-.033v-.063c-.042-.023-.075-.044-.097-.066-.042-.043-.075-.074-.097-.097-.044-.021-.065-.045-.065-.066-.022-.021-.043-.053-.064-.095-.043-.023-.087-.045-.131-.067 0-.021-.01-.042-.032-.063-.02 0-.053-.011-.097-.033 0-.043-.011-.075-.032-.097-.043-.022-.064-.043-.064-.064v-.033c-.043-.043-.087-.074-.129-.098 0-.021-.022-.043-.066-.065-.021 0-.053-.01-.097-.031v-.098c-.021-.021-.042-.042-.065-.064-.064-.021-.108-.043-.129-.065-.022-.042-.034-.075-.034-.097-.021-.021-.053-.044-.097-.065-.022-.025-.045-.058-.065-.101 0-.022-.01-.043-.032-.065l-.032-.033c-.066-.021-.109-.041-.13-.063 0-.044-.011-.076-.034-.098l-.032-.033c-.065-.021-.107-.044-.129-.064v-.098c-.021 0-.033-.011-.033-.032-.021-.022-.032-.043-.032-.064v-.098c-.042 0-.087-.013-.131-.033 0-.021-.01-.043-.031-.064 0-.022-.011-.054-.032-.099v-.032c-.043-.021-.087-.042-.13-.064v-.129c-.021-.021-.032-.043-.032-.063-.021-.021-.032-.044-.032-.064v-.098-.065-.065-.097-.096-.099-.064-.064-.163-.097-.096-.066-.096-.064-.098-.131-.097c.021 0 .044-.011.064-.032v-.032-.423-.42-.423-.422-.454-.42-.423-.421-.487-.422-.423-.063c-.021-.021-.043-.032-.064-.032v-.129-.064-.064-.097-.066-.065-.097-.098-.097-.063-.066-.097-.065-.098-.096-.065-.097-.066-.129h1.621v.097c.021.022.055.044.097.065.022.022.055.033.098.033v.097c.044.022.087.042.13.065.065.022.119.032.162.032 0 .021.011.044.033.064 0 .044.021.076.063.098.044.022.098.031.164.031v.065c.064.043.128.077.195.098.065.022.129.034.194.034v.063c.086.022.152.055.194.097.13.024.26.034.389.034v.064c.11.022.206.054.293.097h1.135c.087-.043.195-.074.324-.097.044-.022.066-.043.066-.064h.032c.13-.021.26-.034.389-.034.088-.042.185-.074.293-.097.022-.021.031-.043.031-.063h.033c.127-.031.256-.041.386-.041.131-.021.26-.055.391-.098v-.065c.13-.021.259-.031.389-.031.063-.021.14-.054.227-.098v-.064h.033c.064-.021.118-.032.161-.032.109-.023.195-.043.26-.065.021-.043.032-.076.032-.097h.065c.043-.022.087-.033.131-.033.106-.021.226-.043.355-.065.022-.042.034-.074.034-.097h.032c.065-.021.129-.032.195-.032.086-.021.183-.043.291-.064v-.098c.064-.021.152-.033.259-.033.066-.021.142-.042.228-.063v-.098c.043-.022.107-.032.194-.032.043-.021.107-.044.194-.064v-.097c.065-.022.151-.033.258-.033.046-.022.098-.043.164-.063v-.067h.033c.022-.042.054-.064.097-.064.064-.021.107-.043.129-.066.022-.021.044-.042.065-.063.043-.043.075-.065.097-.065v-.031c.065-.021.141-.031.228-.031.023-.022.044-.044.065-.066l.097-.097c.043-.022.097-.033.163-.033v-.064c.042-.021.086-.032.129-.032.043-.045.085-.076.129-.099.022-.021.033-.043.033-.063h.031c.043-.022.098-.031.163-.031.044-.023.085-.056.129-.099.044-.021.077-.044.098-.066.022-.021.043-.032.065-.032v-.031c.065-.043.118-.065.162-.065v-.064h.032c.022-.021.064-.033.129-.033.065-.021.141-.043.228-.064v-.097h.032c.043-.022.099-.032.162-.032.023-.021.044-.044.066-.065.021-.043.043-.075.064-.097.043-.022.076-.034.098-.034v-.031c.044-.022.087-.033.129-.033v-.097h.065c.022-.022.055-.032.098-.032.064-.021.108-.043.131-.065.021-.02.031-.053.031-.098h.034c.042-.021.107-.031.194-.031.021-.022.044-.044.065-.065v-.064c.064-.044.128-.064.193-.064.065-.022.119-.043.162-.065v-.064h.034c.021-.045.063-.066.129-.066.043-.034.108-.053.194-.077v-.063c.065-.045.141-.065.226-.065.044-.022.11-.044.196-.066v-.065h.032c.044-.021.098-.03.162-.03.044-.045.087-.077.131-.099v-.065c.086-.021.162-.031.226-.031.065-.044.131-.076.195-.097v-.065h.065c.043-.021.097-.033.163-.033.064-.021.129-.054.195-.097v-.064c.13-.022.248-.032.357-.032.043-.022.107-.054.193-.098V8.83h.032c.043-.022.098-.031.163-.031.042-.022.109-.045.195-.065v-.098h.033c.021-.021.053-.032.097-.032.064-.022.108-.044.129-.064.022-.044.033-.076.033-.099h.032c.087-.021.161-.031.227-.031h.065v-.066-.096c.064-.021.15-.033.26-.033.042-.021.097-.033.162-.033.021-.021.043-.031.064-.031.022-.022.043-.032.066-.032v-.068h.063c.022-.022.043-.044.066-.066.151-.021.314-.042.486-.065.043-.064.076-.106.097-.128.216-.022.442-.044.682-.065.021-.064.043-.109.064-.131.108-.021.217-.043.325-.063 0-.023.011-.035.032-.035zm-.843 9.567v.065l-.033.031v.032c-.021 0-.032.013-.032.034v.032h-.065v.064c-.022 0-.033.012-.033.032v.033l-.033.031v.065l-.032.065v.064h-.033v.032c-.021 0-.032.011-.032.033v.064l-.064.038v.063h-.032v.13h-.032v.227h-.033v.066c-.022 0-.032.011-.032.032v.162c-.043 0-.066.012-.066.032v.163h-.032v.356l.032.032v.647h-.615v-.03h-.033v-.097l-.032-.032v-.066h-.032v-.032l-.034-.063v-.065h-.031v-.064l-.066-.064v-.065l-.032-.033v-.162l-.033-.031v-.194l-.032-.032v-.034-.129-.097-.13-.099-.129-.065-.098-.064-.064-.13-.064-.097-.098h-.032l-.065.033c0 .021-.012.031-.032.031l-.13.163v.032l-.162.163v.031l-.033.032v.064l-.064.065v.033l-.033.032v.066l-.031.063v.162l-.032.066v.26l.032.032v.194l.031.031v.131l.033.031v.066l.064.032v.064l.033.033v.031l.064.065v.063h.032l.13.099v.032h.031l.131.129h.032v.033h.032l.033.031h.032l.066.034h.031v.064h.034l.032.033h.032l.033.031h.097v.033h.065v.032h.033l.063.063h.228v.035h.032v.031h.032v.031h.033v.032h.032v.033h.164l.032.065h.097l.033.031h.098v.033h.097l.033.033h.032l.033.031h.551v.065h.389V20.4h.099v-.031h.355v-.033h.098v-.033h.13v-.031h.129v-.065h.098v-.033h.032v-.032h.097l.032-.031h.066v-.031h.13v-.035h.097l.065-.063h.065v-.032h.065l.031-.033h.098v-.031l.065-.098h.098l.096-.099h.034c0-.022.01-.032.031-.032l.064-.031h.066v-.065c.021 0 .032-.011.032-.032h.129v-.032l.065-.066h.064c0-.042.021-.063.065-.063 0-.022.012-.033.032-.033l.032-.032h.032l.032-.031h.066l.031-.033v-.064c0-.021.012-.032.032-.032v-.033h.032v-.033c0-.022.012-.031.034-.031v-.162h.032v-.034l.065-.033v-.063h.032v-.034c0-.022.01-.031.032-.031v-.032c0-.023.011-.034.032-.034v-.033l.033-.063c0-.022.021-.033.064-.033v-.064h.032v-.23c0-.021-.01-.032-.032-.032v-.097l-.064-.032v-.065c0-.043-.011-.065-.033-.065v-.064l-.032-.032v-.033l-.032-.033v-.064l-.032-.033v-.032l-.065-.032v-.032l-.161-.195v-.032l-.066-.064h-.032l-.032-.032v-.034h-.032l-.098-.063h-.064l-.065-.098c-.022-.021-.054-.032-.097-.032h-3.146c-.021 0-.033.011-.033.032.001.02-.01.029-.031.029zm-.681 2.888c0-.021.012-.044.032-.064h.163c-.088.02-.152.043-.195.064zm-16.768-.584c.001-.022.012-.044.032-.065.023-.021.033-.044.033-.064h-.065v.129z"/></svg>