<svg xmlns="http://www.w3.org/2000/svg" width="98" height="32"><path fill-rule="evenodd" clip-rule="evenodd" fill="#FFF" d="M96.885 14.225V15.34h-3.756v.113h-.446v-.113H87.7V15.676h-.186v-.074h-.149v-.037V15.454v-.113h-.52v.113h-.186v-.113h-.52V15.677H85.804v.037h-.186v-.037-.149-.112-.148-.075h-8.814c-.024 0-.037-.012-.037-.037-.024 0-.037-.013-.037-.037h-.185v.26h-.335c-4.462 0-8.925-.012-13.387-.038v.41c-.024 0-.049.012-.074.037v.596h.111v.333h-.111l-.037.038h-.038c0 .024-.012.037-.038.037v-.037c.025 0 .038-.013.038-.038h-.446v.075h-.372v-.335h-.706v.298h-.334v-.298h-.483v.26h-.372v-.26h-.559v.26h-.371v-.26h-.483v.26h-.372v-.26h-.559v.26h-.333v-.26H56.838v.335h-.334v-.335h-.559v.26h-.333v-.26h-.483v.26h-.41v-.26h-.521v.26h-.409v-.26h-.521v.223h-.333v-.223h-.522v.26h-.334v-.26h-.483v.26h-.335v-.26h-.558v.223h-.409v-.223h-.483v.26h-.334v-.26h-.633v.26h-1.152v-.26h-.41v.112l-.037.037v.037l-.038.037v.075c0 .024-.012.037-.038.037-.025 0-.037.012-.037.037H46.798c-.075.025-.149.038-.223.038-.025.024-.063.037-.112.037l-.037.037c-.024.025-.061.037-.112.037l-.037.038h-.037c-.074.024-.148.037-.223.037-.05 0-.1.012-.149.036l-.037.037v.037c-.025 0-.05.013-.074.039l-.075.037c0 .024-.012.037-.037.037l-.074.074h-.037c0 .024-.013.037-.038.037v.074l-.037.037h-.039v1.896l.112.11h.037c.024 0 .049.014.074.039.024 0 .037.012.037.037l.038.037c.024 0 .037.012.037.037v.706h-.037c0 .024-.013.038-.038.038v.037h-.297v.111H45.16V28.507h.074v.223h-6.731v-.074-.074-.15V28.321 28.21v-.075h-.036v-.038h-.297v-.446c.024 0 .049-.013.074-.038v-.223-.223-.224-.223-.222-.186-.261-.186-.223-.224-.186-.26-.185-.224-.224-.222-.222-.225-.186-.26-.186-.223-.223-.187-.261-.186-.186h-.446c-.025 0-.05.013-.075.038-.025 0-.038.013-.038.038h-.037c-.024 0-.061.012-.111.036-.05 0-.1.012-.148.038v.148c-1.587.025-3.173.038-4.76.038h-.373v.186l-.074.074v.038l-.038.037v.038h-.037l-.036.038v.074h-.038c0 .024-.012.037-.037.037v.074c-.024 0-.038.012-.038.038v.074h-.037l-.075.075v.037c-.024 0-.036.012-.036.037V23h-.038v.075h-.037v.036c-.024 0-.037.013-.037.037v.039h-.075v.074h.037v.111l.038.037v.038c.024 0 .037.012.037.036v.038h.037v.037c.025 0 .038.012.038.037v.446c-.025.025-.049.037-.075.037h-.557l-.038.037v.075c-.024 0-.037.013-.037.038v.037c0 .024-.012.037-.037.037l-.037.036v.039h-.038v.038c0 .024-.012.037-.037.037v.037l-.037.036v.038h-.037v.037h-.037v.073l-.037.038v.037h-.036v.038c0 .025-.013.036-.037.036v.038h-.038v.037c0 .025-.012.038-.038.038 0 .024-.012.037-.037.037v.076h-.038v.185c0 .025-.012.038-.037.038 0 .026-.013.038-.038.038v.037c-.024.024-.049.037-.074.037v.074h-.037v.075l-.037.038v.037c0 .025-.013.037-.038.037v.037c0 .024-.012.037-.037.037v.039l-.037.036c0 .025-.012.038-.037.038v.111c0 .025-.013.038-.037.038l-.039.037c0 .024-.011.037-.036.037v.037l-.038.038v.037h-.036v.038c-.026.024-.051.038-.076.038v.037l-.037.038c0 .024-.013.037-.037.037v.038c0 .024-.012.037-.037.037v.037c0 .024-.012.037-.038.037v.111c-.024 0-.037.012-.037.037v.038h-.038l.038.036v.037c.024 0 .037.013.037.039v.037h.038v.483l-.038.038c0 .024-.013.037-.037.037v.037h-.038v.067l-.038.037v.075l-.037.038h-.074v.037h-.559c-.023-.024-.061-.037-.111-.037-.025 0-.05-.013-.075-.038-.024-.025-.049-.038-.073-.038-.025-.025-.063-.037-.112-.037-.074-.024-.137-.037-.186-.037v-.037c-.075-.024-.149-.037-.223-.037-.074-.025-.137-.037-.186-.037h-.148c-.05-.026-.087-.037-.111-.037-.075-.025-.15-.038-.224-.038-.024-.025-.062-.038-.111-.038-.025 0-.062-.011-.112-.037-.05-.024-.086-.038-.11-.038-.051-.024-.101-.037-.149-.037-.025 0-.051-.013-.075-.039-.075-.024-.137-.036-.186-.036-.049-.025-.099-.038-.148-.038h-.112v-.037c-.05-.025-.1-.037-.148-.037-.05-.024-.087-.038-.113-.038-.049 0-.098-.012-.148-.037-.049-.024-.1-.036-.149-.036-.024-.026-.062-.038-.111-.038-.049-.025-.1-.037-.15-.037-.074 0-.124-.012-.148-.039-.024-.024-.049-.037-.074-.037-.049-.024-.087-.036-.111-.036h-.15c-.073-.026-.135-.038-.186-.038l-.036-.037v-.447h.036v-.148c.025 0 .038-.012.038-.037h.038c0-.025.012-.038.038-.038V25.9l.037-.037v-.037c.024-.025.049-.038.074-.038v-.111h.037v-.037h.075v-.074h.037v-.038c.025-.024.05-.038.074-.038v-.075h.037c.025 0 .037-.012.037-.037v-.037h.038v-.074h.037v-.074c.024 0 .037-.013.037-.038v-.036h.037v-.038c.025-.025.05-.037.075-.037v-.076h.038c0-.024.012-.037.037-.037l.037-.038v-.033l.038-.038c0-.024.013-.036.037-.036v-.149c.025 0 .037-.012.037-.037v-.038h.075v-.074l.074-.074v-.076c.026 0 .037-.011.037-.036.025 0 .038-.013.038-.037h.036c0-.024.013-.037.038-.037v-.112l.075-.074v-.037l.074-.074c.025 0 .037-.013.037-.037v-.038h.076v-.075l.037-.037v-.076l.038-.037v-.074h.037v-.037h.038l.074-.038v-.074l.037-.037v-.074h.037v-.037c.025 0 .037-.012.037-.037v-.037h.037l.038-.039v-.073h.037v-.15h.038l.037-.037v-.075H27.241V22.7h.036c0-.024.013-.037.037-.037v-.111h.037v-.037l.037-.038h.038v-.075c0-.024.012-.038.037-.038v-.111l.036-.037c0-.024.014-.037.039-.037v-.074h.075v-.074h.073c0-.024.013-.038.038-.038v-.038c.024 0 .037-.012.037-.037v-.111l.038-.038h.036l.075-.074v-.074h.075c0-.025.012-.038.037-.038v-.075h.037v-.036l.037-.038v-.037h.037c.025 0 .038-.012.038-.037v-.038l.037-.036c0-.026.013-.038.038-.038v-.073h.038v-.037l.036-.037c.025 0 .037-.014.037-.039h.038v-.037l.038-.037v-.075h.037v-.143h.037v-.038l.037-.037c.025 0 .038-.013.038-.037h.037l.074-.075v-.038c.025 0 .038-.013.038-.037v-.037h.038v-.075c.024 0 .037-.013.037-.038l.037-.037v-.037l.039-.038v-.037h.037l.037-.039c0-.024.013-.037.037-.037l.037-.037v-.038c.025-.024.049-.036.075-.036v-.038h.074v-.112h.038v-.112l.037-.037v-.074h.037c0-.025.013-.037.037-.037v-.298h.038v-.144l-.038-.038v-.148c-.024-.025-.05-.037-.074-.037v-.037c0-.025-.012-.037-.037-.037v-.037l-.038-.038c0-.024-.012-.038-.037-.038v-.037l-.038-.037h-.037l-.112-.074v-.038h-.045c-.025-.024-.05-.037-.075-.037l-.037-.037v-.075c-.025-.024-.062-.036-.112-.036l-.037-.038c0-.025-.013-.038-.038-.038-.024-.024-.049-.037-.075-.037 0-.024-.012-.037-.037-.037h-.037v-.036c0-.026-.013-.038-.037-.038-.026 0-.038-.012-.038-.037-.025-.024-.049-.037-.075-.037-1.189-.025-2.367-.038-3.532-.038v-.037c-.025 0-.038-.013-.038-.038v-.037c0-.024-.013-.037-.037-.037l-.148-.148c-.024 0-.049-.013-.074-.038H24.371c0-.025-.012-.038-.037-.038h-.112v.038H23.106v-.074c-.769 0-1.537.013-2.305.037-.025.025-.05.038-.075.038H20.131l-.074.074c-.024 0-.038.013-.038.038-.024 0-.036.012-.036.036h-.038c0 .025-.012.038-.037.038h-.037v.037l-.038.037c0 .025-.012.038-.036.038 0 .025-.013.037-.039.037v.038l-.036.037c0 .025-.012.037-.038.037v.074h-.074l-.039.037h-.031v.037l-.038.038c-.024 0-.037.012-.037.038-.025 0-.037.012-.037.036h-.037c-.025.025-.05.037-.075.037v.038c-.024 0-.037.012-.037.037h-.036v.037c-.026.026-.05.038-.076.038h-.074c-.025 0-.037.012-.037.037h-.037v.074l-.037.037v.038c0 .025-.013.038-.038.038v.037c-.025 0-.037.012-.037.037-.025 0-.038.013-.038.038h-.037c0 .024-.013.037-.037.037v.037c-.026 0-.038.013-.038.038h-.037v.074c-.024 0-.036.013-.036.038l-.075.074v.037c0 .025-.012.037-.038.037h-.037c-.024 0-.037.013-.037.038h-.037c0 .024-.013.037-.037.037v.037c-.025 0-.038.012-.038.038-.024 0-.037.011-.037.035h-.037v.039l-.037.037v.037c-.025 0-.038.012-.038.037h-.074v.036c-.025 0-.037.014-.037.038v.037h-.038v.039h-.037c0 .023-.012.037-.038.037-.024 0-.049.012-.074.037H17.9v.037c0 .025-.013.037-.037.037v.038h-.038v.038l-.036.036v.034l-.039.037c0 .025.013.05.039.075v.037c-.025.025-.039.05-.039.075s.013.037.039.037V21.254c-.025.025-.051.05-.075.074v.075h-.074v.075c-.025.024-.049.049-.074.074-.025.025-.05.037-.074.037 0 .025-.013.038-.038.038s-.062.012-.111.037h-.075c-.024-.025-.049-.037-.074-.037-.024 0-.037-.013-.037-.038H6.111v-.039h-.074v-.074h-.033c0-.026-.013-.038-.038-.038v-.148h-.11v-.038-.223c-.084-.024-.159-.037-.224-.037V20.88 20.77v-.074H3.513V23.484h-.372v-.036c-.322-.025-.669-.038-1.042-.038v.26c-.025.026-.049.038-.075.038v.372h-.593c.024.001.036.013.036.037l.037.037h-.148l-.038.036H.686v-.038-.111-.186-.149-.111-.074-.112-.111-.111-.111-.113-.111-.111-.112-.111-.075-.148-.111h.186v-.298c0-.024.013-.036.037-.036v-.038-.223-.186-.223-.224-.223-.223-.186-.261-.186-.223-.223-.224-.223-.186-.223-.223-.223-.223-.224-.186-.26-.186-.224-.223-.186-.261-.186-.223-.223-.224-.222H.872v-.038l-.038-.037c-.025-.024-.037-.05-.037-.074v-.075V14.743v-.075-.073V14.482 14.369v-.073-.075-.075-.148-.074-.075-.075V13.662v-.074-.149H.723c-.025 0-.037-.013-.037-.038v-.186-.335H.499v-.335h.818v.037h.781v.335h-.111l.036.037H3.4v.261h.111V16.267h2.343v-.223-.223-.223-.148H9.497v-.15-.148-.112-.148-.149-.111-.186H6.671v-.075h-.372v-.445c-.025 0-.037-.013-.037-.039v-.297h-.034v-.037-.186-.111-.187-.148-.187-.148-.186-.112-.185-.187-.149-.186-.148-.149-.149-.187-.147-.186c-.025 0-.038-.013-.038-.038v-.334c0-.024.012-.037.038-.037v-.146h.147v-.149c.05 0 .1-.013.149-.038V9.8c.075 0 .149-.012.223-.038.025 0 .038-.013.038-.038h10.04c.446-.025.893-.037 1.339-.037h.036v-.036c.248.025.508.037.782.037.222.024.433.037.632.037h1.338v.038h.299l.036.037h.037l.038.038c0 .024.013.036.037.036v.484c-.024 0-.037.012-.037.037h-.038v.075l-.037.037v.074c-.024 0-.036.012-.036.038l-.037.037c0 .024-.013.038-.039.038 0 .024-.012.036-.037.036l-.073.075v.037l-.076.073v.037l-.149.149h-.037v.076l-.075.036v.038l-.074.111h-.037v.037l-.074.075v.037l-.112.074v.039c-.025 0-.037.012-.037.037v.036c0 .025-.013.038-.037.038v.075h-.076c0 .023-.013.037-.036.037 0 .024-.012.037-.038.037l-.036.037h-.075v.075c-.025 0-.037.013-.037.037v.037h-.038v.112c-.024 0-.036.013-.036.037l-.075.074h-.037v.038c-.025 0-.038.012-.038.038l-.035.034c0 .025-.013.037-.039.037v.037c-.024 0-.036.013-.036.037l-.075.111h-.036v.038l-.075.074v.037h-.038v.075c-.024 0-.037.013-.037.038v.037h-.037c0 .024-.013.037-.037.037h-.038c-.025 0-.037.012-.037.038l-.037.037v.037h-.036l-.039.037v.037h-.038c0 .024-.012.037-.037.037l-.074.076h-.037v.037l-.037.036v.038h-.038v.037l-.037.038v.038l-.074.074h-.037l-.076.074c-.024 0-.036.012-.036.037h-.072l-.112.149h-.037v.038c-.025 0-.037.012-.037.036v.039h-.112l-.037.036c0 .025-.013.038-.038.038l-.037.033h-.074c0 .025-.013.038-.038.038-.025.025-.048.038-.074.038l-.036.036v.038h-.076c0 .025-.013.037-.037.037l-.074.075h-.039v.036c-.025.025-.049.037-.074.037h-.149v.039h-4.053v.11l-.037.038v.111l-.112.075v.707h4.611c0-.025.012-.039.038-.039v-.037c.024 0 .036-.012.036-.038h.038c.024 0 .049-.012.074-.037.024 0 .037-.012.037-.036h.039c0-.025.013-.038.037-.038v-.037c.025 0 .038-.012.038-.037.024 0 .037-.013.037-.037h.037c0-.025.013-.037.037-.037h.038l.074-.075h.037c0-.024.012-.037.037-.037v-.074c.025 0 .038-.013.038-.039v-.037c0-.024.012-.037.037-.037v-.037h.038c.024 0 .036-.013.036-.038l.038-.038v-.073c.025 0 .038-.014.038-.038h.037c.025-.026.049-.038.074-.038v-.037c.024 0 .049-.013.075-.037v-.037c0-.026.013-.039.037-.039v-.037l.037-.036h.037c0-.025.012-.037.037-.037v-.075c.025 0 .037-.012.037-.038h.038v-.074c.025 0 .039-.012.039-.038h.036l.037-.037v-.038c0-.024.012-.036.037-.036v-.075h.038l.037-.038c.024-.024.049-.037.073-.037v-.037l.038-.038h.036c0-.023.013-.037.039-.037h.036c.025 0 .038-.013.038-.037s.013-.037.038-.037v-.037h.036c0-.025.013-.038.039-.038v-.074c.024 0 .036-.013.036-.038.026 0 .038-.012.038-.037l.037-.038h.075v-.036l.036-.037v-.076c.025 0 .038-.013.038-.037.024 0 .037-.013.037-.037v-.111h.037l.038-.038c0-.025.012-.037.036-.037v-.037c.026 0 .038-.012.038-.038h.036v-.037l.037-.038v-.037c.025 0 .039-.012.039-.037l.037-.037h.037v-.038h.037c.025 0 .037-.012.037-.037l.077-.074v-.037c.024 0 .036-.013.036-.037.024 0 .037-.012.037-.037h.037c0-.025.013-.037.038-.037v-.075h.038c0-.025.012-.038.037-.038 0-.024.013-.037.037-.037.025 0 .038-.012.038-.037.024 0 .037-.012.037-.037h.037c0-.025.012-.037.038-.037v-.075c.025 0 .038-.013.038-.037.025 0 .038-.013.038-.038v-.037c.023 0 .036-.012.036-.037.024 0 .037-.012.037-.037h.037c.025-.026.05-.037.076-.037v-.029l.036-.036v-.038h.037c0-.024.012-.036.038-.036 0-.025.013-.037.037-.037v-.039h.038v-.11c.024 0 .037-.013.037-.038h.224v-.038H24.344v-.037h.037v-.038l.037-.037v-.036l.038-.038h.075v-.036c0-.025.013-.051.037-.076 0-.024.012-.05.037-.073v-.076-.147-.075-.074-.075c.025-.025.05-.049.075-.074H24.792v-.186c.025 0 .038-.012.038-.037.049-.025.086-.038.111-.038h1.711V9.8H25.016v-.707H27.321c0-.025.012-.037.037-.037l.037-.037c.025 0 .038-.013.038-.038v-.037h.037c.023-.024.062-.038.111-.038l.038-.036h.036c0-.025.013-.039.037-.039h.559c.024 0 .049.013.074.039h.037c.025.024.05.036.076.036v.038h.037l.037.075c0 .024.012.037.037.037v.334h2.417v.074h.075v.746h3.458v-.149-.222-.224-.186-.261-.186-.223-.223-.187-.259-.186-.224-.222h-.745c0 .024-.012.036-.037.036l-.047.038h-.037c-.049.024-.101.037-.149.037h-.037c0 .024-.013.037-.037.037s-.038.013-.038.038v.036h-.037v.038c-.025 0-.037.012-.037.037-.024.024-.05.036-.075.036l-.037.038c-.026 0-.037.012-.037.037h-.112L33 7.904h-.148c-2.157-.026-4.314-.039-6.47-.039v.039c-.076-.026-.161-.039-.261-.039h-.075v-.371-.186-.223V6.9v-.187-.187-.222-.149-.222-.187-.148-.223-.187-.186-.186-.186h.446l.037.037c2.207 0 4.389.013 6.544.037v.074h.187v.037h.075l.037.037c.025.025.062.037.112.037l.074.039h.037c.05.024.099.037.148.037v.075h.076c0 .025.012.038.037.038s.037.011.037.037c.024 0 .037.013.037.038h.559v-.075-.224-.223-.224h2.714v.372h-.038V5.114H39.1v-.335h.074v-.111h.52v-.037c-.024 0-.049-.012-.073-.037v-.483l.036-.038v-.037l.037-.037V3.85c.1.025.199.037.299.037V3.85v-.11-.075-.111-.151l.036-.037v-.297h1.488v.187h.186v.52c-.025 0-.037.013-.037.038V4h.223v.669h.559v.223h.036v.039h.037v.037l.038.037v.035l.037.038v.037h1.339v-.224-.111h-.038v-.335H46.576v.632H48.695c0-.024.013-.038.039-.038.024 0 .062-.012.111-.037v-.036c.025-.025.049-.037.074-.037.025 0 .038-.014.038-.039h.223c.024-.024.061-.037.111-.037.05-.024.1-.037.149-.037h.075c.024 0 .05-.012.074-.037h.037l.038-.037h.074c.026-.025.05-.037.075-.037l.037-.037h.186c.025 0 .062-.013.112-.037.049-.024.086-.037.111-.037h.038c0-.025.012-.038.037-.038h.186V4.52h.038c.024-.024.049-.037.074-.037l.037-.037h.112c.049 0 .098-.012.148-.038h.038c.049-.025.11-.038.187-.038h.037c.024-.024.062-.037.111-.037.025 0 .062-.012.112-.037h.037c.024-.025.062-.038.111-.038.075-.024.125-.037.149-.037l.037-.038H52.12c.026-.024.062-.037.111-.037h.038c.049-.024.087-.036.111-.036.074 0 .149-.013.224-.038v-.036h.037c.024-.024.049-.037.074-.037v-.038h.261c.074 0 .136-.012.186-.037h.037c.048-.024.111-.038.186-.038h.037c.024-.024.074-.037.149-.037h.148c.075-.024.148-.036.223-.036.074-.025.136-.038.185-.038l.037-.036H54.388c.025 0 .037-.013.037-.039l.037-.037v-.074h.037v-.036h.334v.148c1.884-.024 3.781-.037 5.689-.037h.558V8.906h-.373v-.035h-6.325c-.075-.025-.149-.039-.224-.039-.024 0-.037-.012-.037-.037-.049-.024-.111-.037-.185-.037h-.075c-.073 0-.136-.013-.187-.038v-.036c-.024-.025-.061-.038-.11-.038-.05-.024-.099-.036-.149-.036l-.037-.038c-.075-.025-.148-.037-.223-.037l-.074-.038c-.026 0-.05-.012-.074-.037-.051-.024-.1-.037-.15-.037h-.149c-.024-.025-.061-.038-.11-.038-.025 0-.062-.013-.112-.038s-.086-.037-.111-.037c-.049-.025-.1-.037-.149-.037s-.098-.012-.148-.037v-.035c-.05-.025-.087-.039-.111-.039-.05-.024-.112-.036-.186-.036-.049 0-.099-.013-.148-.037-.051-.025-.087-.038-.112-.038h-.185c-.026 0-.076-.012-.149-.037-.076-.025-.149-.039-.223-.039-.027-.023-.066-.035-.114-.035-.05-.024-.099-.036-.149-.036-.051 0-.086-.014-.112-.039-.049-.024-.086-.037-.111-.037h-.038c-.049-.025-.098-.038-.148-.038v-.035h-.076v-.037h-.073c-.05-.025-.087-.038-.112-.038-.049 0-.085-.012-.111-.037-.05-.024-.099-.038-.149-.038-.05-.025-.099-.037-.148-.037-.049-.026-.111-.037-.186-.037h-2.752v.037h-.147v.371c.024.075.037.149.037.222V9.688c0 .075-.013.137-.037.186v.335h14.725v-.038-.075V9.985 9.874v-.149V9.613v-.075-.074-.074l-.037-.037v-.595h.186v-.074h2.565v.036h.298c.025 0 .049.013.075.038h.037v.037l.037.037c.025 0 .05.013.073.039v.036h.039l.038.038c.049 0 .074.013.074.037v.038h.036c0 .024.013.037.039.037.024 0 .062.012.111.037V8.72h.074v-.036h.93l.037.036v.038h.074v.148h.039v.038l.036.037c.025 0 .037.012.037.038v.074h.037v.074h.037v.075c.025 0 .039.012.039.037v.075h.036v.037c0 .025.013.037.037.037v.037h.037v.112c.025 0 .038.013.038.037v.149l.034.037v.409h3.012c.024-.025.049-.038.075-.038.024 0 .061.012.111.038h6.62v.26c.173.024.334.037.483.037v.335h-.41v.223c0 .025.013.037.038.037h.26v.112h.036v.371h-.073V13.705h9.111v-.074-.148-.15h.521v.298h.742v-.298h.224v.075l.037.075v.036l.111.112c.025 0 .038.012.038.037.024-.025.049-.025.074 0v-.111-.186-.074h.187v.036h.148v.075c.024 0 .037.013.037.038v.223h4.797v-.223h.409v.223h3.942v.484c-.001.023-.001.048-.001.072zm-33.579-4.016h1.525v-.224h-1.525v.224zM43.895 5.486l.038.037v-.037h-.038zm-3.903 2.269h-.856v-.261H37.24v.038h-.076v.707c0 .074.013.136.038.187v.222c-.024.074-.038.149-.038.224v.223h.076c2.229.025 4.461.037 6.693.037v-.074-.261-.185-.224-.225-.222-.222-.186c-.297-.025-.595-.038-.893-.038h-.558v.261h-1.004v.297c-.471-.025-.967-.037-1.486-.037v-.261zm-6.62 11.266v.149h-.037v.26c-.025.025-.05.038-.075.038 0 .023-.012.035-.037.035v1.413h.037c0 .024.014.037.038.037v.111l.074.076v.074l.038.036c.024 0 .037.012.037.038.025 0 .037.012.037.036l.036.038c.025.025.051.037.075.037h.038v.037l.037.038c.024 0 .049.013.073.036.026.026.05.038.076.038.024.025.049.037.074.037.05 0 .099.013.148.038h3.124c.026-.025.051-.038.076-.038.049 0 .098-.012.148-.037.024-.025.061-.038.111-.038v-.074c.025-.025.05-.037.075-.037h.038v-.109h.036v-.038l.075-.073v-.037c.025-.025.05-.037.075-.037v-.039h.036v-.073-.075-.111V20.695v-.112-.075-.148-.111-.075-.074-.149-.111-.076-.11l-.036-.037v-.298c-.025 0-.037-.012-.037-.037-.025 0-.038-.012-.038-.037h-.038l-.037-.038v-.074c0-.025-.013-.037-.036-.037v-.075l-.075-.074h-1.712v.037c-.024 0-.037.012-.037.037h-.038l-.036.038c-.025 0-.038.012-.038.037-.024 0-.037.012-.037.037h-.037c-.026 0-.05.013-.075.038-.025 0-.038.011-.038.037-.024.024-.049.038-.073.038l-.039.037c-.024 0-.037.012-.037.037h-.038v.038c-.024 0-.037.012-.037.037h-.037v.037l-.073.112c-.026 0-.039.012-.039.037h-.036l-.074.074c-.024 0-.049.011-.075.036v.038l-.038.037v.039l-.037.037v.037l-.074.074v.038l-.037.038v.071l-.038.037v.037l-.036.039v.111c-.025.024-.051.037-.075.037v.149c.024 0 .037.013.037.037.024 0 .038.013.038.038v.223l.036.037v.222h.038v.076c.025 0 .037.012.037.037v.037c0 .024.012.036.038.036.024 0 .037.012.037.038v.186h-.333l-.038-.038v-.037h-.111v-.037h-.038l-.074-.074v-.074l-.038-.037v-.074h-.036v-.039c-.023 0-.037-.012-.037-.037v-.074l-.037-.037v-.149h-.038v-.261l-.037-.037v-.112h-.037v-.037V20.211v-.298V19.802v-.15-.15V19.392v-.149l.037-.038v-.26h-.298v.037H33.41v.037h-.038zm-11.23-7.213c0-.026.014-.039.039-.039v-.036h-.039v.075zm-18.63 5.353V20.102h2.119V19.99 19.878h.224v-.038h-.037v-.707c0-.025.012-.037.038-.037v-.224-.372-.075-.186-.261-.186-.223-.223-.187-.147H3.513c-.001.051-.001.1-.001.149zm11.193 2.679h.074c0-.024-.012-.037-.038-.037l-.036.037z"/></svg>