<svg xmlns="http://www.w3.org/2000/svg" width="32.074" height="32.074"><path opacity=".75" fill="#fff" d="M24.126 13.219c.061-.28.094-.57.094-.868 0-2.229-1.807-4.035-4.035-4.035-.62 0-1.208.14-1.733.391-.47-1.822-2.124-3.168-4.093-3.168-2.334 0-4.226 1.892-4.226 4.226 0 .235.02.464.057.689-.407-.214-.871-.336-1.363-.336-1.623 0-2.939 1.316-2.939 2.939 0 .631.2 1.213.538 1.692-2.385.345-4.218 2.398-4.218 4.879 0 2.723 2.207 4.931 4.931 4.931 1.11 0 2.134-.367 2.957-.985.811.404 1.725.633 2.692.633 1.221 0 2.358-.364 3.308-.987 1.066.942 2.465 1.515 4 1.515 1.639 0 3.124-.653 4.213-1.713 2.431-.304 4.313-2.377 4.313-4.891.001-2.579-1.976-4.693-4.496-4.912zm-8.521 1.612c-.078.318-.405.514-.719.435-1.175-.286-1.924.285-2.27.653-.608.646-.845 1.562-.604 2.332.078.251-.018.524-.236.67-.218.147-.506.133-.709-.034-.335-.276-1.125-.499-1.749-.196-.72.348-.853 1.277-.838 1.994.007.329-.254.6-.582.606h-.012c-.323 0-.588-.258-.594-.582-.041-2.033.929-2.807 1.509-3.088.627-.304 1.329-.319 1.939-.171.045-.846.4-1.694 1.013-2.345.89-.946 2.133-1.308 3.42-.992.316.078.511.4.432.718z"/><g fill="#fff"><path d="M28.658 10.64h2.591v.709h-2.591zM27.961275 9.7352136l1.4452482-1.4637612.5031012.4967382-1.4452482 1.4637612zM28.1748642 12.3479202l.4971624-.502677 1.463238 1.4471856-.4971624.502677zM27.1058576 12.9001968l.6391824-.30444.58953 1.2377388-.6391824.30444zM27.0014946 8.9712136l.7378722-1.1554788.5958596.3805074-.7378722 1.1554788zM18.037 12.013l7.63.004 2.054-1.137-2.164-1.042h-7.521v2.175z"/></g><linearGradient id="a" gradientUnits="userSpaceOnUse" x1="18.0374" y1="10.9091" x2="15.8948" y2="10.9091"><stop offset="0" stop-color="#fff"/><stop offset="1" stop-color="#fff" stop-opacity="0"/></linearGradient><path fill="url(#a)" d="M15.895 9.838h2.143v2.143h-2.143z"/></svg>