<svg xmlns="http://www.w3.org/2000/svg" width="12.333" height="32"><path fill-rule="evenodd" clip-rule="evenodd" fill="#FFF" d="M8.413 6.784l.036.036v.073c0 .025.013.036.036.036v.074h.037v.035c.024 0 .038.013.038.036v.11h.036v.073h.036v.073c.024 0 .037.012.037.035v.11l.036.036v.072l.035.039v.036h.038v.073l.036.036v.037c.025 0 .036.012.036.036v.036l.037.037v.109c0 .023.012.036.036.036v.037h.037v.108h.036v.037l.037.036v.037l.036.035v.074l.037.036v.107l.037.038v.037l.036.035v.037l.071.077v.035c.024 0 .037.014.037.037l.035.037v.182l.038.037v.072l.038.036v.036l.035.037v.037l.037.036v.072h.036v.074c0 .024.013.036.036.036v.108c.025 0 .037.013.037.037v.073c.024 0 .037.013.037.037v.072h.037v.036l.036.037v.036l.037.036v.037l.037.036v.146l.036.037v.072h.037v.108h.037v.073l.036.037v.037l.037.036v.073c.024 0 .036.011.036.035v.073c0 .024.012.037.037.037v.072l.036.036v.037h.038v.036l.036.037v.036l.037.036v.073h.037v.108l.037.036v.037c0 .023.011.036.036.036v.036l.037.037v.109l.072.072v.073l.037.037v.036h.036v.073h.037c0 .023.012.036.036.036v.036l.147.146v.474l.036.035v.074c.023 0 .035.012.035.035l.039.037v.036l.035.036v.036h.037v.075c.024 0 .037.011.037.035l.036.037v.035h.036v.037l.073.073c0 .023.012.036.037.036v.036h.037v.036l.109.146v.255c.024.025.047.036.073.036V27.853h-.109v.035c-.025 0-.037.013-.037.036l-.036.074h-.074v.035l-.042.032v.036h-.037v.072h-.509v-.583l.072-.072c.024 0 .037-.014.037-.037h.036v-.036h.036v-.036h.038v-.183-.146-.218-.22-.219-.218-.219-.184-.219-.218-.219-.182-.219-.22-.219-.181-.219-.219-.22-.181-.22-.218-.22-.219-.219-.218-.219-.182-.219-.219-.22-.182-.219-.218-.22-.182-.219-.218-.219-.183-.256-.218-.219-.182-.22-.218-.218-.184-.219-.22-.218-.182-.22-.218-.218-.183-.219-.219-.219-.218-.22-.218-.22-.218h-.074l-.036-.037v-.036l-.037-.036v-.02h-.036v-.036l-.037-.036v-.036l-.036-.037v-.072l-.037-.037v-.036h-.037v-.073h-.036v-.037l-.037-.036h-.036c0-.025-.012-.037-.037-.037v-.072c0-.025-.013-.036-.037-.036v-.037h-.037v-.073c-.023 0-.036-.012-.036-.035 0-.025-.013-.037-.038-.037v-.037h-.036v-.037l-.037-.074c0-.023-.012-.036-.036-.036v-.036l-.109-.072v-.037h-.034v-.072c-.024 0-.036-.014-.036-.037l-.037-.036v-.037h-.036v-.036c-.024-.024-.047-.036-.072-.036v-.037h-.038v-.036c-.023 0-.037-.013-.037-.037v-.074c-.023 0-.036-.013-.036-.037l-.035-.035v-.036h-.038l-.11-.146v-.036c-.023 0-.035-.013-.035-.036H9.25v17.782l-.146.036c-.048.024-.097.061-.145.109h-.036c-.583.315-1.13.534-1.64.655-.608.194-1.189.316-1.75.364-.51.099-1.008.121-1.493.073-.461-.049-.875-.109-1.239-.182-.801-.17-1.421-.376-1.858-.619-.219-.097-.389-.182-.51-.254-.17-.074-.255-.122-.255-.146l-.109-.036V11.887c-.097-.195-.061-.402.109-.621 0-.023.013-.048.036-.072.074-.023.147-.036.219-.036v-.036c.122-.05.279-.086.473-.109.194-.025.474-.05.839-.073.193-.048.4-.085.62-.109.17-.024.291-.036.363-.036-.024-.219-.024-.389 0-.51.048-.073.086-.134.11-.183l.109-.146V8.351H2.91c-.121 0-.255-.011-.401-.035h-.51v-.511h.036v-.037h.073c-.048-.072-.048-.182 0-.327 0-.073.048-.194.146-.365.072-.169.195-.267.365-.291h4.3l.181.071v.147c.146-.293.328-.547.547-.766v-.035-.073h.11c0-.025.011-.036.036-.036v.036h.364v.401l.037.036v.036h.182v.036l.037.036v.11zm.474 18.074v-.219c-1.967.293-3.341.438-4.118.438-.802 0-2.234-.145-4.3-.438v1.347c2.09.364 3.546.546 4.373.546.873 0 2.224-.17 4.045-.511v-.4V25.512v-.109-.108-.073-.146-.072-.072-.074z"/></svg>