<svg xmlns="http://www.w3.org/2000/svg" viewBox="0 0 32.074 32.074"><defs/><path fill="#fff" d="M24.126 13.219c.061-.28.094-.57.094-.868 0-2.229-1.807-4.035-4.035-4.035-.62 0-1.208.14-1.733.391-.47-1.822-2.124-3.168-4.093-3.168-2.334 0-4.226 1.892-4.226 4.226 0 .235.02.464.057.689a2.9215 2.9215 0 00-1.363-.336c-1.623 0-2.939 1.316-2.939 2.939 0 .631.2 1.213.538 1.692-2.385.345-4.218 2.398-4.218 4.879 0 2.723 2.207 4.931 4.931 4.931 1.11 0 2.134-.367 2.957-.985.811.404 1.725.633 2.692.633 1.221 0 2.358-.364 3.308-.987 1.066.942 2.465 1.515 4 1.515 1.639 0 3.124-.653 4.213-1.713 2.431-.304 4.313-2.377 4.313-4.891.001-2.579-1.976-4.693-4.496-4.912zm-8.521 1.612c-.078.318-.405.514-.719.435-1.175-.286-1.924.285-2.27.653-.608.646-.845 1.562-.604 2.332a.5944.5944 0 01-.236.67.5932.5932 0 01-.709-.034c-.335-.276-1.125-.499-1.749-.196-.72.348-.853 1.277-.838 1.994a.593.593 0 01-.582.606h-.012c-.323 0-.588-.258-.594-.582-.041-2.033.929-2.807 1.509-3.088.627-.304 1.329-.319 1.939-.171.045-.846.4-1.694 1.013-2.345.89-.946 2.133-1.308 3.42-.992.316.078.511.4.432.718z" opacity=".75"/><path fill="#fff" d="M28.658 10.64h2.591v.709h-2.591zm-.6967-.9048l1.4452-1.4637.5031.4967-1.4452 1.4638zm.2136 2.6127l.4971-.5027 1.4633 1.4472-.4972.5027zm-1.069.5523l.6391-.3044.5896 1.2377-.6392.3044zm-.1044-3.929l.7379-1.1555.5958.3805-.7378 1.1555zM18.037 12.013l7.63.004 2.054-1.137-2.164-1.042h-7.521v2.175z"/><linearGradient id="a" x1="18.0374" x2="15.8948" y1="10.9091" y2="10.9091" gradientUnits="userSpaceOnUse"><stop offset="0" stop-color="#fff"/><stop offset="1" stop-color="#fff" stop-opacity="0"/></linearGradient><path fill="url(#a)" d="M15.895 9.838h2.143v2.143h-2.143z"/></svg>
