<svg baseProfile="tiny" xmlns="http://www.w3.org/2000/svg" width="27.969" height="32"><path fill-rule="evenodd" fill="#FFF" d="M.402 17.462c.041-.88.201-1.618.545-2.326.125-.257.166-.586.146-.875-.068-1.024.127-1.986.567-2.907.174-.365.302-.757.511-1.1.323-.529.687-1.036 1.055-1.536.369-.501.724-1.024 1.16-1.463.658-.662 1.354-1.312 2.311-1.52.453-.099.928-.098 1.391-.159.111-.015.27-.068.31-.151.34-.699.976-.982 1.64-1.264.364-.154.713-.378 1.015-.635.525-.448 1.166-.589 1.796-.757.329-.087.677-.119 1.019-.133.832-.034 1.67-.107 2.496-.046 1.403.104 2.824.289 4.063.99 1.018.576 1.984 1.275 2.872 2.038.708.608 1.289 1.357 1.758 2.206.524.949 1.064 1.886 1.405 2.913.271.817.469 1.661.655 2.502.186.841.39 1.688.45 2.542.067.96.011 1.933-.048 2.897-.032.522-.138 1.05-.293 1.549-.121.388-.336.758-.567 1.097-.295.432-.538.874-.737 1.363-.306.752-.577 1.546-1.181 2.137-.402.393-.907.539-1.46.63-.642.106-1.306.311-1.589.975-.394.921-1.152 1.367-2.014 1.694-.864.328-1.724.72-2.623.887-.685.127-1.383.22-2.069.368-.543.117-1.056.048-1.581-.165-.742-.301-1.551-.275-2.337-.327-.209-.014-.425.078-.639.12-.716.143-1.403.016-2.074-.234-.575-.214-1.162-.403-1.715-.663-.535-.252-1.052-.552-1.542-.884-.561-.379-.884-.944-.909-1.623-.022-.598-.149-1.106-.697-1.439-.088-.053-.158-.174-.188-.277-.23-.792-.737-1.407-1.248-2.027-.584-.707-.93-1.546-1.241-2.397-.124-.34-.228-.692-.299-1.046-.069-.346-.085-.701-.114-.954z"/></svg>