<svg xmlns="http://www.w3.org/2000/svg" viewBox="0 0 99.75 32"><defs/><path fill="#FFF" fill-rule="evenodd" d="M37.502 4.18c.024-.024.037-.048.037-.074.024-.025.038-.05.038-.075.024-.026.037-.051.037-.075h.186v-.037h2.351c.05.024.087.037.112.037.025.024.049.062.074.112l.038.038c.025.026.037.049.037.074v.149c-.024.025-.037.051-.037.075-.026.025-.038.05-.038.076-.025 0-.037.012-.037.037v.97h.037c.025 0 .038.012.038.037.025.049.037.087.037.112s-.012.05-.037.074c0 .025-.013.049-.038.075l-.037.038V6.83c-.025.024-.037.049-.037.075v.036h7.687c.025 0 .05.013.076.038 0-.025.012-.038.037-.038.124-.025.223-.048.299-.074.049-.026.11-.038.186-.038.099-.025.174-.05.223-.075.075-.024.138-.049.187-.074.075-.025.162-.05.261-.075.05-.025.112-.049.187-.074.05-.025.125-.05.224-.075.076-.025.125-.05.15-.075.074-.025.15-.038.224-.038 0-.025.012-.05.037-.073.025-.026.051-.051.077-.076.049-.025.086-.038.111-.038.025-.025.05-.062.076-.111.074 0 .123-.013.147-.037.05-.025.112-.038.188-.038a.6016.6016 0 00.148-.112c.025-.024.05-.037.075-.037.024 0 .05-.013.074-.038h.038v-.075c.025-.024.048-.049.074-.074l.075-.075h.112v-.036h1.641v-.036h.561v.037h.335c.024 0 .037-.012.037-.037h.523l.037.037h1.942c.049 0 .099.013.148.038l.037.075c.05.025.1.05.149.074.025.025.05.049.075.075l.037.038c.025.024.038.049.038.074v.075c0 .024-.013.05-.038.074 0 .025-.012.05-.037.075v.037c-.025 0-.05.013-.075.038 0 .05-.013.087-.037.112v4.4h42.39c.074.024.149.049.224.074.05.024.087.049.112.075v.037c.049.024.087.061.112.112.025.024.05.063.075.112l.036.075v.336c0 .023-.012.061-.036.111 0 .025-.013.063-.038.112-.024.024-.05.062-.074.113v.971c0 .025-.013.05-.038.075-.025.025-.037.062-.037.112-.025.024-.062.062-.112.11-.075.025-.15.05-.224.076h-.448a3.5101 3.5101 0 00-.261-.076c-7.986-.024-15.971-.049-23.957-.074v.411l.037.037v3.509c-.024 0-.049.012-.074.037h-.038v1.343c-.026.049-.05.087-.076.112 0 .051-.013.087-.037.113-.025 0-.049.024-.075.073-.024 0-.037.013-.037.038 0 .026.013.051.037.075.026.025.039.062.039.112 0 .025-.013.05-.039.075 0 .025-.012.05-.037.075v3.061c.05 0 .087.013.112.037.024.05.05.087.074.112l.039.074v.074h.038c.024.05.049.088.074.113v.224c-.024.024-.049.061-.074.11v.636h-.038v.037h.038c0 .024.012.037.037.037h.037c.026.025.075.05.148.075.025.024.05.037.076.037 0 .025.012.05.037.074.025.026.038.05.038.075v.075c0 .025.012.062.037.11v.039c0 .025.012.05.038.075v.074c0 .024.013.051.038.075.024.025.037.05.037.075.024 0 .037.011.037.036.025.025.037.063.037.113.025.024.038.049.038.073.025.026.05.051.074.076 0 .025.014.037.038.037v.075c0 .025.013.049.037.076v.073c.025.025.039.063.039.113.024 0 .038.012.038.036 0 .026.012.051.037.076v.073c.025.026.037.051.037.076s.012.05.038.075l.037.037c.024.025.037.063.037.113 0 .024.013.05.038.074v.075c0 .024.013.038.038.038v.074c.024.023.037.05.037.074.025.024.038.049.038.074 0 .026.012.063.037.113l.038.037c0 .025.013.05.038.075 0 .024.013.051.037.075.024.025.038.049.038.074.024.025.037.05.037.075v.113c.025.049.037.086.037.111.05.025.087.05.111.076.024.024.049.037.075.037v.074c.026.025.051.051.075.075v.075c.026.024.062.05.111.074.026.025.052.038.076.038.024.025.049.05.074.075 0 .024.012.05.037.074.026.025.051.05.076.075v.449c-.025 0-.039.012-.039.038-.024.024-.037.049-.037.074h.076c0 .05.011.087.037.112 0 .025.013.05.038.075l.037.036v.076c-.024.025-.05.051-.074.075v.075c-.025.025-.037.049-.037.074 0 .025-.013.049-.039.074-.024.025-.049.049-.074.074v.075c-.025.025-.049.051-.074.075 0 .025-.012.049-.037.075-.025 0-.051.012-.076.038v.186c-.025.024-.038.049-.038.075v.037c0 .025-.011.05-.037.075-.024.025-.049.037-.075.037a.328.328 0 01-.149.037h-2.015c-.05-.024-.099-.037-.148-.037-.026-.024-.05-.049-.076-.075-.024-.025-.038-.05-.038-.074V27.358c0-.025.013-.051.038-.075.026-.025.05-.062.076-.112v-.15c.023-.024.036-.05.036-.074l.037-.037c.025 0 .05-.012.075-.038.025 0 .063-.013.112-.038.049 0 .087-.012.112-.037h.037l-.037-.037v-.187c-.025-.024-.037-.049-.037-.073-.025-.027-.037-.051-.037-.075v-.075c-.025-.024-.038-.05-.038-.075-.025-.024-.049-.048-.075-.074 0-.025-.012-.05-.038-.074 0-.025-.012-.05-.038-.075-.024 0-.049-.012-.074-.038v-.262l-.036-.036c-.026-.025-.039-.05-.039-.075a1.3264 1.3264 0 00-.075-.075v-.149l-.037-.037c-.025-.05-.036-.087-.036-.113-.026-.024-.038-.049-.038-.074-.025-.025-.037-.049-.037-.074 0-.026-.014-.051-.039-.075v-.038c0-.025-.013-.05-.037-.075 0-.024-.012-.049-.037-.073-.025-.051-.038-.088-.038-.113l-.037-.037c-.025-.025-.037-.049-.037-.075v-.075c0-.024-.013-.049-.038-.074 0-.024-.012-.05-.037-.076-.025-.024-.052-.036-.075-.036v-.188c.023-.024.037-.049.037-.074l.038-.038c-.598 0-1.207.012-1.83.038-.049.024-.112.05-.186.074h-.262c-.049-.024-.087-.037-.112-.037h-.037c-.026 0-.062.013-.112.037-.075-.024-.149-.049-.225-.074 0-.052-.025-.077-.075-.077V22.768c.024-.051.037-.088.037-.114 0-.024-.013-.061-.037-.11v-.113c.024-.024.05-.049.075-.074 0-.025.013-.049.039-.074.049-.025.098-.062.148-.112.05-.024.1-.049.149-.074.199 0 .386-.013.56-.038V21.498c.024-.025.036-.062.036-.111h-.596a.3296.3296 0 00-.149-.038c-.05-.024-.1-.063-.148-.111 0-.025-.014-.037-.039-.037 0-.05-.025-.089-.075-.114v-.745c.024-.025.05-.05.075-.075v-.039c0-.049-.025-.087-.075-.112v-.298c.024-.05.05-.086.075-.111 0-.051.013-.075.039-.075h.186v-.038h.522l-.037-.037V17.203c-.026.025-.051.037-.075.037-.1-.024-.187-.05-.262-.075-.025-.05-.05-.086-.074-.112v-.037h-.037c-.05-.05-.088-.074-.112-.074a.2432.2432 0 00-.111-.113v-.223h-.039v-.784c-.025-.049-.05-.087-.075-.112v-.112c-7.787 0-15.573-.012-23.359-.038a.3431.3431 0 00-.149-.036l-.037.036c0 .026-.013.063-.039.112-.023.024-.048.062-.074.112a.2436.2436 0 00-.111.111c-.05.026-.088.052-.113.076-.024.024-.049.061-.074.11-.025.026-.05.063-.074.112-.025.05-.05.075-.076.075-.024.051-.05.087-.075.112-.025.05-.048.086-.074.112a.2387.2387 0 01-.113.111 9.17 9.17 0 01-.111.112c0 .025-.012.063-.038.111-.024.025-.038.063-.038.113-.024 0-.049.024-.074.074a.2528.2528 0 00-.112.112c-.05.049-.087.087-.112.111-.024.025-.05.05-.074.075a.4322.4322 0 01-.075.112c-.025.05-.049.087-.075.112l-.036.074c-.05.051-.087.101-.112.151-.025.024-.05.061-.074.111-.025.026-.05.051-.076.075 0 .024-.012.062-.038.111-.024.026-.063.063-.111.112-.025.05-.038.087-.038.113-.024.025-.049.049-.075.075-.024.049-.037.086-.037.111-.049.051-.087.088-.111.112-.051.024-.087.063-.113.111-.024.025-.049.063-.075.112-.025.025-.038.062-.038.112-.025.025-.05.05-.074.075-.025.025-.037.062-.037.112a.2478.2478 0 00-.113.111v.075c-.024.05-.063.087-.111.113-.024.049-.051.087-.076.111-.024.05-.049.088-.075.112 0 .024-.011.063-.036.112-.025.024-.05.062-.075.111-.025.025-.05.063-.075.113-.024 0-.049.026-.075.075-.025.024-.037.049-.037.074h-1.604v.038H29.104c-.101-.025-.199-.05-.298-.075v.075c-.025 0-.037.012-.037.038v.115h-.038v.076l-.036.037v.038c-.025.024-.063.036-.114.036v.038c0 .025-.012.037-.037.037v.112c-.025 0-.037.013-.037.039v.037c-.025 0-.039.013-.039.037v.113c0 .024-.011.037-.037.037 0 .025-.013.038-.038.038v.037h-.033v.15c-.025 0-.037.013-.037.038v.037c-.025 0-.038.012-.038.036-.025 0-.038.013-.038.039v.037h-.037v.038l-.038.037v.037c0 .024-.013.037-.038.037v.075c0 .025-.012.038-.037.038l-.038.037v.075l-.036.038h-.039a.339.339 0 01-.036.148l-.485 1.046.261 2.388c.024.074 0 .161-.075.26-.075.075-.149.113-.225.113a.712.712 0 01-.224-.038c-.024.024-.049.049-.075.073-.024.076-.087.125-.186.15l-1.717.261c-.075.024-.138.024-.187 0l-2.536-1.006c-.077-.05-.125-.112-.151-.188-.024-.025-.048-.049-.073-.075-.076-.099-.113-.186-.113-.261l.113-.672c0-.1.037-.173.11-.223.051-.025.101-.05.15-.075v-.785c.025 0 .037-.012.037-.037v-.521c.025 0 .037-.012.037-.038v-.038l.039-.037v-.112c.023-.025.049-.038.074-.038v-.036h.037v-.076l.112-.113v-.073c.025 0 .038-.012.038-.038.025 0 .037-.013.037-.037h.075v-.038l.038-.037v-.076l.037-.037v-.075c.024 0 .05-.013.075-.037l.036-.038v-.037c.025 0 .039-.013.039-.039l.037-.036v-.037l.037-.038h.038c0-.025.012-.038.036-.038v-.149l.039-.038v-.037l.037-.038v-.038c.025 0 .038-.012.038-.038l.037-.037v-.037c.024 0 .037-.012.037-.039.024 0 .051-.012.075-.037l.075-.075v-.037l.037-.038v-.074c.025 0 .051-.012.077-.037l.036-.038V20.3c.025 0 .038-.012.038-.037l.037-.039v-.074c0-.025.013-.038.038-.038l.074-.074v-.113c.024 0 .038-.011.038-.037l.037-.038v-.037c.024 0 .037-.012.037-.037l.037-.038v-.037l.039-.038v-.037h.037v-.075c0-.025.013-.038.037-.038 0-.024.013-.037.037-.037v-.038l.038-.036v-.113c.024 0 .037-.013.037-.038v-.071l.038-.037v-.037c.024-.025.049-.038.075-.038l.037-.038v-.037l.038-.038v-.035l.037-.038v-.074c.026 0 .038-.013.038-.037l.038-.038v-.261l-.076-.075v-.149c-.024 0-.037-.013-.037-.038v-.11l-.038-.039v-.038l-.037-.037v-.112l-.077-.074v-.41l-.038-.037h-1.567c0-.025-.012-.037-.038-.037v-.037h-.261c-.073-.025-.137-.038-.188-.038v-.187h-.037v-.335h-.036v.522h-.597v.038h-.037v.037h-.037l-.038.037c-.024 0-.038.013-.038.037h-.037c-.024.025-.05.038-.074.038v.037l-.038.038c0 .024-.013.037-.037.037v.074h-.038c0 .026-.013.039-.037.039v.037c-.025.05-.05.099-.075.148l-.037.038v.038h-.075v.336h-.075v.038c.025.1.025.199 0 .298l-.447.596c-.075.075-.149.113-.224.113-.101.025-.187.025-.262 0-.074-.075-.111-.149-.111-.224l-1.231.074c-.075 0-.149-.024-.224-.074-.125.024-.236.062-.336.111-.05.026-.086.05-.111.075h-.076v.111c-.025.1-.086.163-.185.188l-9.329 3.917c-.101.051-.188.051-.263 0-.05-.024-.086-.049-.111-.074h-.599v1.677c.052 0 .113.039.188.112.074.074.112.15.112.224v.374c0 .099-.038.187-.112.261-.073.05-.147.075-.223.075l-.039.037c-.073.075-.161.112-.26.112H5.448c-.074 0-.138-.024-.187-.074-.025.026-.05.038-.075.038-.024 0-.074.012-.148.037h-.149c-.074-.024-.15-.048-.225-.074a.5812.5812 0 00-.149-.112c0-.023-.013-.048-.038-.075v-.297c-1.121 0-2.251.025-3.395.074-.076.023-.15.05-.225.074H.596a3.1726 3.1726 0 00-.262-.074.2528.2528 0 00-.112-.112c-.024-.026-.049-.063-.075-.112v-.075c0-.025-.025-.063-.075-.111-.024 0-.049-.025-.074-.075V14.031c.025-.049.049-.086.074-.112.05-.024.075-.05.075-.075.1-.025.187-.037.261-.037v-.037c.05.024.125.049.225.074.025-.025.05-.037.074-.037h.149v-.037h3.47c.025 0 .062.012.112.037.024-.049.049-.087.075-.112.075-.026.162-.038.261-.038v-.037c.05.024.113.048.187.075.598.025 1.181.05 1.754.075v-.113c-.025-.025-.063-.049-.112-.074-.025-.025-.05-.063-.074-.112a5.7479 5.7479 0 01-.112-.112 9.3492 9.3492 0 01-.112-.111l-.037-.075v-.523c.024-.049.049-.086.074-.111.025-.025.05-.062.075-.112v-.598c.025-.05.05-.087.074-.111.025-.05.05-.087.075-.112h.038c.024-.05.049-.074.074-.074.025-.025.05-.051.075-.076.024 0 .05-.012.074-.038h.148v-.037h11.382c.074.025.149.05.224.074.049.051.086.076.111.076 0 .048.013.099.037.149.025.025.05.061.075.11l.038.038c0 .026.012.05.037.076.025.024.049.062.075.111v.113l-.038.074c-.025.051-.049.087-.074.112v1.605h-.038v.038a.2457.2457 0 00-.112.111v.113c-.025.049-.062.074-.111.074-.025.025-.051.051-.075.076v.148l.038.037v.038c.622 0 1.23.014 1.829.038v-.038h.075v-.038c.099-.024.187-.048.261-.074.075.025.15.049.225.074h.334c.175-.024.35-.037.523-.037.125 0 .236-.012.336-.037h.074c.05 0 .087-.013.113-.037.024 0 .036-.012.036-.037h.188c0-.026.012-.037.037-.037.025-.024.063-.038.112-.038.025 0 .037-.012.037-.038h.111c.026 0 .038-.012.038-.037h.113c0-.024.013-.037.037-.037s.05-.012.075-.037h.111c.025 0 .039-.013.039-.038h.074c.025 0 .038-.012.038-.038h.036v-.037h.076c0-.025.013-.038.038-.038.025-.024.062-.037.112-.037s.087-.012.112-.038h.037l.038-.037c.025 0 .039-.014.039-.038h.036c.049-.025.087-.037.112-.037.024 0 .05-.013.074-.037h.038l.037-.038h.037c.025 0 .037-.012.037-.037h.076v-.038c.025-.025.05-.037.074-.037.025 0 .038-.013.038-.037h.037c.025 0 .05-.013.075-.038h.038c0-.025.012-.038.037-.038.051-.024.101-.037.15-.037l.037-.037h.075c.025-.024.062-.037.111-.037l.033-.036h.039l.038-.037c.024-.025.049-.037.074-.037.05 0 .088-.013.113-.038h.112c.025 0 .038-.013.038-.038l.036-.038c0-.025.013-.038.038-.038.05 0 .088-.011.113-.036.024 0 .048-.013.074-.038.025 0 .037-.012.037-.037h.075v-.037c.025-.025.05-.038.075-.038s.038-.012.038-.037h.111c.026 0 .038-.013.038-.038l.075-.075c.049 0 .099-.012.149-.037.024 0 .049-.013.073-.037.025 0 .039-.013.039-.037h.038c0-.026.012-.039.038-.039 0-.024.012-.036.036-.036.025 0 .05-.013.075-.038.05 0 .1-.012.149-.037h.075v-.037l.037-.039c.051 0 .088-.011.113-.036.024 0 .049-.012.074-.038.025 0 .037-.013.037-.037h.039c0-.025.012-.038.036-.038v-.038c.025 0 .038-.012.038-.036.025 0 .049-.013.075-.038h.037c.026 0 .037-.012.037-.038.025 0 .039-.012.039-.036.024 0 .049-.013.073-.038h.039c0-.024.012-.037.037-.037s.038-.013.038-.039l.037-.038v-.037h.037l.038-.037h.075c0-.025.012-.037.037-.037 0-.025.012-.039.037-.039 0-.024.014-.038.038-.038.025 0 .049-.012.075-.037.024 0 .049-.013.073-.037l.039-.037h.074l.037-.038c0-.025.025-.063.075-.111h.074c.026 0 .063-.013.111-.038a.489.489 0 00.075-.113c0-.024.013-.049.039-.075.024 0 .049-.012.073-.037h.076v-.038h.112v-.037h.037v-.038h.037c.026-.024.05-.037.074-.037.026 0 .051-.012.076-.037h.186c.025 0 .051-.013.075-.037.124-.051.224-.089.299-.113.049-.024.1-.049.149-.074h.149c.597-.026 1.169-.05 1.717-.075a.698.698 0 01.224-.038c0-.024.012-.049.038-.074v-.149h-4.739v-.037c-.026 0-.051-.012-.076-.038h-1.902v-.037c-.026 0-.05-.013-.075-.037v-.038c-.05 0-.113-.012-.186-.037-.025-.024-.05-.051-.075-.075V8.284c0-.025-.014-.049-.037-.074v-.411c.023 0 .037-.012.037-.037v-.335c0-.025.012-.063.036-.113.051-.025.087-.05.112-.075h.151v-.037h.074v-.036h.036c0-.025.014-.05.039-.075.025-.025.05-.05.074-.075 0-.024.013-.037.038-.037h.111v-.038h2.763V5.897c-.026-.024-.038-.05-.038-.074-.025 0-.038-.013-.038-.038v-.447c0-.025.012-.05.038-.075.024-.025.038-.05.038-.075V5.15c.024-.025.049-.049.074-.074l.038-.038c.017-.024.042-.038.065-.038h.075v-.036h2.127c.026.025.05.036.075.036h.038v-.036c.049.025.086.05.112.074.025.026.049.05.074.075.025.025.049.038.074.038 0 .025.012.049.037.074v1.719h6.345V4.403c0-.024.012-.05.037-.075.024-.025.049-.049.075-.074 0-.025.013-.049.037-.074zM71.646 18.1v-.077c0-.024-.012-.05-.038-.074v.187l.038-.036zm-40.6-.524v.635c.05.024.1.05.149.075.025.025.05.049.076.075 0 .049.012.086.037.111v.112c.123-.024.236-.037.335-.037.073 0 .136-.013.187-.038v-.037h.186c.074-.025.149-.05.224-.075.075-.025.149-.062.225-.111.025 0 .05-.025.074-.075.025-.024.051-.05.076-.074l.037-.036c.05-.027.1-.051.149-.077.025-.05.05-.074.074-.074a.2571.2571 0 01.113-.113.2484.2484 0 01.111-.111c0-.05.012-.087.038-.113 0-.025.013-.062.038-.11.024-.025.037-.063.037-.113 0-.024.012-.062.037-.111v-.075c0-.05.012-.088.037-.112-.747.024-1.48.037-2.201.037l-.038.037v.299c-.001.05-.001.086-.001.111zm-1.119 1.008c-.075-.024-.125-.062-.15-.112a3.7664 3.7664 0 00-.111-.111c-.026-.025-.05-.05-.075-.075V17.24c-.025 0-.062.013-.111.038 0 .025-.014.049-.039.074 0 .025-.012.05-.037.075l-.037.037c-.025.025-.062.038-.112.038l-.037.037c-.05.049-.075.087-.075.112a.2432.2432 0 00-.112.112v.484c.05 0 .087.012.112.038.025.025.062.049.112.075.025.049.05.086.075.111 0 .051.012.088.037.112v.038h.56v-.037zm-6.008-1.679h.447v-.039h-.447v.039zm1.081.448v-.037h-.11v.037H25zM9.142 19.33c0 .024-.012.037-.037.037 0 .025-.012.039-.037.039v1.007h.149c.05.025.099.049.15.074.174.025.36.051.559.075.024.025.075.051.148.075l.037-.075h.038c.024 0 .05-.012.076-.037h.037c0-.025.013-.038.037-.038.025-.024.05-.036.074-.036 0-.025.013-.038.038-.038v-.037c.024 0 .037-.013.037-.038.049 0 .099-.013.148-.038h.039c0-.025.012-.037.037-.037h.112l.039-.039h.036c.026 0 .038-.012.038-.036.025 0 .037-.013.037-.038v-.038h.037c0-.025.013-.037.038-.037h.113c.025-.025.062-.037.112-.037.026 0 .049-.012.075-.038.048 0 .1-.011.148-.037h.037c.024-.025.05-.038.075-.038.026 0 .039-.011.039-.037h.109v-.075c.026-.05.052-.086.077-.111.024-.051.049-.087.074-.112v-.336H9.18v.038c-.001.026-.013.038-.038.038zm-3.694 6.269h-.112l.038.038c.024-.026.048-.037.074-.038zm17.426-1.045h.038l-.038-.037v.037z" clip-rule="evenodd"/></svg>
