<svg xmlns="http://www.w3.org/2000/svg" width="39.404" height="26.017"><g fill-rule="evenodd" clip-rule="evenodd"><path fill="#E5E5E5" d="M21.336 10.364l-.882.011c-2.143 1.755-4.464 3.409-6.964 4.959l-3.244 1.624-.92.354c-.23-2.5-.734-3.828-1.511-3.985l-.729-.494c-.241-1.475-.623-2.612-1.146-3.411-.151-.332-.247-.667-.286-1.004-.039-.323-.025-.648.041-.973-.456-.661-.864-1.319-1.224-1.976l12.076-4.393c.075 1.225-.056 2.402-.395 3.53l.305.415-.33.542.641-.005 2.081 1.654c.512 1.062 1.478 1.804 2.897 2.229l-.41.923z"/><path fill="#CCC" d="M10.368 17.543c-.038-.202-.079-.396-.122-.584l3.244-1.624c2.5-1.55 4.822-3.204 6.964-4.959l.882-.011c-4.625 4.181-8.282 6.574-10.968 7.178zm28.042-1.947c-11.414 7.781-23.52 10.437-36.316 7.968l4.752-1.132-5.705-3.616 5.915 1.362-4.426-10.09 7.648 10.972c.28.548.589.814.926.802 2.583-.518 4.975-1.285 7.175-2.302l.81-1.7c1.045-.133 2.29-.043 3.732.27 1.795-.32 3.489-.768 5.081-1.344 1.848-.872 2.85-1.733 3.006-2.585l1.389-7.954.933 7.332 3.136-3.43-1.649 5.454 3.593-.007z"/><path fill="#FFF" d="M10.368 17.543c2.686-.604 6.342-2.997 10.968-7.179 1.896.338 4.241.495 7.038.469 1.589 1.051 2.346 2.026 2.272 2.926-.013.138-.044.276-.097.412 0 .002-.002.006-.003.012-.27.681-1.043 1.316-2.321 1.905-1.586.688-3.377 1.206-5.372 1.551-1.288-.296-2.597-.389-3.926-.274l-1.021 1.884c-2.194.966-4.396 1.675-6.603 2.126-.308.074-.49-.106-.545-.537-.076-1.243-.207-2.34-.39-3.295z"/></g></svg>