<svg xmlns="http://www.w3.org/2000/svg" width="32" height="32"><g fill="#FFF"><path d="M2.669 2.171v27.801h26.417V2.171H2.669zm23.705 25.083H5.381V4.583h20.993v22.671z"/><path d="M21.191 13.169c-1.588 0-2.874 1.285-2.874 2.873 0 1.587 1.286 2.873 2.874 2.873 1.587 0 2.873-1.286 2.873-2.873 0-1.588-1.286-2.873-2.873-2.873zm0 4.701c-1.011 0-1.83-.818-1.83-1.828s.819-1.83 1.83-1.83 1.83.82 1.83 1.83-.819 1.828-1.83 1.828z"/><path d="M6.13 5.285v3.72h3.519v2.625H6.13v9.17h3.461v2.625H6.13v3.144h19.379V5.285H6.13zm15.061 14.073c-1.832 0-3.316-1.485-3.316-3.316 0-1.832 1.484-3.316 3.316-3.316s3.316 1.484 3.316 3.316c.001 1.831-1.484 3.316-3.316 3.316z"/></g></svg>