<svg xmlns="http://www.w3.org/2000/svg" width="83.5" height="32"><path fill-rule="evenodd" clip-rule="evenodd" fill="#FFF" d="M78.091 3.545c0 .085.072.199.216.342.113.314.242.728.384 1.241.085.542.2 1.068.342 1.583v1.368c.114.086.186.2.213.341.03.172.087.343.171.515h.257c.172 0 .314-.015.427-.042h.258l2.352.042.085.17c0 .142.043.284.128.427.084.199.156.415.214.643.057.256.057.485 0 .684-.058.229-.2.384-.428.47-.257.113-.569.186-.941.213-.313.058-.555.086-.727.086-.028 0-.171.043-.428.128-.17.029-.314.071-.427.128h-.255c-.145 0-.315-.044-.515-.128 0 .257-.042.485-.126.685-.059.255-.244.427-.557.513-.115 0-.199.014-.256.042-.029.057-.058.086-.087.086l-.083.043v.726l-.216.685h-1.411c-.627.029-1.054-.072-1.283-.299-.113 0-.213.058-.298.171l-.13.128h-.085c-.256.029-.513.129-.77.299-.228.172-.37.341-.428.513v.642c0 .312.029.698.086 1.154V22.873c-.029.599-.058 1.099-.086 1.498-.084.571-.155 1.025-.214 1.367-.113.313-.199.571-.256.771-.084.17-.127.327-.127.471l-.128.213h-.172c-.228.057-.613.099-1.154.129-.542 0-.928-.115-1.155-.342v-.086c-.085-.114-.199-.243-.342-.385-.143-.115-.214-.329-.214-.643-.057-.398-.086-.655-.086-.77v-.17l-.171-.128c.144-1.767.244-3.236.299-4.404.087-1.113.143-1.995.172-2.652.057-.655.128-1.154.214-1.497.057-.314.099-.526.128-.641-.085 0-.185-.042-.3-.128-.056-.086-.142-.186-.256-.3l-.215-.256c-.057-.028-.113-.058-.17-.085-.028-.056-.085-.086-.172-.086 0-.113-.084-.213-.256-.3-.199-.142-.328-.212-.385-.212-.142 0-.241-.029-.299-.086-.086 0-.128-.014-.128-.043h-.085l-.642.129c-.027 0-.086-.029-.171-.086-.084 0-.142-.014-.171-.043h-.426c-.114.03-.201.043-.257.043-.144.057-.285.086-.427.086h-2.607c0-.086.013-.215.042-.386 0-.114.014-.257.042-.427v-.299c-.256.114-.641.34-1.154.684-.541.285-.898.428-1.069.428h-1.754c.058.227.128.542.214.939.086.401.171.826.257 1.283.057.514.142 1.084.256 1.712-.114 0-.199.012-.256.042l-.471.257c0 .086.073.414.214.984.171.598.357 1.368.556 2.308.172.94.385 1.981.643 3.122.228 1.197.499 2.38.813 3.549.131.598.267 1.211.406 1.839.021.102.042.201.063.299-.071.004-.141.018-.213.043-.114 0-.213.014-.3.042-.114.028-.213.043-.3.043-.057.027-.127.055-.213.084-.228 0-.456.013-.684.043-.114 0-.215.013-.299.043-.114.028-.214.042-.3.042-.058.03-.127.059-.213.086-.428 0-.87.015-1.326.043-.113 0-.214.016-.298.042-.115.028-.215.043-.3.043-.058.028-.129.057-.215.084h-.726l-.213-.897c-.004-.014-.004-.027 0-.042-.288-1.353-.589-2.65-.899-3.891-.284-1.313-.569-2.494-.854-3.55-.201-1.055-.385-1.894-.557-2.522-.172-.626-.257-.955-.257-.984h-1.154c-.342.029-.641.042-.897.042-.229.028-.444.043-.643.043-.256 0-.441.058-.556.172-.256.113-.441.255-.556.427-.143.198-.256.37-.342.512-.059.143-.142.271-.257.384-.114.116-.228.217-.342.3-.144.086-.484.157-1.026.215-.627.086-1.253.128-1.883.128h-2.095c-.625 0-1.041-.072-1.239-.213-.342-.087-.727-.229-1.155-.43-.457-.227-.783-.412-.982-.553-.57.796-.855 1.34-.855 1.625.113.254.199.44.256.554.058.115.086.216.086.3h.129l-.471.471c-.029-.029-.073-.043-.129-.043-.143 0-.227.014-.256.043-.115.084-.241.298-.385.641-.199.342-.441.728-.726 1.153-.229.457-.415.885-.557 1.284-.172.341-.256.584-.256.726v.941c.084.086.057.228-.087.429-.227.17-.555.228-.981.17-.172-.083-.515-.241-1.028-.469-.483-.287-1.026-.6-1.625-.941-.569-.315-1.082-.614-1.539-.899-.512-.372-.784-.626-.813-.77 0-.113.043-.271.129-.471.057-.141.242-.484.555-1.025.257-.542.671-1.325 1.24-2.353.6-.998 1.384-2.352 2.353-4.063 0-.255-.099-.712-.3-1.367-.142-.656-.626-1.113-1.453-1.369l-1.797-.684c-.369-.086-.684-.143-.94-.171-.256-.057-.527-.085-.813-.085-.257-.058-.57-.1-.941-.129-.427-.083-.869-.127-1.326-.127-.484-.03-.913-.03-1.282 0-.428 0-.727.044-.897.127L4.201 21.675h-.084c-.058 0-.215.017-.47.043-.315.057-.657.1-1.028.128-.314 0-.669-.014-1.068-.042-.399-.058-.685-.144-.855-.257-.172-.199-.257-.384-.257-.557v-2.993-2.224c0-.741-.072-1.296-.213-1.668v-2.051c0-.286-.014-.571-.043-.855-.058-.286-.085-.558-.085-.813-.085-.371-.114-.726-.085-1.069 0-.342.186-.585.555-.727.029-.028.315-.07.854-.128.515 0 1.099-.015 1.754-.043.685 0 1.411-.013 2.181-.042H22.76c.199-.086.5-.17.898-.256.399-.142.784-.243 1.155-.299.426-.143.827-.256 1.197-.342.286-.114.47-.199.556-.256l.898-.642c.199-.086.371-.186.514-.3.169-.029.298-.071.382-.128.171-.143.728-.285 1.669-.428.284 0 .457-.028.514-.085.142 0 .242-.028.299-.084.142-.086.498-.429 1.069-1.028.513-.569 1.012-1.097 1.496-1.582.284-.2.713-.256 1.283-.171.57.058.998.114 1.283.171.085 0 .172-.014.256-.043.057 0 .101-.014.127-.043.086 0 .144.015.172.043.199.115.342.186.429.214h1.024l.259.512v1.797h.17V4.358h2.224v-.556h1.196v.557h.813v-.557h1.111v.557h.771v-.557h1.154v.557h.941v-.557h1.112v.557h.94v-.557h1.155v.557h.941v-.557h1.155v.557h.726v-.557h1.282v.557h.685v-.557h1.155v.557h1.197v1.068h15.694c.284-.228.641-.541 1.068-.941.457-.399.757-.711.898-.941 0-.256.014-.455.042-.598.029-.113.042-.229.042-.342.114-.285.2-.528.256-.727.144-.228.343-.371.599-.426h.344c.255-.116.511-.186.768-.216.229 0 .443.172.642.514.314.399.527.798.643 1.197.085.257.127.456.127.598zM56.326 4.957H39.095v.47h17.231v-.47zM42.558 19.026c.229.199.499.298.813.298h3.975c.256 0 .543-.1.855-.298.199-.199.301-.414.301-.643 0-.427-.102-.756-.301-.982-.313-.17-.599-.256-.855-.256h-3.975c-.314 0-.584.086-.813.256-.285.227-.428.556-.428.982 0 .229.142.444.428.643zm-22.364-6.202c0-.713-.342-1.069-1.027-1.069h-1.88c-.257 0-.471.084-.642.257-.2.201-.298.471-.298.812 0 .228.098.415.298.557.171.198.385.3.642.3h1.88c.314 0 .57-.102.77-.3.171-.142.257-.329.257-.557zM5.868 10.985c-.484-.085-.939-.141-1.367-.169-.457 0-.8-.03-1.027-.086 0 .398.015.913.042 1.538.086.657.143 1.326.171 2.01 0 .685.028 1.34.085 1.967.029.6.045.985.045 1.155.141.143.441.299.896.471.513.17.998.256 1.455.256.343-.027.812-.142 1.412-.342.542-.171 1.111-.371 1.71-.599.57-.256 1.14-.513 1.711-.769.513-.257.911-.47 1.196-.643.199-.229.298-.485.298-.769 0-.315-.084-.755-.255-1.326-.172-.514-.329-.971-.47-1.369-.229 0-.628-.056-1.198-.169-.513-.146-1.154-.316-1.924-.515-.341-.113-.769-.229-1.282-.342-.457-.17-.955-.27-1.498-.299z"/></svg>