<svg xmlns="http://www.w3.org/2000/svg" width="39.816" height="32"><path fill="#FFF" d="M38.175 7.93h-.938v1.56l.225.179v.758l-.225.179-.088 1.517H27.024c-.06 0-.119.028-.179.089-.149.119-.266.281-.358.492-.118.324-.712 1.783-1.781 4.37-.151.267-.298.43-.448.489-.088.06-.327.104-.713.133l-4.638.179c-.178-.089-.4-.179-.67-.267-.475-.209-.862-.328-1.16-.355-.326-.061-.55-.091-.668-.091-.12.03-.341.073-.667.135-.271.088-.536.12-.805.088l-.313-.088-2.274 9.633-.089 1.068.491.714-9.588-.089c0-.564.03-1.292.09-2.184.179-1.787.46-3.479.847-5.086.415-1.636.951-3.168 1.605-4.595.029-.087.238-.522.625-1.293.178-.386.283-.655.311-.802.091-.355.015-.641-.223-.848-.179-.18-.563-.373-1.159-.58-.597-.209-.982-.34-1.16-.4-.238-.09-.358-.208-.358-.357-.029-.207-.014-.551.046-1.025l.089-.668-1.651-.178c-.119 0-.224-.031-.312-.092-.208-.147-.298-.34-.269-.578.06-.299.255-.446.581-.446.179-.031.342-.015.49.046l.224-1.163 1.339.849.58-2.899.937-1.784v-.76l.714.401 2.854.045.269.222h9.722v.18h5.44v-.135h9.368V3.288h2.229l.268.315v.803l.313-.045.313.399v.716h.893M24.438 12.21l-5.083.045c-.506.504-.864.877-1.07 1.115-.327.416-.506.653-.536.714-.208.327-.327.698-.354 1.114-.033.208 0 .505.087.892.059.178.118.33.178.446l-.312.223c-.148-.207-.268-.46-.356-.759-.237-.534-.342-.98-.313-1.336.06-.594.283-1.146.67-1.65.149-.238.312-.433.491-.58-.208.028-.444.088-.715.178-.534.179-.921.386-1.159.625-.327.354-.534.742-.624 1.158-.119.446-.09.862.09 1.248.177.356.431.656.757.894.327.239.713.399 1.16.491.268.027.7.045 1.293.045.505-.031.833 0 .98.088.209.06.938.091 2.187.091 1.189-.031 1.843-.077 1.962-.135.147-.089.446-.757.892-2.005l.67-1.875v-.27c0-.178-.031-.326-.09-.445-.12-.119-.284-.207-.491-.268l-.314-.044z"/></svg>