<svg xmlns="http://www.w3.org/2000/svg" width="69.25" height="32"><path fill-rule="evenodd" clip-rule="evenodd" fill="#FFF" d="M68.96 6.573c0 .714-.042 1.294-.133 1.739-.031.298-.12.61-.269.937-.057.149-.116.281-.177.4h-13.87l-.179-.133-.269.089h-10.66l-.267.18-.401-.136h-4.504v-.802h-1.516V8.18h-.937v1.56l.225.179v.758l-.225.179-.089 1.516H25.565c-.06 0-.119.028-.179.089-.149.119-.266.281-.358.492-.118.325-.712 1.783-1.781 4.37-.151.267-.298.43-.448.489-.088.06-.327.104-.713.134l-4.638.178c-.178-.089-.4-.178-.67-.266-.475-.209-.862-.329-1.16-.356-.326-.06-.55-.091-.668-.091-.12.031-.341.074-.667.135-.271.088-.536.12-.805.088l-.313-.088-2.275 9.633-.089 1.069.491.714-9.588-.089c0-.564.03-1.292.09-2.184.179-1.786.46-3.479.847-5.086.415-1.635.951-3.167 1.605-4.594.029-.087.238-.522.625-1.293.178-.386.283-.655.311-.802.091-.356.015-.641-.223-.848-.179-.179-.563-.372-1.159-.579-.597-.209-.982-.341-1.16-.401-.238-.09-.358-.208-.358-.357-.029-.208-.014-.551.046-1.026l.089-.668-1.651-.178c-.119 0-.224-.031-.312-.091-.208-.148-.298-.34-.269-.578.06-.299.255-.447.581-.447.179-.031.342-.015.49.046l.224-1.163 1.339.848.58-2.899.937-1.784V4.03l.714.402 2.854.045.269.221h9.722v.18h5.44v-.135h9.368V3.538h2.229l.267.315v.803l.312-.044.313.399v.716h.893v-.625h1.338V3.806h4.639l.311-.177.401.177h10.66l.311.046.314-.132h13.693l.223.266c.119.268.209.581.268.936.026.446.057.996.085 1.651zM22.978 12.46l-5.083.045c-.506.504-.864.877-1.07 1.115-.327.416-.506.653-.536.714-.208.327-.327.698-.354 1.114-.033.208 0 .505.087.892.059.178.118.33.178.446l-.312.223c-.148-.207-.268-.46-.356-.759-.237-.534-.342-.981-.313-1.336.06-.594.283-1.146.67-1.65.149-.239.312-.433.491-.581-.208.029-.444.089-.715.178-.534.179-.921.386-1.159.625-.327.355-.534.743-.624 1.159-.119.446-.09.862.09 1.248.177.356.431.656.757.893.327.239.713.4 1.16.491.268.028.7.045 1.293.045.505-.031.833 0 .98.088.209.06.938.091 2.187.091 1.189-.031 1.843-.077 1.962-.135.147-.088.446-.756.892-2.005l.67-1.875v-.269c0-.178-.031-.327-.09-.446-.12-.119-.284-.207-.491-.267l-.314-.044z"/></svg>