<?xml version="1.0" encoding="utf-8"?>
<!-- Generator: Adobe Illustrator 16.0.0, SVG Export Plug-In . SVG Version: 6.00 Build 0)  -->
<!DOCTYPE svg PUBLIC "-//W3C//DTD SVG 1.1//EN" "http://www.w3.org/Graphics/SVG/1.1/DTD/svg11.dtd">
<svg version="1.1" id="Layer_1" xmlns="http://www.w3.org/2000/svg" xmlns:xlink="http://www.w3.org/1999/xlink" x="0px" y="0px"
	 width="32px" height="13px" viewBox="0 0 32 13" enable-background="new 0 0 32 13" xml:space="preserve">
<g>
	<g>
		
			<radialGradient id="SVGID_1_" cx="347.5996" cy="-502.0952" r="58.4116" gradientTransform="matrix(0.2785 0 0 0.2785 -83.4009 144.6803)" gradientUnits="userSpaceOnUse">
			<stop  offset="0" style="stop-color:#58595B"/>
			<stop  offset="0.2204" style="stop-color:#525254"/>
			<stop  offset="1" style="stop-color:#414042"/>
		</radialGradient>
		<path fill="url(#SVGID_1_)" d="M31.256,11.4c0,0.52-0.531,1.053-1.049,1.053H1.683c-0.52,0-0.941-0.424-0.941-0.945V1.49
			c0-0.521,0.422-0.945,0.941-0.945h28.524c0.518,0,1.049,0.314,1.049,0.836V11.4z"/>
		<g>
			<path fill="none" d="M30.971,11.104l-0.375,0.006c-0.881,0.283-1.544,0.916-1.914,1.344h1.525c0.518,0,1.049-0.533,1.049-1.053
				v-0.424c-0.127,0.014-0.25,0.031-0.37,0.057L30.971,11.104z"/>
			<path fill="none" d="M2.935,4.752c0.45,0.818,0.836,0.734,0.836,0.734s-0.48,0.643-0.805,1.111S1.488,6.756,1.488,6.756
				l0.271,0.686c0,0,0.564,1.035,0.519,1.189l0.013-0.021c0,0,1.289,0.49,1.747-0.422c0.365-0.725,0.776-1.988,0.929-2.473
				C4.962,5.713,4.959,5.711,4.959,5.711s0.073-0.844-0.313-1.303C4.259,3.951,4.013,3.502,4.013,3.502l0.705-0.881
				C4.68,2.482,4.64,2.342,4.602,2.205c-0.347,0.43-0.388,0.797-0.388,0.797L3.217,2.451C3.21,2.471,3.203,2.49,3.197,2.512
				c-0.389,1.203,0.105,2.1,0.105,2.1S2.021,4.027,0.925,4.6C0.861,4.633,0.799,4.666,0.742,4.697v0.092
				c0.22,0.115,0.477,0.217,0.75,0.266C2.283,5.191,2.486,3.936,2.935,4.752z"/>
			<path fill="none" d="M2.179,8.611C1.802,8.318,1.634,8.895,1.634,8.895s0.151,0.311,0.055,0.732l0.58-0.982
				C2.255,8.656,2.226,8.646,2.179,8.611z"/>
			<path fill="none" d="M15.986,1.252c0,0-0.49,0.078-1.094,0.289c-0.232,0.674-1.414,0.742-1.414,0.742s0.002-0.004,0.004-0.008
				c-0.122,0.086-0.234,0.174-0.334,0.256c0.527-0.029,2.188-0.164,3.293-0.789C16.191,1.459,15.986,1.252,15.986,1.252z"/>
			<path fill="none" d="M27.325,0.545H27.09l0.223,0.037C27.317,0.568,27.321,0.557,27.325,0.545z"/>
			<path fill="none" d="M29.539,3.531c0,0,0.13-0.184,0.302-0.459c-0.041,0.025-0.084,0.049-0.125,0.076l-0.718,0.578L28.897,3.6
				c-0.458,0.238-0.818,0.406-0.818,0.406s-0.381-0.529-0.764-1.01c-0.145-0.182-0.23-0.338-0.282-0.461
				c-0.475,0.398-0.903,0.779-1.116,1.018c-0.32,0.357-1.548,0.418-2.679,0.393c0.053,0.254,0.032,0.445,0.032,0.445l-1.023,0.1
				l-0.113-0.598c-0.582-0.041-0.991-0.084-0.991-0.084s-2.015,3.535-3.802,4.428l-1.296-0.191c0,0.041-0.001,0.08,0,0.119
				c0.02-0.006,0.029-0.012,0.029-0.012L16.085,8.6c0.163,0.887,0.73,1.686,0.73,1.686s-0.222,0.678-0.613,0.463
				c-0.246-0.137-0.491-0.273-0.64-0.355l-1.609,1.551c0,0-1.052-0.424-0.171-1.859c0.379-0.621,0.856-1.063,1.277-1.367
				c-0.232-0.383-0.365-0.691-0.365-0.691l0.15-0.154l-1.707-0.25c0.049,0.596-0.805,2.445-0.941,2.979
				c-0.143,0.559-0.412,1.484-0.9,1.633c-0.128,0.039-0.364,0.121-0.645,0.221h8.773c0.04-0.045,0.083-0.088,0.131-0.131
				c0.308-0.258,4.279-0.014,4.279-0.014s-0.03,0.053-0.077,0.145h1.83c0.538-0.238,1.984-0.488,1.984-0.488
				s-0.104-1.016-0.043-1.832c-0.271-0.084-0.57,0.133-0.57,0.133l-0.418-2.137c0,0,0.484-0.293,1.219-0.637
				s0.748-0.676,0.748-0.676s0.264,0.186,0.504,0.443c0.004-0.006,0.008-0.012,0.012-0.02c0.568-1.092,0.844-0.973,1.246-1.223
				c0.15-0.094,0.527-0.221,0.986-0.355v-2.23C30.36,3.561,29.539,3.531,29.539,3.531z M25.756,7.006
				c-0.191,0.779-1.523,0.723-1.523,0.723s0.303-0.471,0.377-0.742c0.075-0.273-0.094-0.783-0.094-0.783l1.019-1.107l0.603,0.113
				C26.137,5.209,25.948,6.227,25.756,7.006z"/>
			<path fill="none" d="M3.574,11.383c-0.69-0.256-1.654-0.4-2.199-0.467c-0.107,0.496-0.215,1.018-0.277,1.33
				c0.16,0.129,0.363,0.207,0.586,0.207h2.139c0.17-0.172,0.285-0.387,0.385-0.619C4.019,11.633,3.808,11.467,3.574,11.383z"/>
			<path fill="none" d="M9.033,3C8.553,3.053,6.914,4.434,6.434,4.486C6.208,4.514,5.921,4.533,5.673,4.508
				c0.289,0.598,0.671,1.039,0.671,1.039S6.19,6.242,5.781,6.064C5.484,5.938,5.187,5.809,5.045,5.748
				c0.065,0.359,0.342,1.061,1.479,1.557C7.172,7.275,8.894,6.76,8.894,6.76S8.833,7.086,8.775,7.582
				c1.566-0.252,2.929-1.209,2.929-1.209s0.375,0.201,0.741,0.461l-0.236-0.846c0,0-1.351-0.875-1.349-2.016
				c0.001-0.277,0.126-0.502,0.314-0.688l0.054-0.135c0,0-0.651-0.361-1.366-0.637C9.558,2.396,9.141,2.072,8.76,1.734
				c0,0.002,0.001,0.004,0.001,0.006C8.931,3.086,9.513,2.945,9.033,3z"/>
			
				<radialGradient id="SVGID_2_" cx="369.4814" cy="-474.9741" r="155.2429" gradientTransform="matrix(0.2785 0 0 0.2785 -83.4009 144.6803)" gradientUnits="userSpaceOnUse">
				<stop  offset="0" style="stop-color:#58595B"/>
				<stop  offset="0.1742" style="stop-color:#4D4E50"/>
				<stop  offset="0.3656" style="stop-color:#464647"/>
				<stop  offset="0.5499" style="stop-color:#4C4C4E"/>
				<stop  offset="0.7258" style="stop-color:#57575A"/>
				<stop  offset="1" style="stop-color:#414042"/>
			</radialGradient>
			<path fill="url(#SVGID_2_)" d="M30.596,11.109l-2.46,0.045c0,0-0.114-0.547-0.409-0.891c-0.061-0.068-0.129-0.109-0.197-0.131
				c-0.062,0.816,0.043,1.832,0.043,1.832s-1.446,0.25-1.984,0.488h3.094C29.052,12.025,29.715,11.393,30.596,11.109z"/>
			
				<radialGradient id="SVGID_3_" cx="369.4824" cy="-475.0166" r="155.1614" gradientTransform="matrix(0.2785 0 0 0.2785 -83.4009 144.6803)" gradientUnits="userSpaceOnUse">
				<stop  offset="0" style="stop-color:#58595B"/>
				<stop  offset="0.1742" style="stop-color:#4D4E50"/>
				<stop  offset="0.3656" style="stop-color:#464647"/>
				<stop  offset="0.5499" style="stop-color:#4C4C4E"/>
				<stop  offset="0.7258" style="stop-color:#57575A"/>
				<stop  offset="1" style="stop-color:#414042"/>
			</radialGradient>
			<path fill="url(#SVGID_3_)" d="M30.722,2.389c-0.15,0.201-0.493,0.445-0.882,0.684c-0.172,0.275-0.302,0.459-0.302,0.459
				s0.821,0.029,1.718-0.1V1.809C31.071,1.979,30.893,2.162,30.722,2.389z"/>
			
				<radialGradient id="SVGID_4_" cx="369.4795" cy="-474.9619" r="155.2554" gradientTransform="matrix(0.2785 0 0 0.2785 -83.4009 144.6803)" gradientUnits="userSpaceOnUse">
				<stop  offset="0" style="stop-color:#58595B"/>
				<stop  offset="0.1742" style="stop-color:#4D4E50"/>
				<stop  offset="0.3656" style="stop-color:#464647"/>
				<stop  offset="0.5499" style="stop-color:#4C4C4E"/>
				<stop  offset="0.7258" style="stop-color:#57575A"/>
				<stop  offset="1" style="stop-color:#414042"/>
			</radialGradient>
			<path fill="url(#SVGID_4_)" d="M19.338,2.543l0.375,0.15l1.686-0.613c0,0,0.561,0.463,1.261,0.953
				c0.37,0.258,0.521,0.623,0.578,0.912c1.131,0.025,2.358-0.035,2.679-0.393c0.213-0.238,0.642-0.619,1.116-1.018
				c-0.087-0.209-0.076-0.326-0.076-0.326l-1.89-0.021c0,0,0.222-0.25,0.46-0.584c0.417-0.135,0.771-0.184,0.771-0.184
				s0.313-0.006,0.773-0.059c0.07-0.23,0.155-0.5,0.242-0.779L27.09,0.545h-7.643c-0.045,0.135-0.081,0.275-0.104,0.42
				C19.213,1.803,19.338,2.543,19.338,2.543z"/>
			
				<radialGradient id="SVGID_5_" cx="369.4814" cy="-474.9736" r="155.2331" gradientTransform="matrix(0.2785 0 0 0.2785 -83.4009 144.6803)" gradientUnits="userSpaceOnUse">
				<stop  offset="0" style="stop-color:#414042"/>
				<stop  offset="0.3118" style="stop-color:#858689"/>
				<stop  offset="0.6344" style="stop-color:#474749"/>
				<stop  offset="1" style="stop-color:#8E8F92"/>
			</radialGradient>
			<path fill="url(#SVGID_5_)" d="M12.197,10.6c0.137-0.533,0.99-2.383,0.941-2.979l1.707,0.25l1.625-1.674
				c0,0-0.398,0.967-0.426,1.848l1.296,0.191c1.787-0.893,3.802-4.428,3.802-4.428s0.409,0.043,0.991,0.084l-0.057-0.299
				l-2.531-0.035l0.021-0.162l-1.689,0.314c0,0-0.321-0.205-0.611-0.832c-0.158-0.344-0.524-0.795-0.825-1.137
				c-1.105,0.625-2.766,0.76-3.293,0.789c-0.309,0.252-0.5,0.449-0.5,0.449l-0.533,0.814L10.96,3.818l0.214-0.533
				c-0.188,0.186-0.313,0.41-0.314,0.688c-0.002,1.141,1.349,2.016,1.349,2.016l0.236,0.846c-0.366-0.26-0.741-0.461-0.741-0.461
				S10.341,7.33,8.775,7.582C8.75,7.795,8.724,8.041,8.705,8.307c-0.066,0.873,0.344,1.5,0.344,1.5s-0.432,0.398-0.79,0.906
				c-0.357,0.508-0.341,1.328-0.341,1.328l-1.676-0.264L6.147,9.699c0,0-0.206-2.504,0.206-2.404c0.041,0.01,0.1,0.012,0.172,0.01
				C5.387,6.809,5.111,6.107,5.045,5.748C5.005,5.73,4.978,5.719,4.966,5.715C4.814,6.199,4.403,7.463,4.038,8.188
				C3.58,9.1,2.291,8.609,2.291,8.609L2.278,8.631c-0.002,0.006-0.005,0.01-0.009,0.014l-0.58,0.982
				c-0.01,0.039-0.02,0.078-0.033,0.121c-0.063,0.189-0.172,0.664-0.281,1.168c0.545,0.066,1.509,0.211,2.199,0.467
				c0.234,0.084,0.445,0.25,0.633,0.451c0.148-0.34,0.27-0.715,0.506-1.039c0.536-0.734,0.866,0.926,0.866,0.926
				s0.084,0.324,0.132,0.732h4.941c0.28-0.1,0.517-0.182,0.645-0.221C11.785,12.084,12.054,11.158,12.197,10.6z"/>
			
				<radialGradient id="SVGID_6_" cx="369.4814" cy="-474.9741" r="155.2116" gradientTransform="matrix(0.2785 0 0 0.2785 -83.4009 144.6803)" gradientUnits="userSpaceOnUse">
				<stop  offset="0" style="stop-color:#58595B"/>
				<stop  offset="0.1742" style="stop-color:#4D4E50"/>
				<stop  offset="0.3656" style="stop-color:#464647"/>
				<stop  offset="0.5499" style="stop-color:#4C4C4E"/>
				<stop  offset="0.7258" style="stop-color:#57575A"/>
				<stop  offset="1" style="stop-color:#414042"/>
			</radialGradient>
			<path fill="url(#SVGID_6_)" d="M19.556,12.322c-0.048,0.043-0.091,0.086-0.131,0.131h4.333c0.047-0.092,0.077-0.145,0.077-0.145
				S19.864,12.064,19.556,12.322z"/>
			
				<radialGradient id="SVGID_7_" cx="369.501" cy="-474.9805" r="155.2745" gradientTransform="matrix(0.2785 0 0 0.2785 -83.4009 144.6803)" gradientUnits="userSpaceOnUse">
				<stop  offset="0" style="stop-color:#58595B"/>
				<stop  offset="0.1742" style="stop-color:#4D4E50"/>
				<stop  offset="0.3656" style="stop-color:#464647"/>
				<stop  offset="0.5499" style="stop-color:#4C4C4E"/>
				<stop  offset="0.7258" style="stop-color:#57575A"/>
				<stop  offset="1" style="stop-color:#414042"/>
			</radialGradient>
			<path fill="url(#SVGID_7_)" d="M0.742,1.49v3.207C0.799,4.666,0.861,4.633,0.925,4.6c1.096-0.572,2.377,0.012,2.377,0.012
				s-0.494-0.896-0.105-2.1C3.203,2.49,3.21,2.471,3.217,2.451L3.171,2.424c0,0,0.415-1.07,0.482-1.826
				C3.656,0.58,3.656,0.563,3.658,0.545H1.683C1.164,0.545,0.742,0.969,0.742,1.49z"/>
			
				<radialGradient id="SVGID_8_" cx="369.4785" cy="-474.9712" r="155.2351" gradientTransform="matrix(0.2785 0 0 0.2785 -83.4009 144.6803)" gradientUnits="userSpaceOnUse">
				<stop  offset="0" style="stop-color:#58595B"/>
				<stop  offset="0.1742" style="stop-color:#4D4E50"/>
				<stop  offset="0.3656" style="stop-color:#464647"/>
				<stop  offset="0.5499" style="stop-color:#4C4C4E"/>
				<stop  offset="0.7258" style="stop-color:#57575A"/>
				<stop  offset="1" style="stop-color:#414042"/>
			</radialGradient>
			<path fill="url(#SVGID_8_)" d="M5,2.268l0.604-0.756c0,0-0.117,0.391-0.191,0.895C5.349,2.832,5.318,3.336,5.41,3.764
				c0.057,0.262,0.154,0.514,0.264,0.744c0.248,0.025,0.535,0.006,0.761-0.021C6.914,4.434,8.553,3.053,9.033,3
				c0.48-0.055-0.102,0.086-0.271-1.26c0-0.002-0.001-0.004-0.001-0.006C8.24,1.271,7.786,0.789,7.786,0.789S7,0.762,5.66,1.402
				C5.148,1.646,4.816,1.936,4.602,2.205C4.64,2.342,4.68,2.482,4.718,2.621L5,2.268z"/>
			
				<radialGradient id="SVGID_9_" cx="369.2529" cy="-477.7114" r="145.3038" gradientTransform="matrix(0.2785 0 0 0.2785 -83.4009 144.6803)" gradientUnits="userSpaceOnUse">
				<stop  offset="0" style="stop-color:#58595B"/>
				<stop  offset="0.1742" style="stop-color:#4D4E50"/>
				<stop  offset="0.3656" style="stop-color:#464647"/>
				<stop  offset="0.5499" style="stop-color:#4C4C4E"/>
				<stop  offset="0.7258" style="stop-color:#57575A"/>
				<stop  offset="1" style="stop-color:#414042"/>
			</radialGradient>
			<polygon fill="url(#SVGID_9_)" points="17.997,0.545 17.961,0.545 17.981,0.566 			"/>
			
				<radialGradient id="SVGID_10_" cx="369.4746" cy="-474.9707" r="155.2579" gradientTransform="matrix(0.2785 0 0 0.2785 -83.4009 144.6803)" gradientUnits="userSpaceOnUse">
				<stop  offset="0" style="stop-color:#58595B"/>
				<stop  offset="0.1742" style="stop-color:#4D4E50"/>
				<stop  offset="0.3656" style="stop-color:#464647"/>
				<stop  offset="0.5499" style="stop-color:#4C4C4E"/>
				<stop  offset="0.7258" style="stop-color:#57575A"/>
				<stop  offset="1" style="stop-color:#414042"/>
			</radialGradient>
			<path fill="url(#SVGID_10_)" d="M29.024,7.24c-0.004,0.008-0.008,0.014-0.012,0.02c0.187,0.201,0.36,0.445,0.389,0.68
				c0.069,0.539,0.518,0.574,0.518,0.574l0.045,0.535l-0.319,0.947l1.242,1.037c0.12-0.025,0.243-0.043,0.37-0.057V5.662
				c-0.459,0.135-0.836,0.262-0.986,0.355C29.868,6.268,29.592,6.148,29.024,7.24z"/>
			
				<radialGradient id="SVGID_11_" cx="427.6074" cy="-447.9453" r="123.6379" gradientTransform="matrix(0.2785 0 0 0.2785 -83.4009 144.6803)" gradientUnits="userSpaceOnUse">
				<stop  offset="0" style="stop-color:#646467"/>
				<stop  offset="0.3656" style="stop-color:#474749"/>
				<stop  offset="0.6882" style="stop-color:#696A6D"/>
				<stop  offset="1" style="stop-color:#414042"/>
			</radialGradient>
			<path fill="url(#SVGID_11_)" d="M23.27,4.391c0,0,0.021-0.191-0.032-0.445c-0.394-0.01-0.776-0.031-1.104-0.053l0.113,0.598
				L23.27,4.391z"/>
			
				<radialGradient id="SVGID_12_" cx="427.6279" cy="-448.082" r="123.5138" gradientTransform="matrix(0.2785 0 0 0.2785 -83.4009 144.6803)" gradientUnits="userSpaceOnUse">
				<stop  offset="0" style="stop-color:#646467"/>
				<stop  offset="0.3656" style="stop-color:#474749"/>
				<stop  offset="0.6882" style="stop-color:#696A6D"/>
				<stop  offset="1" style="stop-color:#414042"/>
			</radialGradient>
			<path fill="url(#SVGID_12_)" d="M14.892,1.541c0.604-0.211,1.094-0.289,1.094-0.289s0.205,0.207,0.455,0.49
				c0.158-0.088,0.305-0.188,0.436-0.297c0.345-0.291,0.616-0.604,0.83-0.9h-2.674c-0.031,0.281-0.068,0.59-0.109,0.869
				C14.917,1.457,14.906,1.502,14.892,1.541z"/>
			
				<radialGradient id="SVGID_13_" cx="427.6104" cy="-447.9863" r="123.5737" gradientTransform="matrix(0.2785 0 0 0.2785 -83.4009 144.6803)" gradientUnits="userSpaceOnUse">
				<stop  offset="0" style="stop-color:#646467"/>
				<stop  offset="0.3656" style="stop-color:#474749"/>
				<stop  offset="0.6882" style="stop-color:#696A6D"/>
				<stop  offset="1" style="stop-color:#414042"/>
			</radialGradient>
			<path fill="url(#SVGID_13_)" d="M14.695,8.025c0,0,0.133,0.309,0.365,0.691c0.473-0.342,0.873-0.51,0.984-0.553
				c-0.001-0.039,0-0.078,0-0.119l-1.199-0.174L14.695,8.025z"/>
			
				<radialGradient id="SVGID_14_" cx="427.6484" cy="-448.1025" r="123.4158" gradientTransform="matrix(0.2785 0 0 0.2785 -83.4009 144.6803)" gradientUnits="userSpaceOnUse">
				<stop  offset="0" style="stop-color:#646467"/>
				<stop  offset="0.3656" style="stop-color:#474749"/>
				<stop  offset="0.6882" style="stop-color:#696A6D"/>
				<stop  offset="1" style="stop-color:#414042"/>
			</radialGradient>
			<path fill="url(#SVGID_14_)" d="M29.715,3.148c-0.273,0.162-0.561,0.318-0.818,0.451l0.101,0.127L29.715,3.148z"/>
			
				<radialGradient id="SVGID_15_" cx="427.6475" cy="-448.0137" r="123.6044" gradientTransform="matrix(0.2785 0 0 0.2785 -83.4009 144.6803)" gradientUnits="userSpaceOnUse">
				<stop  offset="0" style="stop-color:#646467"/>
				<stop  offset="0.3656" style="stop-color:#474749"/>
				<stop  offset="0.6882" style="stop-color:#696A6D"/>
				<stop  offset="1" style="stop-color:#414042"/>
			</radialGradient>
			<path fill="url(#SVGID_15_)" d="M24.516,6.203c0,0,0.169,0.51,0.094,0.783c-0.074,0.271-0.377,0.742-0.377,0.742
				s1.332,0.057,1.523-0.723s0.381-1.797,0.381-1.797l-0.603-0.113L24.516,6.203z"/>
			
				<radialGradient id="SVGID_16_" cx="427.6387" cy="-447.9966" r="123.5989" gradientTransform="matrix(0.2785 0 0 0.2785 -83.4009 144.6803)" gradientUnits="userSpaceOnUse">
				<stop  offset="0" style="stop-color:#646467"/>
				<stop  offset="0.3656" style="stop-color:#474749"/>
				<stop  offset="0.6882" style="stop-color:#696A6D"/>
				<stop  offset="1" style="stop-color:#414042"/>
			</radialGradient>
			<path fill="url(#SVGID_16_)" d="M6.525,7.305c0.156,0.068,0.329,0.133,0.52,0.189c0.566,0.176,1.162,0.18,1.73,0.088
				C8.833,7.086,8.894,6.76,8.894,6.76S7.172,7.275,6.525,7.305z"/>
			
				<radialGradient id="SVGID_17_" cx="427.6455" cy="-447.9717" r="123.6272" gradientTransform="matrix(0.2785 0 0 0.2785 -83.4009 144.6803)" gradientUnits="userSpaceOnUse">
				<stop  offset="0" style="stop-color:#646467"/>
				<stop  offset="0.3656" style="stop-color:#474749"/>
				<stop  offset="0.6882" style="stop-color:#696A6D"/>
				<stop  offset="1" style="stop-color:#414042"/>
			</radialGradient>
			<path fill="url(#SVGID_17_)" d="M15.563,10.393c0.148,0.082,0.394,0.219,0.64,0.355c0.392,0.215,0.613-0.463,0.613-0.463
				s-0.567-0.799-0.73-1.686l0.032,1.258L15.563,10.393z"/>
			
				<radialGradient id="SVGID_18_" cx="427.6367" cy="-448.0137" r="123.5839" gradientTransform="matrix(0.2785 0 0 0.2785 -83.4009 144.6803)" gradientUnits="userSpaceOnUse">
				<stop  offset="0" style="stop-color:#646467"/>
				<stop  offset="0.3656" style="stop-color:#474749"/>
				<stop  offset="0.6882" style="stop-color:#696A6D"/>
				<stop  offset="1" style="stop-color:#414042"/>
			</radialGradient>
			<path fill="url(#SVGID_18_)" d="M8.76,1.734c0.381,0.338,0.798,0.662,1.102,0.779c0.715,0.275,1.366,0.637,1.366,0.637
				l-0.054,0.135c0.59-0.578,1.806-0.748,1.806-0.748s0.061,0,0.168-0.006c0.1-0.082,0.212-0.17,0.334-0.256
				c0.032-0.064,0.256-0.512,0.3-0.771c0.048-0.281-0.171-0.77-0.171-0.77l0.143-0.189H8.855C8.759,0.895,8.707,1.299,8.76,1.734z"
				/>
			
				<radialGradient id="SVGID_19_" cx="427.6309" cy="-447.8843" r="123.7837" gradientTransform="matrix(0.2785 0 0 0.2785 -83.4009 144.6803)" gradientUnits="userSpaceOnUse">
				<stop  offset="0" style="stop-color:#646467"/>
				<stop  offset="0.3656" style="stop-color:#474749"/>
				<stop  offset="0.6882" style="stop-color:#696A6D"/>
				<stop  offset="1" style="stop-color:#414042"/>
			</radialGradient>
			<path fill="url(#SVGID_19_)" d="M29.094,0.877c0,0-0.041,0.031-0.112,0.088c0.326-0.111,0.639-0.248,0.911-0.42h-2.568
				c-0.004,0.012-0.008,0.023-0.012,0.037L29.094,0.877z"/>
			
				<radialGradient id="SVGID_20_" cx="427.5703" cy="-448.6162" r="121.6629" gradientTransform="matrix(0.2785 0 0 0.2785 -83.4009 144.6803)" gradientUnits="userSpaceOnUse">
				<stop  offset="0" style="stop-color:#646467"/>
				<stop  offset="0.3656" style="stop-color:#474749"/>
				<stop  offset="0.6882" style="stop-color:#696A6D"/>
				<stop  offset="1" style="stop-color:#414042"/>
			</radialGradient>
			<path fill="url(#SVGID_20_)" d="M30.971,11.104l-0.085-0.07c-0.099,0.021-0.196,0.047-0.29,0.076L30.971,11.104z"/>
			
				<radialGradient id="SVGID_21_" cx="427.6201" cy="-448.0098" r="123.5692" gradientTransform="matrix(0.2785 0 0 0.2785 -83.4009 144.6803)" gradientUnits="userSpaceOnUse">
				<stop  offset="0" style="stop-color:#646467"/>
				<stop  offset="0.3656" style="stop-color:#474749"/>
				<stop  offset="0.6882" style="stop-color:#696A6D"/>
				<stop  offset="1" style="stop-color:#414042"/>
			</radialGradient>
			<path fill="url(#SVGID_21_)" d="M29.012,7.26c-0.24-0.258-0.504-0.443-0.504-0.443s-0.014,0.332-0.748,0.676
				s-1.219,0.637-1.219,0.637l0.418,2.137c0,0,0.299-0.217,0.57-0.133c0.024-0.332,0.077-0.633,0.176-0.82
				C28.042,8.682,28.45,8.336,29.012,7.26z"/>
			
				<radialGradient id="SVGID_22_" cx="427.6006" cy="-448.0034" r="123.5601" gradientTransform="matrix(0.2785 0 0 0.2785 -83.4009 144.6803)" gradientUnits="userSpaceOnUse">
				<stop  offset="0" style="stop-color:#646467"/>
				<stop  offset="0.3656" style="stop-color:#474749"/>
				<stop  offset="0.6882" style="stop-color:#696A6D"/>
				<stop  offset="1" style="stop-color:#414042"/>
			</radialGradient>
			<path fill="url(#SVGID_22_)" d="M3.217,2.451l0.997,0.551c0,0,0.041-0.367,0.388-0.797C4.394,1.461,4.19,0.75,4.132,0.545H3.675
				C3.845,1.221,3.508,1.582,3.217,2.451z"/>
			
				<radialGradient id="SVGID_23_" cx="369.4941" cy="-474.9932" r="155.2033" gradientTransform="matrix(0.2785 0 0 0.2785 -83.4009 144.6803)" gradientUnits="userSpaceOnUse">
				<stop  offset="0" style="stop-color:#58595B"/>
				<stop  offset="0.1742" style="stop-color:#4D4E50"/>
				<stop  offset="0.3656" style="stop-color:#464647"/>
				<stop  offset="0.5499" style="stop-color:#4C4C4E"/>
				<stop  offset="0.7258" style="stop-color:#57575A"/>
				<stop  offset="1" style="stop-color:#414042"/>
			</radialGradient>
			<path fill="url(#SVGID_23_)" d="M12.115,3.795l0.533-0.814c0,0,0.191-0.197,0.5-0.449c-0.107,0.006-0.168,0.006-0.168,0.006
				s-1.216,0.17-1.806,0.748L10.96,3.818L12.115,3.795z"/>
			
				<radialGradient id="SVGID_24_" cx="427.6689" cy="-448.0469" r="123.5935" gradientTransform="matrix(0.2785 0 0 0.2785 -83.4009 144.6803)" gradientUnits="userSpaceOnUse">
				<stop  offset="0" style="stop-color:#646467"/>
				<stop  offset="0.3656" style="stop-color:#474749"/>
				<stop  offset="0.6882" style="stop-color:#696A6D"/>
				<stop  offset="1" style="stop-color:#414042"/>
			</radialGradient>
			<path fill="url(#SVGID_24_)" d="M12.115,3.795l0.533-0.814c0,0,0.191-0.197,0.5-0.449c-0.107,0.006-0.168,0.006-0.168,0.006
				s-1.216,0.17-1.806,0.748L10.96,3.818L12.115,3.795z"/>
			
				<radialGradient id="SVGID_25_" cx="369.4805" cy="-474.9814" r="155.202" gradientTransform="matrix(0.2785 0 0 0.2785 -83.4009 144.6803)" gradientUnits="userSpaceOnUse">
				<stop  offset="0" style="stop-color:#58595B"/>
				<stop  offset="0.1742" style="stop-color:#4D4E50"/>
				<stop  offset="0.3656" style="stop-color:#464647"/>
				<stop  offset="0.5499" style="stop-color:#4C4C4E"/>
				<stop  offset="0.7258" style="stop-color:#57575A"/>
				<stop  offset="1" style="stop-color:#414042"/>
			</radialGradient>
			<path fill="url(#SVGID_25_)" d="M14.845,7.871l1.199,0.174c0.027-0.881,0.426-1.848,0.426-1.848L14.845,7.871z"/>
			
				<radialGradient id="SVGID_26_" cx="427.626" cy="-448.0283" r="123.5652" gradientTransform="matrix(0.2785 0 0 0.2785 -83.4009 144.6803)" gradientUnits="userSpaceOnUse">
				<stop  offset="0" style="stop-color:#646467"/>
				<stop  offset="0.3656" style="stop-color:#474749"/>
				<stop  offset="0.6882" style="stop-color:#696A6D"/>
				<stop  offset="1" style="stop-color:#414042"/>
			</radialGradient>
			<path fill="url(#SVGID_26_)" d="M14.845,7.871l1.199,0.174c0.027-0.881,0.426-1.848,0.426-1.848L14.845,7.871z"/>
			
				<radialGradient id="SVGID_27_" cx="369.4785" cy="-474.9512" r="155.3014" gradientTransform="matrix(0.2785 0 0 0.2785 -83.4009 144.6803)" gradientUnits="userSpaceOnUse">
				<stop  offset="0" style="stop-color:#58595B"/>
				<stop  offset="0.1742" style="stop-color:#4D4E50"/>
				<stop  offset="0.3656" style="stop-color:#464647"/>
				<stop  offset="0.5499" style="stop-color:#4C4C4E"/>
				<stop  offset="0.7258" style="stop-color:#57575A"/>
				<stop  offset="1" style="stop-color:#414042"/>
			</radialGradient>
			<path fill="url(#SVGID_27_)" d="M16.876,1.445c-0.131,0.109-0.277,0.209-0.436,0.297c0.301,0.342,0.667,0.793,0.825,1.137
				c0.29,0.627,0.611,0.832,0.611,0.832l1.689-0.314l-0.021,0.162l2.531,0.035l0.057,0.299c0.328,0.021,0.711,0.043,1.104,0.053
				C23.18,3.656,23.03,3.291,22.66,3.033c-0.7-0.49-1.261-0.953-1.261-0.953l-1.686,0.613l-0.375-0.15c0,0-0.125-0.74,0.006-1.578
				c0.022-0.145,0.059-0.285,0.104-0.42h-1.451l-0.016,0.021l-0.02-0.021h-0.255C17.493,0.842,17.221,1.154,16.876,1.445z"/>
			
				<radialGradient id="SVGID_28_" cx="427.625" cy="-447.9756" r="123.6157" gradientTransform="matrix(0.2785 0 0 0.2785 -83.4009 144.6803)" gradientUnits="userSpaceOnUse">
				<stop  offset="0" style="stop-color:#646467"/>
				<stop  offset="0.3656" style="stop-color:#474749"/>
				<stop  offset="0.6882" style="stop-color:#696A6D"/>
				<stop  offset="1" style="stop-color:#414042"/>
			</radialGradient>
			<path fill="url(#SVGID_28_)" d="M16.876,1.445c-0.131,0.109-0.277,0.209-0.436,0.297c0.301,0.342,0.667,0.793,0.825,1.137
				c0.29,0.627,0.611,0.832,0.611,0.832l1.689-0.314l-0.021,0.162l2.531,0.035l0.057,0.299c0.328,0.021,0.711,0.043,1.104,0.053
				C23.18,3.656,23.03,3.291,22.66,3.033c-0.7-0.49-1.261-0.953-1.261-0.953l-1.686,0.613l-0.375-0.15c0,0-0.125-0.74,0.006-1.578
				c0.022-0.145,0.059-0.285,0.104-0.42h-1.451l-0.016,0.021l-0.02-0.021h-0.255C17.493,0.842,17.221,1.154,16.876,1.445z"/>
			
				<radialGradient id="SVGID_29_" cx="-3809.7026" cy="-5327.0059" r="123.5888" gradientTransform="matrix(-0.1419 0.2396 -0.2396 -0.1419 -1818.5846 169.8498)" gradientUnits="userSpaceOnUse">
				<stop  offset="0" style="stop-color:#646467"/>
				<stop  offset="0.3656" style="stop-color:#474749"/>
				<stop  offset="0.6882" style="stop-color:#696A6D"/>
				<stop  offset="1" style="stop-color:#414042"/>
			</radialGradient>
			<path fill="url(#SVGID_29_)" d="M23.836,6.166c-0.028-0.168-0.039-0.346-0.034-0.525c-0.446,0.084-1.021,0.168-1.397,0.131
				c-0.689-0.07-1.027,0.104-1.027,0.104l-0.59,1.611l-0.129-0.1l-1.322,2.158l-0.283-0.102c-0.187,0.27-0.398,0.588-0.607,0.924
				c0.275,0.096,0.667,0.154,1.078-0.033c0.777-0.354,1.461-0.6,1.461-0.6l0.332-1.764l0.319-0.246c0,0,0.703,0.271,1.357,0.813
				c0.111,0.09,0.214,0.193,0.308,0.299l0.739-1.246L24.03,7.563l0.029-0.004l0.129-0.221C24.041,7.004,23.911,6.609,23.836,6.166z"
				/>
			
				<radialGradient id="SVGID_30_" cx="369.4668" cy="-475.04" r="155.1229" gradientTransform="matrix(0.2785 0 0 0.2785 -83.4009 144.6803)" gradientUnits="userSpaceOnUse">
				<stop  offset="0" style="stop-color:#58595B"/>
				<stop  offset="0.1742" style="stop-color:#4D4E50"/>
				<stop  offset="0.3656" style="stop-color:#464647"/>
				<stop  offset="0.5499" style="stop-color:#4C4C4E"/>
				<stop  offset="0.7258" style="stop-color:#57575A"/>
				<stop  offset="1" style="stop-color:#414042"/>
			</radialGradient>
			<path fill="url(#SVGID_30_)" d="M29.094,0.877l-1.781-0.295c-0.087,0.279-0.172,0.549-0.242,0.779
				c0.526-0.057,1.245-0.17,1.911-0.396C29.053,0.908,29.094,0.877,29.094,0.877z"/>
			
				<radialGradient id="SVGID_31_" cx="427.6387" cy="-448.1206" r="123.408" gradientTransform="matrix(0.2785 0 0 0.2785 -83.4009 144.6803)" gradientUnits="userSpaceOnUse">
				<stop  offset="0" style="stop-color:#646467"/>
				<stop  offset="0.3656" style="stop-color:#474749"/>
				<stop  offset="0.6882" style="stop-color:#696A6D"/>
				<stop  offset="1" style="stop-color:#414042"/>
			</radialGradient>
			<path fill="url(#SVGID_31_)" d="M29.094,0.877l-1.781-0.295c-0.087,0.279-0.172,0.549-0.242,0.779
				c0.526-0.057,1.245-0.17,1.911-0.396C29.053,0.908,29.094,0.877,29.094,0.877z"/>
			
				<radialGradient id="SVGID_32_" cx="369.4658" cy="-474.9639" r="155.1906" gradientTransform="matrix(0.2785 0 0 0.2785 -83.4009 144.6803)" gradientUnits="userSpaceOnUse">
				<stop  offset="0" style="stop-color:#58595B"/>
				<stop  offset="0.1742" style="stop-color:#4D4E50"/>
				<stop  offset="0.3656" style="stop-color:#464647"/>
				<stop  offset="0.5499" style="stop-color:#4C4C4E"/>
				<stop  offset="0.7258" style="stop-color:#57575A"/>
				<stop  offset="1" style="stop-color:#414042"/>
			</radialGradient>
			<path fill="url(#SVGID_32_)" d="M7.044,7.494c-0.19-0.057-0.363-0.121-0.52-0.189c-0.072,0.002-0.131,0-0.172-0.01
				c-0.412-0.1-0.206,2.404-0.206,2.404l0.095,2.078l1.676,0.264c0,0-0.017-0.82,0.341-1.328c0.358-0.508,0.79-0.906,0.79-0.906
				s-0.41-0.627-0.344-1.5c0.02-0.266,0.045-0.512,0.07-0.725C8.207,7.674,7.611,7.67,7.044,7.494z"/>
			
				<radialGradient id="SVGID_33_" cx="427.5947" cy="-447.9893" r="123.5489" gradientTransform="matrix(0.2785 0 0 0.2785 -83.4009 144.6803)" gradientUnits="userSpaceOnUse">
				<stop  offset="0" style="stop-color:#646467"/>
				<stop  offset="0.3656" style="stop-color:#474749"/>
				<stop  offset="0.6882" style="stop-color:#696A6D"/>
				<stop  offset="1" style="stop-color:#414042"/>
			</radialGradient>
			<path fill="url(#SVGID_33_)" d="M7.044,7.494c-0.19-0.057-0.363-0.121-0.52-0.189c-0.072,0.002-0.131,0-0.172-0.01
				c-0.412-0.1-0.206,2.404-0.206,2.404l0.095,2.078l1.676,0.264c0,0-0.017-0.82,0.341-1.328c0.358-0.508,0.79-0.906,0.79-0.906
				s-0.41-0.627-0.344-1.5c0.02-0.266,0.045-0.512,0.07-0.725C8.207,7.674,7.611,7.67,7.044,7.494z"/>
			
				<radialGradient id="SVGID_34_" cx="369.4883" cy="-474.9688" r="155.2045" gradientTransform="matrix(0.2785 0 0 0.2785 -83.4009 144.6803)" gradientUnits="userSpaceOnUse">
				<stop  offset="0" style="stop-color:#58595B"/>
				<stop  offset="0.1742" style="stop-color:#4D4E50"/>
				<stop  offset="0.3656" style="stop-color:#464647"/>
				<stop  offset="0.5499" style="stop-color:#4C4C4E"/>
				<stop  offset="0.7258" style="stop-color:#57575A"/>
				<stop  offset="1" style="stop-color:#414042"/>
			</radialGradient>
			<path fill="url(#SVGID_34_)" d="M27.727,10.264c0.295,0.344,0.409,0.891,0.409,0.891l2.46-0.045
				c0.094-0.029,0.191-0.055,0.29-0.076l-1.242-1.037l0.319-0.947l-0.045-0.535c0,0-0.448-0.035-0.518-0.574
				c-0.028-0.234-0.202-0.479-0.389-0.68c-0.563,1.076-0.97,1.422-1.307,2.053c-0.099,0.188-0.151,0.488-0.176,0.82
				C27.598,10.154,27.667,10.195,27.727,10.264z"/>
			
				<radialGradient id="SVGID_35_" cx="427.623" cy="-447.9927" r="123.6216" gradientTransform="matrix(0.2785 0 0 0.2785 -83.4009 144.6803)" gradientUnits="userSpaceOnUse">
				<stop  offset="0" style="stop-color:#646467"/>
				<stop  offset="0.3656" style="stop-color:#474749"/>
				<stop  offset="0.6882" style="stop-color:#696A6D"/>
				<stop  offset="1" style="stop-color:#414042"/>
			</radialGradient>
			<path fill="url(#SVGID_35_)" d="M27.727,10.264c0.295,0.344,0.409,0.891,0.409,0.891l2.46-0.045
				c0.094-0.029,0.191-0.055,0.29-0.076l-1.242-1.037l0.319-0.947l-0.045-0.535c0,0-0.448-0.035-0.518-0.574
				c-0.028-0.234-0.202-0.479-0.389-0.68c-0.563,1.076-0.97,1.422-1.307,2.053c-0.099,0.188-0.151,0.488-0.176,0.82
				C27.598,10.154,27.667,10.195,27.727,10.264z"/>
			
				<radialGradient id="SVGID_36_" cx="369.499" cy="-474.9565" r="155.2945" gradientTransform="matrix(0.2785 0 0 0.2785 -83.4009 144.6803)" gradientUnits="userSpaceOnUse">
				<stop  offset="0" style="stop-color:#58595B"/>
				<stop  offset="0.1742" style="stop-color:#4D4E50"/>
				<stop  offset="0.3656" style="stop-color:#464647"/>
				<stop  offset="0.5499" style="stop-color:#4C4C4E"/>
				<stop  offset="0.7258" style="stop-color:#57575A"/>
				<stop  offset="1" style="stop-color:#414042"/>
			</radialGradient>
			<path fill="url(#SVGID_36_)" d="M3.171,2.424l0.046,0.027c0.291-0.869,0.628-1.23,0.458-1.906H3.658
				C3.656,0.563,3.656,0.58,3.654,0.598C3.586,1.354,3.171,2.424,3.171,2.424z"/>
			
				<radialGradient id="SVGID_37_" cx="427.666" cy="-447.9839" r="123.624" gradientTransform="matrix(0.2785 0 0 0.2785 -83.4009 144.6803)" gradientUnits="userSpaceOnUse">
				<stop  offset="0" style="stop-color:#646467"/>
				<stop  offset="0.3656" style="stop-color:#474749"/>
				<stop  offset="0.6882" style="stop-color:#696A6D"/>
				<stop  offset="1" style="stop-color:#414042"/>
			</radialGradient>
			<path fill="url(#SVGID_37_)" d="M3.171,2.424l0.046,0.027c0.291-0.869,0.628-1.23,0.458-1.906H3.658
				C3.656,0.563,3.656,0.58,3.654,0.598C3.586,1.354,3.171,2.424,3.171,2.424z"/>
			
				<radialGradient id="SVGID_38_" cx="369.4795" cy="-474.9473" r="155.2765" gradientTransform="matrix(0.2785 0 0 0.2785 -83.4009 144.6803)" gradientUnits="userSpaceOnUse">
				<stop  offset="0" style="stop-color:#58595B"/>
				<stop  offset="0.1742" style="stop-color:#4D4E50"/>
				<stop  offset="0.3656" style="stop-color:#464647"/>
				<stop  offset="0.5499" style="stop-color:#4C4C4E"/>
				<stop  offset="0.7258" style="stop-color:#57575A"/>
				<stop  offset="1" style="stop-color:#414042"/>
			</radialGradient>
			<path fill="url(#SVGID_38_)" d="M5.66,1.402C7,0.762,7.786,0.789,7.786,0.789S8.24,1.271,8.76,1.734
				c-0.054-0.436-0.001-0.84,0.095-1.189H4.132c0.058,0.205,0.262,0.916,0.47,1.66C4.816,1.936,5.148,1.646,5.66,1.402z"/>
			
				<radialGradient id="SVGID_39_" cx="427.625" cy="-447.9692" r="123.5981" gradientTransform="matrix(0.2785 0 0 0.2785 -83.4009 144.6803)" gradientUnits="userSpaceOnUse">
				<stop  offset="0" style="stop-color:#646467"/>
				<stop  offset="0.3656" style="stop-color:#474749"/>
				<stop  offset="0.6882" style="stop-color:#696A6D"/>
				<stop  offset="1" style="stop-color:#414042"/>
			</radialGradient>
			<path fill="url(#SVGID_39_)" d="M5.66,1.402C7,0.762,7.786,0.789,7.786,0.789S8.24,1.271,8.76,1.734
				c-0.054-0.436-0.001-0.84,0.095-1.189H4.132c0.058,0.205,0.262,0.916,0.47,1.66C4.816,1.936,5.148,1.646,5.66,1.402z"/>
			
				<radialGradient id="SVGID_40_" cx="375.6094" cy="-468.502" r="139.6907" gradientTransform="matrix(0.2785 0 0 0.2785 -83.4009 144.6803)" gradientUnits="userSpaceOnUse">
				<stop  offset="0" style="stop-color:#58595B"/>
				<stop  offset="1" style="stop-color:#414042"/>
			</radialGradient>
			<path fill="url(#SVGID_40_)" d="M15.236,8.986c-0.063-0.092-0.123-0.184-0.176-0.27c-0.421,0.305-0.898,0.746-1.277,1.367
				c-0.881,1.436,0.171,1.859,0.171,1.859l1.609-1.551c-0.088-0.049-0.142-0.078-0.142-0.078S15.576,9.482,15.236,8.986z"/>
			
				<radialGradient id="SVGID_41_" cx="375.6611" cy="-468.5151" r="139.7868" gradientTransform="matrix(0.2785 0 0 0.2785 -83.4009 144.6803)" gradientUnits="userSpaceOnUse">
				<stop  offset="0" style="stop-color:#58595B"/>
				<stop  offset="1" style="stop-color:#414042"/>
			</radialGradient>
			<path fill="url(#SVGID_41_)" d="M3.822,12.453h0.837c-0.13-0.217-0.28-0.434-0.452-0.619C4.107,12.066,3.992,12.281,3.822,12.453
				z"/>
			
				<radialGradient id="SVGID_42_" cx="375.6094" cy="-468.3608" r="140.0256" gradientTransform="matrix(0.2785 0 0 0.2785 -83.4009 144.6803)" gradientUnits="userSpaceOnUse">
				<stop  offset="0" style="stop-color:#58595B"/>
				<stop  offset="1" style="stop-color:#414042"/>
			</radialGradient>
			<path fill="url(#SVGID_42_)" d="M14.892,1.541c-0.222,0.078-0.457,0.174-0.689,0.291c-0.262,0.133-0.506,0.289-0.721,0.443
				c-0.002,0.004-0.004,0.008-0.004,0.008S14.66,2.215,14.892,1.541z"/>
			
				<radialGradient id="SVGID_43_" cx="375.6201" cy="-468.5127" r="139.6892" gradientTransform="matrix(0.2785 0 0 0.2785 -83.4009 144.6803)" gradientUnits="userSpaceOnUse">
				<stop  offset="0" style="stop-color:#58595B"/>
				<stop  offset="1" style="stop-color:#414042"/>
			</radialGradient>
			<path fill="url(#SVGID_43_)" d="M0.956,10.871l0.733-1.244c0.097-0.422-0.055-0.732-0.055-0.732s0.168-0.576,0.545-0.283
				c0.047,0.035,0.076,0.045,0.09,0.033l0.009-0.014c0.046-0.154-0.519-1.189-0.519-1.189L1.488,6.756c0,0,1.154,0.311,1.479-0.158
				s0.805-1.111,0.805-1.111S3.385,5.57,2.935,4.752C2.486,3.936,2.283,5.191,1.492,5.055c-0.273-0.049-0.53-0.15-0.75-0.266v6.719
				c0,0.299,0.139,0.564,0.355,0.738c0.063-0.313,0.17-0.834,0.277-1.33C1.119,10.885,0.956,10.871,0.956,10.871z"/>
			
				<radialGradient id="SVGID_44_" cx="375.6025" cy="-468.5244" r="139.614" gradientTransform="matrix(0.2785 0 0 0.2785 -83.4009 144.6803)" gradientUnits="userSpaceOnUse">
				<stop  offset="0" style="stop-color:#58595B"/>
				<stop  offset="1" style="stop-color:#414042"/>
			</radialGradient>
			<path fill="url(#SVGID_44_)" d="M28.079,4.006c0,0,0.36-0.168,0.818-0.406l-0.521-0.658l-0.788-0.146l-0.385-0.402
				c-0.058,0.049-0.114,0.096-0.171,0.143c0.052,0.123,0.138,0.279,0.282,0.461C27.698,3.477,28.079,4.006,28.079,4.006z"/>
			
				<radialGradient id="SVGID_45_" cx="375.125" cy="-468.5386" r="137.9228" gradientTransform="matrix(0.2785 0 0 0.2785 -83.4009 144.6803)" gradientUnits="userSpaceOnUse">
				<stop  offset="0" style="stop-color:#58595B"/>
				<stop  offset="1" style="stop-color:#414042"/>
			</radialGradient>
			<path fill="url(#SVGID_45_)" d="M16.085,8.6l-0.012-0.447c0,0-0.01,0.006-0.029,0.012c0,0.088,0.004,0.172,0.015,0.258
				C16.066,8.482,16.075,8.541,16.085,8.6z"/>
			
				<radialGradient id="SVGID_46_" cx="375.7949" cy="-467.8501" r="140.757" gradientTransform="matrix(0.2785 0 0 0.2785 -83.4009 144.6803)" gradientUnits="userSpaceOnUse">
				<stop  offset="0" style="stop-color:#58595B"/>
				<stop  offset="1" style="stop-color:#414042"/>
			</radialGradient>
			<path fill="url(#SVGID_46_)" d="M29.872,3.02l-0.156,0.129c0.041-0.027,0.084-0.051,0.125-0.076
				C29.85,3.055,29.862,3.037,29.872,3.02z"/>
			
				<radialGradient id="SVGID_47_" cx="375.6377" cy="-468.5034" r="139.6137" gradientTransform="matrix(0.2785 0 0 0.2785 -83.4009 144.6803)" gradientUnits="userSpaceOnUse">
				<stop  offset="0" style="stop-color:#58595B"/>
				<stop  offset="1" style="stop-color:#414042"/>
			</radialGradient>
			<path fill="url(#SVGID_47_)" d="M30.09,2.646c0.182-0.324,0.364-0.693,0.468-1.023c0.093-0.295,0.2-0.613,0.298-0.902
				c-0.021-0.014-0.045-0.025-0.07-0.041c-0.047,0.076-0.088,0.156-0.12,0.242C30.465,1.451,30.215,2.242,30.09,2.646z"/>
			
				<radialGradient id="SVGID_48_" cx="375.6221" cy="-468.5156" r="139.6888" gradientTransform="matrix(0.2785 0 0 0.2785 -83.4009 144.6803)" gradientUnits="userSpaceOnUse">
				<stop  offset="0" style="stop-color:#58595B"/>
				<stop  offset="1" style="stop-color:#414042"/>
			</radialGradient>
			<path fill="url(#SVGID_48_)" d="M6.344,5.547c0,0-0.382-0.441-0.671-1.039c-0.28-0.031-0.512-0.119-0.545-0.322
				c-0.025-0.16-0.207-0.836-0.41-1.564L4.013,3.502c0,0,0.246,0.449,0.633,0.906c0.387,0.459,0.313,1.303,0.313,1.303
				s0.003,0.002,0.007,0.004C5.005,5.59,5.027,5.516,5.027,5.516s-0.008,0.09,0.019,0.232c0.142,0.061,0.438,0.189,0.735,0.316
				C6.19,6.242,6.344,5.547,6.344,5.547z"/>
			
				<radialGradient id="SVGID_49_" cx="368.9453" cy="-474.9644" r="153.9321" gradientTransform="matrix(0.2785 0 0 0.2785 -83.4009 144.6803)" gradientUnits="userSpaceOnUse">
				<stop  offset="0" style="stop-color:#58595B"/>
				<stop  offset="0.1742" style="stop-color:#4D4E50"/>
				<stop  offset="0.3656" style="stop-color:#464647"/>
				<stop  offset="0.5499" style="stop-color:#4C4C4E"/>
				<stop  offset="0.7258" style="stop-color:#57575A"/>
				<stop  offset="1" style="stop-color:#414042"/>
			</radialGradient>
			<path fill="url(#SVGID_49_)" d="M5.027,5.516c0,0-0.021,0.074-0.061,0.199C4.978,5.719,5.005,5.73,5.045,5.748
				C5.019,5.605,5.027,5.516,5.027,5.516z"/>
			
				<radialGradient id="SVGID_50_" cx="375.0049" cy="-468.5" r="138.5377" gradientTransform="matrix(0.2785 0 0 0.2785 -83.4009 144.6803)" gradientUnits="userSpaceOnUse">
				<stop  offset="0" style="stop-color:#58595B"/>
				<stop  offset="1" style="stop-color:#414042"/>
			</radialGradient>
			<path fill="url(#SVGID_50_)" d="M5.027,5.516c0,0-0.021,0.074-0.061,0.199C4.978,5.719,5.005,5.73,5.045,5.748
				C5.019,5.605,5.027,5.516,5.027,5.516z"/>
			
				<radialGradient id="SVGID_51_" cx="369.4297" cy="-474.9717" r="155.1214" gradientTransform="matrix(0.2785 0 0 0.2785 -83.4009 144.6803)" gradientUnits="userSpaceOnUse">
				<stop  offset="0" style="stop-color:#58595B"/>
				<stop  offset="0.1742" style="stop-color:#4D4E50"/>
				<stop  offset="0.3656" style="stop-color:#464647"/>
				<stop  offset="0.5499" style="stop-color:#4C4C4E"/>
				<stop  offset="0.7258" style="stop-color:#57575A"/>
				<stop  offset="1" style="stop-color:#414042"/>
			</radialGradient>
			<path fill="url(#SVGID_51_)" d="M1.375,10.916c0.109-0.504,0.219-0.979,0.281-1.168c0.014-0.043,0.023-0.082,0.033-0.121
				l-0.733,1.244C0.956,10.871,1.119,10.885,1.375,10.916z"/>
			
				<radialGradient id="SVGID_52_" cx="375.5469" cy="-468.5083" r="139.5494" gradientTransform="matrix(0.2785 0 0 0.2785 -83.4009 144.6803)" gradientUnits="userSpaceOnUse">
				<stop  offset="0" style="stop-color:#58595B"/>
				<stop  offset="1" style="stop-color:#414042"/>
			</radialGradient>
			<path fill="url(#SVGID_52_)" d="M1.375,10.916c0.109-0.504,0.219-0.979,0.281-1.168c0.014-0.043,0.023-0.082,0.033-0.121
				l-0.733,1.244C0.956,10.871,1.119,10.885,1.375,10.916z"/>
			
				<radialGradient id="SVGID_53_" cx="373.3945" cy="-475.5186" r="164.3659" gradientTransform="matrix(0.2785 0 0 0.2785 -83.4009 144.6803)" gradientUnits="userSpaceOnUse">
				<stop  offset="0" style="stop-color:#58595B"/>
				<stop  offset="0.1742" style="stop-color:#4D4E50"/>
				<stop  offset="0.3656" style="stop-color:#464647"/>
				<stop  offset="0.5499" style="stop-color:#4C4C4E"/>
				<stop  offset="0.7258" style="stop-color:#57575A"/>
				<stop  offset="1" style="stop-color:#414042"/>
			</radialGradient>
			<path fill="url(#SVGID_53_)" d="M2.278,8.631L2.269,8.645C2.273,8.641,2.276,8.637,2.278,8.631z"/>
			
				<radialGradient id="SVGID_54_" cx="379.9043" cy="-469.3179" r="147.3938" gradientTransform="matrix(0.2785 0 0 0.2785 -83.4009 144.6803)" gradientUnits="userSpaceOnUse">
				<stop  offset="0" style="stop-color:#58595B"/>
				<stop  offset="1" style="stop-color:#414042"/>
			</radialGradient>
			<path fill="url(#SVGID_54_)" d="M2.278,8.631L2.269,8.645C2.273,8.641,2.276,8.637,2.278,8.631z"/>
			
				<radialGradient id="SVGID_55_" cx="369.4355" cy="-474.9619" r="155.1507" gradientTransform="matrix(0.2785 0 0 0.2785 -83.4009 144.6803)" gradientUnits="userSpaceOnUse">
				<stop  offset="0" style="stop-color:#58595B"/>
				<stop  offset="0.1742" style="stop-color:#4D4E50"/>
				<stop  offset="0.3656" style="stop-color:#464647"/>
				<stop  offset="0.5499" style="stop-color:#4C4C4E"/>
				<stop  offset="0.7258" style="stop-color:#57575A"/>
				<stop  offset="1" style="stop-color:#414042"/>
			</radialGradient>
			<path fill="url(#SVGID_55_)" d="M5.673,4.508C5.564,4.277,5.466,4.025,5.41,3.764C5.318,3.336,5.349,2.832,5.412,2.406
				c0.074-0.504,0.191-0.895,0.191-0.895L5,2.268L4.718,2.621c0.203,0.729,0.385,1.404,0.41,1.564
				C5.162,4.389,5.393,4.477,5.673,4.508z"/>
			
				<radialGradient id="SVGID_56_" cx="375.5527" cy="-468.4976" r="139.5799" gradientTransform="matrix(0.2785 0 0 0.2785 -83.4009 144.6803)" gradientUnits="userSpaceOnUse">
				<stop  offset="0" style="stop-color:#58595B"/>
				<stop  offset="1" style="stop-color:#414042"/>
			</radialGradient>
			<path fill="url(#SVGID_56_)" d="M5.673,4.508C5.564,4.277,5.466,4.025,5.41,3.764C5.318,3.336,5.349,2.832,5.412,2.406
				c0.074-0.504,0.191-0.895,0.191-0.895L5,2.268L4.718,2.621c0.203,0.729,0.385,1.404,0.41,1.564
				C5.162,4.389,5.393,4.477,5.673,4.508z"/>
			
				<radialGradient id="SVGID_57_" cx="369.4805" cy="-474.9497" r="155.2719" gradientTransform="matrix(0.2785 0 0 0.2785 -83.4009 144.6803)" gradientUnits="userSpaceOnUse">
				<stop  offset="0" style="stop-color:#58595B"/>
				<stop  offset="0.1742" style="stop-color:#4D4E50"/>
				<stop  offset="0.3656" style="stop-color:#464647"/>
				<stop  offset="0.5499" style="stop-color:#4C4C4E"/>
				<stop  offset="0.7258" style="stop-color:#57575A"/>
				<stop  offset="1" style="stop-color:#414042"/>
			</radialGradient>
			<path fill="url(#SVGID_57_)" d="M30.09,2.646c-0.049,0.16-0.08,0.262-0.08,0.262L29.872,3.02
				c-0.01,0.018-0.021,0.035-0.031,0.053c0.389-0.238,0.731-0.482,0.882-0.684c0.171-0.227,0.349-0.41,0.534-0.58V1.381
				c0-0.289-0.164-0.516-0.4-0.66c-0.098,0.289-0.205,0.607-0.298,0.902C30.455,1.953,30.272,2.322,30.09,2.646z"/>
			
				<radialGradient id="SVGID_58_" cx="375.6025" cy="-468.4839" r="139.6961" gradientTransform="matrix(0.2785 0 0 0.2785 -83.4009 144.6803)" gradientUnits="userSpaceOnUse">
				<stop  offset="0" style="stop-color:#58595B"/>
				<stop  offset="1" style="stop-color:#414042"/>
			</radialGradient>
			<path fill="url(#SVGID_58_)" d="M30.09,2.646c-0.049,0.16-0.08,0.262-0.08,0.262L29.872,3.02
				c-0.01,0.018-0.021,0.035-0.031,0.053c0.389-0.238,0.731-0.482,0.882-0.684c0.171-0.227,0.349-0.41,0.534-0.58V1.381
				c0-0.289-0.164-0.516-0.4-0.66c-0.098,0.289-0.205,0.607-0.298,0.902C30.455,1.953,30.272,2.322,30.09,2.646z"/>
			
				<radialGradient id="SVGID_59_" cx="369.4834" cy="-474.9736" r="155.2524" gradientTransform="matrix(0.2785 0 0 0.2785 -83.4009 144.6803)" gradientUnits="userSpaceOnUse">
				<stop  offset="0" style="stop-color:#58595B"/>
				<stop  offset="0.1742" style="stop-color:#4D4E50"/>
				<stop  offset="0.3656" style="stop-color:#464647"/>
				<stop  offset="0.5499" style="stop-color:#4C4C4E"/>
				<stop  offset="0.7258" style="stop-color:#57575A"/>
				<stop  offset="1" style="stop-color:#414042"/>
			</radialGradient>
			<path fill="url(#SVGID_59_)" d="M4.712,10.795c-0.236,0.324-0.357,0.699-0.506,1.039c0.172,0.186,0.322,0.402,0.452,0.619H5.71
				c-0.048-0.408-0.132-0.732-0.132-0.732S5.249,10.061,4.712,10.795z"/>
			
				<radialGradient id="SVGID_60_" cx="375.6064" cy="-468.5132" r="139.6653" gradientTransform="matrix(0.2785 0 0 0.2785 -83.4009 144.6803)" gradientUnits="userSpaceOnUse">
				<stop  offset="0" style="stop-color:#58595B"/>
				<stop  offset="1" style="stop-color:#414042"/>
			</radialGradient>
			<path fill="url(#SVGID_60_)" d="M4.712,10.795c-0.236,0.324-0.357,0.699-0.506,1.039c0.172,0.186,0.322,0.402,0.452,0.619H5.71
				c-0.048-0.408-0.132-0.732-0.132-0.732S5.249,10.061,4.712,10.795z"/>
			
				<radialGradient id="SVGID_61_" cx="369.4766" cy="-474.9351" r="155.3436" gradientTransform="matrix(0.2785 0 0 0.2785 -83.4009 144.6803)" gradientUnits="userSpaceOnUse">
				<stop  offset="0" style="stop-color:#58595B"/>
				<stop  offset="0.1742" style="stop-color:#4D4E50"/>
				<stop  offset="0.3656" style="stop-color:#464647"/>
				<stop  offset="0.5499" style="stop-color:#4C4C4E"/>
				<stop  offset="0.7258" style="stop-color:#57575A"/>
				<stop  offset="1" style="stop-color:#414042"/>
			</radialGradient>
			<path fill="url(#SVGID_61_)" d="M26.867,2.039c0,0,0.083-0.279,0.204-0.678C26.61,1.414,26.297,1.42,26.297,1.42
				s-0.354,0.049-0.771,0.184c-0.238,0.334-0.46,0.584-0.46,0.584l1.89,0.021c0,0-0.011,0.117,0.076,0.326
				c0.057-0.047,0.113-0.094,0.171-0.143L26.867,2.039z"/>
			
				<radialGradient id="SVGID_62_" cx="375.5996" cy="-468.4663" r="139.7683" gradientTransform="matrix(0.2785 0 0 0.2785 -83.4009 144.6803)" gradientUnits="userSpaceOnUse">
				<stop  offset="0" style="stop-color:#58595B"/>
				<stop  offset="1" style="stop-color:#414042"/>
			</radialGradient>
			<path fill="url(#SVGID_62_)" d="M26.867,2.039c0,0,0.083-0.279,0.204-0.678C26.61,1.414,26.297,1.42,26.297,1.42
				s-0.354,0.049-0.771,0.184c-0.238,0.334-0.46,0.584-0.46,0.584l1.89,0.021c0,0-0.011,0.117,0.076,0.326
				c0.057-0.047,0.113-0.094,0.171-0.143L26.867,2.039z"/>
			
				<radialGradient id="SVGID_63_" cx="427.624" cy="-448.0098" r="123.577" gradientTransform="matrix(0.2785 0 0 0.2785 -83.4009 144.6803)" gradientUnits="userSpaceOnUse">
				<stop  offset="0" style="stop-color:#646467"/>
				<stop  offset="0.3656" style="stop-color:#474749"/>
				<stop  offset="0.6882" style="stop-color:#696A6D"/>
				<stop  offset="1" style="stop-color:#414042"/>
			</radialGradient>
			<path fill="url(#SVGID_63_)" d="M27.204,2.393l0.385,0.402l0.788,0.146L28.897,3.6c0.258-0.133,0.545-0.289,0.818-0.451
				l0.156-0.129c0.069-0.111,0.144-0.238,0.219-0.373c0.125-0.404,0.375-1.195,0.575-1.725c0.032-0.086,0.073-0.166,0.12-0.242
				c-0.173-0.088-0.377-0.135-0.578-0.135h-0.314c-0.272,0.172-0.585,0.309-0.911,0.42C28.698,1.186,27.922,1.793,27.204,2.393z"/>
			
				<radialGradient id="SVGID_64_" cx="375.6035" cy="-468.5103" r="139.6457" gradientTransform="matrix(0.2785 0 0 0.2785 -83.4009 144.6803)" gradientUnits="userSpaceOnUse">
				<stop  offset="0" style="stop-color:#58595B"/>
				<stop  offset="1" style="stop-color:#414042"/>
			</radialGradient>
			<path fill="url(#SVGID_64_)" d="M27.204,2.393l0.385,0.402l0.788,0.146L28.897,3.6c0.258-0.133,0.545-0.289,0.818-0.451
				l0.156-0.129c0.069-0.111,0.144-0.238,0.219-0.373c0.125-0.404,0.375-1.195,0.575-1.725c0.032-0.086,0.073-0.166,0.12-0.242
				c-0.173-0.088-0.377-0.135-0.578-0.135h-0.314c-0.272,0.172-0.585,0.309-0.911,0.42C28.698,1.186,27.922,1.793,27.204,2.393z"/>
			
				<radialGradient id="SVGID_65_" cx="427.6328" cy="-448.0039" r="123.5913" gradientTransform="matrix(0.2785 0 0 0.2785 -83.4009 144.6803)" gradientUnits="userSpaceOnUse">
				<stop  offset="0" style="stop-color:#646467"/>
				<stop  offset="0.3656" style="stop-color:#474749"/>
				<stop  offset="0.6882" style="stop-color:#696A6D"/>
				<stop  offset="1" style="stop-color:#414042"/>
			</radialGradient>
			<path fill="url(#SVGID_65_)" d="M15.236,8.986c0.34,0.496,0.186,1.328,0.186,1.328s0.054,0.029,0.142,0.078l0.555-0.535
				L16.085,8.6c-0.011-0.059-0.02-0.117-0.026-0.178c-0.011-0.086-0.015-0.17-0.015-0.258c-0.111,0.043-0.512,0.211-0.984,0.553
				C15.113,8.803,15.172,8.895,15.236,8.986z"/>
			
				<radialGradient id="SVGID_66_" cx="375.6035" cy="-468.5073" r="139.6669" gradientTransform="matrix(0.2785 0 0 0.2785 -83.4009 144.6803)" gradientUnits="userSpaceOnUse">
				<stop  offset="0" style="stop-color:#58595B"/>
				<stop  offset="1" style="stop-color:#414042"/>
			</radialGradient>
			<path fill="url(#SVGID_66_)" d="M15.236,8.986c0.34,0.496,0.186,1.328,0.186,1.328s0.054,0.029,0.142,0.078l0.555-0.535
				L16.085,8.6c-0.011-0.059-0.02-0.117-0.026-0.178c-0.011-0.086-0.015-0.17-0.015-0.258c-0.111,0.043-0.512,0.211-0.984,0.553
				C15.113,8.803,15.172,8.895,15.236,8.986z"/>
			
				<radialGradient id="SVGID_67_" cx="427.667" cy="-447.9473" r="123.6629" gradientTransform="matrix(0.2785 0 0 0.2785 -83.4009 144.6803)" gradientUnits="userSpaceOnUse">
				<stop  offset="0" style="stop-color:#646467"/>
				<stop  offset="0.3656" style="stop-color:#474749"/>
				<stop  offset="0.6882" style="stop-color:#696A6D"/>
				<stop  offset="1" style="stop-color:#414042"/>
			</radialGradient>
			<path fill="url(#SVGID_67_)" d="M13.782,1.504c-0.044,0.26-0.268,0.707-0.3,0.771c0.215-0.154,0.459-0.311,0.721-0.443
				c0.232-0.117,0.468-0.213,0.689-0.291c0.014-0.039,0.025-0.084,0.031-0.127c0.041-0.279,0.078-0.588,0.109-0.869h-1.279
				l-0.143,0.189C13.611,0.734,13.83,1.223,13.782,1.504z"/>
			
				<radialGradient id="SVGID_68_" cx="375.6152" cy="-468.4658" r="139.766" gradientTransform="matrix(0.2785 0 0 0.2785 -83.4009 144.6803)" gradientUnits="userSpaceOnUse">
				<stop  offset="0" style="stop-color:#58595B"/>
				<stop  offset="1" style="stop-color:#414042"/>
			</radialGradient>
			<path fill="url(#SVGID_68_)" d="M13.782,1.504c-0.044,0.26-0.268,0.707-0.3,0.771c0.215-0.154,0.459-0.311,0.721-0.443
				c0.232-0.117,0.468-0.213,0.689-0.291c0.014-0.039,0.025-0.084,0.031-0.127c0.041-0.279,0.078-0.588,0.109-0.869h-1.279
				l-0.143,0.189C13.611,0.734,13.83,1.223,13.782,1.504z"/>
			
				<radialGradient id="SVGID_69_" cx="369.3955" cy="-474.9067" r="155.5715" gradientTransform="matrix(0.2785 0 0 0.2785 -83.4009 144.6803)" gradientUnits="userSpaceOnUse">
				<stop  offset="0" style="stop-color:#58595B"/>
				<stop  offset="0.1742" style="stop-color:#4D4E50"/>
				<stop  offset="0.3656" style="stop-color:#464647"/>
				<stop  offset="0.5499" style="stop-color:#4C4C4E"/>
				<stop  offset="0.7258" style="stop-color:#57575A"/>
				<stop  offset="1" style="stop-color:#414042"/>
			</radialGradient>
			<path fill="url(#SVGID_69_)" d="M30.09,2.646c-0.075,0.135-0.149,0.262-0.219,0.373l0.139-0.111
				C30.01,2.908,30.042,2.807,30.09,2.646z"/>
			
				<radialGradient id="SVGID_70_" cx="427.6738" cy="-447.8887" r="123.8343" gradientTransform="matrix(0.2785 0 0 0.2785 -83.4009 144.6803)" gradientUnits="userSpaceOnUse">
				<stop  offset="0" style="stop-color:#646467"/>
				<stop  offset="0.3656" style="stop-color:#474749"/>
				<stop  offset="0.6882" style="stop-color:#696A6D"/>
				<stop  offset="1" style="stop-color:#414042"/>
			</radialGradient>
			<path fill="url(#SVGID_70_)" d="M30.09,2.646c-0.075,0.135-0.149,0.262-0.219,0.373l0.139-0.111
				C30.01,2.908,30.042,2.807,30.09,2.646z"/>
			
				<radialGradient id="SVGID_71_" cx="375.5313" cy="-468.4312" r="139.9479" gradientTransform="matrix(0.2785 0 0 0.2785 -83.4009 144.6803)" gradientUnits="userSpaceOnUse">
				<stop  offset="0" style="stop-color:#58595B"/>
				<stop  offset="1" style="stop-color:#414042"/>
			</radialGradient>
			<path fill="url(#SVGID_71_)" d="M30.09,2.646c-0.075,0.135-0.149,0.262-0.219,0.373l0.139-0.111
				C30.01,2.908,30.042,2.807,30.09,2.646z"/>
			
				<radialGradient id="SVGID_72_" cx="369.4785" cy="-474.9678" r="155.2437" gradientTransform="matrix(0.2785 0 0 0.2785 -83.4009 144.6803)" gradientUnits="userSpaceOnUse">
				<stop  offset="0" style="stop-color:#58595B"/>
				<stop  offset="0.1742" style="stop-color:#4D4E50"/>
				<stop  offset="0.3656" style="stop-color:#464647"/>
				<stop  offset="0.5499" style="stop-color:#4C4C4E"/>
				<stop  offset="0.7258" style="stop-color:#57575A"/>
				<stop  offset="1" style="stop-color:#414042"/>
			</radialGradient>
			<path fill="url(#SVGID_72_)" d="M27.204,2.393c0.719-0.6,1.494-1.207,1.778-1.428c-0.666,0.227-1.385,0.34-1.911,0.396
				c-0.121,0.398-0.204,0.678-0.204,0.678L27.204,2.393z"/>
			
				<radialGradient id="SVGID_73_" cx="427.6299" cy="-448.0034" r="123.5856" gradientTransform="matrix(0.2785 0 0 0.2785 -83.4009 144.6803)" gradientUnits="userSpaceOnUse">
				<stop  offset="0" style="stop-color:#646467"/>
				<stop  offset="0.3656" style="stop-color:#474749"/>
				<stop  offset="0.6882" style="stop-color:#696A6D"/>
				<stop  offset="1" style="stop-color:#414042"/>
			</radialGradient>
			<path fill="url(#SVGID_73_)" d="M27.204,2.393c0.719-0.6,1.494-1.207,1.778-1.428c-0.666,0.227-1.385,0.34-1.911,0.396
				c-0.121,0.398-0.204,0.678-0.204,0.678L27.204,2.393z"/>
			
				<radialGradient id="SVGID_74_" cx="375.6006" cy="-468.5049" r="139.6587" gradientTransform="matrix(0.2785 0 0 0.2785 -83.4009 144.6803)" gradientUnits="userSpaceOnUse">
				<stop  offset="0" style="stop-color:#58595B"/>
				<stop  offset="1" style="stop-color:#414042"/>
			</radialGradient>
			<path fill="url(#SVGID_74_)" d="M27.204,2.393c0.719-0.6,1.494-1.207,1.778-1.428c-0.666,0.227-1.385,0.34-1.911,0.396
				c-0.121,0.398-0.204,0.678-0.204,0.678L27.204,2.393z"/>
		</g>
	</g>
	<g>
		<path fill="#1E1E1E" d="M7.828,2.154C7.812,2.162,7.794,2.17,7.779,2.178C7.793,2.17,7.81,2.162,7.826,2.154
			c-0.837,0-1.576,0-2.414,0c-1.07,3.473-1.063,6.33,0.07,9.785c0.012-0.02,0.025-0.035,0.037-0.051
			c-0.01,0.02-0.021,0.037-0.034,0.057c0.835,0,1.466,0,2.3,0c0.005,0.002,0.01,0.004,0.016,0.008
			C6.501,8.443,6.51,5.654,7.828,2.154z"/>
		<polygon fill="#1E1E1E" points="14.726,2.146 12.33,2.146 15.709,7.066 12.33,11.988 14.726,11.988 18.106,7.066 		"/>
		<polygon fill="#1E1E1E" points="18.431,2.109 16.037,2.109 19.415,7.033 16.037,11.955 18.431,11.955 21.811,7.033 		"/>
		<polygon fill="#1E1E1E" points="22.137,2.109 19.743,2.109 23.122,7.033 19.743,11.955 22.137,11.955 25.518,7.033 		"/>
		<polygon fill="#1E1E1E" points="25.809,2.109 23.414,2.109 26.792,7.033 23.414,11.955 25.809,11.955 29.189,7.033 		"/>
		<path fill="#1E1E1E" d="M12.761,7.033l-0.686-0.355l0.346-0.691c0.013-0.023,0.01-0.051-0.006-0.074
			c-0.014-0.02-0.035-0.029-0.059-0.029c-0.004,0-0.008,0-0.011,0L11.583,6l-0.127-0.762c-0.004-0.027-0.023-0.051-0.049-0.059
			c-0.008-0.002-0.015-0.002-0.021-0.002c-0.02,0-0.038,0.006-0.053,0.02L10.785,5.74l-0.549-0.543
			c-0.014-0.014-0.032-0.02-0.051-0.02c-0.008,0-0.016,0-0.022,0.002c-0.026,0.008-0.044,0.033-0.05,0.059L9.988,6L9.225,5.883
			c-0.003,0-0.007,0-0.011,0c-0.023,0-0.045,0.01-0.059,0.029C9.14,5.936,9.138,5.963,9.15,5.986l0.344,0.691L8.81,7.033
			C8.786,7.045,8.771,7.07,8.771,7.096c0,0.029,0.015,0.053,0.039,0.066l0.684,0.354L9.15,8.205C9.138,8.23,9.14,8.26,9.156,8.281
			c0.014,0.02,0.035,0.031,0.059,0.031c0.004,0,0.008,0,0.011-0.002l0.763-0.115l0.125,0.762c0.006,0.025,0.023,0.049,0.05,0.057
			c0.007,0.004,0.015,0.004,0.022,0.004c0.019,0,0.037-0.008,0.051-0.021l0.549-0.541l0.549,0.541
			c0.015,0.014,0.033,0.021,0.053,0.021c0.007,0,0.014,0,0.021-0.004c0.025-0.008,0.045-0.031,0.049-0.057l0.127-0.762l0.763,0.115
			c0.003,0.002,0.007,0.002,0.011,0.002c0.023,0,0.045-0.012,0.059-0.031c0.016-0.021,0.019-0.051,0.006-0.076l-0.346-0.689
			l0.686-0.354C12.785,7.148,12.8,7.125,12.8,7.096C12.8,7.07,12.785,7.045,12.761,7.033z"/>
	</g>
	<g>
		<g>
			<g>
				<g>
					<g>
						<g>
							<g>
								<path fill="#595A5A" d="M6.25,11.061c0.253,0.135,0.381,0.201,0.641,0.332c-0.839,0-1.473,0-2.311,0
									c0.095-0.131,0.204-0.197,0.305-0.332C5.371,11.061,5.765,11.061,6.25,11.061z"/>
							</g>
							<g>
								<linearGradient id="SVGID_75_" gradientUnits="userSpaceOnUse" x1="2.4824" y1="2.7715" x2="6.7378" y2="10.142">
									<stop  offset="0" style="stop-color:#CACBCD"/>
									<stop  offset="0.3387" style="stop-color:#D2D3D4"/>
									<stop  offset="0.7043" style="stop-color:#949598"/>
									<stop  offset="1" style="stop-color:#6E6E71"/>
								</linearGradient>
								<path fill="url(#SVGID_75_)" d="M4.875,11.045c-0.099,0.139-0.207,0.207-0.298,0.344c-1.133-3.455-1.143-6.313-0.07-9.787
									C4.6,1.734,4.778,1.801,4.878,1.934C3.897,5.168,3.908,7.807,4.875,11.045z"/>
							</g>
							<g>
								<path fill="#F1F2F2" d="M4.878,1.934C4.778,1.801,4.6,1.734,4.507,1.602c0.836,0,1.576,0,2.414,0
									c-0.26,0.133-0.389,0.199-0.641,0.332C5.796,1.934,5.363,1.934,4.878,1.934z"/>
							</g>
							<g>
								<linearGradient id="SVGID_76_" gradientUnits="userSpaceOnUse" x1="4.2393" y1="3.98" x2="9.2788" y2="9.0195">
									<stop  offset="0" style="stop-color:#818285"/>
									<stop  offset="1" style="stop-color:#A8A9AC"/>
								</linearGradient>
								<path fill="url(#SVGID_76_)" d="M6.279,1.939c0.254-0.135,0.383-0.203,0.645-0.338c-1.318,3.502-1.326,6.291-0.027,9.801
									c-0.264-0.139-0.394-0.209-0.648-0.352C5.219,7.779,5.229,5.207,6.279,1.939z"/>
							</g>
							<g>
								
									<linearGradient id="SVGID_77_" gradientUnits="userSpaceOnUse" x1="-575.6299" y1="1.4766" x2="-567.504" y2="15.5509" gradientTransform="matrix(1 0 -0.6933 1 582.6519 -0.0049)">
									<stop  offset="0.0323" style="stop-color:#E7E7E8"/>
									<stop  offset="0.3172" style="stop-color:#949598"/>
									<stop  offset="0.6398" style="stop-color:#E7E7E8"/>
									<stop  offset="0.8387" style="stop-color:#949598"/>
									<stop  offset="0.9946" style="stop-color:#565759"/>
								</linearGradient>
								<path fill="url(#SVGID_77_)" d="M6.25,11.061C5.216,7.781,5.224,5.207,6.281,1.934c-0.484,0-0.918,0-1.402,0
									c-0.981,3.234-0.971,5.873-0.003,9.111c-0.001,0.002-0.003,0.004-0.004,0.004c0.485,0,0.88,0,1.365,0
									C6.242,11.055,6.244,11.057,6.25,11.061z"/>
							</g>
						</g>
					</g>
				</g>
			</g>
			<g>
				<g>
					<g enable-background="new    ">
						<g>
							<path fill="#747575" d="M11.425,1.596h2.396H11.425z"/>
						</g>
						<g>
							<path fill="#595A5A" d="M13.821,1.596l3.38,4.922L13.821,1.596z"/>
						</g>
						<g>
							<path fill="#787878" d="M11.425,11.438l3.379-4.92L11.425,11.438z"/>
						</g>
						<g>
							<polygon fill="#777778" points="16.697,6.518 17.201,6.518 13.821,11.438 13.602,11.021 							"/>
						</g>
						<g>
							<polygon fill="#BFBFC1" points="15.308,6.518 14.804,6.518 11.425,1.596 12.214,2.012 							"/>
						</g>
						<g>
							<polygon fill="#F1F2F2" points="12.214,2.012 11.425,1.596 13.821,1.596 13.602,2.012 							"/>
						</g>
						<g>
							<polygon fill="#919295" points="13.602,2.012 13.821,1.596 17.201,6.518 16.697,6.518 							"/>
						</g>
						<g>
							<polygon fill="#D2D3D4" points="12.214,11.021 11.425,11.438 14.804,6.518 15.308,6.518 							"/>
						</g>
						<g>
							<polygon fill="#595A5A" points="13.602,11.021 13.821,11.438 11.425,11.438 12.214,11.021 							"/>
						</g>
						<g>
							<linearGradient id="SVGID_78_" gradientUnits="userSpaceOnUse" x1="10.9692" y1="2.731" x2="15.2178" y2="10.0896">
								<stop  offset="0.0323" style="stop-color:#E7E7E8"/>
								<stop  offset="0.3172" style="stop-color:#949598"/>
								<stop  offset="0.6398" style="stop-color:#E7E7E8"/>
								<stop  offset="0.8387" style="stop-color:#949598"/>
								<stop  offset="0.9946" style="stop-color:#565759"/>
							</linearGradient>
							<polygon fill="url(#SVGID_78_)" points="13.602,2.012 16.697,6.518 13.602,11.021 12.214,11.021 15.308,6.518 12.214,2.012 
															"/>
						</g>
					</g>
				</g>
				<g>
					<g enable-background="new    ">
						<g>
							<path fill="#747575" d="M15.131,1.563h2.396H15.131z"/>
						</g>
						<g>
							<path fill="#595A5A" d="M17.527,1.563l3.38,4.92L17.527,1.563z"/>
						</g>
						<g>
							<path fill="#787878" d="M15.131,11.402l3.379-4.92L15.131,11.402z"/>
						</g>
						<g>
							<polygon fill="#777778" points="20.403,6.482 20.907,6.482 17.527,11.402 17.308,10.988 							"/>
						</g>
						<g>
							<polygon fill="#BFBFC1" points="19.014,6.482 18.51,6.482 15.131,1.563 15.921,1.977 							"/>
						</g>
						<g>
							<polygon fill="#F1F2F2" points="15.921,1.977 15.131,1.563 17.527,1.563 17.308,1.977 							"/>
						</g>
						<g>
							<polygon fill="#919295" points="17.308,1.977 17.527,1.563 20.907,6.482 20.403,6.482 							"/>
						</g>
						<g>
							<polygon fill="#D2D3D4" points="15.921,10.988 15.131,11.402 18.51,6.482 19.014,6.482 							"/>
						</g>
						<g>
							<polygon fill="#595A5A" points="17.308,10.988 17.527,11.402 15.131,11.402 15.921,10.988 							"/>
						</g>
						<g>
							<linearGradient id="SVGID_79_" gradientUnits="userSpaceOnUse" x1="14.6753" y1="2.6963" x2="18.9243" y2="10.0558">
								<stop  offset="0.0323" style="stop-color:#E7E7E8"/>
								<stop  offset="0.3172" style="stop-color:#949598"/>
								<stop  offset="0.6398" style="stop-color:#E7E7E8"/>
								<stop  offset="0.8387" style="stop-color:#949598"/>
								<stop  offset="0.9946" style="stop-color:#565759"/>
							</linearGradient>
							<polygon fill="url(#SVGID_79_)" points="17.308,1.977 20.403,6.482 17.308,10.988 15.921,10.988 19.014,6.482 15.921,1.977 
															"/>
						</g>
					</g>
				</g>
				<g>
					<g enable-background="new    ">
						<g>
							<path fill="#747575" d="M18.836,1.563h2.396H18.836z"/>
						</g>
						<g>
							<path fill="#595A5A" d="M21.233,1.563l3.379,4.92L21.233,1.563z"/>
						</g>
						<g>
							<path fill="#787878" d="M18.836,11.402l3.38-4.92L18.836,11.402z"/>
						</g>
						<g>
							<polygon fill="#777778" points="24.108,6.482 24.612,6.482 21.233,11.402 21.014,10.988 							"/>
						</g>
						<g>
							<polygon fill="#BFBFC1" points="22.72,6.482 22.216,6.482 18.836,1.563 19.627,1.977 							"/>
						</g>
						<g>
							<polygon fill="#F1F2F2" points="19.627,1.977 18.836,1.563 21.233,1.563 21.014,1.977 							"/>
						</g>
						<g>
							<polygon fill="#919295" points="21.014,1.977 21.233,1.563 24.612,6.482 24.108,6.482 							"/>
						</g>
						<g>
							<polygon fill="#D2D3D4" points="19.627,10.988 18.836,11.402 22.216,6.482 22.72,6.482 							"/>
						</g>
						<g>
							<polygon fill="#595A5A" points="21.014,10.988 21.233,11.402 18.836,11.402 19.627,10.988 							"/>
						</g>
						<g>
							<linearGradient id="SVGID_80_" gradientUnits="userSpaceOnUse" x1="18.3813" y1="2.6968" x2="22.6299" y2="10.0555">
								<stop  offset="0.0323" style="stop-color:#E7E7E8"/>
								<stop  offset="0.3172" style="stop-color:#949598"/>
								<stop  offset="0.6398" style="stop-color:#E7E7E8"/>
								<stop  offset="0.8387" style="stop-color:#949598"/>
								<stop  offset="0.9946" style="stop-color:#565759"/>
							</linearGradient>
							<polygon fill="url(#SVGID_80_)" points="21.014,1.977 24.108,6.482 21.014,10.988 19.627,10.988 22.72,6.482 19.627,1.977 
															"/>
						</g>
					</g>
				</g>
				<g>
					<g enable-background="new    ">
						<g>
							<path fill="#747575" d="M22.508,1.563h2.395H22.508z"/>
						</g>
						<g>
							<path fill="#595A5A" d="M24.903,1.563l3.381,4.92L24.903,1.563z"/>
						</g>
						<g>
							<path fill="#787878" d="M22.508,11.402l3.379-4.92L22.508,11.402z"/>
						</g>
						<g>
							<polygon fill="#777778" points="27.78,6.482 28.284,6.482 24.903,11.402 24.684,10.988 							"/>
						</g>
						<g>
							<polygon fill="#BFBFC1" points="26.391,6.482 25.887,6.482 22.508,1.563 23.297,1.977 							"/>
						</g>
						<g>
							<polygon fill="#F1F2F2" points="23.297,1.977 22.508,1.563 24.903,1.563 24.684,1.977 							"/>
						</g>
						<g>
							<polygon fill="#919295" points="24.684,1.977 24.903,1.563 28.284,6.482 27.78,6.482 							"/>
						</g>
						<g>
							<polygon fill="#D2D3D4" points="23.297,10.988 22.508,11.402 25.887,6.482 26.391,6.482 							"/>
						</g>
						<g>
							<polygon fill="#595A5A" points="24.684,10.988 24.903,11.402 22.508,11.402 23.297,10.988 							"/>
						</g>
						<g>
							<linearGradient id="SVGID_81_" gradientUnits="userSpaceOnUse" x1="22.0522" y1="2.6963" x2="26.3008" y2="10.055">
								<stop  offset="0.0323" style="stop-color:#E7E7E8"/>
								<stop  offset="0.3172" style="stop-color:#949598"/>
								<stop  offset="0.6398" style="stop-color:#E7E7E8"/>
								<stop  offset="0.8387" style="stop-color:#949598"/>
								<stop  offset="0.9946" style="stop-color:#565759"/>
							</linearGradient>
							<polygon fill="url(#SVGID_81_)" points="24.684,1.977 27.78,6.482 24.684,10.988 23.297,10.988 26.391,6.482 23.297,1.977 
															"/>
						</g>
					</g>
				</g>
			</g>
		</g>
	</g>
	<g>
		<path fill="#303030" d="M1.351,12.49c-0.488,0-0.885-0.4-0.885-0.891V1.398c0-0.49,0.396-0.891,0.885-0.891h29.186
			c0.489,0,0.996,0.293,0.996,0.779v10.201c0,0.486-0.513,1.002-0.996,1.002H1.351z M1.351,0.838c-0.307,0-0.555,0.254-0.555,0.561
			V11.6c0,0.309,0.248,0.561,0.555,0.561h29.186c0.305,0,0.666-0.363,0.666-0.672V1.287c0-0.279-0.339-0.449-0.666-0.449H1.351z"/>
		<g>
			<g>
				<linearGradient id="SVGID_82_" gradientUnits="userSpaceOnUse" x1="5.3979" y1="-4.1104" x2="26.5545" y2="17.0462">
					<stop  offset="0" style="stop-color:#818285"/>
					<stop  offset="0.4785" style="stop-color:#A8A9AC"/>
					<stop  offset="0.9892" style="stop-color:#F1F2F2"/>
				</linearGradient>
				<path fill="url(#SVGID_82_)" d="M30.61,0.406H1.277c-0.53,0-0.961,0.434-0.961,0.967v10.252c0,0.533,0.431,0.969,0.961,0.969
					H30.61c0.53,0,1.074-0.547,1.074-1.08V1.262C31.684,0.729,31.14,0.406,30.61,0.406z M31.446,11.514
					c0,0.4-0.438,0.842-0.836,0.842H1.277c-0.398,0-0.723-0.328-0.723-0.73V1.373c0-0.402,0.324-0.729,0.723-0.729H30.61
					c0.41,0,0.836,0.23,0.836,0.617V11.514z"/>
				<linearGradient id="SVGID_83_" gradientUnits="userSpaceOnUse" x1="5.3984" y1="-4.1104" x2="26.5554" y2="17.0466">
					<stop  offset="0.0108" style="stop-color:#F1F2F2"/>
					<stop  offset="0.3495" style="stop-color:#A8A9AC"/>
					<stop  offset="1" style="stop-color:#818285"/>
				</linearGradient>
				<path fill="url(#SVGID_83_)" d="M30.61,0.168H1.277c-0.661,0-1.199,0.541-1.199,1.205v10.252c0,0.664,0.538,1.207,1.199,1.207
					H30.61c0.662,0,1.313-0.652,1.313-1.318V1.262C31.922,0.576,31.254,0.168,30.61,0.168z M31.684,11.514
					c0,0.533-0.544,1.08-1.074,1.08H1.277c-0.53,0-0.961-0.436-0.961-0.969V1.373c0-0.533,0.431-0.967,0.961-0.967H30.61
					c0.53,0,1.074,0.322,1.074,0.855V11.514z"/>
			</g>
		</g>
	</g>
	<g>
		<linearGradient id="SVGID_84_" gradientUnits="userSpaceOnUse" x1="8.4697" y1="5.0913" x2="11.2857" y2="7.9073">
			<stop  offset="0" style="stop-color:#D2D3D4"/>
			<stop  offset="0.7043" style="stop-color:#949598"/>
			<stop  offset="1" style="stop-color:#6E6E71"/>
		</linearGradient>
		<path fill="url(#SVGID_84_)" d="M11.852,6.434L11.167,6.08l0.346-0.689c0.014-0.023,0.011-0.055-0.006-0.076
			c-0.014-0.02-0.035-0.029-0.059-0.029c-0.004,0-0.008,0-0.011,0.002l-0.763,0.115l-0.127-0.764
			c-0.004-0.025-0.023-0.047-0.049-0.055c-0.008-0.002-0.015-0.004-0.021-0.004c-0.02,0-0.037,0.006-0.052,0.02L9.877,5.143
			L9.328,4.6C9.314,4.586,9.295,4.58,9.277,4.58c-0.008,0-0.016,0.002-0.022,0.004c-0.025,0.008-0.045,0.029-0.05,0.055L9.08,5.402
			L8.318,5.287C8.313,5.285,8.31,5.285,8.306,5.285c-0.022,0-0.045,0.01-0.059,0.029C8.232,5.336,8.229,5.367,8.242,5.391
			L8.586,6.08L7.902,6.434C7.877,6.447,7.863,6.473,7.863,6.5c0,0.025,0.015,0.051,0.039,0.064l0.685,0.354L8.242,7.607
			c-0.013,0.025-0.01,0.055,0.006,0.076c0.014,0.02,0.036,0.029,0.059,0.029c0.004,0,0.007,0,0.012,0L9.08,7.598l0.125,0.76
			c0.005,0.029,0.024,0.049,0.05,0.059c0.007,0.002,0.015,0.002,0.022,0.002c0.019,0,0.037-0.006,0.051-0.02l0.55-0.543l0.549,0.543
			c0.015,0.014,0.032,0.02,0.052,0.02c0.006,0,0.014,0,0.021-0.002c0.025-0.01,0.045-0.029,0.049-0.059l0.127-0.76l0.763,0.115
			c0.003,0,0.007,0,0.011,0c0.023,0,0.045-0.01,0.059-0.029c0.017-0.021,0.02-0.051,0.006-0.076l-0.346-0.689l0.685-0.354
			c0.024-0.014,0.04-0.039,0.04-0.064C11.892,6.473,11.876,6.447,11.852,6.434z"/>
		<g>
			<path fill="#585E5F" d="M11.072,6.111L11.82,6.5L11.072,6.111z"/>
			<path fill="#525758" d="M10.478,4.652l0.137,0.832L10.478,4.652z"/>
			<path fill="#A6ADAE" d="M9.877,5.244l0.601-0.592L9.877,5.244z"/>
			<path fill="#525759" d="M9.277,4.652l0.601,0.592L9.277,4.652z"/>
			<path fill="#A2A9A9" d="M9.14,5.484l0.137-0.832L9.14,5.484z"/>
			<path fill="#6E7475" d="M8.306,5.357L9.14,5.484L8.306,5.357z"/>
			<path fill="#A6ADAE" d="M7.935,6.5l0.748-0.389L7.935,6.5z"/>
			<path fill="#A6ADAE" d="M8.306,7.641l0.377-0.754L8.306,7.641z"/>
			<path fill="#525758" d="M11.072,6.887l0.377,0.754L11.072,6.887z"/>
			<path fill="#8D9394" d="M10.615,5.484l0.834-0.127L10.615,5.484z"/>
			<polygon fill="#A8A9AC" points="9.736,6.543 8.683,6.887 7.935,6.5 9.648,6.5 			"/>
			<polygon fill="#F1F2F2" points="9.648,6.5 7.935,6.5 8.683,6.111 9.736,6.453 			"/>
			<polygon fill="#BFBFC1" points="9.736,6.453 8.683,6.111 8.306,5.357 9.691,6.365 			"/>
			<polygon fill="#F1F2F2" points="9.691,6.365 8.306,5.357 9.14,5.484 9.791,6.379 			"/>
			<polygon fill="#F1F2F2" points="9.791,6.379 9.14,5.484 9.277,4.652 9.806,6.281 			"/>
			<polygon fill="#F1F2F2" points="9.691,6.635 8.306,7.641 8.683,6.887 9.736,6.543 			"/>
			<polygon fill="#E7E7E8" points="9.877,6.35 9.877,5.244 10.478,4.652 9.948,6.281 			"/>
			<polygon fill="#919295" points="9.948,6.281 10.478,4.652 10.615,5.484 9.964,6.379 			"/>
			<polygon fill="#D0D1D2" points="9.964,6.379 10.615,5.484 11.449,5.357 10.063,6.365 			"/>
			<polygon fill="#6E6E71" points="10.063,6.365 11.449,5.357 11.072,6.111 10.018,6.453 			"/>
			<polygon fill="#9B9B9E" points="10.018,6.453 11.072,6.111 11.82,6.5 10.107,6.5 			"/>
			<polygon fill="#818285" points="9.791,6.619 9.14,7.516 8.306,7.641 9.691,6.635 			"/>
			<polygon fill="#A8A9AC" points="9.806,6.717 9.277,8.346 9.14,7.516 9.791,6.619 			"/>
			<polygon fill="#58595B" points="9.877,6.646 9.877,7.754 9.277,8.346 9.806,6.717 			"/>
			<polygon fill="#949598" points="9.948,6.717 10.478,8.346 9.877,7.754 9.877,6.646 			"/>
			<polygon fill="#6E6E71" points="9.964,6.619 10.615,7.516 10.478,8.346 9.948,6.717 			"/>
			<polygon fill="#58595B" points="10.063,6.635 11.449,7.641 10.615,7.516 9.964,6.619 			"/>
			<polygon fill="#919295" points="10.018,6.543 11.072,6.887 11.449,7.641 10.063,6.635 			"/>
			<polygon fill="#58595B" points="10.107,6.5 11.82,6.5 11.072,6.887 10.018,6.543 			"/>
			<polygon fill="#BFBFC1" points="9.806,6.281 9.277,4.652 9.877,5.244 9.877,6.35 			"/>
			<linearGradient id="SVGID_85_" gradientUnits="userSpaceOnUse" x1="9.7168" y1="6.3398" x2="10.0379" y2="6.6609">
				<stop  offset="0" style="stop-color:#F1F2F2"/>
				<stop  offset="0.3387" style="stop-color:#D2D3D4"/>
				<stop  offset="0.7043" style="stop-color:#949598"/>
				<stop  offset="1" style="stop-color:#6E6E71"/>
			</linearGradient>
			<polygon fill="url(#SVGID_85_)" points="10.107,6.5 10.018,6.543 10.063,6.635 9.964,6.619 9.948,6.717 9.877,6.646 9.806,6.717 
				9.791,6.619 9.691,6.635 9.736,6.543 9.648,6.5 9.736,6.453 9.691,6.365 9.791,6.379 9.806,6.281 9.877,6.35 9.948,6.281 
				9.964,6.379 10.063,6.365 10.018,6.453 			"/>
		</g>
	</g>
</g>
</svg>
