<?xml version="1.0" encoding="utf-8"?>
<!-- Generator: Adobe Illustrator 16.0.0, SVG Export Plug-In . SVG Version: 6.00 Build 0)  -->
<!DOCTYPE svg PUBLIC "-//W3C//DTD SVG 1.1//EN" "http://www.w3.org/Graphics/SVG/1.1/DTD/svg11.dtd">
<svg version="1.1" id="Layer_1" xmlns="http://www.w3.org/2000/svg" xmlns:xlink="http://www.w3.org/1999/xlink" x="0px" y="0px"
	 width="32px" height="13px" viewBox="0 0 32 13" enable-background="new 0 0 32 13" xml:space="preserve">
<g>
	<g>
		
			<radialGradient id="SVGID_1_" cx="18.1313" cy="7.5488" r="17.196" fx="13.0089" fy="7.8062" gradientTransform="matrix(1.0042 0 0 1 -0.3544 0)" gradientUnits="userSpaceOnUse">
			<stop  offset="0" style="stop-color:#58595B"/>
			<stop  offset="0.3815" style="stop-color:#525254"/>
			<stop  offset="1" style="stop-color:#333334"/>
		</radialGradient>
		<path fill="url(#SVGID_1_)" d="M31.313,11.423c0,0.521-0.532,1.054-1.053,1.054H1.635c-0.52,0-0.943-0.424-0.943-0.945V1.521
			c0-0.521,0.424-0.945,0.943-0.945H30.26c0.521,0,1.053,0.315,1.053,0.836V11.423z"/>
		<g>
			<path fill="none" d="M31.191,8.243c0.041,0.01,0.083,0.004,0.121-0.016V8.17c-0.082,0.011-0.158,0.021-0.227,0.029
				C31.123,8.22,31.158,8.235,31.191,8.243z"/>
			<path fill="none" d="M29.484,10.705l-1.237,1.283c0.415,0.26,0.887,0.422,1.102,0.488h0.381
				C29.826,11.858,29.484,10.705,29.484,10.705z"/>
			<path fill="none" d="M30.321,12.15c-0.027,0.105-0.039,0.215-0.04,0.325c0.513-0.014,1.031-0.539,1.031-1.053v-1.185
				c-0.44,0.164-0.817,0.461-0.817,0.461S30.496,11.465,30.321,12.15z"/>
			<path fill="none" d="M29.111,8.051c0.038-0.007,0.079-0.022,0.121-0.043c-0.321-0.067-0.673-0.15-1.027-0.247
				C28.347,7.85,28.799,8.113,29.111,8.051z"/>
			<path fill="none" d="M4.587,2.792c-0.156,0.222-0.222,0.43-0.243,0.606c0.114-0.147,0.207-0.307,0.243-0.46
				C4.599,2.891,4.598,2.842,4.587,2.792z"/>
			<path fill="none" d="M16.121,11.222c-0.033,0.18-0.306,0.747-0.561,1.255h0.661l0.014-1.604
				C16.189,10.969,16.164,10.99,16.121,11.222z"/>
			<polygon fill="none" points="0.691,9.621 0.691,10.584 1.611,9.951 			"/>
			<path fill="none" d="M15.113,10.611c-0.33,0.104-0.692,0.205-1.029,0.275c-0.971,0.201-2.289-0.006-2.289-0.006
				s0.082-0.942-0.129-1.816c-0.211-0.873-0.582-0.999-0.582-0.999s0.079-0.138,0.22-0.375c-0.744-0.182-1.53-0.552-1.541-1.31
				C9.742,4.942,7.567,3.967,7.567,3.967L6.562,4.212l-0.345,0.79c0.676,0.252,1.372-0.331,1.372-0.331S7.521,5.478,7.083,6.552
				C7.19,6.738,7.34,7.167,6.919,7.725C6.8,7.879,6.641,7.96,6.462,7.99C6.204,8.809,6.34,9.218,6.34,9.218S3.854,8.151,2.963,8.55
				C2.438,8.785,2.188,9.272,2.07,9.635l0.452-0.311c0,0,0.952,1.126,2.354,2.575c0.207,0.214,0.396,0.405,0.569,0.577h8.885
				l0.049-1.193C14.379,11.283,14.807,10.956,15.113,10.611z"/>
			<path fill="none" d="M2.968,6.271c0,0-0.162-0.672-0.528-1.185C2.242,5.014,2.099,4.989,2.037,5.037
				C1.55,5.417,1.218,6.16,1.048,6.621C0.961,6.857,0.917,7.02,0.917,7.02l0.021,0.852L0.691,7.601v1.646l0.545-1.698L2.968,6.271z"
				/>
			<path fill="none" d="M6.938,0.725c-0.174,0.02-0.495,0.209-0.86,0.446C6.124,1.2,6.167,1.227,6.206,1.251
				C6.53,1.073,6.745,0.896,6.745,0.896l0.539,0.722c0,0,0.4-0.627,0.923-1.042H7.043C7.152,0.719,7.181,0.697,6.938,0.725z"/>
			<path fill="none" d="M12.184,2.664c0,0-0.513,0.049-0.75,0.675c-0.236,0.627,0.445,0.705,0.445,0.705l-0.893,0.409
				c0,0,0.149,0.745,0.174,1.133c0.011,0.185,0.341,0.709,0.683,1.209c0.27-0.441,0.595-0.965,0.949-1.514
				c-0.263-0.073-0.55-0.159-0.823-0.26c0.202-0.146,0.537-0.339,1.018-0.47c0.291-0.079,0.6-0.271,0.888-0.5l-0.621-0.223
				l0.653-2.034l1.651-1.22h-4.004c-0.053,0.121-0.213,0.546-0.208,1.168C11.352,2.486,12.184,2.664,12.184,2.664z"/>
			<path fill="none" d="M3.657,4.06c0,0,0.008-0.005,0.02-0.015C3.492,4.061,3.288,4.067,3.081,4.057
				C3.07,4.056,3.252,4.229,3.524,4.484c0.16-0.037,0.314-0.119,0.451-0.217L3.657,4.06z"/>
			<path fill="none" d="M16.175,2.707c-0.21-0.001-0.398,0.025-0.543,0.09s-0.269,0.149-0.374,0.245l0.427,0.465
				C15.685,3.507,15.87,3.171,16.175,2.707z"/>
			<path fill="none" d="M16.377,12.477h1.851l-0.737-1.162C16.985,11.742,16.586,12.213,16.377,12.477z"/>
			<path fill="none" d="M27.913,11.772c-0.109-0.694-0.258-1.919,0.026-2.07c0.378-0.201,0.24-1.775,0.224-1.953
				c-0.187-0.052-0.372-0.106-0.555-0.166c-1.409-0.461-2.21-1.481-2.21-1.481s0.909-1.272,1.729-2.079
				c0.82-0.809,2.406-2.145,2.406-2.145s-0.13-0.056-0.338-0.143c-0.251,0.381-0.398,0.646-0.398,0.646l-2.284-0.899l0.04-0.906
				h-3.155l-0.04,0.038c0,0,0.088,0.97-0.146,1.438c0.369,0.053,0.738-0.013,0.738-0.013s-1.208,0.479-2.001,1.681
				c-0.716,1.086,0.599,0.854,0.599,0.854l-1.873,1.02c0,0,0.013,0.937-0.07,1.422c-0.082,0.471,1.718,2.39,1.718,2.39
				s-1.641,0.119-2.834-0.133c0.17,0.234,0.528,0.317,0.528,0.317s-0.248,0.165-0.618,0.411L19.79,9.84l0.16,1.465
				c0,0-0.432,0.256-0.648,0.646c-0.09,0.162-0.245,0.355-0.395,0.525h1.909l-0.003-0.003l1.677-0.324
				c0.066-0.268,0.187-0.506,0.517-0.707c0.515-0.312,3.578-1.925,3.578-1.925s-0.187,1.865-0.209,2.959h0.323l0.593-1.144
				C27.292,11.333,27.531,11.518,27.913,11.772z"/>
			
				<radialGradient id="SVGID_2_" cx="369.0283" cy="-704.8013" r="155.1792" gradientTransform="matrix(0.2797 0 0 0.2785 -83.7031 182.1983)" gradientUnits="userSpaceOnUse">
				<stop  offset="0" style="stop-color:#58595B"/>
				<stop  offset="0.1742" style="stop-color:#4D4E50"/>
				<stop  offset="0.3656" style="stop-color:#464647"/>
				<stop  offset="0.5499" style="stop-color:#4C4C4E"/>
				<stop  offset="0.7258" style="stop-color:#57575A"/>
				<stop  offset="1" style="stop-color:#414042"/>
			</radialGradient>
			<path fill="url(#SVGID_2_)" d="M17.49,11.314l-0.85-1.338c0,0-0.199,0.299-0.314,0.661c-0.039,0.12-0.067,0.187-0.091,0.234
				l-0.014,1.604h0.155C16.586,12.213,16.985,11.742,17.49,11.314z"/>
			
				<radialGradient id="SVGID_3_" cx="369.0029" cy="-704.7295" r="155.0378" gradientTransform="matrix(0.2797 0 0 0.2785 -83.7031 182.1983)" gradientUnits="userSpaceOnUse">
				<stop  offset="0" style="stop-color:#58595B"/>
				<stop  offset="0.1742" style="stop-color:#4D4E50"/>
				<stop  offset="0.3656" style="stop-color:#464647"/>
				<stop  offset="0.5499" style="stop-color:#4C4C4E"/>
				<stop  offset="0.7258" style="stop-color:#57575A"/>
				<stop  offset="1" style="stop-color:#414042"/>
			</radialGradient>
			<path fill="url(#SVGID_3_)" d="M7.01,6.449c0,0,0.035,0.035,0.073,0.103c0.438-1.074,0.506-1.881,0.506-1.881
				S6.893,5.254,6.217,5.002L5.808,5.939L7.01,6.449z"/>
			
				<radialGradient id="SVGID_4_" cx="369.0254" cy="-704.7603" r="155.1066" gradientTransform="matrix(0.2797 0 0 0.2785 -83.7031 182.1983)" gradientUnits="userSpaceOnUse">
				<stop  offset="0" style="stop-color:#58595B"/>
				<stop  offset="0.1742" style="stop-color:#4D4E50"/>
				<stop  offset="0.3656" style="stop-color:#464647"/>
				<stop  offset="0.5499" style="stop-color:#4C4C4E"/>
				<stop  offset="0.7258" style="stop-color:#57575A"/>
				<stop  offset="1" style="stop-color:#414042"/>
			</radialGradient>
			<path fill="url(#SVGID_4_)" d="M14.458,9.049l0.122-1.175l0.501-0.625l-0.387-0.485l-0.006,0.003L14.07,8.17
				c-0.129-1.255-0.307-2.658-0.307-2.658s-0.435-0.083-0.972-0.23c-0.354,0.549-0.68,1.072-0.949,1.514
				c0.377,0.55,0.769,1.069,0.769,1.069s-0.637-0.011-1.308-0.174c-0.141,0.237-0.22,0.375-0.22,0.375s0.371,0.126,0.582,0.999
				c0.211,0.874,0.129,1.816,0.129,1.816s1.318,0.207,2.289,0.006c0.337-0.07,0.699-0.172,1.029-0.275
				c0.164-0.186,0.294-0.376,0.305-0.524C15.45,9.661,14.458,9.049,14.458,9.049z"/>
			
				<radialGradient id="SVGID_5_" cx="369.0313" cy="-704.7871" r="155.1691" gradientTransform="matrix(0.2797 0 0 0.2785 -83.7031 182.1983)" gradientUnits="userSpaceOnUse">
				<stop  offset="0" style="stop-color:#58595B"/>
				<stop  offset="0.1742" style="stop-color:#4D4E50"/>
				<stop  offset="0.3656" style="stop-color:#464647"/>
				<stop  offset="0.5499" style="stop-color:#4C4C4E"/>
				<stop  offset="0.7258" style="stop-color:#57575A"/>
				<stop  offset="1" style="stop-color:#414042"/>
			</radialGradient>
			<path fill="url(#SVGID_5_)" d="M13.253,3.829l0.621,0.223c0.649-0.517,1.193-1.218,1.193-1.218l0.19,0.208
				c0.105-0.096,0.229-0.181,0.374-0.245s0.333-0.091,0.543-0.09c0.357-0.541,0.877-1.255,1.451-1.806
				c0.071-0.068,0.148-0.144,0.232-0.224c-0.028-0.033-0.056-0.068-0.084-0.103h-2.217l-1.651,1.22L13.253,3.829z"/>
			
				<radialGradient id="SVGID_6_" cx="369.0361" cy="-704.8062" r="155.1819" gradientTransform="matrix(0.2797 0 0 0.2785 -83.7031 182.1983)" gradientUnits="userSpaceOnUse">
				<stop  offset="0" style="stop-color:#58595B"/>
				<stop  offset="0.1742" style="stop-color:#4D4E50"/>
				<stop  offset="0.3656" style="stop-color:#464647"/>
				<stop  offset="0.5499" style="stop-color:#4C4C4E"/>
				<stop  offset="0.7258" style="stop-color:#57575A"/>
				<stop  offset="1" style="stop-color:#414042"/>
			</radialGradient>
			<path fill="url(#SVGID_6_)" d="M3.976,4.268c-0.137,0.098-0.291,0.18-0.451,0.217c0.324,0.304,0.779,0.725,1.199,1.116
				l0.263-0.674L3.976,4.268z"/>
			
				<radialGradient id="SVGID_7_" cx="369.0303" cy="-704.7983" r="155.1745" gradientTransform="matrix(0.2797 0 0 0.2785 -83.7031 182.1983)" gradientUnits="userSpaceOnUse">
				<stop  offset="0" style="stop-color:#58595B"/>
				<stop  offset="0.1742" style="stop-color:#4D4E50"/>
				<stop  offset="0.3656" style="stop-color:#464647"/>
				<stop  offset="0.5499" style="stop-color:#4C4C4E"/>
				<stop  offset="0.7258" style="stop-color:#57575A"/>
				<stop  offset="1" style="stop-color:#414042"/>
			</radialGradient>
			<path fill="url(#SVGID_7_)" d="M19.063,10.136l0.336-0.137c0.37-0.246,0.618-0.411,0.618-0.411s-0.358-0.083-0.528-0.317
				c-0.01-0.002-0.019-0.003-0.027-0.006L19.063,10.136z"/>
			
				<radialGradient id="SVGID_8_" cx="369.0361" cy="-704.7715" r="155.1309" gradientTransform="matrix(0.2797 0 0 0.2785 -83.7031 182.1983)" gradientUnits="userSpaceOnUse">
				<stop  offset="0" style="stop-color:#58595B"/>
				<stop  offset="0.1742" style="stop-color:#4D4E50"/>
				<stop  offset="0.3656" style="stop-color:#464647"/>
				<stop  offset="0.5499" style="stop-color:#4C4C4E"/>
				<stop  offset="0.7258" style="stop-color:#57575A"/>
				<stop  offset="1" style="stop-color:#414042"/>
			</radialGradient>
			<path fill="url(#SVGID_8_)" d="M17.68,7.488c0.178,0.156,0.405,0.211,0.567,0.23c-0.139-0.453-0.538-0.781-0.976-1.012
				C17.333,6.924,17.467,7.3,17.68,7.488z"/>
			
				<radialGradient id="SVGID_9_" cx="417.2354" cy="-664.1528" r="40.9544" gradientTransform="matrix(0.2797 0 0 0.2785 -83.7031 182.1983)" gradientUnits="userSpaceOnUse">
				<stop  offset="0" style="stop-color:#58595B"/>
				<stop  offset="0.1742" style="stop-color:#4D4E50"/>
				<stop  offset="0.3656" style="stop-color:#464647"/>
				<stop  offset="0.5499" style="stop-color:#4C4C4E"/>
				<stop  offset="0.7258" style="stop-color:#57575A"/>
				<stop  offset="1" style="stop-color:#383839"/>
			</radialGradient>
			<path fill="url(#SVGID_9_)" d="M29.196,1.735c0.208,0.087,0.338,0.143,0.338,0.143s-1.586,1.336-2.406,2.145
				c-0.82,0.807-1.729,2.079-1.729,2.079s0.801,1.021,2.21,1.481c0.183,0.06,0.368,0.114,0.555,0.166
				c-0.001-0.011-0.002-0.017-0.002-0.017s0.017,0.011,0.044,0.028c0.354,0.097,0.706,0.18,1.027,0.247
				c0.379-0.183,0.904-0.82,0.904-0.82s0.57,0.8,0.949,1.012c0.068-0.009,0.145-0.019,0.227-0.029V5.567
				c-0.03-0.025-0.049-0.039-0.049-0.039l0.049-0.069V1.411c0-0.521-0.532-0.836-1.053-0.836h-0.196
				C30.057,0.584,30.05,0.592,30.042,0.6C29.702,1.001,29.411,1.41,29.196,1.735z"/>
			
				<radialGradient id="SVGID_10_" cx="369.0371" cy="-704.7769" r="155.1387" gradientTransform="matrix(0.2797 0 0 0.2785 -83.7031 182.1983)" gradientUnits="userSpaceOnUse">
				<stop  offset="0" style="stop-color:#58595B"/>
				<stop  offset="0.1742" style="stop-color:#4D4E50"/>
				<stop  offset="0.3656" style="stop-color:#464647"/>
				<stop  offset="0.5499" style="stop-color:#4C4C4E"/>
				<stop  offset="0.7258" style="stop-color:#57575A"/>
				<stop  offset="1" style="stop-color:#414042"/>
			</radialGradient>
			<path fill="url(#SVGID_10_)" d="M4.876,11.899C3.475,10.45,2.522,9.324,2.522,9.324L2.07,9.635
				c0.117-0.362,0.367-0.85,0.893-1.085C3.854,8.151,6.34,9.218,6.34,9.218S6.204,8.809,6.462,7.99
				C5.773,8.108,4.801,7.478,4.801,7.478l0.598-0.893c-0.741-0.3-2.225-1.229-2.959-1.499c0.366,0.513,0.528,1.185,0.528,1.185
				L1.236,7.548L0.691,9.246v0.375l0.92,0.33l-0.92,0.633v0.947c0,0.521,0.424,0.945,0.943,0.945h3.811
				C5.271,12.305,5.083,12.113,4.876,11.899z"/>
			
				<radialGradient id="SVGID_11_" cx="369.0439" cy="-704.7817" r="155.1571" gradientTransform="matrix(0.2797 0 0 0.2785 -83.7031 182.1983)" gradientUnits="userSpaceOnUse">
				<stop  offset="0" style="stop-color:#58595B"/>
				<stop  offset="0.1742" style="stop-color:#4D4E50"/>
				<stop  offset="0.3656" style="stop-color:#464647"/>
				<stop  offset="0.5499" style="stop-color:#4C4C4E"/>
				<stop  offset="0.7258" style="stop-color:#57575A"/>
				<stop  offset="1" style="stop-color:#414042"/>
			</radialGradient>
			<path fill="url(#SVGID_11_)" d="M6.938,0.725c0.242-0.027,0.214-0.006,0.104-0.149h-1.83c0.297,0.228,0.619,0.44,0.865,0.596
				C6.443,0.934,6.765,0.744,6.938,0.725z"/>
			
				<radialGradient id="SVGID_12_" cx="427.123" cy="-677.8291" r="123.4859" gradientTransform="matrix(0.2797 0 0 0.2785 -83.7031 182.1983)" gradientUnits="userSpaceOnUse">
				<stop  offset="0" style="stop-color:#646467"/>
				<stop  offset="0.3656" style="stop-color:#474749"/>
				<stop  offset="0.6882" style="stop-color:#696A6D"/>
				<stop  offset="1" style="stop-color:#414042"/>
			</radialGradient>
			<path fill="url(#SVGID_12_)" d="M19.95,11.305L19.79,9.84l-0.392,0.159c-0.382,0.254-0.894,0.596-1.406,0.936
				c-0.176,0.117-0.344,0.247-0.502,0.38l0.737,1.162h0.68c0.149-0.17,0.305-0.363,0.395-0.525
				C19.519,11.561,19.95,11.305,19.95,11.305z"/>
			
				<radialGradient id="SVGID_13_" cx="427.1367" cy="-688.9048" r="139.9687" gradientTransform="matrix(0.2797 0 0 0.2785 -83.7031 182.1983)" gradientUnits="userSpaceOnUse">
				<stop  offset="0" style="stop-color:#646467"/>
				<stop  offset="0.3656" style="stop-color:#474749"/>
				<stop  offset="0.6882" style="stop-color:#696A6D"/>
				<stop  offset="1" style="stop-color:#414042"/>
			</radialGradient>
			<path fill="url(#SVGID_13_)" d="M23.007,11.442c-0.104,0.371-0.45,0.439-0.517,0.707l1.006-0.194l2.314-1.599l0.186,2.12h0.38
				c0.022-1.094,0.209-2.959,0.209-2.959S24.091,7.599,23.007,11.442z"/>
			
				<radialGradient id="SVGID_14_" cx="427.2119" cy="-677.8027" r="123.5525" gradientTransform="matrix(0.2797 0 0 0.2785 -83.7031 182.1983)" gradientUnits="userSpaceOnUse">
				<stop  offset="0" style="stop-color:#646467"/>
				<stop  offset="0.3656" style="stop-color:#474749"/>
				<stop  offset="0.6882" style="stop-color:#696A6D"/>
				<stop  offset="1" style="stop-color:#414042"/>
			</radialGradient>
			<path fill="url(#SVGID_14_)" d="M3.976,4.268C4.12,4.167,4.245,4.05,4.339,3.952C4.218,3.977,3.974,4.021,3.677,4.045
				c-0.012,0.01-0.02,0.015-0.02,0.015L3.976,4.268z"/>
			
				<radialGradient id="SVGID_15_" cx="427.1133" cy="-677.8228" r="123.4637" gradientTransform="matrix(0.2797 0 0 0.2785 -83.7031 182.1983)" gradientUnits="userSpaceOnUse">
				<stop  offset="0" style="stop-color:#646467"/>
				<stop  offset="0.3656" style="stop-color:#474749"/>
				<stop  offset="0.6882" style="stop-color:#696A6D"/>
				<stop  offset="1" style="stop-color:#414042"/>
			</radialGradient>
			<path fill="url(#SVGID_15_)" d="M6.462,7.99C6.641,7.96,6.8,7.879,6.919,7.725C7.34,7.167,7.19,6.738,7.083,6.552
				C7.002,6.749,6.909,6.955,6.802,7.168C6.646,7.477,6.537,7.751,6.462,7.99z"/>
			
				<radialGradient id="SVGID_16_" cx="427.1221" cy="-677.834" r="123.487" gradientTransform="matrix(0.2797 0 0 0.2785 -83.7031 182.1983)" gradientUnits="userSpaceOnUse">
				<stop  offset="0" style="stop-color:#646467"/>
				<stop  offset="0.3656" style="stop-color:#474749"/>
				<stop  offset="0.6882" style="stop-color:#696A6D"/>
				<stop  offset="1" style="stop-color:#414042"/>
			</radialGradient>
			<path fill="url(#SVGID_16_)" d="M16.235,10.872l0.006-0.656c0,0-0.506,0.2-1.128,0.396c-0.307,0.345-0.734,0.672-0.734,0.672
				l-0.049,1.193h1.23c0.255-0.508,0.527-1.075,0.561-1.255C16.164,10.99,16.189,10.969,16.235,10.872z"/>
			
				<radialGradient id="SVGID_17_" cx="427.1318" cy="-677.833" r="123.5027" gradientTransform="matrix(0.2797 0 0 0.2785 -83.7031 182.1983)" gradientUnits="userSpaceOnUse">
				<stop  offset="0" style="stop-color:#646467"/>
				<stop  offset="0.3656" style="stop-color:#474749"/>
				<stop  offset="0.6882" style="stop-color:#696A6D"/>
				<stop  offset="1" style="stop-color:#414042"/>
			</radialGradient>
			<path fill="url(#SVGID_17_)" d="M28.798,2.381c0,0,0.147-0.265,0.398-0.646c-0.43-0.182-1.193-0.501-1.818-0.75
				c-0.266-0.105-0.511-0.248-0.712-0.41h-0.112l-0.04,0.906L28.798,2.381z"/>
			
				<radialGradient id="SVGID_18_" cx="427.1602" cy="-677.8442" r="123.5635" gradientTransform="matrix(0.2797 0 0 0.2785 -83.7031 182.1983)" gradientUnits="userSpaceOnUse">
				<stop  offset="0" style="stop-color:#646467"/>
				<stop  offset="0.3656" style="stop-color:#474749"/>
				<stop  offset="0.6882" style="stop-color:#696A6D"/>
				<stop  offset="1" style="stop-color:#414042"/>
			</radialGradient>
			<path fill="url(#SVGID_18_)" d="M23.212,2.051c0.234-0.468,0.146-1.438,0.146-1.438l0.04-0.038h-0.761
				c-0.048,0.146-0.093,0.296-0.132,0.447C22.317,1.751,22.767,1.986,23.212,2.051z"/>
			
				<radialGradient id="SVGID_19_" cx="427.127" cy="-677.8379" r="123.5123" gradientTransform="matrix(0.2797 0 0 0.2785 -83.7031 182.1983)" gradientUnits="userSpaceOnUse">
				<stop  offset="0" style="stop-color:#646467"/>
				<stop  offset="0.3656" style="stop-color:#474749"/>
				<stop  offset="0.6882" style="stop-color:#696A6D"/>
				<stop  offset="1" style="stop-color:#414042"/>
			</radialGradient>
			<path fill="url(#SVGID_19_)" d="M31.191,8.243c-0.033-0.008-0.068-0.023-0.105-0.044c-0.29,0.036-0.448,0.057-0.448,0.057
				s-0.609-0.08-1.405-0.248c-0.042,0.021-0.083,0.036-0.121,0.043c-0.313,0.063-0.765-0.201-0.906-0.29
				c-0.014-0.004-0.028-0.008-0.042-0.012c0.017,0.178,0.154,1.752-0.224,1.953c-0.284,0.151-0.136,1.376-0.026,2.07
				c0.098,0.065,0.203,0.135,0.319,0.207c0.004,0.004,0.009,0.006,0.015,0.009l1.237-1.283c0,0,0.342,1.153,0.245,1.771h0.53
				c0.007,0,0.014-0.001,0.021-0.001c0.001-0.11,0.013-0.22,0.04-0.325c0.175-0.686,0.174-1.451,0.174-1.451
				s0.377-0.297,0.817-0.461V8.228C31.274,8.247,31.232,8.253,31.191,8.243z"/>
			
				<radialGradient id="SVGID_20_" cx="303.8779" cy="-616.2959" r="61.9887" gradientTransform="matrix(0.2797 0 0 0.2785 -83.7031 182.1983)" gradientUnits="userSpaceOnUse">
				<stop  offset="0" style="stop-color:#646467"/>
				<stop  offset="0.3656" style="stop-color:#474749"/>
				<stop  offset="0.6882" style="stop-color:#696A6D"/>
				<stop  offset="1" style="stop-color:#414042"/>
			</radialGradient>
			<path fill="url(#SVGID_20_)" d="M7.284,1.617L6.745,0.896c0,0-0.215,0.178-0.539,0.355c0.17,0.104,0.28,0.168,0.28,0.168
				S5.825,1.646,4.929,2.42C4.783,2.546,4.671,2.671,4.587,2.792c0.011,0.05,0.012,0.099,0,0.146
				c-0.036,0.153-0.129,0.313-0.243,0.46C4.316,3.63,4.369,3.808,4.399,3.888c0.077-0.086,0.122-0.145,0.122-0.145
				s0.795,0.732,1.521,1.175C6.1,4.953,6.158,4.98,6.217,5.002l0.345-0.79l1.006-0.245c0,0,2.175,0.976,2.195,2.414
				c0.011,0.758,0.797,1.128,1.541,1.31c0.132-0.222,0.316-0.531,0.539-0.896c-0.342-0.5-0.672-1.024-0.683-1.209
				c-0.024-0.388-0.174-1.133-0.174-1.133l0.893-0.409c0,0-0.682-0.078-0.445-0.705c0.237-0.626,0.75-0.675,0.75-0.675
				s-0.832-0.178-0.838-0.921c-0.005-0.622,0.155-1.047,0.208-1.168H8.207C7.685,0.99,7.284,1.617,7.284,1.617z"/>
			
				<radialGradient id="SVGID_21_" cx="369.9893" cy="-704.8755" r="154.3725" gradientTransform="matrix(0.2797 0 0 0.2785 -83.7031 182.1983)" gradientUnits="userSpaceOnUse">
				<stop  offset="0" style="stop-color:#58595B"/>
				<stop  offset="0.1742" style="stop-color:#4D4E50"/>
				<stop  offset="0.3656" style="stop-color:#464647"/>
				<stop  offset="0.5499" style="stop-color:#4C4C4E"/>
				<stop  offset="0.7258" style="stop-color:#57575A"/>
				<stop  offset="1" style="stop-color:#414042"/>
			</radialGradient>
			<path fill="url(#SVGID_21_)" d="M31.313,5.567V5.459l-0.049,0.069C31.264,5.528,31.282,5.542,31.313,5.567z"/>
			
				<radialGradient id="SVGID_22_" cx="426.7666" cy="-677.8916" r="123.3265" gradientTransform="matrix(0.2797 0 0 0.2785 -83.7031 182.1983)" gradientUnits="userSpaceOnUse">
				<stop  offset="0" style="stop-color:#646467"/>
				<stop  offset="0.3656" style="stop-color:#474749"/>
				<stop  offset="0.6882" style="stop-color:#696A6D"/>
				<stop  offset="1" style="stop-color:#414042"/>
			</radialGradient>
			<path fill="url(#SVGID_22_)" d="M31.313,5.567V5.459l-0.049,0.069C31.264,5.528,31.282,5.542,31.313,5.567z"/>
			
				<radialGradient id="SVGID_23_" cx="369.0322" cy="-704.8105" r="155.198" gradientTransform="matrix(0.2797 0 0 0.2785 -83.7031 182.1983)" gradientUnits="userSpaceOnUse">
				<stop  offset="0" style="stop-color:#58595B"/>
				<stop  offset="0.1742" style="stop-color:#4D4E50"/>
				<stop  offset="0.3656" style="stop-color:#464647"/>
				<stop  offset="0.5499" style="stop-color:#4C4C4E"/>
				<stop  offset="0.7258" style="stop-color:#57575A"/>
				<stop  offset="1" style="stop-color:#414042"/>
			</radialGradient>
			<path fill="url(#SVGID_23_)" d="M29.196,1.735c0.215-0.325,0.506-0.734,0.846-1.136c0.008-0.008,0.015-0.016,0.021-0.024h-3.397
				c0.201,0.162,0.446,0.305,0.712,0.41C28.003,1.234,28.767,1.554,29.196,1.735z"/>
			
				<radialGradient id="SVGID_24_" cx="427.1309" cy="-677.8472" r="123.5472" gradientTransform="matrix(0.2797 0 0 0.2785 -83.7031 182.1983)" gradientUnits="userSpaceOnUse">
				<stop  offset="0" style="stop-color:#646467"/>
				<stop  offset="0.3656" style="stop-color:#474749"/>
				<stop  offset="0.6882" style="stop-color:#696A6D"/>
				<stop  offset="1" style="stop-color:#414042"/>
			</radialGradient>
			<path fill="url(#SVGID_24_)" d="M29.196,1.735c0.215-0.325,0.506-0.734,0.846-1.136c0.008-0.008,0.015-0.016,0.021-0.024h-3.397
				c0.201,0.162,0.446,0.305,0.712,0.41C28.003,1.234,28.767,1.554,29.196,1.735z"/>
			
				<radialGradient id="SVGID_25_" cx="369.0225" cy="-704.7695" r="155.1297" gradientTransform="matrix(0.2797 0 0 0.2785 -83.7031 182.1983)" gradientUnits="userSpaceOnUse">
				<stop  offset="0" style="stop-color:#58595B"/>
				<stop  offset="0.1742" style="stop-color:#4D4E50"/>
				<stop  offset="0.3656" style="stop-color:#464647"/>
				<stop  offset="0.5499" style="stop-color:#4C4C4E"/>
				<stop  offset="0.7258" style="stop-color:#57575A"/>
				<stop  offset="1" style="stop-color:#414042"/>
			</radialGradient>
			<path fill="url(#SVGID_25_)" d="M31.086,8.199c-0.379-0.212-0.949-1.012-0.949-1.012s-0.525,0.638-0.904,0.82
				c0.796,0.168,1.405,0.248,1.405,0.248S30.796,8.235,31.086,8.199z"/>
			
				<radialGradient id="SVGID_26_" cx="427.1338" cy="-677.8257" r="123.4926" gradientTransform="matrix(0.2797 0 0 0.2785 -83.7031 182.1983)" gradientUnits="userSpaceOnUse">
				<stop  offset="0" style="stop-color:#646467"/>
				<stop  offset="0.3656" style="stop-color:#474749"/>
				<stop  offset="0.6882" style="stop-color:#696A6D"/>
				<stop  offset="1" style="stop-color:#414042"/>
			</radialGradient>
			<path fill="url(#SVGID_26_)" d="M31.086,8.199c-0.379-0.212-0.949-1.012-0.949-1.012s-0.525,0.638-0.904,0.82
				c0.796,0.168,1.405,0.248,1.405,0.248S30.796,8.235,31.086,8.199z"/>
			
				<radialGradient id="SVGID_27_" cx="368.9639" cy="-704.3242" r="154.4056" gradientTransform="matrix(0.2797 0 0 0.2785 -83.7031 182.1983)" gradientUnits="userSpaceOnUse">
				<stop  offset="0" style="stop-color:#58595B"/>
				<stop  offset="0.1742" style="stop-color:#4D4E50"/>
				<stop  offset="0.3656" style="stop-color:#464647"/>
				<stop  offset="0.5499" style="stop-color:#4C4C4E"/>
				<stop  offset="0.7258" style="stop-color:#57575A"/>
				<stop  offset="1" style="stop-color:#414042"/>
			</radialGradient>
			<path fill="url(#SVGID_27_)" d="M28.161,7.732c0,0,0.001,0.006,0.002,0.017c0.014,0.004,0.028,0.008,0.042,0.012
				C28.178,7.743,28.161,7.732,28.161,7.732z"/>
			
				<radialGradient id="SVGID_28_" cx="427.1875" cy="-677.5342" r="122.995" gradientTransform="matrix(0.2797 0 0 0.2785 -83.7031 182.1983)" gradientUnits="userSpaceOnUse">
				<stop  offset="0" style="stop-color:#646467"/>
				<stop  offset="0.3656" style="stop-color:#474749"/>
				<stop  offset="0.6882" style="stop-color:#696A6D"/>
				<stop  offset="1" style="stop-color:#414042"/>
			</radialGradient>
			<path fill="url(#SVGID_28_)" d="M28.161,7.732c0,0,0.001,0.006,0.002,0.017c0.014,0.004,0.028,0.008,0.042,0.012
				C28.178,7.743,28.161,7.732,28.161,7.732z"/>
			
				<radialGradient id="SVGID_29_" cx="369.041" cy="-705.1787" r="156.3138" gradientTransform="matrix(0.2797 0 0 0.2785 -83.7031 182.1983)" gradientUnits="userSpaceOnUse">
				<stop  offset="0" style="stop-color:#58595B"/>
				<stop  offset="0.1742" style="stop-color:#4D4E50"/>
				<stop  offset="0.3656" style="stop-color:#464647"/>
				<stop  offset="0.5499" style="stop-color:#4C4C4E"/>
				<stop  offset="0.7258" style="stop-color:#57575A"/>
				<stop  offset="1" style="stop-color:#414042"/>
			</radialGradient>
			<path fill="url(#SVGID_29_)" d="M17.964,0.575h-0.189c0.028,0.034,0.056,0.069,0.084,0.103
				C17.893,0.645,17.928,0.61,17.964,0.575z"/>
			
				<radialGradient id="SVGID_30_" cx="427.2598" cy="-678.0269" r="123.8335" gradientTransform="matrix(0.2797 0 0 0.2785 -83.7031 182.1983)" gradientUnits="userSpaceOnUse">
				<stop  offset="0" style="stop-color:#646467"/>
				<stop  offset="0.3656" style="stop-color:#474749"/>
				<stop  offset="0.6882" style="stop-color:#696A6D"/>
				<stop  offset="1" style="stop-color:#414042"/>
			</radialGradient>
			<path fill="url(#SVGID_30_)" d="M17.964,0.575h-0.189c0.028,0.034,0.056,0.069,0.084,0.103
				C17.893,0.645,17.928,0.61,17.964,0.575z"/>
			
				<radialGradient id="SVGID_31_" cx="369.0303" cy="-704.7935" r="155.1725" gradientTransform="matrix(0.2797 0 0 0.2785 -83.7031 182.1983)" gradientUnits="userSpaceOnUse">
				<stop  offset="0" style="stop-color:#58595B"/>
				<stop  offset="0.1742" style="stop-color:#4D4E50"/>
				<stop  offset="0.3656" style="stop-color:#464647"/>
				<stop  offset="0.5499" style="stop-color:#4C4C4E"/>
				<stop  offset="0.7258" style="stop-color:#57575A"/>
				<stop  offset="1" style="stop-color:#414042"/>
			</radialGradient>
			<path fill="url(#SVGID_31_)" d="M11.843,6.795c-0.223,0.364-0.407,0.674-0.539,0.896c0.671,0.163,1.308,0.174,1.308,0.174
				S12.22,7.345,11.843,6.795z"/>
			
				<radialGradient id="SVGID_32_" cx="427.1348" cy="-677.8408" r="123.5001" gradientTransform="matrix(0.2797 0 0 0.2785 -83.7031 182.1983)" gradientUnits="userSpaceOnUse">
				<stop  offset="0" style="stop-color:#646467"/>
				<stop  offset="0.3656" style="stop-color:#474749"/>
				<stop  offset="0.6882" style="stop-color:#696A6D"/>
				<stop  offset="1" style="stop-color:#414042"/>
			</radialGradient>
			<path fill="url(#SVGID_32_)" d="M11.843,6.795c-0.223,0.364-0.407,0.674-0.539,0.896c0.671,0.163,1.308,0.174,1.308,0.174
				S12.22,7.345,11.843,6.795z"/>
			
				<radialGradient id="SVGID_33_" cx="369.0488" cy="-704.7661" r="155.1318" gradientTransform="matrix(0.2797 0 0 0.2785 -83.7031 182.1983)" gradientUnits="userSpaceOnUse">
				<stop  offset="0" style="stop-color:#58595B"/>
				<stop  offset="0.1742" style="stop-color:#4D4E50"/>
				<stop  offset="0.3656" style="stop-color:#464647"/>
				<stop  offset="0.5499" style="stop-color:#4C4C4E"/>
				<stop  offset="0.7258" style="stop-color:#57575A"/>
				<stop  offset="1" style="stop-color:#414042"/>
			</radialGradient>
			<path fill="url(#SVGID_33_)" d="M4.521,3.743c0,0-0.045,0.059-0.122,0.145c0.011,0.03,0.02,0.047,0.02,0.047
				S4.39,3.942,4.339,3.952C4.245,4.05,4.12,4.167,3.976,4.268l1.011,0.659L4.724,5.601c0.596,0.555,1.121,1.047,1.102,1.047
				C5.78,6.71,5.623,6.677,5.398,6.585L4.801,7.478c0,0,0.973,0.631,1.661,0.513c0.075-0.239,0.184-0.514,0.34-0.822
				c0.107-0.213,0.2-0.419,0.281-0.616C7.045,6.484,7.01,6.449,7.01,6.449l-1.202-0.51l0.409-0.938
				C6.158,4.98,6.1,4.953,6.042,4.918C5.316,4.476,4.521,3.743,4.521,3.743z"/>
			
				<radialGradient id="SVGID_34_" cx="369.0293" cy="-704.7583" r="155.1039" gradientTransform="matrix(0.2797 0 0 0.2785 -83.7031 182.1983)" gradientUnits="userSpaceOnUse">
				<stop  offset="0" style="stop-color:#58595B"/>
				<stop  offset="0.1742" style="stop-color:#4D4E50"/>
				<stop  offset="0.3656" style="stop-color:#464647"/>
				<stop  offset="0.5499" style="stop-color:#4C4C4E"/>
				<stop  offset="0.7258" style="stop-color:#57575A"/>
				<stop  offset="1" style="stop-color:#414042"/>
			</radialGradient>
			<path fill="url(#SVGID_34_)" d="M19.461,9.265c-0.719-0.155-1.269-0.448-1.181-0.988c0.032-0.204,0.019-0.39-0.033-0.558
				c-0.162-0.02-0.39-0.074-0.567-0.23c-0.213-0.188-0.347-0.564-0.408-0.781c-0.68-0.36-1.448-0.485-1.448-0.485l-1.129,0.542
				l0.387,0.485L14.58,7.874l-0.122,1.175c0,0,0.992,0.612,0.96,1.038c-0.011,0.148-0.141,0.339-0.305,0.524
				c0.622-0.195,1.128-0.396,1.128-0.396l-0.006,0.656c0.023-0.048,0.052-0.114,0.091-0.234c0.115-0.362,0.314-0.661,0.314-0.661
				l0.85,1.338c0.158-0.133,0.326-0.263,0.502-0.38c0.513-0.34,1.024-0.682,1.406-0.936l-0.336,0.137L19.461,9.265z"/>
			
				<radialGradient id="SVGID_35_" cx="371.8486" cy="-623.6768" r="36.1752" gradientTransform="matrix(0.2797 0 0 0.2785 -83.7031 182.1983)" gradientUnits="userSpaceOnUse">
				<stop  offset="0" style="stop-color:#333334"/>
				<stop  offset="1" style="stop-color:#58595B"/>
			</radialGradient>
			<path fill="url(#SVGID_35_)" d="M19.009,3.465c0,0-1.742-0.748-2.834-0.758c-0.305,0.464-0.49,0.8-0.49,0.8l-0.427-0.465
				c-0.278,0.25-0.433,0.577-0.519,0.84l0.452-0.311c0,0,0.953,1.126,2.354,2.575c1.401,1.45,2.032,1.884,2.032,1.884
				s-0.136,0.463-0.176,0.935c-0.011,0.123,0.026,0.224,0.086,0.306c1.193,0.252,2.834,0.133,2.834,0.133s-1.8-1.919-1.718-2.39
				c0.083-0.485,0.07-1.422,0.07-1.422l1.873-1.02c0,0-1.314,0.232-0.599-0.854c0.793-1.201,2.001-1.681,2.001-1.681
				s-0.369,0.065-0.738,0.013c-0.028,0.056-0.061,0.105-0.099,0.145c-0.356,0.365-0.726,0.536-0.726,0.536l-0.573-0.536
				c0,0-0.054-0.92-0.374-1.62h-1.602c-0.099,0.264-0.219,0.546-0.367,0.839C18.782,2.781,19.009,3.465,19.009,3.465z"/>
			
				<radialGradient id="SVGID_36_" cx="375.1748" cy="-698.4194" r="139.7245" gradientTransform="matrix(0.2797 0 0 0.2785 -83.7031 182.1983)" gradientUnits="userSpaceOnUse">
				<stop  offset="0" style="stop-color:#58595B"/>
				<stop  offset="1" style="stop-color:#414042"/>
			</radialGradient>
			<path fill="url(#SVGID_36_)" d="M6.078,1.171C5.907,1.283,5.728,1.404,5.549,1.525c0.243-0.068,0.469-0.172,0.657-0.274
				C6.167,1.227,6.124,1.2,6.078,1.171z"/>
			
				<radialGradient id="SVGID_37_" cx="375.1475" cy="-698.5581" r="139.9389" gradientTransform="matrix(0.2797 0 0 0.2785 -83.7031 182.1983)" gradientUnits="userSpaceOnUse">
				<stop  offset="0" style="stop-color:#58595B"/>
				<stop  offset="1" style="stop-color:#414042"/>
			</radialGradient>
			<path fill="url(#SVGID_37_)" d="M20.813,12.474l0.003,0.003h1.611c0.02-0.113,0.037-0.223,0.063-0.327L20.813,12.474z"/>
			
				<radialGradient id="SVGID_38_" cx="375.1875" cy="-698.3008" r="139.5688" gradientTransform="matrix(0.2797 0 0 0.2785 -83.7031 182.1983)" gradientUnits="userSpaceOnUse">
				<stop  offset="0" style="stop-color:#58595B"/>
				<stop  offset="1" style="stop-color:#414042"/>
			</radialGradient>
			<path fill="url(#SVGID_38_)" d="M0.917,7.02c0,0,0.044-0.162,0.131-0.398C1.218,6.16,1.55,5.417,2.037,5.037
				c0.062-0.048,0.205-0.023,0.402,0.049C2.266,4.844,2.048,4.638,1.78,4.554C1.419,4.441,1.024,4.521,0.691,4.646v2.954
				l0.247,0.271L0.917,7.02z"/>
			
				<radialGradient id="SVGID_39_" cx="375.1338" cy="-698.3154" r="139.5501" gradientTransform="matrix(0.2797 0 0 0.2785 -83.7031 182.1983)" gradientUnits="userSpaceOnUse">
				<stop  offset="0" style="stop-color:#58595B"/>
				<stop  offset="1" style="stop-color:#414042"/>
			</radialGradient>
			<path fill="url(#SVGID_39_)" d="M14.28,4.197l-0.406-0.146c-0.288,0.229-0.597,0.421-0.888,0.5
				c-0.48,0.131-0.815,0.323-1.018,0.47c0.273,0.101,0.561,0.187,0.823,0.26c0.022-0.035,0.045-0.069,0.066-0.104L14.28,4.197z"/>
			
				<radialGradient id="SVGID_40_" cx="375.1484" cy="-698.3203" r="139.5629" gradientTransform="matrix(0.2797 0 0 0.2785 -83.7031 182.1983)" gradientUnits="userSpaceOnUse">
				<stop  offset="0" style="stop-color:#58595B"/>
				<stop  offset="1" style="stop-color:#414042"/>
			</radialGradient>
			<path fill="url(#SVGID_40_)" d="M28.247,11.988l-0.252,0.26c0,0-0.038-0.193-0.082-0.476c-0.382-0.255-0.621-0.439-0.621-0.439
				l-0.593,1.144h2.649C29.134,12.41,28.662,12.248,28.247,11.988z"/>
			
				<radialGradient id="SVGID_41_" cx="369.0127" cy="-704.7822" r="155.1197" gradientTransform="matrix(0.2797 0 0 0.2785 -83.7031 182.1983)" gradientUnits="userSpaceOnUse">
				<stop  offset="0" style="stop-color:#58595B"/>
				<stop  offset="0.1742" style="stop-color:#4D4E50"/>
				<stop  offset="0.3656" style="stop-color:#464647"/>
				<stop  offset="0.5499" style="stop-color:#4C4C4E"/>
				<stop  offset="0.7258" style="stop-color:#57575A"/>
				<stop  offset="1" style="stop-color:#414042"/>
			</radialGradient>
			<path fill="url(#SVGID_41_)" d="M4.144,2.229C3.81,1.963,3.41,1.766,3.41,1.766s0.484-0.271,1.427-0.168
				c0.241,0.025,0.484-0.009,0.712-0.072c0.179-0.121,0.358-0.242,0.529-0.354C5.832,1.016,5.51,0.803,5.213,0.575H2.672
				C2.848,1.213,2.996,1.767,3.02,1.91C3.074,2.249,3.673,2.267,4.144,2.229z"/>
			
				<radialGradient id="SVGID_42_" cx="375.1279" cy="-698.3237" r="139.5372" gradientTransform="matrix(0.2797 0 0 0.2785 -83.7031 182.1983)" gradientUnits="userSpaceOnUse">
				<stop  offset="0" style="stop-color:#58595B"/>
				<stop  offset="1" style="stop-color:#414042"/>
			</radialGradient>
			<path fill="url(#SVGID_42_)" d="M4.144,2.229C3.81,1.963,3.41,1.766,3.41,1.766s0.484-0.271,1.427-0.168
				c0.241,0.025,0.484-0.009,0.712-0.072c0.179-0.121,0.358-0.242,0.529-0.354C5.832,1.016,5.51,0.803,5.213,0.575H2.672
				C2.848,1.213,2.996,1.767,3.02,1.91C3.074,2.249,3.673,2.267,4.144,2.229z"/>
			
				<radialGradient id="SVGID_43_" cx="369.0293" cy="-704.7817" r="155.1534" gradientTransform="matrix(0.2797 0 0 0.2785 -83.7031 182.1983)" gradientUnits="userSpaceOnUse">
				<stop  offset="0" style="stop-color:#58595B"/>
				<stop  offset="0.1742" style="stop-color:#4D4E50"/>
				<stop  offset="0.3656" style="stop-color:#464647"/>
				<stop  offset="0.5499" style="stop-color:#4C4C4E"/>
				<stop  offset="0.7258" style="stop-color:#57575A"/>
				<stop  offset="1" style="stop-color:#414042"/>
			</radialGradient>
			<path fill="url(#SVGID_43_)" d="M18.579,1.503c0,0-0.366-0.398-0.721-0.825c-0.084,0.08-0.161,0.155-0.232,0.224
				c-0.574,0.551-1.094,1.265-1.451,1.806c1.092,0.01,2.834,0.758,2.834,0.758s-0.227-0.684,0.463-2.051
				c0.148-0.293,0.269-0.575,0.367-0.839h-0.421C18.948,1.021,18.579,1.503,18.579,1.503z"/>
			
				<radialGradient id="SVGID_44_" cx="375.1484" cy="-698.3232" r="139.5771" gradientTransform="matrix(0.2797 0 0 0.2785 -83.7031 182.1983)" gradientUnits="userSpaceOnUse">
				<stop  offset="0" style="stop-color:#58595B"/>
				<stop  offset="1" style="stop-color:#414042"/>
			</radialGradient>
			<path fill="url(#SVGID_44_)" d="M18.579,1.503c0,0-0.366-0.398-0.721-0.825c-0.084,0.08-0.161,0.155-0.232,0.224
				c-0.574,0.551-1.094,1.265-1.451,1.806c1.092,0.01,2.834,0.758,2.834,0.758s-0.227-0.684,0.463-2.051
				c0.148-0.293,0.269-0.575,0.367-0.839h-0.421C18.948,1.021,18.579,1.503,18.579,1.503z"/>
			
				<radialGradient id="SVGID_45_" cx="369.043" cy="-704.7661" r="155.1264" gradientTransform="matrix(0.2797 0 0 0.2785 -83.7031 182.1983)" gradientUnits="userSpaceOnUse">
				<stop  offset="0" style="stop-color:#58595B"/>
				<stop  offset="0.1742" style="stop-color:#4D4E50"/>
				<stop  offset="0.3656" style="stop-color:#464647"/>
				<stop  offset="0.5499" style="stop-color:#4C4C4E"/>
				<stop  offset="0.7258" style="stop-color:#57575A"/>
				<stop  offset="1" style="stop-color:#414042"/>
			</radialGradient>
			<path fill="url(#SVGID_45_)" d="M1.78,4.554c0.268,0.084,0.485,0.29,0.659,0.532c0.734,0.27,2.218,1.199,2.959,1.499L5.4,6.582
				L4.62,5.864l0.104-0.264c-0.42-0.392-0.875-0.813-1.199-1.116C3.485,4.493,3.446,4.5,3.406,4.503
				c-0.577,0.046-1.34-1.064-1.34-1.064L1.843,1.614L0.792,1.102V1.101c-0.064,0.127-0.101,0.269-0.101,0.42v3.126
				C1.024,4.521,1.419,4.441,1.78,4.554z"/>
			
				<radialGradient id="SVGID_46_" cx="186.1924" cy="-692.7236" r="147.5796" gradientTransform="matrix(0.2797 0 0 0.2785 -83.7031 182.1983)" gradientUnits="userSpaceOnUse">
				<stop  offset="0" style="stop-color:#58595B"/>
				<stop  offset="1" style="stop-color:#414042"/>
			</radialGradient>
			<path fill="url(#SVGID_46_)" d="M4.62,5.864l0.104-0.264c-0.42-0.392-0.875-0.813-1.199-1.116
				C3.252,4.229,3.07,4.056,3.081,4.057c0.207,0.011,0.411,0.004,0.596-0.012C3.76,3.982,4.101,3.714,4.344,3.398
				c0.021-0.177,0.087-0.385,0.243-0.606C4.546,2.6,4.358,2.4,4.144,2.229C3.673,2.267,3.074,2.249,3.02,1.91
				C2.996,1.767,2.848,1.213,2.672,0.575H1.635c-0.369,0-0.688,0.215-0.843,0.525c-0.064,0.127-0.101,0.269-0.101,0.42v3.126
				C1.024,4.521,1.419,4.441,1.78,4.554c0.268,0.084,0.485,0.29,0.659,0.532c0.734,0.27,2.218,1.199,2.959,1.499L5.4,6.582
				L4.62,5.864z"/>
			
				<radialGradient id="SVGID_47_" cx="369.0322" cy="-704.7729" r="155.1297" gradientTransform="matrix(0.2797 0 0 0.2785 -83.7031 182.1983)" gradientUnits="userSpaceOnUse">
				<stop  offset="0" style="stop-color:#58595B"/>
				<stop  offset="0.1742" style="stop-color:#4D4E50"/>
				<stop  offset="0.3656" style="stop-color:#464647"/>
				<stop  offset="0.5499" style="stop-color:#4C4C4E"/>
				<stop  offset="0.7258" style="stop-color:#57575A"/>
				<stop  offset="1" style="stop-color:#414042"/>
			</radialGradient>
			<path fill="url(#SVGID_47_)" d="M19.402,8.965c0.04-0.472,0.176-0.935,0.176-0.935s-0.631-0.434-2.032-1.884
				c-1.401-1.449-2.354-2.575-2.354-2.575l-0.452,0.311c0.086-0.263,0.24-0.59,0.519-0.84l-0.19-0.208c0,0-0.544,0.701-1.193,1.218
				l0.406,0.146l-1.422,0.979c-0.021,0.035-0.044,0.069-0.066,0.104c0.537,0.147,0.972,0.23,0.972,0.23s0.178,1.403,0.307,2.658
				l0.618-1.403l0.006-0.003l-0.511-0.638l1.243,0.037l-0.14-1.317l1.943,1.698c0,0,0.015,0.065,0.041,0.163
				c0.438,0.23,0.837,0.559,0.976,1.012c0.121,0.014,0.205,0.008,0.205,0.008l1.015,1.527l-0.006,0.011
				c0.009,0.003,0.018,0.004,0.027,0.006C19.429,9.188,19.392,9.088,19.402,8.965z"/>
			
				<radialGradient id="SVGID_48_" cx="427.1758" cy="-677.7153" r="123.3367" gradientTransform="matrix(0.2797 0 0 0.2785 -83.7031 182.1983)" gradientUnits="userSpaceOnUse">
				<stop  offset="0" style="stop-color:#646467"/>
				<stop  offset="0.3656" style="stop-color:#474749"/>
				<stop  offset="0.6882" style="stop-color:#696A6D"/>
				<stop  offset="1" style="stop-color:#414042"/>
			</radialGradient>
			<path fill="url(#SVGID_48_)" d="M27.913,11.772c0.044,0.282,0.082,0.476,0.082,0.476l0.252-0.26
				c-0.006-0.003-0.011-0.005-0.015-0.009C28.116,11.907,28.011,11.838,27.913,11.772z"/>
			
				<radialGradient id="SVGID_49_" cx="375.1123" cy="-698.167" r="139.3495" gradientTransform="matrix(0.2797 0 0 0.2785 -83.7031 182.1983)" gradientUnits="userSpaceOnUse">
				<stop  offset="0" style="stop-color:#58595B"/>
				<stop  offset="1" style="stop-color:#414042"/>
			</radialGradient>
			<path fill="url(#SVGID_49_)" d="M27.913,11.772c0.044,0.282,0.082,0.476,0.082,0.476l0.252-0.26
				c-0.006-0.003-0.011-0.005-0.015-0.009C28.116,11.907,28.011,11.838,27.913,11.772z"/>
			
				<radialGradient id="SVGID_50_" cx="427.1641" cy="-677.8286" r="123.5167" gradientTransform="matrix(0.2797 0 0 0.2785 -83.7031 182.1983)" gradientUnits="userSpaceOnUse">
				<stop  offset="0" style="stop-color:#646467"/>
				<stop  offset="0.3656" style="stop-color:#474749"/>
				<stop  offset="0.6882" style="stop-color:#696A6D"/>
				<stop  offset="1" style="stop-color:#414042"/>
			</radialGradient>
			<path fill="url(#SVGID_50_)" d="M4.929,2.42c0.896-0.773,1.558-1.001,1.558-1.001s-0.11-0.063-0.28-0.168
				C6.018,1.354,5.792,1.457,5.549,1.525c-0.502,0.339-0.992,0.661-1.22,0.688C4.271,2.219,4.208,2.225,4.144,2.229
				C4.358,2.4,4.546,2.6,4.587,2.792C4.671,2.671,4.783,2.546,4.929,2.42z"/>
			
				<radialGradient id="SVGID_51_" cx="375.165" cy="-698.3159" r="139.5717" gradientTransform="matrix(0.2797 0 0 0.2785 -83.7031 182.1983)" gradientUnits="userSpaceOnUse">
				<stop  offset="0" style="stop-color:#58595B"/>
				<stop  offset="1" style="stop-color:#414042"/>
			</radialGradient>
			<path fill="url(#SVGID_51_)" d="M4.929,2.42c0.896-0.773,1.558-1.001,1.558-1.001s-0.11-0.063-0.28-0.168
				C6.018,1.354,5.792,1.457,5.549,1.525c-0.502,0.339-0.992,0.661-1.22,0.688C4.271,2.219,4.208,2.225,4.144,2.229
				C4.358,2.4,4.546,2.6,4.587,2.792C4.671,2.671,4.783,2.546,4.929,2.42z"/>
			
				<radialGradient id="SVGID_52_" cx="427.1963" cy="-677.7871" r="123.5314" gradientTransform="matrix(0.2797 0 0 0.2785 -83.7031 182.1983)" gradientUnits="userSpaceOnUse">
				<stop  offset="0" style="stop-color:#646467"/>
				<stop  offset="0.3656" style="stop-color:#474749"/>
				<stop  offset="0.6882" style="stop-color:#696A6D"/>
				<stop  offset="1" style="stop-color:#414042"/>
			</radialGradient>
			<path fill="url(#SVGID_52_)" d="M4.399,3.888c-0.03-0.08-0.083-0.258-0.056-0.489C4.101,3.714,3.76,3.982,3.677,4.045
				c0.297-0.023,0.541-0.068,0.662-0.093C4.36,3.93,4.381,3.908,4.399,3.888z"/>
			
				<radialGradient id="SVGID_53_" cx="375.1826" cy="-698.252" r="139.5139" gradientTransform="matrix(0.2797 0 0 0.2785 -83.7031 182.1983)" gradientUnits="userSpaceOnUse">
				<stop  offset="0" style="stop-color:#58595B"/>
				<stop  offset="1" style="stop-color:#414042"/>
			</radialGradient>
			<path fill="url(#SVGID_53_)" d="M4.399,3.888c-0.03-0.08-0.083-0.258-0.056-0.489C4.101,3.714,3.76,3.982,3.677,4.045
				c0.297-0.023,0.541-0.068,0.662-0.093C4.36,3.93,4.381,3.908,4.399,3.888z"/>
			
				<radialGradient id="SVGID_54_" cx="427.1387" cy="-677.8335" r="123.505" gradientTransform="matrix(0.2797 0 0 0.2785 -83.7031 182.1983)" gradientUnits="userSpaceOnUse">
				<stop  offset="0" style="stop-color:#646467"/>
				<stop  offset="0.3656" style="stop-color:#474749"/>
				<stop  offset="0.6882" style="stop-color:#696A6D"/>
				<stop  offset="1" style="stop-color:#414042"/>
			</radialGradient>
			<path fill="url(#SVGID_54_)" d="M22.388,2.731c0,0,0.369-0.171,0.726-0.536c0.038-0.039,0.07-0.089,0.099-0.145
				c-0.445-0.064-0.895-0.3-0.706-1.028c0.039-0.151,0.084-0.301,0.132-0.447H21.44c0.32,0.7,0.374,1.62,0.374,1.62L22.388,2.731z"
				/>
			
				<radialGradient id="SVGID_55_" cx="375.1465" cy="-698.3232" r="139.5767" gradientTransform="matrix(0.2797 0 0 0.2785 -83.7031 182.1983)" gradientUnits="userSpaceOnUse">
				<stop  offset="0" style="stop-color:#58595B"/>
				<stop  offset="1" style="stop-color:#414042"/>
			</radialGradient>
			<path fill="url(#SVGID_55_)" d="M22.388,2.731c0,0,0.369-0.171,0.726-0.536c0.038-0.039,0.07-0.089,0.099-0.145
				c-0.445-0.064-0.895-0.3-0.706-1.028c0.039-0.151,0.084-0.301,0.132-0.447H21.44c0.32,0.7,0.374,1.62,0.374,1.62L22.388,2.731z"
				/>
			
				<radialGradient id="SVGID_56_" cx="369.0293" cy="-704.7886" r="155.1736" gradientTransform="matrix(0.2797 0 0 0.2785 -83.7031 182.1983)" gradientUnits="userSpaceOnUse">
				<stop  offset="0" style="stop-color:#58595B"/>
				<stop  offset="0.1742" style="stop-color:#4D4E50"/>
				<stop  offset="0.3656" style="stop-color:#464647"/>
				<stop  offset="0.5499" style="stop-color:#4C4C4E"/>
				<stop  offset="0.7258" style="stop-color:#57575A"/>
				<stop  offset="1" style="stop-color:#414042"/>
			</radialGradient>
			<path fill="url(#SVGID_56_)" d="M18.579,1.503c0,0,0.369-0.482,0.839-0.928h-1.454c-0.036,0.035-0.071,0.069-0.105,0.103
				C18.213,1.104,18.579,1.503,18.579,1.503z"/>
			
				<radialGradient id="SVGID_57_" cx="427.126" cy="-677.8369" r="123.4828" gradientTransform="matrix(0.2797 0 0 0.2785 -83.7031 182.1983)" gradientUnits="userSpaceOnUse">
				<stop  offset="0" style="stop-color:#646467"/>
				<stop  offset="0.3656" style="stop-color:#474749"/>
				<stop  offset="0.6882" style="stop-color:#696A6D"/>
				<stop  offset="1" style="stop-color:#414042"/>
			</radialGradient>
			<path fill="url(#SVGID_57_)" d="M18.579,1.503c0,0,0.369-0.482,0.839-0.928h-1.454c-0.036,0.035-0.071,0.069-0.105,0.103
				C18.213,1.104,18.579,1.503,18.579,1.503z"/>
			
				<radialGradient id="SVGID_58_" cx="375.1465" cy="-698.3291" r="139.5935" gradientTransform="matrix(0.2797 0 0 0.2785 -83.7031 182.1983)" gradientUnits="userSpaceOnUse">
				<stop  offset="0" style="stop-color:#58595B"/>
				<stop  offset="1" style="stop-color:#414042"/>
			</radialGradient>
			<path fill="url(#SVGID_58_)" d="M18.579,1.503c0,0,0.369-0.482,0.839-0.928h-1.454c-0.036,0.035-0.071,0.069-0.105,0.103
				C18.213,1.104,18.579,1.503,18.579,1.503z"/>
			
				<radialGradient id="SVGID_59_" cx="369.0391" cy="-704.7222" r="155.0593" gradientTransform="matrix(0.2797 0 0 0.2785 -83.7031 182.1983)" gradientUnits="userSpaceOnUse">
				<stop  offset="0" style="stop-color:#58595B"/>
				<stop  offset="0.1742" style="stop-color:#4D4E50"/>
				<stop  offset="0.3656" style="stop-color:#464647"/>
				<stop  offset="0.5499" style="stop-color:#4C4C4E"/>
				<stop  offset="0.7258" style="stop-color:#57575A"/>
				<stop  offset="1" style="stop-color:#414042"/>
			</radialGradient>
			<path fill="url(#SVGID_59_)" d="M5.549,1.525C5.321,1.589,5.078,1.623,4.837,1.598C3.895,1.494,3.41,1.766,3.41,1.766
				S3.81,1.963,4.144,2.229c0.064-0.005,0.128-0.011,0.186-0.017C4.557,2.187,5.047,1.864,5.549,1.525z"/>
			
				<radialGradient id="SVGID_60_" cx="427.1533" cy="-677.8013" r="123.4993" gradientTransform="matrix(0.2797 0 0 0.2785 -83.7031 182.1983)" gradientUnits="userSpaceOnUse">
				<stop  offset="0" style="stop-color:#646467"/>
				<stop  offset="0.3656" style="stop-color:#474749"/>
				<stop  offset="0.6882" style="stop-color:#696A6D"/>
				<stop  offset="1" style="stop-color:#414042"/>
			</radialGradient>
			<path fill="url(#SVGID_60_)" d="M5.549,1.525C5.321,1.589,5.078,1.623,4.837,1.598C3.895,1.494,3.41,1.766,3.41,1.766
				S3.81,1.963,4.144,2.229c0.064-0.005,0.128-0.011,0.186-0.017C4.557,2.187,5.047,1.864,5.549,1.525z"/>
			
				<radialGradient id="SVGID_61_" cx="375.1582" cy="-698.27" r="139.5081" gradientTransform="matrix(0.2797 0 0 0.2785 -83.7031 182.1983)" gradientUnits="userSpaceOnUse">
				<stop  offset="0" style="stop-color:#58595B"/>
				<stop  offset="1" style="stop-color:#414042"/>
			</radialGradient>
			<path fill="url(#SVGID_61_)" d="M5.549,1.525C5.321,1.589,5.078,1.623,4.837,1.598C3.895,1.494,3.41,1.766,3.41,1.766
				S3.81,1.963,4.144,2.229c0.064-0.005,0.128-0.011,0.186-0.017C4.557,2.187,5.047,1.864,5.549,1.525z"/>
			
				<radialGradient id="SVGID_62_" cx="368.6807" cy="-704.5923" r="154.4592" gradientTransform="matrix(0.2797 0 0 0.2785 -83.7031 182.1983)" gradientUnits="userSpaceOnUse">
				<stop  offset="0" style="stop-color:#58595B"/>
				<stop  offset="0.1742" style="stop-color:#4D4E50"/>
				<stop  offset="0.3656" style="stop-color:#464647"/>
				<stop  offset="0.5499" style="stop-color:#4C4C4E"/>
				<stop  offset="0.7258" style="stop-color:#57575A"/>
				<stop  offset="1" style="stop-color:#414042"/>
			</radialGradient>
			<path fill="url(#SVGID_62_)" d="M4.419,3.935c0,0-0.009-0.017-0.02-0.047C4.381,3.908,4.36,3.93,4.339,3.952
				C4.39,3.942,4.419,3.935,4.419,3.935z"/>
			
				<radialGradient id="SVGID_63_" cx="426.4072" cy="-677.7227" r="122.7329" gradientTransform="matrix(0.2797 0 0 0.2785 -83.7031 182.1983)" gradientUnits="userSpaceOnUse">
				<stop  offset="0" style="stop-color:#646467"/>
				<stop  offset="0.3656" style="stop-color:#474749"/>
				<stop  offset="0.6882" style="stop-color:#696A6D"/>
				<stop  offset="1" style="stop-color:#414042"/>
			</radialGradient>
			<path fill="url(#SVGID_63_)" d="M4.419,3.935c0,0-0.009-0.017-0.02-0.047C4.381,3.908,4.36,3.93,4.339,3.952
				C4.39,3.942,4.419,3.935,4.419,3.935z"/>
			
				<radialGradient id="SVGID_64_" cx="374.7578" cy="-698.1523" r="138.8951" gradientTransform="matrix(0.2797 0 0 0.2785 -83.7031 182.1983)" gradientUnits="userSpaceOnUse">
				<stop  offset="0" style="stop-color:#58595B"/>
				<stop  offset="1" style="stop-color:#414042"/>
			</radialGradient>
			<path fill="url(#SVGID_64_)" d="M4.419,3.935c0,0-0.009-0.017-0.02-0.047C4.381,3.908,4.36,3.93,4.339,3.952
				C4.39,3.942,4.419,3.935,4.419,3.935z"/>
			
				<radialGradient id="SVGID_65_" cx="369.0273" cy="-704.7427" r="155.0647" gradientTransform="matrix(0.2797 0 0 0.2785 -83.7031 182.1983)" gradientUnits="userSpaceOnUse">
				<stop  offset="0" style="stop-color:#58595B"/>
				<stop  offset="0.1742" style="stop-color:#4D4E50"/>
				<stop  offset="0.3656" style="stop-color:#464647"/>
				<stop  offset="0.5499" style="stop-color:#4C4C4E"/>
				<stop  offset="0.7258" style="stop-color:#57575A"/>
				<stop  offset="1" style="stop-color:#414042"/>
			</radialGradient>
			<path fill="url(#SVGID_65_)" d="M17.271,6.707c-0.026-0.098-0.041-0.163-0.041-0.163l-1.943-1.698l0.14,1.317l-1.243-0.037
				l0.511,0.638l1.129-0.542C15.823,6.222,16.592,6.347,17.271,6.707z"/>
			
				<radialGradient id="SVGID_66_" cx="427.125" cy="-677.8101" r="123.4627" gradientTransform="matrix(0.2797 0 0 0.2785 -83.7031 182.1983)" gradientUnits="userSpaceOnUse">
				<stop  offset="0" style="stop-color:#646467"/>
				<stop  offset="0.3656" style="stop-color:#474749"/>
				<stop  offset="0.6882" style="stop-color:#696A6D"/>
				<stop  offset="1" style="stop-color:#414042"/>
			</radialGradient>
			<path fill="url(#SVGID_66_)" d="M17.271,6.707c-0.026-0.098-0.041-0.163-0.041-0.163l-1.943-1.698l0.14,1.317l-1.243-0.037
				l0.511,0.638l1.129-0.542C15.823,6.222,16.592,6.347,17.271,6.707z"/>
			
				<radialGradient id="SVGID_67_" cx="375.1436" cy="-698.2876" r="139.497" gradientTransform="matrix(0.2797 0 0 0.2785 -83.7031 182.1983)" gradientUnits="userSpaceOnUse">
				<stop  offset="0" style="stop-color:#58595B"/>
				<stop  offset="1" style="stop-color:#414042"/>
			</radialGradient>
			<path fill="url(#SVGID_67_)" d="M17.271,6.707c-0.026-0.098-0.041-0.163-0.041-0.163l-1.943-1.698l0.14,1.317l-1.243-0.037
				l0.511,0.638l1.129-0.542C15.823,6.222,16.592,6.347,17.271,6.707z"/>
			
				<radialGradient id="SVGID_68_" cx="368.9854" cy="-704.7676" r="155.0804" gradientTransform="matrix(0.2797 0 0 0.2785 -83.7031 182.1983)" gradientUnits="userSpaceOnUse">
				<stop  offset="0" style="stop-color:#58595B"/>
				<stop  offset="0.1742" style="stop-color:#4D4E50"/>
				<stop  offset="0.3656" style="stop-color:#464647"/>
				<stop  offset="0.5499" style="stop-color:#4C4C4E"/>
				<stop  offset="0.7258" style="stop-color:#57575A"/>
				<stop  offset="1" style="stop-color:#414042"/>
			</radialGradient>
			<path fill="url(#SVGID_68_)" d="M5.825,6.647c0.02,0-0.506-0.492-1.102-1.047L4.62,5.864L5.4,6.582L5.398,6.585
				C5.623,6.677,5.78,6.71,5.825,6.647z"/>
			
				<radialGradient id="SVGID_69_" cx="427.0381" cy="-677.8247" r="123.3955" gradientTransform="matrix(0.2797 0 0 0.2785 -83.7031 182.1983)" gradientUnits="userSpaceOnUse">
				<stop  offset="0" style="stop-color:#646467"/>
				<stop  offset="0.3656" style="stop-color:#474749"/>
				<stop  offset="0.6882" style="stop-color:#696A6D"/>
				<stop  offset="1" style="stop-color:#414042"/>
			</radialGradient>
			<path fill="url(#SVGID_69_)" d="M5.825,6.647c0.02,0-0.506-0.492-1.102-1.047L4.62,5.864L5.4,6.582L5.398,6.585
				C5.623,6.677,5.78,6.71,5.825,6.647z"/>
			
				<radialGradient id="SVGID_70_" cx="330.042" cy="-636.981" r="13.9591" gradientTransform="matrix(0.2797 0 0 0.2785 -83.7031 182.1983)" gradientUnits="userSpaceOnUse">
				<stop  offset="0" style="stop-color:#58595B"/>
				<stop  offset="1" style="stop-color:#414042"/>
			</radialGradient>
			<path fill="url(#SVGID_70_)" d="M7.01,6.449l-1.202-0.51l0.409-0.938C6.158,4.98,6.1,4.953,6.042,4.918
				C5.316,4.476,4.521,3.743,4.521,3.743S4.477,3.802,4.399,3.888c0.011,0.03,0.02,0.047,0.02,0.047S4.39,3.942,4.339,3.952
				C4.245,4.05,4.12,4.167,3.976,4.268l1.011,0.659L4.724,5.601L4.62,5.864L5.4,6.582L5.398,6.585L4.801,7.478
				c0,0,0.973,0.631,1.661,0.513c0.075-0.239,0.184-0.514,0.34-0.822c0.107-0.213,0.2-0.419,0.281-0.616
				C7.045,6.484,7.01,6.449,7.01,6.449z"/>
			
				<radialGradient id="SVGID_71_" cx="369.0313" cy="-704.728" r="155.0442" gradientTransform="matrix(0.2797 0 0 0.2785 -83.7031 182.1983)" gradientUnits="userSpaceOnUse">
				<stop  offset="0" style="stop-color:#58595B"/>
				<stop  offset="0.1742" style="stop-color:#4D4E50"/>
				<stop  offset="0.3656" style="stop-color:#464647"/>
				<stop  offset="0.5499" style="stop-color:#4C4C4E"/>
				<stop  offset="0.7258" style="stop-color:#57575A"/>
				<stop  offset="1" style="stop-color:#414042"/>
			</radialGradient>
			<path fill="url(#SVGID_71_)" d="M18.28,8.276c-0.088,0.54,0.462,0.833,1.181,0.988l0.006-0.011l-1.015-1.527
				c0,0-0.084,0.006-0.205-0.008C18.299,7.887,18.313,8.072,18.28,8.276z"/>
			
				<radialGradient id="SVGID_72_" cx="427.1182" cy="-677.7983" r="123.4397" gradientTransform="matrix(0.2797 0 0 0.2785 -83.7031 182.1983)" gradientUnits="userSpaceOnUse">
				<stop  offset="0" style="stop-color:#646467"/>
				<stop  offset="0.3656" style="stop-color:#474749"/>
				<stop  offset="0.6882" style="stop-color:#696A6D"/>
				<stop  offset="1" style="stop-color:#414042"/>
			</radialGradient>
			<path fill="url(#SVGID_72_)" d="M18.28,8.276c-0.088,0.54,0.462,0.833,1.181,0.988l0.006-0.011l-1.015-1.527
				c0,0-0.084,0.006-0.205-0.008C18.299,7.887,18.313,8.072,18.28,8.276z"/>
			
				<radialGradient id="SVGID_73_" cx="371.9629" cy="-613.5039" r="43.7208" gradientTransform="matrix(0.2797 0 0 0.2785 -83.7031 182.1983)" gradientUnits="userSpaceOnUse">
				<stop  offset="0" style="stop-color:#58595B"/>
				<stop  offset="0.1742" style="stop-color:#4D4E50"/>
				<stop  offset="0.3656" style="stop-color:#464647"/>
				<stop  offset="0.5499" style="stop-color:#4C4C4E"/>
				<stop  offset="0.7258" style="stop-color:#57575A"/>
				<stop  offset="1" style="stop-color:#383839"/>
			</radialGradient>
			<path fill="url(#SVGID_73_)" d="M19.578,8.03c0,0-0.631-0.434-2.032-1.884c-1.401-1.449-2.354-2.575-2.354-2.575l-0.452,0.311
				c0.086-0.263,0.24-0.59,0.519-0.84l-0.19-0.208c0,0-0.544,0.701-1.193,1.218l0.406,0.146l-1.422,0.979
				c-0.021,0.035-0.044,0.069-0.066,0.104c0.537,0.147,0.972,0.23,0.972,0.23s0.178,1.403,0.307,2.658l0.618-1.403l0.006-0.003
				l-0.511-0.638l1.243,0.037l-0.14-1.317l1.943,1.698c0,0,0.015,0.065,0.041,0.163c0.438,0.23,0.837,0.559,0.976,1.012
				c-0.162-0.02-0.39-0.074-0.567-0.23c-0.213-0.188-0.347-0.564-0.408-0.781c-0.68-0.36-1.448-0.485-1.448-0.485l-1.129,0.542
				l0.387,0.485L14.58,7.874l-0.122,1.175c0,0,0.992,0.612,0.96,1.038c-0.011,0.148-0.141,0.339-0.305,0.524
				c0.622-0.195,1.128-0.396,1.128-0.396l-0.006,0.656c0.023-0.048,0.052-0.114,0.091-0.234c0.115-0.362,0.314-0.661,0.314-0.661
				l0.85,1.338c0.158-0.133,0.326-0.263,0.502-0.38c0.513-0.34,1.024-0.682,1.406-0.936l-0.336,0.137l0.398-0.871
				c0.009,0.003,0.018,0.004,0.027,0.006c-0.06-0.082-0.097-0.183-0.086-0.306C19.442,8.493,19.578,8.03,19.578,8.03z"/>
		</g>
	</g>
	<polygon fill="#1E1E1E" points="16.101,1.901 13.677,1.901 17.096,6.881 13.677,11.859 16.101,11.859 19.52,6.881 	"/>
	<g>
		<g>
			<polygon fill="#777778" points="18.117,6.325 18.627,6.325 15.207,11.305 14.985,10.884 			"/>
			<polygon fill="#BFBFC1" points="16.713,6.325 16.202,6.325 12.784,1.346 13.583,1.767 			"/>
			<polygon fill="#F1F2F2" points="13.583,1.767 12.784,1.346 15.207,1.346 14.985,1.767 			"/>
			<polygon fill="#919295" points="14.985,1.767 15.207,1.346 18.627,6.325 18.117,6.325 			"/>
			<polygon fill="#D2D3D4" points="13.583,10.884 12.784,11.305 16.202,6.325 16.713,6.325 			"/>
			<polygon fill="#595A5A" points="14.985,10.884 15.207,11.305 12.784,11.305 13.583,10.884 			"/>
			<linearGradient id="SVGID_74_" gradientUnits="userSpaceOnUse" x1="15.4253" y1="3.021" x2="16.0763" y2="11.5772">
				<stop  offset="0.0323" style="stop-color:#E7E7E8"/>
				<stop  offset="0.3172" style="stop-color:#949598"/>
				<stop  offset="0.6398" style="stop-color:#E7E7E8"/>
				<stop  offset="0.8387" style="stop-color:#949598"/>
				<stop  offset="0.9946" style="stop-color:#565759"/>
			</linearGradient>
			<polygon fill="url(#SVGID_74_)" points="14.985,1.767 18.117,6.325 14.985,10.884 13.583,10.884 16.713,6.325 13.583,1.767 			
				"/>
		</g>
	</g>
	<g>
		<path fill="#303030" d="M1.353,12.491c-0.489,0-0.886-0.399-0.886-0.892V1.4c0-0.491,0.396-0.891,0.886-0.891h29.185
			c0.489,0,0.996,0.291,0.996,0.779v10.2c0,0.487-0.512,1.002-0.996,1.002H1.353z M1.353,0.84c-0.307,0-0.556,0.251-0.556,0.561
			V11.6c0,0.31,0.249,0.561,0.556,0.561h29.185c0.305,0,0.666-0.363,0.666-0.671v-10.2c0-0.282-0.338-0.449-0.666-0.449H1.353z"/>
		<g>
			<g>
				<linearGradient id="SVGID_75_" gradientUnits="userSpaceOnUse" x1="5.3989" y1="-4.1094" x2="26.5548" y2="17.0465">
					<stop  offset="0" style="stop-color:#818285"/>
					<stop  offset="0.4785" style="stop-color:#A8A9AC"/>
					<stop  offset="0.9892" style="stop-color:#F1F2F2"/>
				</linearGradient>
				<path fill="url(#SVGID_75_)" d="M30.61,0.406H1.278c-0.531,0-0.962,0.435-0.962,0.968v10.252c0,0.533,0.431,0.967,0.962,0.967
					H30.61c0.53,0,1.074-0.545,1.074-1.078V1.263C31.685,0.729,31.141,0.406,30.61,0.406z M31.446,11.515
					c0,0.401-0.438,0.841-0.836,0.841H1.278c-0.399,0-0.725-0.327-0.725-0.729V1.374c0-0.402,0.325-0.729,0.725-0.729H30.61
					c0.411,0,0.836,0.23,0.836,0.617V11.515z"/>
				<linearGradient id="SVGID_76_" gradientUnits="userSpaceOnUse" x1="5.3994" y1="-4.1089" x2="26.5544" y2="17.0461">
					<stop  offset="0.0108" style="stop-color:#F1F2F2"/>
					<stop  offset="0.3495" style="stop-color:#A8A9AC"/>
					<stop  offset="1" style="stop-color:#818285"/>
				</linearGradient>
				<path fill="url(#SVGID_76_)" d="M30.61,0.169H1.278c-0.662,0-1.2,0.541-1.2,1.205v10.252c0,0.665,0.538,1.205,1.2,1.205H30.61
					c0.662,0,1.312-0.652,1.312-1.316V1.263C31.922,0.577,31.255,0.169,30.61,0.169z M31.685,11.515
					c0,0.533-0.544,1.078-1.074,1.078H1.278c-0.531,0-0.962-0.434-0.962-0.967V1.374c0-0.533,0.431-0.968,0.962-0.968H30.61
					c0.53,0,1.074,0.323,1.074,0.856V11.515z"/>
			</g>
		</g>
	</g>
</g>
</svg>
