<?xml version="1.0" encoding="utf-8"?>
<!-- Generator: Adobe Illustrator 16.0.0, SVG Export Plug-In . SVG Version: 6.00 Build 0)  -->
<!DOCTYPE svg PUBLIC "-//W3C//DTD SVG 1.1//EN" "http://www.w3.org/Graphics/SVG/1.1/DTD/svg11.dtd">
<svg version="1.1" id="Layer_1" xmlns="http://www.w3.org/2000/svg" xmlns:xlink="http://www.w3.org/1999/xlink" x="0px" y="0px"
	 width="32px" height="13px" viewBox="0 0 32 13" enable-background="new 0 0 32 13" xml:space="preserve">
<g>
	<g>
		<polygon fill="#6E6E71" points="30.638,4.775 30.735,4.907 1.263,4.907 1.361,4.775 		"/>
		<polygon fill="#818285" points="31.537,2.763 31.751,2.631 30.735,4.907 30.638,4.775 		"/>
		<linearGradient id="SVGID_1_" gradientUnits="userSpaceOnUse" x1="0.2485" y1="2.6309" x2="31.7515" y2="2.6309">
			<stop  offset="0" style="stop-color:#000000"/>
			<stop  offset="0.2366" style="stop-color:#4A4B4C"/>
			<stop  offset="0.4194" style="stop-color:#000000"/>
			<stop  offset="0.6452" style="stop-color:#636466"/>
			<stop  offset="0.7742" style="stop-color:#5E5F61"/>
			<stop  offset="1" style="stop-color:#000000"/>
		</linearGradient>
		<path fill="url(#SVGID_1_)" d="M0.249,2.631h31.503H0.249z"/>
		<polygon fill="#A8A9AC" points="1.361,4.775 1.263,4.907 0.249,2.631 0.463,2.763 		"/>
		<polygon fill="#E7E7E8" points="0.463,2.763 0.249,2.631 31.751,2.631 31.537,2.763 		"/>
		<linearGradient id="SVGID_2_" gradientUnits="userSpaceOnUse" x1="1.3721" y1="14.8081" x2="28.1313" y2="-6.0258">
			<stop  offset="0" style="stop-color:#525254"/>
			<stop  offset="0.1935" style="stop-color:#838487"/>
			<stop  offset="0.3441" style="stop-color:#525254"/>
			<stop  offset="0.4839" style="stop-color:#6C6C6F"/>
			<stop  offset="0.6398" style="stop-color:#525254"/>
			<stop  offset="0.7796" style="stop-color:#7B7C7E"/>
			<stop  offset="0.7903" style="stop-color:#838487"/>
			<stop  offset="0.9677" style="stop-color:#4A4B4C"/>
		</linearGradient>
		<polygon fill="url(#SVGID_2_)" points="31.537,2.763 30.638,4.775 1.361,4.775 0.463,2.763 		"/>
		<polygon fill="#FAF7CB" points="0.493,2.765 0.492,2.764 0.28,2.634 0.251,2.634 0.262,2.658 0.477,2.789 0.466,2.765 		"/>
		<polygon fill="#6E6E71" points="28.506,7.489 28.604,7.621 3.396,7.621 3.494,7.489 		"/>
		<polygon fill="#818285" points="29.405,5.477 29.62,5.345 28.604,7.621 28.506,7.489 		"/>
		<path fill="#686868" d="M2.38,5.345h27.24H2.38z"/>
		<polygon fill="#A8A9AC" points="3.494,7.489 3.396,7.621 2.38,5.345 2.594,5.477 		"/>
		<polygon fill="#E7E7E8" points="2.594,5.477 2.38,5.345 29.62,5.345 29.405,5.477 		"/>
		<linearGradient id="SVGID_3_" gradientUnits="userSpaceOnUse" x1="2.6875" y1="16.498" x2="29.4465" y2="-4.3358">
			<stop  offset="0" style="stop-color:#525254"/>
			<stop  offset="0.1935" style="stop-color:#838487"/>
			<stop  offset="0.3441" style="stop-color:#525254"/>
			<stop  offset="0.4839" style="stop-color:#6C6C6F"/>
			<stop  offset="0.6398" style="stop-color:#525254"/>
			<stop  offset="0.7796" style="stop-color:#7B7C7E"/>
			<stop  offset="0.7903" style="stop-color:#838487"/>
			<stop  offset="0.9677" style="stop-color:#4A4B4C"/>
		</linearGradient>
		<polygon fill="url(#SVGID_3_)" points="29.405,5.477 28.506,7.489 3.494,7.489 2.594,5.477 		"/>
		<polygon fill="#FAF7CB" points="2.625,5.478 2.624,5.476 2.411,5.346 2.382,5.346 2.393,5.371 2.608,5.502 2.597,5.478 		"/>
		<polygon fill="#6E6E71" points="26.397,10.196 26.495,10.327 5.505,10.327 5.603,10.196 		"/>
		<polygon fill="#818285" points="27.296,8.184 27.511,8.053 26.495,10.327 26.397,10.196 		"/>
		<path fill="#686868" d="M4.489,8.053h23.022H4.489z"/>
		<polygon fill="#A8A9AC" points="5.603,10.196 5.505,10.327 4.489,8.053 4.704,8.184 		"/>
		<polygon fill="#E7E7E8" points="4.704,8.184 4.489,8.053 27.511,8.053 27.296,8.184 		"/>
		<linearGradient id="SVGID_4_" gradientUnits="userSpaceOnUse" x1="3.9995" y1="18.1836" x2="30.7592" y2="-2.6507">
			<stop  offset="0" style="stop-color:#525254"/>
			<stop  offset="0.1935" style="stop-color:#838487"/>
			<stop  offset="0.3441" style="stop-color:#525254"/>
			<stop  offset="0.4839" style="stop-color:#6C6C6F"/>
			<stop  offset="0.6398" style="stop-color:#525254"/>
			<stop  offset="0.7796" style="stop-color:#7B7C7E"/>
			<stop  offset="0.7903" style="stop-color:#838487"/>
			<stop  offset="0.9677" style="stop-color:#4A4B4C"/>
		</linearGradient>
		<polygon fill="url(#SVGID_4_)" points="27.296,8.184 26.397,10.196 5.603,10.196 4.704,8.184 		"/>
		<polygon fill="#FAF7CB" points="4.732,8.186 4.731,8.184 4.519,8.054 4.49,8.054 4.501,8.078 4.716,8.21 4.705,8.186 		"/>
	</g>
	<g>
		<linearGradient id="SVGID_5_" gradientUnits="userSpaceOnUse" x1="16.2754" y1="11.105" x2="16.2754" y2="4.127">
			<stop  offset="0" style="stop-color:#6E6E71"/>
			<stop  offset="0.0026" style="stop-color:#6D6E70"/>
			<stop  offset="0.069" style="stop-color:#5A5B5D"/>
			<stop  offset="0.1413" style="stop-color:#4C4C4E"/>
			<stop  offset="0.2239" style="stop-color:#434345"/>
			<stop  offset="0.3387" style="stop-color:#414042"/>
			<stop  offset="0.7849" style="stop-color:#383839"/>
			<stop  offset="1" style="stop-color:#2E2E2F"/>
		</linearGradient>
		<polygon fill="url(#SVGID_5_)" points="18.354,4.912 16.778,2.618 14.197,2.618 15.772,4.912 		"/>
		<linearGradient id="SVGID_6_" gradientUnits="userSpaceOnUse" x1="17.9741" y1="11.105" x2="17.9741" y2="4.1274">
			<stop  offset="0" style="stop-color:#6E6E71"/>
			<stop  offset="0.0026" style="stop-color:#6D6E70"/>
			<stop  offset="0.069" style="stop-color:#5A5B5D"/>
			<stop  offset="0.1413" style="stop-color:#4C4C4E"/>
			<stop  offset="0.2239" style="stop-color:#434345"/>
			<stop  offset="0.3387" style="stop-color:#414042"/>
			<stop  offset="0.7849" style="stop-color:#383839"/>
			<stop  offset="1" style="stop-color:#2E2E2F"/>
		</linearGradient>
		<polygon fill="url(#SVGID_6_)" points="18.64,5.323 16.058,5.323 17.307,7.148 16.964,7.647 19.547,7.647 19.89,7.148 		"/>
		<linearGradient id="SVGID_7_" gradientUnits="userSpaceOnUse" x1="17.1997" y1="11.105" x2="17.1997" y2="4.1283">
			<stop  offset="0" style="stop-color:#6E6E71"/>
			<stop  offset="0.0026" style="stop-color:#6D6E70"/>
			<stop  offset="0.069" style="stop-color:#5A5B5D"/>
			<stop  offset="0.1413" style="stop-color:#4C4C4E"/>
			<stop  offset="0.2239" style="stop-color:#434345"/>
			<stop  offset="0.3387" style="stop-color:#414042"/>
			<stop  offset="0.7849" style="stop-color:#383839"/>
			<stop  offset="1" style="stop-color:#2E2E2F"/>
		</linearGradient>
		<polygon fill="url(#SVGID_7_)" points="15.091,10.376 17.673,10.376 19.309,8.031 16.727,8.031 		"/>
	</g>
	<g>
		<g enable-background="new    ">
			<g>
				<path fill="#747575" d="M13.128,1.605h2.382H13.128z"/>
			</g>
			<g>
				<path fill="#595A5A" d="M15.51,1.605L18.872,6.5L15.51,1.605z"/>
			</g>
			<g>
				<path fill="#787878" d="M13.128,11.395l3.36-4.895L13.128,11.395z"/>
			</g>
			<g>
				<polygon fill="#777778" points="18.37,6.5 18.872,6.5 15.51,11.395 15.292,10.98 				"/>
			</g>
			<g>
				<polygon fill="#BFBFC1" points="16.99,6.5 16.488,6.5 13.128,1.605 13.913,2.02 				"/>
			</g>
			<g>
				<polygon fill="#F1F2F2" points="13.913,2.02 13.128,1.605 15.51,1.605 15.292,2.02 				"/>
			</g>
			<g>
				<polygon fill="#919295" points="15.292,2.02 15.51,1.605 18.872,6.5 18.37,6.5 				"/>
			</g>
			<g>
				<polygon fill="#D2D3D4" points="13.913,10.98 13.128,11.395 16.488,6.5 16.99,6.5 				"/>
			</g>
			<g>
				<polygon fill="#818285" points="15.292,10.98 15.51,11.395 13.128,11.395 13.913,10.98 				"/>
			</g>
			<g>
				<linearGradient id="SVGID_8_" gradientUnits="userSpaceOnUse" x1="15.3545" y1="2.6514" x2="16.4534" y2="11.1557">
					<stop  offset="0.0323" style="stop-color:#E7E7E8"/>
					<stop  offset="0.3172" style="stop-color:#949598"/>
					<stop  offset="0.6398" style="stop-color:#E7E7E8"/>
					<stop  offset="0.8387" style="stop-color:#949598"/>
					<stop  offset="0.9946" style="stop-color:#565759"/>
				</linearGradient>
				<polygon fill="url(#SVGID_8_)" points="15.292,2.02 18.37,6.5 15.292,10.98 13.913,10.98 16.99,6.5 13.913,2.02 				"/>
			</g>
		</g>
	</g>
</g>
</svg>
