<svg xmlns="http://www.w3.org/2000/svg" viewBox="0 0 32 32"><path fill="#fff" d="M15.867.096C3.658.096 1.701 1.178 1.701 1.178v16.304c0 3.664 1.92 7.189 4.613 9.778 3.06 2.938 8.063 4.707 9.553 4.707 1.668 0 6.303-1.8 9.34-4.707 2.752-2.634 4.824-6.2 4.824-9.717V1.178S26.712.096 15.867.096zm.156 6.441c3.822 0 4.954 1.272 6.26 2.65 1.308 1.38 1.912 4.147 2.053 4.776.212.954.583 1.325.95 2.203.287.702.326 1.235.359 2.146.023.672-.075 1.23-.196 1.538-.173.439-.38.511-.69.511-.223 0-.548-.037-.91-.047-.305-.009-.344-.335-.363-.55-.034-.424-.033-.603-.033-1.168 0 0 0-.494-.674-.883-.672-.39-1.237-.92-6.754-.92-5.517 0-6.47.634-6.93.988-.46.354-.85.672-.85.99v1.098c0 .41-.164.475-.268.475-.05 0-.084-.016-.084-.016s-.278.033-.579.033a2.74 2.74 0 01-.343-.02c-.388-.05-.885-.722-.885-2.066 0-1.342.177-1.624.496-2.437.318-.814.776-1.414.953-2.193.178-.778 1.027-3.254 2.053-4.49.957-1.157 2.757-2.618 6.435-2.618z"/></svg>
