<svg xmlns="http://www.w3.org/2000/svg" viewBox="0 0 32 32"><path fill-rule="evenodd" clip-rule="evenodd" fill="#fff" d="M18.304 7.498l-.101-3.303v-.284c0-.287.026-.849-.083-1.034-.109-.184-.454-.478-.835-.383a.741.741 0 00-.55.566l-.017.983c-.057.264-.033.622-.033.901v.317c-.037.173.025.423-.017.616-.038.173.024.424-.017.618-.06.275-.036.697-.034 1.001h1.687zm-7.207-.718c.115.221.304.462.367.718h1.902c-.039-.115-.125-.206-.184-.301-.126-.203-.245-.405-.367-.601-.355-.564-.684-1.144-1.034-1.701-.211-.334-.343-.695-.884-.7-.052.036-.127.032-.184.066-.147.087-.332.219-.401.384-.158.38.074.732.218.968.225.37.366.783.567 1.167zm12.677-2.585c-.146.114-.327.163-.434.316-.176.254-.303.523-.467.784-.259.409-.543.824-.801 1.234l-.45.717c-.049.077-.066.161-.134.217v.034c.647.002 1.396-.053 1.835.149.177-.363.377-.728.584-1.067.119-.195.181-.404.301-.6.146-.241.347-.521.433-.802.173-.555-.375-.995-.867-.982zm2.853 7.607c.592-.367 1.198-.708 1.785-1.067.248-.153.524-.258.75-.435.273-.213.293-.813.084-1.101-.134-.185-.408-.204-.734-.2-.043.032-.097.025-.149.05-.144.064-.301.155-.45.233-.488.254-.994.483-1.485.751-.283.154-.587.296-.884.45-.111.058-.22.152-.351.184v1.985c.183-.051.336-.191.484-.284.315-.196.64-.374.95-.566zm-3.386 11.026c.262-.394.2-1.128.2-1.785v-9.241c0-.824.093-1.753-.367-2.118-.48-.383-1.046-.301-1.885-.301H2.123l-.334.099c-.283.123-.547.415-.668.701-.145.344-.065 1.299-.065 1.785v10.358c.079.325.281.613.517.784.424.308.901.25 1.617.25h18.083c.994.001 1.556.086 1.968-.532zM3.907 20.309c.151.361.742.809 1.386.667.088-.02.237-.016.333-.05.065-.023.115-.069.2-.084.001.186.015.375.05.534.025.12-.022.276.033.367-.005.223-.188.175-.367.217-.218.052-.778.146-1.066.084-.188-.04-.392-.043-.568-.101-.584-.188-1.001-.53-1.234-1.067-.084-.194-.116-.427-.166-.65-.095-.42.019-.947.134-1.234.276-.694.738-1.096 1.484-1.318.2-.06.387-.017.616-.066.136-.029.533-.032.684 0 .192.041.384.089.551.134l-.233.967c-.31-.074-.781-.188-1.15-.066-.521.169-.986.949-.687 1.666zm6.923.317h-.751v1.317H8.845v-1.317H7.128c-.241 0-.596.051-.802-.018v-.867c.031-.09.134-.188.184-.267.121-.191.234-.382.351-.567.358-.57.675-1.147 1.034-1.718.189-.302.433-.604.584-.935h1.601v3.37h.768c0 .272.056.778-.018 1.002zm3.319 1.284c-.081.202-.797.134-1.101.134-.117 0-.277.019-.367-.018s-.235-.155-.267-.25v-1.25c.063-.063.111-.149.184-.201.041-.03.095-.035.133-.066.339-.005 1.259-.068 1.402.1.136.162.083.596.083.884.001.217.044.552-.067.667zm.068-2.969c0 .123.022.312-.033.383-.098.292-.688.201-1.067.201h-.4c-.388-.124-.301-.529-.301-1.018v-.484c.053-.166.202-.193.334-.283h.917c.16 0 .333-.01.417.066.203.082.133.828.133 1.135zm2.152.584h-.435c-.435 0-.938.074-1.085-.218-.047-.095-.016-.308-.016-.433v-.869c.024-.077.106-.149.149-.216l.151-.05h.917c.165 0 .331-.014.417.066.169.063.149.332.149.566.002.451.096 1.04-.247 1.154zm.183 2.368c-.09.243-.772.151-1.102.151h-.35c-.353-.098-.267-.61-.267-1.051v-.467c.032-.115.149-.169.217-.251.033-.007.031-.004.05-.017.389-.006 1.298-.081 1.451.134.117.162.066.567.066.834.001.216.044.552-.065.667zm2.452-.534v.401c-.024.096-.086.162-.134.233-.303.08-1.431.126-1.585-.084-.124-.169-.066-.775-.066-1.068 0-.111-.023-.284.017-.367.053-.105.178-.146.267-.216h.936c.121 0 .296-.021.366.033.286.102.199.687.199 1.068zm-.233-1.834h-.434c-.435 0-.954.074-1.102-.218-.046-.092-.017-.295-.017-.417v-.885c.022-.069.096-.137.134-.199.062-.022.122-.045.184-.066h.917c.14 0 .309-.017.384.05.178.063.167.322.167.566 0 .432.094 1.059-.233 1.169zm2.568 2.352c-.091.261-.739.167-1.083.167h-.351c-.384-.096-.301-.566-.301-1.035 0-.152-.036-.396.017-.517.048-.109.183-.157.267-.233h.935c.121 0 .296-.021.367.033.296.103.199.728.199 1.118 0 .162.024.375-.05.467zm.05-2.986v.367c-.027.103-.113.155-.167.233-.256.061-.64.034-.95.034h-.384c-.059-.018-.135-.079-.184-.117-.179-.143-.1-.743-.1-1.052v-.333c.026-.094.114-.163.167-.233l.149-.05h.901c.148 0 .316-.015.399.05.263.092.169.754.169 1.101zm.1-2.052c-.09.251-.532.184-.867.184h-6.605c-.437 0-1.315.085-1.568-.1-.217-.159-.134-1.09-.134-1.485v-3.069c0-.278-.056-1.109.034-1.284.065-.128.218-.152.333-.233h7.89c.424 0 .64-.037.901.134.106.412.066 1.052.066 1.567v3.854c0 .155.019.343-.05.432zm-6.923-2.802v-.017l.301-.166c.023-.053-.047-.147-.067-.217-.115.056-.274.115-.366.199H14.4c.03-.087.019-.24.066-.315v-.034h-.268v.35a.95.95 0 01-.333-.199c-.05.051-.069.131-.117.183.034.087.201.163.283.2-.057.074-.195.144-.283.184.023.084.066.159.101.233a.752.752 0 00.334-.166h.016v.367h.268c-.011-.09-.021-.264-.066-.334v-.017a.865.865 0 01.384.167h.015l.084-.251c-.098-.046-.224-.095-.3-.166h-.018zm1.652-.017a.904.904 0 00.334-.166c.013-.018.006-.005.017-.034a.5.5 0 01-.1-.183 1.133 1.133 0 00-.367.199h-.033l.083-.35h-.301v.35c-.103-.053-.177-.132-.283-.184v-.016h-.016c-.038.061-.095.111-.117.183h-.017c.032.085.228.176.316.2v.018c-.121.033-.208.115-.316.166a.54.54 0 00.134.233c.013.019.232-.113.266-.149h.033v.351h.301c-.011-.095-.034-.248-.083-.317v-.05l.383.184c.061-.063.075-.17.134-.233-.087-.085-.243-.103-.333-.184-.03-.012-.018-.005-.035-.018zm1.935-.368c-.018-.013-.294.145-.334.184h-.032l.032-.35h-.267v.35c-.127-.036-.226-.137-.334-.199-.027.06-.057.151-.1.199.066.07.182.136.267.184a.617.617 0 01-.267.184c.031.074.066.148.084.233a.728.728 0 00.333-.166h.017v.367h.267c0-.083.005-.242-.032-.301v-.066c.121.062.243.122.366.184.025-.064.043-.149.083-.2-.028-.128-.231-.143-.317-.217-.028-.011-.015-.004-.032-.018l.35-.166a.412.412 0 00-.084-.202zm12.427 1.803l-.851-.018c-.434-.017-.867-.032-1.301-.05h-.45c-.253-.055-.596-.033-.868-.033h-.3c-.162-.035-.401.023-.584-.017-.27-.059-.729-.036-1.034-.034v1.686c.32 0 .774.029 1.068-.033.22-.048.5.026.7-.018h.351c.314 0 .762.029 1.051-.033h.35c.314 0 .762.029 1.051-.032h.701c.414-.09.623-.181.717-.584.095-.405-.35-.766-.601-.834zM8.444 18.157c-.132.213-.282.446-.417.666-.139.231-.238.583-.417.768v.034h1.234v-1.619c.05-.228.052-.48.051-.75h-.05c-.136.283-.233.631-.401.901zm20.035 3.52c-.625-.395-1.269-.769-1.901-1.168-.311-.196-.634-.383-.95-.584-.131-.083-.271-.225-.435-.267v1.918c.027.056.146.068.2.101.213.13.447.232.667.367.44.268.921.478 1.368.75.283.173.599.379.901.518.283.13.768.071.917-.133.237-.326.158-.924-.134-1.135-.199-.146-.424-.234-.633-.367zm-4.938 3.336h-.184c-.118.077-.345.01-.467.083h-1.218c.084.257.372.604.518.835.386.614.729 1.237 1.117 1.851.107.171.458.507.801.367.301-.122.691-.476.533-.983-.367-.719-.733-1.437-1.1-2.153zm-12.511.6c-.166.378-.334.723-.5 1.102-.072.164-.192.319-.251.5-.158.492.253.863.567.951.448.124.73-.381.868-.602l.983-1.584c.16-.259.321-.654.518-.867v-.018H11.28c-.052.19-.176.351-.25.518zm7.274-.517h-1.686c-.001.292-.022.687.034.951.038.184-.019.422.017.584.039.184-.019.422.017.584v.3c0 .271-.021.614.033.867l.017.918c.076.325.292.524.617.601.334.078.702-.267.784-.45.098-.222.066-.646.066-.935v-.283l.101-3.137z"/></svg>
