<svg xmlns="http://www.w3.org/2000/svg" viewBox="0 0 32 32"><defs/><g fill="#fff"><path d="M31.656 20.297l-7.313-4.028 5.5-8.315-9.125 2.656L20.063.516l-4.938 9.375-7.906-7.532 3.156 10.5-10.031.25 8.188 6.406-4.313 7.375 8.125-3.906.344 8.5 5.5-6.188 6.969 5.594-1.625-8.594 8.124-1.999zm-9.906 4.875l-3.563-3.281-3.594 4.156-.531-5.969-5 2.344 2.375-3.5-5.5-3.813 7.125-.219-1.406-5.406 4.188 3.813 2.5-4.469.827 4.887 5.079-1.512-3.281 5.031 4.518 2.373-4.518.939.781 4.626z"/><path d="M12.794 16.944l2.675.072-.5-1.907 1.844.782.718-1.5.313 1.5 1.656-.188-1 1.313 1.469 1.343h-1.406l.468 1.688-1.625-1.125-1.125 1.469v-1.657l-1.562.157.594-.875z"/></g></svg>
