<svg xmlns="http://www.w3.org/2000/svg" viewBox="0 0 32 32"><g fill="#fff"><path d="M18.716 17.689h-5.378v5.532h5.378a.836.836 0 00.591-.232.76.76 0 00.249-.577v-3.915a.76.76 0 00-.249-.576.842.842 0 00-.591-.232zM19.399 13.525v-3.42a.76.76 0 00-.249-.576.836.836 0 00-.59-.232h-5.223v5.035h5.316c.498-.041.746-.31.746-.807z"/><path d="M16 1.518c-8.141 0-14.741 6.6-14.741 14.742C1.259 24.4 7.859 31 16 31c8.142 0 14.741-6.6 14.741-14.741S24.142 1.518 16 1.518zm7.285 21.828c0 .913-.322 1.684-.963 2.314-.643.633-1.419.949-2.331.949H9.609V5.908h10.226c.91 0 1.689.316 2.331.949.643.632.963 1.404.963 2.315v4.444c0 .478-.155.938-.467 1.383-.311.446-.704.742-1.181.886.477.083.896.332 1.26.746a2.2 2.2 0 01.543 1.493v5.222z"/></g></svg>
