<svg xmlns="http://www.w3.org/2000/svg" width="32" height="32"><defs/><path fill="#fff" d="M16.616 11.999a6.912 6.912 0 100 13.824 6.912 6.912 0 000-13.824zm4.482 2.835l-3.824 5.191s-.846.61-1.583-.316c-.887-1.114-.099-1.762-.099-1.762l4.873-3.569s.329-.354.633 0c.155.181 0 .456 0 .456z"/><path fill="#fff" d="M26.208 11.449l1.5-1.565c.07-.076.043-.217-.063-.313l-2.616-2.403c-.105-.097-.247-.113-.317-.037L23.26 8.734a12.073 12.073 0 00-4.847-1.845V4.412h1.804c.298 0 .539-.187.539-.417V1.739c0-.23-.241-.417-.539-.417h-7.406c-.298 0-.539.187-.539.417v2.256c0 .23.241.417.539.417h1.753v2.521a12.097 12.097 0 00-4.642 1.834L8.44 7.13c-.07-.076-.211-.06-.317.037L5.507 9.57c-.105.097-.133.238-.063.314l1.545 1.611a12.101 12.101 0 00-2.527 7.416c0 6.713 5.441 12.154 12.154 12.154s12.155-5.441 12.155-12.154a12.1 12.1 0 00-2.563-7.462zm-9.592 17.413c-5.496 0-9.951-4.455-9.951-9.951S11.12 8.96 16.616 8.96s9.951 4.455 9.951 9.951-4.455 9.951-9.951 9.951z"/></svg>