<?xml version="1.0" encoding="utf-8"?><svg version="1.1" xmlns="http://www.w3.org/2000/svg" xmlns:xlink="http://www.w3.org/1999/xlink" x="0" y="0" width="32px" height="32px" viewBox="0 0 32 32" enable-background="new 0 0 32 32" xml:space="preserve"><symbol id="dude-transit" viewBox="0 -25.1 21.25 25.118"><path fill-rule="evenodd" clip-rule="evenodd" fill="#fff" d="M15.5-4.2l0.75-1.05l1-3.1l3.9-2.65v-0.05 c0.067-0.1,0.1-0.233,0.1-0.4c0-0.2-0.05-0.383-0.15-0.55c-0.167-0.233-0.383-0.35-0.65-0.35l-4.3,1.8l-1.2,1.65l-1.5-3.95 l2.25-5.05l-3.25-6.9c-0.267-0.2-0.633-0.3-1.1-0.3c-0.3,0-0.55,0.15-0.75,0.45c-0.1,0.133-0.15,0.25-0.15,0.35 c0,0.067,0.017,0.15,0.05,0.25c0.033,0.1,0.067,0.184,0.1,0.25l2.55,5.6L10.7-14l-3.05-4.9L0.8-18.7 c-0.367,0.033-0.6,0.184-0.7,0.45c-0.067,0.3-0.1,0.467-0.1,0.5c0,0.5,0.2,0.767,0.6,0.8l5.7,0.15l2.15,5.4l3.1,5.65L9.4-5.6 c-1.367-2-2.1-3.033-2.2-3.1C7.1-8.8,6.95-8.85,6.75-8.85C6.35-8.85,6.1-8.667,6-8.3C5.9-8,5.9-7.8,6-7.7H5.95l2.5,4.4l3.7,0.3 L14-3.5L15.5-4.2z M14.55-2.9c-0.333,0.4-0.45,0.85-0.35,1.35c0.033,0.5,0.25,0.9,0.65,1.2S15.7,0.066,16.2,0 c0.5-0.067,0.9-0.3,1.2-0.7c0.333-0.4,0.467-0.85,0.4-1.35c-0.066-0.5-0.3-0.9-0.7-1.2c-0.4-0.333-0.85-0.45-1.35-0.35 C15.25-3.533,14.85-3.3,14.55-2.9z"/></symbol><g><path opacity="0.16" fill="#fff" d="M16.068,12.08c-3.817,0-6.912,3.094-6.912,6.912c0,3.817,3.095,6.912,6.912,6.912 c3.818,0,6.912-3.095,6.912-6.912C22.98,15.174,19.887,12.08,16.068,12.08z"/><path fill="#fff" d="M25.66,11.53l1.5-1.565c0.07-0.076,0.043-0.217-0.063-0.313l-2.616-2.403 c-0.105-0.097-0.247-0.113-0.317-0.037l-1.452,1.604c-1.434-0.938-3.077-1.583-4.847-1.845V4.493h1.804 c0.298,0,0.539-0.187,0.539-0.417V1.82c0-0.23-0.241-0.417-0.539-0.417h-7.406c-0.298,0-0.539,0.187-0.539,0.417v2.256 c0,0.23,0.241,0.417,0.539,0.417h1.753v2.521c-1.691,0.288-3.265,0.924-4.642,1.834L7.893,7.211 c-0.07-0.076-0.212-0.06-0.317,0.037L4.959,9.651C4.854,9.748,4.826,9.889,4.896,9.965l1.545,1.611 c-1.583,2.053-2.527,4.623-2.527,7.416c0,6.713,5.441,12.154,12.154,12.154s12.155-5.441,12.155-12.154 C28.224,16.179,27.265,13.59,25.66,11.53z M16.068,28.943c-5.496,0-9.951-4.455-9.951-9.951s4.455-9.951,9.951-9.951 s9.951,4.455,9.951,9.951S21.564,28.943,16.068,28.943z"/><polygon fill="#fff" points="23.256,15.683 21.354,13.78 13.646,21.487 10.351,18.195 8.448,20.098 13.527,25.176 13.529,25.173 13.648,25.29"/></g></svg>
