<svg fill="none" xmlns="http://www.w3.org/2000/svg" viewBox="0 0 1733.742 2082.773"><path d="M1359.432 1735.364a631.056 631.056 0 01-190.73 191.16 631.02 631.02 0 01-522.45 73.4 630.952 630.952 0 01-236.03-131.19 631.133 631.133 0 01-159.57-217.85 630.987 630.987 0 01-53.89-264.61 631.056 631.056 0 0161.65-262.91 630.938 630.938 0 01165.91-213.06l44.49 53.51a561.337 561.337 0 00-147.62 189.56 561.448 561.448 0 00-54.85 233.92 561.237 561.237 0 0047.95 235.43 561.466 561.466 0 00141.97 193.83 561.442 561.442 0 00210 116.73 561.527 561.527 0 00239.57 18.25 561.324 561.324 0 00225.27-83.57 561.474 561.474 0 00169.7-170.07z" fill="#fff"/><path stroke="#fff" stroke-width="60" d="M0 667.964h436.932M743.162 1149.744h567.93M411.542 655.714l356.16 506.78"/><path d="M1485.832 130.062s-4.17-7.428-9.69-12.54c-5.43-5.034-11.78-7.042-11.78-7.042s-4.55-9.284-8.25-12.248c-7.87-6.236-13.9-4.503-13.9-4.503s-11.64-13.713-30.15 4.597c-2.42 2.391-5.22 6.7-5.22 6.7s-16.58.082-19.29 3.944c-9.09 12.888-3.8 15.42-8.62 24.72-13.23 25.534 9.44 15.71-6.56 54.147-9.79 23.485-71.49 83.183-90.95 103.878-16.94 18.017-44.02 54.002-44.02 54.002l-17.24-.937-112.03-46.103-37.82-29.463-44.62-22.532-48.52-28.455s-41.93-19.912-60.29-6.323l-23.29.02s4.42-16.098 4.54-18.44c.04-2.053-1.48-12.254-1.48-12.254-2.53-2.975-7.61-19.372-7.61-19.372l-9.46-11.926-6.65-12.635s2.73-15.143 3.55-18.373c.9-3.413-1.2-4.072-1.2-4.072s6.35-4.36 8.71-18.416c2.21-13.899-27.89-43.693-42.13-55.588-14.08-12.026-51.49-27.876-51.49-27.876s-3.14-9.676-8.28-11.91c-5.32-2.053-10.17-.633-12.93.138-2.64.407-21.27 6.331-23.77 7.727-2.35 1.27-5.36 3.184-5.36 3.184s-44.81 6.437-60.81 14.52c-15.98 8.172-19.66 7.882-44.99 31.43-25.46 23.497-53.54 74.072-43.58 131.902 10.12 57.864 53.71 102.671 64.55 109.282 10.73 6.51 27.07 19.715 27.07 19.715l.65 7.853c.12-2.627-43.91 26.17-51.19 36.675-6.78 11.937-3.48 12.466-24.1 52.025-16.72 31.61-15.77 60.42-19.11 108.921-19.94 64.05-28.2 140-31.82 169.64-3.81 31.06 1.15 131.22 8.8 142.44 7.64 11.22 16.64 14.79 37.33 22.26 18.36 6.63 30.17 14.74 61.74 17.77 6.28 16.01 24.51 34.07 33.23 45.94 9.32 12.66 15.91 9.44 28.13 7.08 12.37-2.38 17.32-7.3 17.32-7.3s14.14 2.12 8.18 9.91c-6.14 7.89-13.96 26.05-14.06 32.63.07 6.49 39.33 63.01 39.33 63.01s25.92 26.17 28.32 30.02l2.4 3.84 45.16 61.86 5.4 7.15s18.31 12.3 15.49 14.82c-2.51 2.45-12.63-.15-13.39 4.85-.85 5.02.22 26.12 2.93 28.09 2.76 1.82 8.57 14.81 8.57 14.81s13.18 21.27 15.16 23.19c2.19 1.78-4.03 11.76 1.74 13.5 5.88 1.8.48 15.99 10.98 21.31 10.42 5.35 20.09 5.61 20.09 5.61l93.71 228.13 8.02 44.59 7.15 50.51s-13.85 8.45-16.25 24.47c-2.26 16.1 10.71 139.74 21.07 162.05 10.6 22.23 6.66 39.04 9.74 45.75 3.06 6.58 11.69 6.14 12.21 6.11l11.08 125.15s-13.53 15.43-14.63 31.33c-.95 15.93-4.06 42.5-4.06 42.5s4.59 47.05 7.58 51.15c2.94 3.94 2.78 6.98 24.57 5.75 21.84-1.25 48.94-9.06 54.03-7.28 4.96 1.85 52.39 11.54 54.45 12.85 2.31 1.21 65.42 6.86 84.35-2.21 3.55-1.7 11.36-6.39 11.36-6.39l67.79-58.32c11.69-9.56-12.64-22.71-23.98-29.32-21.41-12.49-48.85 14.99-56.55 11.3-7.88-3.73-67.27-68.77-70.27-73.48-2.81-4.61-10.27-43.61-8.52-61.72 1.49-18.04 1.04-64.24 1.04-64.24s10.14-12.92 10.83-15.81c.52-2.85 5.24-39.1 3.58-47.86-1.69-8.98-10.81-47.24-10.81-47.24s9.81-64.77 10.36-73.01c.43-8.4 8.58-74.26 7.64-90.69 1.38-9.29 20.43-28.03 6.86-69.06.76-37.35-27.2-168.52-29.07-177.02-2.11-8.35-13.29-67.26-13.29-67.26s-5.77-38.85-7.1-55.82c-1.41-16.75 3.11-13.51 3.11-13.51s-1.51-12.92 30.66-20.51c14.52-3.42 65.66-3.59 65.66-3.59l115.03-12.28 50.22 1.92s-24.15 65.18-27.3 81.04c-3 15.94 4.16 140.09 13.46 162.94 9.55 22.75 4.83 39.33 7.57 46.21 2.76 6.73 11.4 6.75 11.91 6.76l5.18 125.53s-14.25 14.7-16.09 30.5c-1.7 15.87-10.58 40.04-10.58 40.04s-8.12 44.86-5.32 49.07c2.73 4.1 17.45 11.7 39.29 11.61 21.89-.1 49.32-6.44 54.32-4.38 4.88 2.1 51.79 14.31 53.79 15.72 2.25 1.35 77.35 7.34 97.89 5.83 20.41-1.49 64.16-4.49 67.56-7.27 3.87-2.7 4.94-30.32 4.94-30.32s-1.21-14.52-11.53-19.22c-10.51-4.85-25.8-16.54-37.81-18.55-11.95-2.02-26.66-6.83-34.19-10.91-7.71-4.14-63.98-72.24-66.76-77.12-2.59-4.75-8.2-44.09-5.64-62.08 2.33-17.94 4.06-64.1 4.06-64.1s10.73-12.36 11.59-15.19c.66-2.84 7.08-38.74 5.82-47.62-1.27-9.05-8.59-47.74-8.59-47.74s12.84-64.14 13.78-72.36c.82-8.35 13.07-125.02 12.88-141.46-.26-16.63 2.84-37.92 2.84-37.92l-5.92-42.31c-3.55-2.67-19.74-71.66-66.68-74.15-43.46-12.6-55.46-25.94-134.48-44.77-50.81-12.12-147.75-2.58-147.75-2.58l-38.83-45.52-1.86-27.06s33.84-4.9 41.77-10.77c8.1-5.87 2.89-70.34-3.87-77.4-7.06-6.93-70.38-139.21-81.23-145.45-10.47-6.31-16.64-16.19-30.66-17.21-13.95-.89-34.98 4.2-34.98 4.2s-4.03-26-4.91-31.19c-1.08-5.09-10.47-15.92-10.47-15.92s44.98 14.96 71.85 12.51c28.72 8.47 82.1 19.01 96.89 13.53 14.6-5.24 22.13-10.52 22.13-10.52s9.72 5.04 16.88 1.98c28.44-12.41 39.65-46.32 40.06-48.35.65-2.208 15.95-32.373 15.95-32.373 14.86-40.093 28.88-68.843 46.64-112.774 16.09-39.807 21.08-63.513 26.07-78.327 5.02-14.968 9.92-20.879 10.7-22.876 8.46-18.326 25.53-13.246 45.97-49.376 5.3-9.342 6.84-21.222 1.99-28.677-3.74-5.828-9.62-7.369-9.62-7.369z" fill="#fff"/><path fill-rule="evenodd" clip-rule="evenodd" d="M993.182 33.84l-.95 30.227-10.67.784a49.38 49.38 0 00-2.1 4.42c-.78 1.11-1.29 2.2-1.51 3.32-.03.922.42 1.875 1.32 2.85 1.08 1.146 2.65 1.76 4.71 1.824.94.03 1.97-.223 3.1-.736l3.37.106 4.49 8.542 9.08-3.359 75.32 2.37 3.76 4.89 4.59-3.222 53.76 1.692.69 4.793 84.56 2.661 9.9 5.631a70.421 70.421 0 007.16 4.148c2.59.825 4.35 1.256 5.28 1.286 1.87.06 3.65-.163 5.34-.68 1.14-.138 1.9-.58 2.29-1.334l4-2.384 38.35 1.207c-.3 9.511-2.75 19.247-7.36 29.208-4.01 8.642-10.2 18.163-18.56 28.547-8.56 10.581-20.65 21.036-36.29 31.378.36.012 1.98 2.22 4.82 6.6 2.29 4.557 5.22 9.511 8.78 14.852 3.18 6.074 7.17 13.03 11.96 20.837 11.45-7.304 22.37-16.104 32.79-26.439 9.06-8.874 18.48-20.074 28.24-33.585 9.76-13.158 18-28.963 24.76-47.438.76-.72 1.79-.59 3.07.382.92.593 1.65 1.27 2.18 2.03l8.44-1.132c4.22 2.56 8.64 4.382 13.28 5.46 3.71 1.251 8.09 1.652 13.13 1.255 5.25-.399 10.36-2.485 15.34-6.25.38.012 2.1 1.478 5.19 4.371 3.08 2.915 6.42 6.656 10.01 11.24 3.76 4.8 7.24 10.147 10.42 16.032 3.38 5.517 5.64 11.103 6.76 16.751-.01.376 1.65 1.164 4.97 2.388 3.13 1.406 6.84 2.372 11.13 2.867 4.09.325 8.04-.483 11.83-2.437 3.63-2.11 6-6.529 7.16-13.218-.17-.756-1.48-3.78-3.93-9.087-2.09-4.927-4.63-10.14-7.65-15.667a765.697 765.697 0 00-7.91-15.66c-2.66-4.57-4.27-6.867-4.82-6.884.55.017 2.18-1.036 4.85-3.206 2.32-2.167 4.77-2.938 7.38-2.285.54.204 2.39.91 5.53 2.127 3.33 1.044 7.48 2.58 12.47 4.608 4.99 2.028 10.51 4.253 16.6 6.684 6.29 2.444 12.55 4.881 18.84 7.325 14.76 5.882 31.27 12.571 49.53 20.058l65.66 23.932 8.13-79.054c-2.91-2.338-6.31-4.128-10.2-5.37-3.51-1.426-7.59-2.576-12.22-3.465-4.27-1.074-9.04-1.134-14.29-.18-.02.376-4.12.15-12.3-.665-8.19-1.197-17.31-2.228-27.38-3.1l-40.52-3.8a130.86 130.86 0 00-7.92 2.275c-4.72 1.527-8.66 2.245-11.83 2.145-1.12-.035-3.44-.657-6.96-1.902-3.88-.874-7.87-2.02-11.94-3.456-4.62-1.273-9.8-3.014-15.52-5.245l-24.8-22.653-2.3 2.174-155.68-4.899c.01-.368-.54-.85-1.64-1.442-.54-.588-1.55-1.093-3.03-1.508-1.48-.415-3.71-.688-6.7-.782l-119.87-2.653a48.6 48.6 0 00-6.8 2.033c-1.71.51-3.59 1.007-5.65 1.505-1.9.88-3.6 1.382-5.1 1.523l-50.11-1.577a243.316 243.316 0 01-7.85 9.01c-2.12 2.173-4.45 4.436-6.94 6.792-2.11 1.985-3.93 3.055-5.42 3.181l-43.96-1.383-3.33-1.225c-2.11-3.98-3.59-7.582-4.42-10.786a105.336 105.336 0 01-3.39-8.237c-.84-2.844-1.62-4.627-2.34-5.408-.48-2.63-.72-4.035-.71-4.23l.06-1.952-11.51-.362zm380.79 74.768l15.11.754c2.99-.094 5.58.814 7.76 2.761 1.79 2.115 2.66 4.667 2.57 7.655-.08 2.417-1.09 4.541-3.01 6.345-2.3 1.798-4.94 2.662-7.93 2.568l-15.12-.476c-2.8-.088-5.01-1.104-6.64-3.027-1.62-1.914-2.38-4.095-2.3-6.512.09-2.987 1-5.483 2.74-7.487 1.75-1.824 4.02-2.669 6.82-2.58z" fill="#fff"/></svg>
